  0
SECTION
  2
HEADER
  9
$ACADVER
  1
AC1015
  9
$ACADMAINTVER
 70
     6
  9
$DWGCODEPAGE
  3
ANSI_1252
  9
$INSBASE
 10
0.0
 20
0.0
 30
0.0
  9
$EXTMIN
 10
4.3897549877
 20
-11.8562064361
 30
0.0
  9
$EXTMAX
 10
7.3773144402
 20
6.7512332616
 30
0.0
  9
$LIMMIN
 10
0.0
 20
0.0
  9
$LIMMAX
 10
12.0
 20
9.0
  9
$ORTHOMODE
 70
     0
  9
$REGENMODE
 70
     1
  9
$FILLMODE
 70
     1
  9
$QTEXTMODE
 70
     0
  9
$MIRRTEXT
 70
     1
  9
$LTSCALE
 40
1.0
  9
$ATTMODE
 70
     1
  9
$TEXTSIZE
 40
0.1377952756
  9
$TRACEWID
 40
0.05
  9
$TEXTSTYLE
  7
Standard
  9
$CLAYER
  8
0
  9
$CELTYPE
  6
ByLayer
  9
$CECOLOR
 62
   256
  9
$CELTSCALE
 40
1.0
  9
$DISPSILH
 70
     0
  9
$DIMSCALE
 40
1.0
  9
$DIMASZ
 40
0.13
  9
$DIMEXO
 40
0.0
  9
$DIMDLI
 40
0.38
  9
$DIMRND
 40
0.0
  9
$DIMDLE
 40
0.0
  9
$DIMEXE
 40
0.0393700787
  9
$DIMTP
 40
0.0
  9
$DIMTM
 40
0.0
  9
$DIMTXT
 40
0.1377952756
  9
$DIMCEN
 40
0.09
  9
$DIMTSZ
 40
0.0
  9
$DIMTOL
 70
     0
  9
$DIMLIM
 70
     0
  9
$DIMTIH
 70
     1
  9
$DIMTOH
 70
     1
  9
$DIMSE1
 70
     0
  9
$DIMSE2
 70
     0
  9
$DIMTAD
 70
     1
  9
$DIMZIN
 70
     1
  9
$DIMBLK
  1

  9
$DIMASO
 70
     1
  9
$DIMSHO
 70
     1
  9
$DIMPOST
  1

  9
$DIMAPOST
  1

  9
$DIMALT
 70
     0
  9
$DIMALTD
 70
     2
  9
$DIMALTF
 40
25.4
  9
$DIMLFAC
 40
1.0
  9
$DIMTOFL
 70
     0
  9
$DIMTVP
 40
0.0
  9
$DIMTIX
 70
     0
  9
$DIMSOXD
 70
     0
  9
$DIMSAH
 70
     0
  9
$DIMBLK1
  1

  9
$DIMBLK2
  1

  9
$DIMSTYLE
  2
Standard
  9
$DIMCLRD
 70
     0
  9
$DIMCLRE
 70
     0
  9
$DIMCLRT
 70
     0
  9
$DIMTFAC
 40
1.0
  9
$DIMGAP
 40
0.06
  9
$DIMJUST
 70
     0
  9
$DIMSD1
 70
     0
  9
$DIMSD2
 70
     0
  9
$DIMTOLJ
 70
     1
  9
$DIMTZIN
 70
     1
  9
$DIMALTZ
 70
     0
  9
$DIMALTTZ
 70
     0
  9
$DIMUPT
 70
     0
  9
$DIMDEC
 70
     2
  9
$DIMTDEC
 70
     2
  9
$DIMALTU
 70
     2
  9
$DIMALTTD
 70
     2
  9
$DIMTXSTY
  7
Standard
  9
$DIMAUNIT
 70
     0
  9
$DIMADEC
 70
     2
  9
$DIMALTRND
 40
0.0
  9
$DIMAZIN
 70
     0
  9
$DIMDSEP
 70
    46
  9
$DIMATFIT
 70
     3
  9
$DIMFRAC
 70
     0
  9
$DIMLDRBLK
  1

  9
$DIMLUNIT
 70
     2
  9
$DIMLWD
 70
    -2
  9
$DIMLWE
 70
    -2
  9
$DIMTMOVE
 70
     0
  9
$LUNITS
 70
     2
  9
$LUPREC
 70
     2
  9
$SKETCHINC
 40
0.1
  9
$FILLETRAD
 40
0.0
  9
$AUNITS
 70
     0
  9
$AUPREC
 70
     2
  9
$MENU
  1
.
  9
$ELEVATION
 40
0.0
  9
$PELEVATION
 40
0.0
  9
$THICKNESS
 40
0.0
  9
$LIMCHECK
 70
     0
  9
$CHAMFERA
 40
0.0
  9
$CHAMFERB
 40
0.0
  9
$CHAMFERC
 40
0.0
  9
$CHAMFERD
 40
0.0
  9
$SKPOLY
 70
     0
  9
$TDCREATE
 40
2460632.803179942
  9
$TDUCREATE
 40
2460633.136513276
  9
$TDUPDATE
 40
2460632.805564479
  9
$TDUUPDATE
 40
2460633.138897813
  9
$TDINDWG
 40
0.0000000116
  9
$TDUSRTIMER
 40
0.0000000116
  9
$USRTIMER
 70
     1
  9
$ANGBASE
 50
0.0
  9
$ANGDIR
 70
     0
  9
$PDMODE
 70
     0
  9
$PDSIZE
 40
-1.0
  9
$PLINEWID
 40
0.0
  9
$SPLFRAME
 70
     0
  9
$SPLINETYPE
 70
     6
  9
$SPLINESEGS
 70
     8
  9
$HANDSEED
  5
73
  9
$SURFTAB1
 70
     6
  9
$SURFTAB2
 70
     6
  9
$SURFTYPE
 70
     6
  9
$SURFU
 70
     6
  9
$SURFV
 70
     6
  9
$UCSBASE
  2

  9
$UCSNAME
  2

  9
$UCSORG
 10
0.0
 20
0.0
 30
0.0
  9
$UCSXDIR
 10
1.0
 20
0.0
 30
0.0
  9
$UCSYDIR
 10
0.0
 20
1.0
 30
0.0
  9
$UCSORTHOREF
  2

  9
$UCSORTHOVIEW
 70
     0
  9
$UCSORGTOP
 10
0.0
 20
0.0
 30
0.0
  9
$UCSORGBOTTOM
 10
0.0
 20
0.0
 30
0.0
  9
$UCSORGLEFT
 10
0.0
 20
0.0
 30
0.0
  9
$UCSORGRIGHT
 10
0.0
 20
0.0
 30
0.0
  9
$UCSORGFRONT
 10
0.0
 20
0.0
 30
0.0
  9
$UCSORGBACK
 10
0.0
 20
0.0
 30
0.0
  9
$PUCSBASE
  2

  9
$PUCSNAME
  2

  9
$PUCSORG
 10
0.0
 20
0.0
 30
0.0
  9
$PUCSXDIR
 10
1.0
 20
0.0
 30
0.0
  9
$PUCSYDIR
 10
0.0
 20
1.0
 30
0.0
  9
$PUCSORTHOREF
  2

  9
$PUCSORTHOVIEW
 70
     0
  9
$PUCSORGTOP
 10
0.0
 20
0.0
 30
0.0
  9
$PUCSORGBOTTOM
 10
0.0
 20
0.0
 30
0.0
  9
$PUCSORGLEFT
 10
0.0
 20
0.0
 30
0.0
  9
$PUCSORGRIGHT
 10
0.0
 20
0.0
 30
0.0
  9
$PUCSORGFRONT
 10
0.0
 20
0.0
 30
0.0
  9
$PUCSORGBACK
 10
0.0
 20
0.0
 30
0.0
  9
$USERI1
 70
     0
  9
$USERI2
 70
     0
  9
$USERI3
 70
     0
  9
$USERI4
 70
     0
  9
$USERI5
 70
     0
  9
$USERR1
 40
0.0
  9
$USERR2
 40
0.0
  9
$USERR3
 40
0.0
  9
$USERR4
 40
0.0
  9
$USERR5
 40
0.0
  9
$WORLDVIEW
 70
     1
  9
$SHADEDGE
 70
     3
  9
$SHADEDIF
 70
    70
  9
$TILEMODE
 70
     1
  9
$MAXACTVP
 70
    64
  9
$PINSBASE
 10
0.0
 20
0.0
 30
0.0
  9
$PLIMCHECK
 70
     0
  9
$PEXTMIN
 10
1.0000000000E+20
 20
1.0000000000E+20
 30
1.0000000000E+20
  9
$PEXTMAX
 10
-1.0000000000E+20
 20
-1.0000000000E+20
 30
-1.0000000000E+20
  9
$PLIMMIN
 10
0.0
 20
0.0
  9
$PLIMMAX
 10
12.0
 20
9.0
  9
$UNITMODE
 70
     0
  9
$VISRETAIN
 70
     1
  9
$PLINEGEN
 70
     0
  9
$PSLTSCALE
 70
     1
  9
$TREEDEPTH
 70
  3020
  9
$CMLSTYLE
  2
Standard
  9
$CMLJUST
 70
     0
  9
$CMLSCALE
 40
1.0
  9
$PROXYGRAPHICS
 70
     1
  9
$MEASUREMENT
 70
     0
  9
$CELWEIGHT
370
    -1
  9
$ENDCAPS
280
     0
  9
$JOINSTYLE
280
     0
  9
$LWDISPLAY
290
     1
  9
$INSUNITS
 70
     1
  9
$HYPERLINKBASE
  1

  9
$STYLESHEET
  1

  9
$XEDIT
290
     1
  9
$CEPSNTYPE
380
     0
  9
$PSTYLEMODE
290
     1
  9
$FINGERPRINTGUID
  2
{24f8131a-985e-4248-b952-1a4fe98c0a31}
  9
$VERSIONGUID
  2
{FAEB1C32-E019-11D5-929B-00C0DF256EC4}
  9
$EXTNAMES
290
     1
  9
$PSVPSCALE
 40
0.0
  9
$OLESTARTUP
290
     0
  0
ENDSEC
  0
SECTION
  2
CLASSES
  0
CLASS
  1
ACDBDICTIONARYWDFLT
  2
AcDbDictionaryWithDefault
  3
ObjectDBX Classes
 90
        0
280
     0
281
     0
  0
CLASS
  1
VISUALSTYLE
  2
AcDbVisualStyle
  3
ObjectDBX Classes
 90
     4095
280
     0
281
     0
  0
CLASS
  1
MATERIAL
  2
AcDbMaterial
  3
ObjectDBX Classes
 90
     1153
280
     0
281
     0
  0
CLASS
  1
SCALE
  2
AcDbScale
  3
ObjectDBX Classes
 90
     1153
280
     0
281
     0
  0
CLASS
  1
TABLESTYLE
  2
AcDbTableStyle
  3
ObjectDBX Classes
 90
     4095
280
     0
281
     0
  0
CLASS
  1
MLEADERSTYLE
  2
AcDbMLeaderStyle
  3
ACDB_MLEADERSTYLE_CLASS
 90
     4095
280
     0
281
     0
  0
CLASS
  1
SUN
  2
AcDbSun
  3
SCENEOE
 90
     1153
280
     0
281
     0
  0
CLASS
  1
ACDBPLACEHOLDER
  2
AcDbPlaceHolder
  3
ObjectDBX Classes
 90
        0
280
     0
281
     0
  0
CLASS
  1
LAYOUT
  2
AcDbLayout
  3
ObjectDBX Classes
 90
        0
280
     0
281
     0
  0
ENDSEC
  0
SECTION
  2
TABLES
  0
TABLE
  2
VPORT
  5
8
330
0
100
AcDbSymbolTable
 70
     1
  0
VPORT
  5
29
330
8
100
AcDbSymbolTableRecord
100
AcDbViewportTableRecord
  2
*Active
 70
     0
 10
0.0
 20
0.0
 11
1.0
 21
1.0
 12
5.8835347139
 22
-2.5524865872
 13
0.0
 23
0.0
 14
0.5
 24
0.5
 15
0.5
 25
0.5
 16
0.0
 26
0.0
 36
1.0
 17
0.0
 27
0.0
 37
0.0
 40
18.9795884916
 41
0.1605572556
 42
50.0
 43
0.0
 44
0.0
 50
0.0
 51
0.0
 71
     0
 72
   100
 73
     1
 74
     3
 75
     0
 76
     0
 77
     0
 78
     0
281
     0
 65
     1
110
0.0
120
0.0
130
0.0
111
1.0
121
0.0
131
0.0
112
0.0
122
1.0
132
0.0
 79
     0
146
0.0
  0
ENDTAB
  0
TABLE
  2
LTYPE
  5
5
330
0
100
AcDbSymbolTable
 70
     6
  0
LTYPE
  5
14
330
5
100
AcDbSymbolTableRecord
100
AcDbLinetypeTableRecord
  2
ByBlock
 70
     0
  3

 72
    65
 73
     0
 40
0.0
  0
LTYPE
  5
15
330
5
100
AcDbSymbolTableRecord
100
AcDbLinetypeTableRecord
  2
ByLayer
 70
     0
  3

 72
    65
 73
     0
 40
0.0
  0
LTYPE
  5
16
330
5
100
AcDbSymbolTableRecord
100
AcDbLinetypeTableRecord
  2
Continuous
 70
     0
  3
Solid line
 72
    65
 73
     0
 40
0.0
  0
LTYPE
  5
5E
330
5
100
AcDbSymbolTableRecord
100
AcDbLinetypeTableRecord
  2
HIDDEN
 70
     0
  3
Hidden __ __ __ __ __ __ __ __ __ __ __ __ __ __
 72
    65
 73
     2
 40
0.075
 49
0.05
 74
     0
 49
-0.025
 74
     0
  0
LTYPE
  5
5F
330
5
100
AcDbSymbolTableRecord
100
AcDbLinetypeTableRecord
  2
PHANTOM
 70
     0
  3
Phantom ______  __  __  ______  __  __  ______
 72
    65
 73
     6
 40
0.5
 49
0.25
 74
     0
 49
-0.05
 74
     0
 49
0.05
 74
     0
 49
-0.05
 74
     0
 49
0.05
 74
     0
 49
-0.05
 74
     0
  0
LTYPE
  5
60
330
5
100
AcDbSymbolTableRecord
100
AcDbLinetypeTableRecord
  2
CENTER
 70
     0
  3
Center ____ _ ____ _ ____ _ ____ _ ____ _ ____
 72
    65
 73
     4
 40
0.4
 49
0.25
 74
     0
 49
-0.05
 74
     0
 49
0.05
 74
     0
 49
-0.05
 74
     0
  0
LTYPE
  5
61
330
5
100
AcDbSymbolTableRecord
100
AcDbLinetypeTableRecord
  2
CENTERX2
 70
     0
  3
Center (2x) ________  __  ________  __  _____
 72
    65
 73
     4
 40
0.8
 49
0.5
 74
     0
 49
-0.1
 74
     0
 49
0.1
 74
     0
 49
-0.1
 74
     0
  0
LTYPE
  5
62
330
5
100
AcDbSymbolTableRecord
100
AcDbLinetypeTableRecord
  2
DOT2
 70
     0
  3
Dot (.5x) ........................................
 72
    65
 73
     2
 40
0.025
 49
0.0
 74
     0
 49
-0.025
 74
     0
  0
ENDTAB
  0
TABLE
  2
LAYER
  5
2
330
0
100
AcDbSymbolTable
 70
     1
  0
LAYER
  5
10
330
2
100
AcDbSymbolTableRecord
100
AcDbLayerTableRecord
  2
0
 70
     0
 62
     7
  6
Continuous
370
    -3
390
F
  0
ENDTAB
  0
TABLE
  2
STYLE
  5
3
330
0
100
AcDbSymbolTable
 70
     2
  0
STYLE
  5
11
330
3
100
AcDbSymbolTableRecord
100
AcDbTextStyleTableRecord
  2
Standard
 70
     0
 40
0.0
 41
1.0
 50
0.0
 71
     0
 42
0.1377952756
  3
txt
  4

  0
STYLE
  5
6F
330
3
100
AcDbSymbolTableRecord
100
AcDbTextStyleTableRecord
  2
SLDTEXTSTYLE0
 70
     0
 40
0.0
 41
0.7
 50
0.0
 71
     0
 42
0.1377952756
  3
TXT
  4

  0
ENDTAB
  0
TABLE
  2
VIEW
  5
6
330
0
100
AcDbSymbolTable
 70
     0
  0
ENDTAB
  0
TABLE
  2
UCS
  5
7
330
0
100
AcDbSymbolTable
 70
     0
  0
ENDTAB
  0
TABLE
  2
APPID
  5
9
330
0
100
AcDbSymbolTable
 70
     1
  0
APPID
  5
12
330
9
100
AcDbSymbolTableRecord
100
AcDbRegAppTableRecord
  2
ACAD
 70
     0
  0
ENDTAB
  0
TABLE
  2
DIMSTYLE
  5
A
330
0
100
AcDbSymbolTable
 70
     1
100
AcDbDimStyleTable
  0
DIMSTYLE
105
27
330
A
100
AcDbSymbolTableRecord
100
AcDbDimStyleTableRecord
  2
Standard
 70
     0
178
     0
340
11
  0
ENDTAB
  0
TABLE
  2
BLOCK_RECORD
  5
1
330
0
100
AcDbSymbolTable
 70
     1
  0
BLOCK_RECORD
  5
1F
330
1
100
AcDbSymbolTableRecord
100
AcDbBlockTableRecord
  2
*Model_Space
340
22
  0
BLOCK_RECORD
  5
1B
330
1
100
AcDbSymbolTableRecord
100
AcDbBlockTableRecord
  2
*Paper_Space
340
1E
  0
BLOCK_RECORD
  5
23
330
1
100
AcDbSymbolTableRecord
100
AcDbBlockTableRecord
  2
*Paper_Space0
340
26
  0
ENDTAB
  0
ENDSEC
  0
SECTION
  2
BLOCKS
  0
BLOCK
  5
20
330
1F
100
AcDbEntity
  8
0
100
AcDbBlockBegin
  2
*Model_Space
 70
     0
 10
0.0
 20
0.0
 30
0.0
  3
*Model_Space
  1

  0
ENDBLK
  5
21
330
1F
100
AcDbEntity
  8
0
100
AcDbBlockEnd
  0
BLOCK
  5
1C
330
1B
100
AcDbEntity
 67
     1
  8
0
100
AcDbBlockBegin
  2
*Paper_Space
 70
     0
 10
0.0
 20
0.0
 30
0.0
  3
*Paper_Space
  1

  0
ENDBLK
  5
1D
330
1B
100
AcDbEntity
 67
     1
  8
0
100
AcDbBlockEnd
  0
BLOCK
  5
24
330
23
100
AcDbEntity
  8
0
100
AcDbBlockBegin
  2
*Paper_Space0
 70
     0
 10
0.0
 20
0.0
 30
0.0
  3
*Paper_Space0
  1

  0
ENDBLK
  5
25
330
23
100
AcDbEntity
  8
0
100
AcDbBlockEnd
  0
ENDSEC
  0
SECTION
  2
ENTITIES
  0
SPLINE
  5
63
330
1F
100
AcDbEntity
  8
0
  6
Continuous
 62
     7
370
    25
100
AcDbSpline
210
0.0
220
0.0
230
1.0
 70
     8
 71
     3
 72
    68
 73
    64
 74
     0
 42
0.00000001
 43
0.00000001
 40
0.0
 40
0.0
 40
0.0
 40
0.0
 40
0.0046166328277754
 40
0.0095640376039016
 40
0.0148459453858896
 40
0.0204654209897393
 40
0.0264250084547692
 40
0.0327268399259115
 40
0.039372718157887
 40
0.046364179772175
 40
0.0537025443025126
 40
0.0613889526251584
 40
0.0694243973714672
 40
0.077809747220209
 40
0.0865457664708073
 40
0.0956331309431998
 40
0.1050724409925435
 40
0.1148642322386552
 40
0.1250089844708906
 40
0.1495078312246156
 40
0.1714737243316298
 40
0.1909066904906025
 40
0.2078067684047302
 40
0.2221740172468749
 40
0.2340085341825789
 40
0.2433104957462218
 40
0.25008027659809
 40
0.2666751358612169
 40
0.2825853616111726
 40
0.2978144297383916
 40
0.3123663042495942
 40
0.3262455293977597
 40
0.3394573435349065
 40
0.3520078207383018
 40
0.3639040481415053
 40
0.3751543493811119
 40
0.413357358112117
 40
0.4460407699494879
 40
0.4743373087954802
 40
0.4999680711738356
 40
0.5203426943490995
 40
0.542163815796608
 40
0.5664136660483313
 40
0.5938145229244629
 40
0.6248695789085175
 40
0.6511184765552259
 40
0.6806680871598322
 40
0.7135894638996849
 40
0.749933889969687
 40
0.7658387679869034
 40
0.7919848731677547
 40
0.8283733406840639
 40
0.8750045577056533
 40
0.891677012335405
 40
0.9074113154365321
 40
0.9222101313298953
 40
0.936076663581461
 40
0.9490148082935989
 40
0.9610293647802631
 40
0.9721263307449192
 40
0.9823133247441693
 40
0.9916002051101079
 40
1.0
 40
1.0
 40
1.0
 40
1.0
 10
4.415506607244547
 20
-11.85620643607045
 30
0.0
 10
4.418037278222232
 20
-11.85339120396871
 30
0.0
 10
4.423279937384573
 20
-11.84755903435738
 30
0.0
 10
4.431064451498202
 20
-11.83819807328614
 30
0.0
 10
4.439142224850684
 20
-11.82801849773879
 30
0.0
 10
4.44748273115758
 20
-11.81699208937994
 30
0.0
 10
4.456095010113825
 20
-11.80512685401911
 30
0.0
 10
4.46497641986499
 20
-11.79242019417621
 30
0.0
 10
4.474127725238096
 20
-11.77887267027262
 30
0.0
 10
4.483548687950866
 20
-11.76448396058305
 30
0.0
 10
4.493239355796642
 20
-11.74925402985747
 30
0.0
 10
4.503199694297921
 20
-11.73318278517377
 30
0.0
 10
4.513429682244678
 20
-11.71627016366472
 30
0.0
 10
4.523929335537039
 20
-11.69851613036866
 30
0.0
 10
4.534698500315587
 20
-11.67992056841636
 30
0.0
 10
4.545737708072772
 20
-11.66048373436009
 30
0.0
 10
4.557044782442479
 20
-11.6402044393171
 30
0.0
 10
4.568628243777113
 20
-11.6190872287699
 30
0.0
 10
4.585894824982445
 20
-11.58700588726454
 30
0.0
 10
4.607780219280358
 20
-11.54607545303811
 30
0.0
 10
4.633361321437787
 20
-11.49848546651438
 30
0.0
 10
4.656030187475427
 20
-11.45640340386762
 30
0.0
 10
4.675805118646084
 20
-11.41983904659728
 30
0.0
 10
4.692678982431969
 20
-11.38878847335593
 30
0.0
 10
4.706658792688367
 20
-11.36325555406524
 30
0.0
 10
4.717722137177657
 20
-11.34322750682959
 30
0.0
 10
4.730894822413777
 20
-11.31990688429446
 30
0.0
 10
4.747169844342485
 20
-11.29211895826522
 30
0.0
 10
4.767339380452515
 20
-11.25857812603858
 30
0.0
 10
4.787159068240463
 20
-11.22678608610693
 30
0.0
 10
4.806600763689818
 20
-11.19672658667547
 30
0.0
 10
4.825671558591297
 20
-11.16840350123505
 30
0.0
 10
4.844369688586392
 20
-11.14181525475898
 30
0.0
 10
4.862695847368797
 20
-11.11696278635107
 30
0.0
 10
4.880649486360527
 20
-11.09384212499397
 30
0.0
 10
4.912601722213004
 20
-11.05499574315281
 30
0.0
 10
4.958973557403206
 20
-11.0058702040353
 30
0.0
 10
5.023580742482019
 20
-10.95578089464687
 30
0.0
 10
5.088261933653231
 20
-10.92478367368295
 30
0.0
 10
5.149356443654482
 20
-10.91467932613253
 30
0.0
 10
5.205073606381352
 20
-10.92191649890593
 30
0.0
 10
5.256389270947971
 20
-10.94140631015745
 30
0.0
 10
5.307813951746964
 20
-10.97333474548292
 30
0.0
 10
5.359530871904056
 20
-11.01749587951781
 30
0.0
 10
5.406800324537091
 20
-11.06854812352128
 30
0.0
 10
5.450892253568631
 20
-11.12451463990797
 30
0.0
 10
5.492796916578522
 20
-11.18401091872735
 30
0.0
 10
5.53649336413581
 20
-11.25225439537257
 30
0.0
 10
5.572324923437075
 20
-11.31221322323241
 30
0.0
 10
5.603558128454861
 20
-11.36839363905916
 30
0.0
 10
5.63426287427636
 20
-11.42490325333286
 30
0.0
 10
5.67679868953987
 20
-11.50365554596879
 30
0.0
 10
5.715304848582273
 20
-11.57575468439466
 30
0.0
 10
5.746106380260665
 20
-11.63277094187113
 30
0.0
 10
5.764990373429399
 20
-11.66655691579741
 30
0.0
 10
5.783168780494352
 20
-11.69809786084965
 30
0.0
 10
5.800665324752079
 20
-11.72738131792083
 30
0.0
 10
5.817473319636298
 20
-11.75441158622459
 30
0.0
 10
5.833596541824463
 20
-11.77918639442223
 30
0.0
 10
5.849026077185925
 20
-11.80171438806718
 30
0.0
 10
5.863789798160079
 20
-11.82197225174804
 30
0.0
 10
5.877796933209193
 20
-11.84004239825551
 30
0.0
 10
5.88729692229377
 20
-11.85100163935327
 30
0.0
 10
5.891808678099338
 20
-11.85620642634904
 30
0.0
  0
SPLINE
  5
67
330
1F
100
AcDbEntity
  8
0
  6
Continuous
 62
     7
370
    25
100
AcDbSpline
210
0.0
220
0.0
230
1.0
 70
     8
 71
     3
 72
    87
 73
    83
 74
     0
 42
0.00000001
 43
0.00000001
 40
0.0
 40
0.0
 40
0.0
 40
0.0
 40
0.004024951522753
 40
0.0083207084376285
 40
0.0128911518520407
 40
0.0177395032582858
 40
0.0228684605142987
 40
0.0282803018396745
 40
0.0339769660696887
 40
0.0399601151560371
 40
0.0462311832828303
 40
0.0527914158041485
 40
0.0596419003737303
 40
0.0667835920335462
 40
0.0742173335888558
 40
0.0819438722757354
 40
0.0899638734895771
 40
0.0982779321664002
 40
0.1068865822763045
 40
0.1157903047882276
 40
0.1249895343888702
 40
0.1474503103130683
 40
0.1676990408094053
 40
0.1857357265048953
 40
0.2015603682894918
 40
0.2151729674870008
 40
0.2265735261918013
 40
0.2357620480108684
 40
0.2427385399821738
 40
0.2475030189463656
 40
0.2500555455266567
 40
0.2576499702633849
 40
0.2651014485397142
 40
0.2724102039733561
 40
0.2795764735426919
 40
0.2866005086477722
 40
0.2934825762760241
 40
0.3002229602849412
 40
0.3068219628156962
 40
0.3132799058535042
 40
0.319597132952766
 40
0.3257740111475448
 40
0.3318109330708459
 40
0.3377083193095408
 40
0.3434666210256779
 40
0.3490863228794422
 40
0.3545679462942491
 40
0.3599120531105201
 40
0.3651192496817173
 40
0.3701901914743113
 40
0.3751255882427661
 40
0.4073244310342494
 40
0.4352339383253894
 40
0.4593800043720098
 40
0.4805705966712164
 40
0.4999862266281521
 40
0.5194295859732395
 40
0.5406359386281455
 40
0.5647810849977603
 40
0.5926715909716546
 40
0.624833464109476
 40
0.6392980559097071
 40
0.6548781256529802
 40
0.6715869997104567
 40
0.6894354762039111
 40
0.7084324100568149
 40
0.728585142384994
 40
0.7498998201112993
 40
0.7603808064530088
 40
0.7847187246752907
 40
0.8229137004158827
 40
0.8749657589725318
 40
0.8954372582025406
 40
0.9133033201460228
 40
0.928567171567421
 40
0.9404496074785902
 40
0.9517568879082594
 40
0.9624970314607061
 40
0.9726793966878491
 40
0.9823149675059448
 40
0.9914167076495611
 40
1.0
 40
1.0
 40
1.0
 40
1.0
 10
5.90933391377909
 20
6.751233261506237
 30
0.0
 10
5.906917760891393
 20
6.74854495450177
 30
0.0
 10
5.90192289235556
 20
6.74298746675352
 30
0.0
 10
5.894550782732701
 20
6.734059180498156
 30
0.0
 10
5.88695168152959
 20
6.724367309305755
 30
0.0
 10
5.879156743448354
 20
6.713883010519281
 30
0.0
 10
5.871156747023232
 20
6.702614453004694
 30
0.0
 10
5.86295434472802
 20
6.690559011311378
 30
0.0
 10
5.854548747057818
 20
6.677717255524245
 30
0.0
 10
5.845940180352735
 20
6.664088862341598
 30
0.0
 10
5.837128585857626
 20
6.649673795883457
 30
0.0
 10
5.828113992322276
 20
6.634471960285142
 30
0.0
 10
5.818896406870554
 20
6.61848329502958
 30
0.0
 10
5.809475841574585
 20
6.601707745531863
 30
0.0
 10
5.799852317747255
 20
6.584145262523839
 30
0.0
 10
5.790025812984542
 20
6.565795824677349
 30
0.0
 10
5.779996478001387
 20
6.546659332783235
 30
0.0
 10
5.769763777360186
 20
6.526736023477913
 30
0.0
 10
5.759329873418576
 20
6.506024834340406
 30
0.0
 10
5.7486863234958
 20
6.484529826931677
 30
0.0
 10
5.73278300793082
 20
6.451760802293861
 30
0.0
 10
5.712560563148554
 20
6.409764854419442
 30
0.0
 10
5.6888287116129
 20
6.36065113538332
 30
0.0
 10
5.667694354269436
 20
6.316900413635264
 30
0.0
 10
5.649139497782375
 20
6.278521349126934
 30
0.0
 10
5.633168591614904
 20
6.245511796903991
 30
0.0
 10
5.619779867890453
 20
6.217872613799593
 30
0.0
 10
5.608976728212894
 20
6.195602136083599
 30
0.0
 10
5.600752254974635
 20
6.178703735938806
 30
0.0
 10
5.595125726983299
 20
6.16716794162318
 30
0.0
 10
5.589177968000007
 20
6.155171599822817
 30
0.0
 10
5.581912743668345
 20
6.141137485598872
 30
0.0
 10
5.572688762518235
 20
6.123309197005569
 30
0.0
 10
5.563517855672056
 20
6.10588642944862
 30
0.0
 10
5.554433541828969
 20
6.088852307923162
 30
0.0
 10
5.545427099203936
 20
6.072211220122851
 30
0.0
 10
5.536500797051854
 20
6.05596202081155
 30
0.0
 10
5.527654046215513
 20
6.040105003304958
 30
0.0
 10
5.518887000436374
 20
6.024640086611652
 30
0.0
 10
5.510199620389762
 20
6.009567286532803
 30
0.0
 10
5.50159191676382
 20
5.994886593261362
 30
0.0
 10
5.493063887139812
 20
5.98059800307125
 30
0.0
 10
5.484615532282776
 20
5.966701510160193
 30
0.0
 10
5.47624685203398
 20
5.953197108267285
 30
0.0
 10
5.467957845727392
 20
5.940084791750996
 30
0.0
 10
5.45974851413458
 20
5.927364549595066
 30
0.0
 10
5.451618851235797
 20
5.915036387164375
 30
0.0
 10
5.443568873707336
 20
5.903100247553614
 30
0.0
 10
5.435598514518933
 20
5.891556293806939
 30
0.0
 10
5.427708004347294
 20
5.880403895593938
 30
0.0
 10
5.405442406184038
 20
5.849737908616278
 30
0.0
 10
5.368867108869801
 20
5.804063368534766
 30
0.0
 10
5.314937802537801
 20
5.750694766547287
 30
0.0
 10
5.261328616369828
 20
5.711995373007294
 30
0.0
 10
5.207691616844394
 20
5.688184061099138
 30
0.0
 10
5.153627591683064
 20
5.679976645962706
 30
0.0
 10
5.099564090816415
 20
5.688260844015204
 30
0.0
 10
5.045898356842002
 20
5.712091212272574
 30
0.0
 10
4.992289676713757
 20
5.750785874103473
 30
0.0
 10
4.938393855670649
 20
5.80411760752537
 30
0.0
 10
4.896496839485912
 20
5.856441291820135
 30
0.0
 10
4.864244087750976
 20
5.902051943119527
 30
0.0
 10
4.841088311376179
 20
5.937079359164786
 30
0.0
 10
4.817278991319074
 20
5.975294281423224
 30
0.0
 10
4.79282381915215
 20
6.016704895400045
 30
0.0
 10
4.76769450541513
 20
6.061297208638951
 30
0.0
 10
4.742005765929539
 20
6.109129327503132
 30
0.0
 10
4.72030504569624
 20
6.150429025292793
 30
0.0
 10
4.698259927290874
 20
6.195759854720937
 30
0.0
 10
4.669657018974593
 20
6.254752914481207
 30
0.0
 10
4.624856434548188
 20
6.347379262222778
 30
0.0
 10
4.581743114850661
 20
6.436963463918596
 30
0.0
 10
4.546257542578571
 20
6.509961513020148
 30
0.0
 10
4.52464880061208
 20
6.552970792476923
 30
0.0
 10
4.50600179703416
 20
6.588833772889477
 30
0.0
 10
4.489378787539907
 20
6.619102054653337
 30
0.0
 10
4.474025144286874
 20
6.645422115412067
 30
0.0
 10
4.458751081993047
 20
6.670008345726494
 30
0.0
 10
4.443558236225868
 20
6.692864842530121
 30
0.0
 10
4.42842158513512
 20
6.713969843674088
 30
0.0
 10
4.413429403164518
 20
6.733402950741635
 30
0.0
 10
4.403029090931312
 20
6.745407127929388
 30
0.0
 10
4.397981380645029
 20
6.751233261540598
 30
0.0
  0
SPLINE
  5
68
330
1F
100
AcDbEntity
  8
0
  6
Continuous
 62
     7
370
    25
100
AcDbSpline
210
0.0
220
0.0
230
1.0
 70
     8
 71
     3
 72
    63
 73
    59
 74
     0
 42
0.00000001
 43
0.00000001
 40
0.0
 40
0.0
 40
0.0
 40
0.0
 40
0.005547286285296
 40
0.0114832348186365
 40
0.0178112364174067
 40
0.0245340887035828
 40
0.031654123877203
 40
0.0391733045685779
 40
0.0470932966802943
 40
0.0554155254210745
 40
0.0641412189042438
 40
0.0732714424335304
 40
0.0828071257342357
 40
0.0927490847822361
 40
0.1030980394539406
 40
0.1138546279124636
 40
0.1250194184218809
 40
0.1484212755556078
 40
0.1696038418309067
 40
0.1885671689021616
 40
0.2053113289622924
 40
0.2198364272934935
 40
0.2321426261317519
 40
0.242230194771733
 40
0.2500996302781623
 40
0.2712594840333685
 40
0.2913054497978084
 40
0.3102458521782986
 40
0.3280905630938348
 40
0.3448513906211854
 40
0.3605425899877899
 40
0.3751815415261304
 40
0.4133027382330426
 40
0.4459043115428275
 40
0.4741972033602335
 40
0.5000061373506511
 40
0.5255544871197402
 40
0.5538920209893722
 40
0.5866342294576194
 40
0.6248419164410073
 40
0.6511211110832326
 40
0.6806842889115328
 40
0.713599353275007
 40
0.7499154104298773
 40
0.765520465975574
 40
0.7915682177622708
 40
0.8280596849295686
 40
0.8749952063097141
 40
0.8916454162221538
 40
0.9073625756096152
 40
0.9221493681531872
 40
0.9360090179927582
 40
0.9489454425010064
 40
0.9609634618832849
 40
0.9720690922625667
 40
0.9822699641764167
 40
0.991575934030091
 40
0.9999999999999999
 40
0.9999999999999999
 40
0.9999999999999999
 40
0.9999999999999999
 10
7.377314440160688
 20
6.742191474067731
 30
0.0
 10
7.374432486350098
 20
6.738702365967237
 30
0.0
 10
7.368466658981285
 20
6.731479690668908
 30
0.0
 10
7.359592126266734
 20
6.719972516670174
 30
0.0
 10
7.350380240708773
 20
6.707520551480636
 30
0.0
 10
7.340863760506168
 20
6.694096071477649
 30
0.0
 10
7.331033050349983
 20
6.679706936592884
 30
0.0
 10
7.32089095024519
 20
6.664350611847972
 30
0.0
 10
7.310436660584236
 20
6.64802764997697
 30
0.0
 10
7.299670442402908
 20
6.630737742901867
 30
0.0
 10
7.288592260906572
 20
6.612480854874687
 30
0.0
 10
7.277202121820936
 20
6.593256917357834
 30
0.0
 10
7.265500193658869
 20
6.573065794705938
 30
0.0
 10
7.253485895263022
 20
6.551907759004673
 30
0.0
 10
7.241161640001127
 20
6.529781490035865
 30
0.0
 10
7.228517966281425
 20
6.506692018878042
 30
0.0
 10
7.211027781654866
 20
6.474118290313251
 30
0.0
 10
7.18962065732677
 20
6.43399476956714
 30
0.0
 10
7.1650981753236
 20
6.388323065684443
 30
0.0
 10
7.143088455750149
 20
6.347466606520214
 30
0.0
 10
7.123573648336682
 20
6.311434898935206
 30
0.0
 10
7.106560258102119
 20
6.28022435180287
 30
0.0
 10
7.09204257081175
 20
6.253838121135569
 30
0.0
 10
7.080039225657957
 20
6.232265398901848
 30
0.0
 10
7.064250356928561
 20
6.204535507714068
 30
0.0
 10
7.043866415309511
 20
6.170077253218322
 30
0.0
 10
7.018160718231552
 20
6.128283088750637
 30
0.0
 10
6.993010006960639
 20
6.089333861422046
 30
0.0
 10
6.968441029439253
 20
6.053213056497722
 30
0.0
 10
6.944447238482082
 20
6.019924731879225
 30
0.0
 10
6.921028857702542
 20
5.989462602253992
 30
0.0
 10
6.885445234442693
 20
5.946428611020635
 30
0.0
 10
6.837013873383854
 20
5.896077382734766
 30
0.0
 10
6.772073791847316
 20
5.847279344526157
 30
0.0
 10
6.706911096438357
 20
5.817869157958453
 30
0.0
 10
6.641427697865205
 20
5.809093142562675
 30
0.0
 10
6.576631616624424
 20
5.821722859925917
 30
0.0
 10
6.512899722302282
 20
5.853747854627517
 30
0.0
 10
6.449150511179911
 20
5.904358249220164
 30
0.0
 10
6.394932644689268
 20
5.962551002737781
 30
0.0
 10
6.347675207490142
 20
6.023027104965983
 30
0.0
 10
6.306132072759922
 20
6.082365235223659
 30
0.0
 10
6.262795270206095
 20
6.150328634354724
 30
0.0
 10
6.227348525006398
 20
6.209786645850687
 30
0.0
 10
6.196487007486491
 20
6.26540257076347
 30
0.0
 10
6.166072228616714
 20
6.321424573806672
 30
0.0
 10
6.123640651237012
 20
6.400003865038768
 30
0.0
 10
6.085178009305084
 20
6.472012551655514
 30
0.0
 10
6.054422439173443
 20
6.528925857230306
 30
0.0
 10
6.035648159116152
 20
6.562500321704653
 30
0.0
 10
6.017568893704354
 20
6.593851451654224
 30
0.0
 10
6.000160982089751
 20
6.622966816006399
 30
0.0
 10
5.983431082928083
 20
6.649850692332856
 30
0.0
 10
5.967375443678695
 20
6.674500823287835
 30
0.0
 10
5.952002879474588
 20
6.696925759360176
 30
0.0
 10
5.937285783072062
 20
6.717102389872238
 30
0.0
 10
5.923314107533045
 20
6.735112395902728
 30
0.0
 10
5.913836849545658
 20
6.746040829039751
 30
0.0
 10
5.90933392313908
 20
6.751233251808102
 30
0.0
  0
SPLINE
  5
6A
330
1F
100
AcDbEntity
  8
0
  6
Continuous
 62
     7
370
    25
100
AcDbSpline
210
0.0
220
0.0
230
1.0
 70
     8
 71
     3
 72
    68
 73
    64
 74
     0
 42
0.00000001
 43
0.00000001
 40
0.0
 40
0.0
 40
0.0
 40
0.0
 40
0.0045409625620109
 40
0.0092945971146515
 40
0.0142647000852752
 40
0.019454592880432
 40
0.0248671923039922
 40
0.0305050695128988
 40
0.036370499414753
 40
0.0424655021261962
 40
0.0487918778484813
 40
0.055351236286211
 40
0.0621450215387631
 40
0.0691745332294171
 40
0.0764409445010404
 40
0.0839453173952792
 40
0.0916886160406421
 40
0.0996717180000845
 40
0.1078954240676973
 40
0.1163604667543134
 40
0.1250675176611368
 40
0.1389636740345513
 40
0.1528590233047704
 40
0.1667537960440054
 40
0.1806482228531661
 40
0.1945425343503889
 40
0.2084369611595497
 40
0.2223317338987841
 40
0.2362270831690042
 40
0.2501232395424185
 40
0.2795564620617695
 40
0.3067588023243728
 40
0.3317467534518466
 40
0.3545416157070432
 40
0.3751714835402506
 40
0.4072250463353201
 40
0.4352043247349652
 40
0.4595283797621997
 40
0.4808330690926442
 40
0.5000562432129942
 40
0.5166564951931072
 40
0.5339685024005341
 40
0.552864251893926
 40
0.5740208024611668
 40
0.5979238659157068
 40
0.6249112663229249
 40
0.6509235700616114
 40
0.6803914852221091
 40
0.7133846152434705
 40
0.7499524393501106
 40
0.7683336825256539
 40
0.7953011847769098
 40
0.830856623795221
 40
0.8750006981316285
 40
0.8933939129156838
 40
0.9106527645130847
 40
0.9267796298978404
 40
0.9417774242731198
 40
0.9556497746657718
 40
0.9684012685005379
 40
0.9800378188883399
 40
0.9905672175010739
 40
1.0
 40
1.0
 40
1.0
 40
1.0
 10
5.891808687459353
 20
-11.85620643604889
 30
0.0
 10
5.894509369554518
 20
-11.85323115405231
 30
0.0
 10
5.900037217817198
 20
-11.84714124534176
 30
0.0
 10
5.908157556515626
 20
-11.83747511861487
 30
0.0
 10
5.916395889700615
 20
-11.82716573844283
 30
0.0
 10
5.92472300994418
 20
-11.81618596922826
 30
0.0
 10
5.933147365049847
 20
-11.80454345329695
 30
0.0
 10
5.94166660726626
 20
-11.79223589703487
 30
0.0
 10
5.950281453180204
 20
-11.77926385620166
 30
0.0
 10
5.958991732377874
 20
-11.76562708605049
 30
0.0
 10
5.967797516443752
 20
-11.7513255800608
 30
0.0
 10
5.976698800788283
 20
-11.73635927357685
 30
0.0
 10
5.985695595704602
 20
-11.72072812628118
 30
0.0
 10
5.994787906849082
 20
-11.70443210001559
 30
0.0
 10
6.003975723018696
 20
-11.68747115542434
 30
0.0
 10
6.013259094431373
 20
-11.66984528620474
 30
0.0
 10
6.022637821571355
 20
-11.65155437506564
 30
0.0
 10
6.032112676352786
 20
-11.63259875636801
 30
0.0
 10
6.041680633329403
 20
-11.6129770156314
 30
0.0
 10
6.051353475520651
 20
-11.59269457247121
 30
0.0
 10
6.062928131431195
 20
-11.56776037569865
 30
0.0
 10
6.076467467514428
 20
-11.53844125375824
 30
0.0
 10
6.092125938432368
 20
-11.5050452377573
 30
0.0
 10
6.10790400017609
 20
-11.47170740095801
 30
0.0
 10
6.12382158767612
 20
-11.43843691455817
 30
0.0
 10
6.139873188042952
 20
-11.40523123609645
 30
0.0
 10
6.156060918865483
 20
-11.37209136486409
 30
0.0
 10
6.172381822369548
 20
-11.33901584621431
 30
0.0
 10
6.188845612488877
 20
-11.30600949985835
 30
0.0
 10
6.211591780155784
 20
-11.26077323919514
 30
0.0
 10
6.240259376300924
 20
-11.20533504425496
 30
0.0
 10
6.27492465975347
 20
-11.14196829756534
 30
0.0
 10
6.308287624075181
 20
-11.08460929608873
 30
0.0
 10
6.340362972671968
 20
-11.03325769264675
 30
0.0
 10
6.377892046025639
 20
-10.97799930625966
 30
0.0
 10
6.42163619140235
 20
-10.92147665320875
 30
0.0
 10
6.473299576922898
 20
-10.86736894900334
 30
0.0
 10
6.524514815810716
 20
-10.82670105062442
 30
0.0
 10
6.575537885842101
 20
-10.79956787200556
 30
0.0
 10
6.62507279213657
 20
-10.78683318404855
 30
0.0
 10
6.672576675669879
 20
-10.78760859944154
 30
0.0
 10
6.718124812710814
 20
-10.79972205116245
 30
0.0
 10
6.763648492607776
 20
-10.82283883575869
 30
0.0
 10
6.809250077950342
 20
-10.85669638773568
 30
0.0
 10
6.855083386224562
 20
-10.90120718345562
 30
0.0
 10
6.898822196650054
 20
-10.95345646000935
 30
0.0
 10
6.941334252657074
 20
-11.01281304131017
 30
0.0
 10
6.983470777718158
 20
-11.07882387700971
 30
0.0
 10
7.027404800946955
 20
-11.15465610902538
 30
0.0
 10
7.064275602999659
 20
-11.22319723132831
 30
0.0
 10
7.09683695481309
 20
-11.28795492625602
 30
0.0
 10
7.128292265661802
 20
-11.3522592507773
 30
0.0
 10
7.169420354069656
 20
-11.43720732540563
 30
0.0
 10
7.206821660863779
 20
-11.51552877340092
 30
0.0
 10
7.237487225542749
 20
-11.57912705092409
 30
0.0
 10
7.257914297487037
 20
-11.62013722621518
 30
0.0
 10
7.277458612045658
 20
-11.65822707098752
 30
0.0
 10
7.296144124798835
 20
-11.69338574520799
 30
0.0
 10
7.313967416881405
 20
-11.72561469691991
 30
0.0
 10
7.330919509690449
 20
-11.75492154799068
 30
0.0
 10
7.347032273407522
 20
-11.78128419723086
 30
0.0
 10
7.362199599836365
 20
-11.80478169649466
 30
0.0
 10
7.372464119433161
 20
-11.81915825069019
 30
0.0
 10
7.37731444016069
 20
-11.8259516420562
 30
0.0
  0
LINE
  5
6B
330
1F
100
AcDbEntity
  8
0
  6
Continuous
 62
     7
370
    25
100
AcDbLine
 10
4.3897549877
 20
-11.8260742311
 30
0.0
 11
4.4155065979
 21
-11.8562064263
 31
0.0
  0
LINE
  5
6C
330
1F
100
AcDbEntity
  8
0
  6
Continuous
 62
     7
370
    25
100
AcDbLine
 10
4.3897549877
 20
6.7422981639
 30
0.0
 11
4.3897549877
 21
-11.8260742311
 31
0.0
  0
LINE
  5
6D
330
1F
100
AcDbEntity
  8
0
  6
Continuous
 62
     7
370
    25
100
AcDbLine
 10
4.3979813806
 20
6.7512332616
 30
0.0
 11
4.3897549877
 21
6.7422981639
 31
0.0
  0
LINE
  5
6E
330
1F
100
AcDbEntity
  8
0
  6
Continuous
 62
     7
370
    25
100
AcDbLine
 10
7.3773144402
 20
-11.8259516421
 30
0.0
 11
7.3773144402
 21
6.7421914741
 31
0.0
  0
MTEXT
  5
70
330
1F
100
AcDbEntity
  8
0
  6
Continuous
 62
     7
100
AcDbMText
 10
4.3897549877
 20
-11.8963468452
 30
0.0
 40
0.1903
 41
0.0
 71
     1
 72
     1
  1
SOLIDWORKS Educational Product.
  7
SLDTEXTSTYLE0
 73
     1
 44
1.0
  0
MTEXT
  5
71
330
1F
100
AcDbEntity
  8
0
  6
Continuous
 62
     7
100
AcDbMText
 10
4.3897549877
 20
-12.1817968452
 30
0.0
 40
0.1903
 41
0.0
 71
     1
 72
     1
  1
For Instructional Use Only.
  7
SLDTEXTSTYLE0
 73
     1
 44
1.0
  0
ENDSEC
  0
SECTION
  2
OBJECTS
  0
DICTIONARY
  5
C
330
0
100
AcDbDictionary
281
     1
  3
ACAD_GROUP
350
D
  3
ACAD_LAYOUT
350
1A
  3
ACAD_MLINESTYLE
350
17
  3
ACAD_PLOTSETTINGS
350
19
  3
ACAD_PLOTSTYLENAME
350
E
  3
ACAD_SCALELIST
350
47
  3
DWGPROPS
350
72
  0
DICTIONARY
  5
D
102
{ACAD_REACTORS
330
C
102
}
330
C
100
AcDbDictionary
281
     1
  0
DICTIONARY
  5
1A
102
{ACAD_REACTORS
330
C
102
}
330
C
100
AcDbDictionary
281
     1
  3
Layout1
350
1E
  3
Layout2
350
26
  3
Model
350
22
  0
DICTIONARY
  5
17
102
{ACAD_REACTORS
330
C
102
}
330
C
100
AcDbDictionary
281
     1
  3
Standard
350
18
  0
DICTIONARY
  5
19
102
{ACAD_REACTORS
330
C
102
}
330
C
100
AcDbDictionary
281
     1
  0
ACDBDICTIONARYWDFLT
  5
E
102
{ACAD_REACTORS
330
C
102
}
330
C
100
AcDbDictionary
281
     1
  3
Normal
350
F
100
AcDbDictionaryWithDefault
340
F
  0
DICTIONARY
  5
47
102
{ACAD_REACTORS
330
C
102
}
330
C
100
AcDbDictionary
281
     1
  3
A0
350
48
  3
A1
350
49
  3
A2
350
4A
  3
A3
350
4B
  3
A4
350
4C
  3
A5
350
4D
  3
A6
350
4E
  3
A7
350
4F
  3
A8
350
50
  3
A9
350
51
  3
B1
350
52
  3
B2
350
53
  3
B3
350
54
  3
B4
350
55
  3
B5
350
56
  3
B6
350
57
  3
B7
350
58
  0
XRECORD
  5
72
102
{ACAD_REACTORS
330
C
102
}
330
C
100
AcDbXrecord
280
     1
  1
DWGPROPS COOKIE
  2

  3

  4

  6

  7

  8
manny
  9

300
=
301
=
302
=
303
=
304
=
305
=
306
=
307
=
308
=
309
=
 40
0.0
 41
2460633.136513276
 42
2460633.138897813
  1

 90
        0
  0
LAYOUT
  5
1E
102
{ACAD_REACTORS
330
1A
102
}
330
1A
100
AcDbPlotSettings
  1

  2
none_device
  4

  6

 40
0.0
 41
0.0
 42
0.0
 43
0.0
 44
0.0
 45
0.0
 46
0.0
 47
0.0
 48
0.0
 49
0.0
140
0.0
141
0.0
142
1.0
143
1.0
 70
   688
 72
     0
 73
     0
 74
     5
  7

 75
    16
147
1.0
148
0.0
149
0.0
100
AcDbLayout
  1
Layout1
 70
     1
 71
     1
 10
0.0
 20
0.0
 11
12.0
 21
9.0
 12
0.0
 22
0.0
 32
0.0
 14
1.0000000000E+20
 24
1.0000000000E+20
 34
1.0000000000E+20
 15
-1.0000000000E+20
 25
-1.0000000000E+20
 35
-1.0000000000E+20
146
0.0
 13
0.0
 23
0.0
 33
0.0
 16
1.0
 26
0.0
 36
0.0
 17
0.0
 27
1.0
 37
0.0
 76
     0
330
1B
  0
LAYOUT
  5
26
102
{ACAD_REACTORS
330
1A
102
}
330
1A
100
AcDbPlotSettings
  1

  2
none_device
  4

  6

 40
0.0
 41
0.0
 42
0.0
 43
0.0
 44
0.0
 45
0.0
 46
0.0
 47
0.0
 48
0.0
 49
0.0
140
0.0
141
0.0
142
1.0
143
1.0
 70
   688
 72
     0
 73
     0
 74
     5
  7

 75
    16
147
1.0
148
0.0
149
0.0
100
AcDbLayout
  1
Layout2
 70
     1
 71
     2
 10
0.0
 20
0.0
 11
0.0
 21
0.0
 12
0.0
 22
0.0
 32
0.0
 14
0.0
 24
0.0
 34
0.0
 15
0.0
 25
0.0
 35
0.0
146
0.0
 13
0.0
 23
0.0
 33
0.0
 16
1.0
 26
0.0
 36
0.0
 17
0.0
 27
1.0
 37
0.0
 76
     0
330
23
  0
LAYOUT
  5
22
102
{ACAD_REACTORS
330
1A
102
}
330
1A
100
AcDbPlotSettings
  1

  2
none_device
  4
ANSI_A_(11.00_x_8.50_Inches)
  6

 40
6.35
 41
19.05
 42
6.35000508
 43
19.05000254
 44
279.4
 45
215.9
 46
65.7666752126
 47
118.220047297
 48
0.0
 49
0.0
140
0.0
141
0.0
142
0.4522384668
143
1.0
 70
  1696
 72
     0
 73
     0
 74
     0
  7

 75
     0
147
0.5913241897
148
-39.4088153714
149
0.0
100
AcDbLayout
  1
Model
 70
     1
 71
     0
 10
0.0
 20
0.0
 11
12.0
 21
9.0
 12
0.0
 22
0.0
 32
0.0
 14
4.3897549877
 24
-11.8562064361
 34
0.0
 15
7.3773144402
 25
6.7512332616
 35
0.0
146
0.0
 13
0.0
 23
0.0
 33
0.0
 16
1.0
 26
0.0
 36
0.0
 17
0.0
 27
1.0
 37
0.0
 76
     0
330
1F
331
29
  0
MLINESTYLE
  5
18
102
{ACAD_REACTORS
330
17
102
}
330
17
100
AcDbMlineStyle
  2
Standard
 70
     0
  3

 62
   256
 51
90.0
 52
90.0
 71
     2
 49
0.5
 62
   256
  6
BYLAYER
 49
-0.5
 62
   256
  6
BYLAYER
  0
ACDBPLACEHOLDER
  5
F
102
{ACAD_REACTORS
330
E
102
}
330
E
  0
SCALE
  5
48
102
{ACAD_REACTORS
330
47
102
}
330
47
100
AcDbScale
 70
     0
300
1:1
140
1.0
141
1.0
290
     1
  0
SCALE
  5
49
102
{ACAD_REACTORS
330
47
102
}
330
47
100
AcDbScale
 70
     0
300
1/128" = 1'-0"
140
0.0078125
141
12.0
290
     0
  0
SCALE
  5
4A
102
{ACAD_REACTORS
330
47
102
}
330
47
100
AcDbScale
 70
     0
300
1/64" = 1'-0"
140
0.015625
141
12.0
290
     0
  0
SCALE
  5
4B
102
{ACAD_REACTORS
330
47
102
}
330
47
100
AcDbScale
 70
     0
300
1/32" = 1'-0"
140
0.03125
141
12.0
290
     0
  0
SCALE
  5
4C
102
{ACAD_REACTORS
330
47
102
}
330
47
100
AcDbScale
 70
     0
300
1/16" = 1'-0"
140
0.0625
141
12.0
290
     0
  0
SCALE
  5
4D
102
{ACAD_REACTORS
330
47
102
}
330
47
100
AcDbScale
 70
     0
300
3/32" = 1'-0"
140
0.09375
141
12.0
290
     0
  0
SCALE
  5
4E
102
{ACAD_REACTORS
330
47
102
}
330
47
100
AcDbScale
 70
     0
300
1/8" = 1'-0"
140
0.125
141
12.0
290
     0
  0
SCALE
  5
4F
102
{ACAD_REACTORS
330
47
102
}
330
47
100
AcDbScale
 70
     0
300
3/16" = 1'-0"
140
0.1875
141
12.0
290
     0
  0
SCALE
  5
50
102
{ACAD_REACTORS
330
47
102
}
330
47
100
AcDbScale
 70
     0
300
1/4" = 1'-0"
140
0.25
141
12.0
290
     0
  0
SCALE
  5
51
102
{ACAD_REACTORS
330
47
102
}
330
47
100
AcDbScale
 70
     0
300
3/8" = 1'-0"
140
0.375
141
12.0
290
     0
  0
SCALE
  5
52
102
{ACAD_REACTORS
330
47
102
}
330
47
100
AcDbScale
 70
     0
300
1/2" = 1'-0"
140
0.5
141
12.0
290
     0
  0
SCALE
  5
53
102
{ACAD_REACTORS
330
47
102
}
330
47
100
AcDbScale
 70
     0
300
3/4" = 1'-0"
140
0.75
141
12.0
290
     0
  0
SCALE
  5
54
102
{ACAD_REACTORS
330
47
102
}
330
47
100
AcDbScale
 70
     0
300
1" = 1'-0"
140
1.0
141
12.0
290
     0
  0
SCALE
  5
55
102
{ACAD_REACTORS
330
47
102
}
330
47
100
AcDbScale
 70
     0
300
1-1/2" = 1'-0"
140
1.5
141
12.0
290
     0
  0
SCALE
  5
56
102
{ACAD_REACTORS
330
47
102
}
330
47
100
AcDbScale
 70
     0
300
3" = 1'-0"
140
3.0
141
12.0
290
     0
  0
SCALE
  5
57
102
{ACAD_REACTORS
330
47
102
}
330
47
100
AcDbScale
 70
     0
300
6" = 1'-0"
140
6.0
141
12.0
290
     0
  0
SCALE
  5
58
102
{ACAD_REACTORS
330
47
102
}
330
47
100
AcDbScale
 70
     0
300
1'-0" = 1'-0"
140
12.0
141
12.0
290
     0
  0
ENDSEC
  0
EOF
