  0
SECTION
  2
HEADER
  9
$ACADVER
  1
AC1015
  9
$ACADMAINTVER
 70
     6
  9
$DWGCODEPAGE
  3
ANSI_1252
  9
$INSBASE
 10
0.0
 20
0.0
 30
0.0
  9
$EXTMIN
 10
-4.6671801603
 20
-6.9999999995
 30
0.0
  9
$EXTMAX
 10
-1.6796206496
 20
6.9999999995
 30
0.0
  9
$LIMMIN
 10
0.0
 20
0.0
  9
$LIMMAX
 10
12.0
 20
9.0
  9
$ORTHOMODE
 70
     0
  9
$REGENMODE
 70
     1
  9
$FILLMODE
 70
     1
  9
$QTEXTMODE
 70
     0
  9
$MIRRTEXT
 70
     1
  9
$LTSCALE
 40
1.0
  9
$ATTMODE
 70
     1
  9
$TEXTSIZE
 40
0.1377952756
  9
$TRACEWID
 40
0.05
  9
$TEXTSTYLE
  7
Standard
  9
$CLAYER
  8
0
  9
$CELTYPE
  6
ByLayer
  9
$CECOLOR
 62
   256
  9
$CELTSCALE
 40
1.0
  9
$DISPSILH
 70
     0
  9
$DIMSCALE
 40
1.0
  9
$DIMASZ
 40
0.13
  9
$DIMEXO
 40
0.0
  9
$DIMDLI
 40
0.38
  9
$DIMRND
 40
0.0
  9
$DIMDLE
 40
0.0
  9
$DIMEXE
 40
0.0393700787
  9
$DIMTP
 40
0.0
  9
$DIMTM
 40
0.0
  9
$DIMTXT
 40
0.1377952756
  9
$DIMCEN
 40
0.09
  9
$DIMTSZ
 40
0.0
  9
$DIMTOL
 70
     0
  9
$DIMLIM
 70
     0
  9
$DIMTIH
 70
     1
  9
$DIMTOH
 70
     1
  9
$DIMSE1
 70
     0
  9
$DIMSE2
 70
     0
  9
$DIMTAD
 70
     1
  9
$DIMZIN
 70
     1
  9
$DIMBLK
  1

  9
$DIMASO
 70
     1
  9
$DIMSHO
 70
     1
  9
$DIMPOST
  1

  9
$DIMAPOST
  1

  9
$DIMALT
 70
     0
  9
$DIMALTD
 70
     2
  9
$DIMALTF
 40
25.4
  9
$DIMLFAC
 40
1.0
  9
$DIMTOFL
 70
     0
  9
$DIMTVP
 40
0.0
  9
$DIMTIX
 70
     0
  9
$DIMSOXD
 70
     0
  9
$DIMSAH
 70
     0
  9
$DIMBLK1
  1

  9
$DIMBLK2
  1

  9
$DIMSTYLE
  2
Standard
  9
$DIMCLRD
 70
     0
  9
$DIMCLRE
 70
     0
  9
$DIMCLRT
 70
     0
  9
$DIMTFAC
 40
1.0
  9
$DIMGAP
 40
0.06
  9
$DIMJUST
 70
     0
  9
$DIMSD1
 70
     0
  9
$DIMSD2
 70
     0
  9
$DIMTOLJ
 70
     1
  9
$DIMTZIN
 70
     1
  9
$DIMALTZ
 70
     0
  9
$DIMALTTZ
 70
     0
  9
$DIMUPT
 70
     0
  9
$DIMDEC
 70
     2
  9
$DIMTDEC
 70
     2
  9
$DIMALTU
 70
     2
  9
$DIMALTTD
 70
     2
  9
$DIMTXSTY
  7
Standard
  9
$DIMAUNIT
 70
     0
  9
$DIMADEC
 70
     2
  9
$DIMALTRND
 40
0.0
  9
$DIMAZIN
 70
     0
  9
$DIMDSEP
 70
    46
  9
$DIMATFIT
 70
     3
  9
$DIMFRAC
 70
     0
  9
$DIMLDRBLK
  1

  9
$DIMLUNIT
 70
     2
  9
$DIMLWD
 70
    -2
  9
$DIMLWE
 70
    -2
  9
$DIMTMOVE
 70
     0
  9
$LUNITS
 70
     2
  9
$LUPREC
 70
     2
  9
$SKETCHINC
 40
0.1
  9
$FILLETRAD
 40
0.0
  9
$AUNITS
 70
     0
  9
$AUPREC
 70
     2
  9
$MENU
  1
.
  9
$ELEVATION
 40
0.0
  9
$PELEVATION
 40
0.0
  9
$THICKNESS
 40
0.0
  9
$LIMCHECK
 70
     0
  9
$CHAMFERA
 40
0.0
  9
$CHAMFERB
 40
0.0
  9
$CHAMFERC
 40
0.0
  9
$CHAMFERD
 40
0.0
  9
$SKPOLY
 70
     0
  9
$TDCREATE
 40
2460632.835115544
  9
$TDUCREATE
 40
2460633.168448878
  9
$TDUPDATE
 40
2460632.835147338
  9
$TDUUPDATE
 40
2460633.168480672
  9
$TDINDWG
 40
0.0000000116
  9
$TDUSRTIMER
 40
0.0000000116
  9
$USRTIMER
 70
     1
  9
$ANGBASE
 50
0.0
  9
$ANGDIR
 70
     0
  9
$PDMODE
 70
     0
  9
$PDSIZE
 40
-1.0
  9
$PLINEWID
 40
0.0
  9
$SPLFRAME
 70
     0
  9
$SPLINETYPE
 70
     6
  9
$SPLINESEGS
 70
     8
  9
$HANDSEED
  5
73
  9
$SURFTAB1
 70
     6
  9
$SURFTAB2
 70
     6
  9
$SURFTYPE
 70
     6
  9
$SURFU
 70
     6
  9
$SURFV
 70
     6
  9
$UCSBASE
  2

  9
$UCSNAME
  2

  9
$UCSORG
 10
0.0
 20
0.0
 30
0.0
  9
$UCSXDIR
 10
1.0
 20
0.0
 30
0.0
  9
$UCSYDIR
 10
0.0
 20
1.0
 30
0.0
  9
$UCSORTHOREF
  2

  9
$UCSORTHOVIEW
 70
     0
  9
$UCSORGTOP
 10
0.0
 20
0.0
 30
0.0
  9
$UCSORGBOTTOM
 10
0.0
 20
0.0
 30
0.0
  9
$UCSORGLEFT
 10
0.0
 20
0.0
 30
0.0
  9
$UCSORGRIGHT
 10
0.0
 20
0.0
 30
0.0
  9
$UCSORGFRONT
 10
0.0
 20
0.0
 30
0.0
  9
$UCSORGBACK
 10
0.0
 20
0.0
 30
0.0
  9
$PUCSBASE
  2

  9
$PUCSNAME
  2

  9
$PUCSORG
 10
0.0
 20
0.0
 30
0.0
  9
$PUCSXDIR
 10
1.0
 20
0.0
 30
0.0
  9
$PUCSYDIR
 10
0.0
 20
1.0
 30
0.0
  9
$PUCSORTHOREF
  2

  9
$PUCSORTHOVIEW
 70
     0
  9
$PUCSORGTOP
 10
0.0
 20
0.0
 30
0.0
  9
$PUCSORGBOTTOM
 10
0.0
 20
0.0
 30
0.0
  9
$PUCSORGLEFT
 10
0.0
 20
0.0
 30
0.0
  9
$PUCSORGRIGHT
 10
0.0
 20
0.0
 30
0.0
  9
$PUCSORGFRONT
 10
0.0
 20
0.0
 30
0.0
  9
$PUCSORGBACK
 10
0.0
 20
0.0
 30
0.0
  9
$USERI1
 70
     0
  9
$USERI2
 70
     0
  9
$USERI3
 70
     0
  9
$USERI4
 70
     0
  9
$USERI5
 70
     0
  9
$USERR1
 40
0.0
  9
$USERR2
 40
0.0
  9
$USERR3
 40
0.0
  9
$USERR4
 40
0.0
  9
$USERR5
 40
0.0
  9
$WORLDVIEW
 70
     1
  9
$SHADEDGE
 70
     3
  9
$SHADEDIF
 70
    70
  9
$TILEMODE
 70
     1
  9
$MAXACTVP
 70
    64
  9
$PINSBASE
 10
0.0
 20
0.0
 30
0.0
  9
$PLIMCHECK
 70
     0
  9
$PEXTMIN
 10
1.0000000000E+20
 20
1.0000000000E+20
 30
1.0000000000E+20
  9
$PEXTMAX
 10
-1.0000000000E+20
 20
-1.0000000000E+20
 30
-1.0000000000E+20
  9
$PLIMMIN
 10
0.0
 20
0.0
  9
$PLIMMAX
 10
12.0
 20
9.0
  9
$UNITMODE
 70
     0
  9
$VISRETAIN
 70
     1
  9
$PLINEGEN
 70
     0
  9
$PSLTSCALE
 70
     1
  9
$TREEDEPTH
 70
  3020
  9
$CMLSTYLE
  2
Standard
  9
$CMLJUST
 70
     0
  9
$CMLSCALE
 40
1.0
  9
$PROXYGRAPHICS
 70
     1
  9
$MEASUREMENT
 70
     0
  9
$CELWEIGHT
370
    -1
  9
$ENDCAPS
280
     0
  9
$JOINSTYLE
280
     0
  9
$LWDISPLAY
290
     1
  9
$INSUNITS
 70
     1
  9
$HYPERLINKBASE
  1

  9
$STYLESHEET
  1

  9
$XEDIT
290
     1
  9
$CEPSNTYPE
380
     0
  9
$PSTYLEMODE
290
     1
  9
$FINGERPRINTGUID
  2
{7aaa03fd-3a3a-4ebb-ae12-c00df7151d38}
  9
$VERSIONGUID
  2
{FAEB1C32-E019-11D5-929B-00C0DF256EC4}
  9
$EXTNAMES
290
     1
  9
$PSVPSCALE
 40
0.0
  9
$OLESTARTUP
290
     0
  0
ENDSEC
  0
SECTION
  2
CLASSES
  0
CLASS
  1
ACDBDICTIONARYWDFLT
  2
AcDbDictionaryWithDefault
  3
ObjectDBX Classes
 90
        0
280
     0
281
     0
  0
CLASS
  1
VISUALSTYLE
  2
AcDbVisualStyle
  3
ObjectDBX Classes
 90
     4095
280
     0
281
     0
  0
CLASS
  1
MATERIAL
  2
AcDbMaterial
  3
ObjectDBX Classes
 90
     1153
280
     0
281
     0
  0
CLASS
  1
SCALE
  2
AcDbScale
  3
ObjectDBX Classes
 90
     1153
280
     0
281
     0
  0
CLASS
  1
TABLESTYLE
  2
AcDbTableStyle
  3
ObjectDBX Classes
 90
     4095
280
     0
281
     0
  0
CLASS
  1
MLEADERSTYLE
  2
AcDbMLeaderStyle
  3
ACDB_MLEADERSTYLE_CLASS
 90
     4095
280
     0
281
     0
  0
CLASS
  1
SUN
  2
AcDbSun
  3
SCENEOE
 90
     1153
280
     0
281
     0
  0
CLASS
  1
ACDBPLACEHOLDER
  2
AcDbPlaceHolder
  3
ObjectDBX Classes
 90
        0
280
     0
281
     0
  0
CLASS
  1
LAYOUT
  2
AcDbLayout
  3
ObjectDBX Classes
 90
        0
280
     0
281
     0
  0
ENDSEC
  0
SECTION
  2
TABLES
  0
TABLE
  2
VPORT
  5
8
330
0
100
AcDbSymbolTable
 70
     1
  0
VPORT
  5
29
330
8
100
AcDbSymbolTableRecord
100
AcDbViewportTableRecord
  2
*Active
 70
     0
 10
0.0
 20
0.0
 11
1.0
 21
1.0
 12
-3.173400405
 22
0.0
 13
0.0
 23
0.0
 14
0.5
 24
0.5
 15
0.5
 25
0.5
 16
0.0
 26
0.0
 36
1.0
 17
0.0
 27
0.0
 37
0.0
 40
14.279999999
 41
0.2133971079
 42
50.0
 43
0.0
 44
0.0
 50
0.0
 51
0.0
 71
     0
 72
   100
 73
     1
 74
     3
 75
     0
 76
     0
 77
     0
 78
     0
281
     0
 65
     1
110
0.0
120
0.0
130
0.0
111
1.0
121
0.0
131
0.0
112
0.0
122
1.0
132
0.0
 79
     0
146
0.0
  0
ENDTAB
  0
TABLE
  2
LTYPE
  5
5
330
0
100
AcDbSymbolTable
 70
     6
  0
LTYPE
  5
14
330
5
100
AcDbSymbolTableRecord
100
AcDbLinetypeTableRecord
  2
ByBlock
 70
     0
  3

 72
    65
 73
     0
 40
0.0
  0
LTYPE
  5
15
330
5
100
AcDbSymbolTableRecord
100
AcDbLinetypeTableRecord
  2
ByLayer
 70
     0
  3

 72
    65
 73
     0
 40
0.0
  0
LTYPE
  5
16
330
5
100
AcDbSymbolTableRecord
100
AcDbLinetypeTableRecord
  2
Continuous
 70
     0
  3
Solid line
 72
    65
 73
     0
 40
0.0
  0
LTYPE
  5
5E
330
5
100
AcDbSymbolTableRecord
100
AcDbLinetypeTableRecord
  2
HIDDEN
 70
     0
  3
Hidden __ __ __ __ __ __ __ __ __ __ __ __ __ __
 72
    65
 73
     2
 40
0.075
 49
0.05
 74
     0
 49
-0.025
 74
     0
  0
LTYPE
  5
5F
330
5
100
AcDbSymbolTableRecord
100
AcDbLinetypeTableRecord
  2
PHANTOM
 70
     0
  3
Phantom ______  __  __  ______  __  __  ______
 72
    65
 73
     6
 40
0.5
 49
0.25
 74
     0
 49
-0.05
 74
     0
 49
0.05
 74
     0
 49
-0.05
 74
     0
 49
0.05
 74
     0
 49
-0.05
 74
     0
  0
LTYPE
  5
60
330
5
100
AcDbSymbolTableRecord
100
AcDbLinetypeTableRecord
  2
CENTER
 70
     0
  3
Center ____ _ ____ _ ____ _ ____ _ ____ _ ____
 72
    65
 73
     4
 40
0.4
 49
0.25
 74
     0
 49
-0.05
 74
     0
 49
0.05
 74
     0
 49
-0.05
 74
     0
  0
LTYPE
  5
61
330
5
100
AcDbSymbolTableRecord
100
AcDbLinetypeTableRecord
  2
CENTERX2
 70
     0
  3
Center (2x) ________  __  ________  __  _____
 72
    65
 73
     4
 40
0.8
 49
0.5
 74
     0
 49
-0.1
 74
     0
 49
0.1
 74
     0
 49
-0.1
 74
     0
  0
LTYPE
  5
62
330
5
100
AcDbSymbolTableRecord
100
AcDbLinetypeTableRecord
  2
DOT2
 70
     0
  3
Dot (.5x) ........................................
 72
    65
 73
     2
 40
0.025
 49
0.0
 74
     0
 49
-0.025
 74
     0
  0
ENDTAB
  0
TABLE
  2
LAYER
  5
2
330
0
100
AcDbSymbolTable
 70
     1
  0
LAYER
  5
10
330
2
100
AcDbSymbolTableRecord
100
AcDbLayerTableRecord
  2
0
 70
     0
 62
     7
  6
Continuous
370
    -3
390
F
  0
ENDTAB
  0
TABLE
  2
STYLE
  5
3
330
0
100
AcDbSymbolTable
 70
     2
  0
STYLE
  5
11
330
3
100
AcDbSymbolTableRecord
100
AcDbTextStyleTableRecord
  2
Standard
 70
     0
 40
0.0
 41
1.0
 50
0.0
 71
     0
 42
0.1377952756
  3
txt
  4

  0
STYLE
  5
6F
330
3
100
AcDbSymbolTableRecord
100
AcDbTextStyleTableRecord
  2
SLDTEXTSTYLE0
 70
     0
 40
0.0
 41
0.7
 50
0.0
 71
     0
 42
0.1377952756
  3
TXT
  4

  0
ENDTAB
  0
TABLE
  2
VIEW
  5
6
330
0
100
AcDbSymbolTable
 70
     0
  0
ENDTAB
  0
TABLE
  2
UCS
  5
7
330
0
100
AcDbSymbolTable
 70
     0
  0
ENDTAB
  0
TABLE
  2
APPID
  5
9
330
0
100
AcDbSymbolTable
 70
     1
  0
APPID
  5
12
330
9
100
AcDbSymbolTableRecord
100
AcDbRegAppTableRecord
  2
ACAD
 70
     0
  0
ENDTAB
  0
TABLE
  2
DIMSTYLE
  5
A
330
0
100
AcDbSymbolTable
 70
     1
100
AcDbDimStyleTable
  0
DIMSTYLE
105
27
330
A
100
AcDbSymbolTableRecord
100
AcDbDimStyleTableRecord
  2
Standard
 70
     0
178
     0
340
11
  0
ENDTAB
  0
TABLE
  2
BLOCK_RECORD
  5
1
330
0
100
AcDbSymbolTable
 70
     1
  0
BLOCK_RECORD
  5
1F
330
1
100
AcDbSymbolTableRecord
100
AcDbBlockTableRecord
  2
*Model_Space
340
22
  0
BLOCK_RECORD
  5
1B
330
1
100
AcDbSymbolTableRecord
100
AcDbBlockTableRecord
  2
*Paper_Space
340
1E
  0
BLOCK_RECORD
  5
23
330
1
100
AcDbSymbolTableRecord
100
AcDbBlockTableRecord
  2
*Paper_Space0
340
26
  0
ENDTAB
  0
ENDSEC
  0
SECTION
  2
BLOCKS
  0
BLOCK
  5
20
330
1F
100
AcDbEntity
  8
0
100
AcDbBlockBegin
  2
*Model_Space
 70
     0
 10
0.0
 20
0.0
 30
0.0
  3
*Model_Space
  1

  0
ENDBLK
  5
21
330
1F
100
AcDbEntity
  8
0
100
AcDbBlockEnd
  0
BLOCK
  5
1C
330
1B
100
AcDbEntity
 67
     1
  8
0
100
AcDbBlockBegin
  2
*Paper_Space
 70
     0
 10
0.0
 20
0.0
 30
0.0
  3
*Paper_Space
  1

  0
ENDBLK
  5
1D
330
1B
100
AcDbEntity
 67
     1
  8
0
100
AcDbBlockEnd
  0
BLOCK
  5
24
330
23
100
AcDbEntity
  8
0
100
AcDbBlockBegin
  2
*Paper_Space0
 70
     0
 10
0.0
 20
0.0
 30
0.0
  3
*Paper_Space0
  1

  0
ENDBLK
  5
25
330
23
100
AcDbEntity
  8
0
100
AcDbBlockEnd
  0
ENDSEC
  0
SECTION
  2
ENTITIES
  0
SPLINE
  5
63
330
1F
100
AcDbEntity
  8
0
  6
Continuous
 62
     7
370
    25
100
AcDbSpline
210
0.0
220
0.0
230
1.0
 70
     8
 71
     3
 72
    35
 73
    31
 74
     0
 42
0.00000001
 43
0.00000001
 40
0.0
 40
0.0
 40
0.0
 40
0.0
 40
0.0188568904959962
 40
0.0372508530466351
 40
0.0551871474467443
 40
0.0726714465364164
 40
0.0897098746289224
 40
0.1063090495610279
 40
0.1224761285905375
 40
0.138218858329146
 40
0.1535456288388149
 40
0.1684655319298507
 40
0.1829884235700317
 40
0.197124990136765
 40
0.2108868180079307
 40
0.2242864656813656
 40
0.2373375372291533
 40
0.250054755426364
 40
0.312234501243416
 40
0.3731703500206144
 40
0.4350095143912768
 40
0.4998094722729437
 40
0.55313736754345
 40
0.6123031086357458
 40
0.6777670443325802
 40
0.7498689880493624
 40
0.7954100481506664
 40
0.8522657291962039
 40
0.9204581577124021
 40
1.0
 40
1.0
 40
1.0
 40
1.0
 10
-2.719725559653488
 20
6.707644862885587
 30
0.0
 10
-2.726617563039181
 20
6.701890008321528
 30
0.0
 10
-2.740232374313172
 20
6.690521578212856
 30
0.0
 10
-2.760746816384051
 20
6.674098114682842
 30
0.0
 10
-2.781007710298311
 20
6.658410218775488
 30
0.0
 10
-2.801038379804452
 20
6.643485491039011
 30
0.0
 10
-2.82083286086463
 20
6.629316793642247
 30
0.0
 10
-2.840392750521441
 20
6.615905951160002
 30
0.0
 10
-2.859717704294355
 20
6.603252481118543
 30
0.0
 10
-2.878807886201569
 20
6.591356500961346
 30
0.0
 10
-2.897663338513901
 20
6.580217978707577
 30
0.0
 10
-2.916284142466576
 20
6.569836935231153
 30
0.0
 10
-2.934670383835333
 20
6.560213368714276
 30
0.0
 10
-2.952822136573532
 20
6.551347369775185
 30
0.0
 10
-2.970739555065308
 20
6.543238762213326
 30
0.0
 10
-2.988422529451497
 20
6.535888392427712
 30
0.0
 10
-3.00587191639599
 20
6.529293520779159
 30
0.0
 10
-3.045535607150263
 20
6.515861642566255
 30
0.0
 10
-3.109006790995603
 20
6.501472953440977
 30
0.0
 10
-3.197540827512327
 20
6.498436932075861
 30
0.0
 10
-3.28627463544542
 20
6.512388303675352
 30
0.0
 10
-3.367632645549413
 20
6.540583253716156
 30
0.0
 10
-3.442959137810194
 20
6.579021177988984
 30
0.0
 10
-3.514467741267511
 20
6.624681094274076
 30
0.0
 10
-3.58925896446004
 20
6.681200980727414
 30
0.0
 10
-3.655419799735276
 20
6.738067619220016
 30
0.0
 10
-3.715859593445974
 20
6.795093757935176
 30
0.0
 10
-3.77358998840163
 20
6.852237827095976
 30
0.0
 10
-3.84182721825913
 20
6.921762809789535
 30
0.0
 10
-3.8904260545569
 20
6.972618628441457
 30
0.0
 10
-3.916592230834928
 20
6.999999990156708
 30
0.0
  0
SPLINE
  5
64
330
1F
100
AcDbEntity
  8
0
  6
Continuous
 62
     7
370
    25
100
AcDbSpline
210
0.0
220
0.0
230
1.0
 70
     8
 71
     3
 72
    31
 73
    27
 74
     0
 42
0.00000001
 43
0.00000001
 40
0.0
 40
0.0
 40
0.0
 40
0.0
 40
0.0346726241668634
 40
0.0688064140178139
 40
0.1024166224670724
 40
0.1355192261993699
 40
0.1681309479440712
 40
0.2002692767103822
 40
0.2319524854505072
 40
0.2631996455725204
 40
0.294030637686825
 40
0.3244661579428548
 40
0.3545277192995033
 40
0.3842376470776897
 40
0.4136190681701423
 40
0.4426958933352158
 40
0.4714927920812579
 40
0.5000351597570604
 40
0.5571605799345587
 40
0.6154652890421576
 40
0.6751432869146922
 40
0.7363755219573017
 40
0.7993295419944614
 40
0.8641595467889331
 40
0.9310067550832998
 40
1.0
 40
1.0
 40
1.0
 40
1.0
 10
-2.125804292368754
 20
6.707644861463465
 30
0.0
 10
-2.132329555444798
 20
6.704870040862635
 30
0.0
 10
-2.14527867491798
 20
6.699363522112655
 30
0.0
 10
-2.164762415497467
 20
6.691673719018131
 30
0.0
 10
-2.184094468546811
 20
6.684488135252836
 30
0.0
 10
-2.203289746466504
 20
6.677841243169868
 30
0.0
 10
-2.222344362484511
 20
6.671724045599529
 30
0.0
 10
-2.241259350680401
 20
6.666138931313703
 30
0.0
 10
-2.260034453814498
 20
6.661085309875052
 30
0.0
 10
-2.278669750172681
 20
6.656563374895284
 30
0.0
 10
-2.297165226660428
 20
6.652573117705466
 30
0.0
 10
-2.315520889707647
 20
6.649114585079278
 30
0.0
 10
-2.333736737009557
 20
6.646187813630719
 30
0.0
 10
-2.351812758889447
 20
6.643792837650273
 30
0.0
 10
-2.369748957318423
 20
6.641929718868206
 30
0.0
 10
-2.387545267202759
 20
6.640598418521391
 30
0.0
 10
-2.405201845875976
 20
6.639799268541006
 30
0.0
 10
-2.428609987154579
 20
6.63944107287497
 30
0.0
 10
-2.458057624151071
 20
6.640351239015619
 30
0.0
 10
-2.493741439249426
 20
6.643569256929865
 30
0.0
 10
-2.530017414293764
 20
6.648916435920328
 30
0.0
 10
-2.566883396271194
 20
6.656394290096928
 30
0.0
 10
-2.60434341177251
 20
6.665992889165898
 30
0.0
 10
-2.642383237572835
 20
6.677744621990699
 30
0.0
 10
-2.681059589145244
 20
6.691518262657338
 30
0.0
 10
-2.706701862671534
 20
6.702213002264877
 30
0.0
 10
-2.719725550503843
 20
6.707644850964003
 30
0.0
  0
SPLINE
  5
65
330
1F
100
AcDbEntity
  8
0
  6
Continuous
 62
     7
370
    25
100
AcDbSpline
210
0.0
220
0.0
230
1.0
 70
     8
 71
     3
 72
    29
 73
    25
 74
     0
 42
0.00000001
 43
0.00000001
 40
0.0
 40
0.0
 40
0.0
 40
0.0
 40
0.0283432247814851
 40
0.0567076121978791
 40
0.0851163784982352
 40
0.1135926313875613
 40
0.1421593148008129
 40
0.1708391556399202
 40
0.1996546130645011
 40
0.2286278308582928
 40
0.2577805933135522
 40
0.2871342849881393
 40
0.3167098545986805
 40
0.3465277832215239
 40
0.3766080568843983
 40
0.4069701435488138
 40
0.437632974408162
 40
0.4686149293611364
 40
0.4999338264651971
 40
0.5855221575529115
 40
0.6781125289578577
 40
0.7779377994827384
 40
0.8851837117300558
 40
1.0
 40
1.0
 40
1.0
 40
1.0
 10
-1.67962064963377
 20
6.500015709926091
 30
0.0
 10
-1.684363562386109
 20
6.50016380032838
 30
0.0
 10
-1.69385292921439
 20
6.500460091705522
 30
0.0
 10
-1.70807260468986
 20
6.501421978615727
 30
0.0
 10
-1.722282477411026
 20
6.502762642516371
 30
0.0
 10
-1.736481666259205
 20
6.504519299157148
 30
0.0
 10
-1.750670374808447
 20
6.506681935574166
 30
0.0
 10
-1.764848517249081
 20
6.509253228213701
 30
0.0
 10
-1.779016088193985
 20
6.512232436018081
 30
0.0
 10
-1.793173063475952
 20
6.515619735986008
 30
0.0
 10
-1.807319427188395
 20
6.519415055259863
 30
0.0
 10
-1.821455164363347
 20
6.523618387166839
 30
0.0
 10
-1.835580263772862
 20
6.528229704588584
 30
0.0
 10
-1.849694714374359
 20
6.533248990584401
 30
0.0
 10
-1.863798516772881
 20
6.538676205201106
 30
0.0
 10
-1.877891639986445
 20
6.544511390821401
 30
0.0
 10
-1.891974184360255
 20
6.55075428083636
 30
0.0
 10
-1.906045763632352
 20
6.557405781871244
 30
0.0
 10
-1.928175621738788
 20
6.56851089229294
 30
0.0
 10
-1.958812693207567
 20
6.585627728524115
 30
0.0
 10
-1.998179209824827
 20
6.61048747962755
 30
0.0
 10
-2.039314748133565
 20
6.639225146248656
 30
0.0
 10
-2.082305753830455
 20
6.671742143517759
 30
0.0
 10
-2.110978940245827
 20
6.69540834093649
 30
0.0
 10
-2.125804285709469
 20
6.707644844667215
 30
0.0
  0
SPLINE
  5
67
330
1F
100
AcDbEntity
  8
0
  6
Continuous
 62
     7
370
    25
100
AcDbSpline
210
0.0
220
0.0
230
1.0
 70
     8
 71
     3
 72
    27
 73
    23
 74
     0
 42
0.00000001
 43
0.00000001
 40
0.0
 40
0.0
 40
0.0
 40
0.0
 40
0.0525104958385567
 40
0.1035668931502627
 40
0.1531818732700385
 40
0.2013692555471092
 40
0.2481441246729861
 40
0.2935229739903089
 40
0.3375238667264973
 40
0.3801666172287121
 40
0.4214729943610921
 40
0.461466949226872
 40
0.5001748692485581
 40
0.5583806569950112
 40
0.6156095373756251
 40
0.6719865999386498
 40
0.7276426780257348
 40
0.7827137437864379
 40
0.8373401380586893
 40
0.8916656479922247
 40
0.9458364567278678
 40
1.0
 40
1.0
 40
1.0
 40
1.0
 10
-2.125804307210623
 20
-6.707644862914616
 30
0.0
 10
-2.119066120348739
 20
-6.70200010639897
 30
0.0
 10
-2.105776337656592
 20
-6.690866905586842
 30
0.0
 10
-2.085807757721619
 20
-6.674778508333526
 30
0.0
 10
-2.066168004735821
 20
-6.659440942138801
 30
0.0
 10
-2.046836143013684
 20
-6.644878900167378
 30
0.0
 10
-2.027817492379837
 20
-6.631086009224007
 30
0.0
 10
-2.009110624842764
 20
-6.618063869018009
 30
0.0
 10
-1.99071584082118
 20
-6.605812024699798
 30
0.0
 10
-1.972632951039989
 20
-6.594330591186944
 30
0.0
 10
-1.954861999888604
 20
-6.583619394096688
 30
0.0
 10
-1.93740251947191
 20
-6.573678864314576
 30
0.0
 10
-1.917191825022892
 20
-6.562868621375636
 30
0.0
 10
-1.894003494982374
 20
-6.551530315149853
 30
0.0
 10
-1.867602205859858
 20
-6.540096785535223
 30
0.0
 10
-1.841086473229365
 20
-6.530080473504847
 30
0.0
 10
-1.814456385693533
 20
-6.521481960138169
 30
0.0
 10
-1.787712187429457
 20
-6.514304056997873
 30
0.0
 10
-1.760854533739948
 20
-6.50853780564763
 30
0.0
 10
-1.733882896720755
 20
-6.504218366717494
 30
0.0
 10
-1.706801576112697
 20
-6.501216675321181
 30
0.0
 10
-1.688680553363489
 20
-6.500416013825616
 30
0.0
 10
-1.679620649633769
 20
-6.500015709926091
 30
0.0
  0
SPLINE
  5
68
330
1F
100
AcDbEntity
  8
0
  6
Continuous
 62
     7
370
    25
100
AcDbSpline
210
0.0
220
0.0
230
1.0
 70
     8
 71
     3
 72
    31
 73
    27
 74
     0
 42
0.00000001
 43
0.00000001
 40
0.0
 40
0.0
 40
0.0
 40
0.0
 40
0.0346726230112466
 40
0.0688064118540873
 40
0.1024166194448413
 40
0.1355192224702452
 40
0.1681309436615524
 40
0.2002692720297143
 40
0.2319524805285088
 40
0.2631996405673762
 40
0.294030632757851
 40
0.3244661532502282
 40
0.3545277150039484
 40
0.384237643340141
 40
0.4136190651513605
 40
0.4426958911953774
 40
0.4714927909795102
 40
0.5000351598510466
 40
0.557160579908394
 40
0.6154652889637511
 40
0.6751432868321569
 40
0.7363755218998339
 40
0.7993295419734975
 40
0.8641595467994825
 40
0.9310067551053595
 40
1.0
 40
1.0
 40
1.0
 40
1.0
 10
-2.719725550504932
 20
-6.707644850962262
 30
0.0
 10
-2.713200287881885
 20
-6.70487003067049
 30
0.0
 10
-2.700251169283276
 20
-6.699363512523457
 30
0.0
 10
-2.680767429972701
 20
-6.691673710322732
 30
0.0
 10
-2.661435378101897
 20
-6.684488127414092
 30
0.0
 10
-2.642240101270454
 20
-6.677841236151849
 30
0.0
 10
-2.62318548625043
 20
-6.671724039365934
 30
0.0
 10
-2.60427049896226
 20
-6.666138925828356
 30
0.0
 10
-2.585495396645642
 20
-6.661085305101742
 30
0.0
 10
-2.566860101014711
 20
-6.656563370797796
 30
0.0
 10
-2.548364625164012
 20
-6.652573114247603
 30
0.0
 10
-2.530008962663654
 20
-6.6491145822248
 30
0.0
 10
-2.511793115818439
 20
-6.646187811343422
 30
0.0
 10
-2.493717094305096
 20
-6.643792835893873
 30
0.0
 10
-2.475780896152538
 20
-6.641929717606573
 30
0.0
 10
-2.457984586454505
 20
-6.640598417717779
 30
0.0
 10
-2.440328007877501
 20
-6.639799268160819
 30
0.0
 10
-2.41691986715459
 20
-6.639441073012034
 30
0.0
 10
-2.387472231220716
 20
-6.640351239687668
 30
0.0
 10
-2.351788417731178
 20
-6.643569258057171
 30
0.0
 10
-2.315512444310956
 20
-6.648916437314981
 30
0.0
 10
-2.278646463972548
 20
-6.656394291575499
 30
0.0
 10
-2.241186450125441
 20
-6.665992890544771
 30
0.0
 10
-2.203146625993142
 20
-6.677744623083767
 30
0.0
 10
-2.164470276107854
 20
-6.691518263290712
 30
0.0
 10
-2.138828003679479
 20
-6.702213002454745
 30
0.0
 10
-2.125804316407952
 20
-6.707644850927299
 30
0.0
  0
SPLINE
  5
69
330
1F
100
AcDbEntity
  8
0
  6
Continuous
 62
     7
370
    25
100
AcDbSpline
210
0.0
220
0.0
230
1.0
 70
     8
 71
     3
 72
    31
 73
    27
 74
     0
 42
0.00000001
 43
0.00000001
 40
0.0
 40
0.0
 40
0.0
 40
0.0
 40
0.054271506946262
 40
0.1035044942947022
 40
0.1477018664198536
 40
0.1868676479742982
 40
0.2210076431303594
 40
0.2501306611097038
 40
0.2989693648316967
 40
0.3448095021417063
 40
0.3877376519742051
 40
0.4278592491453965
 40
0.46530344393148
 40
0.5002291012463237
 40
0.5650605903900077
 40
0.6269104009934163
 40
0.6878348962842235
 40
0.74998235921614
 40
0.7756428613810512
 40
0.8027272949353341
 40
0.8313400444660053
 40
0.8615696666204603
 40
0.8934912643349384
 40
0.9271686227651427
 40
0.9626560609112753
 40
1.0
 40
1.0
 40
1.0
 40
1.0
 10
-3.916592239727385
 20
-6.99999999950743
 30
0.0
 10
-3.898751583603928
 20
-6.981305601090792
 30
0.0
 10
-3.864726582386025
 20
-6.945652375979988
 30
0.0
 10
-3.815751707619007
 20
-6.895179069879284
 30
0.0
 10
-3.771425830076305
 20
-6.85021944840362
 30
0.0
 10
-3.731722851299522
 20
-6.810797992080312
 30
0.0
 10
-3.696664244574836
 20
-6.776890397548989
 30
0.0
 10
-3.657593817846302
 20
-6.74051806402197
 30
0.0
 10
-3.613205058568691
 20
-6.701705730577563
 30
0.0
 10
-3.562207001076693
 20
-6.660539245574037
 30
0.0
 10
-3.5126966104945
 20
-6.624232546447498
 30
0.0
 10
-3.464686940418587
 20
-6.592768056415626
 30
0.0
 10
-3.418162780620744
 20
-6.56614414604139
 30
0.0
 10
-3.359305276471682
 20
-6.537697319773856
 30
0.0
 10
-3.286232889945259
 20
-6.51239020746576
 30
0.0
 10
-3.19748853448114
 20
-6.498432591329538
 30
0.0
 10
-3.108965900565983
 20
-6.501474032115404
 30
0.0
 10
-3.039474980633631
 20
-6.517214795842758
 30
0.0
 10
-2.987975118154629
 20
-6.535748768064549
 30
0.0
 10
-2.952445483107535
 20
-6.551255490332247
 30
0.0
 10
-2.915948577757659
 20
-6.569790117948632
 30
0.0
 10
-2.878481287229866
 20
-6.591364194268652
 30
0.0
 10
-2.840036193957705
 20
-6.615967999593386
 30
0.0
 10
-2.800632178952594
 20
-6.643627638854545
 30
0.0
 10
-2.760182410957674
 20
-6.67424212466297
 30
0.0
 10
-2.733438415139728
 20
-6.696323000028371
 30
0.0
 10
-2.719725559654463
 20
-6.707644862884434
 30
0.0
  0
SPLINE
  5
6A
330
1F
100
AcDbEntity
  8
0
  6
Continuous
 62
     7
370
    25
100
AcDbSpline
210
0.0
220
0.0
230
1.0
 70
     8
 71
     3
 72
    34
 73
    30
 74
     0
 42
0.00000001
 43
0.00000001
 40
0.0
 40
0.0
 40
0.0
 40
0.0
 40
0.015116032165841
 40
0.0302410169902281
 40
0.0453869607228709
 40
0.060565819879013
 40
0.0757894734196993
 40
0.0910696958358457
 40
0.1064181314291603
 40
0.1218462700515806
 40
0.1373654245278486
 40
0.1529867099448403
 40
0.1687210249478897
 40
0.1845790351404224
 40
0.2005711586402258
 40
0.2167075538050274
 40
0.2329981091028532
 40
0.2494524350697114
 40
0.2660798582690804
 40
0.2828894171447148
 40
0.2998898596404593
 40
0.3460585868699467
 40
0.3947248051541476
 40
0.445990938719971
 40
0.4999446069928565
 40
0.5894111188654583
 40
0.702491611351985
 40
0.8393282069444634
 40
1.0
 40
1.0
 40
1.0
 40
1.0
 10
-4.667180160284331
 20
-6.500014927193354
 30
0.0
 10
-4.662512237895757
 20
-6.500092992410508
 30
0.0
 10
-4.653173628483366
 20
-6.500249169079911
 30
0.0
 10
-4.639173316978559
 20
-6.500984716259183
 30
0.0
 10
-4.625179050095763
 20
-6.502087204221211
 30
0.0
 10
-4.611191162200366
 20
-6.503592669412642
 30
0.0
 10
-4.59720959460092
 20
-6.505491420493505
 30
0.0
 10
-4.583234392396354
 20
-6.507786048859398
 30
0.0
 10
-4.569265570557445
 20
-6.510475839062551
 30
0.0
 10
-4.555303149627989
 20
-6.513560963665854
 30
0.0
 10
-4.541347145861838
 20
-6.517041353728694
 30
0.0
 10
-4.527397573673799
 20
-6.520917003791716
 30
0.0
 10
-4.513454444995072
 20
-6.525187890184259
 30
0.0
 10
-4.499517768976253
 20
-6.52985399281813
 30
0.0
 10
-4.485587553786947
 20
-6.53491529245801
 30
0.0
 10
-4.471663799885998
 20
-6.540371761484843
 30
0.0
 10
-4.45774652599878
 20
-6.546223405984972
 30
0.0
 10
-4.443835671387415
 20
-6.552470106104117
 30
0.0
 10
-4.429931466948731
 20
-6.559112222491201
 30
0.0
 10
-4.416033028991168
 20
-6.566148297631264
 30
0.0
 10
-4.39425581026609
 20
-6.577806458541626
 30
0.0
 10
-4.364441476527929
 20
-6.595275049322458
 30
0.0
 10
-4.326630695805552
 20
-6.619923700573216
 30
0.0
 10
-4.287989162953741
 20
-6.647610665234961
 30
0.0
 10
-4.240430696221708
 20
-6.684424049924736
 30
0.0
 10
-4.180579606849204
 20
-6.736385494947499
 30
0.0
 10
-4.104406389770477
 20
-6.808398975005335
 30
0.0
 10
-4.014533078051254
 20
-6.897869772698006
 30
0.0
 10
-3.950937533702199
 20
-6.964185596993443
 30
0.0
 10
-3.916592249566383
 20
-6.999999990146942
 30
0.0
  0
SPLINE
  5
6C
330
1F
100
AcDbEntity
  8
0
  6
Continuous
 62
     7
370
    25
100
AcDbSpline
210
0.0
220
0.0
230
1.0
 70
     8
 71
     3
 72
    29
 73
    25
 74
     0
 42
0.00000001
 43
0.00000001
 40
0.0
 40
0.0
 40
0.0
 40
0.0
 40
0.0743077506332275
 40
0.1439130840318787
 40
0.2088205390620144
 40
0.2690357169412291
 40
0.3245656388135526
 40
0.3754192664801369
 40
0.4216082837693303
 40
0.4631483106953653
 40
0.500060869580851
 40
0.555339284351877
 40
0.6078808195238986
 40
0.6577808291492475
 40
0.7051506219156216
 40
0.7501202987722616
 40
0.7823226209852059
 40
0.8140739004177276
 40
0.8454583964177596
 40
0.8765633491846155
 40
0.9074783655675794
 40
0.9382947093346109
 40
0.9691045211200643
 40
0.9999999999999999
 40
0.9999999999999999
 40
0.9999999999999999
 40
0.9999999999999999
 10
-3.916592240664084
 20
6.999999999508021
 30
0.0
 10
-3.932440985129154
 20
6.983402662353632
 30
0.0
 10
-3.963135517995037
 20
6.951258317298769
 30
0.0
 10
-4.008102282174457
 20
6.9050282484362
 30
0.0
 10
-4.050383528632019
 20
6.862260659726389
 30
0.0
 10
-4.090004333494111
 20
6.822979002535399
 30
0.0
 10
-4.126958709954383
 20
6.787177188173557
 30
0.0
 10
-4.161246295553395
 20
6.754853685203196
 30
0.0
 10
-4.192871054117996
 20
6.726012325705259
 30
0.0
 10
-4.22181743134522
 20
6.700632151031972
 30
0.0
 10
-4.253588171169882
 20
6.674235518995549
 30
0.0
 10
-4.28895360737893
 20
6.646878999454982
 30
0.0
 10
-4.328615889940404
 20
6.618580371158866
 30
0.0
 10
-4.367466753309317
 20
6.593422837287899
 30
0.0
 10
-4.405495318195745
 20
6.571395586619099
 30
0.0
 10
-4.4397985689132
 20
6.553945935221317
 30
0.0
 10
-4.470597406567244
 20
6.540383338482658
 30
0.0
 10
-4.498131982847747
 20
6.52991581607593
 30
0.0
 10
-4.525851153508722
 20
6.520998033920849
 30
0.0
 10
-4.553757264643182
 20
6.513638994571299
 30
0.0
 10
-4.581848887315067
 20
6.507827493867732
 30
0.0
 10
-4.61012600116405
 20
6.503601970781069
 30
0.0
 10
-4.638586079003316
 20
6.500822039476499
 30
0.0
 10
-4.65763998217732
 20
6.50028421351376
 30
0.0
 10
-4.667180160284333
 20
6.500014927193354
 30
0.0
  0
LINE
  5
6D
330
1F
100
AcDbEntity
  8
0
  6
Continuous
 62
     7
370
    25
100
AcDbLine
 10
-1.6796206496
 20
-6.5000157099
 30
0.0
 11
-1.6796206496
 21
6.5000157099
 31
0.0
  0
LINE
  5
6E
330
1F
100
AcDbEntity
  8
0
  6
Continuous
 62
     7
370
    25
100
AcDbLine
 10
-4.6671801603
 20
6.5000149272
 30
0.0
 11
-4.6671801603
 21
-6.5000149272
 31
0.0
  0
MTEXT
  5
70
330
1F
100
AcDbEntity
  8
0
  6
Continuous
 62
     7
100
AcDbMText
 10
-4.6671801603
 20
-7.0401404086
 30
0.0
 40
0.1903
 41
0.0
 71
     1
 72
     1
  1
SOLIDWORKS Educational Product.
  7
SLDTEXTSTYLE0
 73
     1
 44
1.0
  0
MTEXT
  5
71
330
1F
100
AcDbEntity
  8
0
  6
Continuous
 62
     7
100
AcDbMText
 10
-4.6671801603
 20
-7.3255904086
 30
0.0
 40
0.1903
 41
0.0
 71
     1
 72
     1
  1
For Instructional Use Only.
  7
SLDTEXTSTYLE0
 73
     1
 44
1.0
  0
ENDSEC
  0
SECTION
  2
OBJECTS
  0
DICTIONARY
  5
C
330
0
100
AcDbDictionary
281
     1
  3
ACAD_GROUP
350
D
  3
ACAD_LAYOUT
350
1A
  3
ACAD_MLINESTYLE
350
17
  3
ACAD_PLOTSETTINGS
350
19
  3
ACAD_PLOTSTYLENAME
350
E
  3
ACAD_SCALELIST
350
47
  3
DWGPROPS
350
72
  0
DICTIONARY
  5
D
102
{ACAD_REACTORS
330
C
102
}
330
C
100
AcDbDictionary
281
     1
  0
DICTIONARY
  5
1A
102
{ACAD_REACTORS
330
C
102
}
330
C
100
AcDbDictionary
281
     1
  3
Layout1
350
1E
  3
Layout2
350
26
  3
Model
350
22
  0
DICTIONARY
  5
17
102
{ACAD_REACTORS
330
C
102
}
330
C
100
AcDbDictionary
281
     1
  3
Standard
350
18
  0
DICTIONARY
  5
19
102
{ACAD_REACTORS
330
C
102
}
330
C
100
AcDbDictionary
281
     1
  0
ACDBDICTIONARYWDFLT
  5
E
102
{ACAD_REACTORS
330
C
102
}
330
C
100
AcDbDictionary
281
     1
  3
Normal
350
F
100
AcDbDictionaryWithDefault
340
F
  0
DICTIONARY
  5
47
102
{ACAD_REACTORS
330
C
102
}
330
C
100
AcDbDictionary
281
     1
  3
A0
350
48
  3
A1
350
49
  3
A2
350
4A
  3
A3
350
4B
  3
A4
350
4C
  3
A5
350
4D
  3
A6
350
4E
  3
A7
350
4F
  3
A8
350
50
  3
A9
350
51
  3
B1
350
52
  3
B2
350
53
  3
B3
350
54
  3
B4
350
55
  3
B5
350
56
  3
B6
350
57
  3
B7
350
58
  0
XRECORD
  5
72
102
{ACAD_REACTORS
330
C
102
}
330
C
100
AcDbXrecord
280
     1
  1
DWGPROPS COOKIE
  2

  3

  4

  6

  7

  8
manny
  9

300
=
301
=
302
=
303
=
304
=
305
=
306
=
307
=
308
=
309
=
 40
0.0
 41
2460633.168448878
 42
2460633.168480672
  1

 90
        0
  0
LAYOUT
  5
1E
102
{ACAD_REACTORS
330
1A
102
}
330
1A
100
AcDbPlotSettings
  1

  2
none_device
  4

  6

 40
0.0
 41
0.0
 42
0.0
 43
0.0
 44
0.0
 45
0.0
 46
0.0
 47
0.0
 48
0.0
 49
0.0
140
0.0
141
0.0
142
1.0
143
1.0
 70
   688
 72
     0
 73
     0
 74
     5
  7

 75
    16
147
1.0
148
0.0
149
0.0
100
AcDbLayout
  1
Layout1
 70
     1
 71
     1
 10
0.0
 20
0.0
 11
12.0
 21
9.0
 12
0.0
 22
0.0
 32
0.0
 14
1.0000000000E+20
 24
1.0000000000E+20
 34
1.0000000000E+20
 15
-1.0000000000E+20
 25
-1.0000000000E+20
 35
-1.0000000000E+20
146
0.0
 13
0.0
 23
0.0
 33
0.0
 16
1.0
 26
0.0
 36
0.0
 17
0.0
 27
1.0
 37
0.0
 76
     0
330
1B
  0
LAYOUT
  5
26
102
{ACAD_REACTORS
330
1A
102
}
330
1A
100
AcDbPlotSettings
  1

  2
none_device
  4

  6

 40
0.0
 41
0.0
 42
0.0
 43
0.0
 44
0.0
 45
0.0
 46
0.0
 47
0.0
 48
0.0
 49
0.0
140
0.0
141
0.0
142
1.0
143
1.0
 70
   688
 72
     0
 73
     0
 74
     5
  7

 75
    16
147
1.0
148
0.0
149
0.0
100
AcDbLayout
  1
Layout2
 70
     1
 71
     2
 10
0.0
 20
0.0
 11
0.0
 21
0.0
 12
0.0
 22
0.0
 32
0.0
 14
0.0
 24
0.0
 34
0.0
 15
0.0
 25
0.0
 35
0.0
146
0.0
 13
0.0
 23
0.0
 33
0.0
 16
1.0
 26
0.0
 36
0.0
 17
0.0
 27
1.0
 37
0.0
 76
     0
330
23
  0
LAYOUT
  5
22
102
{ACAD_REACTORS
330
1A
102
}
330
1A
100
AcDbPlotSettings
  1

  2
none_device
  4
ANSI_A_(11.00_x_8.50_Inches)
  6

 40
6.35
 41
19.05
 42
6.35000508
 43
19.05000254
 44
279.4
 45
215.9
 46
181.7989814603
 47
88.89999873
 48
0.0
 49
0.0
140
0.0
141
0.0
142
0.6010714286
143
1.0
 70
  1696
 72
     0
 73
     0
 74
     0
  7

 75
     0
147
0.5913241897
148
-39.4088153714
149
0.0
100
AcDbLayout
  1
Model
 70
     1
 71
     0
 10
0.0
 20
0.0
 11
12.0
 21
9.0
 12
0.0
 22
0.0
 32
0.0
 14
-4.6671801603
 24
-6.9999999995
 34
0.0
 15
-1.6796206496
 25
6.9999999995
 35
0.0
146
0.0
 13
0.0
 23
0.0
 33
0.0
 16
1.0
 26
0.0
 36
0.0
 17
0.0
 27
1.0
 37
0.0
 76
     0
330
1F
331
29
  0
MLINESTYLE
  5
18
102
{ACAD_REACTORS
330
17
102
}
330
17
100
AcDbMlineStyle
  2
Standard
 70
     0
  3

 62
   256
 51
90.0
 52
90.0
 71
     2
 49
0.5
 62
   256
  6
BYLAYER
 49
-0.5
 62
   256
  6
BYLAYER
  0
ACDBPLACEHOLDER
  5
F
102
{ACAD_REACTORS
330
E
102
}
330
E
  0
SCALE
  5
48
102
{ACAD_REACTORS
330
47
102
}
330
47
100
AcDbScale
 70
     0
300
1:1
140
1.0
141
1.0
290
     1
  0
SCALE
  5
49
102
{ACAD_REACTORS
330
47
102
}
330
47
100
AcDbScale
 70
     0
300
1/128" = 1'-0"
140
0.0078125
141
12.0
290
     0
  0
SCALE
  5
4A
102
{ACAD_REACTORS
330
47
102
}
330
47
100
AcDbScale
 70
     0
300
1/64" = 1'-0"
140
0.015625
141
12.0
290
     0
  0
SCALE
  5
4B
102
{ACAD_REACTORS
330
47
102
}
330
47
100
AcDbScale
 70
     0
300
1/32" = 1'-0"
140
0.03125
141
12.0
290
     0
  0
SCALE
  5
4C
102
{ACAD_REACTORS
330
47
102
}
330
47
100
AcDbScale
 70
     0
300
1/16" = 1'-0"
140
0.0625
141
12.0
290
     0
  0
SCALE
  5
4D
102
{ACAD_REACTORS
330
47
102
}
330
47
100
AcDbScale
 70
     0
300
3/32" = 1'-0"
140
0.09375
141
12.0
290
     0
  0
SCALE
  5
4E
102
{ACAD_REACTORS
330
47
102
}
330
47
100
AcDbScale
 70
     0
300
1/8" = 1'-0"
140
0.125
141
12.0
290
     0
  0
SCALE
  5
4F
102
{ACAD_REACTORS
330
47
102
}
330
47
100
AcDbScale
 70
     0
300
3/16" = 1'-0"
140
0.1875
141
12.0
290
     0
  0
SCALE
  5
50
102
{ACAD_REACTORS
330
47
102
}
330
47
100
AcDbScale
 70
     0
300
1/4" = 1'-0"
140
0.25
141
12.0
290
     0
  0
SCALE
  5
51
102
{ACAD_REACTORS
330
47
102
}
330
47
100
AcDbScale
 70
     0
300
3/8" = 1'-0"
140
0.375
141
12.0
290
     0
  0
SCALE
  5
52
102
{ACAD_REACTORS
330
47
102
}
330
47
100
AcDbScale
 70
     0
300
1/2" = 1'-0"
140
0.5
141
12.0
290
     0
  0
SCALE
  5
53
102
{ACAD_REACTORS
330
47
102
}
330
47
100
AcDbScale
 70
     0
300
3/4" = 1'-0"
140
0.75
141
12.0
290
     0
  0
SCALE
  5
54
102
{ACAD_REACTORS
330
47
102
}
330
47
100
AcDbScale
 70
     0
300
1" = 1'-0"
140
1.0
141
12.0
290
     0
  0
SCALE
  5
55
102
{ACAD_REACTORS
330
47
102
}
330
47
100
AcDbScale
 70
     0
300
1-1/2" = 1'-0"
140
1.5
141
12.0
290
     0
  0
SCALE
  5
56
102
{ACAD_REACTORS
330
47
102
}
330
47
100
AcDbScale
 70
     0
300
3" = 1'-0"
140
3.0
141
12.0
290
     0
  0
SCALE
  5
57
102
{ACAD_REACTORS
330
47
102
}
330
47
100
AcDbScale
 70
     0
300
6" = 1'-0"
140
6.0
141
12.0
290
     0
  0
SCALE
  5
58
102
{ACAD_REACTORS
330
47
102
}
330
47
100
AcDbScale
 70
     0
300
1'-0" = 1'-0"
140
12.0
141
12.0
290
     0
  0
ENDSEC
  0
EOF
