  0
SECTION
  2
HEADER
  9
$ACADVER
  1
AC1015
  9
$ACADMAINTVER
 70
     6
  9
$DWGCODEPAGE
  3
ANSI_1252
  9
$INSBASE
 10
0.0
 20
0.0
 30
0.0
  9
$EXTMIN
 10
-1.5418427824
 20
-6.3626960723
 30
0.0
  9
$EXTMAX
 10
11.7918427824
 20
-3.3751365705
 30
0.0
  9
$LIMMIN
 10
0.0
 20
0.0
  9
$LIMMAX
 10
12.0
 20
9.0
  9
$ORTHOMODE
 70
     0
  9
$REGENMODE
 70
     1
  9
$FILLMODE
 70
     1
  9
$QTEXTMODE
 70
     0
  9
$MIRRTEXT
 70
     1
  9
$LTSCALE
 40
1.0
  9
$ATTMODE
 70
     1
  9
$TEXTSIZE
 40
0.1377952756
  9
$TRACEWID
 40
0.05
  9
$TEXTSTYLE
  7
Standard
  9
$CLAYER
  8
0
  9
$CELTYPE
  6
ByLayer
  9
$CECOLOR
 62
   256
  9
$CELTSCALE
 40
1.0
  9
$DISPSILH
 70
     0
  9
$DIMSCALE
 40
1.0
  9
$DIMASZ
 40
0.13
  9
$DIMEXO
 40
0.0
  9
$DIMDLI
 40
0.38
  9
$DIMRND
 40
0.0
  9
$DIMDLE
 40
0.0
  9
$DIMEXE
 40
0.0393700787
  9
$DIMTP
 40
0.0
  9
$DIMTM
 40
0.0
  9
$DIMTXT
 40
0.1377952756
  9
$DIMCEN
 40
0.09
  9
$DIMTSZ
 40
0.0
  9
$DIMTOL
 70
     0
  9
$DIMLIM
 70
     0
  9
$DIMTIH
 70
     1
  9
$DIMTOH
 70
     1
  9
$DIMSE1
 70
     0
  9
$DIMSE2
 70
     0
  9
$DIMTAD
 70
     1
  9
$DIMZIN
 70
     1
  9
$DIMBLK
  1

  9
$DIMASO
 70
     1
  9
$DIMSHO
 70
     1
  9
$DIMPOST
  1

  9
$DIMAPOST
  1

  9
$DIMALT
 70
     0
  9
$DIMALTD
 70
     2
  9
$DIMALTF
 40
25.4
  9
$DIMLFAC
 40
1.0
  9
$DIMTOFL
 70
     0
  9
$DIMTVP
 40
0.0
  9
$DIMTIX
 70
     0
  9
$DIMSOXD
 70
     0
  9
$DIMSAH
 70
     0
  9
$DIMBLK1
  1

  9
$DIMBLK2
  1

  9
$DIMSTYLE
  2
Standard
  9
$DIMCLRD
 70
     0
  9
$DIMCLRE
 70
     0
  9
$DIMCLRT
 70
     0
  9
$DIMTFAC
 40
1.0
  9
$DIMGAP
 40
0.06
  9
$DIMJUST
 70
     0
  9
$DIMSD1
 70
     0
  9
$DIMSD2
 70
     0
  9
$DIMTOLJ
 70
     1
  9
$DIMTZIN
 70
     1
  9
$DIMALTZ
 70
     0
  9
$DIMALTTZ
 70
     0
  9
$DIMUPT
 70
     0
  9
$DIMDEC
 70
     2
  9
$DIMTDEC
 70
     2
  9
$DIMALTU
 70
     2
  9
$DIMALTTD
 70
     2
  9
$DIMTXSTY
  7
Standard
  9
$DIMAUNIT
 70
     0
  9
$DIMADEC
 70
     2
  9
$DIMALTRND
 40
0.0
  9
$DIMAZIN
 70
     0
  9
$DIMDSEP
 70
    46
  9
$DIMATFIT
 70
     3
  9
$DIMFRAC
 70
     0
  9
$DIMLDRBLK
  1

  9
$DIMLUNIT
 70
     2
  9
$DIMLWD
 70
    -2
  9
$DIMLWE
 70
    -2
  9
$DIMTMOVE
 70
     0
  9
$LUNITS
 70
     2
  9
$LUPREC
 70
     2
  9
$SKETCHINC
 40
0.1
  9
$FILLETRAD
 40
0.0
  9
$AUNITS
 70
     0
  9
$AUPREC
 70
     2
  9
$MENU
  1
.
  9
$ELEVATION
 40
0.0
  9
$PELEVATION
 40
0.0
  9
$THICKNESS
 40
0.0
  9
$LIMCHECK
 70
     0
  9
$CHAMFERA
 40
0.0
  9
$CHAMFERB
 40
0.0
  9
$CHAMFERC
 40
0.0
  9
$CHAMFERD
 40
0.0
  9
$SKPOLY
 70
     0
  9
$TDCREATE
 40
2460632.8368186
  9
$TDUCREATE
 40
2460633.170151933
  9
$TDUPDATE
 40
2460632.836851655
  9
$TDUUPDATE
 40
2460633.170184989
  9
$TDINDWG
 40
0.0000000116
  9
$TDUSRTIMER
 40
0.0000000116
  9
$USRTIMER
 70
     1
  9
$ANGBASE
 50
0.0
  9
$ANGDIR
 70
     0
  9
$PDMODE
 70
     0
  9
$PDSIZE
 40
-1.0
  9
$PLINEWID
 40
0.0
  9
$SPLFRAME
 70
     0
  9
$SPLINETYPE
 70
     6
  9
$SPLINESEGS
 70
     8
  9
$HANDSEED
  5
75
  9
$SURFTAB1
 70
     6
  9
$SURFTAB2
 70
     6
  9
$SURFTYPE
 70
     6
  9
$SURFU
 70
     6
  9
$SURFV
 70
     6
  9
$UCSBASE
  2

  9
$UCSNAME
  2

  9
$UCSORG
 10
0.0
 20
0.0
 30
0.0
  9
$UCSXDIR
 10
1.0
 20
0.0
 30
0.0
  9
$UCSYDIR
 10
0.0
 20
1.0
 30
0.0
  9
$UCSORTHOREF
  2

  9
$UCSORTHOVIEW
 70
     0
  9
$UCSORGTOP
 10
0.0
 20
0.0
 30
0.0
  9
$UCSORGBOTTOM
 10
0.0
 20
0.0
 30
0.0
  9
$UCSORGLEFT
 10
0.0
 20
0.0
 30
0.0
  9
$UCSORGRIGHT
 10
0.0
 20
0.0
 30
0.0
  9
$UCSORGFRONT
 10
0.0
 20
0.0
 30
0.0
  9
$UCSORGBACK
 10
0.0
 20
0.0
 30
0.0
  9
$PUCSBASE
  2

  9
$PUCSNAME
  2

  9
$PUCSORG
 10
0.0
 20
0.0
 30
0.0
  9
$PUCSXDIR
 10
1.0
 20
0.0
 30
0.0
  9
$PUCSYDIR
 10
0.0
 20
1.0
 30
0.0
  9
$PUCSORTHOREF
  2

  9
$PUCSORTHOVIEW
 70
     0
  9
$PUCSORGTOP
 10
0.0
 20
0.0
 30
0.0
  9
$PUCSORGBOTTOM
 10
0.0
 20
0.0
 30
0.0
  9
$PUCSORGLEFT
 10
0.0
 20
0.0
 30
0.0
  9
$PUCSORGRIGHT
 10
0.0
 20
0.0
 30
0.0
  9
$PUCSORGFRONT
 10
0.0
 20
0.0
 30
0.0
  9
$PUCSORGBACK
 10
0.0
 20
0.0
 30
0.0
  9
$USERI1
 70
     0
  9
$USERI2
 70
     0
  9
$USERI3
 70
     0
  9
$USERI4
 70
     0
  9
$USERI5
 70
     0
  9
$USERR1
 40
0.0
  9
$USERR2
 40
0.0
  9
$USERR3
 40
0.0
  9
$USERR4
 40
0.0
  9
$USERR5
 40
0.0
  9
$WORLDVIEW
 70
     1
  9
$SHADEDGE
 70
     3
  9
$SHADEDIF
 70
    70
  9
$TILEMODE
 70
     1
  9
$MAXACTVP
 70
    64
  9
$PINSBASE
 10
0.0
 20
0.0
 30
0.0
  9
$PLIMCHECK
 70
     0
  9
$PEXTMIN
 10
1.0000000000E+20
 20
1.0000000000E+20
 30
1.0000000000E+20
  9
$PEXTMAX
 10
-1.0000000000E+20
 20
-1.0000000000E+20
 30
-1.0000000000E+20
  9
$PLIMMIN
 10
0.0
 20
0.0
  9
$PLIMMAX
 10
12.0
 20
9.0
  9
$UNITMODE
 70
     0
  9
$VISRETAIN
 70
     1
  9
$PLINEGEN
 70
     0
  9
$PSLTSCALE
 70
     1
  9
$TREEDEPTH
 70
  3020
  9
$CMLSTYLE
  2
Standard
  9
$CMLJUST
 70
     0
  9
$CMLSCALE
 40
1.0
  9
$PROXYGRAPHICS
 70
     1
  9
$MEASUREMENT
 70
     0
  9
$CELWEIGHT
370
    -1
  9
$ENDCAPS
280
     0
  9
$JOINSTYLE
280
     0
  9
$LWDISPLAY
290
     1
  9
$INSUNITS
 70
     1
  9
$HYPERLINKBASE
  1

  9
$STYLESHEET
  1

  9
$XEDIT
290
     1
  9
$CEPSNTYPE
380
     0
  9
$PSTYLEMODE
290
     1
  9
$FINGERPRINTGUID
  2
{c9fe6032-0689-4da0-a20a-22193d942876}
  9
$VERSIONGUID
  2
{FAEB1C32-E019-11D5-929B-00C0DF256EC4}
  9
$EXTNAMES
290
     1
  9
$PSVPSCALE
 40
0.0
  9
$OLESTARTUP
290
     0
  0
ENDSEC
  0
SECTION
  2
CLASSES
  0
CLASS
  1
ACDBDICTIONARYWDFLT
  2
AcDbDictionaryWithDefault
  3
ObjectDBX Classes
 90
        0
280
     0
281
     0
  0
CLASS
  1
VISUALSTYLE
  2
AcDbVisualStyle
  3
ObjectDBX Classes
 90
     4095
280
     0
281
     0
  0
CLASS
  1
MATERIAL
  2
AcDbMaterial
  3
ObjectDBX Classes
 90
     1153
280
     0
281
     0
  0
CLASS
  1
SCALE
  2
AcDbScale
  3
ObjectDBX Classes
 90
     1153
280
     0
281
     0
  0
CLASS
  1
TABLESTYLE
  2
AcDbTableStyle
  3
ObjectDBX Classes
 90
     4095
280
     0
281
     0
  0
CLASS
  1
MLEADERSTYLE
  2
AcDbMLeaderStyle
  3
ACDB_MLEADERSTYLE_CLASS
 90
     4095
280
     0
281
     0
  0
CLASS
  1
SUN
  2
AcDbSun
  3
SCENEOE
 90
     1153
280
     0
281
     0
  0
CLASS
  1
ACDBPLACEHOLDER
  2
AcDbPlaceHolder
  3
ObjectDBX Classes
 90
        0
280
     0
281
     0
  0
CLASS
  1
LAYOUT
  2
AcDbLayout
  3
ObjectDBX Classes
 90
        0
280
     0
281
     0
  0
ENDSEC
  0
SECTION
  2
TABLES
  0
TABLE
  2
VPORT
  5
8
330
0
100
AcDbSymbolTable
 70
     1
  0
VPORT
  5
29
330
8
100
AcDbSymbolTableRecord
100
AcDbViewportTableRecord
  2
*Active
 70
     0
 10
0.0
 20
0.0
 11
1.0
 21
1.0
 12
5.125
 22
-4.8689163214
 13
0.0
 23
0.0
 14
0.5
 24
0.5
 15
0.5
 25
0.5
 16
0.0
 26
0.0
 36
1.0
 17
0.0
 27
0.0
 37
0.0
 40
3.0473106918
 41
4.4630694575
 42
50.0
 43
0.0
 44
0.0
 50
0.0
 51
0.0
 71
     0
 72
   100
 73
     1
 74
     3
 75
     0
 76
     0
 77
     0
 78
     0
281
     0
 65
     1
110
0.0
120
0.0
130
0.0
111
1.0
121
0.0
131
0.0
112
0.0
122
1.0
132
0.0
 79
     0
146
0.0
  0
ENDTAB
  0
TABLE
  2
LTYPE
  5
5
330
0
100
AcDbSymbolTable
 70
     6
  0
LTYPE
  5
14
330
5
100
AcDbSymbolTableRecord
100
AcDbLinetypeTableRecord
  2
ByBlock
 70
     0
  3

 72
    65
 73
     0
 40
0.0
  0
LTYPE
  5
15
330
5
100
AcDbSymbolTableRecord
100
AcDbLinetypeTableRecord
  2
ByLayer
 70
     0
  3

 72
    65
 73
     0
 40
0.0
  0
LTYPE
  5
16
330
5
100
AcDbSymbolTableRecord
100
AcDbLinetypeTableRecord
  2
Continuous
 70
     0
  3
Solid line
 72
    65
 73
     0
 40
0.0
  0
LTYPE
  5
5E
330
5
100
AcDbSymbolTableRecord
100
AcDbLinetypeTableRecord
  2
HIDDEN
 70
     0
  3
Hidden __ __ __ __ __ __ __ __ __ __ __ __ __ __
 72
    65
 73
     2
 40
0.075
 49
0.05
 74
     0
 49
-0.025
 74
     0
  0
LTYPE
  5
5F
330
5
100
AcDbSymbolTableRecord
100
AcDbLinetypeTableRecord
  2
PHANTOM
 70
     0
  3
Phantom ______  __  __  ______  __  __  ______
 72
    65
 73
     6
 40
0.5
 49
0.25
 74
     0
 49
-0.05
 74
     0
 49
0.05
 74
     0
 49
-0.05
 74
     0
 49
0.05
 74
     0
 49
-0.05
 74
     0
  0
LTYPE
  5
60
330
5
100
AcDbSymbolTableRecord
100
AcDbLinetypeTableRecord
  2
CENTER
 70
     0
  3
Center ____ _ ____ _ ____ _ ____ _ ____ _ ____
 72
    65
 73
     4
 40
0.4
 49
0.25
 74
     0
 49
-0.05
 74
     0
 49
0.05
 74
     0
 49
-0.05
 74
     0
  0
LTYPE
  5
61
330
5
100
AcDbSymbolTableRecord
100
AcDbLinetypeTableRecord
  2
CENTERX2
 70
     0
  3
Center (2x) ________  __  ________  __  _____
 72
    65
 73
     4
 40
0.8
 49
0.5
 74
     0
 49
-0.1
 74
     0
 49
0.1
 74
     0
 49
-0.1
 74
     0
  0
LTYPE
  5
62
330
5
100
AcDbSymbolTableRecord
100
AcDbLinetypeTableRecord
  2
DOT2
 70
     0
  3
Dot (.5x) ........................................
 72
    65
 73
     2
 40
0.025
 49
0.0
 74
     0
 49
-0.025
 74
     0
  0
ENDTAB
  0
TABLE
  2
LAYER
  5
2
330
0
100
AcDbSymbolTable
 70
     1
  0
LAYER
  5
10
330
2
100
AcDbSymbolTableRecord
100
AcDbLayerTableRecord
  2
0
 70
     0
 62
     7
  6
Continuous
370
    -3
390
F
  0
ENDTAB
  0
TABLE
  2
STYLE
  5
3
330
0
100
AcDbSymbolTable
 70
     2
  0
STYLE
  5
11
330
3
100
AcDbSymbolTableRecord
100
AcDbTextStyleTableRecord
  2
Standard
 70
     0
 40
0.0
 41
1.0
 50
0.0
 71
     0
 42
0.1377952756
  3
txt
  4

  0
STYLE
  5
71
330
3
100
AcDbSymbolTableRecord
100
AcDbTextStyleTableRecord
  2
SLDTEXTSTYLE0
 70
     0
 40
0.0
 41
0.7
 50
0.0
 71
     0
 42
0.1377952756
  3
TXT
  4

  0
ENDTAB
  0
TABLE
  2
VIEW
  5
6
330
0
100
AcDbSymbolTable
 70
     0
  0
ENDTAB
  0
TABLE
  2
UCS
  5
7
330
0
100
AcDbSymbolTable
 70
     0
  0
ENDTAB
  0
TABLE
  2
APPID
  5
9
330
0
100
AcDbSymbolTable
 70
     1
  0
APPID
  5
12
330
9
100
AcDbSymbolTableRecord
100
AcDbRegAppTableRecord
  2
ACAD
 70
     0
  0
ENDTAB
  0
TABLE
  2
DIMSTYLE
  5
A
330
0
100
AcDbSymbolTable
 70
     1
100
AcDbDimStyleTable
  0
DIMSTYLE
105
27
330
A
100
AcDbSymbolTableRecord
100
AcDbDimStyleTableRecord
  2
Standard
 70
     0
178
     0
340
11
  0
ENDTAB
  0
TABLE
  2
BLOCK_RECORD
  5
1
330
0
100
AcDbSymbolTable
 70
     1
  0
BLOCK_RECORD
  5
1F
330
1
100
AcDbSymbolTableRecord
100
AcDbBlockTableRecord
  2
*Model_Space
340
22
  0
BLOCK_RECORD
  5
1B
330
1
100
AcDbSymbolTableRecord
100
AcDbBlockTableRecord
  2
*Paper_Space
340
1E
  0
BLOCK_RECORD
  5
23
330
1
100
AcDbSymbolTableRecord
100
AcDbBlockTableRecord
  2
*Paper_Space0
340
26
  0
ENDTAB
  0
ENDSEC
  0
SECTION
  2
BLOCKS
  0
BLOCK
  5
20
330
1F
100
AcDbEntity
  8
0
100
AcDbBlockBegin
  2
*Model_Space
 70
     0
 10
0.0
 20
0.0
 30
0.0
  3
*Model_Space
  1

  0
ENDBLK
  5
21
330
1F
100
AcDbEntity
  8
0
100
AcDbBlockEnd
  0
BLOCK
  5
1C
330
1B
100
AcDbEntity
 67
     1
  8
0
100
AcDbBlockBegin
  2
*Paper_Space
 70
     0
 10
0.0
 20
0.0
 30
0.0
  3
*Paper_Space
  1

  0
ENDBLK
  5
1D
330
1B
100
AcDbEntity
 67
     1
  8
0
100
AcDbBlockEnd
  0
BLOCK
  5
24
330
23
100
AcDbEntity
  8
0
100
AcDbBlockBegin
  2
*Paper_Space0
 70
     0
 10
0.0
 20
0.0
 30
0.0
  3
*Paper_Space0
  1

  0
ENDBLK
  5
25
330
23
100
AcDbEntity
  8
0
100
AcDbBlockEnd
  0
ENDSEC
  0
SECTION
  2
ENTITIES
  0
SPLINE
  5
63
330
1F
100
AcDbEntity
  8
0
  6
Continuous
 62
     7
370
    25
100
AcDbSpline
210
0.0
220
0.0
230
1.0
 70
     8
 71
     3
 72
    30
 73
    26
 74
     0
 42
0.00000001
 43
0.00000001
 40
0.0
 40
0.0
 40
0.0
 40
0.0
 40
0.0307562352584834
 40
0.0602177750570867
 40
0.0883898941395508
 40
0.1152786260946059
 40
0.1408909115249879
 40
0.1652347828285908
 40
0.1883195964814617
 40
0.2101563274408236
 40
0.2307579454078114
 40
0.2501398997206821
 40
0.3065809849597648
 40
0.3590983692393786
 40
0.4083291875621347
 40
0.4550452401183158
 40
0.5001476118151992
 40
0.576186008651651
 40
0.6582354132690964
 40
0.7498786641046772
 40
0.789962863886402
 40
0.8349343434882895
 40
0.8848878980674086
 40
0.9398925704567633
 40
0.9999999999999999
 40
0.9999999999999999
 40
0.9999999999999999
 40
0.9999999999999999
 10
11.67688588370115
 20
-4.575342740723655
 30
0.0
 10
11.66861880947867
 20
-4.567520271929367
 30
0.0
 10
11.65243266667785
 20
-4.552204624149764
 30
0.0
 10
11.62903269302861
 20
-4.529349303817464
 30
0.0
 10
11.60694577855437
 20
-4.507202333407439
 30
0.0
 10
11.58619419829823
 20
-4.485739819395596
 30
0.0
 10
11.56677211799697
 20
-4.46496772306935
 30
0.0
 10
11.54868088968138
 20
-4.44488439872613
 30
0.0
 10
11.53191934116166
 20
-4.425490449583238
 30
0.0
 10
11.51648921448813
 20
-4.406784519692791
 30
0.0
 10
11.50238341187502
 20
-4.388770266253812
 30
0.0
 10
11.48123163602157
 20
-4.360030709653806
 30
0.0
 10
11.45535247330143
 20
-4.320114831989107
 30
0.0
 10
11.4285903791954
 20
-4.267925344661434
 30
0.0
 10
11.40939854827604
 20
-4.216294064159447
 30
0.0
 10
11.3978223024748
 20
-4.165222572993511
 30
0.0
 10
11.39300917989545
 20
-4.103073769835757
 30
0.0
 10
11.4029141492867
 20
-4.027699036222733
 30
0.0
 10
11.43596711320827
 20
-3.940708925438953
 30
0.0
 10
11.47749200747343
 20
-3.872910746887404
 30
0.0
 10
11.51719346985825
 20
-3.820938328278765
 30
0.0
 10
11.54954166225655
 20
-3.782836266717408
 30
0.0
 10
11.58713718952686
 20
-3.742022941556263
 30
0.0
 10
11.62993491756881
 20
-3.698423377553819
 30
0.0
 10
11.66077978113846
 20
-3.669041840881242
 30
0.0
 10
11.67688586757644
 20
-3.653699851500723
 30
0.0
  0
SPLINE
  5
64
330
1F
100
AcDbEntity
  8
0
  6
Continuous
 62
     7
370
    25
100
AcDbSpline
210
0.0
220
0.0
230
1.0
 70
     8
 71
     3
 72
    26
 73
    22
 74
     0
 42
0.00000001
 43
0.00000001
 40
0.0
 40
0.0
 40
0.0
 40
0.0
 40
0.0428917045574052
 40
0.0833799505820995
 40
0.1214716916246373
 40
0.1571752814767269
 40
0.1905008699063431
 40
0.2214609455395354
 40
0.2500710948824736
 40
0.3388865921907219
 40
0.4219522269212094
 40
0.5000687416941865
 40
0.5837288970783937
 40
0.6665069676626186
 40
0.7500098888759524
 40
0.7870377838960174
 40
0.8257799627229032
 40
0.8663525531010546
 40
0.90885668253378
 40
0.9533803190291954
 40
1.0
 40
1.0
 40
1.0
 40
1.0
 10
11.79184278243698
 20
-5.322256400294274
 30
0.0
 10
11.78502399254482
 20
-5.312885856217409
 30
0.0
 10
11.7717685071286
 20
-5.294669851278489
 30
0.0
 10
11.75286108967006
 20
-5.26784166146541
 30
0.0
 10
11.7354045994121
 20
-5.242370579468154
 30
0.0
 10
11.71942222917109
 20
-5.218239110664881
 30
0.0
 10
11.70490993142403
 20
-5.195450428857742
 30
0.0
 10
11.69186070018292
 20
-5.174006978514562
 30
0.0
 10
11.67187796247141
 20
-5.139247721611426
 30
0.0
 10
11.64738208782399
 20
-5.09084925791562
 30
0.0
 10
11.62243305310165
 20
-5.027968359171257
 30
0.0
 10
11.60453273413745
 20
-4.964142094416825
 30
0.0
 10
11.59481709755859
 20
-4.898567569247452
 30
0.0
 10
11.59437926163889
 20
-4.830822585438249
 30
0.0
 10
11.60167870941939
 20
-4.776183824197123
 30
0.0
 10
11.61155318949925
 20
-4.734278907618759
 30
0.0
 10
11.6205320423079
 20
-4.704136480122187
 30
0.0
 10
11.63155283685019
 20
-4.673108001175666
 30
0.0
 10
11.6446489617981
 20
-4.641205234408876
 30
0.0
 10
11.65971972952527
 20
-4.608374887959932
 30
0.0
 10
11.67107676571321
 20
-4.586520989139166
 30
0.0
 10
11.67688587403376
 20
-4.575342750083188
 30
0.0
  0
SPLINE
  5
65
330
1F
100
AcDbEntity
  8
0
  6
Continuous
 62
     7
370
    25
100
AcDbSpline
210
0.0
220
0.0
230
1.0
 70
     8
 71
     3
 72
    30
 73
    26
 74
     0
 42
0.00000001
 43
0.00000001
 40
0.0
 40
0.0
 40
0.0
 40
0.0
 40
0.0371706001439666
 40
0.0737250887153692
 40
0.1096769399562487
 40
0.1450403169704752
 40
0.1798301015821841
 40
0.2140619237084274
 40
0.2477521898414063
 40
0.2809181101725853
 40
0.313577723826026
 40
0.3457499216036819
 40
0.3774544655835602
 40
0.4087120048560976
 40
0.4395440866387355
 40
0.4699731619780038
 40
0.5000225852375187
 40
0.5565103333142288
 40
0.6144508121951113
 40
0.6739900063481306
 40
0.7352624742689944
 40
0.7983916921250174
 40
0.8634905715807348
 40
0.9306620923536338
 40
1.0
 40
1.0
 40
1.0
 40
1.0
 10
11.79184278022637
 20
-5.894440811382764
 30
0.0
 10
11.78938211286442
 20
-5.887606545556965
 30
0.0
 10
11.78450156428957
 20
-5.874051293493236
 30
0.0
 10
11.77772103721396
 20
-5.853718038581565
 30
0.0
 10
11.77141809349087
 20
-5.833602360200915
 30
0.0
 10
11.76562534801944
 20
-5.813692301976666
 30
0.0
 10
11.76033429765105
 20
-5.793990969071724
 30
0.0
 10
11.75554718926759
 20
-5.774497530636419
 30
0.0
 10
11.75126346269665
 20
-5.755212185789425
 30
0.0
 10
11.74748329528052
 20
-5.736134865714573
 30
0.0
 10
11.74420667455393
 20
-5.717265573885696
 30
0.0
 10
11.74143364258647
 20
-5.698604296573367
 30
0.0
 10
11.73916422555474
 20
-5.680151030818681
 30
0.0
 10
11.73739847539422
 20
-5.661905763456641
 30
0.0
 10
11.73613637306988
 20
-5.643868529652428
 30
0.0
 10
11.73537816619033
 20
-5.626039206819569
 30
0.0
 10
11.73504735578645
 20
-5.6031824114067
 30
0.0
 10
11.73582004088497
 20
-5.574946026177246
 30
0.0
 10
11.73850137247902
 20
-5.541042931657295
 30
0.0
 10
11.74295398858892
 20
-5.506384337138261
 30
0.0
 10
11.74917930626325
 20
-5.47097150053639
 30
0.0
 10
11.75716938180563
 20
-5.434801367466617
 30
0.0
 10
11.766951507435
 20
-5.397883859085172
 30
0.0
 10
11.77841635730778
 20
-5.36017874754354
 30
0.0
 10
11.78732019761403
 20
-5.335030223201301
 30
0.0
 10
11.79184276916093
 20
-5.322256409125037
 30
0.0
  0
SPLINE
  5
66
330
1F
100
AcDbEntity
  8
0
  6
Continuous
 62
     7
370
    25
100
AcDbSpline
210
0.0
220
0.0
230
1.0
 70
     8
 71
     3
 72
    29
 73
    25
 74
     0
 42
0.00000001
 43
0.00000001
 40
0.0
 40
0.0
 40
0.0
 40
0.0
 40
0.0286903770037433
 40
0.057366536757543
 40
0.0860496352901085
 40
0.1147608132914883
 40
0.1435211495311758
 40
0.1723516149559242
 40
0.2012730279606481
 40
0.2303060112962788
 40
0.2594709510380147
 40
0.2887879579880054
 40
0.3182768318299678
 40
0.3479570282919763
 40
0.3778476295099943
 40
0.4079673177208676
 40
0.4383343523515461
 40
0.4689665505128942
 40
0.4998812708533121
 40
0.5801788679142703
 40
0.6701899420121706
 40
0.770085691037422
 40
0.8799911309980486
 40
1.0
 40
1.0
 40
1.0
 40
1.0
 10
11.59505764290179
 20
-6.362696072327716
 30
0.0
 10
11.59511876001055
 20
-6.357749300627414
 30
0.0
 10
11.59524096394208
 20
-6.347858208553597
 30
0.0
 10
11.59593487717749
 20
-6.333034841255769
 30
0.0
 10
11.59700265723242
 20
-6.31823147327517
 30
0.0
 10
11.59848090182118
 20
-6.303448293293167
 30
0.0
 10
11.60035979068779
 20
-6.288685280502756
 30
0.0
 10
11.60264195002308
 20
-6.273942469193623
 30
0.0
 10
11.60532666120773
 20
-6.25921987736999
 30
0.0
 10
11.60841410208229
 20
-6.244517525596668
 30
0.0
 10
11.61190420673551
 20
-6.229835431526633
 30
0.0
 10
11.61579697359756
 20
-6.215173611524543
 30
0.0
 10
11.62009237953759
 20
-6.200532078568856
 30
0.0
 10
11.62479041569752
 20
-6.185910848272885
 30
0.0
 10
11.62989103189564
 20
-6.171309916199777
 30
0.0
 10
11.63539432670577
 20
-6.156729343237262
 30
0.0
 10
11.64129983682449
 20
-6.142168933364871
 30
0.0
 10
11.6476092221896
 20
-6.127629451610946
 30
0.0
 10
11.65786498918136
 20
-6.105424165226144
 30
0.0
 10
11.67378552030017
 20
-6.074575158486723
 30
0.0
 10
11.69711870635314
 20
-6.034234764389712
 30
0.0
 10
11.72472125348181
 20
-5.990515508153994
 30
0.0
 10
11.75652141484606
 20
-5.943359235870187
 30
0.0
 10
11.77972903238695
 20
-5.911217768498865
 30
0.0
 10
11.79184276269751
 20
-5.894440817274298
 30
0.0
  0
SPLINE
  5
68
330
1F
100
AcDbEntity
  8
0
  6
Continuous
 62
     7
370
    25
100
AcDbSpline
210
0.0
220
0.0
230
1.0
 70
     8
 71
     3
 72
    25
 73
    21
 74
     0
 42
0.00000001
 43
0.00000001
 40
0.0
 40
0.0
 40
0.0
 40
0.0
 40
0.067799048069411
 40
0.1325002108015033
 40
0.1941170588445579
 40
0.2526653075864773
 40
0.3081632792867082
 40
0.3606324917740569
 40
0.4100984155939413
 40
0.4565914574795415
 40
0.5001482506616163
 40
0.558388210951445
 40
0.6156539254896308
 40
0.6720661925746372
 40
0.7277513649535072
 40
0.7828407985787712
 40
0.8374701469231638
 40
0.8917785112237676
 40
0.9459074673801022
 40
1.0
 40
1.0
 40
1.0
 40
1.0
 10
-1.541842782441989
 20
-5.89444079042231
 30
0.0
 10
-1.534970019188067
 20
-5.903897255630802
 30
0.0
 10
-1.521538524117499
 20
-5.922378099672738
 30
0.0
 10
-1.502324818186583
 20
-5.949785648524287
 30
0.0
 10
-1.484401521930191
 20
-5.976145316370862
 30
0.0
 10
-1.467797144702037
 20
-6.001478230625494
 30
0.0
 10
-1.45250437615513
 20
-6.025779297325826
 30
0.0
 10
-1.438524400672406
 20
-6.049049832700988
 30
0.0
 10
-1.42585742280854
 20
-6.071290201968421
 30
0.0
 10
-1.414499738344482
 20
-6.092499226210402
 30
0.0
 10
-1.403112791889622
 20
-6.115396416256507
 30
0.0
 10
-1.391868212585373
 20
-6.140421646913969
 30
0.0
 10
-1.380937791146552
 20
-6.167985925653908
 30
0.0
 10
-1.371451665599591
 20
-6.195615593367885
 30
0.0
 10
-1.363405798332682
 20
-6.223308405763151
 30
0.0
 10
-1.356804232309068
 20
-6.251064630466463
 30
0.0
 10
-1.351637506773764
 20
-6.278883709030254
 30
0.0
 10
-1.347941463541394
 20
-6.306765351573259
 30
0.0
 10
-1.34558483056635
 20
-6.334708502954733
 30
0.0
 10
-1.345233332689401
 20
-6.353368976022436
 30
0.0
 10
-1.345057642901821
 20
-6.362696072327719
 30
0.0
  0
SPLINE
  5
69
330
1F
100
AcDbEntity
  8
0
  6
Continuous
 62
     7
370
    25
100
AcDbSpline
210
0.0
220
0.0
230
1.0
 70
     8
 71
     3
 72
    30
 73
    26
 74
     0
 42
0.00000001
 43
0.00000001
 40
0.0
 40
0.0
 40
0.0
 40
0.0
 40
0.0371706001992347
 40
0.0737250888183786
 40
0.1096769400993561
 40
0.1450403171459303
 40
0.1798301017821333
 40
0.2140619239249145
 40
0.2477521900663843
 40
0.2809181103979181
 40
0.3135777240434977
 40
0.3457499218050114
 40
0.3774544657604088
 40
0.4087120050000875
 40
0.4395440867414619
 40
0.4699731620310579
 40
0.5000225852325029
 40
0.5565103332979517
 40
0.6144508121710442
 40
0.6739900063197323
 40
0.7352624742396882
 40
0.7983916920981666
 40
0.8634905715596409
 40
0.9306620923415195
 40
0.9999999999999999
 40
0.9999999999999999
 40
0.9999999999999999
 40
0.9999999999999999
 10
-1.541842780217942
 20
-5.322256379365727
 30
0.0
 10
-1.539382112856452
 20
-5.329090645202573
 30
0.0
 10
-1.534501564282956
 20
-5.342645897286999
 30
0.0
 10
-1.527721037208255
 20
-5.362979152226702
 30
0.0
 10
-1.521418093486137
 20
-5.383094830630551
 30
0.0
 10
-1.515625348015555
 20
-5.403004888873099
 30
0.0
 10
-1.510334297647936
 20
-5.422706221791463
 30
0.0
 10
-1.505547189265165
 20
-5.4421996602353
 30
0.0
 10
-1.501263462694838
 20
-5.461485005085944
 30
0.0
 10
-1.497483295279236
 20
-5.480562325159557
 30
0.0
 10
-1.494206674553087
 20
-5.499431616982321
 30
0.0
 10
-1.491433642585996
 20
-5.518092894283649
 30
0.0
 10
-1.489164225554548
 20
-5.536546160022456
 30
0.0
 10
-1.487398475394237
 20
-5.554791427363733
 30
0.0
 10
-1.486136373070031
 20
-5.572828661142315
 30
0.0
 10
-1.485378166190448
 20
-5.59065798394465
 30
0.0
 10
-1.485047355786548
 20
-5.613514779332514
 30
0.0
 10
-1.485820040885201
 20
-5.641751164544711
 30
0.0
 10
-1.488501372478935
 20
-5.675654259057468
 30
0.0
 10
-1.492953988588509
 20
-5.710312853571261
 30
0.0
 10
-1.499179306262314
 20
-5.745725690169854
 30
0.0
 10
-1.507169381804003
 20
-5.78189582323831
 30
0.0
 10
-1.516951507432511
 20
-5.818813331620409
 30
0.0
 10
-1.528416357304308
 20
-5.856518443164641
 30
0.0
 10
-1.537320197609506
 20
-5.881666967509442
 30
0.0
 10
-1.541842769155963
 20
-5.894440781587261
 30
0.0
  0
SPLINE
  5
6A
330
1F
100
AcDbEntity
  8
0
  6
Continuous
 62
     7
370
    25
100
AcDbSpline
210
0.0
220
0.0
230
1.0
 70
     8
 71
     3
 72
    39
 73
    35
 74
     0
 42
0.00000001
 43
0.00000001
 40
0.0
 40
0.0
 40
0.0
 40
0.0
 40
0.0237994008088709
 40
0.0472262805463791
 40
0.0702930028436847
 40
0.0930125193169141
 40
0.1153983842308429
 40
0.137464766694741
 40
0.159226459875012
 40
0.18069888668319
 40
0.2018981013838293
 40
0.2228407865685434
 40
0.2435442449631992
 40
0.2640263855784633
 40
0.2843057037819586
 40
0.304401254964864
 40
0.3243326215969325
 40
0.3441198736100354
 40
0.3637835222177879
 40
0.3833444674617995
 40
0.4028239399659588
 40
0.4222434375694596
 40
0.4416246576867636
 40
0.4609894263977347
 40
0.4803596253939863
 40
0.4997571179899478
 40
0.5579763536256044
 40
0.6188346242379981
 40
0.6826945356587826
 40
0.7498701037785761
 40
0.80090512262635
 40
0.859565591755459
 40
0.9259157946068897
 40
1.0
 40
1.0
 40
1.0
 40
1.0
 10
-1.426885874028034
 20
-4.575342750077492
 30
0.0
 10
-1.423873517834567
 20
-4.581022049004533
 30
0.0
 10
-1.417895956473219
 20
-4.59229175140541
 30
0.0
 10
-1.409478489329832
 20
-4.609313567245828
 30
0.0
 10
-1.401557816703702
 20
-4.62624951169352
 30
0.0
 10
-1.394166499767704
 20
-4.643117134498116
 30
0.0
 10
-1.387296047525153
 20
-4.659911859990939
 30
0.0
 10
-1.380948722724497
 20
-4.676634903681796
 30
0.0
 10
-1.375123974572348
 20
-4.693285960607305
 30
0.0
 10
-1.369821993546993
 20
-4.709865120442943
 30
0.0
 10
-1.36504277903542
 20
-4.726372364616894
 30
0.0
 10
-1.360786383469341
 20
-4.742807697490182
 30
0.0
 10
-1.357052847566397
 20
-4.759171111187858
 30
0.0
 10
-1.353842216524663
 20
-4.775462594189867
 30
0.0
 10
-1.351154534758199
 20
-4.791682128540561
 30
0.0
 10
-1.348989846179869
 20
-4.807829690197939
 30
0.0
 10
-1.347348192707298
 20
-4.823905248812545
 30
0.0
 10
-1.346229613865706
 20
-4.839908767695046
 30
0.0
 10
-1.34563414344408
 20
-4.855840204743044
 30
0.0
 10
-1.345561816669375
 20
-4.871699510654603
 30
0.0
 10
-1.34601263873714
 20
-4.887486638298592
 30
0.0
 10
-1.346986697114165
 20
-4.903201511722049
 30
0.0
 10
-1.348483740433072
 20
-4.918844146049931
 30
0.0
 10
-1.35050474329292
 20
-4.934414206642094
 30
0.0
 10
-1.353046069595907
 20
-4.949912659002609
 30
0.0
 10
-1.35816946385874
 20
-4.975607826096497
 30
0.0
 10
-1.367737868396651
 20
-5.011819746737967
 30
0.0
 10
-1.384154041892157
 20
-5.058475811771144
 30
0.0
 10
-1.404945405947762
 20
-5.106000826160677
 30
0.0
 10
-1.427566443025265
 20
-5.149709064777594
 30
0.0
 10
-1.451865172547046
 20
-5.190859212592153
 30
0.0
 10
-1.477596182570209
 20
-5.230857287183714
 30
0.0
 10
-1.507898848037931
 20
-5.27529312072266
 30
0.0
 10
-1.530120199793083
 20
-5.306037569882344
 30
0.0
 10
-1.541842762718506
 20
-5.322256373484078
 30
0.0
  0
SPLINE
  5
6B
330
1F
100
AcDbEntity
  8
0
  6
Continuous
 62
     7
370
    25
100
AcDbSpline
210
0.0
220
0.0
230
1.0
 70
     8
 71
     3
 72
    30
 73
    26
 74
     0
 42
0.00000001
 43
0.00000001
 40
0.0
 40
0.0
 40
0.0
 40
0.0
 40
0.0307562354741406
 40
0.0602177754394657
 40
0.0883898946398991
 40
0.1152786266643984
 40
0.1408909121160041
 40
0.1652347833929974
 40
0.1883195969719351
 40
0.2101563278107051
 40
0.2307579456113205
 40
0.2501398997132052
 40
0.3065809848569601
 40
0.3590983690249996
 40
0.4083291872776998
 40
0.4550452398735178
 40
0.5001476117930531
 40
0.5761860080303904
 40
0.6582354127019812
 40
0.7498786641028126
 40
0.7899628633445562
 40
0.8349343426901135
 40
0.8848878972817464
 40
0.9398925699404064
 40
1.0
 40
1.0
 40
1.0
 40
1.0
 10
-1.426885883702188
 20
-3.653699836437188
 30
0.0
 10
-1.418618809265944
 20
-3.661522305450527
 30
0.0
 10
-1.402432666057305
 20
-3.676837953648874
 30
0.0
 10
-1.379032691839702
 20
-3.699693274593955
 30
0.0
 10
-1.356945776866783
 20
-3.721840245569032
 30
0.0
 10
-1.336194196182441
 20
-3.743302760098988
 30
0.0
 10
-1.316772115523203
 20
-3.76407485689621
 30
0.0
 10
-1.298680886919916
 20
-3.784158181663354
 30
0.0
 10
-1.28191933818263
 20
-3.803552131183042
 30
0.0
 10
-1.266489211361951
 20
-3.822258061403396
 30
0.0
 10
-1.252383408670913
 20
-3.840272315124767
 30
0.0
 10
-1.231231632683192
 20
-3.869011872288929
 30
0.0
 10
-1.205352469891795
 20
-3.908927750857569
 30
0.0
 10
-1.17859037601169
 20
-3.961117239506441
 30
0.0
 10
-1.159398545719281
 20
-4.012748521366669
 30
0.0
 10
-1.147822300952009
 20
-4.063820013920575
 30
0.0
 10
-1.143009180194924
 20
-4.125968818353378
 30
0.0
 10
-1.152914152323659
 20
-4.201343553001143
 30
0.0
 10
-1.185967119532456
 20
-4.28833366448506
 30
0.0
 10
-1.227492016299014
 20
-4.356131843360314
 30
0.0
 10
-1.26719348047837
 20
-4.40810426212127
 30
0.0
 10
-1.299541673971841
 20
-4.446206323670232
 30
0.0
 10
-1.337137202541087
 20
-4.487019649143454
 30
0.0
 10
-1.379934932094316
 20
-4.530619213772975
 30
0.0
 10
-1.410779796691969
 20
-4.560000751013705
 30
0.0
 10
-1.426885883695166
 20
-4.575342740717978
 30
0.0
  0
SPLINE
  5
6C
330
1F
100
AcDbEntity
  8
0
  6
Continuous
 62
     7
370
    25
100
AcDbSpline
210
0.0
220
0.0
230
1.0
 70
     8
 71
     3
 72
    26
 73
    22
 74
     0
 42
0.00000001
 43
0.00000001
 40
0.0
 40
0.0
 40
0.0
 40
0.0
 40
0.0480970029002441
 40
0.0965043419822943
 40
0.1452598647069377
 40
0.1944006140442464
 40
0.243962769211688
 40
0.293981595011391
 40
0.3444913997432543
 40
0.3955255015169814
 40
0.447116202653734
 40
0.4992947717587051
 40
0.5520914329602767
 40
0.6055353617488201
 40
0.6596546868074971
 40
0.7144764972061703
 40
0.7700268543256421
 40
0.8263308078896973
 40
0.8834124155047284
 40
0.9412947651375737
 40
1.0
 40
1.0
 40
1.0
 40
1.0
 10
-1.34505912731643
 20
-3.375136570536163
 30
0.0
 10
-1.345258861526678
 20
-3.379827756846214
 30
0.0
 10
-1.345659618691765
 20
-3.389240398397012
 30
0.0
 10
-1.346769905401864
 20
-3.403379661206832
 30
0.0
 10
-1.348253884537808
 20
-3.417585572585784
 30
0.0
 10
-1.350148669509349
 20
-3.431856835920735
 30
0.0
 10
-1.352444176467373
 20
-3.446193783769927
 30
0.0
 10
-1.355143110943124
 20
-3.460596310888595
 30
0.0
 10
-1.358244708726992
 20
-3.475064434403737
 30
0.0
 10
-1.361749147859875
 20
-3.489598141701356
 30
0.0
 10
-1.365656351017311
 20
-3.504197431409741
 30
0.0
 10
-1.369966310578796
 20
-3.518862302451856
 30
0.0
 10
-1.37467900368372
 20
-3.533592755032494
 30
0.0
 10
-1.379794403430321
 20
-3.548388796537851
 30
0.0
 10
-1.385312522238485
 20
-3.563250415002436
 30
0.0
 10
-1.391233224274651
 20
-3.57817767964371
 30
0.0
 10
-1.39755694596366
 20
-3.593170356900995
 30
0.0
 10
-1.404281951370623
 20
-3.608229371170389
 30
0.0
 10
-1.411414786027945
 20
-3.623351240300661
 30
0.0
 10
-1.418930447592999
 20
-3.638549275417903
 30
0.0
 10
-1.424221616710732
 20
-3.64862593587739
 30
0.0
 10
-1.426885874033654
 20
-3.653699827076561
 30
0.0
  0
SPLINE
  5
6E
330
1F
100
AcDbEntity
  8
0
  6
Continuous
 62
     7
370
    25
100
AcDbSpline
210
0.0
220
0.0
230
1.0
 70
     8
 71
     3
 72
    24
 73
    20
 74
     0
 42
0.00000001
 43
0.00000001
 40
0.0
 40
0.0
 40
0.0
 40
0.0
 40
0.0651140587291799
 40
0.1292554941381374
 40
0.1924563351885877
 40
0.2547500617079791
 40
0.3161716368985324
 40
0.3767575338971867
 40
0.4365457552488999
 40
0.4955758441078692
 40
0.553888885959774
 40
0.61152749966944
 40
0.6685358167095803
 40
0.7249594475228662
 40
0.7808454341168694
 40
0.8362421881918446
 40
0.8911994143548191
 40
0.9457680182772249
 40
1.0
 40
1.0
 40
1.0
 40
1.0
 10
11.67688588313712
 20
-3.653699843881773
 30
0.0
 10
11.67392061934632
 20
-3.648076798394027
 30
0.0
 10
11.66803438457596
 20
-3.636914700111954
 30
0.0
 10
11.65973278410784
 20
-3.620057103567012
 30
0.0
 10
11.65190668989776
 20
-3.603277995858712
 30
0.0
 10
11.6445875892133
 20
-3.586560511554916
 30
0.0
 10
11.6377672591366
 20
-3.569909055238984
 30
0.0
 10
11.63144788941583
 20
-3.553322458011084
 30
0.0
 10
11.62562894245997
 20
-3.536801015476029
 30
0.0
 10
11.62031059774468
 20
-3.520344642323419
 30
0.0
 10
11.61549285515254
 20
-3.503953357002923
 30
0.0
 10
11.61117574210894
 20
-3.487627156024382
 30
0.0
 10
11.60735936116395
 20
-3.47136604392031
 30
0.0
 10
11.60404350025614
 20
-3.45517003924055
 30
0.0
 10
11.60122911876627
 20
-3.439039124254841
 30
0.0
 10
11.59891286096858
 20
-3.422973439337007
 30
0.0
 10
11.59710727099436
 20
-3.406972565575409
 30
0.0
 10
11.59576621494043
 20
-3.391038172055372
 30
0.0
 10
11.595294336537
 20
-3.380426160075693
 30
0.0
 10
11.5950591273164
 20
-3.37513657053616
 30
0.0
  0
LINE
  5
6F
330
1F
100
AcDbEntity
  8
0
  6
Continuous
 62
     7
370
    25
100
AcDbLine
 10
-1.3450576429
 20
-6.3626960723
 30
0.0
 11
11.5950576429
 21
-6.3626960723
 31
0.0
  0
LINE
  5
70
330
1F
100
AcDbEntity
  8
0
  6
Continuous
 62
     7
370
    25
100
AcDbLine
 10
11.5950591273
 20
-3.3751365705
 30
0.0
 11
-1.3450591273
 21
-3.3751365705
 31
0.0
  0
MTEXT
  5
72
330
1F
100
AcDbEntity
  8
0
  6
Continuous
 62
     7
100
AcDbMText
 10
-1.5418427824
 20
-6.4028364814
 30
0.0
 40
0.1903
 41
0.0
 71
     1
 72
     1
  1
SOLIDWORKS Educational Product.
  7
SLDTEXTSTYLE0
 73
     1
 44
1.0
  0
MTEXT
  5
73
330
1F
100
AcDbEntity
  8
0
  6
Continuous
 62
     7
100
AcDbMText
 10
-1.5418427824
 20
-6.6882864814
 30
0.0
 40
0.1903
 41
0.0
 71
     1
 72
     1
  1
For Instructional Use Only.
  7
SLDTEXTSTYLE0
 73
     1
 44
1.0
  0
ENDSEC
  0
SECTION
  2
OBJECTS
  0
DICTIONARY
  5
C
330
0
100
AcDbDictionary
281
     1
  3
ACAD_GROUP
350
D
  3
ACAD_LAYOUT
350
1A
  3
ACAD_MLINESTYLE
350
17
  3
ACAD_PLOTSETTINGS
350
19
  3
ACAD_PLOTSTYLENAME
350
E
  3
ACAD_SCALELIST
350
47
  3
DWGPROPS
350
74
  0
DICTIONARY
  5
D
102
{ACAD_REACTORS
330
C
102
}
330
C
100
AcDbDictionary
281
     1
  0
DICTIONARY
  5
1A
102
{ACAD_REACTORS
330
C
102
}
330
C
100
AcDbDictionary
281
     1
  3
Layout1
350
1E
  3
Layout2
350
26
  3
Model
350
22
  0
DICTIONARY
  5
17
102
{ACAD_REACTORS
330
C
102
}
330
C
100
AcDbDictionary
281
     1
  3
Standard
350
18
  0
DICTIONARY
  5
19
102
{ACAD_REACTORS
330
C
102
}
330
C
100
AcDbDictionary
281
     1
  0
ACDBDICTIONARYWDFLT
  5
E
102
{ACAD_REACTORS
330
C
102
}
330
C
100
AcDbDictionary
281
     1
  3
Normal
350
F
100
AcDbDictionaryWithDefault
340
F
  0
DICTIONARY
  5
47
102
{ACAD_REACTORS
330
C
102
}
330
C
100
AcDbDictionary
281
     1
  3
A0
350
48
  3
A1
350
49
  3
A2
350
4A
  3
A3
350
4B
  3
A4
350
4C
  3
A5
350
4D
  3
A6
350
4E
  3
A7
350
4F
  3
A8
350
50
  3
A9
350
51
  3
B1
350
52
  3
B2
350
53
  3
B3
350
54
  3
B4
350
55
  3
B5
350
56
  3
B6
350
57
  3
B7
350
58
  0
XRECORD
  5
74
102
{ACAD_REACTORS
330
C
102
}
330
C
100
AcDbXrecord
280
     1
  1
DWGPROPS COOKIE
  2

  3

  4

  6

  7

  8
manny
  9

300
=
301
=
302
=
303
=
304
=
305
=
306
=
307
=
308
=
309
=
 40
0.0
 41
2460633.170151933
 42
2460633.170184989
  1

 90
        0
  0
LAYOUT
  5
1E
102
{ACAD_REACTORS
330
1A
102
}
330
1A
100
AcDbPlotSettings
  1

  2
none_device
  4

  6

 40
0.0
 41
0.0
 42
0.0
 43
0.0
 44
0.0
 45
0.0
 46
0.0
 47
0.0
 48
0.0
 49
0.0
140
0.0
141
0.0
142
1.0
143
1.0
 70
   688
 72
     0
 73
     0
 74
     5
  7

 75
    16
147
1.0
148
0.0
149
0.0
100
AcDbLayout
  1
Layout1
 70
     1
 71
     1
 10
0.0
 20
0.0
 11
12.0
 21
9.0
 12
0.0
 22
0.0
 32
0.0
 14
1.0000000000E+20
 24
1.0000000000E+20
 34
1.0000000000E+20
 15
-1.0000000000E+20
 25
-1.0000000000E+20
 35
-1.0000000000E+20
146
0.0
 13
0.0
 23
0.0
 33
0.0
 16
1.0
 26
0.0
 36
0.0
 17
0.0
 27
1.0
 37
0.0
 76
     0
330
1B
  0
LAYOUT
  5
26
102
{ACAD_REACTORS
330
1A
102
}
330
1A
100
AcDbPlotSettings
  1

  2
none_device
  4

  6

 40
0.0
 41
0.0
 42
0.0
 43
0.0
 44
0.0
 45
0.0
 46
0.0
 47
0.0
 48
0.0
 49
0.0
140
0.0
141
0.0
142
1.0
143
1.0
 70
   688
 72
     0
 73
     0
 74
     5
  7

 75
    16
147
1.0
148
0.0
149
0.0
100
AcDbLayout
  1
Layout2
 70
     1
 71
     2
 10
0.0
 20
0.0
 11
0.0
 21
0.0
 12
0.0
 22
0.0
 32
0.0
 14
0.0
 24
0.0
 34
0.0
 15
0.0
 25
0.0
 35
0.0
146
0.0
 13
0.0
 23
0.0
 33
0.0
 16
1.0
 26
0.0
 36
0.0
 17
0.0
 27
1.0
 37
0.0
 76
     0
330
23
  0
LAYOUT
  5
22
102
{ACAD_REACTORS
330
1A
102
}
330
1A
100
AcDbPlotSettings
  1

  2
none_device
  4
ANSI_A_(11.00_x_8.50_Inches)
  6

 40
6.35
 41
19.05
 42
6.35000508
 43
19.05000254
 44
279.4
 45
215.9
 46
27.0323748416
 47
189.9051905393
 48
0.0
 49
0.0
140
0.0
141
0.0
142
0.8167284242
143
1.0
 70
  1696
 72
     0
 73
     0
 74
     0
  7

 75
     0
147
0.5913241897
148
-39.4088153714
149
0.0
100
AcDbLayout
  1
Model
 70
     1
 71
     0
 10
0.0
 20
0.0
 11
12.0
 21
9.0
 12
0.0
 22
0.0
 32
0.0
 14
-1.5418427824
 24
-6.3626960723
 34
0.0
 15
11.7918427824
 25
-3.3751365705
 35
0.0
146
0.0
 13
0.0
 23
0.0
 33
0.0
 16
1.0
 26
0.0
 36
0.0
 17
0.0
 27
1.0
 37
0.0
 76
     0
330
1F
331
29
  0
MLINESTYLE
  5
18
102
{ACAD_REACTORS
330
17
102
}
330
17
100
AcDbMlineStyle
  2
Standard
 70
     0
  3

 62
   256
 51
90.0
 52
90.0
 71
     2
 49
0.5
 62
   256
  6
BYLAYER
 49
-0.5
 62
   256
  6
BYLAYER
  0
ACDBPLACEHOLDER
  5
F
102
{ACAD_REACTORS
330
E
102
}
330
E
  0
SCALE
  5
48
102
{ACAD_REACTORS
330
47
102
}
330
47
100
AcDbScale
 70
     0
300
1:1
140
1.0
141
1.0
290
     1
  0
SCALE
  5
49
102
{ACAD_REACTORS
330
47
102
}
330
47
100
AcDbScale
 70
     0
300
1/128" = 1'-0"
140
0.0078125
141
12.0
290
     0
  0
SCALE
  5
4A
102
{ACAD_REACTORS
330
47
102
}
330
47
100
AcDbScale
 70
     0
300
1/64" = 1'-0"
140
0.015625
141
12.0
290
     0
  0
SCALE
  5
4B
102
{ACAD_REACTORS
330
47
102
}
330
47
100
AcDbScale
 70
     0
300
1/32" = 1'-0"
140
0.03125
141
12.0
290
     0
  0
SCALE
  5
4C
102
{ACAD_REACTORS
330
47
102
}
330
47
100
AcDbScale
 70
     0
300
1/16" = 1'-0"
140
0.0625
141
12.0
290
     0
  0
SCALE
  5
4D
102
{ACAD_REACTORS
330
47
102
}
330
47
100
AcDbScale
 70
     0
300
3/32" = 1'-0"
140
0.09375
141
12.0
290
     0
  0
SCALE
  5
4E
102
{ACAD_REACTORS
330
47
102
}
330
47
100
AcDbScale
 70
     0
300
1/8" = 1'-0"
140
0.125
141
12.0
290
     0
  0
SCALE
  5
4F
102
{ACAD_REACTORS
330
47
102
}
330
47
100
AcDbScale
 70
     0
300
3/16" = 1'-0"
140
0.1875
141
12.0
290
     0
  0
SCALE
  5
50
102
{ACAD_REACTORS
330
47
102
}
330
47
100
AcDbScale
 70
     0
300
1/4" = 1'-0"
140
0.25
141
12.0
290
     0
  0
SCALE
  5
51
102
{ACAD_REACTORS
330
47
102
}
330
47
100
AcDbScale
 70
     0
300
3/8" = 1'-0"
140
0.375
141
12.0
290
     0
  0
SCALE
  5
52
102
{ACAD_REACTORS
330
47
102
}
330
47
100
AcDbScale
 70
     0
300
1/2" = 1'-0"
140
0.5
141
12.0
290
     0
  0
SCALE
  5
53
102
{ACAD_REACTORS
330
47
102
}
330
47
100
AcDbScale
 70
     0
300
3/4" = 1'-0"
140
0.75
141
12.0
290
     0
  0
SCALE
  5
54
102
{ACAD_REACTORS
330
47
102
}
330
47
100
AcDbScale
 70
     0
300
1" = 1'-0"
140
1.0
141
12.0
290
     0
  0
SCALE
  5
55
102
{ACAD_REACTORS
330
47
102
}
330
47
100
AcDbScale
 70
     0
300
1-1/2" = 1'-0"
140
1.5
141
12.0
290
     0
  0
SCALE
  5
56
102
{ACAD_REACTORS
330
47
102
}
330
47
100
AcDbScale
 70
     0
300
3" = 1'-0"
140
3.0
141
12.0
290
     0
  0
SCALE
  5
57
102
{ACAD_REACTORS
330
47
102
}
330
47
100
AcDbScale
 70
     0
300
6" = 1'-0"
140
6.0
141
12.0
290
     0
  0
SCALE
  5
58
102
{ACAD_REACTORS
330
47
102
}
330
47
100
AcDbScale
 70
     0
300
1'-0" = 1'-0"
140
12.0
141
12.0
290
     0
  0
ENDSEC
  0
EOF
