  0
SECTION
  2
HEADER
  9
$ACADVER
  1
AC1015
  9
$ACADMAINTVER
 70
     6
  9
$DWGCODEPAGE
  3
ANSI_1252
  9
$INSBASE
 10
0.0
 20
0.0
 30
0.0
  9
$EXTMIN
 10
7.1197407122
 20
-20.8886278162
 30
0.0
  9
$EXTMAX
 10
10.1072987881
 20
13.2533170458
 30
0.0
  9
$LIMMIN
 10
0.0
 20
0.0
  9
$LIMMAX
 10
12.0
 20
9.0
  9
$ORTHOMODE
 70
     0
  9
$REGENMODE
 70
     1
  9
$FILLMODE
 70
     1
  9
$QTEXTMODE
 70
     0
  9
$MIRRTEXT
 70
     1
  9
$LTSCALE
 40
1.0
  9
$ATTMODE
 70
     1
  9
$TEXTSIZE
 40
0.1377952756
  9
$TRACEWID
 40
0.05
  9
$TEXTSTYLE
  7
Standard
  9
$CLAYER
  8
0
  9
$CELTYPE
  6
ByLayer
  9
$CECOLOR
 62
   256
  9
$CELTSCALE
 40
1.0
  9
$DISPSILH
 70
     0
  9
$DIMSCALE
 40
1.0
  9
$DIMASZ
 40
0.13
  9
$DIMEXO
 40
0.0
  9
$DIMDLI
 40
0.38
  9
$DIMRND
 40
0.0
  9
$DIMDLE
 40
0.0
  9
$DIMEXE
 40
0.0393700787
  9
$DIMTP
 40
0.0
  9
$DIMTM
 40
0.0
  9
$DIMTXT
 40
0.1377952756
  9
$DIMCEN
 40
0.09
  9
$DIMTSZ
 40
0.0
  9
$DIMTOL
 70
     0
  9
$DIMLIM
 70
     0
  9
$DIMTIH
 70
     1
  9
$DIMTOH
 70
     1
  9
$DIMSE1
 70
     0
  9
$DIMSE2
 70
     0
  9
$DIMTAD
 70
     1
  9
$DIMZIN
 70
     1
  9
$DIMBLK
  1

  9
$DIMASO
 70
     1
  9
$DIMSHO
 70
     1
  9
$DIMPOST
  1

  9
$DIMAPOST
  1

  9
$DIMALT
 70
     0
  9
$DIMALTD
 70
     2
  9
$DIMALTF
 40
25.4
  9
$DIMLFAC
 40
1.0
  9
$DIMTOFL
 70
     0
  9
$DIMTVP
 40
0.0
  9
$DIMTIX
 70
     0
  9
$DIMSOXD
 70
     0
  9
$DIMSAH
 70
     0
  9
$DIMBLK1
  1

  9
$DIMBLK2
  1

  9
$DIMSTYLE
  2
Standard
  9
$DIMCLRD
 70
     0
  9
$DIMCLRE
 70
     0
  9
$DIMCLRT
 70
     0
  9
$DIMTFAC
 40
1.0
  9
$DIMGAP
 40
0.06
  9
$DIMJUST
 70
     0
  9
$DIMSD1
 70
     0
  9
$DIMSD2
 70
     0
  9
$DIMTOLJ
 70
     1
  9
$DIMTZIN
 70
     1
  9
$DIMALTZ
 70
     0
  9
$DIMALTTZ
 70
     0
  9
$DIMUPT
 70
     0
  9
$DIMDEC
 70
     2
  9
$DIMTDEC
 70
     2
  9
$DIMALTU
 70
     2
  9
$DIMALTTD
 70
     2
  9
$DIMTXSTY
  7
Standard
  9
$DIMAUNIT
 70
     0
  9
$DIMADEC
 70
     2
  9
$DIMALTRND
 40
0.0
  9
$DIMAZIN
 70
     0
  9
$DIMDSEP
 70
    46
  9
$DIMATFIT
 70
     3
  9
$DIMFRAC
 70
     0
  9
$DIMLDRBLK
  1

  9
$DIMLUNIT
 70
     2
  9
$DIMLWD
 70
    -2
  9
$DIMLWE
 70
    -2
  9
$DIMTMOVE
 70
     0
  9
$LUNITS
 70
     2
  9
$LUPREC
 70
     2
  9
$SKETCHINC
 40
0.1
  9
$FILLETRAD
 40
0.0
  9
$AUNITS
 70
     0
  9
$AUPREC
 70
     2
  9
$MENU
  1
.
  9
$ELEVATION
 40
0.0
  9
$PELEVATION
 40
0.0
  9
$THICKNESS
 40
0.0
  9
$LIMCHECK
 70
     0
  9
$CHAMFERA
 40
0.0
  9
$CHAMFERB
 40
0.0
  9
$CHAMFERC
 40
0.0
  9
$CHAMFERD
 40
0.0
  9
$SKPOLY
 70
     0
  9
$TDCREATE
 40
2460632.849291806
  9
$TDUCREATE
 40
2460633.182625139
  9
$TDUPDATE
 40
2460632.849325278
  9
$TDUUPDATE
 40
2460633.182658612
  9
$TDINDWG
 40
0.0000000116
  9
$TDUSRTIMER
 40
0.0000000116
  9
$USRTIMER
 70
     1
  9
$ANGBASE
 50
0.0
  9
$ANGDIR
 70
     0
  9
$PDMODE
 70
     0
  9
$PDSIZE
 40
-1.0
  9
$PLINEWID
 40
0.0
  9
$SPLFRAME
 70
     0
  9
$SPLINETYPE
 70
     6
  9
$SPLINESEGS
 70
     8
  9
$HANDSEED
  5
70
  9
$SURFTAB1
 70
     6
  9
$SURFTAB2
 70
     6
  9
$SURFTYPE
 70
     6
  9
$SURFU
 70
     6
  9
$SURFV
 70
     6
  9
$UCSBASE
  2

  9
$UCSNAME
  2

  9
$UCSORG
 10
0.0
 20
0.0
 30
0.0
  9
$UCSXDIR
 10
1.0
 20
0.0
 30
0.0
  9
$UCSYDIR
 10
0.0
 20
1.0
 30
0.0
  9
$UCSORTHOREF
  2

  9
$UCSORTHOVIEW
 70
     0
  9
$UCSORGTOP
 10
0.0
 20
0.0
 30
0.0
  9
$UCSORGBOTTOM
 10
0.0
 20
0.0
 30
0.0
  9
$UCSORGLEFT
 10
0.0
 20
0.0
 30
0.0
  9
$UCSORGRIGHT
 10
0.0
 20
0.0
 30
0.0
  9
$UCSORGFRONT
 10
0.0
 20
0.0
 30
0.0
  9
$UCSORGBACK
 10
0.0
 20
0.0
 30
0.0
  9
$PUCSBASE
  2

  9
$PUCSNAME
  2

  9
$PUCSORG
 10
0.0
 20
0.0
 30
0.0
  9
$PUCSXDIR
 10
1.0
 20
0.0
 30
0.0
  9
$PUCSYDIR
 10
0.0
 20
1.0
 30
0.0
  9
$PUCSORTHOREF
  2

  9
$PUCSORTHOVIEW
 70
     0
  9
$PUCSORGTOP
 10
0.0
 20
0.0
 30
0.0
  9
$PUCSORGBOTTOM
 10
0.0
 20
0.0
 30
0.0
  9
$PUCSORGLEFT
 10
0.0
 20
0.0
 30
0.0
  9
$PUCSORGRIGHT
 10
0.0
 20
0.0
 30
0.0
  9
$PUCSORGFRONT
 10
0.0
 20
0.0
 30
0.0
  9
$PUCSORGBACK
 10
0.0
 20
0.0
 30
0.0
  9
$USERI1
 70
     0
  9
$USERI2
 70
     0
  9
$USERI3
 70
     0
  9
$USERI4
 70
     0
  9
$USERI5
 70
     0
  9
$USERR1
 40
0.0
  9
$USERR2
 40
0.0
  9
$USERR3
 40
0.0
  9
$USERR4
 40
0.0
  9
$USERR5
 40
0.0
  9
$WORLDVIEW
 70
     1
  9
$SHADEDGE
 70
     3
  9
$SHADEDIF
 70
    70
  9
$TILEMODE
 70
     1
  9
$MAXACTVP
 70
    64
  9
$PINSBASE
 10
0.0
 20
0.0
 30
0.0
  9
$PLIMCHECK
 70
     0
  9
$PEXTMIN
 10
1.0000000000E+20
 20
1.0000000000E+20
 30
1.0000000000E+20
  9
$PEXTMAX
 10
-1.0000000000E+20
 20
-1.0000000000E+20
 30
-1.0000000000E+20
  9
$PLIMMIN
 10
0.0
 20
0.0
  9
$PLIMMAX
 10
12.0
 20
9.0
  9
$UNITMODE
 70
     0
  9
$VISRETAIN
 70
     1
  9
$PLINEGEN
 70
     0
  9
$PSLTSCALE
 70
     1
  9
$TREEDEPTH
 70
  3020
  9
$CMLSTYLE
  2
Standard
  9
$CMLJUST
 70
     0
  9
$CMLSCALE
 40
1.0
  9
$PROXYGRAPHICS
 70
     1
  9
$MEASUREMENT
 70
     0
  9
$CELWEIGHT
370
    -1
  9
$ENDCAPS
280
     0
  9
$JOINSTYLE
280
     0
  9
$LWDISPLAY
290
     1
  9
$INSUNITS
 70
     1
  9
$HYPERLINKBASE
  1

  9
$STYLESHEET
  1

  9
$XEDIT
290
     1
  9
$CEPSNTYPE
380
     0
  9
$PSTYLEMODE
290
     1
  9
$FINGERPRINTGUID
  2
{9e28aa4d-dd6c-462b-8663-cbf1fa338fa7}
  9
$VERSIONGUID
  2
{FAEB1C32-E019-11D5-929B-00C0DF256EC4}
  9
$EXTNAMES
290
     1
  9
$PSVPSCALE
 40
0.0
  9
$OLESTARTUP
290
     0
  0
ENDSEC
  0
SECTION
  2
CLASSES
  0
CLASS
  1
ACDBDICTIONARYWDFLT
  2
AcDbDictionaryWithDefault
  3
ObjectDBX Classes
 90
        0
280
     0
281
     0
  0
CLASS
  1
VISUALSTYLE
  2
AcDbVisualStyle
  3
ObjectDBX Classes
 90
     4095
280
     0
281
     0
  0
CLASS
  1
MATERIAL
  2
AcDbMaterial
  3
ObjectDBX Classes
 90
     1153
280
     0
281
     0
  0
CLASS
  1
SCALE
  2
AcDbScale
  3
ObjectDBX Classes
 90
     1153
280
     0
281
     0
  0
CLASS
  1
TABLESTYLE
  2
AcDbTableStyle
  3
ObjectDBX Classes
 90
     4095
280
     0
281
     0
  0
CLASS
  1
MLEADERSTYLE
  2
AcDbMLeaderStyle
  3
ACDB_MLEADERSTYLE_CLASS
 90
     4095
280
     0
281
     0
  0
CLASS
  1
SUN
  2
AcDbSun
  3
SCENEOE
 90
     1153
280
     0
281
     0
  0
CLASS
  1
ACDBPLACEHOLDER
  2
AcDbPlaceHolder
  3
ObjectDBX Classes
 90
        0
280
     0
281
     0
  0
CLASS
  1
LAYOUT
  2
AcDbLayout
  3
ObjectDBX Classes
 90
        0
280
     0
281
     0
  0
ENDSEC
  0
SECTION
  2
TABLES
  0
TABLE
  2
VPORT
  5
8
330
0
100
AcDbSymbolTable
 70
     1
  0
VPORT
  5
29
330
8
100
AcDbSymbolTableRecord
100
AcDbViewportTableRecord
  2
*Active
 70
     0
 10
0.0
 20
0.0
 11
1.0
 21
1.0
 12
8.6135197502
 22
-3.8176553852
 13
0.0
 23
0.0
 14
0.5
 24
0.5
 15
0.5
 25
0.5
 16
0.0
 26
0.0
 36
1.0
 17
0.0
 27
0.0
 37
0.0
 40
34.8247837593
 41
0.087504039
 42
50.0
 43
0.0
 44
0.0
 50
0.0
 51
0.0
 71
     0
 72
   100
 73
     1
 74
     3
 75
     0
 76
     0
 77
     0
 78
     0
281
     0
 65
     1
110
0.0
120
0.0
130
0.0
111
1.0
121
0.0
131
0.0
112
0.0
122
1.0
132
0.0
 79
     0
146
0.0
  0
ENDTAB
  0
TABLE
  2
LTYPE
  5
5
330
0
100
AcDbSymbolTable
 70
     6
  0
LTYPE
  5
14
330
5
100
AcDbSymbolTableRecord
100
AcDbLinetypeTableRecord
  2
ByBlock
 70
     0
  3

 72
    65
 73
     0
 40
0.0
  0
LTYPE
  5
15
330
5
100
AcDbSymbolTableRecord
100
AcDbLinetypeTableRecord
  2
ByLayer
 70
     0
  3

 72
    65
 73
     0
 40
0.0
  0
LTYPE
  5
16
330
5
100
AcDbSymbolTableRecord
100
AcDbLinetypeTableRecord
  2
Continuous
 70
     0
  3
Solid line
 72
    65
 73
     0
 40
0.0
  0
LTYPE
  5
5E
330
5
100
AcDbSymbolTableRecord
100
AcDbLinetypeTableRecord
  2
HIDDEN
 70
     0
  3
Hidden __ __ __ __ __ __ __ __ __ __ __ __ __ __
 72
    65
 73
     2
 40
0.075
 49
0.05
 74
     0
 49
-0.025
 74
     0
  0
LTYPE
  5
5F
330
5
100
AcDbSymbolTableRecord
100
AcDbLinetypeTableRecord
  2
PHANTOM
 70
     0
  3
Phantom ______  __  __  ______  __  __  ______
 72
    65
 73
     6
 40
0.5
 49
0.25
 74
     0
 49
-0.05
 74
     0
 49
0.05
 74
     0
 49
-0.05
 74
     0
 49
0.05
 74
     0
 49
-0.05
 74
     0
  0
LTYPE
  5
60
330
5
100
AcDbSymbolTableRecord
100
AcDbLinetypeTableRecord
  2
CENTER
 70
     0
  3
Center ____ _ ____ _ ____ _ ____ _ ____ _ ____
 72
    65
 73
     4
 40
0.4
 49
0.25
 74
     0
 49
-0.05
 74
     0
 49
0.05
 74
     0
 49
-0.05
 74
     0
  0
LTYPE
  5
61
330
5
100
AcDbSymbolTableRecord
100
AcDbLinetypeTableRecord
  2
CENTERX2
 70
     0
  3
Center (2x) ________  __  ________  __  _____
 72
    65
 73
     4
 40
0.8
 49
0.5
 74
     0
 49
-0.1
 74
     0
 49
0.1
 74
     0
 49
-0.1
 74
     0
  0
LTYPE
  5
62
330
5
100
AcDbSymbolTableRecord
100
AcDbLinetypeTableRecord
  2
DOT2
 70
     0
  3
Dot (.5x) ........................................
 72
    65
 73
     2
 40
0.025
 49
0.0
 74
     0
 49
-0.025
 74
     0
  0
ENDTAB
  0
TABLE
  2
LAYER
  5
2
330
0
100
AcDbSymbolTable
 70
     1
  0
LAYER
  5
10
330
2
100
AcDbSymbolTableRecord
100
AcDbLayerTableRecord
  2
0
 70
     0
 62
     7
  6
Continuous
370
    -3
390
F
  0
ENDTAB
  0
TABLE
  2
STYLE
  5
3
330
0
100
AcDbSymbolTable
 70
     2
  0
STYLE
  5
11
330
3
100
AcDbSymbolTableRecord
100
AcDbTextStyleTableRecord
  2
Standard
 70
     0
 40
0.0
 41
1.0
 50
0.0
 71
     0
 42
0.1377952756
  3
txt
  4

  0
STYLE
  5
6C
330
3
100
AcDbSymbolTableRecord
100
AcDbTextStyleTableRecord
  2
SLDTEXTSTYLE0
 70
     0
 40
0.0
 41
0.7
 50
0.0
 71
     0
 42
0.1377952756
  3
TXT
  4

  0
ENDTAB
  0
TABLE
  2
VIEW
  5
6
330
0
100
AcDbSymbolTable
 70
     0
  0
ENDTAB
  0
TABLE
  2
UCS
  5
7
330
0
100
AcDbSymbolTable
 70
     0
  0
ENDTAB
  0
TABLE
  2
APPID
  5
9
330
0
100
AcDbSymbolTable
 70
     1
  0
APPID
  5
12
330
9
100
AcDbSymbolTableRecord
100
AcDbRegAppTableRecord
  2
ACAD
 70
     0
  0
ENDTAB
  0
TABLE
  2
DIMSTYLE
  5
A
330
0
100
AcDbSymbolTable
 70
     1
100
AcDbDimStyleTable
  0
DIMSTYLE
105
27
330
A
100
AcDbSymbolTableRecord
100
AcDbDimStyleTableRecord
  2
Standard
 70
     0
178
     0
340
11
  0
ENDTAB
  0
TABLE
  2
BLOCK_RECORD
  5
1
330
0
100
AcDbSymbolTable
 70
     1
  0
BLOCK_RECORD
  5
1F
330
1
100
AcDbSymbolTableRecord
100
AcDbBlockTableRecord
  2
*Model_Space
340
22
  0
BLOCK_RECORD
  5
1B
330
1
100
AcDbSymbolTableRecord
100
AcDbBlockTableRecord
  2
*Paper_Space
340
1E
  0
BLOCK_RECORD
  5
23
330
1
100
AcDbSymbolTableRecord
100
AcDbBlockTableRecord
  2
*Paper_Space0
340
26
  0
ENDTAB
  0
ENDSEC
  0
SECTION
  2
BLOCKS
  0
BLOCK
  5
20
330
1F
100
AcDbEntity
  8
0
100
AcDbBlockBegin
  2
*Model_Space
 70
     0
 10
0.0
 20
0.0
 30
0.0
  3
*Model_Space
  1

  0
ENDBLK
  5
21
330
1F
100
AcDbEntity
  8
0
100
AcDbBlockEnd
  0
BLOCK
  5
1C
330
1B
100
AcDbEntity
 67
     1
  8
0
100
AcDbBlockBegin
  2
*Paper_Space
 70
     0
 10
0.0
 20
0.0
 30
0.0
  3
*Paper_Space
  1

  0
ENDBLK
  5
1D
330
1B
100
AcDbEntity
 67
     1
  8
0
100
AcDbBlockEnd
  0
BLOCK
  5
24
330
23
100
AcDbEntity
  8
0
100
AcDbBlockBegin
  2
*Paper_Space0
 70
     0
 10
0.0
 20
0.0
 30
0.0
  3
*Paper_Space0
  1

  0
ENDBLK
  5
25
330
23
100
AcDbEntity
  8
0
100
AcDbBlockEnd
  0
ENDSEC
  0
SECTION
  2
ENTITIES
  0
SPLINE
  5
64
330
1F
100
AcDbEntity
  8
0
  6
Continuous
 62
     7
370
    25
100
AcDbSpline
210
0.0
220
0.0
230
1.0
 70
     8
 71
     3
 72
    33
 73
    29
 74
     0
 42
0.00000001
 43
0.00000001
 40
0.0
 40
0.0
 40
0.0
 40
0.0
 40
0.0160885964825307
 40
0.0340786389985659
 40
0.0539722206543964
 40
0.0757708862301339
 40
0.0994758080626486
 40
0.1250878967261225
 40
0.1640103588240634
 40
0.1978319281134505
 40
0.2265546822316211
 40
0.2501820439246624
 40
0.32439983294578
 40
0.3904913762692012
 40
0.4488941531358785
 40
0.5002425411123729
 40
0.5514310230707037
 40
0.6002378778869111
 40
0.6484068968113375
 40
0.6977495417188869
 40
0.7499552477675818
 40
0.7770045185866113
 40
0.8067852595458875
 40
0.8394173501411026
 40
0.8749918559765133
 40
0.9135790159982292
 40
0.9552338319975588
 40
1.0
 40
1.0
 40
1.0
 40
1.0
 10
8.226375934354488
 20
13.25331703950816
 30
0.0
 10
8.220972569878839
 20
13.24828284330869
 30
0.0
 10
8.209527239172502
 20
13.23761947965755
 30
0.0
 10
8.19167295963752
 20
13.22044288877478
 30
0.0
 10
8.172089390812191
 20
13.20128570415313
 30
0.0
 10
8.150806024320056
 20
13.18011607880464
 30
0.0
 10
8.127805500235487
 20
13.15695165152216
 30
0.0
 10
8.099467383716119
 20
13.12801196039306
 30
0.0
 10
8.067880566430425
 20
13.09575395166453
 30
0.0
 10
8.03503360024785
 20
13.06273324604821
 30
0.0
 10
8.006907373820175
 20
13.03492029604403
 30
0.0
 10
7.965061791010903
 20
12.99461805985986
 30
0.0
 10
7.908907614307178
 20
12.94444087641886
 30
0.0
 10
7.836734077870642
 20
12.88851662766802
 30
0.0
 10
7.768631695287237
 20
12.84493602163275
 30
0.0
 10
7.702012017214022
 20
12.81251276722176
 30
0.0
 10
7.635194854153577
 20
12.79222230720808
 30
0.0
 10
7.567191722814917
 20
12.78464617439639
 30
0.0
 10
7.499835575746464
 20
12.79046856455531
 30
0.0
 10
7.433440843093668
 20
12.80966557843483
 30
0.0
 10
7.380223951206042
 20
12.83588743316778
 30
0.0
 10
7.338220643927884
 20
12.86316594797887
 30
0.0
 10
7.305423412367084
 20
12.8879288848963
 30
0.0
 10
7.271103961472397
 20
12.91702992072018
 30
0.0
 10
7.235262527500457
 20
12.95049691021293
 30
0.0
 10
7.19791403786999
 20
12.98834430796741
 30
0.0
 10
7.158964544075854
 20
13.03049971841483
 30
0.0
 10
7.133125412025819
 20
13.06060244997997
 30
0.0
 10
7.119740712236182
 20
13.07619569916757
 30
0.0
  0
SPLINE
  5
65
330
1F
100
AcDbEntity
  8
0
  6
Continuous
 62
     7
370
    25
100
AcDbSpline
210
0.0
220
0.0
230
1.0
 70
     8
 71
     3
 72
   113
 73
   109
 74
     0
 42
0.00000001
 43
0.00000001
 40
0.0
 40
0.0
 40
0.0
 40
0.0
 40
0.001947468416177
 40
0.0039529574870982
 40
0.006018209660001
 40
0.0081448204857737
 40
0.0103342513737983
 40
0.0125878415240006
 40
0.0149068189838459
 40
0.0172923108190791
 40
0.0197453524157879
 40
0.0222668959503955
 40
0.0248578180760451
 40
0.0275189268802761
 40
0.0302509681715557
 40
0.0330546311522072
 40
0.0359305535335336
 40
0.0388793261460409
 40
0.0419014970941594
 40
0.0449975755010398
 40
0.0517141036045055
 40
0.0589537304117166
 40
0.0667185276549959
 40
0.0750101734222309
 40
0.0882014328692553
 40
0.1009344262304885
 40
0.1132109045654941
 40
0.1250328217922671
 40
0.1346521419275501
 40
0.1442714530735573
 40
0.1538907568646962
 40
0.1635100549353784
 40
0.1731293489200178
 40
0.1827486404530305
 40
0.1923679311688346
 40
0.2019872227018475
 40
0.2116065166864871
 40
0.2212258147571693
 40
0.2308451185483088
 40
0.2404644296943159
 40
0.2500837498295989
 40
0.280177395370995
 40
0.3077265950621146
 40
0.3327335835275604
 40
0.3552013539429884
 40
0.3751340434155483
 40
0.3924945788897295
 40
0.4084282485205156
 40
0.4229441928749545
 40
0.4360545181853617
 40
0.4477756868827935
 40
0.4581307889184075
 40
0.4671534081250302
 40
0.4748944902956865
 40
0.4814349968237313
 40
0.4869094168623599
 40
0.4915459565764864
 40
0.4957128382555621
 40
0.4999039576739939
 40
0.5043297820316022
 40
0.5095553068906266
 40
0.515756707984471
 40
0.5230396824913442
 40
0.5314693406383485
 40
0.5410875333973614
 40
0.55192234784387
 40
0.5639933814739102
 40
0.5773147769853217
 40
0.591897039515941
 40
0.6077481675300267
 40
0.6248743817874887
 40
0.6501655272946656
 40
0.6784675236537747
 40
0.7001920666615848
 40
0.719342866057837
 40
0.7359207110020125
 40
0.7499268255714112
 40
0.7588595438769334
 40
0.7677921059033528
 40
0.7767245376950977
 40
0.7856568652977353
 40
0.794589114757745
 40
0.803521312122291
 40
0.8124534834389898
 40
0.8213856547556888
 40
0.830317852120234
 40
0.8392501015802445
 40
0.8481824291828818
 40
0.8571148609746267
 40
0.8660474230010462
 40
0.8749801413065685
 40
0.8901301643488095
 40
0.9039555704277952
 40
0.9164581873160663
 40
0.9276404914435057
 40
0.9375059535654658
 40
0.9463989727764803
 40
0.9545679990669448
 40
0.9620212040245577
 40
0.9687693601805101
 40
0.9730850494617499
 40
0.9772641702015755
 40
0.9813151132993705
 40
0.9852470903393357
 40
0.9890701729361092
 40
0.992795316057976
 40
0.996434359291126
 40
1.0
 40
1.0
 40
1.0
 40
1.0
 10
9.997538430043859
 20
13.20976668272593
 30
0.0
 10
9.995076434176204
 20
13.20655267443302
 30
0.0
 10
9.990079092541588
 20
13.20002890334667
 30
0.0
 10
9.982863446420446
 20
13.18980563628832
 30
0.0
 10
9.975712568451828
 20
13.17908838671619
 30
0.0
 10
9.968656599340909
 20
13.16785358074667
 30
0.0
 10
9.961687023543666
 20
13.15610778894703
 30
0.0
 10
9.954806158849212
 20
13.14384913920408
 30
0.0
 10
9.948013301148828
 20
13.13107812050337
 30
0.0
 10
9.941308600984843
 20
13.11779456051826
 30
0.0
 10
9.934691977682789
 20
13.10399847223673
 30
0.0
 10
9.9281634221668
 20
13.0896898177885
 30
0.0
 10
9.921722910445277
 20
13.07486857518501
 30
0.0
 10
9.915370430269359
 20
13.05953471893209
 30
0.0
 10
9.909105959831823
 20
13.0436882295768
 30
0.0
 10
9.902929523838697
 20
13.02732907567137
 30
0.0
 10
9.896840980246438
 20
13.01045727868181
 30
0.0
 10
9.890840843166178
 20
12.99307266269665
 30
0.0
 10
9.88492709339623
 20
12.97517582351054
 30
0.0
 10
9.876885841025596
 20
12.94973559974846
 30
0.0
 10
9.866774362202731
 20
12.91575834923712
 30
0.0
 10
9.854665605071109
 20
12.87225805800633
 30
0.0
 10
9.842402989580673
 20
12.82540772597922
 30
0.0
 10
9.827861053241602
 20
12.76637253474511
 30
0.0
 10
9.811607445466946
 20
12.6971267498003
 30
0.0
 10
9.794280002654318
 20
12.61962926508993
 30
0.0
 10
9.778461264329461
 20
12.54471548991327
 30
0.0
 10
9.764996047317375
 20
12.47592872927169
 30
0.0
 10
9.753036794987336
 20
12.41247906805077
 30
0.0
 10
9.741795452637898
 20
12.35355340415263
 30
0.0
 10
9.730558197001871
 20
12.29462707245635
 30
0.0
 10
9.719289058655512
 20
12.23570684678106
 30
0.0
 10
9.707997676197854
 20
12.17679091196738
 30
0.0
 10
9.696681464620333
 20
12.11787975484055
 30
0.0
 10
9.685341125365584
 20
12.0589732432576
 30
0.0
 10
9.67397643767029
 20
12.00007141896547
 30
0.0
 10
9.6625875831453
 20
11.94117424711935
 30
0.0
 10
9.651174056110284
 20
11.88228182535165
 30
0.0
 10
9.639737697677125
 20
11.82339379797725
 30
0.0
 10
9.62827164907172
 20
11.76451149010561
 30
0.0
 10
9.608663599280437
 20
11.66385434432565
 30
0.0
 10
9.581449765078975
 20
11.52670603881444
 30
0.0
 10
9.546585301850559
 20
11.35847038052656
 30
0.0
 10
9.51346450735059
 20
11.20606921752277
 30
0.0
 10
9.48207428570104
 20
11.06950350276424
 30
0.0
 10
9.452445488416748
 20
10.94885433335252
 30
0.0
 10
9.424013156223795
 20
10.84191700463844
 30
0.0
 10
9.396400707666297
 20
10.74643522552555
 30
0.0
 10
9.369000148068375
 20
10.66011776842898
 30
0.0
 10
9.341815116846801
 20
10.58295701891989
 30
0.0
 10
9.314848497509395
 20
10.51494120182206
 30
0.0
 10
9.28810213105219
 20
10.45605130537594
 30
0.0
 10
9.261572414613198
 20
10.40625590033719
 30
0.0
 10
9.235240186071653
 20
10.36550396399887
 30
0.0
 10
9.209038477034863
 20
10.33371745997658
 30
0.0
 10
9.182792164204603
 20
10.31082334350407
 30
0.0
 10
9.156121312499572
 20
10.29692615640162
 30
0.0
 10
9.128824614790918
 20
10.29279273960568
 30
0.0
 10
9.102381874821868
 20
10.298926982897
 30
0.0
 10
9.077407504707129
 20
10.31381379463572
 30
0.0
 10
9.053129562740597
 20
10.33633900493066
 30
0.0
 10
9.028798045589257
 20
10.36680985386574
 30
0.0
 10
9.004282354773302
 20
10.40527648492124
 30
0.0
 10
8.979539250099736
 20
10.45180304812797
 30
0.0
 10
8.954554030140464
 20
10.5064270009258
 30
0.0
 10
8.92932453543345
 20
10.56917320465023
 30
0.0
 10
8.903852169747907
 20
10.64005653515839
 30
0.0
 10
8.878139011830038
 20
10.7190864478298
 30
0.0
 10
8.852188942992413
 20
10.80626940791247
 30
0.0
 10
8.825997771521514
 20
10.90160797904648
 30
0.0
 10
8.796055889218641
 20
11.01897974524634
 30
0.0
 10
8.762239618339386
 20
11.16205386347433
 30
0.0
 10
8.728664710513339
 20
11.31498198467359
 30
0.0
 10
8.698946302792113
 20
11.45568018345094
 30
0.0
 10
8.67483319046228
 20
11.57265161493052
 30
0.0
 10
8.654647274045669
 20
11.67404945246749
 30
0.0
 10
8.639529074858489
 20
11.75479293851852
 30
0.0
 10
8.6277806716532
 20
11.81999549957148
 30
0.0
 10
8.617705813828804
 20
11.87478256488351
 30
0.0
 10
8.607565195483907
 20
11.92955658535889
 30
0.0
 10
8.597323775859236
 20
11.98431122147392
 30
0.0
 10
8.586990943661037
 20
12.03904817181273
 30
0.0
 10
8.57656418414917
 20
12.09376698143187
 30
0.0
 10
8.56604416772241
 20
12.14846777153845
 30
0.0
 10
8.555430727499214
 20
12.20315051223402
 30
0.0
 10
8.54472386061322
 20
12.25781520189771
 30
0.0
 10
8.533923745413846
 20
12.31246187690326
 30
0.0
 10
8.523029671363501
 20
12.36709039336664
 30
0.0
 10
8.512044302305506
 20
12.42170129045005
 30
0.0
 10
8.500957693214131
 20
12.47629255534161
 30
0.0
 10
8.48722001451614
 20
12.54353394874857
 30
0.0
 10
8.471060441408849
 20
12.62066177241116
 30
0.0
 10
8.45246391481655
 20
12.70485670145759
 30
0.0
 10
8.43470792916221
 20
12.78078502514095
 30
0.0
 10
8.417784440423395
 20
12.84844671100991
 30
0.0
 10
8.401507601131314
 20
12.9085253970371
 30
0.0
 10
8.385509434349496
 20
12.9621727057088
 30
0.0
 10
8.36956084023806
 20
13.01058278744759
 30
0.0
 10
8.353494793718378
 20
13.05423192837274
 30
0.0
 10
8.338749169383952
 20
13.08980443815399
 30
0.0
 10
8.325259156235846
 20
13.11848546906724
 30
0.0
 10
8.313120417527452
 20
13.14157779723499
 30
0.0
 10
8.300336858747823
 20
13.16340056853727
 30
0.0
 10
8.286898508138819
 20
13.18394804568736
 30
0.0
 10
8.272813611930488
 20
13.20322835954801
 30
0.0
 10
8.25805614308041
 20
13.22121312556405
 30
0.0
 10
8.2427156006598
 20
13.23800086866887
 30
0.0
 10
8.231785373411205
 20
13.24824644798668
 30
0.0
 10
8.226375939278016
 20
13.25331704580826
 30
0.0
  0
SPLINE
  5
68
330
1F
100
AcDbEntity
  8
0
  6
Continuous
 62
     7
370
    25
100
AcDbSpline
210
0.0
220
0.0
230
1.0
 70
     8
 71
     3
 72
   119
 73
   115
 74
     0
 42
0.00000001
 43
0.00000001
 40
0.0
 40
0.0
 40
0.0
 40
0.0
 40
0.0049647091918888
 40
0.0099296750954272
 40
0.0148978545893777
 40
0.0198721988217843
 40
0.024855647988615
 40
0.02985112620915
 40
0.0348615365419317
 40
0.0398897561822614
 40
0.0449386318786414
 40
0.0500109756013339
 40
0.0551095604915104
 40
0.060237117114413
 40
0.0653963300347492
 40
0.0705898347272661
 40
0.075820214830335
 40
0.081089999745444
 40
0.0864016625809394
 40
0.0917576184341936
 40
0.097160223002694
 40
0.1026117715113927
 40
0.1081144979410236
 40
0.1136705745399896
 40
0.1192821116008433
 40
0.1249511574812929
 40
0.1357148737698726
 40
0.1497221056243713
 40
0.1669787584864592
 40
0.187487931060501
 40
0.1970789010984604
 40
0.20599457892519
 40
0.2142385098466447
 40
0.2218151822067319
 40
0.2287303837333104
 40
0.2349917367293486
 40
0.2406095255840035
 40
0.2455980166360828
 40
0.2499776302519821
 40
0.2553139050985885
 40
0.2605381060862191
 40
0.2656943305254985
 40
0.2708284275995427
 40
0.2892091286271986
 40
0.3124440364614956
 40
0.3218659155587874
 40
0.3354260137350429
 40
0.3531302770226398
 40
0.3749812686190084
 40
0.387683072030346
 40
0.399858193266342
 40
0.4115088579650615
 40
0.4226376064271609
 40
0.4332473538484358
 40
0.44334146509974
 40
0.4529238482669922
 40
0.4619990725603216
 40
0.470572518097813
 40
0.4786505676392752
 40
0.4862408538001624
 40
0.4933525798363584
 40
0.4999969378959086
 40
0.5166761884238823
 40
0.5324517621182043
 40
0.547594940255299
 40
0.5624117804817214
 40
0.5772285768964533
 40
0.592371626430568
 40
0.6081469943783026
 40
0.6248259724668099
 40
0.6385769659119043
 40
0.6535467039598042
 40
0.6697932615092836
 40
0.6873620561658438
 40
0.6970366633082656
 40
0.7106834254779097
 40
0.7283047953131075
 40
0.7499018713842367
 40
0.7596075373523422
 40
0.7686105609450822
 40
0.7769141552545389
 40
0.7845224195650284
 40
0.7914406892835403
 40
0.7976760712843091
 40
0.8032382906444712
 40
0.8081410798958264
 40
0.812404548365684
 40
0.820376714368169
 40
0.8282862783637723
 40
0.8363873808262181
 40
0.8449170587973176
 40
0.854079145794907
 40
0.8640387219249072
 40
0.8749246468697272
 40
0.8793939069548605
 40
0.8838625364364101
 40
0.8883306403469884
 40
0.8927983237562742
 40
0.8972656917636158
 40
0.9017328494906225
 40
0.906199902073749
 40
0.9106669546568766
 40
0.9151341123838828
 40
0.9196014803912242
 40
0.9240691638005097
 40
0.9285372677110876
 40
0.9330058971926383
 40
0.9374751572777713
 40
0.9483519148364074
 40
0.9590289381199623
 40
0.969518733333344
 40
0.9798344876563517
 40
0.9899900662759824
 40
1.0
 40
1.0
 40
1.0
 40
1.0
 10
7.119740712235997
 20
-20.6871469483539
 30
0.0
 10
7.125412224837858
 20
-20.68614892128306
 30
0.0
 10
7.136755543300116
 20
-20.6841528155361
 30
0.0
 10
7.153860600593688
 20
-20.68168586259558
 30
0.0
 10
7.171026961553673
 20
-20.67960574236179
 30
0.0
 10
7.188261528619472
 20
-20.6779502207201
 30
0.0
 10
7.205562426865209
 20
-20.67670916388651
 30
0.0
 10
7.222930137087895
 20
-20.67588528915129
 30
0.0
 10
7.240364508078469
 20
-20.67547786020787
 30
0.0
 10
7.25786555943851
 20
-20.67548706712079
 30
0.0
 10
7.275433265948507
 20
-20.67591284888008
 30
0.0
 10
7.293067615778693
 20
-20.67675521042134
 30
0.0
 10
7.310768594966053
 20
-20.67801413744588
 30
0.0
 10
7.328536191722729
 20
-20.67968961958757
 30
0.0
 10
7.346370395354461
 20
-20.68178164440507
 30
0.0
 10
7.364271196638184
 20
-20.68429019914873
 30
0.0
 10
7.382238587630268
 20
-20.6872152708002
 30
0.0
 10
7.400272562140368
 20
-20.69055684515802
 30
0.0
 10
7.418373113954749
 20
-20.69431491150516
 30
0.0
 10
7.436540243363154
 20
-20.69848944560139
 30
0.0
 10
7.454773932251007
 20
-20.70308047467311
 30
0.0
 10
7.47307423796895
 20
-20.70808783226394
 30
0.0
 10
7.491440937819029
 20
-20.71351208626745
 30
0.0
 10
7.509874874326428
 20
-20.71935102661641
 30
0.0
 10
7.528372860402507
 20
-20.725612966403
 30
0.0
 10
7.552445437865423
 20
-20.73423593858995
 30
0.0
 10
7.585266140523228
 20
-20.74726962187022
 30
0.0
 10
7.630114274892178
 20
-20.76637416214841
 30
0.0
 10
7.685024841062142
 20
-20.7906862081141
 30
0.0
 10
7.734929955647544
 20
-20.81363133321937
 30
0.0
 10
7.776125135616795
 20
-20.83236385818216
 30
0.0
 10
7.804644164567239
 20
-20.84459072831114
 30
0.0
 10
7.831241164206608
 20
-20.85535559049893
 30
0.0
 10
7.855930590327179
 20
-20.86462953027507
 30
0.0
 10
7.878710144568765
 20
-20.87242026322429
 30
0.0
 10
7.899581806147674
 20
-20.87873084372549
 30
0.0
 10
7.918549198877691
 20
-20.88355491793488
 30
0.0
 10
7.935613641265229
 20
-20.88692420580843
 30
0.0
 10
7.952564361816698
 20
-20.88896526315988
 30
0.0
 10
7.969912498595232
 20
-20.88944432484074
 30
0.0
 10
7.988134300496507
 20
-20.88837882391768
 30
0.0
 10
8.005943821062836
 20
-20.8856255810899
 30
0.0
 10
8.038239122374197
 20
-20.87744994998103
 30
0.0
 10
8.08721888234884
 20
-20.85260927366635
 30
0.0
 10
8.134256459167785
 20
-20.81638466432959
 30
0.0
 10
8.173670335874595
 20
-20.78003877057931
 30
0.0
 10
8.20746755419481
 20
-20.74709986637102
 30
0.0
 10
8.251062566854982
 20
-20.7035688874336
 30
0.0
 10
8.293444785852532
 20
-20.66023908560048
 30
0.0
 10
8.331466107601566
 20
-20.6216142722754
 30
0.0
 10
8.361650111917509
 20
-20.5918817150634
 30
0.0
 10
8.390913299577829
 20
-20.56382010436955
 30
0.0
 10
8.419280283848599
 20
-20.53745324272787
 30
0.0
 10
8.446744964855156
 20
-20.51277490178029
 30
0.0
 10
8.47330896514745
 20
-20.48978631449057
 30
0.0
 10
8.498972041947374
 20
-20.46848682275225
 30
0.0
 10
8.523734444946294
 20
-20.44887606241766
 30
0.0
 10
8.54759655469279
 20
-20.43095388555394
 30
0.0
 10
8.570558351717532
 20
-20.41471873954293
 30
0.0
 10
8.592621879594528
 20
-20.40017363341064
 30
0.0
 10
8.613783017527032
 20
-20.3873057583141
 30
0.0
 10
8.644721716594814
 20
-20.37029252179096
 30
0.0
 10
8.68615318483382
 20
-20.35156974192595
 30
0.0
 10
8.739024179664412
 20
-20.33515435333358
 30
0.0
 10
8.791553140752635
 20
-20.32653922242817
 30
0.0
 10
8.843676488515518
 20
-20.32575419866069
 30
0.0
 10
8.895325323532
 20
-20.33282199848132
 30
0.0
 10
8.946426631863957
 20
-20.34771728826623
 30
0.0
 10
8.996944950549446
 20
-20.37037301032946
 30
0.0
 10
9.042822261177896
 20
-20.39831753480853
 30
0.0
 10
9.085029767917165
 20
-20.42987436214291
 30
0.0
 10
9.124671849130511
 20
-20.46382040244718
 30
0.0
 10
9.165466653356217
 20
-20.50306374331794
 30
0.0
 10
9.200231614532889
 20
-20.53964322035779
 30
0.0
 10
9.231461985995338
 20
-20.5753415434035
 30
0.0
 10
9.26207565060336
 20
-20.61164579296969
 30
0.0
 10
9.301250088793926
 20
-20.65881716391379
 30
0.0
 10
9.337101011964426
 20
-20.70280240441972
 30
0.0
 10
9.366835487513464
 20
-20.73887815104468
 30
0.0
 10
9.387250554734878
 20
-20.76264719811367
 30
0.0
 10
9.40650358771703
 20
-20.7842000099489
 30
0.0
 10
9.424617087961927
 20
-20.80351948252295
 30
0.0
 10
9.441585969940276
 20
-20.82061139805464
 30
0.0
 10
9.45741130874281
 20
-20.83547843418448
 30
0.0
 10
9.47209590209486
 20
-20.84812098247854
 30
0.0
 10
9.485636821320163
 20
-20.8585557511798
 30
0.0
 10
9.502241878947729
 20
-20.86951768406579
 30
0.0
 10
9.523438177109924
 20
-20.87967562344704
 30
0.0
 10
9.55041630598588
 20
-20.88703774875993
 30
0.0
 10
9.578916664517944
 20
-20.88951250770663
 30
0.0
 10
9.608861092581684
 20
-20.88716110308317
 30
0.0
 10
9.64022344205009
 20
-20.88002284791776
 30
0.0
 10
9.673049437720078
 20
-20.86821702536784
 30
0.0
 10
9.699448104577085
 20
-20.85527078306599
 30
0.0
 10
9.71968359030567
 20
-20.84435792181868
 30
0.0
 10
9.73345884374095
 20
-20.83714417966011
 30
0.0
 10
9.747252487296983
 20
-20.82997143721925
 30
0.0
 10
9.761083419144
 20
-20.82287350245918
 30
0.0
 10
9.774946576425341
 20
-20.81584131826049
 30
0.0
 10
9.788843315203971
 20
-20.80887731047604
 30
0.0
 10
9.802773273327002
 20
-20.80198083177585
 30
0.0
 10
9.816736543328318
 20
-20.79515204591826
 30
0.0
 10
9.830733117066426
 20
-20.7883909452332
 30
0.0
 10
9.84476293443229
 20
-20.78169739670577
 30
0.0
 10
9.85882624388527
 20
-20.77507194017919
 30
0.0
 10
9.87292211143972
 20
-20.76851254910754
 30
0.0
 10
9.887054024978413
 20
-20.76202679106788
 30
0.0
 10
9.907972695136007
 20
-20.75250897848871
 30
0.0
 10
9.935676536306866
 20
-20.74051503066285
 30
0.0
 10
9.970289421620297
 20
-20.72695722137188
 30
0.0
 10
10.00473305008152
 20
-20.71480770639753
 30
0.0
 10
10.03902256199617
 20
-20.70411964496035
 30
0.0
 10
10.07312913458575
 20
-20.69476145718123
 30
0.0
 10
10.09596387806799
 20
-20.68968547848541
 30
0.0
 10
10.10729878813459
 20
-20.68716581970047
 30
0.0
  0
LINE
  5
69
330
1F
100
AcDbEntity
  8
0
  6
Continuous
 62
     7
370
    25
100
AcDbLine
 10
7.1197407122
 20
13.0761956992
 30
0.0
 11
7.1197407122
 21
-20.6871469484
 31
0.0
  0
LINE
  5
6A
330
1F
100
AcDbEntity
  8
0
  6
Continuous
 62
     7
370
    25
100
AcDbLine
 10
10.1072987881
 20
13.0763110407
 30
0.0
 11
9.9975384393
 21
13.2097666746
 31
0.0
  0
LINE
  5
6B
330
1F
100
AcDbEntity
  8
0
  6
Continuous
 62
     7
370
    25
100
AcDbLine
 10
10.1072987881
 20
-20.6871658197
 30
0.0
 11
10.1072987881
 21
13.0763110407
 31
0.0
  0
MTEXT
  5
6D
330
1F
100
AcDbEntity
  8
0
  6
Continuous
 62
     7
100
AcDbMText
 10
7.1197407122
 20
-20.9287682254
 30
0.0
 40
0.1903
 41
0.0
 71
     1
 72
     1
  1
SOLIDWORKS Educational Product.
  7
SLDTEXTSTYLE0
 73
     1
 44
1.0
  0
MTEXT
  5
6E
330
1F
100
AcDbEntity
  8
0
  6
Continuous
 62
     7
100
AcDbMText
 10
7.1197407122
 20
-21.2142182254
 30
0.0
 40
0.1903
 41
0.0
 71
     1
 72
     1
  1
For Instructional Use Only.
  7
SLDTEXTSTYLE0
 73
     1
 44
1.0
  0
ENDSEC
  0
SECTION
  2
OBJECTS
  0
DICTIONARY
  5
C
330
0
100
AcDbDictionary
281
     1
  3
ACAD_GROUP
350
D
  3
ACAD_LAYOUT
350
1A
  3
ACAD_MLINESTYLE
350
17
  3
ACAD_PLOTSETTINGS
350
19
  3
ACAD_PLOTSTYLENAME
350
E
  3
ACAD_SCALELIST
350
47
  3
DWGPROPS
350
6F
  0
DICTIONARY
  5
D
102
{ACAD_REACTORS
330
C
102
}
330
C
100
AcDbDictionary
281
     1
  0
DICTIONARY
  5
1A
102
{ACAD_REACTORS
330
C
102
}
330
C
100
AcDbDictionary
281
     1
  3
Layout1
350
1E
  3
Layout2
350
26
  3
Model
350
22
  0
DICTIONARY
  5
17
102
{ACAD_REACTORS
330
C
102
}
330
C
100
AcDbDictionary
281
     1
  3
Standard
350
18
  0
DICTIONARY
  5
19
102
{ACAD_REACTORS
330
C
102
}
330
C
100
AcDbDictionary
281
     1
  0
ACDBDICTIONARYWDFLT
  5
E
102
{ACAD_REACTORS
330
C
102
}
330
C
100
AcDbDictionary
281
     1
  3
Normal
350
F
100
AcDbDictionaryWithDefault
340
F
  0
DICTIONARY
  5
47
102
{ACAD_REACTORS
330
C
102
}
330
C
100
AcDbDictionary
281
     1
  3
A0
350
48
  3
A1
350
49
  3
A2
350
4A
  3
A3
350
4B
  3
A4
350
4C
  3
A5
350
4D
  3
A6
350
4E
  3
A7
350
4F
  3
A8
350
50
  3
A9
350
51
  3
B1
350
52
  3
B2
350
53
  3
B3
350
54
  3
B4
350
55
  3
B5
350
56
  3
B6
350
57
  3
B7
350
58
  0
XRECORD
  5
6F
102
{ACAD_REACTORS
330
C
102
}
330
C
100
AcDbXrecord
280
     1
  1
DWGPROPS COOKIE
  2

  3

  4

  6

  7

  8
manny
  9

300
=
301
=
302
=
303
=
304
=
305
=
306
=
307
=
308
=
309
=
 40
0.0
 41
2460633.182625139
 42
2460633.182658612
  1

 90
        0
  0
LAYOUT
  5
1E
102
{ACAD_REACTORS
330
1A
102
}
330
1A
100
AcDbPlotSettings
  1

  2
none_device
  4

  6

 40
0.0
 41
0.0
 42
0.0
 43
0.0
 44
0.0
 45
0.0
 46
0.0
 47
0.0
 48
0.0
 49
0.0
140
0.0
141
0.0
142
1.0
143
1.0
 70
   688
 72
     0
 73
     0
 74
     5
  7

 75
    16
147
1.0
148
0.0
149
0.0
100
AcDbLayout
  1
Layout1
 70
     1
 71
     1
 10
0.0
 20
0.0
 11
12.0
 21
9.0
 12
0.0
 22
0.0
 32
0.0
 14
1.0000000000E+20
 24
1.0000000000E+20
 34
1.0000000000E+20
 15
-1.0000000000E+20
 25
-1.0000000000E+20
 35
-1.0000000000E+20
146
0.0
 13
0.0
 23
0.0
 33
0.0
 16
1.0
 26
0.0
 36
0.0
 17
0.0
 27
1.0
 37
0.0
 76
     0
330
1B
  0
LAYOUT
  5
26
102
{ACAD_REACTORS
330
1A
102
}
330
1A
100
AcDbPlotSettings
  1

  2
none_device
  4

  6

 40
0.0
 41
0.0
 42
0.0
 43
0.0
 44
0.0
 45
0.0
 46
0.0
 47
0.0
 48
0.0
 49
0.0
140
0.0
141
0.0
142
1.0
143
1.0
 70
   688
 72
     0
 73
     0
 74
     5
  7

 75
    16
147
1.0
148
0.0
149
0.0
100
AcDbLayout
  1
Layout2
 70
     1
 71
     2
 10
0.0
 20
0.0
 11
0.0
 21
0.0
 12
0.0
 22
0.0
 32
0.0
 14
0.0
 24
0.0
 34
0.0
 15
0.0
 25
0.0
 35
0.0
146
0.0
 13
0.0
 23
0.0
 33
0.0
 16
1.0
 26
0.0
 36
0.0
 17
0.0
 27
1.0
 37
0.0
 76
     0
330
23
  0
LAYOUT
  5
22
102
{ACAD_REACTORS
330
1A
102
}
330
1A
100
AcDbPlotSettings
  1

  2
none_device
  4
ANSI_A_(11.00_x_8.50_Inches)
  6

 40
6.35
 41
19.05
 42
6.35000508
 43
19.05000254
 44
279.4
 45
215.9
 46
79.4262291345
 47
112.799910788
 48
0.0
 49
0.0
140
0.0
141
0.0
142
0.2464710207
143
1.0
 70
  1696
 72
     0
 73
     0
 74
     0
  7

 75
     0
147
0.5913241897
148
-39.4088153714
149
0.0
100
AcDbLayout
  1
Model
 70
     1
 71
     0
 10
0.0
 20
0.0
 11
12.0
 21
9.0
 12
0.0
 22
0.0
 32
0.0
 14
7.1197407122
 24
-20.8886278162
 34
0.0
 15
10.1072987881
 25
13.2533170458
 35
0.0
146
0.0
 13
0.0
 23
0.0
 33
0.0
 16
1.0
 26
0.0
 36
0.0
 17
0.0
 27
1.0
 37
0.0
 76
     0
330
1F
331
29
  0
MLINESTYLE
  5
18
102
{ACAD_REACTORS
330
17
102
}
330
17
100
AcDbMlineStyle
  2
Standard
 70
     0
  3

 62
   256
 51
90.0
 52
90.0
 71
     2
 49
0.5
 62
   256
  6
BYLAYER
 49
-0.5
 62
   256
  6
BYLAYER
  0
ACDBPLACEHOLDER
  5
F
102
{ACAD_REACTORS
330
E
102
}
330
E
  0
SCALE
  5
48
102
{ACAD_REACTORS
330
47
102
}
330
47
100
AcDbScale
 70
     0
300
1:1
140
1.0
141
1.0
290
     1
  0
SCALE
  5
49
102
{ACAD_REACTORS
330
47
102
}
330
47
100
AcDbScale
 70
     0
300
1/128" = 1'-0"
140
0.0078125
141
12.0
290
     0
  0
SCALE
  5
4A
102
{ACAD_REACTORS
330
47
102
}
330
47
100
AcDbScale
 70
     0
300
1/64" = 1'-0"
140
0.015625
141
12.0
290
     0
  0
SCALE
  5
4B
102
{ACAD_REACTORS
330
47
102
}
330
47
100
AcDbScale
 70
     0
300
1/32" = 1'-0"
140
0.03125
141
12.0
290
     0
  0
SCALE
  5
4C
102
{ACAD_REACTORS
330
47
102
}
330
47
100
AcDbScale
 70
     0
300
1/16" = 1'-0"
140
0.0625
141
12.0
290
     0
  0
SCALE
  5
4D
102
{ACAD_REACTORS
330
47
102
}
330
47
100
AcDbScale
 70
     0
300
3/32" = 1'-0"
140
0.09375
141
12.0
290
     0
  0
SCALE
  5
4E
102
{ACAD_REACTORS
330
47
102
}
330
47
100
AcDbScale
 70
     0
300
1/8" = 1'-0"
140
0.125
141
12.0
290
     0
  0
SCALE
  5
4F
102
{ACAD_REACTORS
330
47
102
}
330
47
100
AcDbScale
 70
     0
300
3/16" = 1'-0"
140
0.1875
141
12.0
290
     0
  0
SCALE
  5
50
102
{ACAD_REACTORS
330
47
102
}
330
47
100
AcDbScale
 70
     0
300
1/4" = 1'-0"
140
0.25
141
12.0
290
     0
  0
SCALE
  5
51
102
{ACAD_REACTORS
330
47
102
}
330
47
100
AcDbScale
 70
     0
300
3/8" = 1'-0"
140
0.375
141
12.0
290
     0
  0
SCALE
  5
52
102
{ACAD_REACTORS
330
47
102
}
330
47
100
AcDbScale
 70
     0
300
1/2" = 1'-0"
140
0.5
141
12.0
290
     0
  0
SCALE
  5
53
102
{ACAD_REACTORS
330
47
102
}
330
47
100
AcDbScale
 70
     0
300
3/4" = 1'-0"
140
0.75
141
12.0
290
     0
  0
SCALE
  5
54
102
{ACAD_REACTORS
330
47
102
}
330
47
100
AcDbScale
 70
     0
300
1" = 1'-0"
140
1.0
141
12.0
290
     0
  0
SCALE
  5
55
102
{ACAD_REACTORS
330
47
102
}
330
47
100
AcDbScale
 70
     0
300
1-1/2" = 1'-0"
140
1.5
141
12.0
290
     0
  0
SCALE
  5
56
102
{ACAD_REACTORS
330
47
102
}
330
47
100
AcDbScale
 70
     0
300
3" = 1'-0"
140
3.0
141
12.0
290
     0
  0
SCALE
  5
57
102
{ACAD_REACTORS
330
47
102
}
330
47
100
AcDbScale
 70
     0
300
6" = 1'-0"
140
6.0
141
12.0
290
     0
  0
SCALE
  5
58
102
{ACAD_REACTORS
330
47
102
}
330
47
100
AcDbScale
 70
     0
300
1'-0" = 1'-0"
140
12.0
141
12.0
290
     0
  0
ENDSEC
  0
EOF
