  0
SECTION
  2
HEADER
  9
$ACADVER
  1
AC1015
  9
$ACADMAINTVER
 70
     6
  9
$DWGCODEPAGE
  3
ANSI_1252
  9
$INSBASE
 10
0.0
 20
0.0
 30
0.0
  9
$EXTMIN
 10
-3.6678936603
 20
-21.8239914855
 30
0.0
  9
$EXTMAX
 10
-0.6803348037
 20
6.8242122076
 30
0.0
  9
$LIMMIN
 10
0.0
 20
0.0
  9
$LIMMAX
 10
12.0
 20
9.0
  9
$ORTHOMODE
 70
     0
  9
$REGENMODE
 70
     1
  9
$FILLMODE
 70
     1
  9
$QTEXTMODE
 70
     0
  9
$MIRRTEXT
 70
     1
  9
$LTSCALE
 40
1.0
  9
$ATTMODE
 70
     1
  9
$TEXTSIZE
 40
0.1377952756
  9
$TRACEWID
 40
0.05
  9
$TEXTSTYLE
  7
Standard
  9
$CLAYER
  8
0
  9
$CELTYPE
  6
ByLayer
  9
$CECOLOR
 62
   256
  9
$CELTSCALE
 40
1.0
  9
$DISPSILH
 70
     0
  9
$DIMSCALE
 40
1.0
  9
$DIMASZ
 40
0.13
  9
$DIMEXO
 40
0.0
  9
$DIMDLI
 40
0.38
  9
$DIMRND
 40
0.0
  9
$DIMDLE
 40
0.0
  9
$DIMEXE
 40
0.0393700787
  9
$DIMTP
 40
0.0
  9
$DIMTM
 40
0.0
  9
$DIMTXT
 40
0.1377952756
  9
$DIMCEN
 40
0.09
  9
$DIMTSZ
 40
0.0
  9
$DIMTOL
 70
     0
  9
$DIMLIM
 70
     0
  9
$DIMTIH
 70
     1
  9
$DIMTOH
 70
     1
  9
$DIMSE1
 70
     0
  9
$DIMSE2
 70
     0
  9
$DIMTAD
 70
     1
  9
$DIMZIN
 70
     1
  9
$DIMBLK
  1

  9
$DIMASO
 70
     1
  9
$DIMSHO
 70
     1
  9
$DIMPOST
  1

  9
$DIMAPOST
  1

  9
$DIMALT
 70
     0
  9
$DIMALTD
 70
     2
  9
$DIMALTF
 40
25.4
  9
$DIMLFAC
 40
1.0
  9
$DIMTOFL
 70
     0
  9
$DIMTVP
 40
0.0
  9
$DIMTIX
 70
     0
  9
$DIMSOXD
 70
     0
  9
$DIMSAH
 70
     0
  9
$DIMBLK1
  1

  9
$DIMBLK2
  1

  9
$DIMSTYLE
  2
Standard
  9
$DIMCLRD
 70
     0
  9
$DIMCLRE
 70
     0
  9
$DIMCLRT
 70
     0
  9
$DIMTFAC
 40
1.0
  9
$DIMGAP
 40
0.06
  9
$DIMJUST
 70
     0
  9
$DIMSD1
 70
     0
  9
$DIMSD2
 70
     0
  9
$DIMTOLJ
 70
     1
  9
$DIMTZIN
 70
     1
  9
$DIMALTZ
 70
     0
  9
$DIMALTTZ
 70
     0
  9
$DIMUPT
 70
     0
  9
$DIMDEC
 70
     2
  9
$DIMTDEC
 70
     2
  9
$DIMALTU
 70
     2
  9
$DIMALTTD
 70
     2
  9
$DIMTXSTY
  7
Standard
  9
$DIMAUNIT
 70
     0
  9
$DIMADEC
 70
     2
  9
$DIMALTRND
 40
0.0
  9
$DIMAZIN
 70
     0
  9
$DIMDSEP
 70
    46
  9
$DIMATFIT
 70
     3
  9
$DIMFRAC
 70
     0
  9
$DIMLDRBLK
  1

  9
$DIMLUNIT
 70
     2
  9
$DIMLWD
 70
    -2
  9
$DIMLWE
 70
    -2
  9
$DIMTMOVE
 70
     0
  9
$LUNITS
 70
     2
  9
$LUPREC
 70
     2
  9
$SKETCHINC
 40
0.1
  9
$FILLETRAD
 40
0.0
  9
$AUNITS
 70
     0
  9
$AUPREC
 70
     2
  9
$MENU
  1
.
  9
$ELEVATION
 40
0.0
  9
$PELEVATION
 40
0.0
  9
$THICKNESS
 40
0.0
  9
$LIMCHECK
 70
     0
  9
$CHAMFERA
 40
0.0
  9
$CHAMFERB
 40
0.0
  9
$CHAMFERC
 40
0.0
  9
$CHAMFERD
 40
0.0
  9
$SKPOLY
 70
     0
  9
$TDCREATE
 40
2460632.811849225
  9
$TDUCREATE
 40
2460633.145182558
  9
$TDUPDATE
 40
2460632.811941597
  9
$TDUUPDATE
 40
2460633.145274931
  9
$TDINDWG
 40
0.0000000116
  9
$TDUSRTIMER
 40
0.0000000116
  9
$USRTIMER
 70
     1
  9
$ANGBASE
 50
0.0
  9
$ANGDIR
 70
     0
  9
$PDMODE
 70
     0
  9
$PDSIZE
 40
-1.0
  9
$PLINEWID
 40
0.0
  9
$SPLFRAME
 70
     0
  9
$SPLINETYPE
 70
     6
  9
$SPLINESEGS
 70
     8
  9
$HANDSEED
  5
6D
  9
$SURFTAB1
 70
     6
  9
$SURFTAB2
 70
     6
  9
$SURFTYPE
 70
     6
  9
$SURFU
 70
     6
  9
$SURFV
 70
     6
  9
$UCSBASE
  2

  9
$UCSNAME
  2

  9
$UCSORG
 10
0.0
 20
0.0
 30
0.0
  9
$UCSXDIR
 10
1.0
 20
0.0
 30
0.0
  9
$UCSYDIR
 10
0.0
 20
1.0
 30
0.0
  9
$UCSORTHOREF
  2

  9
$UCSORTHOVIEW
 70
     0
  9
$UCSORGTOP
 10
0.0
 20
0.0
 30
0.0
  9
$UCSORGBOTTOM
 10
0.0
 20
0.0
 30
0.0
  9
$UCSORGLEFT
 10
0.0
 20
0.0
 30
0.0
  9
$UCSORGRIGHT
 10
0.0
 20
0.0
 30
0.0
  9
$UCSORGFRONT
 10
0.0
 20
0.0
 30
0.0
  9
$UCSORGBACK
 10
0.0
 20
0.0
 30
0.0
  9
$PUCSBASE
  2

  9
$PUCSNAME
  2

  9
$PUCSORG
 10
0.0
 20
0.0
 30
0.0
  9
$PUCSXDIR
 10
1.0
 20
0.0
 30
0.0
  9
$PUCSYDIR
 10
0.0
 20
1.0
 30
0.0
  9
$PUCSORTHOREF
  2

  9
$PUCSORTHOVIEW
 70
     0
  9
$PUCSORGTOP
 10
0.0
 20
0.0
 30
0.0
  9
$PUCSORGBOTTOM
 10
0.0
 20
0.0
 30
0.0
  9
$PUCSORGLEFT
 10
0.0
 20
0.0
 30
0.0
  9
$PUCSORGRIGHT
 10
0.0
 20
0.0
 30
0.0
  9
$PUCSORGFRONT
 10
0.0
 20
0.0
 30
0.0
  9
$PUCSORGBACK
 10
0.0
 20
0.0
 30
0.0
  9
$USERI1
 70
     0
  9
$USERI2
 70
     0
  9
$USERI3
 70
     0
  9
$USERI4
 70
     0
  9
$USERI5
 70
     0
  9
$USERR1
 40
0.0
  9
$USERR2
 40
0.0
  9
$USERR3
 40
0.0
  9
$USERR4
 40
0.0
  9
$USERR5
 40
0.0
  9
$WORLDVIEW
 70
     1
  9
$SHADEDGE
 70
     3
  9
$SHADEDIF
 70
    70
  9
$TILEMODE
 70
     1
  9
$MAXACTVP
 70
    64
  9
$PINSBASE
 10
0.0
 20
0.0
 30
0.0
  9
$PLIMCHECK
 70
     0
  9
$PEXTMIN
 10
1.0000000000E+20
 20
1.0000000000E+20
 30
1.0000000000E+20
  9
$PEXTMAX
 10
-1.0000000000E+20
 20
-1.0000000000E+20
 30
-1.0000000000E+20
  9
$PLIMMIN
 10
0.0
 20
0.0
  9
$PLIMMAX
 10
12.0
 20
9.0
  9
$UNITMODE
 70
     0
  9
$VISRETAIN
 70
     1
  9
$PLINEGEN
 70
     0
  9
$PSLTSCALE
 70
     1
  9
$TREEDEPTH
 70
  3020
  9
$CMLSTYLE
  2
Standard
  9
$CMLJUST
 70
     0
  9
$CMLSCALE
 40
1.0
  9
$PROXYGRAPHICS
 70
     1
  9
$MEASUREMENT
 70
     0
  9
$CELWEIGHT
370
    -1
  9
$ENDCAPS
280
     0
  9
$JOINSTYLE
280
     0
  9
$LWDISPLAY
290
     1
  9
$INSUNITS
 70
     1
  9
$HYPERLINKBASE
  1

  9
$STYLESHEET
  1

  9
$XEDIT
290
     1
  9
$CEPSNTYPE
380
     0
  9
$PSTYLEMODE
290
     1
  9
$FINGERPRINTGUID
  2
{55e7067a-60ca-47f9-9880-1167100863c7}
  9
$VERSIONGUID
  2
{FAEB1C32-E019-11D5-929B-00C0DF256EC4}
  9
$EXTNAMES
290
     1
  9
$PSVPSCALE
 40
0.0
  9
$OLESTARTUP
290
     0
  0
ENDSEC
  0
SECTION
  2
CLASSES
  0
CLASS
  1
ACDBDICTIONARYWDFLT
  2
AcDbDictionaryWithDefault
  3
ObjectDBX Classes
 90
        0
280
     0
281
     0
  0
CLASS
  1
VISUALSTYLE
  2
AcDbVisualStyle
  3
ObjectDBX Classes
 90
     4095
280
     0
281
     0
  0
CLASS
  1
MATERIAL
  2
AcDbMaterial
  3
ObjectDBX Classes
 90
     1153
280
     0
281
     0
  0
CLASS
  1
SCALE
  2
AcDbScale
  3
ObjectDBX Classes
 90
     1153
280
     0
281
     0
  0
CLASS
  1
TABLESTYLE
  2
AcDbTableStyle
  3
ObjectDBX Classes
 90
     4095
280
     0
281
     0
  0
CLASS
  1
MLEADERSTYLE
  2
AcDbMLeaderStyle
  3
ACDB_MLEADERSTYLE_CLASS
 90
     4095
280
     0
281
     0
  0
CLASS
  1
SUN
  2
AcDbSun
  3
SCENEOE
 90
     1153
280
     0
281
     0
  0
CLASS
  1
ACDBPLACEHOLDER
  2
AcDbPlaceHolder
  3
ObjectDBX Classes
 90
        0
280
     0
281
     0
  0
CLASS
  1
LAYOUT
  2
AcDbLayout
  3
ObjectDBX Classes
 90
        0
280
     0
281
     0
  0
ENDSEC
  0
SECTION
  2
TABLES
  0
TABLE
  2
VPORT
  5
8
330
0
100
AcDbSymbolTable
 70
     1
  0
VPORT
  5
29
330
8
100
AcDbSymbolTableRecord
100
AcDbViewportTableRecord
  2
*Active
 70
     0
 10
0.0
 20
0.0
 11
1.0
 21
1.0
 12
-2.174114232
 22
-7.4998896389
 13
0.0
 23
0.0
 14
0.5
 24
0.5
 15
0.5
 25
0.5
 16
0.0
 26
0.0
 36
1.0
 17
0.0
 27
0.0
 37
0.0
 40
29.2211677669
 41
0.1042843345
 42
50.0
 43
0.0
 44
0.0
 50
0.0
 51
0.0
 71
     0
 72
   100
 73
     1
 74
     3
 75
     0
 76
     0
 77
     0
 78
     0
281
     0
 65
     1
110
0.0
120
0.0
130
0.0
111
1.0
121
0.0
131
0.0
112
0.0
122
1.0
132
0.0
 79
     0
146
0.0
  0
ENDTAB
  0
TABLE
  2
LTYPE
  5
5
330
0
100
AcDbSymbolTable
 70
     6
  0
LTYPE
  5
14
330
5
100
AcDbSymbolTableRecord
100
AcDbLinetypeTableRecord
  2
ByBlock
 70
     0
  3

 72
    65
 73
     0
 40
0.0
  0
LTYPE
  5
15
330
5
100
AcDbSymbolTableRecord
100
AcDbLinetypeTableRecord
  2
ByLayer
 70
     0
  3

 72
    65
 73
     0
 40
0.0
  0
LTYPE
  5
16
330
5
100
AcDbSymbolTableRecord
100
AcDbLinetypeTableRecord
  2
Continuous
 70
     0
  3
Solid line
 72
    65
 73
     0
 40
0.0
  0
LTYPE
  5
5E
330
5
100
AcDbSymbolTableRecord
100
AcDbLinetypeTableRecord
  2
HIDDEN
 70
     0
  3
Hidden __ __ __ __ __ __ __ __ __ __ __ __ __ __
 72
    65
 73
     2
 40
0.075
 49
0.05
 74
     0
 49
-0.025
 74
     0
  0
LTYPE
  5
5F
330
5
100
AcDbSymbolTableRecord
100
AcDbLinetypeTableRecord
  2
PHANTOM
 70
     0
  3
Phantom ______  __  __  ______  __  __  ______
 72
    65
 73
     6
 40
0.5
 49
0.25
 74
     0
 49
-0.05
 74
     0
 49
0.05
 74
     0
 49
-0.05
 74
     0
 49
0.05
 74
     0
 49
-0.05
 74
     0
  0
LTYPE
  5
60
330
5
100
AcDbSymbolTableRecord
100
AcDbLinetypeTableRecord
  2
CENTER
 70
     0
  3
Center ____ _ ____ _ ____ _ ____ _ ____ _ ____
 72
    65
 73
     4
 40
0.4
 49
0.25
 74
     0
 49
-0.05
 74
     0
 49
0.05
 74
     0
 49
-0.05
 74
     0
  0
LTYPE
  5
61
330
5
100
AcDbSymbolTableRecord
100
AcDbLinetypeTableRecord
  2
CENTERX2
 70
     0
  3
Center (2x) ________  __  ________  __  _____
 72
    65
 73
     4
 40
0.8
 49
0.5
 74
     0
 49
-0.1
 74
     0
 49
0.1
 74
     0
 49
-0.1
 74
     0
  0
LTYPE
  5
62
330
5
100
AcDbSymbolTableRecord
100
AcDbLinetypeTableRecord
  2
DOT2
 70
     0
  3
Dot (.5x) ........................................
 72
    65
 73
     2
 40
0.025
 49
0.0
 74
     0
 49
-0.025
 74
     0
  0
ENDTAB
  0
TABLE
  2
LAYER
  5
2
330
0
100
AcDbSymbolTable
 70
     1
  0
LAYER
  5
10
330
2
100
AcDbSymbolTableRecord
100
AcDbLayerTableRecord
  2
0
 70
     0
 62
     7
  6
Continuous
370
    -3
390
F
  0
ENDTAB
  0
TABLE
  2
STYLE
  5
3
330
0
100
AcDbSymbolTable
 70
     2
  0
STYLE
  5
11
330
3
100
AcDbSymbolTableRecord
100
AcDbTextStyleTableRecord
  2
Standard
 70
     0
 40
0.0
 41
1.0
 50
0.0
 71
     0
 42
0.1377952756
  3
txt
  4

  0
STYLE
  5
69
330
3
100
AcDbSymbolTableRecord
100
AcDbTextStyleTableRecord
  2
SLDTEXTSTYLE0
 70
     0
 40
0.0
 41
0.7
 50
0.0
 71
     0
 42
0.1377952756
  3
TXT
  4

  0
ENDTAB
  0
TABLE
  2
VIEW
  5
6
330
0
100
AcDbSymbolTable
 70
     0
  0
ENDTAB
  0
TABLE
  2
UCS
  5
7
330
0
100
AcDbSymbolTable
 70
     0
  0
ENDTAB
  0
TABLE
  2
APPID
  5
9
330
0
100
AcDbSymbolTable
 70
     1
  0
APPID
  5
12
330
9
100
AcDbSymbolTableRecord
100
AcDbRegAppTableRecord
  2
ACAD
 70
     0
  0
ENDTAB
  0
TABLE
  2
DIMSTYLE
  5
A
330
0
100
AcDbSymbolTable
 70
     1
100
AcDbDimStyleTable
  0
DIMSTYLE
105
27
330
A
100
AcDbSymbolTableRecord
100
AcDbDimStyleTableRecord
  2
Standard
 70
     0
178
     0
340
11
  0
ENDTAB
  0
TABLE
  2
BLOCK_RECORD
  5
1
330
0
100
AcDbSymbolTable
 70
     1
  0
BLOCK_RECORD
  5
1F
330
1
100
AcDbSymbolTableRecord
100
AcDbBlockTableRecord
  2
*Model_Space
340
22
  0
BLOCK_RECORD
  5
1B
330
1
100
AcDbSymbolTableRecord
100
AcDbBlockTableRecord
  2
*Paper_Space
340
1E
  0
BLOCK_RECORD
  5
23
330
1
100
AcDbSymbolTableRecord
100
AcDbBlockTableRecord
  2
*Paper_Space0
340
26
  0
ENDTAB
  0
ENDSEC
  0
SECTION
  2
BLOCKS
  0
BLOCK
  5
20
330
1F
100
AcDbEntity
  8
0
100
AcDbBlockBegin
  2
*Model_Space
 70
     0
 10
0.0
 20
0.0
 30
0.0
  3
*Model_Space
  1

  0
ENDBLK
  5
21
330
1F
100
AcDbEntity
  8
0
100
AcDbBlockEnd
  0
BLOCK
  5
1C
330
1B
100
AcDbEntity
 67
     1
  8
0
100
AcDbBlockBegin
  2
*Paper_Space
 70
     0
 10
0.0
 20
0.0
 30
0.0
  3
*Paper_Space
  1

  0
ENDBLK
  5
1D
330
1B
100
AcDbEntity
 67
     1
  8
0
100
AcDbBlockEnd
  0
BLOCK
  5
24
330
23
100
AcDbEntity
  8
0
100
AcDbBlockBegin
  2
*Paper_Space0
 70
     0
 10
0.0
 20
0.0
 30
0.0
  3
*Paper_Space0
  1

  0
ENDBLK
  5
25
330
23
100
AcDbEntity
  8
0
100
AcDbBlockEnd
  0
ENDSEC
  0
SECTION
  2
ENTITIES
  0
SPLINE
  5
65
330
1F
100
AcDbEntity
  8
0
  6
Continuous
 62
     7
370
    25
100
AcDbSpline
210
0.0
220
0.0
230
1.0
 70
     8
 71
     3
 72
    94
 73
    90
 74
     0
 42
0.00000001
 43
0.00000001
 40
0.0
 40
0.0
 40
0.0
 40
0.0
 40
0.0042733599670527
 40
0.0085654101813173
 40
0.0128790259752557
 40
0.0172170397990989
 40
0.0215822366098037
 40
0.0259773496912513
 40
0.0304050569245072
 40
0.0348679775187292
 40
0.0393686692055072
 40
0.0439096258922325
 40
0.0484932757636996
 40
0.053121979815578
 40
0.0577980307988039
 40
0.0625236525502555
 40
0.0760986128471407
 40
0.091028385426542
 40
0.1073407976801904
 40
0.125057162991475
 40
0.135528414880584
 40
0.1563266838521499
 40
0.1687699063148675
 40
0.1791916963963999
 40
0.1875962085225218
 40
0.2049002079303499
 40
0.2188430444274325
 40
0.226690126682155
 40
0.2343914392464103
 40
0.2421294415393069
 40
0.2500840686663274
 40
0.2606098540787711
 40
0.2744722828240759
 40
0.2917739656167383
 40
0.312566657812954
 40
0.3229242878734036
 40
0.3325550807865509
 40
0.3414593489094499
 40
0.3496374878465641
 40
0.3570900088392747
 40
0.3638175885541914
 40
0.3698211487892614
 40
0.3751019904999534
 40
0.3957164238837128
 40
0.4151661299280211
 40
0.4335743465793408
 40
0.4510863136004711
 40
0.4678705535657386
 40
0.4841182490044636
 40
0.500039922174164
 40
0.5258721215421676
 40
0.5549495430955986
 40
0.5878369672182372
 40
0.6249255259374339
 40
0.6359205155065903
 40
0.6561951263800808
 40
0.6687046538402728
 40
0.6791265598274755
 40
0.687465031719664
 40
0.7047881393577501
 40
0.7187132542187479
 40
0.7265563990989921
 40
0.7342565065442278
 40
0.7419955640760977
 40
0.7499528872474126
 40
0.7604421256738738
 40
0.7742921799095572
 40
0.7916056049533503
 40
0.8124338592252328
 40
0.8228251028521582
 40
0.8324799185534645
 40
0.8413986099898232
 40
0.8495815627726806
 40
0.8570292767947572
 40
0.8637424161990513
 40
0.869721889902232
 40
0.8749689880975442
 40
0.8887193170405888
 40
0.901817206842991
 40
0.9142910776877838
 40
0.9261738280332215
 40
0.9375035068916061
 40
0.9463710311594865
 40
0.9552096218931524
 40
0.9640489294098367
 40
0.9729185968383979
 40
0.9818479649522978
 40
0.9908657918099876
 40
1.0
 40
1.0
 40
1.0
 40
1.0
 10
-3.667893660295862
 20
-21.47324040714452
 30
0.0
 10
-3.663144720836495
 20
-21.47388323955999
 30
0.0
 10
-3.653626071644914
 20
-21.47517171592493
 30
0.0
 10
-3.63938394343838
 20
-21.47758117343384
 30
0.0
 10
-3.625133459294847
 20
-21.48034354078221
 30
0.0
 10
-3.610879030428819
 20
-21.48349322886606
 30
0.0
 10
-3.596619481333058
 20
-21.48702092560111
 30
0.0
 10
-3.582355143161925
 20
-21.49092912777221
 30
0.0
 10
-3.568085937299493
 20
-21.49521713885198
 30
0.0
 10
-3.553811893831376
 20
-21.49988512626868
 30
0.0
 10
-3.539533010397504
 20
-21.50493302262248
 30
0.0
 10
-3.52524929388336
 20
-21.51036082734838
 30
0.0
 10
-3.510960736545395
 20
-21.51616851094229
 30
0.0
 10
-3.496667370728038
 20
-21.52235609503254
 30
0.0
 10
-3.482369072042953
 20
-21.52892342672599
 30
0.0
 10
-3.459191908079095
 20
-21.54018176152878
 30
0.0
 10
-3.426342188225499
 20
-21.55781376223642
 30
0.0
 10
-3.383203614326478
 20
-21.58362425365248
 30
0.0
 10
-3.337229063023733
 20
-21.61365020308375
 30
0.0
 10
-3.296313496148441
 20
-21.64223236851851
 30
0.0
 10
-3.25212436127037
 20
-21.67486444053489
 30
0.0
 10
-3.212784067973853
 20
-21.70410514319186
 30
0.0
 10
-3.173357394366215
 20
-21.73313864865581
 30
0.0
 10
-3.144759347847049
 20
-21.75343246055456
 30
0.0
 10
-3.111198122536536
 20
-21.77613595857781
 30
0.0
 10
-3.072857369346643
 20
-21.79877444300276
 30
0.0
 10
-3.032285278648816
 20
-21.81605939663097
 30
0.0
 10
-2.999846978609723
 20
-21.82311934926285
 30
0.0
 10
-2.973671523911272
 20
-21.82466956823968
 30
0.0
 10
-2.94746716496135
 20
-21.82210610417395
 30
0.0
 10
-2.918823656856365
 20
-21.81495736588958
 30
0.0
 10
-2.885573257552884
 20
-21.80011990548008
 30
0.0
 10
-2.845018725219726
 20
-21.7768097119727
 30
0.0
 10
-2.7963408343357
 20
-21.7447365785557
 30
0.0
 10
-2.752390331359176
 20
-21.7127790300751
 30
0.0
 10
-2.715722535363848
 20
-21.68545363371324
 30
0.0
 10
-2.689579498430412
 20
-21.66631530004914
 30
0.0
 10
-2.665316415071344
 20
-21.6487477164338
 30
0.0
 10
-2.642913168410869
 20
-21.63277747142161
 30
0.0
 10
-2.62237518884587
 20
-21.61839696082806
 30
0.0
 10
-2.603699905803474
 20
-21.60560982238835
 30
0.0
 10
-2.586893071124367
 20
-21.59440596199808
 30
0.0
 10
-2.556786074272217
 20
-21.57508961064949
 30
0.0
 10
-2.512787609349386
 20
-21.54950360015358
 30
0.0
 10
-2.453777543090287
 20
-21.52077057752649
 30
0.0
 10
-2.395784303248962
 20
-21.49836113516645
 30
0.0
 10
-2.338818400640247
 20
-21.48227065248717
 30
0.0
 10
-2.282874164490582
 20
-21.47252182417819
 30
0.0
 10
-2.227965096454409
 20
-21.46915573233245
 30
0.0
 10
-2.162864554609349
 20
-21.47274830684042
 30
0.0
 10
-2.084875175061686
 20
-21.49004157961232
 30
0.0
 10
-1.992984468444786
 20
-21.52618080358685
 30
0.0
 10
-1.895076831726742
 20
-21.57907633766586
 30
0.0
 10
-1.819532686753027
 20
-21.62965811580749
 30
0.0
 10
-1.757865807680217
 20
-21.67518529862263
 30
0.0
 10
-1.718460054954313
 20
-21.70446442352391
 30
0.0
 10
-1.679450978186032
 20
-21.73319990173178
 30
0.0
 10
-1.650859105400117
 20
-21.75350322523117
 30
0.0
 10
-1.61733835043223
 20
-21.77617331196665
 30
0.0
 10
-1.579051046036789
 20
-21.7987580366731
 30
0.0
 10
-1.538487935261735
 20
-21.81605616138416
 30
0.0
 10
-1.506073322566106
 20
-21.82310565313448
 30
0.0
 10
-1.479902916124233
 20
-21.82465854212224
 30
0.0
 10
-1.453695859544262
 20
-21.82210117977849
 30
0.0
 10
-1.425081356509839
 20
-21.81498735137005
 30
0.0
 10
-1.391875231088142
 20
-21.80017566045536
 30
0.0
 10
-1.351360744486386
 20
-21.77687985915171
 30
0.0
 10
-1.302647222862607
 20
-21.74479011014801
 30
0.0
 10
-1.258613291509782
 20
-21.71279313283743
 30
0.0
 10
-1.221851232640582
 20
-21.68541933344876
 30
0.0
 10
-1.195637889822821
 20
-21.66624025939596
 30
0.0
 10
-1.171332258711892
 20
-21.64864873130032
 30
0.0
 10
-1.148914360289758
 20
-21.63267117232467
 30
0.0
 10
-1.128389689776153
 20
-21.6182998967621
 30
0.0
 10
-1.10975536826513
 20
-21.60553891327606
 30
0.0
 10
-1.093018194986322
 20
-21.59437684207584
 30
0.0
 10
-1.06944380764184
 20
-21.5792518618358
 30
0.0
 10
-1.03855124754822
 20
-21.56076207538162
 30
0.0
 10
-0.999771600481053
 20
-21.53974509564644
 30
0.0
 10
-0.9618904469256354
 20
-21.52156183002867
 30
0.0
 10
-0.9249154254053119
 20
-21.50620496297816
 30
0.0
 10
-0.8909198792120009
 20
-21.4943654022171
 30
0.0
 10
-0.8595517296496681
 20
-21.48557315304878
 30
0.0
 10
-0.8304510842444166
 20
-21.47922858401367
 30
0.0
 10
-0.8010306494114641
 20
-21.47457955066782
 30
0.0
 10
-0.7712881863560497
 20
-21.47162324896253
 30
0.0
 10
-0.7412289958987269
 20
-21.47039574721881
 30
0.0
 10
-0.7108397422908772
 20
-21.47075279430889
 30
0.0
 10
-0.6905464864510191
 20
-21.47240028232078
 30
0.0
 10
-0.6803348036723477
 20
-21.47322930774143
 30
0.0
  0
SPLINE
  5
66
330
1F
100
AcDbEntity
  8
0
  6
Continuous
 62
     7
370
    25
100
AcDbSpline
210
0.0
220
0.0
230
1.0
 70
     8
 71
     3
 72
    94
 73
    90
 74
     0
 42
0.00000001
 43
0.00000001
 40
0.0
 40
0.0
 40
0.0
 40
0.0
 40
0.0032518248134469
 40
0.0069869458173096
 40
0.01120705997276
 40
0.0159133396427276
 40
0.0211066279511362
 40
0.0267875511905336
 40
0.0329565871383122
 40
0.0396141084843857
 40
0.0467604114934429
 40
0.0543957355334853
 40
0.0625202767495199
 40
0.0750456816044553
 40
0.0867260259184006
 40
0.0975639866093593
 40
0.1075629171881449
 40
0.1167270923083698
 40
0.1250620710535797
 40
0.159397833773482
 40
0.1909635364463825
 40
0.22074138860048
 40
0.2498948666535263
 40
0.2643931196319853
 40
0.2795863417686771
 40
0.2955703198778082
 40
0.3124273662182065
 40
0.33016509237198
 40
0.3510009467298047
 40
0.3749668050028311
 40
0.3864917887882566
 40
0.3969547737401621
 40
0.4063563780150368
 40
0.4146974557491721
 40
0.4219792342805792
 40
0.4282035676089015
 40
0.4333734475080578
 40
0.4374941630951087
 40
0.4434486056033304
 40
0.4490664046278638
 40
0.4543733728574436
 40
0.4594001136815637
 40
0.4641826130751204
 40
0.468762617791193
 40
0.4781384935662844
 40
0.4884624108338074
 40
0.5000016971410224
 40
0.505652136748064
 40
0.5132020372264882
 40
0.5226607116115611
 40
0.5340327843961947
 40
0.5473208825341014
 40
0.5625266399711281
 40
0.5750265597699431
 40
0.5866916068358177
 40
0.597524493074809
 40
0.6075286071600445
 40
0.6167082556358577
 40
0.6250690191652363
 40
0.6593823840638309
 40
0.6909409903537693
 40
0.7207253814838378
 40
0.7498955714513522
 40
0.7643597182877171
 40
0.7795415611136869
 40
0.7955374227480887
 40
0.812429706702823
 40
0.8301435835740314
 40
0.850979412481338
 40
0.8749691335675582
 40
0.8864934957909328
 40
0.8969560921600308
 40
0.9063575377752643
 40
0.914698682497429
 40
0.9219807474272697
 40
0.928205576963499
 40
0.933376147010816
 40
0.9374977177332111
 40
0.9434484325769078
 40
0.9490638334844016
 40
0.954369765057735
 40
0.9593968471813966
 40
0.964181056813437
 40
0.9687640941509138
 40
0.9740594874193949
 40
0.9797718732627584
 40
0.9859669308462619
 40
0.9926962212387368
 40
1.0
 40
1.0
 40
1.0
 40
1.0
 10
-0.6803348036723542
 20
6.795476875652669
 30
0.0
 10
-0.6835028876861942
 20
6.793671736342334
 30
0.0
 10
-0.690309906089474
 20
6.789793172373623
 30
0.0
 10
-0.7010198534036657
 20
6.783217342322325
 30
0.0
 10
-0.7130000917617942
 20
6.775600196453117
 30
0.0
 10
-0.7262286033157757
 20
6.766901754301395
 30
0.0
 10
-0.7407122312780198
 20
6.75713372114584
 30
0.0
 10
-0.7564487101602122
 20
6.74629179225933
 30
0.0
 10
-0.7734384950813549
 20
6.734376674284153
 30
0.0
 10
-0.7916818468488482
 20
6.721388501254298
 30
0.0
 10
-0.8111765194482428
 20
6.707324188664855
 30
0.0
 10
-0.8319317401544958
 20
6.692196095294073
 30
0.0
 10
-0.8574362540764294
 20
6.673346022561135
 30
0.0
 10
-0.8866720102811635
 20
6.651912749644076
 30
0.0
 10
-0.9187273497243468
 20
6.629186703059583
 30
0.0
 10
-0.948797922580271
 20
6.608566517771296
 30
0.0
 10
-0.9768983069221924
 20
6.590072490185645
 30
0.0
 10
-1.003023903236157
 20
6.573691543976018
 30
0.0
 10
-1.053085765856626
 20
6.544170380193826
 30
0.0
 10
-1.128286291075697
 20
6.507696084936674
 30
0.0
 10
-1.231653315540926
 20
6.477009446315337
 30
0.0
 10
-1.33331337654998
 20
6.466989853382255
 30
0.0
 10
-1.415772319217719
 20
6.476258622187794
 30
0.0
 10
-1.479570418058893
 20
6.493342419206713
 30
0.0
 10
-1.527852347710009
 20
6.510586417660306
 30
0.0
 10
-1.577088240051949
 20
6.532524479668295
 30
0.0
 10
-1.627263936692611
 20
6.559044090011687
 30
0.0
 10
-1.680278215002327
 20
6.59153802315236
 30
0.0
 10
-1.738424148561288
 20
6.630761578626534
 30
0.0
 10
-1.789496946944806
 20
6.667925394583879
 30
0.0
 10
-1.830880419133787
 20
6.698620575974711
 30
0.0
 10
-1.859355110292366
 20
6.719307169445754
 30
0.0
 10
-1.885081537703295
 20
6.737700873410308
 30
0.0
 10
-1.90807962408953
 20
6.753775478068594
 30
0.0
 10
-1.928342400656039
 20
6.767542132549674
 30
0.0
 10
-1.945875620461671
 20
6.778993139185895
 30
0.0
 10
-1.960661871332444
 20
6.788163190176575
 30
0.0
 10
-1.975550296098617
 20
6.796572737156334
 30
0.0
 10
-1.991390006400603
 20
6.804266218187111
 30
0.0
 10
-2.008881920591567
 20
6.811524000737675
 30
0.0
 10
-2.02587376744222
 20
6.817163807603317
 30
0.0
 10
-2.042353129340789
 20
6.821208708074388
 30
0.0
 10
-2.058325540525973
 20
6.823649335860196
 30
0.0
 10
-2.079339821095953
 20
6.824776264976484
 30
0.0
 10
-2.106601060989808
 20
6.821784056505434
 30
0.0
 10
-2.1402929407067
 20
6.811753673236566
 30
0.0
 10
-2.168494229681284
 20
6.798996523660973
 30
0.0
 10
-2.192510131534002
 20
6.785093537768074
 30
0.0
 10
-2.213886894643259
 20
6.771353081522421
 30
0.0
 10
-2.240247398723968
 20
6.753526100213278
 30
0.0
 10
-2.271549985430733
 20
6.731532031168213
 30
0.0
 10
-2.3078249078937
 20
6.705412458233593
 30
0.0
 10
-2.344801047345089
 20
6.678109612889641
 30
0.0
 10
-2.380381368614529
 20
6.651979244071219
 30
0.0
 10
-2.412393560814797
 20
6.629280968220089
 30
0.0
 10
-2.442447518024338
 20
6.608666727741143
 30
0.0
 10
-2.470562655657581
 20
6.590163255872777
 30
0.0
 10
-2.49673353512201
 20
6.573756510030418
 30
0.0
 10
-2.546814243075484
 20
6.544225687580893
 30
0.0
 10
-2.622011188223829
 20
6.507754386221845
 30
0.0
 10
-2.725354535916247
 20
6.477077651769515
 30
0.0
 10
-2.827027456263532
 20
6.467042344542536
 30
0.0
 10
-2.909480221613243
 20
6.476243186935799
 30
0.0
 10
-2.973259551144807
 20
6.493275388022955
 30
0.0
 10
-3.021507659643651
 20
6.510503759244695
 30
0.0
 10
-3.070779908797366
 20
6.532458115142622
 30
0.0
 10
-3.120983848388255
 20
6.558980127289764
 30
0.0
 10
-3.174013897453899
 20
6.591472913158061
 30
0.0
 10
-3.232158546790911
 20
6.63069851230669
 30
0.0
 10
-3.28325331331573
 20
6.667876275933907
 30
0.0
 10
-3.324658657610777
 20
6.698584991212509
 30
0.0
 10
-3.35313265425623
 20
6.71927030435029
 30
0.0
 10
-3.378858626473182
 20
6.737663715921184
 30
0.0
 10
-3.401856440999461
 20
6.753739086318331
 30
0.0
 10
-3.422119159656272
 20
6.767507507848365
 30
0.0
 10
-3.439652477262034
 20
6.778961381526481
 30
0.0
 10
-3.454439138398751
 20
6.788135065967975
 30
0.0
 10
-3.469322752424856
 20
6.796548100692927
 30
0.0
 10
-3.485154223180195
 20
6.804244971273111
 30
0.0
 10
-3.502636874933706
 20
6.811504413078581
 30
0.0
 10
-3.51962409926509
 20
6.817146434002967
 30
0.0
 10
-3.53610390714983
 20
6.821196955840491
 30
0.0
 10
-3.552080659095508
 20
6.823635850300698
 30
0.0
 10
-3.568526284340568
 20
6.824547643873241
 30
0.0
 10
-3.586014964322634
 20
6.823365903553127
 30
0.0
 10
-3.605013001192221
 20
6.819821144871276
 30
0.0
 10
-3.625100053881973
 20
6.813972493722268
 30
0.0
 10
-3.646331594137824
 20
6.805911711581667
 30
0.0
 10
-3.660512787475223
 20
6.799081898080065
 30
0.0
 10
-3.667893660295867
 20
6.795527191247946
 30
0.0
  0
LINE
  5
67
330
1F
100
AcDbEntity
  8
0
  6
Continuous
 62
     7
370
    25
100
AcDbLine
 10
-3.6678936603
 20
6.7955271912
 30
0.0
 11
-3.6678936603
 21
-21.4732404071
 31
0.0
  0
LINE
  5
68
330
1F
100
AcDbEntity
  8
0
  6
Continuous
 62
     7
370
    25
100
AcDbLine
 10
-0.6803348037
 20
-21.4732293077
 30
0.0
 11
-0.6803348037
 21
6.7954768757
 31
0.0
  0
MTEXT
  5
6A
330
1F
100
AcDbEntity
  8
0
  6
Continuous
 62
     7
100
AcDbMText
 10
-3.6678936603
 20
-21.8641318946
 30
0.0
 40
0.1903
 41
0.0
 71
     1
 72
     1
  1
SOLIDWORKS Educational Product.
  7
SLDTEXTSTYLE0
 73
     1
 44
1.0
  0
MTEXT
  5
6B
330
1F
100
AcDbEntity
  8
0
  6
Continuous
 62
     7
100
AcDbMText
 10
-3.6678936603
 20
-22.1495818946
 30
0.0
 40
0.1903
 41
0.0
 71
     1
 72
     1
  1
For Instructional Use Only.
  7
SLDTEXTSTYLE0
 73
     1
 44
1.0
  0
ENDSEC
  0
SECTION
  2
OBJECTS
  0
DICTIONARY
  5
C
330
0
100
AcDbDictionary
281
     1
  3
ACAD_GROUP
350
D
  3
ACAD_LAYOUT
350
1A
  3
ACAD_MLINESTYLE
350
17
  3
ACAD_PLOTSETTINGS
350
19
  3
ACAD_PLOTSTYLENAME
350
E
  3
ACAD_SCALELIST
350
47
  3
DWGPROPS
350
6C
  0
DICTIONARY
  5
D
102
{ACAD_REACTORS
330
C
102
}
330
C
100
AcDbDictionary
281
     1
  0
DICTIONARY
  5
1A
102
{ACAD_REACTORS
330
C
102
}
330
C
100
AcDbDictionary
281
     1
  3
Layout1
350
1E
  3
Layout2
350
26
  3
Model
350
22
  0
DICTIONARY
  5
17
102
{ACAD_REACTORS
330
C
102
}
330
C
100
AcDbDictionary
281
     1
  3
Standard
350
18
  0
DICTIONARY
  5
19
102
{ACAD_REACTORS
330
C
102
}
330
C
100
AcDbDictionary
281
     1
  0
ACDBDICTIONARYWDFLT
  5
E
102
{ACAD_REACTORS
330
C
102
}
330
C
100
AcDbDictionary
281
     1
  3
Normal
350
F
100
AcDbDictionaryWithDefault
340
F
  0
DICTIONARY
  5
47
102
{ACAD_REACTORS
330
C
102
}
330
C
100
AcDbDictionary
281
     1
  3
A0
350
48
  3
A1
350
49
  3
A2
350
4A
  3
A3
350
4B
  3
A4
350
4C
  3
A5
350
4D
  3
A6
350
4E
  3
A7
350
4F
  3
A8
350
50
  3
A9
350
51
  3
B1
350
52
  3
B2
350
53
  3
B3
350
54
  3
B4
350
55
  3
B5
350
56
  3
B6
350
57
  3
B7
350
58
  0
XRECORD
  5
6C
102
{ACAD_REACTORS
330
C
102
}
330
C
100
AcDbXrecord
280
     1
  1
DWGPROPS COOKIE
  2

  3

  4

  6

  7

  8
manny
  9

300
=
301
=
302
=
303
=
304
=
305
=
306
=
307
=
308
=
309
=
 40
0.0
 41
2460633.145182558
 42
2460633.145274931
  1

 90
        0
  0
LAYOUT
  5
1E
102
{ACAD_REACTORS
330
1A
102
}
330
1A
100
AcDbPlotSettings
  1

  2
none_device
  4

  6

 40
0.0
 41
0.0
 42
0.0
 43
0.0
 44
0.0
 45
0.0
 46
0.0
 47
0.0
 48
0.0
 49
0.0
140
0.0
141
0.0
142
1.0
143
1.0
 70
   688
 72
     0
 73
     0
 74
     5
  7

 75
    16
147
1.0
148
0.0
149
0.0
100
AcDbLayout
  1
Layout1
 70
     1
 71
     1
 10
0.0
 20
0.0
 11
12.0
 21
9.0
 12
0.0
 22
0.0
 32
0.0
 14
1.0000000000E+20
 24
1.0000000000E+20
 34
1.0000000000E+20
 15
-1.0000000000E+20
 25
-1.0000000000E+20
 35
-1.0000000000E+20
146
0.0
 13
0.0
 23
0.0
 33
0.0
 16
1.0
 26
0.0
 36
0.0
 17
0.0
 27
1.0
 37
0.0
 76
     0
330
1B
  0
LAYOUT
  5
26
102
{ACAD_REACTORS
330
1A
102
}
330
1A
100
AcDbPlotSettings
  1

  2
none_device
  4

  6

 40
0.0
 41
0.0
 42
0.0
 43
0.0
 44
0.0
 45
0.0
 46
0.0
 47
0.0
 48
0.0
 49
0.0
140
0.0
141
0.0
142
1.0
143
1.0
 70
   688
 72
     0
 73
     0
 74
     5
  7

 75
    16
147
1.0
148
0.0
149
0.0
100
AcDbLayout
  1
Layout2
 70
     1
 71
     2
 10
0.0
 20
0.0
 11
0.0
 21
0.0
 12
0.0
 22
0.0
 32
0.0
 14
0.0
 24
0.0
 34
0.0
 15
0.0
 25
0.0
 35
0.0
146
0.0
 13
0.0
 23
0.0
 33
0.0
 16
1.0
 26
0.0
 36
0.0
 17
0.0
 27
1.0
 37
0.0
 76
     0
330
23
  0
LAYOUT
  5
22
102
{ACAD_REACTORS
330
1A
102
}
330
1A
100
AcDbPlotSettings
  1

  2
none_device
  4
ANSI_A_(11.00_x_8.50_Inches)
  6

 40
6.35
 41
19.05
 42
6.35000508
 43
19.05000254
 44
279.4
 45
215.9
 46
149.5708172725
 47
144.855825088
 48
0.0
 49
0.0
140
0.0
141
0.0
142
0.2937356942
143
1.0
 70
  1696
 72
     0
 73
     0
 74
     0
  7

 75
     0
147
0.5913241897
148
-39.4088153714
149
0.0
100
AcDbLayout
  1
Model
 70
     1
 71
     0
 10
0.0
 20
0.0
 11
12.0
 21
9.0
 12
0.0
 22
0.0
 32
0.0
 14
-3.6678936603
 24
-21.8239914855
 34
0.0
 15
-0.6803348037
 25
6.8242122076
 35
0.0
146
0.0
 13
0.0
 23
0.0
 33
0.0
 16
1.0
 26
0.0
 36
0.0
 17
0.0
 27
1.0
 37
0.0
 76
     0
330
1F
331
29
  0
MLINESTYLE
  5
18
102
{ACAD_REACTORS
330
17
102
}
330
17
100
AcDbMlineStyle
  2
Standard
 70
     0
  3

 62
   256
 51
90.0
 52
90.0
 71
     2
 49
0.5
 62
   256
  6
BYLAYER
 49
-0.5
 62
   256
  6
BYLAYER
  0
ACDBPLACEHOLDER
  5
F
102
{ACAD_REACTORS
330
E
102
}
330
E
  0
SCALE
  5
48
102
{ACAD_REACTORS
330
47
102
}
330
47
100
AcDbScale
 70
     0
300
1:1
140
1.0
141
1.0
290
     1
  0
SCALE
  5
49
102
{ACAD_REACTORS
330
47
102
}
330
47
100
AcDbScale
 70
     0
300
1/128" = 1'-0"
140
0.0078125
141
12.0
290
     0
  0
SCALE
  5
4A
102
{ACAD_REACTORS
330
47
102
}
330
47
100
AcDbScale
 70
     0
300
1/64" = 1'-0"
140
0.015625
141
12.0
290
     0
  0
SCALE
  5
4B
102
{ACAD_REACTORS
330
47
102
}
330
47
100
AcDbScale
 70
     0
300
1/32" = 1'-0"
140
0.03125
141
12.0
290
     0
  0
SCALE
  5
4C
102
{ACAD_REACTORS
330
47
102
}
330
47
100
AcDbScale
 70
     0
300
1/16" = 1'-0"
140
0.0625
141
12.0
290
     0
  0
SCALE
  5
4D
102
{ACAD_REACTORS
330
47
102
}
330
47
100
AcDbScale
 70
     0
300
3/32" = 1'-0"
140
0.09375
141
12.0
290
     0
  0
SCALE
  5
4E
102
{ACAD_REACTORS
330
47
102
}
330
47
100
AcDbScale
 70
     0
300
1/8" = 1'-0"
140
0.125
141
12.0
290
     0
  0
SCALE
  5
4F
102
{ACAD_REACTORS
330
47
102
}
330
47
100
AcDbScale
 70
     0
300
3/16" = 1'-0"
140
0.1875
141
12.0
290
     0
  0
SCALE
  5
50
102
{ACAD_REACTORS
330
47
102
}
330
47
100
AcDbScale
 70
     0
300
1/4" = 1'-0"
140
0.25
141
12.0
290
     0
  0
SCALE
  5
51
102
{ACAD_REACTORS
330
47
102
}
330
47
100
AcDbScale
 70
     0
300
3/8" = 1'-0"
140
0.375
141
12.0
290
     0
  0
SCALE
  5
52
102
{ACAD_REACTORS
330
47
102
}
330
47
100
AcDbScale
 70
     0
300
1/2" = 1'-0"
140
0.5
141
12.0
290
     0
  0
SCALE
  5
53
102
{ACAD_REACTORS
330
47
102
}
330
47
100
AcDbScale
 70
     0
300
3/4" = 1'-0"
140
0.75
141
12.0
290
     0
  0
SCALE
  5
54
102
{ACAD_REACTORS
330
47
102
}
330
47
100
AcDbScale
 70
     0
300
1" = 1'-0"
140
1.0
141
12.0
290
     0
  0
SCALE
  5
55
102
{ACAD_REACTORS
330
47
102
}
330
47
100
AcDbScale
 70
     0
300
1-1/2" = 1'-0"
140
1.5
141
12.0
290
     0
  0
SCALE
  5
56
102
{ACAD_REACTORS
330
47
102
}
330
47
100
AcDbScale
 70
     0
300
3" = 1'-0"
140
3.0
141
12.0
290
     0
  0
SCALE
  5
57
102
{ACAD_REACTORS
330
47
102
}
330
47
100
AcDbScale
 70
     0
300
6" = 1'-0"
140
6.0
141
12.0
290
     0
  0
SCALE
  5
58
102
{ACAD_REACTORS
330
47
102
}
330
47
100
AcDbScale
 70
     0
300
1'-0" = 1'-0"
140
12.0
141
12.0
290
     0
  0
ENDSEC
  0
EOF
