  0
SECTION
  2
HEADER
  9
$ACADVER
  1
AC1015
  9
$ACADMAINTVER
 70
     6
  9
$DWGCODEPAGE
  3
ANSI_1252
  9
$INSBASE
 10
0.0
 20
0.0
 30
0.0
  9
$EXTMIN
 10
-5.4024347688
 20
-11.6380482598
 30
0.0
  9
$EXTMAX
 10
-2.4148754852
 20
8.3240459194
 30
0.0
  9
$LIMMIN
 10
0.0
 20
0.0
  9
$LIMMAX
 10
12.0
 20
9.0
  9
$ORTHOMODE
 70
     0
  9
$REGENMODE
 70
     1
  9
$FILLMODE
 70
     1
  9
$QTEXTMODE
 70
     0
  9
$MIRRTEXT
 70
     1
  9
$LTSCALE
 40
1.0
  9
$ATTMODE
 70
     1
  9
$TEXTSIZE
 40
0.1377952756
  9
$TRACEWID
 40
0.05
  9
$TEXTSTYLE
  7
Standard
  9
$CLAYER
  8
0
  9
$CELTYPE
  6
ByLayer
  9
$CECOLOR
 62
   256
  9
$CELTSCALE
 40
1.0
  9
$DISPSILH
 70
     0
  9
$DIMSCALE
 40
1.0
  9
$DIMASZ
 40
0.13
  9
$DIMEXO
 40
0.0
  9
$DIMDLI
 40
0.38
  9
$DIMRND
 40
0.0
  9
$DIMDLE
 40
0.0
  9
$DIMEXE
 40
0.0393700787
  9
$DIMTP
 40
0.0
  9
$DIMTM
 40
0.0
  9
$DIMTXT
 40
0.1377952756
  9
$DIMCEN
 40
0.09
  9
$DIMTSZ
 40
0.0
  9
$DIMTOL
 70
     0
  9
$DIMLIM
 70
     0
  9
$DIMTIH
 70
     1
  9
$DIMTOH
 70
     1
  9
$DIMSE1
 70
     0
  9
$DIMSE2
 70
     0
  9
$DIMTAD
 70
     1
  9
$DIMZIN
 70
     1
  9
$DIMBLK
  1

  9
$DIMASO
 70
     1
  9
$DIMSHO
 70
     1
  9
$DIMPOST
  1

  9
$DIMAPOST
  1

  9
$DIMALT
 70
     0
  9
$DIMALTD
 70
     2
  9
$DIMALTF
 40
25.4
  9
$DIMLFAC
 40
1.0
  9
$DIMTOFL
 70
     0
  9
$DIMTVP
 40
0.0
  9
$DIMTIX
 70
     0
  9
$DIMSOXD
 70
     0
  9
$DIMSAH
 70
     0
  9
$DIMBLK1
  1

  9
$DIMBLK2
  1

  9
$DIMSTYLE
  2
Standard
  9
$DIMCLRD
 70
     0
  9
$DIMCLRE
 70
     0
  9
$DIMCLRT
 70
     0
  9
$DIMTFAC
 40
1.0
  9
$DIMGAP
 40
0.06
  9
$DIMJUST
 70
     0
  9
$DIMSD1
 70
     0
  9
$DIMSD2
 70
     0
  9
$DIMTOLJ
 70
     1
  9
$DIMTZIN
 70
     1
  9
$DIMALTZ
 70
     0
  9
$DIMALTTZ
 70
     0
  9
$DIMUPT
 70
     0
  9
$DIMDEC
 70
     2
  9
$DIMTDEC
 70
     2
  9
$DIMALTU
 70
     2
  9
$DIMALTTD
 70
     2
  9
$DIMTXSTY
  7
Standard
  9
$DIMAUNIT
 70
     0
  9
$DIMADEC
 70
     2
  9
$DIMALTRND
 40
0.0
  9
$DIMAZIN
 70
     0
  9
$DIMDSEP
 70
    46
  9
$DIMATFIT
 70
     3
  9
$DIMFRAC
 70
     0
  9
$DIMLDRBLK
  1

  9
$DIMLUNIT
 70
     2
  9
$DIMLWD
 70
    -2
  9
$DIMLWE
 70
    -2
  9
$DIMTMOVE
 70
     0
  9
$LUNITS
 70
     2
  9
$LUPREC
 70
     2
  9
$SKETCHINC
 40
0.1
  9
$FILLETRAD
 40
0.0
  9
$AUNITS
 70
     0
  9
$AUPREC
 70
     2
  9
$MENU
  1
.
  9
$ELEVATION
 40
0.0
  9
$PELEVATION
 40
0.0
  9
$THICKNESS
 40
0.0
  9
$LIMCHECK
 70
     0
  9
$CHAMFERA
 40
0.0
  9
$CHAMFERB
 40
0.0
  9
$CHAMFERC
 40
0.0
  9
$CHAMFERD
 40
0.0
  9
$SKPOLY
 70
     0
  9
$TDCREATE
 40
2460632.815337188
  9
$TDUCREATE
 40
2460633.148670521
  9
$TDUPDATE
 40
2460632.815430394
  9
$TDUUPDATE
 40
2460633.148763727
  9
$TDINDWG
 40
0.0000000116
  9
$TDUSRTIMER
 40
0.0000000116
  9
$USRTIMER
 70
     1
  9
$ANGBASE
 50
0.0
  9
$ANGDIR
 70
     0
  9
$PDMODE
 70
     0
  9
$PDSIZE
 40
-1.0
  9
$PLINEWID
 40
0.0
  9
$SPLFRAME
 70
     0
  9
$SPLINETYPE
 70
     6
  9
$SPLINESEGS
 70
     8
  9
$HANDSEED
  5
72
  9
$SURFTAB1
 70
     6
  9
$SURFTAB2
 70
     6
  9
$SURFTYPE
 70
     6
  9
$SURFU
 70
     6
  9
$SURFV
 70
     6
  9
$UCSBASE
  2

  9
$UCSNAME
  2

  9
$UCSORG
 10
0.0
 20
0.0
 30
0.0
  9
$UCSXDIR
 10
1.0
 20
0.0
 30
0.0
  9
$UCSYDIR
 10
0.0
 20
1.0
 30
0.0
  9
$UCSORTHOREF
  2

  9
$UCSORTHOVIEW
 70
     0
  9
$UCSORGTOP
 10
0.0
 20
0.0
 30
0.0
  9
$UCSORGBOTTOM
 10
0.0
 20
0.0
 30
0.0
  9
$UCSORGLEFT
 10
0.0
 20
0.0
 30
0.0
  9
$UCSORGRIGHT
 10
0.0
 20
0.0
 30
0.0
  9
$UCSORGFRONT
 10
0.0
 20
0.0
 30
0.0
  9
$UCSORGBACK
 10
0.0
 20
0.0
 30
0.0
  9
$PUCSBASE
  2

  9
$PUCSNAME
  2

  9
$PUCSORG
 10
0.0
 20
0.0
 30
0.0
  9
$PUCSXDIR
 10
1.0
 20
0.0
 30
0.0
  9
$PUCSYDIR
 10
0.0
 20
1.0
 30
0.0
  9
$PUCSORTHOREF
  2

  9
$PUCSORTHOVIEW
 70
     0
  9
$PUCSORGTOP
 10
0.0
 20
0.0
 30
0.0
  9
$PUCSORGBOTTOM
 10
0.0
 20
0.0
 30
0.0
  9
$PUCSORGLEFT
 10
0.0
 20
0.0
 30
0.0
  9
$PUCSORGRIGHT
 10
0.0
 20
0.0
 30
0.0
  9
$PUCSORGFRONT
 10
0.0
 20
0.0
 30
0.0
  9
$PUCSORGBACK
 10
0.0
 20
0.0
 30
0.0
  9
$USERI1
 70
     0
  9
$USERI2
 70
     0
  9
$USERI3
 70
     0
  9
$USERI4
 70
     0
  9
$USERI5
 70
     0
  9
$USERR1
 40
0.0
  9
$USERR2
 40
0.0
  9
$USERR3
 40
0.0
  9
$USERR4
 40
0.0
  9
$USERR5
 40
0.0
  9
$WORLDVIEW
 70
     1
  9
$SHADEDGE
 70
     3
  9
$SHADEDIF
 70
    70
  9
$TILEMODE
 70
     1
  9
$MAXACTVP
 70
    64
  9
$PINSBASE
 10
0.0
 20
0.0
 30
0.0
  9
$PLIMCHECK
 70
     0
  9
$PEXTMIN
 10
1.0000000000E+20
 20
1.0000000000E+20
 30
1.0000000000E+20
  9
$PEXTMAX
 10
-1.0000000000E+20
 20
-1.0000000000E+20
 30
-1.0000000000E+20
  9
$PLIMMIN
 10
0.0
 20
0.0
  9
$PLIMMAX
 10
12.0
 20
9.0
  9
$UNITMODE
 70
     0
  9
$VISRETAIN
 70
     1
  9
$PLINEGEN
 70
     0
  9
$PSLTSCALE
 70
     1
  9
$TREEDEPTH
 70
  3020
  9
$CMLSTYLE
  2
Standard
  9
$CMLJUST
 70
     0
  9
$CMLSCALE
 40
1.0
  9
$PROXYGRAPHICS
 70
     1
  9
$MEASUREMENT
 70
     0
  9
$CELWEIGHT
370
    -1
  9
$ENDCAPS
280
     0
  9
$JOINSTYLE
280
     0
  9
$LWDISPLAY
290
     1
  9
$INSUNITS
 70
     1
  9
$HYPERLINKBASE
  1

  9
$STYLESHEET
  1

  9
$XEDIT
290
     1
  9
$CEPSNTYPE
380
     0
  9
$PSTYLEMODE
290
     1
  9
$FINGERPRINTGUID
  2
{77afc8d9-2406-4e14-8819-11e5766e410c}
  9
$VERSIONGUID
  2
{FAEB1C32-E019-11D5-929B-00C0DF256EC4}
  9
$EXTNAMES
290
     1
  9
$PSVPSCALE
 40
0.0
  9
$OLESTARTUP
290
     0
  0
ENDSEC
  0
SECTION
  2
CLASSES
  0
CLASS
  1
ACDBDICTIONARYWDFLT
  2
AcDbDictionaryWithDefault
  3
ObjectDBX Classes
 90
        0
280
     0
281
     0
  0
CLASS
  1
VISUALSTYLE
  2
AcDbVisualStyle
  3
ObjectDBX Classes
 90
     4095
280
     0
281
     0
  0
CLASS
  1
MATERIAL
  2
AcDbMaterial
  3
ObjectDBX Classes
 90
     1153
280
     0
281
     0
  0
CLASS
  1
SCALE
  2
AcDbScale
  3
ObjectDBX Classes
 90
     1153
280
     0
281
     0
  0
CLASS
  1
TABLESTYLE
  2
AcDbTableStyle
  3
ObjectDBX Classes
 90
     4095
280
     0
281
     0
  0
CLASS
  1
MLEADERSTYLE
  2
AcDbMLeaderStyle
  3
ACDB_MLEADERSTYLE_CLASS
 90
     4095
280
     0
281
     0
  0
CLASS
  1
SUN
  2
AcDbSun
  3
SCENEOE
 90
     1153
280
     0
281
     0
  0
CLASS
  1
ACDBPLACEHOLDER
  2
AcDbPlaceHolder
  3
ObjectDBX Classes
 90
        0
280
     0
281
     0
  0
CLASS
  1
LAYOUT
  2
AcDbLayout
  3
ObjectDBX Classes
 90
        0
280
     0
281
     0
  0
ENDSEC
  0
SECTION
  2
TABLES
  0
TABLE
  2
VPORT
  5
8
330
0
100
AcDbSymbolTable
 70
     1
  0
VPORT
  5
29
330
8
100
AcDbSymbolTableRecord
100
AcDbViewportTableRecord
  2
*Active
 70
     0
 10
0.0
 20
0.0
 11
1.0
 21
1.0
 12
-3.908655127
 22
-1.6570011702
 13
0.0
 23
0.0
 14
0.5
 24
0.5
 15
0.5
 25
0.5
 16
0.0
 26
0.0
 36
1.0
 17
0.0
 27
0.0
 37
0.0
 40
20.3613360628
 41
0.1496616165
 42
50.0
 43
0.0
 44
0.0
 50
0.0
 51
0.0
 71
     0
 72
   100
 73
     1
 74
     3
 75
     0
 76
     0
 77
     0
 78
     0
281
     0
 65
     1
110
0.0
120
0.0
130
0.0
111
1.0
121
0.0
131
0.0
112
0.0
122
1.0
132
0.0
 79
     0
146
0.0
  0
ENDTAB
  0
TABLE
  2
LTYPE
  5
5
330
0
100
AcDbSymbolTable
 70
     6
  0
LTYPE
  5
14
330
5
100
AcDbSymbolTableRecord
100
AcDbLinetypeTableRecord
  2
ByBlock
 70
     0
  3

 72
    65
 73
     0
 40
0.0
  0
LTYPE
  5
15
330
5
100
AcDbSymbolTableRecord
100
AcDbLinetypeTableRecord
  2
ByLayer
 70
     0
  3

 72
    65
 73
     0
 40
0.0
  0
LTYPE
  5
16
330
5
100
AcDbSymbolTableRecord
100
AcDbLinetypeTableRecord
  2
Continuous
 70
     0
  3
Solid line
 72
    65
 73
     0
 40
0.0
  0
LTYPE
  5
5E
330
5
100
AcDbSymbolTableRecord
100
AcDbLinetypeTableRecord
  2
HIDDEN
 70
     0
  3
Hidden __ __ __ __ __ __ __ __ __ __ __ __ __ __
 72
    65
 73
     2
 40
0.075
 49
0.05
 74
     0
 49
-0.025
 74
     0
  0
LTYPE
  5
5F
330
5
100
AcDbSymbolTableRecord
100
AcDbLinetypeTableRecord
  2
PHANTOM
 70
     0
  3
Phantom ______  __  __  ______  __  __  ______
 72
    65
 73
     6
 40
0.5
 49
0.25
 74
     0
 49
-0.05
 74
     0
 49
0.05
 74
     0
 49
-0.05
 74
     0
 49
0.05
 74
     0
 49
-0.05
 74
     0
  0
LTYPE
  5
60
330
5
100
AcDbSymbolTableRecord
100
AcDbLinetypeTableRecord
  2
CENTER
 70
     0
  3
Center ____ _ ____ _ ____ _ ____ _ ____ _ ____
 72
    65
 73
     4
 40
0.4
 49
0.25
 74
     0
 49
-0.05
 74
     0
 49
0.05
 74
     0
 49
-0.05
 74
     0
  0
LTYPE
  5
61
330
5
100
AcDbSymbolTableRecord
100
AcDbLinetypeTableRecord
  2
CENTERX2
 70
     0
  3
Center (2x) ________  __  ________  __  _____
 72
    65
 73
     4
 40
0.8
 49
0.5
 74
     0
 49
-0.1
 74
     0
 49
0.1
 74
     0
 49
-0.1
 74
     0
  0
LTYPE
  5
62
330
5
100
AcDbSymbolTableRecord
100
AcDbLinetypeTableRecord
  2
DOT2
 70
     0
  3
Dot (.5x) ........................................
 72
    65
 73
     2
 40
0.025
 49
0.0
 74
     0
 49
-0.025
 74
     0
  0
ENDTAB
  0
TABLE
  2
LAYER
  5
2
330
0
100
AcDbSymbolTable
 70
     1
  0
LAYER
  5
10
330
2
100
AcDbSymbolTableRecord
100
AcDbLayerTableRecord
  2
0
 70
     0
 62
     7
  6
Continuous
370
    -3
390
F
  0
ENDTAB
  0
TABLE
  2
STYLE
  5
3
330
0
100
AcDbSymbolTable
 70
     2
  0
STYLE
  5
11
330
3
100
AcDbSymbolTableRecord
100
AcDbTextStyleTableRecord
  2
Standard
 70
     0
 40
0.0
 41
1.0
 50
0.0
 71
     0
 42
0.1377952756
  3
txt
  4

  0
STYLE
  5
6E
330
3
100
AcDbSymbolTableRecord
100
AcDbTextStyleTableRecord
  2
SLDTEXTSTYLE0
 70
     0
 40
0.0
 41
0.7
 50
0.0
 71
     0
 42
0.1377952756
  3
TXT
  4

  0
ENDTAB
  0
TABLE
  2
VIEW
  5
6
330
0
100
AcDbSymbolTable
 70
     0
  0
ENDTAB
  0
TABLE
  2
UCS
  5
7
330
0
100
AcDbSymbolTable
 70
     0
  0
ENDTAB
  0
TABLE
  2
APPID
  5
9
330
0
100
AcDbSymbolTable
 70
     1
  0
APPID
  5
12
330
9
100
AcDbSymbolTableRecord
100
AcDbRegAppTableRecord
  2
ACAD
 70
     0
  0
ENDTAB
  0
TABLE
  2
DIMSTYLE
  5
A
330
0
100
AcDbSymbolTable
 70
     1
100
AcDbDimStyleTable
  0
DIMSTYLE
105
27
330
A
100
AcDbSymbolTableRecord
100
AcDbDimStyleTableRecord
  2
Standard
 70
     0
178
     0
340
11
  0
ENDTAB
  0
TABLE
  2
BLOCK_RECORD
  5
1
330
0
100
AcDbSymbolTable
 70
     1
  0
BLOCK_RECORD
  5
1F
330
1
100
AcDbSymbolTableRecord
100
AcDbBlockTableRecord
  2
*Model_Space
340
22
  0
BLOCK_RECORD
  5
1B
330
1
100
AcDbSymbolTableRecord
100
AcDbBlockTableRecord
  2
*Paper_Space
340
1E
  0
BLOCK_RECORD
  5
23
330
1
100
AcDbSymbolTableRecord
100
AcDbBlockTableRecord
  2
*Paper_Space0
340
26
  0
ENDTAB
  0
ENDSEC
  0
SECTION
  2
BLOCKS
  0
BLOCK
  5
20
330
1F
100
AcDbEntity
  8
0
100
AcDbBlockBegin
  2
*Model_Space
 70
     0
 10
0.0
 20
0.0
 30
0.0
  3
*Model_Space
  1

  0
ENDBLK
  5
21
330
1F
100
AcDbEntity
  8
0
100
AcDbBlockEnd
  0
BLOCK
  5
1C
330
1B
100
AcDbEntity
 67
     1
  8
0
100
AcDbBlockBegin
  2
*Paper_Space
 70
     0
 10
0.0
 20
0.0
 30
0.0
  3
*Paper_Space
  1

  0
ENDBLK
  5
1D
330
1B
100
AcDbEntity
 67
     1
  8
0
100
AcDbBlockEnd
  0
BLOCK
  5
24
330
23
100
AcDbEntity
  8
0
100
AcDbBlockBegin
  2
*Paper_Space0
 70
     0
 10
0.0
 20
0.0
 30
0.0
  3
*Paper_Space0
  1

  0
ENDBLK
  5
25
330
23
100
AcDbEntity
  8
0
100
AcDbBlockEnd
  0
ENDSEC
  0
SECTION
  2
ENTITIES
  0
SPLINE
  5
63
330
1F
100
AcDbEntity
  8
0
  6
Continuous
 62
     7
370
    25
100
AcDbSpline
210
0.0
220
0.0
230
1.0
 70
     8
 71
     3
 72
    27
 73
    23
 74
     0
 42
0.00000001
 43
0.00000001
 40
0.0
 40
0.0
 40
0.0
 40
0.0
 40
0.0484648311518632
 40
0.0956274994445084
 40
0.1415046716227013
 40
0.1861144552842927
 40
0.2294765458044885
 40
0.2716123882063019
 40
0.3125453548740165
 40
0.3523009397673516
 40
0.3909069694114818
 40
0.4283938303661801
 40
0.4647947120625269
 40
0.5001458627791164
 40
0.5620625938981331
 40
0.6236861987490021
 40
0.6852455466640702
 40
0.7469702217559756
 40
0.8090879750414515
 40
0.8718222765823921
 40
0.9353900944227512
 40
1.0
 40
1.0
 40
1.0
 40
1.0
 10
-4.108765028099557
 20
-11.6085194383767
 30
0.0
 10
-4.102552926781909
 20
-11.60445535997967
 30
0.0
 10
-4.090295632137856
 20
-11.59643639766375
 30
0.0
 10
-4.071890497095596
 20
-11.58498712633046
 30
0.0
 10
-4.053788780232621
 20
-11.57417584461807
 30
0.0
 10
-4.03597234928321
 20
-11.56402986189127
 30
0.0
 10
-4.018445796372188
 20
-11.55454214681092
 30
0.0
 10
-4.00120786502764
 20
-11.54571449919133
 30
0.0
 10
-3.984258791472896
 20
-11.53754645190583
 30
0.0
 10
-3.967598417369884
 20
-11.53003814964203
 30
0.0
 10
-3.951226679441931
 20
-11.52318951840581
 30
0.0
 10
-3.935143464891345
 20
-11.51700081916581
 30
0.0
 10
-3.919348718265967
 20
-11.51147130528777
 30
0.0
 10
-3.899811702522521
 20
-11.50533872873511
 30
0.0
 10
-3.876257336528305
 20
-11.49915316817723
 30
0.0
 10
-3.848432794116367
 20
-11.49362561184891
 30
0.0
 10
-3.820350614372224
 20
-11.48981408925442
 30
0.0
 10
-3.792013389528253
 20
-11.4877202326886
 30
0.0
 10
-3.763420176787248
 20
-11.48733447289833
 30
0.0
 10
-3.734579089436906
 20
-11.48869288943463
 30
0.0
 10
-3.705464415967517
 20
-11.49165579791004
 30
0.0
 10
-3.686117639127734
 20
-11.49502334192872
 30
0.0
 10
-3.676365605845244
 20
-11.49672080304187
 30
0.0
  0
SPLINE
  5
64
330
1F
100
AcDbEntity
  8
0
  6
Continuous
 62
     7
370
    25
100
AcDbSpline
210
0.0
220
0.0
230
1.0
 70
     8
 71
     3
 72
    28
 73
    24
 74
     0
 42
0.00000001
 43
0.00000001
 40
0.0
 40
0.0
 40
0.0
 40
0.0
 40
0.0335120218723947
 40
0.0655726083772832
 40
0.0961888186151781
 40
0.1253687599594817
 40
0.1531217985249317
 40
0.1794588227988656
 40
0.204392576443845
 40
0.227938081732189
 40
0.2501131824753843
 40
0.3186245440759973
 40
0.3824913032314963
 40
0.4426254802466463
 40
0.5001170068323879
 40
0.5789127912819242
 40
0.6612031022316277
 40
0.7499229193661655
 40
0.7913212004843247
 40
0.8369155875189627
 40
0.8868328116084473
 40
0.9411693653705824
 40
1.0
 40
1.0
 40
1.0
 40
1.0
 10
-4.973413282106592
 20
-11.6380482597724
 30
0.0
 10
-4.965237504028191
 20
-11.6304937936763
 30
0.0
 10
-4.949240048065793
 20
-11.61571205210589
 30
0.0
 10
-4.925395683698965
 20
-11.59444285710422
 30
0.0
 10
-4.902331717837748
 20
-11.57446613153998
 30
0.0
 10
-4.880024084403734
 20
-11.55580745054034
 30
0.0
 10
-4.858478639788635
 20
-11.53846031442831
 30
0.0
 10
-4.837694011700823
 20
-11.52242555994402
 30
0.0
 10
-4.817669592541754
 20
-11.50770429061974
 30
0.0
 10
-4.798407842182389
 20
-11.49429011034802
 30
0.0
 10
-4.76663596654439
 20
-11.4735428207629
 30
0.0
 10
-4.721878249703361
 20
-11.44819131581111
 30
0.0
 10
-4.662964147547764
 20
-11.42295437923212
 30
0.0
 10
-4.604796291958862
 20
-11.40641990544214
 30
0.0
 10
-4.539916765979987
 20
-11.39762542708743
 30
0.0
 10
-4.466838200001179
 20
-11.40123935828058
 30
0.0
 10
-4.386023172427629
 20
-11.42208711309777
 30
0.0
 10
-4.321547189481692
 20
-11.45156404166824
 30
0.0
 10
-4.27135569121987
 20
-11.48139581093539
 30
0.0
 10
-4.233662280084453
 20
-11.50688290695162
 30
0.0
 10
-4.19379271509339
 20
-11.53670070826728
 30
0.0
 10
-4.151663988970209
 20
-11.57078066250467
 30
0.0
 10
-4.123438319131668
 20
-11.59561114895844
 30
0.0
 10
-4.108765037122606
 20
-11.60851942473161
 30
0.0
  0
SPLINE
  5
66
330
1F
100
AcDbEntity
  8
0
  6
Continuous
 62
     7
370
    25
100
AcDbSpline
210
0.0
220
0.0
230
1.0
 70
     8
 71
     3
 72
    28
 73
    24
 74
     0
 42
0.00000001
 43
0.00000001
 40
0.0
 40
0.0
 40
0.0
 40
0.0
 40
0.1000044720507554
 40
0.2000087298270413
 40
0.3000129161784048
 40
0.4000171739546911
 40
0.5000216460054445
 40
0.5749427566169021
 40
0.6415823206648649
 40
0.6999439073593647
 40
0.7500328555440228
 40
0.779700243804674
 40
0.807444879845305
 40
0.8332704517422725
 40
0.8571815355851977
 40
0.877982546064105
 40
0.8979192035351092
 40
0.9170005875288665
 40
0.9352370550855696
 40
0.952640471778986
 40
0.9692244913789234
 40
0.9850048947136295
 40
0.9999999999999999
 40
0.9999999999999999
 40
0.9999999999999999
 40
0.9999999999999999
 10
-5.402434768820227
 20
-9.409225872299409
 30
0.0
 10
-5.39215492255664
 20
-9.483550818641866
 30
0.0
 10
-5.371595252055564
 20
-9.632200552074519
 30
0.0
 10
-5.340415518390429
 20
-9.85512774391372
 30
0.0
 10
-5.30899802816473
 20
-10.0780213664394
 30
0.0
 10
-5.277273375649239
 20
-10.30087164036136
 30
0.0
 10
-5.248080248268549
 20
-10.50507283550542
 30
0.0
 10
-5.221892438623136
 20
-10.68441588777729
 30
0.0
 10
-5.199189761438736
 20
-10.83268928310693
 30
0.0
 10
-5.178279848364493
 20
-10.96238462661559
 30
0.0
 10
-5.160686778925459
 20
-11.06451222401147
 30
0.0
 10
-5.145993294544084
 20
-11.14382095561107
 30
0.0
 10
-5.133967232335624
 20
-11.20510598289039
 30
0.0
 10
-5.122065572449698
 20
-11.26200974296262
 30
0.0
 10
-5.110519559261138
 20
-11.31366099312522
 30
0.0
 10
-5.099093588708038
 20
-11.36080451211926
 30
0.0
 10
-5.087613432384285
 20
-11.40419672421708
 30
0.0
 10
-5.075710973738697
 20
-11.44547647010204
 30
0.0
 10
-5.063376510839523
 20
-11.48464111573305
 30
0.0
 10
-5.050621958841473
 20
-11.52169647059406
 30
0.0
 10
-5.03741070410751
 20
-11.55662567729115
 30
0.0
 10
-5.023867401512195
 20
-11.5894892622474
 30
0.0
 10
-5.014083624463401
 20
-11.6104075482073
 30
0.0
 10
-5.009316562162292
 20
-11.62059980544149
 30
0.0
  0
SPLINE
  5
68
330
1F
100
AcDbEntity
  8
0
  6
Continuous
 62
     7
370
    25
100
AcDbSpline
210
0.0
220
0.0
230
1.0
 70
     8
 71
     3
 72
   101
 73
    97
 74
     0
 42
0.00000001
 43
0.00000001
 40
0.0
 40
0.0
 40
0.0
 40
0.0
 40
0.0105352485738581
 40
0.020532273737463
 40
0.0299932132681494
 40
0.0389205900697463
 40
0.0473174080018505
 40
0.0551872784763203
 40
0.0625345899749425
 40
0.0797326165153488
 40
0.0958111979441431
 40
0.1108771241548605
 40
0.1250600777385716
 40
0.1443954490093895
 40
0.1636053531855329
 40
0.1832613903703983
 40
0.203898122675901
 40
0.2259790009592737
 40
0.2498836280084707
 40
0.2594342319394016
 40
0.2687714804257006
 40
0.2779006632338049
 40
0.2868274400200915
 40
0.2955578640899804
 40
0.30409840626759
 40
0.3124559784350598
 40
0.318712980245356
 40
0.3249685907398028
 40
0.3312231575442565
 40
0.3374770284586158
 40
0.3437305513988883
 40
0.349984074339161
 40
0.3562379452535205
 40
0.3624925120579742
 40
0.368748122552421
 40
0.375005124362717
 40
0.3851017039273235
 40
0.3940284696721273
 40
0.4018085192037544
 40
0.4116395310762229
 40
0.4207270972870792
 40
0.4292684667535366
 40
0.4375002461853565
 40
0.4458334775877188
 40
0.4561386903511579
 40
0.4685463003783547
 40
0.4831304313112237
 40
0.4999364324875878
 40
0.5086460748953734
 40
0.5168093419497407
 40
0.5244263468414315
 40
0.5314972289949418
 40
0.5380221628434432
 40
0.5440013706016233
 40
0.5494351414371794
 40
0.5543238613065196
 40
0.5586680614421147
 40
0.5624685014251972
 40
0.573746810126614
 40
0.5846606250630294
 40
0.595225348418221
 40
0.6054579588613417
 40
0.6153771406417681
 40
0.6250034032451435
 40
0.6445906050023843
 40
0.6643791503652812
 40
0.6846017528028767
 40
0.7054766141913436
 40
0.7272022923969926
 40
0.7499550815858412
 40
0.7609050710945846
 40
0.7749726996072028
 40
0.7921651043689419
 40
0.8124861303964073
 40
0.8212486572535627
 40
0.8294378076162109
 40
0.8370567445666393
 40
0.8441093984430178
 40
0.8506007282758213
 40
0.8565370999917217
 40
0.861926846289396
 40
0.8667811156484341
 40
0.8711151907192826
 40
0.8749505775683837
 40
0.880988694601508
 40
0.8870424578980795
 40
0.8932049759304196
 40
0.8995645822586213
 40
0.9062017459979975
 40
0.9151352166024905
 40
0.9255384458689833
 40
0.9374662437412686
 40
0.9437291795870837
 40
0.9562387102056066
 40
0.9749955875642131
 40
1.0
 40
1.0
 40
1.0
 40
1.0
 10
-2.414875485211165
 20
8.089174593601477
 30
0.0
 10
-2.42356604968571
 20
8.080915278917601
 30
0.0
 10
-2.440503196206126
 20
8.064818600345248
 30
0.0
 10
-2.465643018779256
 20
8.041729434955604
 30
0.0
 10
-2.489749528953573
 20
8.020225946513506
 30
0.0
 10
-2.512847293449648
 20
8.000333274796821
 30
0.0
 10
-2.534930989046183
 20
7.982045869688161
 30
0.0
 10
-2.5559999024301
 20
7.965360704052284
 30
0.0
 10
-2.585496041035047
 20
7.943203748285049
 30
0.0
 10
-2.623756995778483
 20
7.917180466771531
 30
0.0
 10
-2.671494978601146
 20
7.88972057644248
 30
0.0
 10
-2.718345323020587
 20
7.867960770385248
 30
0.0
 10
-2.770602885334078
 20
7.849623261056336
 30
0.0
 10
-2.82973578785705
 20
7.837747119561739
 30
0.0
 10
-2.896291855131833
 20
7.836314833901022
 30
0.0
 10
-2.963551305165307
 20
7.846515098736006
 30
0.0
 10
-3.031393294027897
 20
7.868275527936463
 30
0.0
 10
-3.099840544666086
 20
7.90138964634637
 30
0.0
 10
-3.152991221013758
 20
7.935829964692281
 30
0.0
 10
-3.192199100563789
 20
7.964710659723455
 30
0.0
 10
-3.217490140701961
 20
7.984130482237869
 30
0.0
 10
-3.241731027711866
 20
8.003735488638245
 30
0.0
 10
-3.26494616549357
 20
8.023496032043337
 30
0.0
 10
-3.28712052155538
 20
8.04342836243974
 30
0.0
 10
-3.308289358799317
 20
8.063497875000074
 30
0.0
 10
-3.326791875538348
 20
8.082263840272885
 30
0.0
 10
-3.343268900801775
 20
8.099368554167226
 30
0.0
 10
-3.358271317023925
 20
8.114569529544827
 30
0.0
 10
-3.373364986721774
 20
8.129674268945154
 30
0.0
 10
-3.388574317029719
 20
8.14465938850305
 30
0.0
 10
-3.403892818682212
 20
8.159531098831621
 30
0.0
 10
-3.419322045994257
 20
8.174287935492348
 30
0.0
 10
-3.434862269282913
 20
8.188929545591424
 30
0.0
 10
-3.450510851823365
 20
8.20345880463865
 30
0.0
 10
-3.466278071510854
 20
8.217864560311318
 30
0.0
 10
-3.485365466514146
 20
8.235117126485166
 30
0.0
 10
-3.507094031507236
 20
8.253982917438634
 30
0.0
 10
-3.531033507033713
 20
8.27290569957335
 30
0.0
 10
-3.55573305319523
 20
8.29031604776328
 30
0.0
 10
-3.582196514759708
 20
8.305405666432689
 30
0.0
 10
-3.611313970158768
 20
8.317072311306543
 30
0.0
 10
-3.640145632927466
 20
8.323566869678096
 30
0.0
 10
-3.668866466576593
 20
8.325013060230118
 30
0.0
 10
-3.69922792750529
 20
8.320246150913167
 30
0.0
 10
-3.73313958623462
 20
8.310129718433416
 30
0.0
 10
-3.77264836553078
 20
8.294519948533809
 30
0.0
 10
-3.817800606998745
 20
8.273353586501756
 30
0.0
 10
-3.858109269870442
 20
8.251937793817905
 30
0.0
 10
-3.891676329561005
 20
8.233441770261345
 30
0.0
 10
-3.916179948324422
 20
8.220164044497697
 30
0.0
 10
-3.939080947234475
 20
8.207844158313685
 30
0.0
 10
-3.960394812161898
 20
8.196509682960325
 30
0.0
 10
-3.980117719446496
 20
8.186153709607344
 30
0.0
 10
-3.998250637755961
 20
8.17677791394443
 30
0.0
 10
-4.014792834412295
 20
8.168380627612825
 30
0.0
 10
-4.029745688576569
 20
8.160964636102777
 30
0.0
 10
-4.043104567864476
 20
8.15451927910451
 30
0.0
 10
-4.063168365745933
 20
8.145244058772942
 30
0.0
 10
-4.09035230331387
 20
8.133563963330207
 30
0.0
 10
-4.125094384009619
 20
8.120030613457773
 30
0.0
 10
-4.159218586485158
 20
8.108259967393748
 30
0.0
 10
-4.192714365067379
 20
8.098228307882783
 30
0.0
 10
-4.225587652481784
 20
8.089950769413067
 30
0.0
 10
-4.2692409621712
 20
8.081073124183739
 30
0.0
 10
-4.324729611717099
 20
8.074397719240116
 30
0.0
 10
-4.392683023374996
 20
8.073830388828396
 30
0.0
 10
-4.461759616083423
 20
8.08065420341659
 30
0.0
 10
-4.531947276368177
 20
8.094852824981324
 30
0.0
 10
-4.603208139027082
 20
8.116459843295647
 30
0.0
 10
-4.661916839280142
 20
8.139755400245438
 30
0.0
 10
-4.71106327294242
 20
8.163012384825569
 30
0.0
 10
-4.753883732746151
 20
8.184786711499934
 30
0.0
 10
-4.805793832269747
 20
8.212194413427925
 30
0.0
 10
-4.851970479904862
 20
8.237512888913196
 30
0.0
 10
-4.889240290817896
 20
8.257766269876699
 30
0.0
 10
-4.914094770761005
 20
8.270580978581933
 30
0.0
 10
-4.937453271947454
 20
8.282038969257078
 30
0.0
 10
-4.959331260442709
 20
8.292113494479425
 30
0.0
 10
-4.979725670685953
 20
8.300812342656265
 30
0.0
 10
-4.998638420711823
 20
8.308134434182897
 30
0.0
 10
-5.0160706282542
 20
8.314084243735584
 30
0.0
 10
-5.032026027560348
 20
8.318655555146174
 30
0.0
 10
-5.0465062640271
 20
8.321876001062897
 30
0.0
 10
-5.062542788022177
 20
8.324081376904378
 30
0.0
 10
-5.080719514419608
 20
8.324471160582412
 30
0.0
 10
-5.101438489617309
 20
8.322394829293497
 30
0.0
 10
-5.122099493350555
 20
8.317679859007852
 30
0.0
 10
-5.142691837503953
 20
8.310375724210298
 30
0.0
 10
-5.165199693506966
 20
8.299492379688944
 30
0.0
 10
-5.190314604644447
 20
8.28380409949439
 30
0.0
 10
-5.218840574505257
 20
8.262511547859425
 30
0.0
 10
-5.243913826302734
 20
8.241725274375113
 30
0.0
 10
-5.269343752577902
 20
8.217761340293084
 30
0.0
 10
-5.300173954942674
 20
8.18820910124673
 30
0.0
 10
-5.346252892187692
 20
8.143740296835233
 30
0.0
 10
-5.382006055529117
 20
8.109073963999583
 30
0.0
 10
-5.402434768811411
 20
8.08926624608424
 30
0.0
  0
SPLINE
  5
6A
330
1F
100
AcDbEntity
  8
0
  6
Continuous
 62
     7
370
    25
100
AcDbSpline
210
0.0
220
0.0
230
1.0
 70
     8
 71
     3
 72
    73
 73
    69
 74
     0
 42
0.00000001
 43
0.00000001
 40
0.0
 40
0.0
 40
0.0
 40
0.0
 40
0.0040774112704484
 40
0.0083801034329311
 40
0.0129089788954359
 40
0.0176648113144469
 40
0.0226482686458215
 40
0.0278599313251017
 40
0.0333003067463978
 40
0.0389698408983144
 40
0.0448689277944288
 40
0.0509979171767946
 40
0.0573571208551999
 40
0.0639468179598331
 40
0.0707672593217419
 40
0.0778186711480878
 40
0.0851012581232834
 40
0.0926152060397194
 40
0.1003606840406949
 40
0.1083378465418195
 40
0.1165468348843722
 40
0.1249877787640602
 40
0.1464922797366297
 40
0.1744945221687889
 40
0.2089949365322332
 40
0.2499937486142814
 40
0.2919665874779916
 40
0.3308751844241866
 40
0.3667198384626169
 40
0.3995009324455647
 40
0.4292189676274846
 40
0.4558746180641111
 40
0.4794688202777104
 40
0.5000029296755801
 40
0.526278455982054
 40
0.5503675498704518
 40
0.5722759213092901
 40
0.5920111731925689
 40
0.6095837292885682
 40
0.6250083985444677
 40
0.6349042654282059
 40
0.6437956760850058
 40
0.6516986095821843
 40
0.658635878825884
 40
0.6646413116632504
 40
0.6697672179123377
 40
0.6740978966686683
 40
0.6777727863829884
 40
0.6810170155117765
 40
0.6841499698959838
 40
0.6875227960125734
 40
0.6912965904117737
 40
0.695720422711373
 40
0.7008935668573711
 40
0.706878122696222
 40
0.7137141125231697
 40
0.7214283179477549
 40
0.7300393303065906
 40
0.7395604889781018
 40
0.7500016455780636
 40
0.7694014931850695
 40
0.7921641452219962
 40
0.8183063557880332
 40
0.8478391278175851
 40
0.8807700658419654
 40
0.9171046408295348
 40
0.9568469181275803
 40
1.0
 40
1.0
 40
1.0
 40
1.0
 10
-3.676365600015736
 20
-11.49672080518194
 30
0.0
 10
-3.673979812689889
 20
-11.48917755167837
 30
0.0
 10
-3.669076420995144
 20
-11.47367427266435
 30
0.0
 10
-3.661998849044072
 20
-11.44964625065845
 30
0.0
 10
-3.654863839168346
 20
-11.42426603277658
 30
0.0
 10
-3.647711455041841
 20
-11.39752066308722
 30
0.0
 10
-3.640530207188546
 20
-11.36941375076135
 30
0.0
 10
-3.633323478616945
 20
-11.33994414951956
 30
0.0
 10
-3.626090364569827
 20
-11.30911210180824
 30
0.0
 10
-3.618831182457853
 20
-11.27691746774396
 30
0.0
 10
-3.611545893234772
 20
-11.24336022943518
 30
0.0
 10
-3.604234553517333
 20
-11.20844034422196
 30
0.0
 10
-3.596897187428111
 20
-11.17215778452663
 30
0.0
 10
-3.589533823682968
 20
-11.1345125249703
 30
0.0
 10
-3.582144485803566
 20
-11.09550454479267
 30
0.0
 10
-3.574729194802583
 20
-11.05513382628738
 30
0.0
 10
-3.567287971215873
 20
-11.01340035416369
 30
0.0
 10
-3.559820825717803
 20
-10.97030411635983
 30
0.0
 10
-3.552327798051818
 20
-10.92584509845875
 30
0.0
 10
-3.544808805958807
 20
-10.88002330385329
 30
0.0
 10
-3.53726423544167
 20
-10.83283867368774
 30
0.0
 10
-3.525856013750535
 20
-10.75969183512087
 30
0.0
 10
-3.509257591433412
 20
-10.64848705681523
 30
0.0
 10
-3.485915389284667
 20
-10.48716813175282
 30
0.0
 10
-3.45771530850209
 20
-10.28833406589251
 30
0.0
 10
-3.426270597064932
 20
-10.06258281191614
 30
0.0
 10
-3.393557386417265
 20
-9.82837238246029
 30
0.0
 10
-3.361553490103038
 20
-9.604161370925013
 30
0.0
 10
-3.331481432147015
 20
-9.397690978602894
 30
0.0
 10
-3.303308881487311
 20
-9.208965572403168
 30
0.0
 10
-3.277047830307464
 20
-9.037983140990026
 30
0.0
 10
-3.252690852865385
 20
-8.884744603962863
 30
0.0
 10
-3.230267733496105
 20
-8.749244136594207
 30
0.0
 10
-3.206769191899428
 20
-8.614674060600565
 30
0.0
 10
-3.181513134972533
 20
-8.479443505758523
 30
0.0
 10
-3.153923193376155
 20
-8.341948209526082
 30
0.0
 10
-3.126736182222808
 20
-8.21733128421541
 30
0.0
 10
-3.099978912221316
 20
-8.105583259368744
 30
0.0
 10
-3.073653306108029
 20
-8.006698356887096
 30
0.0
 10
-3.049672942572355
 20
-7.926981004362475
 30
0.0
 10
-3.02820137892305
 20
-7.864155267665716
 30
0.0
 10
-3.009635611407148
 20
-7.815794927938681
 30
0.0
 10
-2.991143486369477
 20
-7.773602291584176
 30
0.0
 10
-2.972723654456018
 20
-7.737559166629353
 30
0.0
 10
-2.954366211607812
 20
-7.70763692262438
 30
0.0
 10
-2.936038569875939
 20
-7.683791303025907
 30
0.0
 10
-2.917652547753049
 20
-7.665975451975316
 30
0.0
 10
-2.8990162411688
 20
-7.654203034812288
 30
0.0
 10
-2.879915507160653
 20
-7.648802787686519
 30
0.0
 10
-2.860658747365369
 20
-7.650289291091839
 30
0.0
 10
-2.842130506239287
 20
-7.658430673503002
 30
0.0
 10
-2.824266496791014
 20
-7.672261888528814
 30
0.0
 10
-2.806650612592462
 20
-7.691427264031469
 30
0.0
 10
-2.789071119053729
 20
-7.716092152914632
 30
0.0
 10
-2.771463094043657
 20
-7.746281040655111
 30
0.0
 10
-2.753812420393639
 20
-7.782028859936174
 30
0.0
 10
-2.736112079100108
 20
-7.823354314571016
 30
0.0
 10
-2.718360539932024
 20
-7.870270363864226
 30
0.0
 10
-2.700564262314653
 20
-7.922786720811125
 30
0.0
 10
-2.678121251938486
 20
-7.995798508066857
 30
0.0
 10
-2.651552528139531
 20
-8.094373255111151
 30
0.0
 10
-2.620991335079601
 20
-8.223346415718884
 30
0.0
 10
-2.589259774363636
 20
-8.372204608106664
 30
0.0
 10
-2.55638887318382
 20
-8.540961626395251
 30
0.0
 10
-2.522377452335931
 20
-8.729623640230152
 30
0.0
 10
-2.487263229151647
 20
-8.938199336296277
 30
0.0
 10
-2.450924468436722
 20
-9.166672914563222
 30
0.0
 10
-2.427216968472762
 20
-9.325758490308166
 30
0.0
 10
-2.414875485219985
 20
-9.408574138174842
 30
0.0
  0
LINE
  5
6B
330
1F
100
AcDbEntity
  8
0
  6
Continuous
 62
     7
370
    25
100
AcDbLine
 10
-5.0093165622
 20
-11.6205998054
 30
0.0
 11
-4.9734132919
 21
-11.6380482493
 31
0.0
  0
LINE
  5
6C
330
1F
100
AcDbEntity
  8
0
  6
Continuous
 62
     7
370
    25
100
AcDbLine
 10
-5.4024347688
 20
8.0892662461
 30
0.0
 11
-5.4024347688
 21
-9.4092258723
 31
0.0
  0
LINE
  5
6D
330
1F
100
AcDbEntity
  8
0
  6
Continuous
 62
     7
370
    25
100
AcDbLine
 10
-2.4148754852
 20
-9.4085741382
 30
0.0
 11
-2.4148754852
 21
8.0891745936
 31
0.0
  0
MTEXT
  5
6F
330
1F
100
AcDbEntity
  8
0
  6
Continuous
 62
     7
100
AcDbMText
 10
-5.4024347688
 20
-11.6781886689
 30
0.0
 40
0.1903
 41
0.0
 71
     1
 72
     1
  1
SOLIDWORKS Educational Product.
  7
SLDTEXTSTYLE0
 73
     1
 44
1.0
  0
MTEXT
  5
70
330
1F
100
AcDbEntity
  8
0
  6
Continuous
 62
     7
100
AcDbMText
 10
-5.4024347688
 20
-11.9636386689
 30
0.0
 40
0.1903
 41
0.0
 71
     1
 72
     1
  1
For Instructional Use Only.
  7
SLDTEXTSTYLE0
 73
     1
 44
1.0
  0
ENDSEC
  0
SECTION
  2
OBJECTS
  0
DICTIONARY
  5
C
330
0
100
AcDbDictionary
281
     1
  3
ACAD_GROUP
350
D
  3
ACAD_LAYOUT
350
1A
  3
ACAD_MLINESTYLE
350
17
  3
ACAD_PLOTSETTINGS
350
19
  3
ACAD_PLOTSTYLENAME
350
E
  3
ACAD_SCALELIST
350
47
  3
DWGPROPS
350
71
  0
DICTIONARY
  5
D
102
{ACAD_REACTORS
330
C
102
}
330
C
100
AcDbDictionary
281
     1
  0
DICTIONARY
  5
1A
102
{ACAD_REACTORS
330
C
102
}
330
C
100
AcDbDictionary
281
     1
  3
Layout1
350
1E
  3
Layout2
350
26
  3
Model
350
22
  0
DICTIONARY
  5
17
102
{ACAD_REACTORS
330
C
102
}
330
C
100
AcDbDictionary
281
     1
  3
Standard
350
18
  0
DICTIONARY
  5
19
102
{ACAD_REACTORS
330
C
102
}
330
C
100
AcDbDictionary
281
     1
  0
ACDBDICTIONARYWDFLT
  5
E
102
{ACAD_REACTORS
330
C
102
}
330
C
100
AcDbDictionary
281
     1
  3
Normal
350
F
100
AcDbDictionaryWithDefault
340
F
  0
DICTIONARY
  5
47
102
{ACAD_REACTORS
330
C
102
}
330
C
100
AcDbDictionary
281
     1
  3
A0
350
48
  3
A1
350
49
  3
A2
350
4A
  3
A3
350
4B
  3
A4
350
4C
  3
A5
350
4D
  3
A6
350
4E
  3
A7
350
4F
  3
A8
350
50
  3
A9
350
51
  3
B1
350
52
  3
B2
350
53
  3
B3
350
54
  3
B4
350
55
  3
B5
350
56
  3
B6
350
57
  3
B7
350
58
  0
XRECORD
  5
71
102
{ACAD_REACTORS
330
C
102
}
330
C
100
AcDbXrecord
280
     1
  1
DWGPROPS COOKIE
  2

  3

  4

  6

  7

  8
manny
  9

300
=
301
=
302
=
303
=
304
=
305
=
306
=
307
=
308
=
309
=
 40
0.0
 41
2460633.148670521
 42
2460633.148763727
  1

 90
        0
  0
LAYOUT
  5
1E
102
{ACAD_REACTORS
330
1A
102
}
330
1A
100
AcDbPlotSettings
  1

  2
none_device
  4

  6

 40
0.0
 41
0.0
 42
0.0
 43
0.0
 44
0.0
 45
0.0
 46
0.0
 47
0.0
 48
0.0
 49
0.0
140
0.0
141
0.0
142
1.0
143
1.0
 70
   688
 72
     0
 73
     0
 74
     5
  7

 75
    16
147
1.0
148
0.0
149
0.0
100
AcDbLayout
  1
Layout1
 70
     1
 71
     1
 10
0.0
 20
0.0
 11
12.0
 21
9.0
 12
0.0
 22
0.0
 32
0.0
 14
1.0000000000E+20
 24
1.0000000000E+20
 34
1.0000000000E+20
 15
-1.0000000000E+20
 25
-1.0000000000E+20
 35
-1.0000000000E+20
146
0.0
 13
0.0
 23
0.0
 33
0.0
 16
1.0
 26
0.0
 36
0.0
 17
0.0
 27
1.0
 37
0.0
 76
     0
330
1B
  0
LAYOUT
  5
26
102
{ACAD_REACTORS
330
1A
102
}
330
1A
100
AcDbPlotSettings
  1

  2
none_device
  4

  6

 40
0.0
 41
0.0
 42
0.0
 43
0.0
 44
0.0
 45
0.0
 46
0.0
 47
0.0
 48
0.0
 49
0.0
140
0.0
141
0.0
142
1.0
143
1.0
 70
   688
 72
     0
 73
     0
 74
     5
  7

 75
    16
147
1.0
148
0.0
149
0.0
100
AcDbLayout
  1
Layout2
 70
     1
 71
     2
 10
0.0
 20
0.0
 11
0.0
 21
0.0
 12
0.0
 22
0.0
 32
0.0
 14
0.0
 24
0.0
 34
0.0
 15
0.0
 25
0.0
 35
0.0
146
0.0
 13
0.0
 23
0.0
 33
0.0
 16
1.0
 26
0.0
 36
0.0
 17
0.0
 27
1.0
 37
0.0
 76
     0
330
23
  0
LAYOUT
  5
22
102
{ACAD_REACTORS
330
1A
102
}
330
1A
100
AcDbPlotSettings
  1

  2
none_device
  4
ANSI_A_(11.00_x_8.50_Inches)
  6

 40
6.35
 41
19.05
 42
6.35000508
 43
19.05000254
 44
279.4
 45
215.9
 46
175.201310654
 47
106.6420794923
 48
0.0
 49
0.0
140
0.0
141
0.0
142
0.421548958
143
1.0
 70
  1696
 72
     0
 73
     0
 74
     0
  7

 75
     0
147
0.5913241897
148
-39.4088153714
149
0.0
100
AcDbLayout
  1
Model
 70
     1
 71
     0
 10
0.0
 20
0.0
 11
12.0
 21
9.0
 12
0.0
 22
0.0
 32
0.0
 14
-5.4024347688
 24
-11.6380482598
 34
0.0
 15
-2.4148754852
 25
8.3240459194
 35
0.0
146
0.0
 13
0.0
 23
0.0
 33
0.0
 16
1.0
 26
0.0
 36
0.0
 17
0.0
 27
1.0
 37
0.0
 76
     0
330
1F
331
29
  0
MLINESTYLE
  5
18
102
{ACAD_REACTORS
330
17
102
}
330
17
100
AcDbMlineStyle
  2
Standard
 70
     0
  3

 62
   256
 51
90.0
 52
90.0
 71
     2
 49
0.5
 62
   256
  6
BYLAYER
 49
-0.5
 62
   256
  6
BYLAYER
  0
ACDBPLACEHOLDER
  5
F
102
{ACAD_REACTORS
330
E
102
}
330
E
  0
SCALE
  5
48
102
{ACAD_REACTORS
330
47
102
}
330
47
100
AcDbScale
 70
     0
300
1:1
140
1.0
141
1.0
290
     1
  0
SCALE
  5
49
102
{ACAD_REACTORS
330
47
102
}
330
47
100
AcDbScale
 70
     0
300
1/128" = 1'-0"
140
0.0078125
141
12.0
290
     0
  0
SCALE
  5
4A
102
{ACAD_REACTORS
330
47
102
}
330
47
100
AcDbScale
 70
     0
300
1/64" = 1'-0"
140
0.015625
141
12.0
290
     0
  0
SCALE
  5
4B
102
{ACAD_REACTORS
330
47
102
}
330
47
100
AcDbScale
 70
     0
300
1/32" = 1'-0"
140
0.03125
141
12.0
290
     0
  0
SCALE
  5
4C
102
{ACAD_REACTORS
330
47
102
}
330
47
100
AcDbScale
 70
     0
300
1/16" = 1'-0"
140
0.0625
141
12.0
290
     0
  0
SCALE
  5
4D
102
{ACAD_REACTORS
330
47
102
}
330
47
100
AcDbScale
 70
     0
300
3/32" = 1'-0"
140
0.09375
141
12.0
290
     0
  0
SCALE
  5
4E
102
{ACAD_REACTORS
330
47
102
}
330
47
100
AcDbScale
 70
     0
300
1/8" = 1'-0"
140
0.125
141
12.0
290
     0
  0
SCALE
  5
4F
102
{ACAD_REACTORS
330
47
102
}
330
47
100
AcDbScale
 70
     0
300
3/16" = 1'-0"
140
0.1875
141
12.0
290
     0
  0
SCALE
  5
50
102
{ACAD_REACTORS
330
47
102
}
330
47
100
AcDbScale
 70
     0
300
1/4" = 1'-0"
140
0.25
141
12.0
290
     0
  0
SCALE
  5
51
102
{ACAD_REACTORS
330
47
102
}
330
47
100
AcDbScale
 70
     0
300
3/8" = 1'-0"
140
0.375
141
12.0
290
     0
  0
SCALE
  5
52
102
{ACAD_REACTORS
330
47
102
}
330
47
100
AcDbScale
 70
     0
300
1/2" = 1'-0"
140
0.5
141
12.0
290
     0
  0
SCALE
  5
53
102
{ACAD_REACTORS
330
47
102
}
330
47
100
AcDbScale
 70
     0
300
3/4" = 1'-0"
140
0.75
141
12.0
290
     0
  0
SCALE
  5
54
102
{ACAD_REACTORS
330
47
102
}
330
47
100
AcDbScale
 70
     0
300
1" = 1'-0"
140
1.0
141
12.0
290
     0
  0
SCALE
  5
55
102
{ACAD_REACTORS
330
47
102
}
330
47
100
AcDbScale
 70
     0
300
1-1/2" = 1'-0"
140
1.5
141
12.0
290
     0
  0
SCALE
  5
56
102
{ACAD_REACTORS
330
47
102
}
330
47
100
AcDbScale
 70
     0
300
3" = 1'-0"
140
3.0
141
12.0
290
     0
  0
SCALE
  5
57
102
{ACAD_REACTORS
330
47
102
}
330
47
100
AcDbScale
 70
     0
300
6" = 1'-0"
140
6.0
141
12.0
290
     0
  0
SCALE
  5
58
102
{ACAD_REACTORS
330
47
102
}
330
47
100
AcDbScale
 70
     0
300
1'-0" = 1'-0"
140
12.0
141
12.0
290
     0
  0
ENDSEC
  0
EOF
