  0
SECTION
  2
HEADER
  9
$ACADVER
  1
AC1015
  9
$ACADMAINTVER
 70
     6
  9
$DWGCODEPAGE
  3
ANSI_1252
  9
$INSBASE
 10
0.0
 20
0.0
 30
0.0
  9
$EXTMIN
 10
2.1624201119
 20
-12.8094805035
 30
0.0
  9
$EXTMAX
 10
5.149979462
 20
8.3152993946
 30
0.0
  9
$LIMMIN
 10
0.0
 20
0.0
  9
$LIMMAX
 10
12.0
 20
9.0
  9
$ORTHOMODE
 70
     0
  9
$REGENMODE
 70
     1
  9
$FILLMODE
 70
     1
  9
$QTEXTMODE
 70
     0
  9
$MIRRTEXT
 70
     1
  9
$LTSCALE
 40
1.0
  9
$ATTMODE
 70
     1
  9
$TEXTSIZE
 40
0.1377952756
  9
$TRACEWID
 40
0.05
  9
$TEXTSTYLE
  7
Standard
  9
$CLAYER
  8
0
  9
$CELTYPE
  6
ByLayer
  9
$CECOLOR
 62
   256
  9
$CELTSCALE
 40
1.0
  9
$DISPSILH
 70
     0
  9
$DIMSCALE
 40
1.0
  9
$DIMASZ
 40
0.13
  9
$DIMEXO
 40
0.0
  9
$DIMDLI
 40
0.38
  9
$DIMRND
 40
0.0
  9
$DIMDLE
 40
0.0
  9
$DIMEXE
 40
0.0393700787
  9
$DIMTP
 40
0.0
  9
$DIMTM
 40
0.0
  9
$DIMTXT
 40
0.1377952756
  9
$DIMCEN
 40
0.09
  9
$DIMTSZ
 40
0.0
  9
$DIMTOL
 70
     0
  9
$DIMLIM
 70
     0
  9
$DIMTIH
 70
     1
  9
$DIMTOH
 70
     1
  9
$DIMSE1
 70
     0
  9
$DIMSE2
 70
     0
  9
$DIMTAD
 70
     1
  9
$DIMZIN
 70
     1
  9
$DIMBLK
  1

  9
$DIMASO
 70
     1
  9
$DIMSHO
 70
     1
  9
$DIMPOST
  1

  9
$DIMAPOST
  1

  9
$DIMALT
 70
     0
  9
$DIMALTD
 70
     2
  9
$DIMALTF
 40
25.4
  9
$DIMLFAC
 40
1.0
  9
$DIMTOFL
 70
     0
  9
$DIMTVP
 40
0.0
  9
$DIMTIX
 70
     0
  9
$DIMSOXD
 70
     0
  9
$DIMSAH
 70
     0
  9
$DIMBLK1
  1

  9
$DIMBLK2
  1

  9
$DIMSTYLE
  2
Standard
  9
$DIMCLRD
 70
     0
  9
$DIMCLRE
 70
     0
  9
$DIMCLRT
 70
     0
  9
$DIMTFAC
 40
1.0
  9
$DIMGAP
 40
0.06
  9
$DIMJUST
 70
     0
  9
$DIMSD1
 70
     0
  9
$DIMSD2
 70
     0
  9
$DIMTOLJ
 70
     1
  9
$DIMTZIN
 70
     1
  9
$DIMALTZ
 70
     0
  9
$DIMALTTZ
 70
     0
  9
$DIMUPT
 70
     0
  9
$DIMDEC
 70
     2
  9
$DIMTDEC
 70
     2
  9
$DIMALTU
 70
     2
  9
$DIMALTTD
 70
     2
  9
$DIMTXSTY
  7
Standard
  9
$DIMAUNIT
 70
     0
  9
$DIMADEC
 70
     2
  9
$DIMALTRND
 40
0.0
  9
$DIMAZIN
 70
     0
  9
$DIMDSEP
 70
    46
  9
$DIMATFIT
 70
     3
  9
$DIMFRAC
 70
     0
  9
$DIMLDRBLK
  1

  9
$DIMLUNIT
 70
     2
  9
$DIMLWD
 70
    -2
  9
$DIMLWE
 70
    -2
  9
$DIMTMOVE
 70
     0
  9
$LUNITS
 70
     2
  9
$LUPREC
 70
     2
  9
$SKETCHINC
 40
0.1
  9
$FILLETRAD
 40
0.0
  9
$AUNITS
 70
     0
  9
$AUPREC
 70
     2
  9
$MENU
  1
.
  9
$ELEVATION
 40
0.0
  9
$PELEVATION
 40
0.0
  9
$THICKNESS
 40
0.0
  9
$LIMCHECK
 70
     0
  9
$CHAMFERA
 40
0.0
  9
$CHAMFERB
 40
0.0
  9
$CHAMFERC
 40
0.0
  9
$CHAMFERD
 40
0.0
  9
$SKPOLY
 70
     0
  9
$TDCREATE
 40
2460632.817227986
  9
$TDUCREATE
 40
2460633.15056132
  9
$TDUPDATE
 40
2460632.817278194
  9
$TDUUPDATE
 40
2460633.150611528
  9
$TDINDWG
 40
0.0000000116
  9
$TDUSRTIMER
 40
0.0000000116
  9
$USRTIMER
 70
     1
  9
$ANGBASE
 50
0.0
  9
$ANGDIR
 70
     0
  9
$PDMODE
 70
     0
  9
$PDSIZE
 40
-1.0
  9
$PLINEWID
 40
0.0
  9
$SPLFRAME
 70
     0
  9
$SPLINETYPE
 70
     6
  9
$SPLINESEGS
 70
     8
  9
$HANDSEED
  5
76
  9
$SURFTAB1
 70
     6
  9
$SURFTAB2
 70
     6
  9
$SURFTYPE
 70
     6
  9
$SURFU
 70
     6
  9
$SURFV
 70
     6
  9
$UCSBASE
  2

  9
$UCSNAME
  2

  9
$UCSORG
 10
0.0
 20
0.0
 30
0.0
  9
$UCSXDIR
 10
1.0
 20
0.0
 30
0.0
  9
$UCSYDIR
 10
0.0
 20
1.0
 30
0.0
  9
$UCSORTHOREF
  2

  9
$UCSORTHOVIEW
 70
     0
  9
$UCSORGTOP
 10
0.0
 20
0.0
 30
0.0
  9
$UCSORGBOTTOM
 10
0.0
 20
0.0
 30
0.0
  9
$UCSORGLEFT
 10
0.0
 20
0.0
 30
0.0
  9
$UCSORGRIGHT
 10
0.0
 20
0.0
 30
0.0
  9
$UCSORGFRONT
 10
0.0
 20
0.0
 30
0.0
  9
$UCSORGBACK
 10
0.0
 20
0.0
 30
0.0
  9
$PUCSBASE
  2

  9
$PUCSNAME
  2

  9
$PUCSORG
 10
0.0
 20
0.0
 30
0.0
  9
$PUCSXDIR
 10
1.0
 20
0.0
 30
0.0
  9
$PUCSYDIR
 10
0.0
 20
1.0
 30
0.0
  9
$PUCSORTHOREF
  2

  9
$PUCSORTHOVIEW
 70
     0
  9
$PUCSORGTOP
 10
0.0
 20
0.0
 30
0.0
  9
$PUCSORGBOTTOM
 10
0.0
 20
0.0
 30
0.0
  9
$PUCSORGLEFT
 10
0.0
 20
0.0
 30
0.0
  9
$PUCSORGRIGHT
 10
0.0
 20
0.0
 30
0.0
  9
$PUCSORGFRONT
 10
0.0
 20
0.0
 30
0.0
  9
$PUCSORGBACK
 10
0.0
 20
0.0
 30
0.0
  9
$USERI1
 70
     0
  9
$USERI2
 70
     0
  9
$USERI3
 70
     0
  9
$USERI4
 70
     0
  9
$USERI5
 70
     0
  9
$USERR1
 40
0.0
  9
$USERR2
 40
0.0
  9
$USERR3
 40
0.0
  9
$USERR4
 40
0.0
  9
$USERR5
 40
0.0
  9
$WORLDVIEW
 70
     1
  9
$SHADEDGE
 70
     3
  9
$SHADEDIF
 70
    70
  9
$TILEMODE
 70
     1
  9
$MAXACTVP
 70
    64
  9
$PINSBASE
 10
0.0
 20
0.0
 30
0.0
  9
$PLIMCHECK
 70
     0
  9
$PEXTMIN
 10
1.0000000000E+20
 20
1.0000000000E+20
 30
1.0000000000E+20
  9
$PEXTMAX
 10
-1.0000000000E+20
 20
-1.0000000000E+20
 30
-1.0000000000E+20
  9
$PLIMMIN
 10
0.0
 20
0.0
  9
$PLIMMAX
 10
12.0
 20
9.0
  9
$UNITMODE
 70
     0
  9
$VISRETAIN
 70
     1
  9
$PLINEGEN
 70
     0
  9
$PSLTSCALE
 70
     1
  9
$TREEDEPTH
 70
  3020
  9
$CMLSTYLE
  2
Standard
  9
$CMLJUST
 70
     0
  9
$CMLSCALE
 40
1.0
  9
$PROXYGRAPHICS
 70
     1
  9
$MEASUREMENT
 70
     0
  9
$CELWEIGHT
370
    -1
  9
$ENDCAPS
280
     0
  9
$JOINSTYLE
280
     0
  9
$LWDISPLAY
290
     1
  9
$INSUNITS
 70
     1
  9
$HYPERLINKBASE
  1

  9
$STYLESHEET
  1

  9
$XEDIT
290
     1
  9
$CEPSNTYPE
380
     0
  9
$PSTYLEMODE
290
     1
  9
$FINGERPRINTGUID
  2
{1aec5dfd-8a73-4647-83cf-88cb8b360285}
  9
$VERSIONGUID
  2
{FAEB1C32-E019-11D5-929B-00C0DF256EC4}
  9
$EXTNAMES
290
     1
  9
$PSVPSCALE
 40
0.0
  9
$OLESTARTUP
290
     0
  0
ENDSEC
  0
SECTION
  2
CLASSES
  0
CLASS
  1
ACDBDICTIONARYWDFLT
  2
AcDbDictionaryWithDefault
  3
ObjectDBX Classes
 90
        0
280
     0
281
     0
  0
CLASS
  1
VISUALSTYLE
  2
AcDbVisualStyle
  3
ObjectDBX Classes
 90
     4095
280
     0
281
     0
  0
CLASS
  1
MATERIAL
  2
AcDbMaterial
  3
ObjectDBX Classes
 90
     1153
280
     0
281
     0
  0
CLASS
  1
SCALE
  2
AcDbScale
  3
ObjectDBX Classes
 90
     1153
280
     0
281
     0
  0
CLASS
  1
TABLESTYLE
  2
AcDbTableStyle
  3
ObjectDBX Classes
 90
     4095
280
     0
281
     0
  0
CLASS
  1
MLEADERSTYLE
  2
AcDbMLeaderStyle
  3
ACDB_MLEADERSTYLE_CLASS
 90
     4095
280
     0
281
     0
  0
CLASS
  1
SUN
  2
AcDbSun
  3
SCENEOE
 90
     1153
280
     0
281
     0
  0
CLASS
  1
ACDBPLACEHOLDER
  2
AcDbPlaceHolder
  3
ObjectDBX Classes
 90
        0
280
     0
281
     0
  0
CLASS
  1
LAYOUT
  2
AcDbLayout
  3
ObjectDBX Classes
 90
        0
280
     0
281
     0
  0
ENDSEC
  0
SECTION
  2
TABLES
  0
TABLE
  2
VPORT
  5
8
330
0
100
AcDbSymbolTable
 70
     1
  0
VPORT
  5
29
330
8
100
AcDbSymbolTableRecord
100
AcDbViewportTableRecord
  2
*Active
 70
     0
 10
0.0
 20
0.0
 11
1.0
 21
1.0
 12
3.656199787
 22
-2.2470905544
 13
0.0
 23
0.0
 14
0.5
 24
0.5
 15
0.5
 25
0.5
 16
0.0
 26
0.0
 36
1.0
 17
0.0
 27
0.0
 37
0.0
 40
21.5472754961
 41
0.1414244013
 42
50.0
 43
0.0
 44
0.0
 50
0.0
 51
0.0
 71
     0
 72
   100
 73
     1
 74
     3
 75
     0
 76
     0
 77
     0
 78
     0
281
     0
 65
     1
110
0.0
120
0.0
130
0.0
111
1.0
121
0.0
131
0.0
112
0.0
122
1.0
132
0.0
 79
     0
146
0.0
  0
ENDTAB
  0
TABLE
  2
LTYPE
  5
5
330
0
100
AcDbSymbolTable
 70
     6
  0
LTYPE
  5
14
330
5
100
AcDbSymbolTableRecord
100
AcDbLinetypeTableRecord
  2
ByBlock
 70
     0
  3

 72
    65
 73
     0
 40
0.0
  0
LTYPE
  5
15
330
5
100
AcDbSymbolTableRecord
100
AcDbLinetypeTableRecord
  2
ByLayer
 70
     0
  3

 72
    65
 73
     0
 40
0.0
  0
LTYPE
  5
16
330
5
100
AcDbSymbolTableRecord
100
AcDbLinetypeTableRecord
  2
Continuous
 70
     0
  3
Solid line
 72
    65
 73
     0
 40
0.0
  0
LTYPE
  5
5E
330
5
100
AcDbSymbolTableRecord
100
AcDbLinetypeTableRecord
  2
HIDDEN
 70
     0
  3
Hidden __ __ __ __ __ __ __ __ __ __ __ __ __ __
 72
    65
 73
     2
 40
0.075
 49
0.05
 74
     0
 49
-0.025
 74
     0
  0
LTYPE
  5
5F
330
5
100
AcDbSymbolTableRecord
100
AcDbLinetypeTableRecord
  2
PHANTOM
 70
     0
  3
Phantom ______  __  __  ______  __  __  ______
 72
    65
 73
     6
 40
0.5
 49
0.25
 74
     0
 49
-0.05
 74
     0
 49
0.05
 74
     0
 49
-0.05
 74
     0
 49
0.05
 74
     0
 49
-0.05
 74
     0
  0
LTYPE
  5
60
330
5
100
AcDbSymbolTableRecord
100
AcDbLinetypeTableRecord
  2
CENTER
 70
     0
  3
Center ____ _ ____ _ ____ _ ____ _ ____ _ ____
 72
    65
 73
     4
 40
0.4
 49
0.25
 74
     0
 49
-0.05
 74
     0
 49
0.05
 74
     0
 49
-0.05
 74
     0
  0
LTYPE
  5
61
330
5
100
AcDbSymbolTableRecord
100
AcDbLinetypeTableRecord
  2
CENTERX2
 70
     0
  3
Center (2x) ________  __  ________  __  _____
 72
    65
 73
     4
 40
0.8
 49
0.5
 74
     0
 49
-0.1
 74
     0
 49
0.1
 74
     0
 49
-0.1
 74
     0
  0
LTYPE
  5
62
330
5
100
AcDbSymbolTableRecord
100
AcDbLinetypeTableRecord
  2
DOT2
 70
     0
  3
Dot (.5x) ........................................
 72
    65
 73
     2
 40
0.025
 49
0.0
 74
     0
 49
-0.025
 74
     0
  0
ENDTAB
  0
TABLE
  2
LAYER
  5
2
330
0
100
AcDbSymbolTable
 70
     1
  0
LAYER
  5
10
330
2
100
AcDbSymbolTableRecord
100
AcDbLayerTableRecord
  2
0
 70
     0
 62
     7
  6
Continuous
370
    -3
390
F
  0
ENDTAB
  0
TABLE
  2
STYLE
  5
3
330
0
100
AcDbSymbolTable
 70
     2
  0
STYLE
  5
11
330
3
100
AcDbSymbolTableRecord
100
AcDbTextStyleTableRecord
  2
Standard
 70
     0
 40
0.0
 41
1.0
 50
0.0
 71
     0
 42
0.1377952756
  3
txt
  4

  0
STYLE
  5
72
330
3
100
AcDbSymbolTableRecord
100
AcDbTextStyleTableRecord
  2
SLDTEXTSTYLE0
 70
     0
 40
0.0
 41
0.7
 50
0.0
 71
     0
 42
0.1377952756
  3
TXT
  4

  0
ENDTAB
  0
TABLE
  2
VIEW
  5
6
330
0
100
AcDbSymbolTable
 70
     0
  0
ENDTAB
  0
TABLE
  2
UCS
  5
7
330
0
100
AcDbSymbolTable
 70
     0
  0
ENDTAB
  0
TABLE
  2
APPID
  5
9
330
0
100
AcDbSymbolTable
 70
     1
  0
APPID
  5
12
330
9
100
AcDbSymbolTableRecord
100
AcDbRegAppTableRecord
  2
ACAD
 70
     0
  0
ENDTAB
  0
TABLE
  2
DIMSTYLE
  5
A
330
0
100
AcDbSymbolTable
 70
     1
100
AcDbDimStyleTable
  0
DIMSTYLE
105
27
330
A
100
AcDbSymbolTableRecord
100
AcDbDimStyleTableRecord
  2
Standard
 70
     0
178
     0
340
11
  0
ENDTAB
  0
TABLE
  2
BLOCK_RECORD
  5
1
330
0
100
AcDbSymbolTable
 70
     1
  0
BLOCK_RECORD
  5
1F
330
1
100
AcDbSymbolTableRecord
100
AcDbBlockTableRecord
  2
*Model_Space
340
22
  0
BLOCK_RECORD
  5
1B
330
1
100
AcDbSymbolTableRecord
100
AcDbBlockTableRecord
  2
*Paper_Space
340
1E
  0
BLOCK_RECORD
  5
23
330
1
100
AcDbSymbolTableRecord
100
AcDbBlockTableRecord
  2
*Paper_Space0
340
26
  0
ENDTAB
  0
ENDSEC
  0
SECTION
  2
BLOCKS
  0
BLOCK
  5
20
330
1F
100
AcDbEntity
  8
0
100
AcDbBlockBegin
  2
*Model_Space
 70
     0
 10
0.0
 20
0.0
 30
0.0
  3
*Model_Space
  1

  0
ENDBLK
  5
21
330
1F
100
AcDbEntity
  8
0
100
AcDbBlockEnd
  0
BLOCK
  5
1C
330
1B
100
AcDbEntity
 67
     1
  8
0
100
AcDbBlockBegin
  2
*Paper_Space
 70
     0
 10
0.0
 20
0.0
 30
0.0
  3
*Paper_Space
  1

  0
ENDBLK
  5
1D
330
1B
100
AcDbEntity
 67
     1
  8
0
100
AcDbBlockEnd
  0
BLOCK
  5
24
330
23
100
AcDbEntity
  8
0
100
AcDbBlockBegin
  2
*Paper_Space0
 70
     0
 10
0.0
 20
0.0
 30
0.0
  3
*Paper_Space0
  1

  0
ENDBLK
  5
25
330
23
100
AcDbEntity
  8
0
100
AcDbBlockEnd
  0
ENDSEC
  0
SECTION
  2
ENTITIES
  0
SPLINE
  5
63
330
1F
100
AcDbEntity
  8
0
  6
Continuous
 62
     7
370
    25
100
AcDbSpline
210
0.0
220
0.0
230
1.0
 70
     8
 71
     3
 72
    13
 73
     9
 74
     0
 42
0.00000001
 43
0.00000001
 40
0.0
 40
0.0
 40
0.0
 40
0.0
 40
0.1598502425600485
 40
0.3223073720825471
 40
0.4874644719114481
 40
0.6554101361011251
 40
0.8262286199409955
 40
0.9999999999999999
 40
0.9999999999999999
 40
0.9999999999999999
 40
0.9999999999999999
 10
5.012495337233653
 20
-12.78691214736
 30
0.0
 10
5.016975260189524
 20
-12.78720233186048
 30
0.0
 10
5.026008166063887
 20
-12.78778743327961
 30
0.0
 10
5.039636869170679
 20
-12.78909730633311
 30
0.0
 10
5.053458859077455
 20
-12.79072789955056
 30
0.0
 10
5.067470970275023
 20
-12.79271794084167
 30
0.0
 10
5.081678792013294
 20
-12.79503287919069
 30
0.0
 10
5.091185253569063
 20
-12.79684427731909
 30
0.0
 10
5.095979216239156
 20
-12.79775773759632
 30
0.0
  0
SPLINE
  5
64
330
1F
100
AcDbEntity
  8
0
  6
Continuous
 62
     7
370
    25
100
AcDbSpline
210
0.0
220
0.0
230
1.0
 70
     8
 71
     3
 72
    32
 73
    28
 74
     0
 42
0.00000001
 43
0.00000001
 40
0.0
 40
0.0
 40
0.0
 40
0.0
 40
0.0267902974758051
 40
0.0533811159807658
 40
0.0797972152529449
 40
0.1060638491222421
 40
0.1322067045699908
 40
0.1582518348091033
 40
0.1842255871266794
 40
0.2101545263994274
 40
0.2360653553370846
 40
0.2619848326222456
 40
0.2879396901889345
 40
0.3139565509132937
 40
0.3400618479747411
 40
0.3662817470869481
 40
0.3926420726978799
 40
0.4191682391236314
 40
0.4458851874196298
 40
0.4728173286142657
 40
0.4999884937434337
 40
0.5701455490549003
 40
0.6452406667914182
 40
0.7255599327966366
 40
0.8113371778051262
 40
0.9027643647723856
 40
1.0
 40
1.0
 40
1.0
 40
1.0
 10
4.562662786962328
 20
-12.64154565838791
 30
0.0
 10
4.566946016021434
 20
-12.64059346625766
 30
0.0
 10
4.575480581469348
 20
-12.63869617196347
 30
0.0
 10
4.588339725896087
 20
-12.63634973475382
 30
0.0
 10
4.601174570181103
 20
-12.63438536182377
 30
0.0
 10
4.613993002307398
 20
-12.63283726362299
 30
0.0
 10
4.626792889652717
 20
-12.63169638862495
 30
0.0
 10
4.639574756000709
 20
-12.63096516713391
 30
0.0
 10
4.652338415385727
 20
-12.63064297130653
 30
0.0
 10
4.665083868205788
 20
-12.63072998167367
 30
0.0
 10
4.677811063496765
 20
-12.63122615685922
 30
0.0
 10
4.690519963360599
 20
-12.63213150821671
 30
0.0
 10
4.703210526851272
 20
-12.63344602627014
 30
0.0
 10
4.715882715177222
 20
-12.63516970115547
 30
0.0
 10
4.728536491864485
 20
-12.63730251530364
 30
0.0
 10
4.741171821453024
 20
-12.63984445421394
 30
0.0
 10
4.753788678667967
 20
-12.64279547316276
 30
0.0
 10
4.766387016191662
 20
-12.64615562392425
 30
0.0
 10
4.778966888179188
 20
-12.64992458068543
 30
0.0
 10
4.791527985463959
 20
-12.65410343227238
 30
0.0
 10
4.810643895417985
 20
-12.66109009365042
 30
0.0
 10
4.836636045579079
 20
-12.67219377748775
 30
0.0
 10
4.869596470377242
 20
-12.68892466824902
 30
0.0
 10
4.903757899524347
 20
-12.70879482412942
 30
0.0
 10
4.939101375734527
 20
-12.73183125698226
 30
0.0
 10
4.975711511404674
 20
-12.75793402861412
 30
0.0
 10
4.999984956753872
 20
-12.77705651710422
 30
0.0
 10
5.012495338238856
 20
-12.78691212773187
 30
0.0
  0
SPLINE
  5
65
330
1F
100
AcDbEntity
  8
0
  6
Continuous
 62
     7
370
    25
100
AcDbSpline
210
0.0
220
0.0
230
1.0
 70
     8
 71
     3
 72
    28
 73
    24
 74
     0
 42
0.00000001
 43
0.00000001
 40
0.0
 40
0.0
 40
0.0
 40
0.0
 40
0.0431701876481177
 40
0.0838453873717584
 40
0.1220328736107915
 40
0.1577414412055438
 40
0.1909818526920923
 40
0.2217674592905532
 40
0.250115080940162
 40
0.3206550436686107
 40
0.3854850001000405
 40
0.4451080542099244
 40
0.5001702221040335
 40
0.5635775311801936
 40
0.6250535431945743
 40
0.6865497494512658
 40
0.7500157784478808
 40
0.7849411632988689
 40
0.8223210531894309
 40
0.8623629952821157
 40
0.9052358932709312
 40
0.9510773694082418
 40
1.0
 40
1.0
 40
1.0
 40
1.0
 10
3.785931797069045
 20
-12.80948050350126
 30
0.0
 10
3.794684021495673
 20
-12.79935631366296
 30
0.0
 10
3.811682642242859
 20
-12.7796930537824
 30
0.0
 10
3.836862197818352
 20
-12.75145805176429
 30
0.0
 10
3.860854674895102
 20
-12.72526850780742
 30
0.0
 10
3.883686071993702
 20
-12.70114609510346
 30
0.0
 10
3.905351717053593
 20
-12.67908694859971
 30
0.0
 10
3.925847030469123
 20
-12.65908386313826
 30
0.0
 10
3.955336884688113
 20
-12.63176194785665
 30
0.0
 10
3.994218781435731
 20
-12.59906398767209
 30
0.0
 10
4.043478003407729
 20
-12.56390284663853
 30
0.0
 10
4.091732051981619
 20
-12.53598052011451
 30
0.0
 10
4.14243243587778
 20
-12.51380511527453
 30
0.0
 10
4.196513576817706
 20
-12.4990561198969
 30
0.0
 10
4.254374932987093
 20
-12.49385754458037
 30
0.0
 10
4.312224505529598
 20
-12.4992798741437
 30
0.0
 10
4.360258356592362
 20
-12.51250105818218
 30
0.0
 10
4.399167956861278
 20
-12.52865223970067
 30
0.0
 10
4.430183077268756
 20
-12.54457181357095
 30
0.0
 10
4.462135078862016
 20
-12.56384900294423
 30
0.0
 10
4.49500445365761
 20
-12.58652595962126
 30
0.0
 10
4.52889121484869
 20
-12.6124909866242
 30
0.0
 10
4.551164199220394
 20
-12.63165307699809
 30
0.0
 10
4.562662782641946
 20
-12.64154563971077
 30
0.0
  0
SPLINE
  5
66
330
1F
100
AcDbEntity
  8
0
  6
Continuous
 62
     7
370
    25
100
AcDbSpline
210
0.0
220
0.0
230
1.0
 70
     8
 71
     3
 72
    29
 73
    25
 74
     0
 42
0.00000001
 43
0.00000001
 40
0.0
 40
0.0
 40
0.0
 40
0.0
 40
0.0332468866205675
 40
0.0661093392926304
 40
0.0986104331971528
 40
0.1307740212753192
 40
0.1626247147503122
 40
0.1941878567884277
 40
0.225489489006302
 40
0.2565563106556462
 40
0.2874156304632184
 40
0.3180953112680172
 40
0.3486237077749877
 40
0.3790295979279479
 40
0.4093421085861803
 40
0.439590636360627
 40
0.4698047646178177
 40
0.5000141777843594
 40
0.5735354799719733
 40
0.6505906434860851
 40
0.7315036646015861
 40
0.816554462134082
 40
0.9059841090573265
 40
1.0
 40
1.0
 40
1.0
 40
1.0
 10
3.355911814022662
 20
-12.73813111798943
 30
0.0
 10
3.360713665465982
 20
-12.73678812993624
 30
0.0
 10
3.370261844515718
 20
-12.73411768280875
 30
0.0
 10
3.384629564307667
 20
-12.73060619565329
 30
0.0
 10
3.398920684155349
 20
-12.72748966153323
 30
0.0
 10
3.413144559228333
 20
-12.72480062467057
 30
0.0
 10
3.427298711598122
 20
-12.72253054237244
 30
0.0
 10
3.441383778758149
 20
-12.72068170525856
 30
0.0
 10
3.455399571185569
 20
-12.71925354396465
 30
0.0
 10
3.469346113002825
 20
-12.71824624319717
 30
0.0
 10
3.483223367158203
 20
-12.71765978589169
 30
0.0
 10
3.497031307998606
 20
-12.71749420538065
 30
0.0
 10
3.510769903768209
 20
-12.71774951753917
 30
0.0
 10
3.524439116817714
 20
-12.71842573919898
 30
0.0
 10
3.53803892263408
 20
-12.71952287846729
 30
0.0
 10
3.551569237135808
 20
-12.72104095232381
 30
0.0
 10
3.565030191611797
 20
-12.72297992383554
 30
0.0
 10
3.584814941399182
 20
-12.72646677998413
 30
0.0
 10
3.61124918316009
 20
-12.732604188192
 30
0.0
 10
3.644475514680846
 20
-12.74273989828342
 30
0.0
 10
3.678635660383657
 20
-12.75550204292476
 30
0.0
 10
3.713712438358712
 20
-12.77091842305665
 30
0.0
 10
3.749779662082582
 20
-12.78886707091137
 30
0.0
 10
3.773681889121669
 20
-12.80249577856429
 30
0.0
 10
3.785931787357059
 20
-12.80948049515807
 30
0.0
  0
SPLINE
  5
67
330
1F
100
AcDbEntity
  8
0
  6
Continuous
 62
     7
370
    25
100
AcDbSpline
210
0.0
220
0.0
230
1.0
 70
     8
 71
     3
 72
    41
 73
    37
 74
     0
 42
0.00000001
 43
0.00000001
 40
0.0
 40
0.0
 40
0.0
 40
0.0
 40
0.0512443708259274
 40
0.0973168510223055
 40
0.1382185840214514
 40
0.1739512096457759
 40
0.2045171996750617
 40
0.2299205340963524
 40
0.2501682375156681
 40
0.2706631996435242
 40
0.2900939778580313
 40
0.3084701640382287
 40
0.3258031009545689
 40
0.3421063090091548
 40
0.357396040553728
 40
0.3946372151495988
 40
0.4263009616832925
 40
0.4533261971126238
 40
0.4772054056770268
 40
0.50005606430002
 40
0.5221318601547438
 40
0.5475583987830431
 40
0.5773479676961121
 40
0.6121340196544712
 40
0.6523143861421729
 40
0.6981466426514864
 40
0.7498038886853022
 40
0.7798499556787205
 40
0.8107108360206636
 40
0.8423933342054226
 40
0.8749037388324877
 40
0.8999231270280854
 40
0.9249423112806507
 40
0.9499614275518361
 40
0.9749806118044012
 40
1.0
 40
1.0
 40
1.0
 40
1.0
 10
2.162420111919325
 20
-12.67327308566573
 30
0.0
 10
2.177414879413132
 20
-12.63763524331764
 30
0.0
 10
2.205891052128099
 20
-12.56995634437426
 30
0.0
 10
2.246843422796228
 20
-12.47404718377206
 30
0.0
 10
2.283645837649319
 20
-12.38909336080693
 30
0.0
 10
2.316316746388136
 20
-12.31510165436258
 30
0.0
 10
2.344861605836574
 20
-12.25207409359941
 30
0.0
 10
2.369226595641197
 20
-12.19998238188008
 30
0.0
 10
2.391323475664878
 20
-12.15522786520765
 30
0.0
 10
2.412522791279414
 20
-12.11507547567798
 30
0.0
 10
2.433780694209738
 20
-12.07656106481558
 30
0.0
 10
2.454754345585113
 20
-12.04062626821947
 30
0.0
 10
2.475413518764384
 20
-12.00725593581591
 30
0.0
 10
2.495766767609919
 20
-11.97644992527828
 30
0.0
 10
2.525831671122256
 20
-11.93409919138326
 30
0.0
 10
2.566093703013951
 20
-11.88475490708654
 30
0.0
 10
2.619528658336795
 20
-11.8354592520107
 30
0.0
 10
2.673175608955416
 20
-11.80271326043461
 30
0.0
 10
2.727549273739176
 20
-11.78728226325598
 30
0.0
 10
2.780394710348926
 20
-11.7903490904216
 30
0.0
 10
2.830386949895281
 20
-11.80998256493028
 30
0.0
 10
2.878689746273024
 20
-11.84329423065388
 30
0.0
 10
2.927628402839654
 20
-11.89068798231661
 30
0.0
 10
2.977472707670956
 20
-11.95220575686783
 30
0.0
 10
3.028346935459882
 20
-12.02793595384082
 30
0.0
 10
3.080333439643223
 20
-12.11793461293704
 30
0.0
 10
3.123887169991282
 20
-12.20377917185766
 30
0.0
 10
3.160172516528531
 20
-12.28056904643744
 30
0.0
 10
3.189120638325129
 20
-12.34415048382077
 30
0.0
 10
3.217904515715337
 20
-12.40984207600325
 30
0.0
 10
3.243961386104989
 20
-12.471906380712
 30
0.0
 10
3.267767848242549
 20
-12.52946010457436
 30
0.0
 10
3.289632304596919
 20
-12.58170029242515
 30
0.0
 10
3.311594744312481
 20
-12.63389900084504
 30
0.0
 10
3.333677092754717
 20
-12.68604736926509
 30
0.0
 10
3.348500216649001
 20
-12.7207698091439
 30
0.0
 10
3.355911808803568
 20
-12.7381310998427
 30
0.0
  0
SPLINE
  5
6A
330
1F
100
AcDbEntity
  8
0
  6
Continuous
 62
     7
370
    25
100
AcDbSpline
210
0.0
220
0.0
230
1.0
 70
     8
 71
     3
 72
    47
 73
    43
 74
     0
 42
0.00000001
 43
0.00000001
 40
0.0
 40
0.0
 40
0.0
 40
0.0
 40
0.0312871224123294
 40
0.0625731423611268
 40
0.0938591623099258
 40
0.1251462847222527
 40
0.1537254314392008
 40
0.1805117501393019
 40
0.2055209038748945
 40
0.2287721475033615
 40
0.2502894556203821
 40
0.3223193085877764
 40
0.3853589740526603
 40
0.4429399358345633
 40
0.4996232925798884
 40
0.5240839434890817
 40
0.5499747515099357
 40
0.577510481948758
 40
0.6068698241651903
 40
0.6346673426634706
 40
0.6628230309269669
 40
0.6913896935642606
 40
0.7204178924850952
 40
0.7499558195730739
 40
0.7655998474180253
 40
0.7812433336276443
 40
0.7968864587366238
 40
0.8125294032921568
 40
0.8281723478476899
 40
0.8438154729566675
 40
0.859458959166287
 40
0.8751029870112397
 40
0.8913455702527863
 40
0.9067092664546565
 40
0.9212055963327338
 40
0.9348482781515927
 40
0.9476537739566431
 40
0.9596419951233394
 40
0.9708372145939885
 40
0.981269242181006
 40
0.990974922398412
 40
1.0
 40
1.0
 40
1.0
 40
1.0
 10
3.514650639820459
 20
8.18640035464578
 30
0.0
 10
3.502835047013921
 20
8.172861027585807
 30
0.0
 10
3.479204277746586
 20
8.145782850550772
 30
0.0
 10
3.443458552728095
 20
8.105428868941312
 30
0.0
 10
3.407470643625944
 20
8.06529121605808
 30
0.0
 10
3.372360094183311
 20
8.026455568531231
 30
0.0
 10
3.338520993415402
 20
7.989955927663482
 30
0.0
 10
3.306314132029347
 20
7.956875832808835
 30
0.0
 10
3.27547538745162
 20
7.926755214287923
 30
0.0
 10
3.245977164272257
 20
7.899610035394445
 30
0.0
 10
3.195097005731076
 20
7.855897782954898
 30
0.0
 10
3.121358679065146
 20
7.803515022523361
 30
0.0
 10
3.018940353111684
 20
7.759003795636951
 30
0.0
 10
2.916714712245226
 20
7.744335989322316
 30
0.0
 10
2.836854353662203
 20
7.757610969174531
 30
0.0
 10
2.779243695448048
 20
7.779253151728022
 30
0.0
 10
2.738974648704303
 20
7.798889863321191
 30
0.0
 10
2.698130392684248
 20
7.823334308509503
 30
0.0
 10
2.658410367497377
 20
7.851482118451283
 30
0.0
 10
2.620026383115291
 20
7.881963511079341
 30
0.0
 10
2.58329150190476
 20
7.913721589077364
 30
0.0
 10
2.547462093443003
 20
7.947534717446061
 30
0.0
 10
2.512463575584306
 20
7.983328975137955
 30
0.0
 10
2.484036226846954
 20
8.01510083944336
 30
0.0
 10
2.461198978026925
 20
8.041537757080137
 30
0.0
 10
2.443424823340545
 20
8.061802621101938
 30
0.0
 10
2.425604941176994
 20
8.082025993527653
 30
0.0
 10
2.407710843581845
 20
8.102183473243766
 30
0.0
 10
2.389749038483387
 20
8.122280579623304
 30
0.0
 10
2.371721981409479
 20
8.142319635593745
 30
0.0
 10
2.353613341981776
 20
8.162285829673873
 30
0.0
 10
2.33525507891376
 20
8.182490218003787
 30
0.0
 10
2.316745277269674
 20
8.202339944907806
 30
0.0
 10
2.298144099529474
 20
8.221190662659408
 30
0.0
 10
2.280097309626551
 20
8.238476555777174
 30
0.0
 10
2.262588747441764
 20
8.254183483536522
 30
0.0
 10
2.245622019424889
 20
8.26831662254772
 30
0.0
 10
2.229193881603157
 20
8.280872237562576
 30
0.0
 10
2.213307928797959
 20
8.291863105907371
 30
0.0
 10
2.197946461229672
 20
8.301249566171915
 30
0.0
 10
2.183159880085049
 20
8.309166334693165
 30
0.0
 10
2.173223976692948
 20
8.313305171034584
 30
0.0
 10
2.168436540967061
 20
8.315299394627807
 30
0.0
  0
SPLINE
  5
6B
330
1F
100
AcDbEntity
  8
0
  6
Continuous
 62
     7
370
    25
100
AcDbSpline
210
0.0
220
0.0
230
1.0
 70
     8
 71
     3
 72
    66
 73
    62
 74
     0
 42
0.00000001
 43
0.00000001
 40
0.0
 40
0.0
 40
0.0
 40
0.0
 40
0.0032847015228671
 40
0.0065228238682806
 40
0.0097191575082287
 40
0.0128786830005017
 40
0.0160065567382429
 40
0.0191080929844654
 40
0.0221887423053841
 40
0.0252540666886733
 40
0.0283097118080473
 40
0.0313613770584939
 40
0.034414784121183
 40
0.0374756449093654
 40
0.0451872015152345
 40
0.0535135169122102
 40
0.0624947718842661
 40
0.075113844602245
 40
0.0897246909989708
 40
0.1063582548857478
 40
0.1250354292357916
 40
0.1367358474755425
 40
0.1614832307802325
 40
0.1992780830144665
 40
0.2501205201307181
 40
0.2718542871673601
 40
0.2922966616770113
 40
0.3114492337401086
 40
0.3293139378440368
 40
0.3458931592931627
 40
0.3611898847612792
 40
0.3752079206894727
 40
0.415405457698849
 40
0.4493622741824643
 40
0.4774224863293801
 40
0.5001990607360802
 40
0.5160078483980436
 40
0.5305247015061285
 40
0.5450481750487163
 40
0.5608751945433236
 40
0.5790253684042815
 40
0.6001850961682014
 40
0.624790184049843
 40
0.6500838116749801
 40
0.6793138424900086
 40
0.712557799751258
 40
0.7498681947807916
 40
0.7694460092893818
 40
0.796818793405836
 40
0.8319883229788912
 40
0.8749554071392669
 40
0.8918669275158317
 40
0.907793239741851
 40
0.9227357480144222
 40
0.9366961533993893
 40
0.9496765430788601
 40
0.9616795154870074
 40
0.9727083599283863
 40
0.9827673213795038
 40
0.9918620030077707
 40
1.0
 40
1.0
 40
1.0
 40
1.0
 10
5.149979462020846
 20
8.313772084778241
 30
0.0
 10
5.146555979083079
 20
8.312719671743281
 30
0.0
 10
5.139757560394606
 20
8.310629769566193
 30
0.0
 10
5.129785409598872
 20
8.307035081748504
 30
0.0
 10
5.120078879569245
 20
8.30313142103221
 30
0.0
 10
5.110647894406817
 20
8.298885399371974
 30
0.0
 10
5.101489948937135
 20
8.29430575344899
 30
0.0
 10
5.092605823798174
 20
8.289390149131195
 30
0.0
 10
5.083995420074732
 20
8.284139210047062
 30
0.0
 10
5.075658949987517
 20
8.278552726556217
 30
0.0
 10
5.067596261877115
 20
8.27263100151028
 30
0.0
 10
5.059808336300343
 20
8.266373220158666
 30
0.0
 10
5.052291956345817
 20
8.259782627070845
 30
0.0
 10
5.041409137458125
 20
8.24934700422021
 30
0.0
 10
5.027352064982695
 20
8.233949247887187
 30
0.0
 10
5.010471168694761
 20
8.212498574211537
 30
0.0
 10
4.991964607983938
 20
8.18560235839243
 30
0.0
 10
4.971710726025473
 20
8.151684549062313
 30
0.0
 10
4.949303297162402
 20
8.109418148830905
 30
0.0
 10
4.925799523386659
 20
8.060320117676046
 30
0.0
 10
4.904737157525637
 20
8.013577124164357
 30
0.0
 10
4.882378648733757
 20
7.957784584254841
 30
0.0
 10
4.852543078748011
 20
7.882542975219058
 30
0.0
 10
4.807208718927367
 20
7.767535546746265
 30
0.0
 10
4.763345042348524
 20
7.65548269302119
 30
0.0
 10
4.726068498176041
 20
7.561166944760642
 30
0.0
 10
4.700894738119889
 20
7.49922151608946
 30
0.0
 10
4.676788913280804
 20
7.441398289095656
 30
0.0
 10
4.653724706342974
 20
7.387707157606442
 30
0.0
 10
4.631707146550037
 20
7.338146286244206
 30
0.0
 10
4.610742175652862
 20
7.292710901535548
 30
0.0
 10
4.577796663051379
 20
7.224459279042886
 30
0.0
 10
4.532717027835954
 20
7.139466240635493
 30
0.0
 10
4.472679888750024
 20
7.045372864907834
 30
0.0
 10
4.414186313460521
 20
6.973462267416228
 30
0.0
 10
4.358990150512218
 20
6.925274484987761
 30
0.0
 10
4.30675672666225
 20
6.898869354724053
 30
0.0
 10
4.257847044751557
 20
6.89007945893574
 30
0.0
 10
4.208653243818554
 20
6.897211668040357
 30
0.0
 10
4.160129340488214
 20
6.919634928917478
 30
0.0
 10
4.112180917550485
 20
6.956476065448957
 30
0.0
 10
4.064381663624087
 20
7.007483104662357
 30
0.0
 10
4.018443025037171
 20
7.070033364375834
 30
0.0
 10
3.973316533893908
 20
7.143630156483509
 30
0.0
 10
3.928005882818914
 20
7.227957661585027
 30
0.0
 10
3.880805887644056
 20
7.326002847225155
 30
0.0
 10
3.841078047380491
 20
7.415902663870016
 30
0.0
 10
3.806103072812712
 20
7.500853354911063
 30
0.0
 10
3.772911624222377
 20
7.584006669496721
 30
0.0
 10
3.730764744127526
 20
7.691040367082932
 30
0.0
 10
3.693318671353891
 20
7.787665084550095
 30
0.0
 10
3.663244902332073
 20
7.864646769941134
 30
0.0
 10
3.643785176136825
 20
7.912969546030898
 30
0.0
 10
3.625097277938602
 20
7.958132028001971
 30
0.0
 10
3.607156038286055
 20
8.000124637467392
 30
0.0
 10
3.589968875609219
 20
8.038950796465334
 30
0.0
 10
3.573531625991173
 20
8.074608701646843
 30
0.0
 10
3.557855545961937
 20
8.107105709780438
 30
0.0
 10
3.542907398262961
 20
8.136422682129032
 30
0.0
 10
3.528797212089901
 20
8.162627867235786
 30
0.0
 10
3.519188355944166
 20
8.17877499228976
 30
0.0
 10
3.514650649175831
 20
8.186400345145007
 30
0.0
  0
LINE
  5
6E
330
1F
100
AcDbEntity
  8
0
  6
Continuous
 62
     7
370
    25
100
AcDbLine
 10
2.1624201119
 20
8.3137971052
 30
0.0
 11
2.1624201119
 21
-12.6732730857
 31
0.0
  0
LINE
  5
6F
330
1F
100
AcDbEntity
  8
0
  6
Continuous
 62
     7
370
    25
100
AcDbLine
 10
2.168436541
 20
8.3152993946
 30
0.0
 11
2.1624201119
 21
8.3137971052
 31
0.0
  0
LINE
  5
70
330
1F
100
AcDbEntity
  8
0
  6
Continuous
 62
     7
370
    25
100
AcDbLine
 10
5.149979462
 20
-12.6734987522
 30
0.0
 11
5.149979462
 21
8.3137720848
 31
0.0
  0
LINE
  5
71
330
1F
100
AcDbEntity
  8
0
  6
Continuous
 62
     7
370
    25
100
AcDbLine
 10
5.0959792162
 20
-12.7977577376
 30
0.0
 11
5.149979462
 21
-12.6734987522
 31
0.0
  0
MTEXT
  5
73
330
1F
100
AcDbEntity
  8
0
  6
Continuous
 62
     7
100
AcDbMText
 10
2.1624201119
 20
-12.8496209126
 30
0.0
 40
0.1903
 41
0.0
 71
     1
 72
     1
  1
SOLIDWORKS Educational Product.
  7
SLDTEXTSTYLE0
 73
     1
 44
1.0
  0
MTEXT
  5
74
330
1F
100
AcDbEntity
  8
0
  6
Continuous
 62
     7
100
AcDbMText
 10
2.1624201119
 20
-13.1350709126
 30
0.0
 40
0.1903
 41
0.0
 71
     1
 72
     1
  1
For Instructional Use Only.
  7
SLDTEXTSTYLE0
 73
     1
 44
1.0
  0
ENDSEC
  0
SECTION
  2
OBJECTS
  0
DICTIONARY
  5
C
330
0
100
AcDbDictionary
281
     1
  3
ACAD_GROUP
350
D
  3
ACAD_LAYOUT
350
1A
  3
ACAD_MLINESTYLE
350
17
  3
ACAD_PLOTSETTINGS
350
19
  3
ACAD_PLOTSTYLENAME
350
E
  3
ACAD_SCALELIST
350
47
  3
DWGPROPS
350
75
  0
DICTIONARY
  5
D
102
{ACAD_REACTORS
330
C
102
}
330
C
100
AcDbDictionary
281
     1
  0
DICTIONARY
  5
1A
102
{ACAD_REACTORS
330
C
102
}
330
C
100
AcDbDictionary
281
     1
  3
Layout1
350
1E
  3
Layout2
350
26
  3
Model
350
22
  0
DICTIONARY
  5
17
102
{ACAD_REACTORS
330
C
102
}
330
C
100
AcDbDictionary
281
     1
  3
Standard
350
18
  0
DICTIONARY
  5
19
102
{ACAD_REACTORS
330
C
102
}
330
C
100
AcDbDictionary
281
     1
  0
ACDBDICTIONARYWDFLT
  5
E
102
{ACAD_REACTORS
330
C
102
}
330
C
100
AcDbDictionary
281
     1
  3
Normal
350
F
100
AcDbDictionaryWithDefault
340
F
  0
DICTIONARY
  5
47
102
{ACAD_REACTORS
330
C
102
}
330
C
100
AcDbDictionary
281
     1
  3
A0
350
48
  3
A1
350
49
  3
A2
350
4A
  3
A3
350
4B
  3
A4
350
4C
  3
A5
350
4D
  3
A6
350
4E
  3
A7
350
4F
  3
A8
350
50
  3
A9
350
51
  3
B1
350
52
  3
B2
350
53
  3
B3
350
54
  3
B4
350
55
  3
B5
350
56
  3
B6
350
57
  3
B7
350
58
  0
XRECORD
  5
75
102
{ACAD_REACTORS
330
C
102
}
330
C
100
AcDbXrecord
280
     1
  1
DWGPROPS COOKIE
  2

  3

  4

  6

  7

  8
manny
  9

300
=
301
=
302
=
303
=
304
=
305
=
306
=
307
=
308
=
309
=
 40
0.0
 41
2460633.15056132
 42
2460633.150611528
  1

 90
        0
  0
LAYOUT
  5
1E
102
{ACAD_REACTORS
330
1A
102
}
330
1A
100
AcDbPlotSettings
  1

  2
none_device
  4

  6

 40
0.0
 41
0.0
 42
0.0
 43
0.0
 44
0.0
 45
0.0
 46
0.0
 47
0.0
 48
0.0
 49
0.0
140
0.0
141
0.0
142
1.0
143
1.0
 70
   688
 72
     0
 73
     0
 74
     5
  7

 75
    16
147
1.0
148
0.0
149
0.0
100
AcDbLayout
  1
Layout1
 70
     1
 71
     1
 10
0.0
 20
0.0
 11
12.0
 21
9.0
 12
0.0
 22
0.0
 32
0.0
 14
1.0000000000E+20
 24
1.0000000000E+20
 34
1.0000000000E+20
 15
-1.0000000000E+20
 25
-1.0000000000E+20
 35
-1.0000000000E+20
146
0.0
 13
0.0
 23
0.0
 33
0.0
 16
1.0
 26
0.0
 36
0.0
 17
0.0
 27
1.0
 37
0.0
 76
     0
330
1B
  0
LAYOUT
  5
26
102
{ACAD_REACTORS
330
1A
102
}
330
1A
100
AcDbPlotSettings
  1

  2
none_device
  4

  6

 40
0.0
 41
0.0
 42
0.0
 43
0.0
 44
0.0
 45
0.0
 46
0.0
 47
0.0
 48
0.0
 49
0.0
140
0.0
141
0.0
142
1.0
143
1.0
 70
   688
 72
     0
 73
     0
 74
     5
  7

 75
    16
147
1.0
148
0.0
149
0.0
100
AcDbLayout
  1
Layout2
 70
     1
 71
     2
 10
0.0
 20
0.0
 11
0.0
 21
0.0
 12
0.0
 22
0.0
 32
0.0
 14
0.0
 24
0.0
 34
0.0
 15
0.0
 25
0.0
 35
0.0
146
0.0
 13
0.0
 23
0.0
 33
0.0
 16
1.0
 26
0.0
 36
0.0
 17
0.0
 27
1.0
 37
0.0
 76
     0
330
23
  0
LAYOUT
  5
22
102
{ACAD_REACTORS
330
1A
102
}
330
1A
100
AcDbPlotSettings
  1

  2
none_device
  4
ANSI_A_(11.00_x_8.50_Inches)
  6

 40
6.35
 41
19.05
 42
6.35000508
 43
19.05000254
 44
279.4
 45
215.9
 46
96.3564854596
 47
111.6361116984
 48
0.0
 49
0.0
140
0.0
141
0.0
142
0.3983473457
143
1.0
 70
  1696
 72
     0
 73
     0
 74
     0
  7

 75
     0
147
0.5913241897
148
-39.4088153714
149
0.0
100
AcDbLayout
  1
Model
 70
     1
 71
     0
 10
0.0
 20
0.0
 11
12.0
 21
9.0
 12
0.0
 22
0.0
 32
0.0
 14
2.1624201119
 24
-12.8094805035
 34
0.0
 15
5.149979462
 25
8.3152993946
 35
0.0
146
0.0
 13
0.0
 23
0.0
 33
0.0
 16
1.0
 26
0.0
 36
0.0
 17
0.0
 27
1.0
 37
0.0
 76
     0
330
1F
331
29
  0
MLINESTYLE
  5
18
102
{ACAD_REACTORS
330
17
102
}
330
17
100
AcDbMlineStyle
  2
Standard
 70
     0
  3

 62
   256
 51
90.0
 52
90.0
 71
     2
 49
0.5
 62
   256
  6
BYLAYER
 49
-0.5
 62
   256
  6
BYLAYER
  0
ACDBPLACEHOLDER
  5
F
102
{ACAD_REACTORS
330
E
102
}
330
E
  0
SCALE
  5
48
102
{ACAD_REACTORS
330
47
102
}
330
47
100
AcDbScale
 70
     0
300
1:1
140
1.0
141
1.0
290
     1
  0
SCALE
  5
49
102
{ACAD_REACTORS
330
47
102
}
330
47
100
AcDbScale
 70
     0
300
1/128" = 1'-0"
140
0.0078125
141
12.0
290
     0
  0
SCALE
  5
4A
102
{ACAD_REACTORS
330
47
102
}
330
47
100
AcDbScale
 70
     0
300
1/64" = 1'-0"
140
0.015625
141
12.0
290
     0
  0
SCALE
  5
4B
102
{ACAD_REACTORS
330
47
102
}
330
47
100
AcDbScale
 70
     0
300
1/32" = 1'-0"
140
0.03125
141
12.0
290
     0
  0
SCALE
  5
4C
102
{ACAD_REACTORS
330
47
102
}
330
47
100
AcDbScale
 70
     0
300
1/16" = 1'-0"
140
0.0625
141
12.0
290
     0
  0
SCALE
  5
4D
102
{ACAD_REACTORS
330
47
102
}
330
47
100
AcDbScale
 70
     0
300
3/32" = 1'-0"
140
0.09375
141
12.0
290
     0
  0
SCALE
  5
4E
102
{ACAD_REACTORS
330
47
102
}
330
47
100
AcDbScale
 70
     0
300
1/8" = 1'-0"
140
0.125
141
12.0
290
     0
  0
SCALE
  5
4F
102
{ACAD_REACTORS
330
47
102
}
330
47
100
AcDbScale
 70
     0
300
3/16" = 1'-0"
140
0.1875
141
12.0
290
     0
  0
SCALE
  5
50
102
{ACAD_REACTORS
330
47
102
}
330
47
100
AcDbScale
 70
     0
300
1/4" = 1'-0"
140
0.25
141
12.0
290
     0
  0
SCALE
  5
51
102
{ACAD_REACTORS
330
47
102
}
330
47
100
AcDbScale
 70
     0
300
3/8" = 1'-0"
140
0.375
141
12.0
290
     0
  0
SCALE
  5
52
102
{ACAD_REACTORS
330
47
102
}
330
47
100
AcDbScale
 70
     0
300
1/2" = 1'-0"
140
0.5
141
12.0
290
     0
  0
SCALE
  5
53
102
{ACAD_REACTORS
330
47
102
}
330
47
100
AcDbScale
 70
     0
300
3/4" = 1'-0"
140
0.75
141
12.0
290
     0
  0
SCALE
  5
54
102
{ACAD_REACTORS
330
47
102
}
330
47
100
AcDbScale
 70
     0
300
1" = 1'-0"
140
1.0
141
12.0
290
     0
  0
SCALE
  5
55
102
{ACAD_REACTORS
330
47
102
}
330
47
100
AcDbScale
 70
     0
300
1-1/2" = 1'-0"
140
1.5
141
12.0
290
     0
  0
SCALE
  5
56
102
{ACAD_REACTORS
330
47
102
}
330
47
100
AcDbScale
 70
     0
300
3" = 1'-0"
140
3.0
141
12.0
290
     0
  0
SCALE
  5
57
102
{ACAD_REACTORS
330
47
102
}
330
47
100
AcDbScale
 70
     0
300
6" = 1'-0"
140
6.0
141
12.0
290
     0
  0
SCALE
  5
58
102
{ACAD_REACTORS
330
47
102
}
330
47
100
AcDbScale
 70
     0
300
1'-0" = 1'-0"
140
12.0
141
12.0
290
     0
  0
ENDSEC
  0
EOF
