  0
SECTION
  2
HEADER
  9
$ACADVER
  1
AC1015
  9
$ACADMAINTVER
 70
     6
  9
$DWGCODEPAGE
  3
ANSI_1252
  9
$INSBASE
 10
0.0
 20
0.0
 30
0.0
  9
$EXTMIN
 10
5.232815461
 20
-25.0082397795
 30
0.0
  9
$EXTMAX
 10
8.2203748599
 20
8.4236732678
 30
0.0
  9
$LIMMIN
 10
0.0
 20
0.0
  9
$LIMMAX
 10
12.0
 20
9.0
  9
$ORTHOMODE
 70
     0
  9
$REGENMODE
 70
     1
  9
$FILLMODE
 70
     1
  9
$QTEXTMODE
 70
     0
  9
$MIRRTEXT
 70
     1
  9
$LTSCALE
 40
1.0
  9
$ATTMODE
 70
     1
  9
$TEXTSIZE
 40
0.1377952756
  9
$TRACEWID
 40
0.05
  9
$TEXTSTYLE
  7
Standard
  9
$CLAYER
  8
0
  9
$CELTYPE
  6
ByLayer
  9
$CECOLOR
 62
   256
  9
$CELTSCALE
 40
1.0
  9
$DISPSILH
 70
     0
  9
$DIMSCALE
 40
1.0
  9
$DIMASZ
 40
0.13
  9
$DIMEXO
 40
0.0
  9
$DIMDLI
 40
0.38
  9
$DIMRND
 40
0.0
  9
$DIMDLE
 40
0.0
  9
$DIMEXE
 40
0.0393700787
  9
$DIMTP
 40
0.0
  9
$DIMTM
 40
0.0
  9
$DIMTXT
 40
0.1377952756
  9
$DIMCEN
 40
0.09
  9
$DIMTSZ
 40
0.0
  9
$DIMTOL
 70
     0
  9
$DIMLIM
 70
     0
  9
$DIMTIH
 70
     1
  9
$DIMTOH
 70
     1
  9
$DIMSE1
 70
     0
  9
$DIMSE2
 70
     0
  9
$DIMTAD
 70
     1
  9
$DIMZIN
 70
     1
  9
$DIMBLK
  1

  9
$DIMASO
 70
     1
  9
$DIMSHO
 70
     1
  9
$DIMPOST
  1

  9
$DIMAPOST
  1

  9
$DIMALT
 70
     0
  9
$DIMALTD
 70
     2
  9
$DIMALTF
 40
25.4
  9
$DIMLFAC
 40
1.0
  9
$DIMTOFL
 70
     0
  9
$DIMTVP
 40
0.0
  9
$DIMTIX
 70
     0
  9
$DIMSOXD
 70
     0
  9
$DIMSAH
 70
     0
  9
$DIMBLK1
  1

  9
$DIMBLK2
  1

  9
$DIMSTYLE
  2
Standard
  9
$DIMCLRD
 70
     0
  9
$DIMCLRE
 70
     0
  9
$DIMCLRT
 70
     0
  9
$DIMTFAC
 40
1.0
  9
$DIMGAP
 40
0.06
  9
$DIMJUST
 70
     0
  9
$DIMSD1
 70
     0
  9
$DIMSD2
 70
     0
  9
$DIMTOLJ
 70
     1
  9
$DIMTZIN
 70
     1
  9
$DIMALTZ
 70
     0
  9
$DIMALTTZ
 70
     0
  9
$DIMUPT
 70
     0
  9
$DIMDEC
 70
     2
  9
$DIMTDEC
 70
     2
  9
$DIMALTU
 70
     2
  9
$DIMALTTD
 70
     2
  9
$DIMTXSTY
  7
Standard
  9
$DIMAUNIT
 70
     0
  9
$DIMADEC
 70
     2
  9
$DIMALTRND
 40
0.0
  9
$DIMAZIN
 70
     0
  9
$DIMDSEP
 70
    46
  9
$DIMATFIT
 70
     3
  9
$DIMFRAC
 70
     0
  9
$DIMLDRBLK
  1

  9
$DIMLUNIT
 70
     2
  9
$DIMLWD
 70
    -2
  9
$DIMLWE
 70
    -2
  9
$DIMTMOVE
 70
     0
  9
$LUNITS
 70
     2
  9
$LUPREC
 70
     2
  9
$SKETCHINC
 40
0.1
  9
$FILLETRAD
 40
0.0
  9
$AUNITS
 70
     0
  9
$AUPREC
 70
     2
  9
$MENU
  1
.
  9
$ELEVATION
 40
0.0
  9
$PELEVATION
 40
0.0
  9
$THICKNESS
 40
0.0
  9
$LIMCHECK
 70
     0
  9
$CHAMFERA
 40
0.0
  9
$CHAMFERB
 40
0.0
  9
$CHAMFERC
 40
0.0
  9
$CHAMFERD
 40
0.0
  9
$SKPOLY
 70
     0
  9
$TDCREATE
 40
2460632.821359502
  9
$TDUCREATE
 40
2460633.154692836
  9
$TDUPDATE
 40
2460632.821405
  9
$TDUUPDATE
 40
2460633.154738334
  9
$TDINDWG
 40
0.0000000116
  9
$TDUSRTIMER
 40
0.0000000116
  9
$USRTIMER
 70
     1
  9
$ANGBASE
 50
0.0
  9
$ANGDIR
 70
     0
  9
$PDMODE
 70
     0
  9
$PDSIZE
 40
-1.0
  9
$PLINEWID
 40
0.0
  9
$SPLFRAME
 70
     0
  9
$SPLINETYPE
 70
     6
  9
$SPLINESEGS
 70
     8
  9
$HANDSEED
  5
75
  9
$SURFTAB1
 70
     6
  9
$SURFTAB2
 70
     6
  9
$SURFTYPE
 70
     6
  9
$SURFU
 70
     6
  9
$SURFV
 70
     6
  9
$UCSBASE
  2

  9
$UCSNAME
  2

  9
$UCSORG
 10
0.0
 20
0.0
 30
0.0
  9
$UCSXDIR
 10
1.0
 20
0.0
 30
0.0
  9
$UCSYDIR
 10
0.0
 20
1.0
 30
0.0
  9
$UCSORTHOREF
  2

  9
$UCSORTHOVIEW
 70
     0
  9
$UCSORGTOP
 10
0.0
 20
0.0
 30
0.0
  9
$UCSORGBOTTOM
 10
0.0
 20
0.0
 30
0.0
  9
$UCSORGLEFT
 10
0.0
 20
0.0
 30
0.0
  9
$UCSORGRIGHT
 10
0.0
 20
0.0
 30
0.0
  9
$UCSORGFRONT
 10
0.0
 20
0.0
 30
0.0
  9
$UCSORGBACK
 10
0.0
 20
0.0
 30
0.0
  9
$PUCSBASE
  2

  9
$PUCSNAME
  2

  9
$PUCSORG
 10
0.0
 20
0.0
 30
0.0
  9
$PUCSXDIR
 10
1.0
 20
0.0
 30
0.0
  9
$PUCSYDIR
 10
0.0
 20
1.0
 30
0.0
  9
$PUCSORTHOREF
  2

  9
$PUCSORTHOVIEW
 70
     0
  9
$PUCSORGTOP
 10
0.0
 20
0.0
 30
0.0
  9
$PUCSORGBOTTOM
 10
0.0
 20
0.0
 30
0.0
  9
$PUCSORGLEFT
 10
0.0
 20
0.0
 30
0.0
  9
$PUCSORGRIGHT
 10
0.0
 20
0.0
 30
0.0
  9
$PUCSORGFRONT
 10
0.0
 20
0.0
 30
0.0
  9
$PUCSORGBACK
 10
0.0
 20
0.0
 30
0.0
  9
$USERI1
 70
     0
  9
$USERI2
 70
     0
  9
$USERI3
 70
     0
  9
$USERI4
 70
     0
  9
$USERI5
 70
     0
  9
$USERR1
 40
0.0
  9
$USERR2
 40
0.0
  9
$USERR3
 40
0.0
  9
$USERR4
 40
0.0
  9
$USERR5
 40
0.0
  9
$WORLDVIEW
 70
     1
  9
$SHADEDGE
 70
     3
  9
$SHADEDIF
 70
    70
  9
$TILEMODE
 70
     1
  9
$MAXACTVP
 70
    64
  9
$PINSBASE
 10
0.0
 20
0.0
 30
0.0
  9
$PLIMCHECK
 70
     0
  9
$PEXTMIN
 10
1.0000000000E+20
 20
1.0000000000E+20
 30
1.0000000000E+20
  9
$PEXTMAX
 10
-1.0000000000E+20
 20
-1.0000000000E+20
 30
-1.0000000000E+20
  9
$PLIMMIN
 10
0.0
 20
0.0
  9
$PLIMMAX
 10
12.0
 20
9.0
  9
$UNITMODE
 70
     0
  9
$VISRETAIN
 70
     1
  9
$PLINEGEN
 70
     0
  9
$PSLTSCALE
 70
     1
  9
$TREEDEPTH
 70
  3020
  9
$CMLSTYLE
  2
Standard
  9
$CMLJUST
 70
     0
  9
$CMLSCALE
 40
1.0
  9
$PROXYGRAPHICS
 70
     1
  9
$MEASUREMENT
 70
     0
  9
$CELWEIGHT
370
    -1
  9
$ENDCAPS
280
     0
  9
$JOINSTYLE
280
     0
  9
$LWDISPLAY
290
     1
  9
$INSUNITS
 70
     1
  9
$HYPERLINKBASE
  1

  9
$STYLESHEET
  1

  9
$XEDIT
290
     1
  9
$CEPSNTYPE
380
     0
  9
$PSTYLEMODE
290
     1
  9
$FINGERPRINTGUID
  2
{1140c00a-3a82-4603-8aa4-9673d9d1a2dd}
  9
$VERSIONGUID
  2
{FAEB1C32-E019-11D5-929B-00C0DF256EC4}
  9
$EXTNAMES
290
     1
  9
$PSVPSCALE
 40
0.0
  9
$OLESTARTUP
290
     0
  0
ENDSEC
  0
SECTION
  2
CLASSES
  0
CLASS
  1
ACDBDICTIONARYWDFLT
  2
AcDbDictionaryWithDefault
  3
ObjectDBX Classes
 90
        0
280
     0
281
     0
  0
CLASS
  1
VISUALSTYLE
  2
AcDbVisualStyle
  3
ObjectDBX Classes
 90
     4095
280
     0
281
     0
  0
CLASS
  1
MATERIAL
  2
AcDbMaterial
  3
ObjectDBX Classes
 90
     1153
280
     0
281
     0
  0
CLASS
  1
SCALE
  2
AcDbScale
  3
ObjectDBX Classes
 90
     1153
280
     0
281
     0
  0
CLASS
  1
TABLESTYLE
  2
AcDbTableStyle
  3
ObjectDBX Classes
 90
     4095
280
     0
281
     0
  0
CLASS
  1
MLEADERSTYLE
  2
AcDbMLeaderStyle
  3
ACDB_MLEADERSTYLE_CLASS
 90
     4095
280
     0
281
     0
  0
CLASS
  1
SUN
  2
AcDbSun
  3
SCENEOE
 90
     1153
280
     0
281
     0
  0
CLASS
  1
ACDBPLACEHOLDER
  2
AcDbPlaceHolder
  3
ObjectDBX Classes
 90
        0
280
     0
281
     0
  0
CLASS
  1
LAYOUT
  2
AcDbLayout
  3
ObjectDBX Classes
 90
        0
280
     0
281
     0
  0
ENDSEC
  0
SECTION
  2
TABLES
  0
TABLE
  2
VPORT
  5
8
330
0
100
AcDbSymbolTable
 70
     1
  0
VPORT
  5
29
330
8
100
AcDbSymbolTableRecord
100
AcDbViewportTableRecord
  2
*Active
 70
     0
 10
0.0
 20
0.0
 11
1.0
 21
1.0
 12
6.7265951604
 22
-8.2922832558
 13
0.0
 23
0.0
 14
0.5
 24
0.5
 15
0.5
 25
0.5
 16
0.0
 26
0.0
 36
1.0
 17
0.0
 27
0.0
 37
0.0
 40
34.1005513082
 41
0.0893625021
 42
50.0
 43
0.0
 44
0.0
 50
0.0
 51
0.0
 71
     0
 72
   100
 73
     1
 74
     3
 75
     0
 76
     0
 77
     0
 78
     0
281
     0
 65
     1
110
0.0
120
0.0
130
0.0
111
1.0
121
0.0
131
0.0
112
0.0
122
1.0
132
0.0
 79
     0
146
0.0
  0
ENDTAB
  0
TABLE
  2
LTYPE
  5
5
330
0
100
AcDbSymbolTable
 70
     6
  0
LTYPE
  5
14
330
5
100
AcDbSymbolTableRecord
100
AcDbLinetypeTableRecord
  2
ByBlock
 70
     0
  3

 72
    65
 73
     0
 40
0.0
  0
LTYPE
  5
15
330
5
100
AcDbSymbolTableRecord
100
AcDbLinetypeTableRecord
  2
ByLayer
 70
     0
  3

 72
    65
 73
     0
 40
0.0
  0
LTYPE
  5
16
330
5
100
AcDbSymbolTableRecord
100
AcDbLinetypeTableRecord
  2
Continuous
 70
     0
  3
Solid line
 72
    65
 73
     0
 40
0.0
  0
LTYPE
  5
5E
330
5
100
AcDbSymbolTableRecord
100
AcDbLinetypeTableRecord
  2
HIDDEN
 70
     0
  3
Hidden __ __ __ __ __ __ __ __ __ __ __ __ __ __
 72
    65
 73
     2
 40
0.075
 49
0.05
 74
     0
 49
-0.025
 74
     0
  0
LTYPE
  5
5F
330
5
100
AcDbSymbolTableRecord
100
AcDbLinetypeTableRecord
  2
PHANTOM
 70
     0
  3
Phantom ______  __  __  ______  __  __  ______
 72
    65
 73
     6
 40
0.5
 49
0.25
 74
     0
 49
-0.05
 74
     0
 49
0.05
 74
     0
 49
-0.05
 74
     0
 49
0.05
 74
     0
 49
-0.05
 74
     0
  0
LTYPE
  5
60
330
5
100
AcDbSymbolTableRecord
100
AcDbLinetypeTableRecord
  2
CENTER
 70
     0
  3
Center ____ _ ____ _ ____ _ ____ _ ____ _ ____
 72
    65
 73
     4
 40
0.4
 49
0.25
 74
     0
 49
-0.05
 74
     0
 49
0.05
 74
     0
 49
-0.05
 74
     0
  0
LTYPE
  5
61
330
5
100
AcDbSymbolTableRecord
100
AcDbLinetypeTableRecord
  2
CENTERX2
 70
     0
  3
Center (2x) ________  __  ________  __  _____
 72
    65
 73
     4
 40
0.8
 49
0.5
 74
     0
 49
-0.1
 74
     0
 49
0.1
 74
     0
 49
-0.1
 74
     0
  0
LTYPE
  5
62
330
5
100
AcDbSymbolTableRecord
100
AcDbLinetypeTableRecord
  2
DOT2
 70
     0
  3
Dot (.5x) ........................................
 72
    65
 73
     2
 40
0.025
 49
0.0
 74
     0
 49
-0.025
 74
     0
  0
ENDTAB
  0
TABLE
  2
LAYER
  5
2
330
0
100
AcDbSymbolTable
 70
     1
  0
LAYER
  5
10
330
2
100
AcDbSymbolTableRecord
100
AcDbLayerTableRecord
  2
0
 70
     0
 62
     7
  6
Continuous
370
    -3
390
F
  0
ENDTAB
  0
TABLE
  2
STYLE
  5
3
330
0
100
AcDbSymbolTable
 70
     2
  0
STYLE
  5
11
330
3
100
AcDbSymbolTableRecord
100
AcDbTextStyleTableRecord
  2
Standard
 70
     0
 40
0.0
 41
1.0
 50
0.0
 71
     0
 42
0.1377952756
  3
txt
  4

  0
STYLE
  5
71
330
3
100
AcDbSymbolTableRecord
100
AcDbTextStyleTableRecord
  2
SLDTEXTSTYLE0
 70
     0
 40
0.0
 41
0.7
 50
0.0
 71
     0
 42
0.1377952756
  3
TXT
  4

  0
ENDTAB
  0
TABLE
  2
VIEW
  5
6
330
0
100
AcDbSymbolTable
 70
     0
  0
ENDTAB
  0
TABLE
  2
UCS
  5
7
330
0
100
AcDbSymbolTable
 70
     0
  0
ENDTAB
  0
TABLE
  2
APPID
  5
9
330
0
100
AcDbSymbolTable
 70
     1
  0
APPID
  5
12
330
9
100
AcDbSymbolTableRecord
100
AcDbRegAppTableRecord
  2
ACAD
 70
     0
  0
ENDTAB
  0
TABLE
  2
DIMSTYLE
  5
A
330
0
100
AcDbSymbolTable
 70
     1
100
AcDbDimStyleTable
  0
DIMSTYLE
105
27
330
A
100
AcDbSymbolTableRecord
100
AcDbDimStyleTableRecord
  2
Standard
 70
     0
178
     0
340
11
  0
ENDTAB
  0
TABLE
  2
BLOCK_RECORD
  5
1
330
0
100
AcDbSymbolTable
 70
     1
  0
BLOCK_RECORD
  5
1F
330
1
100
AcDbSymbolTableRecord
100
AcDbBlockTableRecord
  2
*Model_Space
340
22
  0
BLOCK_RECORD
  5
1B
330
1
100
AcDbSymbolTableRecord
100
AcDbBlockTableRecord
  2
*Paper_Space
340
1E
  0
BLOCK_RECORD
  5
23
330
1
100
AcDbSymbolTableRecord
100
AcDbBlockTableRecord
  2
*Paper_Space0
340
26
  0
ENDTAB
  0
ENDSEC
  0
SECTION
  2
BLOCKS
  0
BLOCK
  5
20
330
1F
100
AcDbEntity
  8
0
100
AcDbBlockBegin
  2
*Model_Space
 70
     0
 10
0.0
 20
0.0
 30
0.0
  3
*Model_Space
  1

  0
ENDBLK
  5
21
330
1F
100
AcDbEntity
  8
0
100
AcDbBlockEnd
  0
BLOCK
  5
1C
330
1B
100
AcDbEntity
 67
     1
  8
0
100
AcDbBlockBegin
  2
*Paper_Space
 70
     0
 10
0.0
 20
0.0
 30
0.0
  3
*Paper_Space
  1

  0
ENDBLK
  5
1D
330
1B
100
AcDbEntity
 67
     1
  8
0
100
AcDbBlockEnd
  0
BLOCK
  5
24
330
23
100
AcDbEntity
  8
0
100
AcDbBlockBegin
  2
*Paper_Space0
 70
     0
 10
0.0
 20
0.0
 30
0.0
  3
*Paper_Space0
  1

  0
ENDBLK
  5
25
330
23
100
AcDbEntity
  8
0
100
AcDbBlockEnd
  0
ENDSEC
  0
SECTION
  2
ENTITIES
  0
SPLINE
  5
63
330
1F
100
AcDbEntity
  8
0
  6
Continuous
 62
     7
370
    25
100
AcDbSpline
210
0.0
220
0.0
230
1.0
 70
     8
 71
     3
 72
    32
 73
    28
 74
     0
 42
0.00000001
 43
0.00000001
 40
0.0
 40
0.0
 40
0.0
 40
0.0
 40
0.0861542406329963
 40
0.1655459915609703
 40
0.2381788129382119
 40
0.3040573607096716
 40
0.3631878863388482
 40
0.4155790569245286
 40
0.4612433771202978
 40
0.500199829884806
 40
0.548197457923468
 40
0.5935985632026587
 40
0.6364505835360837
 40
0.676809946211805
 40
0.7147442036498318
 40
0.7503347198305221
 40
0.7764692274781858
 40
0.8016634172766621
 40
0.8259860811062595
 40
0.8495136568097419
 40
0.8723305743874595
 40
0.8945293739848132
 40
0.9162105120067968
 40
0.9374817803009733
 40
0.9584572905523857
 40
0.9792560230214876
 40
1.0
 40
1.0
 40
1.0
 40
1.0
 10
7.345101481339737
 20
-24.74817708915438
 30
0.0
 10
7.357434518284303
 20
-24.72576703586798
 30
0.0
 10
7.381132537266842
 20
-24.68270595767874
 30
0.0
 10
7.415687712869388
 20
-24.62100662814015
 30
0.0
 10
7.447687691275097
 20
-24.56477782511709
 30
0.0
 10
7.477158387320584
 20
-24.51403346153949
 30
0.0
 10
7.504089846254069
 20
-24.46876711069629
 30
0.0
 10
7.528490008421041
 20
-24.42898300770718
 30
0.0
 10
7.550330198934425
 20
-24.39466020000069
 30
0.0
 10
7.572285215142225
 20
-24.36196894064561
 30
0.0
 10
7.595193318043187
 20
-24.33003193867542
 30
0.0
 10
7.619699231618715
 20
-24.29783830782855
 30
0.0
 10
7.643870041308568
 20
-24.26826541523122
 30
0.0
 10
7.667684009488992
 20
-24.24129598119868
 30
0.0
 10
7.691151909815598
 20
-24.21693782024223
 30
0.0
 10
7.712701286240635
 20
-24.19663987585227
 30
0.0
 10
7.732383999786038
 20
-24.17993435149506
 30
0.0
 10
7.750234030446343
 20
-24.16628343116926
 30
0.0
 10
7.768155880992911
 20
-24.15405120209547
 30
0.0
 10
7.786152884402422
 20
-24.1432413712857
 30
0.0
 10
7.804224861285439
 20
-24.13385446256569
 30
0.0
 10
7.822372239774273
 20
-24.12589122646642
 30
0.0
 10
7.840594890576108
 20
-24.1193557991253
 30
0.0
 10
7.858892222057721
 20
-24.11423996565016
 30
0.0
 10
7.877263391946429
 20
-24.11058076632441
 30
0.0
 10
7.895706178683017
 20
-24.10824842667706
 30
0.0
 10
7.908041623762578
 20
-24.10790223111659
 30
0.0
 10
7.914201216917492
 20
-24.1077293614884
 30
0.0
  0
SPLINE
  5
64
330
1F
100
AcDbEntity
  8
0
  6
Continuous
 62
     7
370
    25
100
AcDbSpline
210
0.0
220
0.0
230
1.0
 70
     8
 71
     3
 72
    44
 73
    40
 74
     0
 42
0.00000001
 43
0.00000001
 40
0.0
 40
0.0
 40
0.0
 40
0.0
 40
0.0105269478438205
 40
0.0218898362802151
 40
0.0340928018946038
 40
0.047139182212942
 40
0.0610317069112136
 40
0.0757726356143226
 40
0.0913638590757715
 40
0.1078069747317622
 40
0.1251033439861528
 40
0.1567778985943284
 40
0.1841240489226655
 40
0.2071418529323827
 40
0.2258314088547627
 40
0.2401929037357968
 40
0.2502267666686979
 40
0.2819007154498946
 40
0.3120239661664013
 40
0.3406157324754603
 40
0.3676984877308059
 40
0.3932986796905641
 40
0.4174476276829454
 40
0.4401826494446995
 40
0.4615484727258863
 40
0.4815989904016212
 40
0.5003994100313419
 40
0.5511849106451071
 40
0.598837729551148
 40
0.6460516933573627
 40
0.6955922702453916
 40
0.749870463748902
 40
0.7762294150709999
 40
0.8055783300982567
 40
0.8380205064194746
 40
0.8736323343470026
 40
0.9124715061317658
 40
0.9545824516710877
 40
1.0
 40
1.0
 40
1.0
 40
1.0
 10
6.198329053579529
 20
-25.00823977946411
 30
0.0
 10
6.202069033092451
 20
-25.00436069484514
 30
0.0
 10
6.209845982351043
 20
-24.99629448909528
 30
0.0
 10
6.221615359445256
 20
-24.98340812903701
 30
0.0
 10
6.234034116809643
 20
-24.96937338436727
 30
0.0
 10
6.247071755085693
 20
-24.95416023829155
 30
0.0
 10
6.260737154062194
 20
-24.93777717509504
 30
0.0
 10
6.275028136488882
 20
-24.92022181363606
 30
0.0
 10
6.289943211129477
 20
-24.90149307280691
 30
0.0
 10
6.305491142884917
 20
-24.88159749479288
 30
0.0
 10
6.325843106236825
 20
-24.85501072279046
 30
0.0
 10
6.349481463774625
 20
-24.82391226729078
 30
0.0
 10
6.374979751755609
 20
-24.79054916922493
 30
0.0
 10
6.396476768584582
 20
-24.76249323277295
 30
0.0
 10
6.413990992906428
 20
-24.73975857228556
 30
0.0
 10
6.427502191650076
 20
-24.72232921117211
 30
0.0
 10
6.445269905430544
 20
-24.69979137564162
 30
0.0
 10
6.468599427545458
 20
-24.67136886747364
 30
0.0
 10
6.498719170865621
 20
-24.63624565979006
 30
0.0
 10
6.52820328226574
 20
-24.60369148643761
 30
0.0
 10
6.557024631201886
 20
-24.5736839939261
 30
0.0
 10
6.585190733470553
 20
-24.5462277579404
 30
0.0
 10
6.612700804014869
 20
-24.52132086897135
 30
0.0
 10
6.639556786722323
 20
-24.49896207930802
 30
0.0
 10
6.665759794554675
 20
-24.47915310528202
 30
0.0
 10
6.691314548982397
 20
-24.46188480073633
 30
0.0
 10
6.730835594631523
 20
-24.43855821497582
 30
0.0
 10
6.786408199677814
 20
-24.41464902514309
 30
0.0
 10
6.860522595848922
 20
-24.40147022868419
 30
0.0
 10
6.935000480098246
 20
-24.40710285218189
 30
0.0
 10
7.009073981299122
 20
-24.43133203068236
 30
0.0
 10
7.067272894645425
 20
-24.46460170866236
 30
0.0
 10
7.11246727504765
 20
-24.4982149294244
 30
0.0
 10
7.146824249715543
 20
-24.52750928101309
 30
0.0
 10
7.183032455855765
 20
-24.56180470157393
 30
0.0
 10
7.221090941593458
 20
-24.6011333692353
 30
0.0
 10
7.260983851560209
 20
-24.64550932980185
 30
0.0
 10
7.302805802845465
 20
-24.69486588998231
 30
0.0
 10
7.330652260296001
 20
-24.72996470520974
 30
0.0
 10
7.345101473016978
 20
-24.74817708458965
 30
0.0
  0
SPLINE
  5
65
330
1F
100
AcDbEntity
  8
0
  6
Continuous
 62
     7
370
    25
100
AcDbSpline
210
0.0
220
0.0
230
1.0
 70
     8
 71
     3
 72
    66
 73
    62
 74
     0
 42
0.00000001
 43
0.00000001
 40
0.0
 40
0.0
 40
0.0
 40
0.0
 40
0.00704780445051
 40
0.0138383915964071
 40
0.0203796214455062
 40
0.0266802872857771
 40
0.0327502279825359
 40
0.0386004466137357
 40
0.0442432317366069
 40
0.0496922754868647
 40
0.0549627801667704
 40
0.0600715421801074
 40
0.0650369995584624
 40
0.0698792276182409
 40
0.0746198674620697
 40
0.0792819750985598
 40
0.0838897855372443
 40
0.0884683960691444
 40
0.093043384561602
 40
0.0976403893417534
 40
0.1022846841354425
 40
0.1070007824435743
 40
0.1236589663541034
 40
0.1422714080795172
 40
0.1633393450015222
 40
0.187209829468748
 40
0.214121707415732
 40
0.2550762420328979
 40
0.3026528617127802
 40
0.3570160394112942
 40
0.3879803866468122
 40
0.4177482717350242
 40
0.4463260534761729
 40
0.4737209194108847
 40
0.4999410298918404
 40
0.5207817682738066
 40
0.5416225008728985
 40
0.5624632288456902
 40
0.583303953348758
 40
0.6041446755386723
 40
0.624985396572011
 40
0.6458261176053497
 40
0.6666668397952658
 40
0.6875075642983304
 40
0.708348292271123
 40
0.7291890248702156
 40
0.7500297632521821
 40
0.787623328969672
 40
0.8209913199833857
 40
0.8501395086862932
 40
0.8750765980205051
 40
0.8905021775906536
 40
0.9052430730748005
 40
0.9193084956323418
 40
0.9327090493976793
 40
0.945456997787959
 40
0.957566587068886
 40
0.9690544386692602
 40
0.9799400224239162
 40
0.9902462220345919
 40
1.0
 40
1.0
 40
1.0
 40
1.0
 10
5.232815461007533
 20
-23.45285309108107
 30
0.0
 10
5.236048872382153
 20
-23.44925933768465
 30
0.0
 10
5.242397688259275
 20
-23.44220298883874
 30
0.0
 10
5.252164504276887
 20
-23.43219839262349
 30
0.0
 10
5.26188673448869
 20
-23.42287859975363
 30
0.0
 10
5.271591984789052
 20
-23.41426778206777
 30
0.0
 10
5.281273561531519
 20
-23.40635985143653
 30
0.0
 10
5.290933495598563
 20
-23.39915644508104
 30
0.0
 10
5.300571636006274
 20
-23.3926573243154
 30
0.0
 10
5.310188395848838
 20
-23.38686282822865
 30
0.0
 10
5.319784028637942
 20
-23.38177327126372
 30
0.0
 10
5.329358772309824
 20
-23.37738910891725
 30
0.0
 10
5.33891276192563
 20
-23.37371089500328
 30
0.0
 10
5.348445994505008
 20
-23.3707392713414
 30
0.0
 10
5.357958284204449
 20
-23.36847492165548
 30
0.0
 10
5.36744923434006
 20
-23.36691851009654
 30
0.0
 10
5.376918245940237
 20
-23.36607059217676
 30
0.0
 10
5.386364527581221
 20
-23.36593157027999
 30
0.0
 10
5.395787268718037
 20
-23.36650150450016
 30
0.0
 10
5.405185354501064
 20
-23.3677805698888
 30
0.0
 10
5.41455888987929
 20
-23.36976726121456
 30
0.0
 10
5.431715789950906
 20
-23.37472079886829
 30
0.0
 10
5.456821165889317
 20
-23.38630531853021
 30
0.0
 10
5.48849244547041
 20
-23.40871017236782
 30
0.0
 10
5.520212832651315
 20
-23.43877516808269
 30
0.0
 10
5.552055946286201
 20
-23.47648518564842
 30
0.0
 10
5.588363827142071
 20
-23.52794684575625
 30
0.0
 10
5.62864625127343
 20
-23.59621206533998
 30
0.0
 10
5.672880653056541
 20
-23.68372274417665
 30
0.0
 10
5.70979932675703
 20
-23.76709882241749
 30
0.0
 10
5.739979973958759
 20
-23.84004195324625
 30
0.0
 10
5.762685016820565
 20
-23.89693585123192
 30
0.0
 10
5.783621493751507
 20
-23.95189142804281
 30
0.0
 10
5.802860793674158
 20
-24.0048836247156
 30
0.0
 10
5.819305659956041
 20
-24.05323260264699
 30
0.0
 10
5.833863282343138
 20
-24.09747009996747
 30
0.0
 10
5.847375833199203
 20
-24.13816734550167
 30
0.0
 10
5.860871538999954
 20
-24.17887009401607
 30
0.0
 10
5.874383911587322
 20
-24.21956732544032
 30
0.0
 10
5.887903975198284
 20
-24.26026199136336
 30
0.0
 10
5.901434121052744
 20
-24.30095330549657
 30
0.0
 10
5.914973760032145
 20
-24.34164146140609
 30
0.0
 10
5.928522857391155
 20
-24.38232647111591
 30
0.0
 10
5.942082141229731
 20
-24.42300809296395
 30
0.0
 10
5.955648733892757
 20
-24.46368728157467
 30
0.0
 10
5.969233417903847
 20
-24.50436046011123
 30
0.0
 10
5.986430017202608
 20
-24.55594132209917
 30
0.0
 10
6.006607680975631
 20
-24.61558563808416
 30
0.0
 10
6.029395872610343
 20
-24.68035789555238
 30
0.0
 10
6.050121649983628
 20
-24.73664676485726
 30
0.0
 10
6.067433678808424
 20
-24.78107297104136
 30
0.0
 10
6.08204423583233
 20
-24.81593170180265
 30
0.0
 10
6.094449447881527
 20
-24.84362010045261
 30
0.0
 10
6.106968751732466
 20
-24.86972515865872
 30
0.0
 10
6.119607230960207
 20
-24.89424509941268
 30
0.0
 10
6.132363312123156
 20
-24.91718143007263
 30
0.0
 10
6.145239909732874
 20
-24.93853236842389
 30
0.0
 10
6.158229718020116
 20
-24.95830573337784
 30
0.0
 10
6.171360250911197
 20
-24.97647685003545
 30
0.0
 10
6.184540430004109
 20
-24.99313275823011
 30
0.0
 10
6.193818002572184
 20
-25.0032974056178
 30
0.0
 10
6.198329043651053
 20
-25.00823976975256
 30
0.0
  0
SPLINE
  5
67
330
1F
100
AcDbEntity
  8
0
  6
Continuous
 62
     7
370
    25
100
AcDbSpline
210
0.0
220
0.0
230
1.0
 70
     8
 71
     3
 72
    29
 73
    25
 74
     0
 42
0.00000001
 43
0.00000001
 40
0.0
 40
0.0
 40
0.0
 40
0.0
 40
0.0271995362738355
 40
0.0534819084268894
 40
0.078853592695042
 40
0.103321788446785
 40
0.1268945228706902
 40
0.1495807737118015
 40
0.171390613471946
 40
0.1923353791099763
 40
0.2124278719625914
 40
0.2316825933203314
 40
0.2501160217650806
 40
0.3175020845774833
 40
0.3806816458561159
 40
0.4410098791621138
 40
0.5000386668232555
 40
0.5754871629300489
 40
0.6580416349605843
 40
0.749893316477872
 40
0.7965373732788876
 40
0.853724254403117
 40
0.9215300595547352
 40
1.0
 40
1.0
 40
1.0
 40
1.0
 10
6.135722662769298
 20
8.15910479962991
 30
0.0
 10
6.128307251417596
 20
8.153116025865728
 30
0.0
 10
6.11372647522837
 20
8.14134041885461
 30
0.0
 10
6.091904096471493
 20
8.124386361731284
 30
0.0
 10
6.070590998764393
 20
8.108342879328157
 30
0.0
 10
6.049765796334212
 20
8.09323608240056
 30
0.0
 10
6.029433841276551
 20
8.079059258918562
 30
0.0
 10
6.009593681425219
 20
8.065813993475254
 30
0.0
 10
5.990245549460859
 20
8.053499868259324
 30
0.0
 10
5.971389276008591
 20
8.042116592186947
 30
0.0
 10
5.953024563469595
 20
8.031665161405211
 30
0.0
 10
5.935151775580966
 20
8.022141624629768
 30
0.0
 10
5.902133979766504
 20
8.005840526127683
 30
0.0
 10
5.853575655129493
 20
7.986215014039384
 30
0.0
 10
5.788471158981427
 20
7.969849475369241
 30
0.0
 10
5.724486248700642
 20
7.964033284223142
 30
0.0
 10
5.656093545439037
 20
7.969281806079925
 30
0.0
 10
5.582281564303996
 20
7.989685765804831
 30
0.0
 10
5.503130764228608
 20
8.027943949952757
 30
0.0
 10
5.438683743336584
 20
8.071364137090054
 30
0.0
 10
5.385524978170718
 20
8.114713589755455
 30
0.0
 10
5.340632257290042
 20
8.154763775229364
 30
0.0
 10
5.288733509370214
 20
8.203663538147552
 30
0.0
 10
5.252339243653259
 20
8.239763199531138
 30
0.0
 10
5.232815461007644
 20
8.259128941044226
 30
0.0
  0
SPLINE
  5
68
330
1F
100
AcDbEntity
  8
0
  6
Continuous
 62
     7
370
    25
100
AcDbSpline
210
0.0
220
0.0
230
1.0
 70
     8
 71
     3
 72
    77
 73
    73
 74
     0
 42
0.00000001
 43
0.00000001
 40
0.0
 40
0.0
 40
0.0
 40
0.0
 40
0.0037571503614118
 40
0.0076904090653215
 40
0.0118015549364153
 40
0.0160921455557615
 40
0.0205635509836017
 40
0.0252169815767564
 40
0.0300535110368532
 40
0.0350740955943883
 40
0.0402795900500787
 40
0.0456707612498232
 40
0.0512482994549449
 40
0.0570128279787814
 40
0.062964911389028
 40
0.0691050625183444
 40
0.0754337484804565
 40
0.0819513958528695
 40
0.0886583951583029
 40
0.0955551047536786
 40
0.1026418542166338
 40
0.1099189473042849
 40
0.117386664546513
 40
0.1250452655258881
 40
0.1389412054472806
 40
0.1528370548417632
 40
0.1667328395738053
 40
0.1806285855082399
 40
0.1945243185101143
 40
0.2084200644445485
 40
0.2223158491765909
 40
0.2362116985710732
 40
0.2501076384924661
 40
0.2797465897478504
 40
0.3070678004139851
 40
0.3320750070705282
 40
0.3547730891264712
 40
0.3751685833599794
 40
0.4014741218610041
 40
0.424806330504342
 40
0.4452174696754836
 40
0.4627858868520903
 40
0.4776349945579066
 40
0.4899700971098388
 40
0.5001497605627506
 40
0.5079678437730698
 40
0.515409135239537
 40
0.5232447516104058
 40
0.5321438875657111
 40
0.542572982886382
 40
0.5548249667780367
 40
0.5690808378833783
 40
0.5854552778518165
 40
0.6040237559586751
 40
0.624837889275892
 40
0.6505291561414127
 40
0.6799232530930206
 40
0.7130409490357076
 40
0.7498967184620887
 40
0.7647177181905025
 40
0.7905014261596093
 40
0.8272480639373763
 40
0.8749577003534331
 40
0.8934667075339052
 40
0.9108184131661325
 40
0.9270137985346252
 40
0.9420540712537735
 40
0.9559407402944241
 40
0.968675724706217
 40
0.9802615158418502
 40
0.9907014278076783
 40
1.0
 40
1.0
 40
1.0
 40
1.0
 10
7.663557563325408
 20
8.25600051373599
 30
0.0
 10
7.660947239131992
 20
8.251207130853336
 30
0.0
 10
7.655604237412751
 20
8.241395685574773
 30
0.0
 10
7.647842162382224
 20
8.22610770677548
 30
0.0
 10
7.640025957071706
 20
8.209983120908097
 30
0.0
 10
7.632191272578274
 20
8.193002106961453
 30
0.0
 10
7.624327900557751
 20
8.17517020731157
 30
0.0
 10
7.616438752279099
 20
8.156485732495982
 30
0.0
 10
7.608523002795859
 20
8.136949072081006
 30
0.0
 10
7.600580894793658
 20
8.116560037370544
 30
0.0
 10
7.592612370195731
 20
8.095318615351696
 30
0.0
 10
7.584617457694089
 20
8.073224752779968
 30
0.0
 10
7.576596162142818
 20
8.050278415870096
 30
0.0
 10
7.568548495421093
 20
8.026479572122625
 30
0.0
 10
7.560474467064484
 20
8.001828194480757
 30
0.0
 10
7.552374087874809
 20
7.97632425897464
 30
0.0
 10
7.544247364083571
 20
7.949967745840809
 30
0.0
 10
7.536094317160193
 20
7.922758633948612
 30
0.0
 10
7.527914907020932
 20
7.894696919968164
 30
0.0
 10
7.51970933081909
 20
7.865782541997232
 30
0.0
 10
7.511476860433185
 20
7.836015675154892
 30
0.0
 10
7.503220360826228
 20
7.805395581417058
 30
0.0
 10
7.494928746290497
 20
7.773925074373101
 30
0.0
 10
7.484465149947284
 20
7.733084969693277
 30
0.0
 10
7.471784398962377
 20
7.68317379597798
 30
0.0
 10
7.456730281864395
 20
7.624517433292675
 30
0.0
 10
7.441612910996518
 20
7.565877688594493
 30
0.0
 10
7.426411084761682
 20
7.507259935126198
 30
0.0
 10
7.411130661397882
 20
7.448662686311369
 30
0.0
 10
7.395769409427278
 20
7.390086515248009
 30
0.0
 10
7.380330396551193
 20
7.331530616117242
 30
0.0
 10
7.364803583384225
 20
7.272997639115764
 30
0.0
 10
7.343343402696063
 20
7.192378497773441
 30
0.0
 10
7.316363615161968
 20
7.093046848427127
 30
0.0
 10
7.283874805276644
 20
6.97849240803802
 30
0.0
 10
7.252832597679603
 20
6.874016332216953
 30
0.0
 10
7.223224332056096
 20
6.779619594886436
 30
0.0
 10
7.191272203646109
 20
6.683998448303617
 30
0.0
 10
7.156366947675858
 20
6.588415764196192
 30
0.0
 10
7.117584950371353
 20
6.494301995779543
 30
0.0
 10
7.079362992085326
 20
6.413797400522566
 30
0.0
 10
7.041697423351671
 20
6.34684495521284
 30
0.0
 10
7.004537777613259
 20
6.293334613161067
 30
0.0
 10
6.967746666736546
 20
6.25314244907906
 30
0.0
 10
6.931844796152311
 20
6.226820746615915
 30
0.0
 10
6.89659232856881
 20
6.213983488855068
 30
0.0
 10
6.862405162634668
 20
6.213384003945008
 30
0.0
 10
6.828479911700791
 20
6.224335371378502
 30
0.0
 10
6.795121332177125
 20
6.246022576653235
 30
0.0
 10
6.761985090400255
 20
6.278029520050569
 30
0.0
 10
6.728797698106907
 20
6.320343839059798
 30
0.0
 10
6.695428578358048
 20
6.373035741292349
 30
0.0
 10
6.661828390107318
 20
6.43617097128824
 30
0.0
 10
6.627977473681876
 20
6.509792170830038
 30
0.0
 10
6.592470667400103
 20
6.597428120797329
 30
0.0
 10
6.555034364845187
 20
6.701156287234549
 30
0.0
 10
6.515053103351147
 20
6.822901497614525
 30
0.0
 10
6.473263985536025
 20
6.961074289189268
 30
0.0
 10
6.439475430690756
 20
7.079535001159589
 30
0.0
 10
6.410407397581653
 20
7.188239325717609
 30
0.0
 10
6.381854060616512
 20
7.296915010303948
 30
0.0
 10
6.341302649501785
 20
7.45183553390909
 30
0.0
 10
6.303752607482231
 20
7.596617395938485
 30
0.0
 10
6.272946561082692
 20
7.714042469285801
 30
0.0
 10
6.253160042802946
 20
7.787027941390376
 30
0.0
 10
6.234169416379543
 20
7.855006152505372
 30
0.0
 10
6.215948867046364
 20
7.917970799158803
 30
0.0
 10
6.19850184425565
 20
7.975922649447125
 30
0.0
 10
6.181840472297122
 20
8.02886711600257
 30
0.0
 10
6.16592474312893
 20
8.07678920838548
 30
0.0
 10
6.150890065987707
 20
8.11974321941919
 30
0.0
 10
6.14057974508364
 20
8.146499984149433
 30
0.0
 10
6.135722671841116
 20
8.159104787359432
 30
0.0
  0
SPLINE
  5
69
330
1F
100
AcDbEntity
  8
0
  6
Continuous
 62
     7
370
    25
100
AcDbSpline
210
0.0
220
0.0
230
1.0
 70
     8
 71
     3
 72
    29
 73
    25
 74
     0
 42
0.00000001
 43
0.00000001
 40
0.0
 40
0.0
 40
0.0
 40
0.0
 40
0.0250291828134304
 40
0.0511136916180119
 40
0.0782950232407564
 40
0.1066098525698528
 40
0.1360906244903304
 40
0.1667660845204543
 40
0.1986617482544671
 40
0.2318003128574631
 40
0.2662020155014116
 40
0.3018849442993531
 40
0.3388653073632293
 40
0.3771576653346981
 40
0.4167751322859553
 40
0.4577295493639044
 40
0.5000316350181087
 40
0.5714589344568625
 40
0.6428829866325649
 40
0.7143050903795746
 40
0.7857265446385364
 40
0.8571486483855403
 40
0.9285727005612507
 40
1.0
 40
1.0
 40
1.0
 40
1.0
 10
7.947523252783726
 20
8.421428711304175
 30
0.0
 10
7.94483564009463
 20
8.420818062877487
 30
0.0
 10
7.939347094695321
 20
8.419571018752983
 30
0.0
 10
7.93105238041149
 20
8.417210866840556
 30
0.0
 10
7.922502872651279
 20
8.414452965055654
 30
0.0
 10
7.913706332132797
 20
8.411260539017647
 30
0.0
 10
7.904660364920501
 20
8.407644102368188
 30
0.0
 10
7.895365493932122
 20
8.40360067253262
 30
0.0
 10
7.88582143551138
 20
8.399131089953183
 30
0.0
 10
7.876028154204159
 20
8.394235098990615
 30
0.0
 10
7.865985571464413
 20
8.388912735195142
 30
0.0
 10
7.855693601760186
 20
8.383163998128719
 30
0.0
 10
7.845152313750928
 20
8.376988695541081
 30
0.0
 10
7.834361198214157
 20
8.37038747692257
 30
0.0
 10
7.82332206357586
 20
8.363357658139067
 30
0.0
 10
7.812027652286086
 20
8.355909652918854
 30
0.0
 10
7.797985532108686
 20
8.346272532162164
 30
0.0
 10
7.781236600730909
 20
8.334652353697876
 30
0.0
 10
7.761758094594487
 20
8.321342637924015
 30
0.0
 10
7.742233708395609
 20
8.30810177523986
 30
0.0
 10
7.722650746826597
 20
8.294947951799577
 30
0.0
 10
7.703011369728762
 20
8.281878204349667
 30
0.0
 10
7.683319632905835
 20
8.268886200178606
 30
0.0
 10
7.670145025217092
 20
8.260295804106727
 30
0.0
 10
7.663557571631688
 20
8.256000508433361
 30
0.0
  0
SPLINE
  5
6B
330
1F
100
AcDbEntity
  8
0
  6
Continuous
 62
     7
370
    25
100
AcDbSpline
210
0.0
220
0.0
230
1.0
 70
     8
 71
     3
 72
    20
 73
    16
 74
     0
 42
0.00000001
 43
0.00000001
 40
0.0
 40
0.0
 40
0.0
 40
0.0
 40
0.1631967892906454
 40
0.3009990476238174
 40
0.4134349147988136
 40
0.5005571135301732
 40
0.5672531681604797
 40
0.6307661663213552
 40
0.6912244758361394
 40
0.7487769081501363
 40
0.8035959446520531
 40
0.8558811249865222
 40
0.9058623457007776
 40
0.9538026605457434
 40
1.0
 40
1.0
 40
1.0
 40
1.0
 10
8.220374859852138
 20
8.259224153333237
 30
0.0
 10
8.209324423481934
 20
8.270205270508201
 30
0.0
 10
8.188943073838251
 20
8.290458768299898
 30
0.0
 10
8.160575822616035
 20
8.317899850632687
 30
0.0
 10
8.137078237309996
 20
8.33992350418925
 30
0.0
 10
8.118105099531128
 20
8.35684445343277
 30
0.0
 10
8.1020199185927
 20
8.369956800934512
 30
0.0
 10
8.087431975570526
 20
8.380850966457404
 30
0.0
 10
8.073069177436405
 20
8.39055752892118
 30
0.0
 10
8.058931614515641
 20
8.399077802140647
 30
0.0
 10
8.045017680524358
 20
8.40640847153856
 30
0.0
 10
8.03132783599761
 20
8.412558240398113
 30
0.0
 10
8.017856022518398
 20
8.417492986417454
 30
0.0
 10
8.004619232567842
 20
8.421326142812386
 30
0.0
 10
7.995766563027726
 20
8.422900609993638
 30
0.0
 10
7.991422182632174
 20
8.423673267814499
 30
0.0
  0
SPLINE
  5
6D
330
1F
100
AcDbEntity
  8
0
  6
Continuous
 62
     7
370
    25
100
AcDbSpline
210
0.0
220
0.0
230
1.0
 70
     8
 71
     3
 72
    24
 73
    20
 74
     0
 42
0.00000001
 43
0.00000001
 40
0.0
 40
0.0
 40
0.0
 40
0.0
 40
0.0846835270433478
 40
0.1649433519583931
 40
0.2407842998264539
 40
0.3122120912447836
 40
0.3792335768707907
 40
0.4418570534540499
 40
0.500092697508812
 40
0.5607071279652269
 40
0.6188811297944509
 40
0.6746377060413514
 40
0.7280029859282402
 40
0.7790067739906471
 40
0.8276832127747655
 40
0.8740715840047572
 40
0.918217277732679
 40
0.9601729634111043
 40
1.0
 40
1.0
 40
1.0
 40
1.0
 10
7.914201222978858
 20
-24.1077293635845
 30
0.0
 10
7.920935891245533
 20
-24.0883701482197
 30
0.0
 10
7.934053421856465
 20
-24.05066300510649
 30
0.0
 10
7.953698592883054
 20
-23.99579265291217
 30
0.0
 10
7.972661175323966
 20
-23.94408778894113
 30
0.0
 10
7.990971413535349
 20
-23.89555872594673
 30
0.0
 10
8.008621490917244
 20
-23.85020256603101
 30
0.0
 10
8.025613260892488
 20
-23.80801971736754
 30
0.0
 10
8.042576108439851
 20
-23.76750104895047
 30
0.0
 10
8.059784708697059
 20
-23.72825838958622
 30
0.0
 10
8.0774862562363
 20
-23.68989513238644
 30
0.0
 10
8.095209345409252
 20
-23.65348329038758
 30
0.0
 10
8.112954498520104
 20
-23.61902287916429
 30
0.0
 10
8.130721070662707
 20
-23.58651295341353
 30
0.0
 10
8.148511748752622
 20
-23.55595517932348
 30
0.0
 10
8.166318179524884
 20
-23.52734205754839
 30
0.0
 10
8.184170681048835
 20
-23.50069764226742
 30
0.0
 10
8.201966220230139
 20
-23.47593651724782
 30
0.0
 10
8.214346054510596
 20
-23.4604867855136
 30
0.0
 10
8.220374859852152
 20
-23.45296298324818
 30
0.0
  0
LINE
  5
6E
330
1F
100
AcDbEntity
  8
0
  6
Continuous
 62
     7
370
    25
100
AcDbLine
 10
5.232815461
 20
8.259128941
 30
0.0
 11
5.232815461
 21
-23.4528530911
 31
0.0
  0
LINE
  5
6F
330
1F
100
AcDbEntity
  8
0
  6
Continuous
 62
     7
370
    25
100
AcDbLine
 10
7.9914221826
 20
8.4236732678
 30
0.0
 11
7.9475232487
 21
8.4214287303
 31
0.0
  0
LINE
  5
70
330
1F
100
AcDbEntity
  8
0
  6
Continuous
 62
     7
370
    25
100
AcDbLine
 10
8.2203748599
 20
-23.4529629832
 30
0.0
 11
8.2203748599
 21
8.2592241533
 31
0.0
  0
MTEXT
  5
72
330
1F
100
AcDbEntity
  8
0
  6
Continuous
 62
     7
100
AcDbMText
 10
5.232815461
 20
-25.0483801886
 30
0.0
 40
0.1903
 41
0.0
 71
     1
 72
     1
  1
SOLIDWORKS Educational Product.
  7
SLDTEXTSTYLE0
 73
     1
 44
1.0
  0
MTEXT
  5
73
330
1F
100
AcDbEntity
  8
0
  6
Continuous
 62
     7
100
AcDbMText
 10
5.232815461
 20
-25.3338301886
 30
0.0
 40
0.1903
 41
0.0
 71
     1
 72
     1
  1
For Instructional Use Only.
  7
SLDTEXTSTYLE0
 73
     1
 44
1.0
  0
ENDSEC
  0
SECTION
  2
OBJECTS
  0
DICTIONARY
  5
C
330
0
100
AcDbDictionary
281
     1
  3
ACAD_GROUP
350
D
  3
ACAD_LAYOUT
350
1A
  3
ACAD_MLINESTYLE
350
17
  3
ACAD_PLOTSETTINGS
350
19
  3
ACAD_PLOTSTYLENAME
350
E
  3
ACAD_SCALELIST
350
47
  3
DWGPROPS
350
74
  0
DICTIONARY
  5
D
102
{ACAD_REACTORS
330
C
102
}
330
C
100
AcDbDictionary
281
     1
  0
DICTIONARY
  5
1A
102
{ACAD_REACTORS
330
C
102
}
330
C
100
AcDbDictionary
281
     1
  3
Layout1
350
1E
  3
Layout2
350
26
  3
Model
350
22
  0
DICTIONARY
  5
17
102
{ACAD_REACTORS
330
C
102
}
330
C
100
AcDbDictionary
281
     1
  3
Standard
350
18
  0
DICTIONARY
  5
19
102
{ACAD_REACTORS
330
C
102
}
330
C
100
AcDbDictionary
281
     1
  0
ACDBDICTIONARYWDFLT
  5
E
102
{ACAD_REACTORS
330
C
102
}
330
C
100
AcDbDictionary
281
     1
  3
Normal
350
F
100
AcDbDictionaryWithDefault
340
F
  0
DICTIONARY
  5
47
102
{ACAD_REACTORS
330
C
102
}
330
C
100
AcDbDictionary
281
     1
  3
A0
350
48
  3
A1
350
49
  3
A2
350
4A
  3
A3
350
4B
  3
A4
350
4C
  3
A5
350
4D
  3
A6
350
4E
  3
A7
350
4F
  3
A8
350
50
  3
A9
350
51
  3
B1
350
52
  3
B2
350
53
  3
B3
350
54
  3
B4
350
55
  3
B5
350
56
  3
B6
350
57
  3
B7
350
58
  0
XRECORD
  5
74
102
{ACAD_REACTORS
330
C
102
}
330
C
100
AcDbXrecord
280
     1
  1
DWGPROPS COOKIE
  2

  3

  4

  6

  7

  8
manny
  9

300
=
301
=
302
=
303
=
304
=
305
=
306
=
307
=
308
=
309
=
 40
0.0
 41
2460633.154692836
 42
2460633.154738334
  1

 90
        0
  0
LAYOUT
  5
1E
102
{ACAD_REACTORS
330
1A
102
}
330
1A
100
AcDbPlotSettings
  1

  2
none_device
  4

  6

 40
0.0
 41
0.0
 42
0.0
 43
0.0
 44
0.0
 45
0.0
 46
0.0
 47
0.0
 48
0.0
 49
0.0
140
0.0
141
0.0
142
1.0
143
1.0
 70
   688
 72
     0
 73
     0
 74
     5
  7

 75
    16
147
1.0
148
0.0
149
0.0
100
AcDbLayout
  1
Layout1
 70
     1
 71
     1
 10
0.0
 20
0.0
 11
12.0
 21
9.0
 12
0.0
 22
0.0
 32
0.0
 14
1.0000000000E+20
 24
1.0000000000E+20
 34
1.0000000000E+20
 15
-1.0000000000E+20
 25
-1.0000000000E+20
 35
-1.0000000000E+20
146
0.0
 13
0.0
 23
0.0
 33
0.0
 16
1.0
 26
0.0
 36
0.0
 17
0.0
 27
1.0
 37
0.0
 76
     0
330
1B
  0
LAYOUT
  5
26
102
{ACAD_REACTORS
330
1A
102
}
330
1A
100
AcDbPlotSettings
  1

  2
none_device
  4

  6

 40
0.0
 41
0.0
 42
0.0
 43
0.0
 44
0.0
 45
0.0
 46
0.0
 47
0.0
 48
0.0
 49
0.0
140
0.0
141
0.0
142
1.0
143
1.0
 70
   688
 72
     0
 73
     0
 74
     5
  7

 75
    16
147
1.0
148
0.0
149
0.0
100
AcDbLayout
  1
Layout2
 70
     1
 71
     2
 10
0.0
 20
0.0
 11
0.0
 21
0.0
 12
0.0
 22
0.0
 32
0.0
 14
0.0
 24
0.0
 34
0.0
 15
0.0
 25
0.0
 35
0.0
146
0.0
 13
0.0
 23
0.0
 33
0.0
 16
1.0
 26
0.0
 36
0.0
 17
0.0
 27
1.0
 37
0.0
 76
     0
330
23
  0
LAYOUT
  5
22
102
{ACAD_REACTORS
330
1A
102
}
330
1A
100
AcDbPlotSettings
  1

  2
none_device
  4
ANSI_A_(11.00_x_8.50_Inches)
  6

 40
6.35
 41
19.05
 42
6.35000508
 43
19.05000254
 44
279.4
 45
215.9
 46
90.3447056554
 47
141.9152393738
 48
0.0
 49
0.0
140
0.0
141
0.0
142
0.251705608
143
1.0
 70
  1696
 72
     0
 73
     0
 74
     0
  7

 75
     0
147
0.5913241897
148
-39.4088153714
149
0.0
100
AcDbLayout
  1
Model
 70
     1
 71
     0
 10
0.0
 20
0.0
 11
12.0
 21
9.0
 12
0.0
 22
0.0
 32
0.0
 14
5.232815461
 24
-25.0082397795
 34
0.0
 15
8.2203748599
 25
8.4236732678
 35
0.0
146
0.0
 13
0.0
 23
0.0
 33
0.0
 16
1.0
 26
0.0
 36
0.0
 17
0.0
 27
1.0
 37
0.0
 76
     0
330
1F
331
29
  0
MLINESTYLE
  5
18
102
{ACAD_REACTORS
330
17
102
}
330
17
100
AcDbMlineStyle
  2
Standard
 70
     0
  3

 62
   256
 51
90.0
 52
90.0
 71
     2
 49
0.5
 62
   256
  6
BYLAYER
 49
-0.5
 62
   256
  6
BYLAYER
  0
ACDBPLACEHOLDER
  5
F
102
{ACAD_REACTORS
330
E
102
}
330
E
  0
SCALE
  5
48
102
{ACAD_REACTORS
330
47
102
}
330
47
100
AcDbScale
 70
     0
300
1:1
140
1.0
141
1.0
290
     1
  0
SCALE
  5
49
102
{ACAD_REACTORS
330
47
102
}
330
47
100
AcDbScale
 70
     0
300
1/128" = 1'-0"
140
0.0078125
141
12.0
290
     0
  0
SCALE
  5
4A
102
{ACAD_REACTORS
330
47
102
}
330
47
100
AcDbScale
 70
     0
300
1/64" = 1'-0"
140
0.015625
141
12.0
290
     0
  0
SCALE
  5
4B
102
{ACAD_REACTORS
330
47
102
}
330
47
100
AcDbScale
 70
     0
300
1/32" = 1'-0"
140
0.03125
141
12.0
290
     0
  0
SCALE
  5
4C
102
{ACAD_REACTORS
330
47
102
}
330
47
100
AcDbScale
 70
     0
300
1/16" = 1'-0"
140
0.0625
141
12.0
290
     0
  0
SCALE
  5
4D
102
{ACAD_REACTORS
330
47
102
}
330
47
100
AcDbScale
 70
     0
300
3/32" = 1'-0"
140
0.09375
141
12.0
290
     0
  0
SCALE
  5
4E
102
{ACAD_REACTORS
330
47
102
}
330
47
100
AcDbScale
 70
     0
300
1/8" = 1'-0"
140
0.125
141
12.0
290
     0
  0
SCALE
  5
4F
102
{ACAD_REACTORS
330
47
102
}
330
47
100
AcDbScale
 70
     0
300
3/16" = 1'-0"
140
0.1875
141
12.0
290
     0
  0
SCALE
  5
50
102
{ACAD_REACTORS
330
47
102
}
330
47
100
AcDbScale
 70
     0
300
1/4" = 1'-0"
140
0.25
141
12.0
290
     0
  0
SCALE
  5
51
102
{ACAD_REACTORS
330
47
102
}
330
47
100
AcDbScale
 70
     0
300
3/8" = 1'-0"
140
0.375
141
12.0
290
     0
  0
SCALE
  5
52
102
{ACAD_REACTORS
330
47
102
}
330
47
100
AcDbScale
 70
     0
300
1/2" = 1'-0"
140
0.5
141
12.0
290
     0
  0
SCALE
  5
53
102
{ACAD_REACTORS
330
47
102
}
330
47
100
AcDbScale
 70
     0
300
3/4" = 1'-0"
140
0.75
141
12.0
290
     0
  0
SCALE
  5
54
102
{ACAD_REACTORS
330
47
102
}
330
47
100
AcDbScale
 70
     0
300
1" = 1'-0"
140
1.0
141
12.0
290
     0
  0
SCALE
  5
55
102
{ACAD_REACTORS
330
47
102
}
330
47
100
AcDbScale
 70
     0
300
1-1/2" = 1'-0"
140
1.5
141
12.0
290
     0
  0
SCALE
  5
56
102
{ACAD_REACTORS
330
47
102
}
330
47
100
AcDbScale
 70
     0
300
3" = 1'-0"
140
3.0
141
12.0
290
     0
  0
SCALE
  5
57
102
{ACAD_REACTORS
330
47
102
}
330
47
100
AcDbScale
 70
     0
300
6" = 1'-0"
140
6.0
141
12.0
290
     0
  0
SCALE
  5
58
102
{ACAD_REACTORS
330
47
102
}
330
47
100
AcDbScale
 70
     0
300
1'-0" = 1'-0"
140
12.0
141
12.0
290
     0
  0
ENDSEC
  0
EOF
