  0
SECTION
  2
HEADER
  9
$ACADVER
  1
AC1015
  9
$ACADMAINTVER
 70
     6
  9
$DWGCODEPAGE
  3
ANSI_1252
  9
$INSBASE
 10
0.0
 20
0.0
 30
0.0
  9
$EXTMIN
 10
-0.0004416527
 20
-1.4120429162
 30
0.0
  9
$EXTMAX
 10
2.9871177997
 20
8.2634781321
 30
0.0
  9
$LIMMIN
 10
0.0
 20
0.0
  9
$LIMMAX
 10
12.0
 20
9.0
  9
$ORTHOMODE
 70
     0
  9
$REGENMODE
 70
     1
  9
$FILLMODE
 70
     1
  9
$QTEXTMODE
 70
     0
  9
$MIRRTEXT
 70
     1
  9
$LTSCALE
 40
1.0
  9
$ATTMODE
 70
     1
  9
$TEXTSIZE
 40
0.1377952756
  9
$TRACEWID
 40
0.05
  9
$TEXTSTYLE
  7
Standard
  9
$CLAYER
  8
0
  9
$CELTYPE
  6
ByLayer
  9
$CECOLOR
 62
   256
  9
$CELTSCALE
 40
1.0
  9
$DISPSILH
 70
     0
  9
$DIMSCALE
 40
1.0
  9
$DIMASZ
 40
0.13
  9
$DIMEXO
 40
0.0
  9
$DIMDLI
 40
0.38
  9
$DIMRND
 40
0.0
  9
$DIMDLE
 40
0.0
  9
$DIMEXE
 40
0.0393700787
  9
$DIMTP
 40
0.0
  9
$DIMTM
 40
0.0
  9
$DIMTXT
 40
0.1377952756
  9
$DIMCEN
 40
0.09
  9
$DIMTSZ
 40
0.0
  9
$DIMTOL
 70
     0
  9
$DIMLIM
 70
     0
  9
$DIMTIH
 70
     1
  9
$DIMTOH
 70
     1
  9
$DIMSE1
 70
     0
  9
$DIMSE2
 70
     0
  9
$DIMTAD
 70
     1
  9
$DIMZIN
 70
     1
  9
$DIMBLK
  1

  9
$DIMASO
 70
     1
  9
$DIMSHO
 70
     1
  9
$DIMPOST
  1

  9
$DIMAPOST
  1

  9
$DIMALT
 70
     0
  9
$DIMALTD
 70
     2
  9
$DIMALTF
 40
25.4
  9
$DIMLFAC
 40
1.0
  9
$DIMTOFL
 70
     0
  9
$DIMTVP
 40
0.0
  9
$DIMTIX
 70
     0
  9
$DIMSOXD
 70
     0
  9
$DIMSAH
 70
     0
  9
$DIMBLK1
  1

  9
$DIMBLK2
  1

  9
$DIMSTYLE
  2
Standard
  9
$DIMCLRD
 70
     0
  9
$DIMCLRE
 70
     0
  9
$DIMCLRT
 70
     0
  9
$DIMTFAC
 40
1.0
  9
$DIMGAP
 40
0.06
  9
$DIMJUST
 70
     0
  9
$DIMSD1
 70
     0
  9
$DIMSD2
 70
     0
  9
$DIMTOLJ
 70
     1
  9
$DIMTZIN
 70
     1
  9
$DIMALTZ
 70
     0
  9
$DIMALTTZ
 70
     0
  9
$DIMUPT
 70
     0
  9
$DIMDEC
 70
     2
  9
$DIMTDEC
 70
     2
  9
$DIMALTU
 70
     2
  9
$DIMALTTD
 70
     2
  9
$DIMTXSTY
  7
Standard
  9
$DIMAUNIT
 70
     0
  9
$DIMADEC
 70
     2
  9
$DIMALTRND
 40
0.0
  9
$DIMAZIN
 70
     0
  9
$DIMDSEP
 70
    46
  9
$DIMATFIT
 70
     3
  9
$DIMFRAC
 70
     0
  9
$DIMLDRBLK
  1

  9
$DIMLUNIT
 70
     2
  9
$DIMLWD
 70
    -2
  9
$DIMLWE
 70
    -2
  9
$DIMTMOVE
 70
     0
  9
$LUNITS
 70
     2
  9
$LUPREC
 70
     2
  9
$SKETCHINC
 40
0.1
  9
$FILLETRAD
 40
0.0
  9
$AUNITS
 70
     0
  9
$AUPREC
 70
     2
  9
$MENU
  1
.
  9
$ELEVATION
 40
0.0
  9
$PELEVATION
 40
0.0
  9
$THICKNESS
 40
0.0
  9
$LIMCHECK
 70
     0
  9
$CHAMFERA
 40
0.0
  9
$CHAMFERB
 40
0.0
  9
$CHAMFERC
 40
0.0
  9
$CHAMFERD
 40
0.0
  9
$SKPOLY
 70
     0
  9
$TDCREATE
 40
2460632.825904665
  9
$TDUCREATE
 40
2460633.159237998
  9
$TDUPDATE
 40
2460632.826032118
  9
$TDUUPDATE
 40
2460633.159365452
  9
$TDINDWG
 40
0.0000000116
  9
$TDUSRTIMER
 40
0.0000000116
  9
$USRTIMER
 70
     1
  9
$ANGBASE
 50
0.0
  9
$ANGDIR
 70
     0
  9
$PDMODE
 70
     0
  9
$PDSIZE
 40
-1.0
  9
$PLINEWID
 40
0.0
  9
$SPLFRAME
 70
     0
  9
$SPLINETYPE
 70
     6
  9
$SPLINESEGS
 70
     8
  9
$HANDSEED
  5
72
  9
$SURFTAB1
 70
     6
  9
$SURFTAB2
 70
     6
  9
$SURFTYPE
 70
     6
  9
$SURFU
 70
     6
  9
$SURFV
 70
     6
  9
$UCSBASE
  2

  9
$UCSNAME
  2

  9
$UCSORG
 10
0.0
 20
0.0
 30
0.0
  9
$UCSXDIR
 10
1.0
 20
0.0
 30
0.0
  9
$UCSYDIR
 10
0.0
 20
1.0
 30
0.0
  9
$UCSORTHOREF
  2

  9
$UCSORTHOVIEW
 70
     0
  9
$UCSORGTOP
 10
0.0
 20
0.0
 30
0.0
  9
$UCSORGBOTTOM
 10
0.0
 20
0.0
 30
0.0
  9
$UCSORGLEFT
 10
0.0
 20
0.0
 30
0.0
  9
$UCSORGRIGHT
 10
0.0
 20
0.0
 30
0.0
  9
$UCSORGFRONT
 10
0.0
 20
0.0
 30
0.0
  9
$UCSORGBACK
 10
0.0
 20
0.0
 30
0.0
  9
$PUCSBASE
  2

  9
$PUCSNAME
  2

  9
$PUCSORG
 10
0.0
 20
0.0
 30
0.0
  9
$PUCSXDIR
 10
1.0
 20
0.0
 30
0.0
  9
$PUCSYDIR
 10
0.0
 20
1.0
 30
0.0
  9
$PUCSORTHOREF
  2

  9
$PUCSORTHOVIEW
 70
     0
  9
$PUCSORGTOP
 10
0.0
 20
0.0
 30
0.0
  9
$PUCSORGBOTTOM
 10
0.0
 20
0.0
 30
0.0
  9
$PUCSORGLEFT
 10
0.0
 20
0.0
 30
0.0
  9
$PUCSORGRIGHT
 10
0.0
 20
0.0
 30
0.0
  9
$PUCSORGFRONT
 10
0.0
 20
0.0
 30
0.0
  9
$PUCSORGBACK
 10
0.0
 20
0.0
 30
0.0
  9
$USERI1
 70
     0
  9
$USERI2
 70
     0
  9
$USERI3
 70
     0
  9
$USERI4
 70
     0
  9
$USERI5
 70
     0
  9
$USERR1
 40
0.0
  9
$USERR2
 40
0.0
  9
$USERR3
 40
0.0
  9
$USERR4
 40
0.0
  9
$USERR5
 40
0.0
  9
$WORLDVIEW
 70
     1
  9
$SHADEDGE
 70
     3
  9
$SHADEDIF
 70
    70
  9
$TILEMODE
 70
     1
  9
$MAXACTVP
 70
    64
  9
$PINSBASE
 10
0.0
 20
0.0
 30
0.0
  9
$PLIMCHECK
 70
     0
  9
$PEXTMIN
 10
1.0000000000E+20
 20
1.0000000000E+20
 30
1.0000000000E+20
  9
$PEXTMAX
 10
-1.0000000000E+20
 20
-1.0000000000E+20
 30
-1.0000000000E+20
  9
$PLIMMIN
 10
0.0
 20
0.0
  9
$PLIMMAX
 10
12.0
 20
9.0
  9
$UNITMODE
 70
     0
  9
$VISRETAIN
 70
     1
  9
$PLINEGEN
 70
     0
  9
$PSLTSCALE
 70
     1
  9
$TREEDEPTH
 70
  3020
  9
$CMLSTYLE
  2
Standard
  9
$CMLJUST
 70
     0
  9
$CMLSCALE
 40
1.0
  9
$PROXYGRAPHICS
 70
     1
  9
$MEASUREMENT
 70
     0
  9
$CELWEIGHT
370
    -1
  9
$ENDCAPS
280
     0
  9
$JOINSTYLE
280
     0
  9
$LWDISPLAY
290
     1
  9
$INSUNITS
 70
     1
  9
$HYPERLINKBASE
  1

  9
$STYLESHEET
  1

  9
$XEDIT
290
     1
  9
$CEPSNTYPE
380
     0
  9
$PSTYLEMODE
290
     1
  9
$FINGERPRINTGUID
  2
{ae433f2d-82dc-48af-af04-8b6fb6ccd6b7}
  9
$VERSIONGUID
  2
{FAEB1C32-E019-11D5-929B-00C0DF256EC4}
  9
$EXTNAMES
290
     1
  9
$PSVPSCALE
 40
0.0
  9
$OLESTARTUP
290
     0
  0
ENDSEC
  0
SECTION
  2
CLASSES
  0
CLASS
  1
ACDBDICTIONARYWDFLT
  2
AcDbDictionaryWithDefault
  3
ObjectDBX Classes
 90
        0
280
     0
281
     0
  0
CLASS
  1
VISUALSTYLE
  2
AcDbVisualStyle
  3
ObjectDBX Classes
 90
     4095
280
     0
281
     0
  0
CLASS
  1
MATERIAL
  2
AcDbMaterial
  3
ObjectDBX Classes
 90
     1153
280
     0
281
     0
  0
CLASS
  1
SCALE
  2
AcDbScale
  3
ObjectDBX Classes
 90
     1153
280
     0
281
     0
  0
CLASS
  1
TABLESTYLE
  2
AcDbTableStyle
  3
ObjectDBX Classes
 90
     4095
280
     0
281
     0
  0
CLASS
  1
MLEADERSTYLE
  2
AcDbMLeaderStyle
  3
ACDB_MLEADERSTYLE_CLASS
 90
     4095
280
     0
281
     0
  0
CLASS
  1
SUN
  2
AcDbSun
  3
SCENEOE
 90
     1153
280
     0
281
     0
  0
CLASS
  1
ACDBPLACEHOLDER
  2
AcDbPlaceHolder
  3
ObjectDBX Classes
 90
        0
280
     0
281
     0
  0
CLASS
  1
LAYOUT
  2
AcDbLayout
  3
ObjectDBX Classes
 90
        0
280
     0
281
     0
  0
ENDSEC
  0
SECTION
  2
TABLES
  0
TABLE
  2
VPORT
  5
8
330
0
100
AcDbSymbolTable
 70
     1
  0
VPORT
  5
29
330
8
100
AcDbSymbolTableRecord
100
AcDbViewportTableRecord
  2
*Active
 70
     0
 10
0.0
 20
0.0
 11
1.0
 21
1.0
 12
1.4933380735
 22
3.425717608
 13
0.0
 23
0.0
 14
0.5
 24
0.5
 15
0.5
 25
0.5
 16
0.0
 26
0.0
 36
1.0
 17
0.0
 27
0.0
 37
0.0
 40
9.8690314693
 41
0.3087750455
 42
50.0
 43
0.0
 44
0.0
 50
0.0
 51
0.0
 71
     0
 72
   100
 73
     1
 74
     3
 75
     0
 76
     0
 77
     0
 78
     0
281
     0
 65
     1
110
0.0
120
0.0
130
0.0
111
1.0
121
0.0
131
0.0
112
0.0
122
1.0
132
0.0
 79
     0
146
0.0
  0
ENDTAB
  0
TABLE
  2
LTYPE
  5
5
330
0
100
AcDbSymbolTable
 70
     6
  0
LTYPE
  5
14
330
5
100
AcDbSymbolTableRecord
100
AcDbLinetypeTableRecord
  2
ByBlock
 70
     0
  3

 72
    65
 73
     0
 40
0.0
  0
LTYPE
  5
15
330
5
100
AcDbSymbolTableRecord
100
AcDbLinetypeTableRecord
  2
ByLayer
 70
     0
  3

 72
    65
 73
     0
 40
0.0
  0
LTYPE
  5
16
330
5
100
AcDbSymbolTableRecord
100
AcDbLinetypeTableRecord
  2
Continuous
 70
     0
  3
Solid line
 72
    65
 73
     0
 40
0.0
  0
LTYPE
  5
5E
330
5
100
AcDbSymbolTableRecord
100
AcDbLinetypeTableRecord
  2
HIDDEN
 70
     0
  3
Hidden __ __ __ __ __ __ __ __ __ __ __ __ __ __
 72
    65
 73
     2
 40
0.075
 49
0.05
 74
     0
 49
-0.025
 74
     0
  0
LTYPE
  5
5F
330
5
100
AcDbSymbolTableRecord
100
AcDbLinetypeTableRecord
  2
PHANTOM
 70
     0
  3
Phantom ______  __  __  ______  __  __  ______
 72
    65
 73
     6
 40
0.5
 49
0.25
 74
     0
 49
-0.05
 74
     0
 49
0.05
 74
     0
 49
-0.05
 74
     0
 49
0.05
 74
     0
 49
-0.05
 74
     0
  0
LTYPE
  5
60
330
5
100
AcDbSymbolTableRecord
100
AcDbLinetypeTableRecord
  2
CENTER
 70
     0
  3
Center ____ _ ____ _ ____ _ ____ _ ____ _ ____
 72
    65
 73
     4
 40
0.4
 49
0.25
 74
     0
 49
-0.05
 74
     0
 49
0.05
 74
     0
 49
-0.05
 74
     0
  0
LTYPE
  5
61
330
5
100
AcDbSymbolTableRecord
100
AcDbLinetypeTableRecord
  2
CENTERX2
 70
     0
  3
Center (2x) ________  __  ________  __  _____
 72
    65
 73
     4
 40
0.8
 49
0.5
 74
     0
 49
-0.1
 74
     0
 49
0.1
 74
     0
 49
-0.1
 74
     0
  0
LTYPE
  5
62
330
5
100
AcDbSymbolTableRecord
100
AcDbLinetypeTableRecord
  2
DOT2
 70
     0
  3
Dot (.5x) ........................................
 72
    65
 73
     2
 40
0.025
 49
0.0
 74
     0
 49
-0.025
 74
     0
  0
ENDTAB
  0
TABLE
  2
LAYER
  5
2
330
0
100
AcDbSymbolTable
 70
     1
  0
LAYER
  5
10
330
2
100
AcDbSymbolTableRecord
100
AcDbLayerTableRecord
  2
0
 70
     0
 62
     7
  6
Continuous
370
    -3
390
F
  0
ENDTAB
  0
TABLE
  2
STYLE
  5
3
330
0
100
AcDbSymbolTable
 70
     2
  0
STYLE
  5
11
330
3
100
AcDbSymbolTableRecord
100
AcDbTextStyleTableRecord
  2
Standard
 70
     0
 40
0.0
 41
1.0
 50
0.0
 71
     0
 42
0.1377952756
  3
txt
  4

  0
STYLE
  5
6E
330
3
100
AcDbSymbolTableRecord
100
AcDbTextStyleTableRecord
  2
SLDTEXTSTYLE0
 70
     0
 40
0.0
 41
0.7
 50
0.0
 71
     0
 42
0.1377952756
  3
TXT
  4

  0
ENDTAB
  0
TABLE
  2
VIEW
  5
6
330
0
100
AcDbSymbolTable
 70
     0
  0
ENDTAB
  0
TABLE
  2
UCS
  5
7
330
0
100
AcDbSymbolTable
 70
     0
  0
ENDTAB
  0
TABLE
  2
APPID
  5
9
330
0
100
AcDbSymbolTable
 70
     1
  0
APPID
  5
12
330
9
100
AcDbSymbolTableRecord
100
AcDbRegAppTableRecord
  2
ACAD
 70
     0
  0
ENDTAB
  0
TABLE
  2
DIMSTYLE
  5
A
330
0
100
AcDbSymbolTable
 70
     1
100
AcDbDimStyleTable
  0
DIMSTYLE
105
27
330
A
100
AcDbSymbolTableRecord
100
AcDbDimStyleTableRecord
  2
Standard
 70
     0
178
     0
340
11
  0
ENDTAB
  0
TABLE
  2
BLOCK_RECORD
  5
1
330
0
100
AcDbSymbolTable
 70
     1
  0
BLOCK_RECORD
  5
1F
330
1
100
AcDbSymbolTableRecord
100
AcDbBlockTableRecord
  2
*Model_Space
340
22
  0
BLOCK_RECORD
  5
1B
330
1
100
AcDbSymbolTableRecord
100
AcDbBlockTableRecord
  2
*Paper_Space
340
1E
  0
BLOCK_RECORD
  5
23
330
1
100
AcDbSymbolTableRecord
100
AcDbBlockTableRecord
  2
*Paper_Space0
340
26
  0
ENDTAB
  0
ENDSEC
  0
SECTION
  2
BLOCKS
  0
BLOCK
  5
20
330
1F
100
AcDbEntity
  8
0
100
AcDbBlockBegin
  2
*Model_Space
 70
     0
 10
0.0
 20
0.0
 30
0.0
  3
*Model_Space
  1

  0
ENDBLK
  5
21
330
1F
100
AcDbEntity
  8
0
100
AcDbBlockEnd
  0
BLOCK
  5
1C
330
1B
100
AcDbEntity
 67
     1
  8
0
100
AcDbBlockBegin
  2
*Paper_Space
 70
     0
 10
0.0
 20
0.0
 30
0.0
  3
*Paper_Space
  1

  0
ENDBLK
  5
1D
330
1B
100
AcDbEntity
 67
     1
  8
0
100
AcDbBlockEnd
  0
BLOCK
  5
24
330
23
100
AcDbEntity
  8
0
100
AcDbBlockBegin
  2
*Paper_Space0
 70
     0
 10
0.0
 20
0.0
 30
0.0
  3
*Paper_Space0
  1

  0
ENDBLK
  5
25
330
23
100
AcDbEntity
  8
0
100
AcDbBlockEnd
  0
ENDSEC
  0
SECTION
  2
ENTITIES
  0
SPLINE
  5
63
330
1F
100
AcDbEntity
  8
0
  6
Continuous
 62
     7
370
    25
100
AcDbSpline
210
0.0
220
0.0
230
1.0
 70
     8
 71
     3
 72
    42
 73
    38
 74
     0
 42
0.00000001
 43
0.00000001
 40
0.0
 40
0.0
 40
0.0
 40
0.0
 40
0.0084907246393996
 40
0.017870834265809
 40
0.0281426301044718
 40
0.0393078620476624
 40
0.0513678910851764
 40
0.0643237962203843
 40
0.0781764471149128
 40
0.0929265548157147
 40
0.1085747080297895
 40
0.1251213996109922
 40
0.156404898505369
 40
0.1845577114873617
 40
0.2095824219848026
 40
0.2314827204558196
 40
0.2502641392444956
 40
0.3040265082085231
 40
0.3520995608684108
 40
0.3949479334805518
 40
0.4332269910320352
 40
0.4678525311231744
 40
0.5000535928172983
 40
0.5389312630184655
 40
0.5816725580035489
 40
0.6302322668969175
 40
0.6859561785748594
 40
0.7497381925885998
 40
0.7827805709700615
 40
0.8244884671261902
 40
0.8748794153436592
 40
0.9019947413533049
 40
0.9266003238513186
 40
0.9486989029490452
 40
0.968294270483875
 40
0.9853918838297889
 40
0.9999999999999999
 40
0.9999999999999999
 40
0.9999999999999999
 40
0.9999999999999999
 10
0.416619823387843
 20
-1.412042916216945
 30
0.0
 10
0.4201489619978451
 20
-1.40816810973096
 30
0.0
 10
0.4275769088314701
 20
-1.400012619185219
 30
0.0
 10
0.4389779444109708
 20
-1.386904673712541
 30
0.0
 10
0.4512826711249558
 20
-1.372398116557535
 30
0.0
 10
0.4644625582880957
 20
-1.356466464459088
 30
0.0
 10
0.4785261353721025
 20
-1.339117374514424
 30
0.0
 10
0.4934705091336212
 20
-1.320348100735752
 30
0.0
 10
0.5092969881993615
 20
-1.300159664497068
 30
0.0
 10
0.5260026846258075
 20
-1.278549792420411
 30
0.0
 10
0.5435981177768486
 20
-1.255526348260202
 30
0.0
 10
0.5671814639996693
 20
-1.224236053690333
 30
0.0
 10
0.59544732025742
 20
-1.186809356380957
 30
0.0
 10
0.6272750102911346
 20
-1.145517070632314
 30
0.0
 10
0.6559392914458533
 20
-1.109102531878458
 30
0.0
 10
0.6814481555450628
 20
-1.077568394063991
 30
0.0
 10
0.7189411219023368
 20
-1.03292723292295
 30
0.0
 10
0.7694633105710939
 20
-0.9781304483941211
 30
0.0
 10
0.835483375690275
 20
-0.9177908318567243
 30
0.0
 10
0.8999919316484021
 20
-0.8705694844060761
 30
0.0
 10
0.9631060644346081
 20
-0.8364914348942747
 30
0.0
 10
1.024970539779221
 20
-0.8157193631014692
 30
0.0
 10
1.090310616468079
 20
-0.8080271654261227
 30
0.0
 10
1.160706160591282
 20
-0.8181072998469613
 30
0.0
 10
1.235776587338839
 20
-0.8483897239522359
 30
0.0
 10
1.312476778116894
 20
-0.897643031189672
 30
0.0
 10
1.391123472609224
 20
-0.9656798122801725
 30
0.0
 10
1.455463702420237
 20
-1.034636936275966
 30
0.0
 10
1.509860032445608
 20
-1.1006217834767
 30
0.0
 10
1.557587677385621
 20
-1.161365167935383
 30
0.0
 10
1.602009581882202
 20
-1.220030768942003
 30
0.0
 10
1.639984391780483
 20
-1.270336054248295
 30
0.0
 10
1.667862678188734
 20
-1.306378961721269
 30
0.0
 10
1.693245632881115
 20
-1.338481563917219
 30
0.0
 10
1.716187559681122
 20
-1.366599306972406
 30
0.0
 10
1.73658839514949
 20
-1.390824321969806
 30
0.0
 10
1.749705198667108
 20
-1.405350233503859
 30
0.0
 10
1.755748642312515
 20
-1.412042910392423
 30
0.0
  0
SPLINE
  5
64
330
1F
100
AcDbEntity
  8
0
  6
Continuous
 62
     7
370
    25
100
AcDbSpline
210
0.0
220
0.0
230
1.0
 70
     8
 71
     3
 72
    32
 73
    28
 74
     0
 42
0.00000001
 43
0.00000001
 40
0.0
 40
0.0
 40
0.0
 40
0.0
 40
0.0274667961743557
 40
0.0619580570587359
 40
0.1034746641418519
 40
0.1520171161913909
 40
0.2075857227895274
 40
0.27018068926866
 40
0.3398021587933527
 40
0.4164502351555171
 40
0.5001249959992229
 40
0.5620026606303391
 40
0.6179442086382793
 40
0.6679531560148526
 40
0.7120344383551536
 40
0.7501952913157749
 40
0.7792109450755441
 40
0.8069095023353252
 40
0.833304019685927
 40
0.8584095883670075
 40
0.8822437481416076
 40
0.9048270013672436
 40
0.9261834533449638
 40
0.9463416109153246
 40
0.9653353770747205
 40
0.9832052833401544
 40
1.0
 40
1.0
 40
1.0
 40
1.0
 10
-0.0004416526737793
 20
-0.2545568740394705
 30
0.0
 10
0.0030433443857457
 20
-0.2653221211572594
 30
0.0
 10
0.0109046051346481
 20
-0.2896057613365277
 30
0.0
 10
0.0236831521701235
 20
-0.330273295230144
 30
0.0
 10
0.0389144547157598
 20
-0.3792702866592855
 30
0.0
 10
0.0565475361731384
 20
-0.4366134254360668
 30
0.0
 10
0.0765977817820071
 20
-0.5022977629277635
 30
0.0
 10
0.0990602122006664
 20
-0.5763249770012465
 30
0.0
 10
0.1239301401489514
 20
-0.658696438519388
 30
0.0
 10
0.1512329835008166
 20
-0.7494046044541528
 30
0.0
 10
0.177454761008869
 20
-0.8371063263928645
 30
0.0
 10
0.2014234627187464
 20
-0.9165785826883261
 30
0.0
 10
0.221914380875314
 20
-0.9826117666387543
 30
0.0
 10
0.2407268165135941
 20
-1.041487452929319
 30
0.0
 10
0.2578852917176739
 20
-1.093198512388254
 30
0.0
 10
0.2729197395045377
 20
-1.136498964787891
 30
0.0
 10
0.2864648077349967
 20
-1.17316434945404
 30
0.0
 10
0.2990027769239485
 20
-1.205026477918933
 30
0.0
 10
0.3116338121798523
 20
-1.235112350581248
 30
0.0
 10
0.3243618808640738
 20
-1.263420938874227
 30
0.0
 10
0.3371863474300394
 20
-1.289952857935596
 30
0.0
 10
0.3501069281260777
 20
-1.31470921838009
 30
0.0
 10
0.3631264995516786
 20
-1.337688348803125
 30
0.0
 10
0.3762367703780735
 20
-1.358898867145396
 30
0.0
 10
0.3894688123490964
 20
-1.378314466447292
 30
0.0
 10
0.4027205947378119
 20
-1.396028288030393
 30
0.0
 10
0.4120835441946449
 20
-1.4068162365033
 30
0.0
 10
0.4166198140270595
 20
-1.412042906308248
 30
0.0
  0
SPLINE
  5
66
330
1F
100
AcDbEntity
  8
0
  6
Continuous
 62
     7
370
    25
100
AcDbSpline
210
0.0
220
0.0
230
1.0
 70
     8
 71
     3
 72
    25
 73
    21
 74
     0
 42
0.00000001
 43
0.00000001
 40
0.0
 40
0.0
 40
0.0
 40
0.0
 40
0.0277724737059178
 40
0.0580286493596462
 40
0.0907872861841343
 40
0.1260631513042602
 40
0.163868062166656
 40
0.2042116138523954
 40
0.2471016976934377
 40
0.2925448784043946
 40
0.3405466732284604
 40
0.3911117618914932
 40
0.4442441468241754
 40
0.499947277056997
 40
0.6117043048712295
 40
0.7120941352278001
 40
0.8011174132535523
 40
0.8787750673525618
 40
0.9450685034390507
 40
1.0
 40
1.0
 40
1.0
 40
1.0
 10
0.2344182974375126
 20
8.263478132147283
 30
0.0
 10
0.2318421932032707
 20
8.260769414442132
 30
0.0
 10
0.2264596028403929
 20
8.255109737468777
 30
0.0
 10
0.2183589363580311
 20
8.245959004916573
 30
0.0
 10
0.2097920459300279
 20
8.235878168707732
 30
0.0
 10
0.200788100251243
 20
8.22483869550953
 30
0.0
 10
0.1913383720181673
 20
8.212848730808577
 30
0.0
 10
0.1814455302096898
 20
8.199905514988746
 30
0.0
 10
0.1711088166341575
 20
8.18600963890421
 30
0.0
 10
0.1603286230996466
 20
8.171160666229818
 30
0.0
 10
0.1491044364437846
 20
8.155358879930203
 30
0.0
 10
0.1374382758248368
 20
8.138602865218834
 30
0.0
 10
0.1253222596832299
 20
8.120897842646654
 30
0.0
 10
0.1087769049974063
 20
8.096246009299778
 30
0.0
 10
0.0887639591253364
 20
8.066261838045016
 30
0.0
 10
0.0661393459895244
 20
8.032629353547225
 30
0.0
 10
0.0460060509007286
 20
8.002852243840376
 30
0.0
 10
0.0283417590493198
 20
7.97694562970793
 30
0.0
 10
0.0131766765635318
 20
7.954888262531115
 30
0.0
 10
0.003805000196213
 20
7.941532753531528
 30
0.0
 10
-0.0004416526737779
 20
7.935480878882816
 30
0.0
  0
SPLINE
  5
67
330
1F
100
AcDbEntity
  8
0
  6
Continuous
 62
     7
370
    25
100
AcDbSpline
210
0.0
220
0.0
230
1.0
 70
     8
 71
     3
 72
    94
 73
    90
 74
     0
 42
0.00000001
 43
0.00000001
 40
0.0
 40
0.0
 40
0.0
 40
0.0
 40
0.0033223772307218
 40
0.0067992465959221
 40
0.0104328094330535
 40
0.0142249942109044
 40
0.0181774972250222
 40
0.0222918164825817
 40
0.0265692799855126
 40
0.0310110694080258
 40
0.0356182399842322
 40
0.0403917372715305
 40
0.045332411332292
 40
0.0504410287760629
 40
0.0557182830231287
 40
0.0611648030844903
 40
0.0667811611000313
 40
0.0725678788335919
 40
0.0785254332887648
 40
0.0846542615808658
 40
0.0909547651774865
 40
0.0974273136011968
 40
0.1040722476725615
 40
0.1108898823589873
 40
0.1178805092844925
 40
0.1250443989468829
 40
0.1375513966662905
 40
0.1500581842732562
 40
0.1625648142935744
 40
0.1750713392550242
 40
0.1875778116867084
 40
0.200084284118393
 40
0.2125908090798426
 40
0.2250974391001609
 40
0.2376042267071264
 40
0.250111224426534
 40
0.2800546066531333
 40
0.3075234187171417
 40
0.3325254840906919
 40
0.3550711943118097
 40
0.3751747503530138
 40
0.3972877400481942
 40
0.4169089090263783
 40
0.4341150312253242
 40
0.449020245763298
 40
0.4618004887173387
 40
0.4727347563996733
 40
0.4822655601316211
 40
0.4910501284219935
 40
0.4999132808274785
 40
0.5090638057414744
 40
0.5196437107756914
 40
0.5319710307082438
 40
0.5462474933219672
 40
0.5626028623076447
 40
0.5811232550251153
 40
0.6018678432354441
 40
0.624878646686822
 40
0.6422023940616791
 40
0.6597017292809259
 40
0.6773804274289791
 40
0.6952421498652701
 40
0.7132904465621587
 40
0.7315287585458226
 40
0.7499604204202899
 40
0.7638574163338828
 40
0.7777540002691851
 40
0.7916502899268014
 40
0.8055464030148153
 40
0.8194424572457963
 40
0.8333385703338103
 40
0.8472348599914269
 40
0.8611314439267291
 40
0.8750284398403219
 40
0.8936050622937269
 40
0.9102152306411759
 40
0.92486451672219
 40
0.9375610742176212
 40
0.9445470096607405
 40
0.9512476058812942
 40
0.9576686724900713
 40
0.9638168115634639
 40
0.9696995441534425
 40
0.975325455846012
 40
0.9807043621482235
 40
0.985847492968194
 40
0.9907676928871684
 40
0.9954796299455341
 40
1.0
 40
1.0
 40
1.0
 40
1.0
 10
1.878016907843804
 20
8.19913725297084
 30
0.0
 10
1.875511089563866
 20
8.19537591232451
 30
0.0
 10
1.870382931252303
 20
8.187678326888046
 30
0.0
 10
1.862920998167379
 20
8.175604137862235
 30
0.0
 10
1.855401248652916
 20
8.162820458043129
 30
0.0
 10
1.847856634820739
 20
8.149304841167824
 30
0.0
 10
1.840277684886471
 20
8.135063578121821
 30
0.0
 10
1.832667070491524
 20
8.120094761974016
 30
0.0
 10
1.825024010978602
 20
8.104398839382243
 30
0.0
 10
1.817348717391663
 20
8.087975599886628
 30
0.0
 10
1.809641125165461
 20
8.070825031095533
 30
0.0
 10
1.801901252341524
 20
8.052947074180572
 30
0.0
 10
1.794129096644249
 20
8.034341691843673
 30
0.0
 10
1.7863246636429
 20
8.01500884788016
 30
0.0
 10
1.778487958055302
 20
7.994948511931882
 30
0.0
 10
1.770618985755718
 20
7.974160657242938
 30
0.0
 10
1.762717752534055
 20
7.952645260626571
 30
0.0
 10
1.754784265334665
 20
7.930402301499481
 30
0.0
 10
1.746818527185101
 20
7.907431762919233
 30
0.0
 10
1.73882055614433
 20
7.883733625726575
 30
0.0
 10
1.730790311143001
 20
7.859307889669033
 30
0.0
 10
1.72272798010309
 20
7.834154489854268
 30
0.0
 10
1.714632860315178
 20
7.808273620160483
 30
0.0
 10
1.706507704174792
 20
7.781664476893394
 30
0.0
 10
1.698341866757233
 20
7.754330129901511
 30
0.0
 10
1.688212553765054
 20
7.719506429681409
 30
0.0
 10
1.676064298528186
 20
7.677455787520272
 30
0.0
 10
1.661741110754829
 20
7.628468873580221
 30
0.0
 10
1.647333119410389
 20
7.579507577390975
 30
0.0
 10
1.632820828125056
 20
7.530577513743723
 30
0.0
 10
1.618209413886052
 20
7.481677192547263
 30
0.0
 10
1.603497664804632
 20
7.432806959481228
 30
0.0
 10
1.588685251503588
 20
7.383966921919398
 30
0.0
 10
1.573774703405987
 20
7.335156304696047
 30
0.0
 10
1.558756232043172
 20
7.286378101164185
 30
0.0
 10
1.53665420987419
 20
7.214963620899485
 30
0.0
 10
1.507878131367925
 20
7.12430914978584
 30
0.0
 10
1.472269685498689
 20
7.018003468520312
 30
0.0
 10
1.438113289715299
 20
6.921840049090354
 30
0.0
 10
1.405392381692864
 20
6.835819676910755
 30
0.0
 10
1.371819673478416
 20
6.754359875280264
 30
0.0
 10
1.336750284425102
 20
6.677866963619201
 30
0.0
 10
1.299426925010884
 20
6.606854628003424
 30
0.0
 10
1.262418904467663
 20
6.546917180469285
 30
0.0
 10
1.22568795582298
 20
6.497997260425643
 30
0.0
 10
1.189133326225748
 20
6.460024930826901
 30
0.0
 10
1.152537400949253
 20
6.432974638358448
 30
0.0
 10
1.1155546658038
 20
6.417079027619505
 30
0.0
 10
1.078164891384682
 20
6.413065894580133
 30
0.0
 10
1.042017741664811
 20
6.42121756646903
 30
0.0
 10
1.007550616140056
 20
6.439958735011951
 30
0.0
 10
0.9738942546952574
 20
6.468000364527213
 30
0.0
 10
0.9400272024870284
 20
6.505739950192796
 30
0.0
 10
0.9058051051211645
 20
6.553206717496035
 30
0.0
 10
0.8711682446763568
 20
6.610460025286243
 30
0.0
 10
0.8360995186306821
 20
6.677542620766109
 30
0.0
 10
0.8005615524293119
 20
6.754470687232652
 30
0.0
 10
0.7688332416115226
 20
6.831276470275028
 30
0.0
 10
0.7404850974471436
 20
6.904663178169447
 30
0.0
 10
0.7156578800074299
 20
6.971628054771422
 30
0.0
 10
0.6915858874462274
 20
7.039644875636151
 30
0.0
 10
0.6682372243783121
 20
7.108702030984196
 30
0.0
 10
0.6456320038619887
 20
7.178805976605671
 30
0.0
 10
0.6237213027469078
 20
7.249942457128889
 30
0.0
 10
0.6044830828412353
 20
7.31598366769555
 30
0.0
 10
0.5872025797251886
 20
7.376441152273899
 30
0.0
 10
0.5713529263514788
 20
7.430890887101275
 30
0.0
 10
0.5553736315192113
 20
7.485301261930658
 30
0.0
 10
0.5392285682276321
 20
7.539662003755358
 30
0.0
 10
0.5229277328141222
 20
7.593975963166584
 30
0.0
 10
0.5064672659897728
 20
7.648242010462697
 30
0.0
 10
0.4898526088063857
 20
7.702461813851072
 30
0.0
 10
0.4730658558894831
 20
7.756629829986009
 30
0.0
 10
0.4542772841874969
 20
7.816842465688015
 30
0.0
 10
0.4339048931216788
 20
7.880427679351308
 30
0.0
 10
0.4121332064826848
 20
7.944631350461886
 30
0.0
 10
0.391794311987313
 20
8.000862087419613
 30
0.0
 10
0.3747930346766937
 20
8.044367469188236
 30
0.0
 10
0.3606699694812383
 20
8.07736434461459
 30
0.0
 10
0.3491835264176464
 20
8.102191806173156
 30
0.0
 10
0.3374563076446682
 20
8.125639129905483
 30
0.0
 10
0.3254819690061683
 20
8.147704084652291
 30
0.0
 10
0.3132615125249868
 20
8.16838739697674
 30
0.0
 10
0.3007946089889307
 20
8.187689803369246
 30
0.0
 10
0.2880788235969774
 20
8.205609302198752
 30
0.0
 10
0.2751200016570358
 20
8.222153841318729
 30
0.0
 10
0.2618939818039407
 20
8.237295973670173
 30
0.0
 10
0.248480901184607
 20
8.251131247300705
 30
0.0
 10
0.2390405436001617
 20
8.25941982541324
 30
0.0
 10
0.2344183067955754
 20
8.263478121983763
 30
0.0
  0
SPLINE
  5
68
330
1F
100
AcDbEntity
  8
0
  6
Continuous
 62
     7
370
    25
100
AcDbSpline
210
0.0
220
0.0
230
1.0
 70
     8
 71
     3
 72
    42
 73
    38
 74
     0
 42
0.00000001
 43
0.00000001
 40
0.0
 40
0.0
 40
0.0
 40
0.0
 40
0.0123956307005456
 40
0.0247965218296707
 40
0.0372172639996471
 40
0.049672378059109
 40
0.0621762651083406
 40
0.0747431585737215
 40
0.0873870791019855
 40
0.1001217929269775
 40
0.1129607742342456
 40
0.1259171719101764
 40
0.139003780920531
 40
0.1522330184256743
 40
0.1656169046127887
 40
0.1791670481137375
 40
0.1928946357841028
 40
0.2068104265458001
 40
0.2209247489427013
 40
0.2352475020247232
 40
0.2497881591590483
 40
0.3037393590494519
 40
0.3632717435204304
 40
0.4285985071922808
 40
0.4998808733337505
 40
0.5315840471561846
 40
0.5838345066226578
 40
0.6566359497187265
 40
0.7499896322259162
 40
0.7884609242319792
 40
0.8248427979106862
 40
0.8591454410787887
 40
0.8913810129901069
 40
0.9215641711543604
 40
0.9497127794551967
 40
0.9758488739217847
 40
0.9999999999999999
 40
0.9999999999999999
 40
0.9999999999999999
 40
0.9999999999999999
 10
2.568579883801224
 20
7.637584946405418
 30
0.0
 10
2.564809797691911
 20
7.637690073073662
 30
0.0
 10
2.557268025533016
 20
7.637900371023558
 30
0.0
 10
2.545970737417371
 20
7.638708576013435
 30
0.0
 10
2.534688540276852
 20
7.639877464998104
 30
0.0
 10
2.523422114404629
 20
7.64144243913431
 30
0.0
 10
2.512171331009101
 20
7.643393961514945
 30
0.0
 10
2.500936274479422
 20
7.645734569914285
 30
0.0
 10
2.48971696651136
 20
7.648463544563924
 30
0.0
 10
2.478513439711701
 20
7.65158103982998
 30
0.0
 10
2.467325717273735
 20
7.655086970412559
 30
0.0
 10
2.456153818212774
 20
7.658981313547051
 30
0.0
 10
2.444997756081849
 20
7.663264028507126
 30
0.0
 10
2.433857539053662
 20
7.667935078861056
 30
0.0
 10
2.422733172100053
 20
7.672994429805262
 30
0.0
 10
2.411624650015019
 20
7.678442040499209
 30
0.0
 10
2.400531986174316
 20
7.684277901815742
 30
0.0
 10
2.389455105452151
 20
7.690501893327781
 30
0.0
 10
2.37839425477752
 20
7.697114330274953
 30
0.0
 10
2.367348440307997
 20
7.704113879014353
 30
0.0
 10
2.346418366051477
 20
7.718143693210061
 30
0.0
 10
2.315253469700205
 20
7.741572608455158
 30
0.0
 10
2.273936434804123
 20
7.777006630828039
 30
0.0
 10
2.230836716652354
 20
7.818306180020059
 30
0.0
 10
2.195280434728501
 20
7.855185241907868
 30
0.0
 10
2.163904860965446
 20
7.89048886244064
 30
0.0
 10
2.132661376042328
 20
7.9265196249901
 30
0.0
 10
2.089292515282196
 20
7.976861856034041
 30
0.0
 10
2.048939745816166
 20
8.024266886761682
 30
0.0
 10
2.015527341171738
 20
8.063029709861578
 30
0.0
 10
1.993383751790673
 20
8.087780993316528
 30
0.0
 10
1.972113664682579
 20
8.110761917692722
 30
0.0
 10
1.951693460251935
 20
8.131952135149469
 30
0.0
 10
1.932133945078733
 20
8.151363737930222
 30
0.0
 10
1.913414982948585
 20
8.168972942616504
 30
0.0
 10
1.895598965266251
 20
8.18485928075039
 30
0.0
 10
1.883721318965338
 20
8.194504849482643
 30
0.0
 10
1.878016916729183
 20
8.199137265910213
 30
0.0
  0
SPLINE
  5
69
330
1F
100
AcDbEntity
  8
0
  6
Continuous
 62
     7
370
    25
100
AcDbSpline
210
0.0
220
0.0
230
1.0
 70
     8
 71
     3
 72
    30
 73
    26
 74
     0
 42
0.00000001
 43
0.00000001
 40
0.0
 40
0.0
 40
0.0
 40
0.0
 40
0.0557268783780261
 40
0.1093607628719877
 40
0.1609130269388311
 40
0.2103964793979872
 40
0.2578256052226423
 40
0.3032168561203431
 40
0.3465890028504595
 40
0.3879635643376003
 40
0.4273653325324597
 40
0.4648230167623121
 40
0.5003700370481098
 40
0.5471080012291843
 40
0.5924761657763913
 40
0.6365862671629287
 40
0.6795598563269237
 40
0.7215283602113599
 40
0.7626328478291065
 40
0.8030234422502535
 40
0.8428583385652557
 40
0.8823024185078449
 40
0.9215254927367317
 40
0.9607002459940174
 40
1.0
 40
1.0
 40
1.0
 40
1.0
 10
2.987117799668168
 20
7.935348441720367
 30
0.0
 10
2.98123290808904
 20
7.92735072674993
 30
0.0
 10
2.969684150088516
 20
7.91165567553126
 30
0.0
 10
2.952291846667731
 20
7.888860142317246
 30
0.0
 10
2.935264969918409
 20
7.867189177417861
 30
0.0
 10
2.918577713405957
 20
7.846661487494091
 30
0.0
 10
2.902236545236737
 20
7.827272211060633
 30
0.0
 10
2.886239785259343
 20
7.80902239431613
 30
0.0
 10
2.870587742059753
 20
7.791911615846488
 30
0.0
 10
2.855280311547961
 20
7.77593963699472
 30
0.0
 10
2.84031701714504
 20
7.761106686816207
 30
0.0
 10
2.825698887420996
 20
7.747410957722837
 30
0.0
 10
2.809673157550687
 20
7.73332055170898
 30
0.0
 10
2.791994878300367
 20
7.718995117861328
 30
0.0
 10
2.772420156440722
 20
7.704629196781732
 30
0.0
 10
2.752696032228548
 20
7.691650697413345
 30
0.0
 10
2.732823767746602
 20
7.680058708659505
 30
0.0
 10
2.712802762127675
 20
7.669854423822192
 30
0.0
 10
2.692633122144834
 20
7.661038858597348
 30
0.0
 10
2.672315050255774
 20
7.653612348906853
 30
0.0
 10
2.651849085590392
 20
7.647578336581011
 30
0.0
 10
2.631235897805332
 20
7.642928564931883
 30
0.0
 10
2.61047686348709
 20
7.639697339592946
 30
0.0
 10
2.589571765161586
 20
7.637759934738535
 30
0.0
 10
2.575584604227353
 20
7.637643337758266
 30
0.0
 10
2.568579883801224
 20
7.637584946405422
 30
0.0
  0
SPLINE
  5
6B
330
1F
100
AcDbEntity
  8
0
  6
Continuous
 62
     7
370
    25
100
AcDbSpline
210
0.0
220
0.0
230
1.0
 70
     8
 71
     3
 72
    66
 73
    62
 74
     0
 42
0.00000001
 43
0.00000001
 40
0.0
 40
0.0
 40
0.0
 40
0.0
 40
0.0035745629879771
 40
0.0072995036286007
 40
0.0111790862680665
 40
0.0152170853512545
 40
0.0194168482248385
 40
0.0237813500580318
 40
0.0283132415801983
 40
0.0330148904127395
 40
0.0378884167725229
 40
0.0429357242798559
 40
0.048158526537915
 40
0.0535583700763053
 40
0.0591366541772208
 40
0.0648946480328162
 40
0.0708335056191478
 40
0.0769542786160423
 40
0.083257927653497
 40
0.0897453321232688
 40
0.0964172987584174
 40
0.1032745691530993
 40
0.1103178263690569
 40
0.1175477007534157
 40
0.1249647750739409
 40
0.1474487453808326
 40
0.1757862761669994
 40
0.209980737326988
 40
0.2500340204590391
 40
0.2881166285140505
 40
0.323624513161358
 40
0.3565582438942816
 40
0.3869185350631465
 40
0.4147062994880722
 40
0.4399227293626476
 40
0.4625694229736576
 40
0.4826485922644891
 40
0.5001634219615241
 40
0.525256539321621
 40
0.5486280566497009
 40
0.5702917103368974
 40
0.590264760815822
 40
0.6085692516659229
 40
0.6252338491894764
 40
0.6474831870429407
 40
0.6667559057388096
 40
0.6833450405200411
 40
0.6977088198102177
 40
0.7105460303347525
 40
0.7228190433492009
 40
0.7356181362350932
 40
0.749913721735444
 40
0.7677758038196087
 40
0.7889427227339195
 40
0.8137367577652382
 40
0.8423579234789056
 40
0.874935819625677
 40
0.90056083888139
 40
0.9299361184523648
 40
0.963078589241995
 40
1.0
 40
1.0
 40
1.0
 40
1.0
 10
1.755748647875101
 20
-1.412042916205507
 30
0.0
 10
1.758046312217319
 20
-1.409527784944014
 30
0.0
 10
1.762738300933068
 20
-1.40439171381268
 30
0.0
 10
1.769559197544383
 20
-1.396204716083004
 30
0.0
 10
1.776406421487841
 20
-1.387473907041093
 30
0.0
 10
1.783251214706953
 20
-1.378172312639979
 30
0.0
 10
1.790101892005834
 20
-1.368307523136934
 30
0.0
 10
1.796956190606477
 20
-1.357877293754423
 30
0.0
 10
1.803814831903012
 20
-1.346882179247277
 30
0.0
 10
1.810677671724414
 20
-1.335321944877664
 30
0.0
 10
1.817544796878613
 20
-1.323196586032111
 30
0.0
 10
1.824416217309357
 20
-1.310506039378835
 30
0.0
 10
1.831291955724111
 20
-1.297250264537946
 30
0.0
 10
1.838172024214213
 20
-1.283429220657514
 30
0.0
 10
1.845056432415348
 20
-1.269042872588102
 30
0.0
 10
1.851945186451795
 20
-1.254091188658161
 30
0.0
 10
1.85883829015202
 20
-1.238574140786107
 30
0.0
 10
1.865735745671258
 20
-1.222491704044346
 30
0.0
 10
1.872637553118696
 20
-1.205843856041661
 30
0.0
 10
1.879543714223566
 20
-1.188630577820406
 30
0.0
 10
1.88645421960945
 20
-1.170851848807164
 30
0.0
 10
1.89336909957962
 20
-1.152507665114362
 30
0.0
 10
1.9002882276285
 20
-1.133597967165876
 30
0.0
 10
1.90721208442028
 20
-1.114122919747498
 30
0.0
 10
1.918770497932957
 20
-1.080680881712162
 30
0.0
 10
1.936060093275529
 20
-1.027942817794178
 30
0.0
 10
1.960348896654666
 20
-0.9506557276964551
 30
0.0
 10
1.9888895621589
 20
-0.8571584363723678
 30
0.0
 10
2.019423861481378
 20
-0.7545641550314277
 30
0.0
 10
2.050259586224966
 20
-0.6507539325859827
 30
0.0
 10
2.079618145326435
 20
-0.553583087608683
 30
0.0
 10
2.107210287938142
 20
-0.4635667116361219
 30
0.0
 10
2.133065289679327
 20
-0.3807133236873324
 30
0.0
 10
2.157175918334138
 20
-0.3050206459603221
 30
0.0
 10
2.179540599458143
 20
-0.2364877521565973
 30
0.0
 10
2.200164507108914
 20
-0.1751161930536445
 30
0.0
 10
2.219023188900151
 20
-0.1208962525430356
 30
0.0
 10
2.23949188992115
 20
-0.0647745092797303
 30
0.0
 10
2.262184055370881
 20
-0.0061336971002307
 30
0.0
 10
2.287622435055663
 20
0.0556678893197196
 30
0.0
 10
2.312695232158405
 20
0.1123236219293981
 30
0.0
 10
2.337379736123149
 20
0.1638441540044783
 30
0.0
 10
2.361683075762781
 20
0.2102331178126129
 30
0.0
 10
2.389034130352497
 20
0.2574188916061948
 30
0.0
 10
2.419886137207717
 20
0.3035804248726028
 30
0.0
 10
2.455328259332544
 20
0.3462949521241339
 30
0.0
 10
2.490849258664807
 20
0.3786759059732683
 30
0.0
 10
2.526695853924219
 20
0.4006714968725055
 30
0.0
 10
2.563118430825347
 20
0.4118936014219432
 30
0.0
 10
2.599826749698255
 20
0.4116886090570904
 30
0.0
 10
2.636020506245468
 20
0.4000544934209022
 30
0.0
 10
2.672482887965107
 20
0.3769180889798235
 30
0.0
 10
2.709417460780883
 20
0.3416685633952424
 30
0.0
 10
2.747225822208009
 20
0.2938616892879611
 30
0.0
 10
2.785507191444025
 20
0.2338757331373025
 30
0.0
 10
2.824309040782298
 20
0.1616378693164625
 30
0.0
 10
2.859291356394688
 20
0.0866199994023186
 30
0.0
 10
2.891496313629126
 20
0.0096171097829707
 30
0.0
 10
2.921764826990393
 20
-0.0687402464752412
 30
0.0
 10
2.954173719748555
 20
-0.1577899179459596
 30
0.0
 10
2.975748555536164
 20
-0.2209744061151677
 30
0.0
 10
2.987117799668168
 20
-0.2542705979575163
 30
0.0
  0
LINE
  5
6C
330
1F
100
AcDbEntity
  8
0
  6
Continuous
 62
     7
370
    25
100
AcDbLine
 10
-0.0004416527
 20
7.9354808789
 30
0.0
 11
-0.0004416527
 21
-0.254556874
 31
0.0
  0
LINE
  5
6D
330
1F
100
AcDbEntity
  8
0
  6
Continuous
 62
     7
370
    25
100
AcDbLine
 10
2.9871177997
 20
-0.254270598
 30
0.0
 11
2.9871177997
 21
7.9353484417
 31
0.0
  0
MTEXT
  5
6F
330
1F
100
AcDbEntity
  8
0
  6
Continuous
 62
     7
100
AcDbMText
 10
-0.0004416527
 20
-1.4521833253
 30
0.0
 40
0.1903
 41
0.0
 71
     1
 72
     1
  1
SOLIDWORKS Educational Product.
  7
SLDTEXTSTYLE0
 73
     1
 44
1.0
  0
MTEXT
  5
70
330
1F
100
AcDbEntity
  8
0
  6
Continuous
 62
     7
100
AcDbMText
 10
-0.0004416527
 20
-1.7376333253
 30
0.0
 40
0.1903
 41
0.0
 71
     1
 72
     1
  1
For Instructional Use Only.
  7
SLDTEXTSTYLE0
 73
     1
 44
1.0
  0
ENDSEC
  0
SECTION
  2
OBJECTS
  0
DICTIONARY
  5
C
330
0
100
AcDbDictionary
281
     1
  3
ACAD_GROUP
350
D
  3
ACAD_LAYOUT
350
1A
  3
ACAD_MLINESTYLE
350
17
  3
ACAD_PLOTSETTINGS
350
19
  3
ACAD_PLOTSTYLENAME
350
E
  3
ACAD_SCALELIST
350
47
  3
DWGPROPS
350
71
  0
DICTIONARY
  5
D
102
{ACAD_REACTORS
330
C
102
}
330
C
100
AcDbDictionary
281
     1
  0
DICTIONARY
  5
1A
102
{ACAD_REACTORS
330
C
102
}
330
C
100
AcDbDictionary
281
     1
  3
Layout1
350
1E
  3
Layout2
350
26
  3
Model
350
22
  0
DICTIONARY
  5
17
102
{ACAD_REACTORS
330
C
102
}
330
C
100
AcDbDictionary
281
     1
  3
Standard
350
18
  0
DICTIONARY
  5
19
102
{ACAD_REACTORS
330
C
102
}
330
C
100
AcDbDictionary
281
     1
  0
ACDBDICTIONARYWDFLT
  5
E
102
{ACAD_REACTORS
330
C
102
}
330
C
100
AcDbDictionary
281
     1
  3
Normal
350
F
100
AcDbDictionaryWithDefault
340
F
  0
DICTIONARY
  5
47
102
{ACAD_REACTORS
330
C
102
}
330
C
100
AcDbDictionary
281
     1
  3
A0
350
48
  3
A1
350
49
  3
A2
350
4A
  3
A3
350
4B
  3
A4
350
4C
  3
A5
350
4D
  3
A6
350
4E
  3
A7
350
4F
  3
A8
350
50
  3
A9
350
51
  3
B1
350
52
  3
B2
350
53
  3
B3
350
54
  3
B4
350
55
  3
B5
350
56
  3
B6
350
57
  3
B7
350
58
  0
XRECORD
  5
71
102
{ACAD_REACTORS
330
C
102
}
330
C
100
AcDbXrecord
280
     1
  1
DWGPROPS COOKIE
  2

  3

  4

  6

  7

  8
manny
  9

300
=
301
=
302
=
303
=
304
=
305
=
306
=
307
=
308
=
309
=
 40
0.0
 41
2460633.159237998
 42
2460633.159365452
  1

 90
        0
  0
LAYOUT
  5
1E
102
{ACAD_REACTORS
330
1A
102
}
330
1A
100
AcDbPlotSettings
  1

  2
none_device
  4

  6

 40
0.0
 41
0.0
 42
0.0
 43
0.0
 44
0.0
 45
0.0
 46
0.0
 47
0.0
 48
0.0
 49
0.0
140
0.0
141
0.0
142
1.0
143
1.0
 70
   688
 72
     0
 73
     0
 74
     5
  7

 75
    16
147
1.0
148
0.0
149
0.0
100
AcDbLayout
  1
Layout1
 70
     1
 71
     1
 10
0.0
 20
0.0
 11
12.0
 21
9.0
 12
0.0
 22
0.0
 32
0.0
 14
1.0000000000E+20
 24
1.0000000000E+20
 34
1.0000000000E+20
 15
-1.0000000000E+20
 25
-1.0000000000E+20
 35
-1.0000000000E+20
146
0.0
 13
0.0
 23
0.0
 33
0.0
 16
1.0
 26
0.0
 36
0.0
 17
0.0
 27
1.0
 37
0.0
 76
     0
330
1B
  0
LAYOUT
  5
26
102
{ACAD_REACTORS
330
1A
102
}
330
1A
100
AcDbPlotSettings
  1

  2
none_device
  4

  6

 40
0.0
 41
0.0
 42
0.0
 43
0.0
 44
0.0
 45
0.0
 46
0.0
 47
0.0
 48
0.0
 49
0.0
140
0.0
141
0.0
142
1.0
143
1.0
 70
   688
 72
     0
 73
     0
 74
     5
  7

 75
    16
147
1.0
148
0.0
149
0.0
100
AcDbLayout
  1
Layout2
 70
     1
 71
     2
 10
0.0
 20
0.0
 11
0.0
 21
0.0
 12
0.0
 22
0.0
 32
0.0
 14
0.0
 24
0.0
 34
0.0
 15
0.0
 25
0.0
 35
0.0
146
0.0
 13
0.0
 23
0.0
 33
0.0
 16
1.0
 26
0.0
 36
0.0
 17
0.0
 27
1.0
 37
0.0
 76
     0
330
23
  0
LAYOUT
  5
22
102
{ACAD_REACTORS
330
1A
102
}
330
1A
100
AcDbPlotSettings
  1

  2
none_device
  4
ANSI_A_(11.00_x_8.50_Inches)
  6

 40
6.35
 41
19.05
 42
6.35000508
 43
19.05000254
 44
279.4
 45
215.9
 46
100.360810462
 47
13.2228022685
 48
0.0
 49
0.0
140
0.0
141
0.0
142
0.8697206029
143
1.0
 70
  1696
 72
     0
 73
     0
 74
     0
  7

 75
     0
147
0.5913241897
148
-39.4088153714
149
0.0
100
AcDbLayout
  1
Model
 70
     1
 71
     0
 10
0.0
 20
0.0
 11
12.0
 21
9.0
 12
0.0
 22
0.0
 32
0.0
 14
-0.0004416527
 24
-1.4120429162
 34
0.0
 15
2.9871177997
 25
8.2634781321
 35
0.0
146
0.0
 13
0.0
 23
0.0
 33
0.0
 16
1.0
 26
0.0
 36
0.0
 17
0.0
 27
1.0
 37
0.0
 76
     0
330
1F
331
29
  0
MLINESTYLE
  5
18
102
{ACAD_REACTORS
330
17
102
}
330
17
100
AcDbMlineStyle
  2
Standard
 70
     0
  3

 62
   256
 51
90.0
 52
90.0
 71
     2
 49
0.5
 62
   256
  6
BYLAYER
 49
-0.5
 62
   256
  6
BYLAYER
  0
ACDBPLACEHOLDER
  5
F
102
{ACAD_REACTORS
330
E
102
}
330
E
  0
SCALE
  5
48
102
{ACAD_REACTORS
330
47
102
}
330
47
100
AcDbScale
 70
     0
300
1:1
140
1.0
141
1.0
290
     1
  0
SCALE
  5
49
102
{ACAD_REACTORS
330
47
102
}
330
47
100
AcDbScale
 70
     0
300
1/128" = 1'-0"
140
0.0078125
141
12.0
290
     0
  0
SCALE
  5
4A
102
{ACAD_REACTORS
330
47
102
}
330
47
100
AcDbScale
 70
     0
300
1/64" = 1'-0"
140
0.015625
141
12.0
290
     0
  0
SCALE
  5
4B
102
{ACAD_REACTORS
330
47
102
}
330
47
100
AcDbScale
 70
     0
300
1/32" = 1'-0"
140
0.03125
141
12.0
290
     0
  0
SCALE
  5
4C
102
{ACAD_REACTORS
330
47
102
}
330
47
100
AcDbScale
 70
     0
300
1/16" = 1'-0"
140
0.0625
141
12.0
290
     0
  0
SCALE
  5
4D
102
{ACAD_REACTORS
330
47
102
}
330
47
100
AcDbScale
 70
     0
300
3/32" = 1'-0"
140
0.09375
141
12.0
290
     0
  0
SCALE
  5
4E
102
{ACAD_REACTORS
330
47
102
}
330
47
100
AcDbScale
 70
     0
300
1/8" = 1'-0"
140
0.125
141
12.0
290
     0
  0
SCALE
  5
4F
102
{ACAD_REACTORS
330
47
102
}
330
47
100
AcDbScale
 70
     0
300
3/16" = 1'-0"
140
0.1875
141
12.0
290
     0
  0
SCALE
  5
50
102
{ACAD_REACTORS
330
47
102
}
330
47
100
AcDbScale
 70
     0
300
1/4" = 1'-0"
140
0.25
141
12.0
290
     0
  0
SCALE
  5
51
102
{ACAD_REACTORS
330
47
102
}
330
47
100
AcDbScale
 70
     0
300
3/8" = 1'-0"
140
0.375
141
12.0
290
     0
  0
SCALE
  5
52
102
{ACAD_REACTORS
330
47
102
}
330
47
100
AcDbScale
 70
     0
300
1/2" = 1'-0"
140
0.5
141
12.0
290
     0
  0
SCALE
  5
53
102
{ACAD_REACTORS
330
47
102
}
330
47
100
AcDbScale
 70
     0
300
3/4" = 1'-0"
140
0.75
141
12.0
290
     0
  0
SCALE
  5
54
102
{ACAD_REACTORS
330
47
102
}
330
47
100
AcDbScale
 70
     0
300
1" = 1'-0"
140
1.0
141
12.0
290
     0
  0
SCALE
  5
55
102
{ACAD_REACTORS
330
47
102
}
330
47
100
AcDbScale
 70
     0
300
1-1/2" = 1'-0"
140
1.5
141
12.0
290
     0
  0
SCALE
  5
56
102
{ACAD_REACTORS
330
47
102
}
330
47
100
AcDbScale
 70
     0
300
3" = 1'-0"
140
3.0
141
12.0
290
     0
  0
SCALE
  5
57
102
{ACAD_REACTORS
330
47
102
}
330
47
100
AcDbScale
 70
     0
300
6" = 1'-0"
140
6.0
141
12.0
290
     0
  0
SCALE
  5
58
102
{ACAD_REACTORS
330
47
102
}
330
47
100
AcDbScale
 70
     0
300
1'-0" = 1'-0"
140
12.0
141
12.0
290
     0
  0
ENDSEC
  0
EOF
