  0
SECTION
  2
HEADER
  9
$ACADVER
  1
AC1015
  9
$ACADMAINTVER
 70
     6
  9
$DWGCODEPAGE
  3
ANSI_1252
  9
$INSBASE
 10
0.0
 20
0.0
 30
0.0
  9
$EXTMIN
 10
0.2121728368
 20
-0.322135787
 30
0.0
  9
$EXTMAX
 10
3.1997323069
 20
8.3237759472
 30
0.0
  9
$LIMMIN
 10
0.0
 20
0.0
  9
$LIMMAX
 10
12.0
 20
9.0
  9
$ORTHOMODE
 70
     0
  9
$REGENMODE
 70
     1
  9
$FILLMODE
 70
     1
  9
$QTEXTMODE
 70
     0
  9
$MIRRTEXT
 70
     1
  9
$LTSCALE
 40
1.0
  9
$ATTMODE
 70
     1
  9
$TEXTSIZE
 40
0.1377952756
  9
$TRACEWID
 40
0.05
  9
$TEXTSTYLE
  7
Standard
  9
$CLAYER
  8
0
  9
$CELTYPE
  6
ByLayer
  9
$CECOLOR
 62
   256
  9
$CELTSCALE
 40
1.0
  9
$DISPSILH
 70
     0
  9
$DIMSCALE
 40
1.0
  9
$DIMASZ
 40
0.13
  9
$DIMEXO
 40
0.0
  9
$DIMDLI
 40
0.38
  9
$DIMRND
 40
0.0
  9
$DIMDLE
 40
0.0
  9
$DIMEXE
 40
0.0393700787
  9
$DIMTP
 40
0.0
  9
$DIMTM
 40
0.0
  9
$DIMTXT
 40
0.1377952756
  9
$DIMCEN
 40
0.09
  9
$DIMTSZ
 40
0.0
  9
$DIMTOL
 70
     0
  9
$DIMLIM
 70
     0
  9
$DIMTIH
 70
     1
  9
$DIMTOH
 70
     1
  9
$DIMSE1
 70
     0
  9
$DIMSE2
 70
     0
  9
$DIMTAD
 70
     1
  9
$DIMZIN
 70
     1
  9
$DIMBLK
  1

  9
$DIMASO
 70
     1
  9
$DIMSHO
 70
     1
  9
$DIMPOST
  1

  9
$DIMAPOST
  1

  9
$DIMALT
 70
     0
  9
$DIMALTD
 70
     2
  9
$DIMALTF
 40
25.4
  9
$DIMLFAC
 40
1.0
  9
$DIMTOFL
 70
     0
  9
$DIMTVP
 40
0.0
  9
$DIMTIX
 70
     0
  9
$DIMSOXD
 70
     0
  9
$DIMSAH
 70
     0
  9
$DIMBLK1
  1

  9
$DIMBLK2
  1

  9
$DIMSTYLE
  2
Standard
  9
$DIMCLRD
 70
     0
  9
$DIMCLRE
 70
     0
  9
$DIMCLRT
 70
     0
  9
$DIMTFAC
 40
1.0
  9
$DIMGAP
 40
0.06
  9
$DIMJUST
 70
     0
  9
$DIMSD1
 70
     0
  9
$DIMSD2
 70
     0
  9
$DIMTOLJ
 70
     1
  9
$DIMTZIN
 70
     1
  9
$DIMALTZ
 70
     0
  9
$DIMALTTZ
 70
     0
  9
$DIMUPT
 70
     0
  9
$DIMDEC
 70
     2
  9
$DIMTDEC
 70
     2
  9
$DIMALTU
 70
     2
  9
$DIMALTTD
 70
     2
  9
$DIMTXSTY
  7
Standard
  9
$DIMAUNIT
 70
     0
  9
$DIMADEC
 70
     2
  9
$DIMALTRND
 40
0.0
  9
$DIMAZIN
 70
     0
  9
$DIMDSEP
 70
    46
  9
$DIMATFIT
 70
     3
  9
$DIMFRAC
 70
     0
  9
$DIMLDRBLK
  1

  9
$DIMLUNIT
 70
     2
  9
$DIMLWD
 70
    -2
  9
$DIMLWE
 70
    -2
  9
$DIMTMOVE
 70
     0
  9
$LUNITS
 70
     2
  9
$LUPREC
 70
     2
  9
$SKETCHINC
 40
0.1
  9
$FILLETRAD
 40
0.0
  9
$AUNITS
 70
     0
  9
$AUPREC
 70
     2
  9
$MENU
  1
.
  9
$ELEVATION
 40
0.0
  9
$PELEVATION
 40
0.0
  9
$THICKNESS
 40
0.0
  9
$LIMCHECK
 70
     0
  9
$CHAMFERA
 40
0.0
  9
$CHAMFERB
 40
0.0
  9
$CHAMFERC
 40
0.0
  9
$CHAMFERD
 40
0.0
  9
$SKPOLY
 70
     0
  9
$TDCREATE
 40
2460632.828646053
  9
$TDUCREATE
 40
2460633.161979387
  9
$TDUPDATE
 40
2460632.828702095
  9
$TDUUPDATE
 40
2460633.162035429
  9
$TDINDWG
 40
0.0000000116
  9
$TDUSRTIMER
 40
0.0000000116
  9
$USRTIMER
 70
     1
  9
$ANGBASE
 50
0.0
  9
$ANGDIR
 70
     0
  9
$PDMODE
 70
     0
  9
$PDSIZE
 40
-1.0
  9
$PLINEWID
 40
0.0
  9
$SPLFRAME
 70
     0
  9
$SPLINETYPE
 70
     6
  9
$SPLINESEGS
 70
     8
  9
$HANDSEED
  5
6D
  9
$SURFTAB1
 70
     6
  9
$SURFTAB2
 70
     6
  9
$SURFTYPE
 70
     6
  9
$SURFU
 70
     6
  9
$SURFV
 70
     6
  9
$UCSBASE
  2

  9
$UCSNAME
  2

  9
$UCSORG
 10
0.0
 20
0.0
 30
0.0
  9
$UCSXDIR
 10
1.0
 20
0.0
 30
0.0
  9
$UCSYDIR
 10
0.0
 20
1.0
 30
0.0
  9
$UCSORTHOREF
  2

  9
$UCSORTHOVIEW
 70
     0
  9
$UCSORGTOP
 10
0.0
 20
0.0
 30
0.0
  9
$UCSORGBOTTOM
 10
0.0
 20
0.0
 30
0.0
  9
$UCSORGLEFT
 10
0.0
 20
0.0
 30
0.0
  9
$UCSORGRIGHT
 10
0.0
 20
0.0
 30
0.0
  9
$UCSORGFRONT
 10
0.0
 20
0.0
 30
0.0
  9
$UCSORGBACK
 10
0.0
 20
0.0
 30
0.0
  9
$PUCSBASE
  2

  9
$PUCSNAME
  2

  9
$PUCSORG
 10
0.0
 20
0.0
 30
0.0
  9
$PUCSXDIR
 10
1.0
 20
0.0
 30
0.0
  9
$PUCSYDIR
 10
0.0
 20
1.0
 30
0.0
  9
$PUCSORTHOREF
  2

  9
$PUCSORTHOVIEW
 70
     0
  9
$PUCSORGTOP
 10
0.0
 20
0.0
 30
0.0
  9
$PUCSORGBOTTOM
 10
0.0
 20
0.0
 30
0.0
  9
$PUCSORGLEFT
 10
0.0
 20
0.0
 30
0.0
  9
$PUCSORGRIGHT
 10
0.0
 20
0.0
 30
0.0
  9
$PUCSORGFRONT
 10
0.0
 20
0.0
 30
0.0
  9
$PUCSORGBACK
 10
0.0
 20
0.0
 30
0.0
  9
$USERI1
 70
     0
  9
$USERI2
 70
     0
  9
$USERI3
 70
     0
  9
$USERI4
 70
     0
  9
$USERI5
 70
     0
  9
$USERR1
 40
0.0
  9
$USERR2
 40
0.0
  9
$USERR3
 40
0.0
  9
$USERR4
 40
0.0
  9
$USERR5
 40
0.0
  9
$WORLDVIEW
 70
     1
  9
$SHADEDGE
 70
     3
  9
$SHADEDIF
 70
    70
  9
$TILEMODE
 70
     1
  9
$MAXACTVP
 70
    64
  9
$PINSBASE
 10
0.0
 20
0.0
 30
0.0
  9
$PLIMCHECK
 70
     0
  9
$PEXTMIN
 10
1.0000000000E+20
 20
1.0000000000E+20
 30
1.0000000000E+20
  9
$PEXTMAX
 10
-1.0000000000E+20
 20
-1.0000000000E+20
 30
-1.0000000000E+20
  9
$PLIMMIN
 10
0.0
 20
0.0
  9
$PLIMMAX
 10
12.0
 20
9.0
  9
$UNITMODE
 70
     0
  9
$VISRETAIN
 70
     1
  9
$PLINEGEN
 70
     0
  9
$PSLTSCALE
 70
     1
  9
$TREEDEPTH
 70
  3020
  9
$CMLSTYLE
  2
Standard
  9
$CMLJUST
 70
     0
  9
$CMLSCALE
 40
1.0
  9
$PROXYGRAPHICS
 70
     1
  9
$MEASUREMENT
 70
     0
  9
$CELWEIGHT
370
    -1
  9
$ENDCAPS
280
     0
  9
$JOINSTYLE
280
     0
  9
$LWDISPLAY
290
     1
  9
$INSUNITS
 70
     1
  9
$HYPERLINKBASE
  1

  9
$STYLESHEET
  1

  9
$XEDIT
290
     1
  9
$CEPSNTYPE
380
     0
  9
$PSTYLEMODE
290
     1
  9
$FINGERPRINTGUID
  2
{f02e34b7-6213-4fe3-b5a7-3ad3be3eb093}
  9
$VERSIONGUID
  2
{FAEB1C32-E019-11D5-929B-00C0DF256EC4}
  9
$EXTNAMES
290
     1
  9
$PSVPSCALE
 40
0.0
  9
$OLESTARTUP
290
     0
  0
ENDSEC
  0
SECTION
  2
CLASSES
  0
CLASS
  1
ACDBDICTIONARYWDFLT
  2
AcDbDictionaryWithDefault
  3
ObjectDBX Classes
 90
        0
280
     0
281
     0
  0
CLASS
  1
VISUALSTYLE
  2
AcDbVisualStyle
  3
ObjectDBX Classes
 90
     4095
280
     0
281
     0
  0
CLASS
  1
MATERIAL
  2
AcDbMaterial
  3
ObjectDBX Classes
 90
     1153
280
     0
281
     0
  0
CLASS
  1
SCALE
  2
AcDbScale
  3
ObjectDBX Classes
 90
     1153
280
     0
281
     0
  0
CLASS
  1
TABLESTYLE
  2
AcDbTableStyle
  3
ObjectDBX Classes
 90
     4095
280
     0
281
     0
  0
CLASS
  1
MLEADERSTYLE
  2
AcDbMLeaderStyle
  3
ACDB_MLEADERSTYLE_CLASS
 90
     4095
280
     0
281
     0
  0
CLASS
  1
SUN
  2
AcDbSun
  3
SCENEOE
 90
     1153
280
     0
281
     0
  0
CLASS
  1
ACDBPLACEHOLDER
  2
AcDbPlaceHolder
  3
ObjectDBX Classes
 90
        0
280
     0
281
     0
  0
CLASS
  1
LAYOUT
  2
AcDbLayout
  3
ObjectDBX Classes
 90
        0
280
     0
281
     0
  0
ENDSEC
  0
SECTION
  2
TABLES
  0
TABLE
  2
VPORT
  5
8
330
0
100
AcDbSymbolTable
 70
     1
  0
VPORT
  5
29
330
8
100
AcDbSymbolTableRecord
100
AcDbViewportTableRecord
  2
*Active
 70
     0
 10
0.0
 20
0.0
 11
1.0
 21
1.0
 12
1.7059525719
 22
4.0008200801
 13
0.0
 23
0.0
 14
0.5
 24
0.5
 15
0.5
 25
0.5
 16
0.0
 26
0.0
 36
1.0
 17
0.0
 27
0.0
 37
0.0
 40
8.8188299688
 41
0.3455459137
 42
50.0
 43
0.0
 44
0.0
 50
0.0
 51
0.0
 71
     0
 72
   100
 73
     1
 74
     3
 75
     0
 76
     0
 77
     0
 78
     0
281
     0
 65
     1
110
0.0
120
0.0
130
0.0
111
1.0
121
0.0
131
0.0
112
0.0
122
1.0
132
0.0
 79
     0
146
0.0
  0
ENDTAB
  0
TABLE
  2
LTYPE
  5
5
330
0
100
AcDbSymbolTable
 70
     6
  0
LTYPE
  5
14
330
5
100
AcDbSymbolTableRecord
100
AcDbLinetypeTableRecord
  2
ByBlock
 70
     0
  3

 72
    65
 73
     0
 40
0.0
  0
LTYPE
  5
15
330
5
100
AcDbSymbolTableRecord
100
AcDbLinetypeTableRecord
  2
ByLayer
 70
     0
  3

 72
    65
 73
     0
 40
0.0
  0
LTYPE
  5
16
330
5
100
AcDbSymbolTableRecord
100
AcDbLinetypeTableRecord
  2
Continuous
 70
     0
  3
Solid line
 72
    65
 73
     0
 40
0.0
  0
LTYPE
  5
5E
330
5
100
AcDbSymbolTableRecord
100
AcDbLinetypeTableRecord
  2
HIDDEN
 70
     0
  3
Hidden __ __ __ __ __ __ __ __ __ __ __ __ __ __
 72
    65
 73
     2
 40
0.075
 49
0.05
 74
     0
 49
-0.025
 74
     0
  0
LTYPE
  5
5F
330
5
100
AcDbSymbolTableRecord
100
AcDbLinetypeTableRecord
  2
PHANTOM
 70
     0
  3
Phantom ______  __  __  ______  __  __  ______
 72
    65
 73
     6
 40
0.5
 49
0.25
 74
     0
 49
-0.05
 74
     0
 49
0.05
 74
     0
 49
-0.05
 74
     0
 49
0.05
 74
     0
 49
-0.05
 74
     0
  0
LTYPE
  5
60
330
5
100
AcDbSymbolTableRecord
100
AcDbLinetypeTableRecord
  2
CENTER
 70
     0
  3
Center ____ _ ____ _ ____ _ ____ _ ____ _ ____
 72
    65
 73
     4
 40
0.4
 49
0.25
 74
     0
 49
-0.05
 74
     0
 49
0.05
 74
     0
 49
-0.05
 74
     0
  0
LTYPE
  5
61
330
5
100
AcDbSymbolTableRecord
100
AcDbLinetypeTableRecord
  2
CENTERX2
 70
     0
  3
Center (2x) ________  __  ________  __  _____
 72
    65
 73
     4
 40
0.8
 49
0.5
 74
     0
 49
-0.1
 74
     0
 49
0.1
 74
     0
 49
-0.1
 74
     0
  0
LTYPE
  5
62
330
5
100
AcDbSymbolTableRecord
100
AcDbLinetypeTableRecord
  2
DOT2
 70
     0
  3
Dot (.5x) ........................................
 72
    65
 73
     2
 40
0.025
 49
0.0
 74
     0
 49
-0.025
 74
     0
  0
ENDTAB
  0
TABLE
  2
LAYER
  5
2
330
0
100
AcDbSymbolTable
 70
     1
  0
LAYER
  5
10
330
2
100
AcDbSymbolTableRecord
100
AcDbLayerTableRecord
  2
0
 70
     0
 62
     7
  6
Continuous
370
    -3
390
F
  0
ENDTAB
  0
TABLE
  2
STYLE
  5
3
330
0
100
AcDbSymbolTable
 70
     2
  0
STYLE
  5
11
330
3
100
AcDbSymbolTableRecord
100
AcDbTextStyleTableRecord
  2
Standard
 70
     0
 40
0.0
 41
1.0
 50
0.0
 71
     0
 42
0.1377952756
  3
txt
  4

  0
STYLE
  5
69
330
3
100
AcDbSymbolTableRecord
100
AcDbTextStyleTableRecord
  2
SLDTEXTSTYLE0
 70
     0
 40
0.0
 41
0.7
 50
0.0
 71
     0
 42
0.1377952756
  3
TXT
  4

  0
ENDTAB
  0
TABLE
  2
VIEW
  5
6
330
0
100
AcDbSymbolTable
 70
     0
  0
ENDTAB
  0
TABLE
  2
UCS
  5
7
330
0
100
AcDbSymbolTable
 70
     0
  0
ENDTAB
  0
TABLE
  2
APPID
  5
9
330
0
100
AcDbSymbolTable
 70
     1
  0
APPID
  5
12
330
9
100
AcDbSymbolTableRecord
100
AcDbRegAppTableRecord
  2
ACAD
 70
     0
  0
ENDTAB
  0
TABLE
  2
DIMSTYLE
  5
A
330
0
100
AcDbSymbolTable
 70
     1
100
AcDbDimStyleTable
  0
DIMSTYLE
105
27
330
A
100
AcDbSymbolTableRecord
100
AcDbDimStyleTableRecord
  2
Standard
 70
     0
178
     0
340
11
  0
ENDTAB
  0
TABLE
  2
BLOCK_RECORD
  5
1
330
0
100
AcDbSymbolTable
 70
     1
  0
BLOCK_RECORD
  5
1F
330
1
100
AcDbSymbolTableRecord
100
AcDbBlockTableRecord
  2
*Model_Space
340
22
  0
BLOCK_RECORD
  5
1B
330
1
100
AcDbSymbolTableRecord
100
AcDbBlockTableRecord
  2
*Paper_Space
340
1E
  0
BLOCK_RECORD
  5
23
330
1
100
AcDbSymbolTableRecord
100
AcDbBlockTableRecord
  2
*Paper_Space0
340
26
  0
ENDTAB
  0
ENDSEC
  0
SECTION
  2
BLOCKS
  0
BLOCK
  5
20
330
1F
100
AcDbEntity
  8
0
100
AcDbBlockBegin
  2
*Model_Space
 70
     0
 10
0.0
 20
0.0
 30
0.0
  3
*Model_Space
  1

  0
ENDBLK
  5
21
330
1F
100
AcDbEntity
  8
0
100
AcDbBlockEnd
  0
BLOCK
  5
1C
330
1B
100
AcDbEntity
 67
     1
  8
0
100
AcDbBlockBegin
  2
*Paper_Space
 70
     0
 10
0.0
 20
0.0
 30
0.0
  3
*Paper_Space
  1

  0
ENDBLK
  5
1D
330
1B
100
AcDbEntity
 67
     1
  8
0
100
AcDbBlockEnd
  0
BLOCK
  5
24
330
23
100
AcDbEntity
  8
0
100
AcDbBlockBegin
  2
*Paper_Space0
 70
     0
 10
0.0
 20
0.0
 30
0.0
  3
*Paper_Space0
  1

  0
ENDBLK
  5
25
330
23
100
AcDbEntity
  8
0
100
AcDbBlockEnd
  0
ENDSEC
  0
SECTION
  2
ENTITIES
  0
SPLINE
  5
65
330
1F
100
AcDbEntity
  8
0
  6
Continuous
 62
     7
370
    25
100
AcDbSpline
210
0.0
220
0.0
230
1.0
 70
     8
 71
     3
 72
   115
 73
   111
 74
     0
 42
0.00000001
 43
0.00000001
 40
0.0
 40
0.0
 40
0.0
 40
0.0
 40
0.0062909878991545
 40
0.0121444592827484
 40
0.0175638773318638
 40
0.0225536090886706
 40
0.0271192547472799
 40
0.0312681321636845
 40
0.0396926890294569
 40
0.0476048075669242
 40
0.0551536781273784
 40
0.0625106231011646
 40
0.073417189361919
 40
0.0873236728954624
 40
0.104456684592635
 40
0.1249360059739808
 40
0.1338958866116712
 40
0.1422006247210888
 40
0.1498502345592626
 40
0.1568447343893058
 40
0.1631841481362211
 40
0.1688685079966277
 40
0.1738978587476233
 40
0.1782722652806744
 40
0.181991826765873
 40
0.1850567059403047
 40
0.187467198141386
 40
0.1961891557710303
 40
0.2046410641892061
 40
0.2128279729476408
 40
0.2207554380041655
 40
0.2284295788368376
 40
0.2358571410823346
 40
0.2430455645809582
 40
0.2500030563685331
 40
0.2709503898928047
 40
0.2913547212534164
 40
0.3115830502915316
 40
0.3320118645982633
 40
0.3530068690799879
 40
0.3749054209339442
 40
0.3843676164324771
 40
0.3936406812285572
 40
0.4027332013464346
 40
0.4116542841169037
 40
0.4204135716349034
 40
0.4290212497289229
 40
0.4374880514178374
 40
0.4437431472810717
 40
0.449997584621166
 40
0.4562515280234008
 40
0.4625051421120548
 40
0.4687585915374152
 40
0.4750120409627756
 40
0.4812656550514296
 40
0.4875195984536642
 40
0.4937740357937588
 40
0.500029131656993
 40
0.5092175134320193
 40
0.5174807927041494
 40
0.5248336037107458
 40
0.5312967682415437
 40
0.5397244519720138
 40
0.5476381590964235
 40
0.5551867438411986
 40
0.5625412639924496
 40
0.5734420129555032
 40
0.5873464431561258
 40
0.6044815828613016
 40
0.6249673298208642
 40
0.6339531914208313
 40
0.642278715894816
 40
0.6499439170613006
 40
0.6569488126466051
 40
0.6632934259115699
 40
0.6689777882228146
 40
0.674001943313139
 40
0.678365954763669
 40
0.6820699201511525
 40
0.6851140005255167
 40
0.6874984906475545
 40
0.6962313342628226
 40
0.7046910216344985
 40
0.712882593040427
 40
0.7208116000794291
 40
0.7284841643186415
 40
0.7359070418091642
 40
0.7430876934041077
 40
0.7500343604661446
 40
0.7750798929909736
 40
0.7994517512906665
 40
0.8237901285177991
 40
0.8487377954760928
 40
0.8748926405112972
 40
0.8839680824857619
 40
0.8929834488600533
 40
0.901947300042301
 40
0.9108683447398812
 40
0.9197554175031099
 40
0.9286174544825844
 40
0.9374634677018929
 40
0.9444123069156285
 40
0.9513608944144792
 40
0.9583093021114012
 40
0.9652576019249324
 40
0.9722058657769609
 40
0.979154165590492
 40
0.9861025732874139
 40
0.9930511607862647
 40
1.0
 40
1.0
 40
1.0
 40
1.0
 10
0.2121728368305771
 20
-0.253834297022006
 30
0.0
 10
0.2180088999609598
 20
-0.2577983733456515
 30
0.0
 10
0.2292751481551438
 20
-0.2654508381537123
 30
0.0
 10
0.2458681026841675
 20
-0.2760677332772334
 30
0.0
 10
0.2614693780518288
 20
-0.2855159360462627
 30
0.0
 10
0.2760971856705665
 20
-0.293769858440958
 30
0.0
 10
0.2897480546704664
 20
-0.3008387254650577
 30
0.0
 10
0.3071895558991861
 20
-0.3089252288611115
 30
0.0
 10
0.3288099958307976
 20
-0.3168648194543296
 30
0.0
 10
0.3550177471940243
 20
-0.3228040817093287
 30
0.0
 10
0.3806210757104627
 20
-0.3247547476487695
 30
0.0
 10
0.4096309554557304
 20
-0.3225245540210563
 30
0.0
 10
0.44437599515792
 20
-0.3118154288888617
 30
0.0
 10
0.4867706037381743
 20
-0.2912582114212797
 30
0.0
 10
0.5362420512971814
 20
-0.2612877762443793
 30
0.0
 10
0.578926270903735
 20
-0.2311529908141084
 30
0.0
 10
0.6129772241244896
 20
-0.2060149471262499
 30
0.0
 10
0.6355363858609685
 20
-0.1895318341263643
 30
0.0
 10
0.6563223548505468
 20
-0.174358442536121
 30
0.0
 10
0.6753547769274229
 20
-0.1605207583794047
 30
0.0
 10
0.6926289799772228
 20
-0.1480125906993407
 30
0.0
 10
0.7081458699915084
 20
-0.1368350993968011
 30
0.0
 10
0.7219053733945294
 20
-0.1269881999059513
 30
0.0
 10
0.7339064359109028
 20
-0.1184702670583175
 30
0.0
 10
0.7441514455165064
 20
-0.1112847872757028
 30
0.0
 10
0.7526320354426492
 20
-0.1054190152857304
 30
0.0
 10
0.7658556807786886
 20
-0.0965518702988609
 30
0.0
 10
0.7843645451790137
 20
-0.0847245676833293
 30
0.0
 10
0.8086361210475214
 20
-0.069897997557973
 30
0.0
 10
0.8325153402471568
 20
-0.0561534936016152
 30
0.0
 10
0.8559846096595132
 20
-0.0434644316453891
 30
0.0
 10
0.8790488290985015
 20
-0.0318378652990403
 30
0.0
 10
0.901706286018524
 20
-0.021271158544812
 30
0.0
 10
0.9239601630824484
 20
-0.0117681607625075
 30
0.0
 10
0.9606657995225776
 20
0.0024347826225362
 30
0.0
 10
1.012735277133915
 20
0.0179679911651961
 30
0.0
 10
1.081144887088791
 20
0.0288059373711437
 30
0.0
 10
1.149824645194241
 20
0.0301848898752668
 30
0.0
 10
1.218692554040564
 20
0.0220720760660418
 30
0.0
 10
1.28771883267223
 20
0.0045812766549988
 30
0.0
 10
1.342496196860955
 20
-0.0169294369354931
 30
0.0
 10
1.383677856767586
 20
-0.036438085643281
 30
0.0
 10
1.41152246005238
 20
-0.0505387558861725
 30
0.0
 10
1.438369765765077
 20
-0.0652311429806196
 30
0.0
 10
1.464238595359208
 20
-0.0804804542112683
 30
0.0
 10
1.489116152383781
 20
-0.0963061903906102
 30
0.0
 10
1.513033981378077
 20
-0.1126660955325393
 30
0.0
 10
1.534008609662423
 20
-0.1283109922839
 30
0.0
 10
1.552634522358324
 20
-0.1426774084441573
 30
0.0
 10
1.569425970995153
 20
-0.1553584357794632
 30
0.0
 10
1.586263581922768
 20
-0.1679747116844048
 30
0.0
 10
1.603169452099717
 20
-0.1804977388977059
 30
0.0
 10
1.62013770663086
 20
-0.1929350880981002
 30
0.0
 10
1.637169750161916
 20
-0.2052849707932813
 30
0.0
 10
1.654265838433132
 20
-0.2175469705807173
 30
0.0
 10
1.67142354350463
 20
-0.2297245415851464
 30
0.0
 10
1.688652322139352
 20
-0.2418042822018756
 30
0.0
 10
1.70861467222053
 20
-0.25571659375133
 30
0.0
 10
1.730683358974619
 20
-0.2705481479648056
 30
0.0
 10
1.754369425053654
 20
-0.2851481721808218
 30
0.0
 10
1.77602672603364
 20
-0.2971711540478795
 30
0.0
 10
1.798524403803591
 20
-0.307985007126988
 30
0.0
 10
1.822584944067594
 20
-0.3168368601595613
 30
0.0
 10
1.848796433082984
 20
-0.3227854327988764
 30
0.0
 10
1.874396813536346
 20
-0.3247504383281193
 30
0.0
 10
1.903398916876431
 20
-0.3225407485720534
 30
0.0
 10
1.938137464059974
 20
-0.3118472242410844
 30
0.0
 10
1.980529144585886
 20
-0.2912984509054414
 30
0.0
 10
2.030010049163991
 20
-0.2613295260785006
 30
0.0
 10
2.072728719188059
 20
-0.2311763560096517
 30
0.0
 10
2.106829961993874
 20
-0.206006009241688
 30
0.0
 10
2.129446784230979
 20
-0.1894832778368218
 30
0.0
 10
2.150275865639152
 20
-0.1742799845377136
 30
0.0
 10
2.169336898845859
 20
-0.160422181068551
 30
0.0
 10
2.186625204648863
 20
-0.1479036665183125
 30
0.0
 10
2.20214168581821
 20
-0.1367255963846451
 30
0.0
 10
2.215886276817024
 20
-0.1268878983545594
 30
0.0
 10
2.227857891865728
 20
-0.1183889011409558
 30
0.0
 10
2.238058987895908
 20
-0.1112321932096922
 30
0.0
 10
2.246480988095921
 20
-0.1054047165883326
 30
0.0
 10
2.259670701456054
 20
-0.0965592775298815
 30
0.0
 10
2.278173789015137
 20
-0.0847381786047208
 30
0.0
 10
2.302466959033648
 20
-0.0698968300237557
 30
0.0
 10
2.326359120046552
 20
-0.0561433590330885
 30
0.0
 10
2.349832132045937
 20
-0.0434503258659192
 30
0.0
 10
2.372891067773441
 20
-0.0318249707658416
 30
0.0
 10
2.395534066654342
 20
-0.0212646590001442
 30
0.0
 10
2.417764747610603
 20
-0.0117730521901827
 30
0.0
 10
2.458738356291373
 20
0.0040735236683415
 30
0.0
 10
2.519791555665562
 20
0.0214808411357737
 30
0.0
 10
2.602303925553274
 20
0.0311442626346097
 30
0.0
 10
2.685176417456423
 20
0.0270603269997086
 30
0.0
 10
2.768255188001904
 20
0.0093369580952618
 30
0.0
 10
2.83156926965045
 20
-0.0146957021764689
 30
0.0
 10
2.876412100643382
 20
-0.0359329296199041
 30
0.0
 10
2.903466871879648
 20
-0.0496751671329963
 30
0.0
 10
2.929918282018274
 20
-0.0641876079704495
 30
0.0
 10
2.955782777928395
 20
-0.0794413171732345
 30
0.0
 10
2.981049418678094
 20
-0.0954526586962855
 30
0.0
 10
3.005744983720497
 20
-0.1121849907422673
 30
0.0
 10
3.028062165822167
 20
-0.1285160997765344
 30
0.0
 10
3.048424920981962
 20
-0.1438729351100411
 30
0.0
 10
3.067193878570102
 20
-0.1578087664594773
 30
0.0
 10
3.085991015759063
 20
-0.1717051035751612
 30
0.0
 10
3.104836762275365
 20
-0.1855349873191906
 30
0.0
 10
3.123725714732376
 20
-0.1993055413216718
 30
0.0
 10
3.142659057576356
 20
-0.2130152292990813
 30
0.0
 10
3.161637456292757
 20
-0.2266630728322094
 30
0.0
 10
3.180657064333879
 20
-0.2402545220296364
 30
0.0
 10
3.193373815959082
 20
-0.2492638156663877
 30
0.0
 10
3.199732306936734
 20
-0.2537685440744475
 30
0.0
  0
SPLINE
  5
66
330
1F
100
AcDbEntity
  8
0
  6
Continuous
 62
     7
370
    25
100
AcDbSpline
210
0.0
220
0.0
230
1.0
 70
     8
 71
     3
 72
    91
 73
    87
 74
     0
 42
0.00000001
 43
0.00000001
 40
0.0
 40
0.0
 40
0.0
 40
0.0
 40
0.0017889426178292
 40
0.0043558387523572
 40
0.0077015330056914
 40
0.0118263916098019
 40
0.0167306062428274
 40
0.0224142897337892
 40
0.0288775140900875
 40
0.0361203280687869
 40
0.0441427662128926
 40
0.0529448538867193
 40
0.0625266102630435
 40
0.0729100818857798
 40
0.0828035375628896
 40
0.0922105348084276
 40
0.1011352128848655
 40
0.1095824201160391
 40
0.1175578756448845
 40
0.1250683763889528
 40
0.1578720683649328
 40
0.1888081934435287
 40
0.2190549097321258
 40
0.2498695530263144
 40
0.2690430741006872
 40
0.2898390593323977
 40
0.312398799417817
 40
0.328860252369069
 40
0.3497022190556879
 40
0.3749385023139722
 40
0.3858549382925072
 40
0.3958805050742879
 40
0.4050167149211839
 40
0.4132655692467962
 40
0.4206297929840206
 40
0.4271132265702237
 40
0.4327215201725229
 40
0.4374634532636315
 40
0.4459688437481339
 40
0.453941531051349
 40
0.461485035926334
 40
0.4687213220031902
 40
0.4831293433480396
 40
0.4999454976796441
 40
0.509553260077709
 40
0.5231672607033071
 40
0.5408045074985852
 40
0.5624725365448308
 40
0.5751191422462933
 40
0.5868734379325368
 40
0.5977373108017705
 40
0.6077131534070833
 40
0.6168040594664896
 40
0.6250141231449134
 40
0.6533546777377256
 40
0.6795748362392093
 40
0.7040722203444317
 40
0.7273329680343884
 40
0.7499231955041145
 40
0.7645854380034136
 40
0.7798173626000239
 40
0.7957381548350323
 40
0.8124522701430196
 40
0.8303224615081055
 40
0.8511524276831451
 40
0.8749879030251775
 40
0.8856072547037869
 40
0.8953066277981192
 40
0.9040863970904938
 40
0.9119470688993642
 40
0.9188893506425233
 40
0.9249142732454465
 40
0.9300234229786422
 40
0.9342194248466588
 40
0.937507091863217
 40
0.9426373357743197
 40
0.9474998813485077
 40
0.9521183808016632
 40
0.9565204218964998
 40
0.9607378423482154
 40
0.9648068158792867
 40
0.96876758560128
 40
0.9751739240173388
 40
0.9824459626612178
 40
0.9906957288696328
 40
1.0
 40
1.0
 40
1.0
 40
1.0
 10
3.199732306936734
 20
8.2854069336757
 30
0.0
 10
3.198062619617931
 20
8.284294086023483
 30
0.0
 10
3.193997151751563
 20
8.28158444912363
 30
0.0
 10
3.186983484462386
 20
8.2765401911358
 30
0.0
 10
3.177892833050212
 20
8.26990022852489
 30
0.0
 10
3.166760195536809
 20
8.26161125900233
 30
0.0
 10
3.153573738395214
 20
8.251690809960307
 30
0.0
 10
3.138338414484116
 20
8.240131381422254
 30
0.0
 10
3.121053097127393
 20
8.2269346757615
 30
0.0
 10
3.101717796973234
 20
8.212100528078553
 30
0.0
 10
3.080335360470579
 20
8.195625305220979
 30
0.0
 10
3.056893395244801
 20
8.177524858510578
 30
0.0
 10
3.031425723064916
 20
8.157715696553874
 30
0.0
 10
3.004838091625057
 20
8.137351837661253
 30
0.0
 10
2.978001871771169
 20
8.11764435901591
 30
0.0
 10
2.952128218806132
 20
8.099400731653125
 30
0.0
 10
2.927202287018453
 20
8.082639270619866
 30
0.0
 10
2.90322798524423
 20
8.06735552709823
 30
0.0
 10
2.880202143180671
 20
8.053548390155179
 30
0.0
 10
2.832916374359529
 20
8.027143228245906
 30
0.0
 10
2.759339952330421
 20
7.994812604495245
 30
0.0
 10
2.655947542633293
 20
7.971048002157928
 30
0.0
 10
2.552038103045792
 20
7.968922453749108
 30
0.0
 10
2.463009445864973
 20
7.985810111245652
 30
0.0
 10
2.38791548611121
 20
8.01188822527821
 30
0.0
 10
2.323873870130436
 20
8.040660714207139
 30
0.0
 10
2.264815887649107
 20
8.072619288362462
 30
0.0
 10
2.207752022460476
 20
8.108027200401434
 30
0.0
 10
2.149291596480213
 20
8.146802185801999
 30
0.0
 10
2.096809376936573
 20
8.183300424144917
 30
0.0
 10
2.054347111678366
 20
8.212955996369628
 30
0.0
 10
2.026423267187786
 20
8.231887130822487
 30
0.0
 10
2.000761638983655
 20
8.248818758637833
 30
0.0
 10
1.977345423444277
 20
8.263727793427392
 30
0.0
 10
1.956179618360775
 20
8.276623966167268
 30
0.0
 10
1.937259956603029
 20
8.28750167925379
 30
0.0
 10
1.920595846547032
 20
8.296388441450361
 30
0.0
 10
1.901475193182418
 20
8.305442980256407
 30
0.0
 10
1.87917743956395
 20
8.313893817086226
 30
0.0
 10
1.853079266639827
 20
8.320800818181853
 30
0.0
 10
1.827730813049782
 20
8.324294340330862
 30
0.0
 10
1.794882164052457
 20
8.324389543300903
 30
0.0
 10
1.752287563555118
 20
8.315238537962964
 30
0.0
 10
1.709933557351675
 20
8.297258760911998
 30
0.0
 10
1.671001522776481
 20
8.274831022894043
 30
0.0
 10
1.632355925162385
 20
8.250188822304406
 30
0.0
 10
1.583015088111029
 20
8.217194050143648
 30
0.0
 10
1.53518461978277
 20
8.183914009012382
 30
0.0
 10
1.49276628606735
 20
8.154409759944924
 30
0.0
 10
1.459976698612961
 20
8.132289050922365
 30
0.0
 10
1.42940997388772
 20
8.112235199451534
 30
0.0
 10
1.40104680889158
 20
8.09427583904916
 30
0.0
 10
1.374894229016839
 20
8.078396240688255
 30
0.0
 10
1.330519713283191
 20
8.052872081157334
 30
0.0
 10
1.267326034660151
 20
8.02151481023241
 30
0.0
 10
1.183753883590997
 20
7.991241718065687
 30
0.0
 10
1.102420832329156
 20
7.973484446091595
 30
0.0
 10
1.023364176896244
 20
7.968307702437757
 30
0.0
 10
0.9554993945498195
 20
7.975109417758434
 30
0.0
 10
0.8981682547652206
 20
7.988825503780898
 30
0.0
 10
0.8494157296359002
 20
8.005273699772042
 30
0.0
 10
0.8001443888366423
 20
8.026737980860148
 30
0.0
 10
0.7500373695972787
 20
8.053273997514033
 30
0.0
 10
0.6973665108466623
 20
8.086344959365293
 30
0.0
 10
0.6399729718043035
 20
8.126704094978537
 30
0.0
 10
0.5908058258348162
 20
8.164502959506711
 30
0.0
 10
0.5519171702711045
 20
8.195163336074659
 30
0.0
 10
0.5261109599029236
 20
8.215143195058028
 30
0.0
 10
0.5026450022819812
 20
8.233090204161483
 30
0.0
 10
0.4814995498309054
 20
8.248980025664705
 30
0.0
 10
0.4626789836738742
 20
8.262818372833255
 30
0.0
 10
0.4461850888181168
 20
8.274609368577321
 30
0.0
 10
0.4320125039018927
 20
8.28434568299625
 30
0.0
 10
0.4201808634315487
 20
8.292064229630666
 30
0.0
 10
0.4079928920376398
 20
8.299259134094209
 30
0.0
 10
0.3946729300592193
 20
8.305955466330762
 30
0.0
 10
0.3796106093022053
 20
8.312438788746272
 30
0.0
 10
0.3648714240213877
 20
8.317510725750527
 30
0.0
 10
0.3504713900926937
 20
8.321198634315216
 30
0.0
 10
0.3364054809898
 20
8.323493442264299
 30
0.0
 10
0.3226763628990531
 20
8.324386656648604
 30
0.0
 10
0.3064645534054773
 20
8.323793772352625
 30
0.0
 10
0.2869248119218403
 20
8.320140292851114
 30
0.0
 10
0.2635761167078326
 20
8.312250354586883
 30
0.0
 10
0.2381975114406321
 20
8.300666446060887
 30
0.0
 10
0.2211883200256428
 20
8.290732289132377
 30
0.0
 10
0.2121728368305754
 20
8.285466828672735
 30
0.0
  0
LINE
  5
67
330
1F
100
AcDbEntity
  8
0
  6
Continuous
 62
     7
370
    25
100
AcDbLine
 10
0.2121728368
 20
8.2854668287
 30
0.0
 11
0.2121728368
 21
-0.253834297
 31
0.0
  0
LINE
  5
68
330
1F
100
AcDbEntity
  8
0
  6
Continuous
 62
     7
370
    25
100
AcDbLine
 10
3.1997323069
 20
-0.2537685441
 30
0.0
 11
3.1997323069
 21
8.2854069337
 31
0.0
  0
MTEXT
  5
6A
330
1F
100
AcDbEntity
  8
0
  6
Continuous
 62
     7
100
AcDbMText
 10
0.2121728368
 20
-0.3622761961
 30
0.0
 40
0.1903
 41
0.0
 71
     1
 72
     1
  1
SOLIDWORKS Educational Product.
  7
SLDTEXTSTYLE0
 73
     1
 44
1.0
  0
MTEXT
  5
6B
330
1F
100
AcDbEntity
  8
0
  6
Continuous
 62
     7
100
AcDbMText
 10
0.2121728368
 20
-0.6477261961
 30
0.0
 40
0.1903
 41
0.0
 71
     1
 72
     1
  1
For Instructional Use Only.
  7
SLDTEXTSTYLE0
 73
     1
 44
1.0
  0
ENDSEC
  0
SECTION
  2
OBJECTS
  0
DICTIONARY
  5
C
330
0
100
AcDbDictionary
281
     1
  3
ACAD_GROUP
350
D
  3
ACAD_LAYOUT
350
1A
  3
ACAD_MLINESTYLE
350
17
  3
ACAD_PLOTSETTINGS
350
19
  3
ACAD_PLOTSTYLENAME
350
E
  3
ACAD_SCALELIST
350
47
  3
DWGPROPS
350
6C
  0
DICTIONARY
  5
D
102
{ACAD_REACTORS
330
C
102
}
330
C
100
AcDbDictionary
281
     1
  0
DICTIONARY
  5
1A
102
{ACAD_REACTORS
330
C
102
}
330
C
100
AcDbDictionary
281
     1
  3
Layout1
350
1E
  3
Layout2
350
26
  3
Model
350
22
  0
DICTIONARY
  5
17
102
{ACAD_REACTORS
330
C
102
}
330
C
100
AcDbDictionary
281
     1
  3
Standard
350
18
  0
DICTIONARY
  5
19
102
{ACAD_REACTORS
330
C
102
}
330
C
100
AcDbDictionary
281
     1
  0
ACDBDICTIONARYWDFLT
  5
E
102
{ACAD_REACTORS
330
C
102
}
330
C
100
AcDbDictionary
281
     1
  3
Normal
350
F
100
AcDbDictionaryWithDefault
340
F
  0
DICTIONARY
  5
47
102
{ACAD_REACTORS
330
C
102
}
330
C
100
AcDbDictionary
281
     1
  3
A0
350
48
  3
A1
350
49
  3
A2
350
4A
  3
A3
350
4B
  3
A4
350
4C
  3
A5
350
4D
  3
A6
350
4E
  3
A7
350
4F
  3
A8
350
50
  3
A9
350
51
  3
B1
350
52
  3
B2
350
53
  3
B3
350
54
  3
B4
350
55
  3
B5
350
56
  3
B6
350
57
  3
B7
350
58
  0
XRECORD
  5
6C
102
{ACAD_REACTORS
330
C
102
}
330
C
100
AcDbXrecord
280
     1
  1
DWGPROPS COOKIE
  2

  3

  4

  6

  7

  8
manny
  9

300
=
301
=
302
=
303
=
304
=
305
=
306
=
307
=
308
=
309
=
 40
0.0
 41
2460633.161979387
 42
2460633.162035429
  1

 90
        0
  0
LAYOUT
  5
1E
102
{ACAD_REACTORS
330
1A
102
}
330
1A
100
AcDbPlotSettings
  1

  2
none_device
  4

  6

 40
0.0
 41
0.0
 42
0.0
 43
0.0
 44
0.0
 45
0.0
 46
0.0
 47
0.0
 48
0.0
 49
0.0
140
0.0
141
0.0
142
1.0
143
1.0
 70
   688
 72
     0
 73
     0
 74
     5
  7

 75
    16
147
1.0
148
0.0
149
0.0
100
AcDbLayout
  1
Layout1
 70
     1
 71
     1
 10
0.0
 20
0.0
 11
12.0
 21
9.0
 12
0.0
 22
0.0
 32
0.0
 14
1.0000000000E+20
 24
1.0000000000E+20
 34
1.0000000000E+20
 15
-1.0000000000E+20
 25
-1.0000000000E+20
 35
-1.0000000000E+20
146
0.0
 13
0.0
 23
0.0
 33
0.0
 16
1.0
 26
0.0
 36
0.0
 17
0.0
 27
1.0
 37
0.0
 76
     0
330
1B
  0
LAYOUT
  5
26
102
{ACAD_REACTORS
330
1A
102
}
330
1A
100
AcDbPlotSettings
  1

  2
none_device
  4

  6

 40
0.0
 41
0.0
 42
0.0
 43
0.0
 44
0.0
 45
0.0
 46
0.0
 47
0.0
 48
0.0
 49
0.0
140
0.0
141
0.0
142
1.0
143
1.0
 70
   688
 72
     0
 73
     0
 74
     5
  7

 75
    16
147
1.0
148
0.0
149
0.0
100
AcDbLayout
  1
Layout2
 70
     1
 71
     2
 10
0.0
 20
0.0
 11
0.0
 21
0.0
 12
0.0
 22
0.0
 32
0.0
 14
0.0
 24
0.0
 34
0.0
 15
0.0
 25
0.0
 35
0.0
146
0.0
 13
0.0
 23
0.0
 33
0.0
 16
1.0
 26
0.0
 36
0.0
 17
0.0
 27
1.0
 37
0.0
 76
     0
330
23
  0
LAYOUT
  5
22
102
{ACAD_REACTORS
330
1A
102
}
330
1A
100
AcDbPlotSettings
  1

  2
none_device
  4
ANSI_A_(11.00_x_8.50_Inches)
  6

 40
6.35
 41
19.05
 42
6.35000508
 43
19.05000254
 44
279.4
 45
215.9
 46
91.1760752782
 47
-10.0067806867
 48
0.0
 49
0.0
140
0.0
141
0.0
142
0.973292379
143
1.0
 70
  1696
 72
     0
 73
     0
 74
     0
  7

 75
     0
147
0.5913241897
148
-39.4088153714
149
0.0
100
AcDbLayout
  1
Model
 70
     1
 71
     0
 10
0.0
 20
0.0
 11
12.0
 21
9.0
 12
0.0
 22
0.0
 32
0.0
 14
0.2121728368
 24
-0.322135787
 34
0.0
 15
3.1997323069
 25
8.3237759472
 35
0.0
146
0.0
 13
0.0
 23
0.0
 33
0.0
 16
1.0
 26
0.0
 36
0.0
 17
0.0
 27
1.0
 37
0.0
 76
     0
330
1F
331
29
  0
MLINESTYLE
  5
18
102
{ACAD_REACTORS
330
17
102
}
330
17
100
AcDbMlineStyle
  2
Standard
 70
     0
  3

 62
   256
 51
90.0
 52
90.0
 71
     2
 49
0.5
 62
   256
  6
BYLAYER
 49
-0.5
 62
   256
  6
BYLAYER
  0
ACDBPLACEHOLDER
  5
F
102
{ACAD_REACTORS
330
E
102
}
330
E
  0
SCALE
  5
48
102
{ACAD_REACTORS
330
47
102
}
330
47
100
AcDbScale
 70
     0
300
1:1
140
1.0
141
1.0
290
     1
  0
SCALE
  5
49
102
{ACAD_REACTORS
330
47
102
}
330
47
100
AcDbScale
 70
     0
300
1/128" = 1'-0"
140
0.0078125
141
12.0
290
     0
  0
SCALE
  5
4A
102
{ACAD_REACTORS
330
47
102
}
330
47
100
AcDbScale
 70
     0
300
1/64" = 1'-0"
140
0.015625
141
12.0
290
     0
  0
SCALE
  5
4B
102
{ACAD_REACTORS
330
47
102
}
330
47
100
AcDbScale
 70
     0
300
1/32" = 1'-0"
140
0.03125
141
12.0
290
     0
  0
SCALE
  5
4C
102
{ACAD_REACTORS
330
47
102
}
330
47
100
AcDbScale
 70
     0
300
1/16" = 1'-0"
140
0.0625
141
12.0
290
     0
  0
SCALE
  5
4D
102
{ACAD_REACTORS
330
47
102
}
330
47
100
AcDbScale
 70
     0
300
3/32" = 1'-0"
140
0.09375
141
12.0
290
     0
  0
SCALE
  5
4E
102
{ACAD_REACTORS
330
47
102
}
330
47
100
AcDbScale
 70
     0
300
1/8" = 1'-0"
140
0.125
141
12.0
290
     0
  0
SCALE
  5
4F
102
{ACAD_REACTORS
330
47
102
}
330
47
100
AcDbScale
 70
     0
300
3/16" = 1'-0"
140
0.1875
141
12.0
290
     0
  0
SCALE
  5
50
102
{ACAD_REACTORS
330
47
102
}
330
47
100
AcDbScale
 70
     0
300
1/4" = 1'-0"
140
0.25
141
12.0
290
     0
  0
SCALE
  5
51
102
{ACAD_REACTORS
330
47
102
}
330
47
100
AcDbScale
 70
     0
300
3/8" = 1'-0"
140
0.375
141
12.0
290
     0
  0
SCALE
  5
52
102
{ACAD_REACTORS
330
47
102
}
330
47
100
AcDbScale
 70
     0
300
1/2" = 1'-0"
140
0.5
141
12.0
290
     0
  0
SCALE
  5
53
102
{ACAD_REACTORS
330
47
102
}
330
47
100
AcDbScale
 70
     0
300
3/4" = 1'-0"
140
0.75
141
12.0
290
     0
  0
SCALE
  5
54
102
{ACAD_REACTORS
330
47
102
}
330
47
100
AcDbScale
 70
     0
300
1" = 1'-0"
140
1.0
141
12.0
290
     0
  0
SCALE
  5
55
102
{ACAD_REACTORS
330
47
102
}
330
47
100
AcDbScale
 70
     0
300
1-1/2" = 1'-0"
140
1.5
141
12.0
290
     0
  0
SCALE
  5
56
102
{ACAD_REACTORS
330
47
102
}
330
47
100
AcDbScale
 70
     0
300
3" = 1'-0"
140
3.0
141
12.0
290
     0
  0
SCALE
  5
57
102
{ACAD_REACTORS
330
47
102
}
330
47
100
AcDbScale
 70
     0
300
6" = 1'-0"
140
6.0
141
12.0
290
     0
  0
SCALE
  5
58
102
{ACAD_REACTORS
330
47
102
}
330
47
100
AcDbScale
 70
     0
300
1'-0" = 1'-0"
140
12.0
141
12.0
290
     0
  0
ENDSEC
  0
EOF
