  0
SECTION
  2
HEADER
  9
$ACADVER
  1
AC1015
  9
$ACADMAINTVER
 70
     6
  9
$DWGCODEPAGE
  3
ANSI_1252
  9
$INSBASE
 10
0.0
 20
0.0
 30
0.0
  9
$EXTMIN
 10
7.0572632643
 20
-1.4830011297
 30
0.0
  9
$EXTMAX
 10
10.0448223981
 20
8.7615151959
 30
0.0
  9
$LIMMIN
 10
0.0
 20
0.0
  9
$LIMMAX
 10
12.0
 20
9.0
  9
$ORTHOMODE
 70
     0
  9
$REGENMODE
 70
     1
  9
$FILLMODE
 70
     1
  9
$QTEXTMODE
 70
     0
  9
$MIRRTEXT
 70
     1
  9
$LTSCALE
 40
1.0
  9
$ATTMODE
 70
     1
  9
$TEXTSIZE
 40
0.1377952756
  9
$TRACEWID
 40
0.05
  9
$TEXTSTYLE
  7
Standard
  9
$CLAYER
  8
0
  9
$CELTYPE
  6
ByLayer
  9
$CECOLOR
 62
   256
  9
$CELTSCALE
 40
1.0
  9
$DISPSILH
 70
     0
  9
$DIMSCALE
 40
1.0
  9
$DIMASZ
 40
0.13
  9
$DIMEXO
 40
0.0
  9
$DIMDLI
 40
0.38
  9
$DIMRND
 40
0.0
  9
$DIMDLE
 40
0.0
  9
$DIMEXE
 40
0.0393700787
  9
$DIMTP
 40
0.0
  9
$DIMTM
 40
0.0
  9
$DIMTXT
 40
0.1377952756
  9
$DIMCEN
 40
0.09
  9
$DIMTSZ
 40
0.0
  9
$DIMTOL
 70
     0
  9
$DIMLIM
 70
     0
  9
$DIMTIH
 70
     1
  9
$DIMTOH
 70
     1
  9
$DIMSE1
 70
     0
  9
$DIMSE2
 70
     0
  9
$DIMTAD
 70
     1
  9
$DIMZIN
 70
     1
  9
$DIMBLK
  1

  9
$DIMASO
 70
     1
  9
$DIMSHO
 70
     1
  9
$DIMPOST
  1

  9
$DIMAPOST
  1

  9
$DIMALT
 70
     0
  9
$DIMALTD
 70
     2
  9
$DIMALTF
 40
25.4
  9
$DIMLFAC
 40
1.0
  9
$DIMTOFL
 70
     0
  9
$DIMTVP
 40
0.0
  9
$DIMTIX
 70
     0
  9
$DIMSOXD
 70
     0
  9
$DIMSAH
 70
     0
  9
$DIMBLK1
  1

  9
$DIMBLK2
  1

  9
$DIMSTYLE
  2
Standard
  9
$DIMCLRD
 70
     0
  9
$DIMCLRE
 70
     0
  9
$DIMCLRT
 70
     0
  9
$DIMTFAC
 40
1.0
  9
$DIMGAP
 40
0.06
  9
$DIMJUST
 70
     0
  9
$DIMSD1
 70
     0
  9
$DIMSD2
 70
     0
  9
$DIMTOLJ
 70
     1
  9
$DIMTZIN
 70
     1
  9
$DIMALTZ
 70
     0
  9
$DIMALTTZ
 70
     0
  9
$DIMUPT
 70
     0
  9
$DIMDEC
 70
     2
  9
$DIMTDEC
 70
     2
  9
$DIMALTU
 70
     2
  9
$DIMALTTD
 70
     2
  9
$DIMTXSTY
  7
Standard
  9
$DIMAUNIT
 70
     0
  9
$DIMADEC
 70
     2
  9
$DIMALTRND
 40
0.0
  9
$DIMAZIN
 70
     0
  9
$DIMDSEP
 70
    46
  9
$DIMATFIT
 70
     3
  9
$DIMFRAC
 70
     0
  9
$DIMLDRBLK
  1

  9
$DIMLUNIT
 70
     2
  9
$DIMLWD
 70
    -2
  9
$DIMLWE
 70
    -2
  9
$DIMTMOVE
 70
     0
  9
$LUNITS
 70
     2
  9
$LUPREC
 70
     2
  9
$SKETCHINC
 40
0.1
  9
$FILLETRAD
 40
0.0
  9
$AUNITS
 70
     0
  9
$AUPREC
 70
     2
  9
$MENU
  1
.
  9
$ELEVATION
 40
0.0
  9
$PELEVATION
 40
0.0
  9
$THICKNESS
 40
0.0
  9
$LIMCHECK
 70
     0
  9
$CHAMFERA
 40
0.0
  9
$CHAMFERB
 40
0.0
  9
$CHAMFERC
 40
0.0
  9
$CHAMFERD
 40
0.0
  9
$SKPOLY
 70
     0
  9
$TDCREATE
 40
2460632.832353067
  9
$TDUCREATE
 40
2460633.165686401
  9
$TDUPDATE
 40
2460632.832411296
  9
$TDUUPDATE
 40
2460633.16574463
  9
$TDINDWG
 40
0.0000000116
  9
$TDUSRTIMER
 40
0.0000000116
  9
$USRTIMER
 70
     1
  9
$ANGBASE
 50
0.0
  9
$ANGDIR
 70
     0
  9
$PDMODE
 70
     0
  9
$PDSIZE
 40
-1.0
  9
$PLINEWID
 40
0.0
  9
$SPLFRAME
 70
     0
  9
$SPLINETYPE
 70
     6
  9
$SPLINESEGS
 70
     8
  9
$HANDSEED
  5
6F
  9
$SURFTAB1
 70
     6
  9
$SURFTAB2
 70
     6
  9
$SURFTYPE
 70
     6
  9
$SURFU
 70
     6
  9
$SURFV
 70
     6
  9
$UCSBASE
  2

  9
$UCSNAME
  2

  9
$UCSORG
 10
0.0
 20
0.0
 30
0.0
  9
$UCSXDIR
 10
1.0
 20
0.0
 30
0.0
  9
$UCSYDIR
 10
0.0
 20
1.0
 30
0.0
  9
$UCSORTHOREF
  2

  9
$UCSORTHOVIEW
 70
     0
  9
$UCSORGTOP
 10
0.0
 20
0.0
 30
0.0
  9
$UCSORGBOTTOM
 10
0.0
 20
0.0
 30
0.0
  9
$UCSORGLEFT
 10
0.0
 20
0.0
 30
0.0
  9
$UCSORGRIGHT
 10
0.0
 20
0.0
 30
0.0
  9
$UCSORGFRONT
 10
0.0
 20
0.0
 30
0.0
  9
$UCSORGBACK
 10
0.0
 20
0.0
 30
0.0
  9
$PUCSBASE
  2

  9
$PUCSNAME
  2

  9
$PUCSORG
 10
0.0
 20
0.0
 30
0.0
  9
$PUCSXDIR
 10
1.0
 20
0.0
 30
0.0
  9
$PUCSYDIR
 10
0.0
 20
1.0
 30
0.0
  9
$PUCSORTHOREF
  2

  9
$PUCSORTHOVIEW
 70
     0
  9
$PUCSORGTOP
 10
0.0
 20
0.0
 30
0.0
  9
$PUCSORGBOTTOM
 10
0.0
 20
0.0
 30
0.0
  9
$PUCSORGLEFT
 10
0.0
 20
0.0
 30
0.0
  9
$PUCSORGRIGHT
 10
0.0
 20
0.0
 30
0.0
  9
$PUCSORGFRONT
 10
0.0
 20
0.0
 30
0.0
  9
$PUCSORGBACK
 10
0.0
 20
0.0
 30
0.0
  9
$USERI1
 70
     0
  9
$USERI2
 70
     0
  9
$USERI3
 70
     0
  9
$USERI4
 70
     0
  9
$USERI5
 70
     0
  9
$USERR1
 40
0.0
  9
$USERR2
 40
0.0
  9
$USERR3
 40
0.0
  9
$USERR4
 40
0.0
  9
$USERR5
 40
0.0
  9
$WORLDVIEW
 70
     1
  9
$SHADEDGE
 70
     3
  9
$SHADEDIF
 70
    70
  9
$TILEMODE
 70
     1
  9
$MAXACTVP
 70
    64
  9
$PINSBASE
 10
0.0
 20
0.0
 30
0.0
  9
$PLIMCHECK
 70
     0
  9
$PEXTMIN
 10
1.0000000000E+20
 20
1.0000000000E+20
 30
1.0000000000E+20
  9
$PEXTMAX
 10
-1.0000000000E+20
 20
-1.0000000000E+20
 30
-1.0000000000E+20
  9
$PLIMMIN
 10
0.0
 20
0.0
  9
$PLIMMAX
 10
12.0
 20
9.0
  9
$UNITMODE
 70
     0
  9
$VISRETAIN
 70
     1
  9
$PLINEGEN
 70
     0
  9
$PSLTSCALE
 70
     1
  9
$TREEDEPTH
 70
  3020
  9
$CMLSTYLE
  2
Standard
  9
$CMLJUST
 70
     0
  9
$CMLSCALE
 40
1.0
  9
$PROXYGRAPHICS
 70
     1
  9
$MEASUREMENT
 70
     0
  9
$CELWEIGHT
370
    -1
  9
$ENDCAPS
280
     0
  9
$JOINSTYLE
280
     0
  9
$LWDISPLAY
290
     1
  9
$INSUNITS
 70
     1
  9
$HYPERLINKBASE
  1

  9
$STYLESHEET
  1

  9
$XEDIT
290
     1
  9
$CEPSNTYPE
380
     0
  9
$PSTYLEMODE
290
     1
  9
$FINGERPRINTGUID
  2
{70b5ac6d-93e5-4c49-a9e6-ec1eb4e5a0fc}
  9
$VERSIONGUID
  2
{FAEB1C32-E019-11D5-929B-00C0DF256EC4}
  9
$EXTNAMES
290
     1
  9
$PSVPSCALE
 40
0.0
  9
$OLESTARTUP
290
     0
  0
ENDSEC
  0
SECTION
  2
CLASSES
  0
CLASS
  1
ACDBDICTIONARYWDFLT
  2
AcDbDictionaryWithDefault
  3
ObjectDBX Classes
 90
        0
280
     0
281
     0
  0
CLASS
  1
VISUALSTYLE
  2
AcDbVisualStyle
  3
ObjectDBX Classes
 90
     4095
280
     0
281
     0
  0
CLASS
  1
MATERIAL
  2
AcDbMaterial
  3
ObjectDBX Classes
 90
     1153
280
     0
281
     0
  0
CLASS
  1
SCALE
  2
AcDbScale
  3
ObjectDBX Classes
 90
     1153
280
     0
281
     0
  0
CLASS
  1
TABLESTYLE
  2
AcDbTableStyle
  3
ObjectDBX Classes
 90
     4095
280
     0
281
     0
  0
CLASS
  1
MLEADERSTYLE
  2
AcDbMLeaderStyle
  3
ACDB_MLEADERSTYLE_CLASS
 90
     4095
280
     0
281
     0
  0
CLASS
  1
SUN
  2
AcDbSun
  3
SCENEOE
 90
     1153
280
     0
281
     0
  0
CLASS
  1
ACDBPLACEHOLDER
  2
AcDbPlaceHolder
  3
ObjectDBX Classes
 90
        0
280
     0
281
     0
  0
CLASS
  1
LAYOUT
  2
AcDbLayout
  3
ObjectDBX Classes
 90
        0
280
     0
281
     0
  0
ENDSEC
  0
SECTION
  2
TABLES
  0
TABLE
  2
VPORT
  5
8
330
0
100
AcDbSymbolTable
 70
     1
  0
VPORT
  5
29
330
8
100
AcDbSymbolTableRecord
100
AcDbViewportTableRecord
  2
*Active
 70
     0
 10
0.0
 20
0.0
 11
1.0
 21
1.0
 12
8.5510428312
 22
3.6392570331
 13
0.0
 23
0.0
 14
0.5
 24
0.5
 15
0.5
 25
0.5
 16
0.0
 26
0.0
 36
1.0
 17
0.0
 27
0.0
 37
0.0
 40
10.4494066521
 41
0.2916252011
 42
50.0
 43
0.0
 44
0.0
 50
0.0
 51
0.0
 71
     0
 72
   100
 73
     1
 74
     3
 75
     0
 76
     0
 77
     0
 78
     0
281
     0
 65
     1
110
0.0
120
0.0
130
0.0
111
1.0
121
0.0
131
0.0
112
0.0
122
1.0
132
0.0
 79
     0
146
0.0
  0
ENDTAB
  0
TABLE
  2
LTYPE
  5
5
330
0
100
AcDbSymbolTable
 70
     6
  0
LTYPE
  5
14
330
5
100
AcDbSymbolTableRecord
100
AcDbLinetypeTableRecord
  2
ByBlock
 70
     0
  3

 72
    65
 73
     0
 40
0.0
  0
LTYPE
  5
15
330
5
100
AcDbSymbolTableRecord
100
AcDbLinetypeTableRecord
  2
ByLayer
 70
     0
  3

 72
    65
 73
     0
 40
0.0
  0
LTYPE
  5
16
330
5
100
AcDbSymbolTableRecord
100
AcDbLinetypeTableRecord
  2
Continuous
 70
     0
  3
Solid line
 72
    65
 73
     0
 40
0.0
  0
LTYPE
  5
5E
330
5
100
AcDbSymbolTableRecord
100
AcDbLinetypeTableRecord
  2
HIDDEN
 70
     0
  3
Hidden __ __ __ __ __ __ __ __ __ __ __ __ __ __
 72
    65
 73
     2
 40
0.075
 49
0.05
 74
     0
 49
-0.025
 74
     0
  0
LTYPE
  5
5F
330
5
100
AcDbSymbolTableRecord
100
AcDbLinetypeTableRecord
  2
PHANTOM
 70
     0
  3
Phantom ______  __  __  ______  __  __  ______
 72
    65
 73
     6
 40
0.5
 49
0.25
 74
     0
 49
-0.05
 74
     0
 49
0.05
 74
     0
 49
-0.05
 74
     0
 49
0.05
 74
     0
 49
-0.05
 74
     0
  0
LTYPE
  5
60
330
5
100
AcDbSymbolTableRecord
100
AcDbLinetypeTableRecord
  2
CENTER
 70
     0
  3
Center ____ _ ____ _ ____ _ ____ _ ____ _ ____
 72
    65
 73
     4
 40
0.4
 49
0.25
 74
     0
 49
-0.05
 74
     0
 49
0.05
 74
     0
 49
-0.05
 74
     0
  0
LTYPE
  5
61
330
5
100
AcDbSymbolTableRecord
100
AcDbLinetypeTableRecord
  2
CENTERX2
 70
     0
  3
Center (2x) ________  __  ________  __  _____
 72
    65
 73
     4
 40
0.8
 49
0.5
 74
     0
 49
-0.1
 74
     0
 49
0.1
 74
     0
 49
-0.1
 74
     0
  0
LTYPE
  5
62
330
5
100
AcDbSymbolTableRecord
100
AcDbLinetypeTableRecord
  2
DOT2
 70
     0
  3
Dot (.5x) ........................................
 72
    65
 73
     2
 40
0.025
 49
0.0
 74
     0
 49
-0.025
 74
     0
  0
ENDTAB
  0
TABLE
  2
LAYER
  5
2
330
0
100
AcDbSymbolTable
 70
     1
  0
LAYER
  5
10
330
2
100
AcDbSymbolTableRecord
100
AcDbLayerTableRecord
  2
0
 70
     0
 62
     7
  6
Continuous
370
    -3
390
F
  0
ENDTAB
  0
TABLE
  2
STYLE
  5
3
330
0
100
AcDbSymbolTable
 70
     2
  0
STYLE
  5
11
330
3
100
AcDbSymbolTableRecord
100
AcDbTextStyleTableRecord
  2
Standard
 70
     0
 40
0.0
 41
1.0
 50
0.0
 71
     0
 42
0.1377952756
  3
txt
  4

  0
STYLE
  5
6B
330
3
100
AcDbSymbolTableRecord
100
AcDbTextStyleTableRecord
  2
SLDTEXTSTYLE0
 70
     0
 40
0.0
 41
0.7
 50
0.0
 71
     0
 42
0.1377952756
  3
TXT
  4

  0
ENDTAB
  0
TABLE
  2
VIEW
  5
6
330
0
100
AcDbSymbolTable
 70
     0
  0
ENDTAB
  0
TABLE
  2
UCS
  5
7
330
0
100
AcDbSymbolTable
 70
     0
  0
ENDTAB
  0
TABLE
  2
APPID
  5
9
330
0
100
AcDbSymbolTable
 70
     1
  0
APPID
  5
12
330
9
100
AcDbSymbolTableRecord
100
AcDbRegAppTableRecord
  2
ACAD
 70
     0
  0
ENDTAB
  0
TABLE
  2
DIMSTYLE
  5
A
330
0
100
AcDbSymbolTable
 70
     1
100
AcDbDimStyleTable
  0
DIMSTYLE
105
27
330
A
100
AcDbSymbolTableRecord
100
AcDbDimStyleTableRecord
  2
Standard
 70
     0
178
     0
340
11
  0
ENDTAB
  0
TABLE
  2
BLOCK_RECORD
  5
1
330
0
100
AcDbSymbolTable
 70
     1
  0
BLOCK_RECORD
  5
1F
330
1
100
AcDbSymbolTableRecord
100
AcDbBlockTableRecord
  2
*Model_Space
340
22
  0
BLOCK_RECORD
  5
1B
330
1
100
AcDbSymbolTableRecord
100
AcDbBlockTableRecord
  2
*Paper_Space
340
1E
  0
BLOCK_RECORD
  5
23
330
1
100
AcDbSymbolTableRecord
100
AcDbBlockTableRecord
  2
*Paper_Space0
340
26
  0
ENDTAB
  0
ENDSEC
  0
SECTION
  2
BLOCKS
  0
BLOCK
  5
20
330
1F
100
AcDbEntity
  8
0
100
AcDbBlockBegin
  2
*Model_Space
 70
     0
 10
0.0
 20
0.0
 30
0.0
  3
*Model_Space
  1

  0
ENDBLK
  5
21
330
1F
100
AcDbEntity
  8
0
100
AcDbBlockEnd
  0
BLOCK
  5
1C
330
1B
100
AcDbEntity
 67
     1
  8
0
100
AcDbBlockBegin
  2
*Paper_Space
 70
     0
 10
0.0
 20
0.0
 30
0.0
  3
*Paper_Space
  1

  0
ENDBLK
  5
1D
330
1B
100
AcDbEntity
 67
     1
  8
0
100
AcDbBlockEnd
  0
BLOCK
  5
24
330
23
100
AcDbEntity
  8
0
100
AcDbBlockBegin
  2
*Paper_Space0
 70
     0
 10
0.0
 20
0.0
 30
0.0
  3
*Paper_Space0
  1

  0
ENDBLK
  5
25
330
23
100
AcDbEntity
  8
0
100
AcDbBlockEnd
  0
ENDSEC
  0
SECTION
  2
ENTITIES
  0
SPLINE
  5
63
330
1F
100
AcDbEntity
  8
0
  6
Continuous
 62
     7
370
    25
100
AcDbSpline
210
0.0
220
0.0
230
1.0
 70
     8
 71
     3
 72
    65
 73
    61
 74
     0
 42
0.00000001
 43
0.00000001
 40
0.0
 40
0.0
 40
0.0
 40
0.0
 40
0.0052970693542632
 40
0.0107644907020179
 40
0.0164082959392992
 40
0.0222339691048085
 40
0.0282464966115046
 40
0.034450414334904
 40
0.0408498511953714
 40
0.0474485691053901
 40
0.0542499993147919
 40
0.0612572752936015
 40
0.0684732623574433
 40
0.0759005842758969
 40
0.0835416471186967
 40
0.0913986605950363
 40
0.0994736571324741
 40
0.1077685089276749
 40
0.1162849431839556
 40
0.1250245557320747
 40
0.138920365842662
 40
0.1528155650495087
 40
0.1667103278800966
 40
0.1806048288783506
 40
0.1944992425980637
 40
0.2083937435963171
 40
0.222288506426905
 40
0.236183705633752
 40
0.2500795157443394
 40
0.2871581152240764
 40
0.3217355829056359
 40
0.3538603354187311
 40
0.3835927738934635
 40
0.4110091155923053
 40
0.4362066037113508
 40
0.4593105155822644
 40
0.4804833236349602
 40
0.4999359475916775
 40
0.5249029503157987
 40
0.5491595597394044
 40
0.5734308040491901
 40
0.5984404386701535
 40
0.6248515853948936
 40
0.6517728540405562
 40
0.6814083842168244
 40
0.7140373503274178
 40
0.7498690269187391
 40
0.7744298515446418
 40
0.7991998424497154
 40
0.8241973853698209
 40
0.8494403688329454
 40
0.8749461649520347
 40
0.8905789169275019
 40
0.906210792409805
 40
0.921842083536027
 40
0.937473082476017
 40
0.953104081416007
 40
0.9687353725422299
 40
0.9843672480245323
 40
1.0
 40
1.0
 40
1.0
 40
1.0
 10
7.44212571566934
 20
-1.483001129701592
 30
0.0
 10
7.444989016453968
 20
-1.481112614001571
 30
0.0
 10
7.450807700826749
 20
-1.477274848563001
 30
0.0
 10
7.459411816695279
 20
-1.47103781366969
 30
0.0
 10
7.468098170816872
 20
-1.464342415789161
 30
0.0
 10
7.476846762914088
 20
-1.457157553699187
 30
0.0
 10
7.485663316914006
 20
-1.449491966589779
 30
0.0
 10
7.494546316471503
 20
-1.441343189543249
 30
0.0
 10
7.503496266973882
 20
-1.432711897548719
 30
0.0
 10
7.512513094777773
 20
-1.423597878732891
 30
0.0
 10
7.521596878981058
 20
-1.414001167264826
 30
0.0
 10
7.530747646008876
 20
-1.403921725999216
 30
0.0
 10
7.539965432988303
 20
-1.393359539747116
 30
0.0
 10
7.549250253034228
 20
-1.382314577533609
 30
0.0
 10
7.558602176055912
 20
-1.370786851853915
 30
0.0
 10
7.56802103390701
 20
-1.358776214946691
 30
0.0
 10
7.577507566121006
 20
-1.346283145521101
 30
0.0
 10
7.587058969228181
 20
-1.333305692602218
 30
0.0
 10
7.596686189909289
 20
-1.319851348688834
 30
0.0
 10
7.608163767965529
 20
-1.303265272185461
 30
0.0
 10
7.621535769265972
 20
-1.283755886437277
 30
0.0
 10
7.636927428407889
 20
-1.261584565062836
 30
0.0
 10
7.652382653557249
 20
-1.239458711027273
 30
0.0
 10
7.667919818028743
 20
-1.217390877185998
 30
0.0
 10
7.683533807489378
 20
-1.195377562560003
 30
0.0
 10
7.699226706637522
 20
-1.173420218768122
 30
0.0
 10
7.714995290798067
 20
-1.151516540258025
 30
0.0
 10
7.730850374355693
 20
-1.129674297989442
 30
0.0
 10
7.755594592390637
 20
-1.095736648898845
 30
0.0
 10
7.788961539157659
 20
-1.051510333261809
 30
0.0
 10
7.831347480273343
 20
-0.9993503202674322
 30
0.0
 10
7.872620078623707
 20
-0.9524737501580283
 30
0.0
 10
7.912807305628642
 20
-0.9108949498181305
 30
0.0
 10
7.951909256645851
 20
-0.8746057898444891
 30
0.0
 10
7.989935532186897
 20
-0.8436002541680665
 30
0.0
 10
8.026902360326432
 20
-0.817884325132396
 30
0.0
 10
8.062820355452013
 20
-0.797431109731751
 30
0.0
 10
8.101891928271373
 20
-0.7805586716715479
 30
0.0
 10
8.145013925800429
 20
-0.7688628872208898
 30
0.0
 10
8.19262037534919
 20
-0.7643167691059533
 30
0.0
 10
8.240318171350088
 20
-0.7682513684153162
 30
0.0
 10
8.287973922090742
 20
-0.7805914577412737
 30
0.0
 10
8.334665949678264
 20
-0.8008760039174191
 30
0.0
 10
8.380767569203144
 20
-0.8286850216756546
 30
0.0
 10
8.426855191743021
 20
-0.8636192649037575
 30
0.0
 10
8.474011516029842
 20
-0.9062672430199036
 30
0.0
 10
8.515612679811081
 20
-0.9498777013126739
 30
0.0
 10
8.55194135269915
 20
-0.9913641882518308
 30
0.0
 10
8.58271041923904
 20
-1.028375979765396
 30
0.0
 10
8.61271422522133
 20
-1.066572959941479
 30
0.0
 10
8.642020009122927
 20
-1.10590551125414
 30
0.0
 10
8.666680660226124
 20
-1.141111263571628
 30
0.0
 10
8.687452400648088
 20
-1.171435819572732
 30
0.0
 10
8.704801664048464
 20
-1.196354864687269
 30
0.0
 10
8.722235735066215
 20
-1.221212914944015
 30
0.0
 10
8.739782847591988
 20
-1.245990728710335
 30
0.0
 10
8.75743479614092
 20
-1.270693934052405
 30
0.0
 10
8.775196169980909
 20
-1.29531925927392
 30
0.0
 10
8.793056816828305
 20
-1.319874163362465
 30
0.0
 10
8.805053700554327
 20
-1.336178882490054
 30
0.0
 10
8.811052310581607
 20
-1.344331470602468
 30
0.0
  0
SPLINE
  5
64
330
1F
100
AcDbEntity
  8
0
  6
Continuous
 62
     7
370
    25
100
AcDbSpline
210
0.0
220
0.0
230
1.0
 70
     8
 71
     3
 72
    37
 73
    33
 74
     0
 42
0.00000001
 43
0.00000001
 40
0.0
 40
0.0
 40
0.0
 40
0.0
 40
0.173322419323544
 40
0.3100138849800815
 40
0.4100744185766161
 40
0.4735040791545961
 40
0.5003031678625459
 40
0.5224331911224016
 40
0.5439035519850732
 40
0.5647150054539427
 40
0.5848683805862258
 40
0.6043645903917265
 40
0.6232046434213641
 40
0.6413896573988447
 40
0.6589208753367005
 40
0.6757996846913373
 40
0.692027640258742
 40
0.7076064917050822
 40
0.7225382168799764
 40
0.7368250623971649
 40
0.7504695934183279
 40
0.7774566031504762
 40
0.8034062223956999
 40
0.8283645188004876
 40
0.8523832647222613
 40
0.8755205404402122
 40
0.8978413082453441
 40
0.9194179066552175
 40
0.9403303980954923
 40
0.960666690120012
 40
0.980522344834521
 40
0.9999999999999999
 40
0.9999999999999999
 40
0.9999999999999999
 40
0.9999999999999999
 10
7.057263264328464
 20
-0.6950055350363719
 30
0.0
 10
7.074320210577258
 20
-0.743701333844626
 30
0.0
 10
7.104829190276036
 20
-0.8308012821933424
 30
0.0
 10
7.145238231963413
 20
-0.9459947207827062
 30
0.0
 10
7.17481648848081
 20
-1.030320154981527
 30
0.0
 10
7.193689824120607
 20
-1.08372967586148
 30
0.0
 10
7.204779001974249
 20
-1.115288662736649
 30
0.0
 10
7.212275634650932
 20
-1.134860716233548
 30
0.0
 10
7.219141535853061
 20
-1.152763961448288
 30
0.0
 10
7.225927101506192
 20
-1.170067759362076
 30
0.0
 10
7.232600712714276
 20
-1.186783668307907
 30
0.0
 10
7.239170440978186
 20
-1.202908748121543
 30
0.0
 10
7.245634216427815
 20
-1.218443765125355
 30
0.0
 10
7.251992556644234
 20
-1.233388542140021
 30
0.0
 10
7.258245314695094
 20
-1.247743147685975
 30
0.0
 10
7.264392527722308
 20
-1.261507583861668
 30
0.0
 10
7.270434128513197
 20
-1.274681901788645
 30
0.0
 10
7.276370274621137
 20
-1.287266049272763
 30
0.0
 10
7.282200367251332
 20
-1.299260346154721
 30
0.0
 10
7.287926442988957
 20
-1.310663841370261
 30
0.0
 10
7.295459108581267
 20
-1.325174322055156
 30
0.0
 10
7.305051142959719
 20
-1.342525432558583
 30
0.0
 10
7.31709501182527
 20
-1.362349093261265
 30
0.0
 10
7.32950077795301
 20
-1.380895076696102
 30
0.0
 10
7.342272334159137
 20
-1.398161437875993
 30
0.0
 10
7.355409685696634
 20
-1.414148298495522
 30
0.0
 10
7.36891348943359
 20
-1.428855858597313
 30
0.0
 10
7.382785718552399
 20
-1.442281039420404
 30
0.0
 10
7.397022747653279
 20
-1.45443177233726
 30
0.0
 10
7.411640705903767
 20
-1.465275236079744
 30
0.0
 10
7.426583779486557
 20
-1.474923624877204
 30
0.0
 10
7.436978362767011
 20
-1.480325923885168
 30
0.0
 10
7.442125707583485
 20
-1.483001114900085
 30
0.0
  0
SPLINE
  5
67
330
1F
100
AcDbEntity
  8
0
  6
Continuous
 62
     7
370
    25
100
AcDbSpline
210
0.0
220
0.0
230
1.0
 70
     8
 71
     3
 72
    54
 73
    50
 74
     0
 42
0.00000001
 43
0.00000001
 40
0.0
 40
0.0
 40
0.0
 40
0.0
 40
0.0067585567192847
 40
0.0138439459143612
 40
0.0212587683076937
 40
0.029005292829351
 40
0.0370855089876998
 40
0.045501169634831
 40
0.0542538260916298
 40
0.0633448571626815
 40
0.0727754932377271
 40
0.0825468364200177
 40
0.0926598774242493
 40
0.1031155098336967
 40
0.1139145421871397
 40
0.1250577082731753
 40
0.1458985382831445
 40
0.1667393614407459
 40
0.1875801811721628
 40
0.2084210009035793
 40
0.2292618240611803
 40
0.2501026540711482
 40
0.2969592187341468
 40
0.3400795769145145
 40
0.3794742899789277
 40
0.4151572275750745
 40
0.4471470875902798
 40
0.4754698830443508
 40
0.5001632188075219
 40
0.528596976466859
 40
0.5535552443408921
 40
0.5752554231329181
 40
0.5940284475997322
 40
0.6103839114986587
 40
0.6250850003956889
 40
0.6381573655271351
 40
0.651801888994398
 40
0.6668060460495155
 40
0.6837690014225533
 40
0.7031087118342377
 40
0.725108083652429
 40
0.7499593560494187
 40
0.7741119689046898
 40
0.802061374439079
 40
0.8338553546353976
 40
0.8695262451307462
 40
0.909096878506363
 40
0.9525839451787977
 40
1.0
 40
1.0
 40
1.0
 40
1.0
 10
8.811052310581612
 20
-1.344331470602473
 30
0.0
 10
8.813963390753294
 20
-1.339105033573979
 30
0.0
 10
8.81992632605487
 20
-1.328399417781655
 30
0.0
 10
8.828652311841623
 20
-1.311725875414722
 30
0.0
 10
8.837492706001763
 20
-1.294129657785143
 30
0.0
 10
8.846412195024397
 20
-1.275590723574334
 30
0.0
 10
8.85542089285035
 20
-1.256114687443865
 30
0.0
 10
8.864515897918983
 20
-1.235699837379035
 30
0.0
 10
8.873698026726432
 20
-1.214346572483054
 30
0.0
 10
8.882967019383885
 20
-1.19205469903804
 30
0.0
 10
8.892322978909684
 20
-1.168824223510416
 30
0.0
 10
8.901765677579094
 20
-1.144655026225446
 30
0.0
 10
8.91129587661182
 20
-1.119547341691132
 30
0.0
 10
8.920910543342076
 20
-1.093500091726193
 30
0.0
 10
8.930621498715741
 20
-1.066517354975096
 30
0.0
 10
8.94311326020254
 20
-1.030767773572312
 30
0.0
 10
8.958383166374572
 20
-0.9865741887176255
 30
0.0
 10
8.976546588316848
 20
-0.9342986614262598
 30
0.0
 10
8.994713528404889
 20
-0.8820244079717691
 30
0.0
 10
9.012903315734372
 20
-0.8297580941891783
 30
0.0
 10
9.031125355000748
 20
-0.7775029773051381
 30
0.0
 10
9.056894646283489
 20
-0.7034923764776821
 30
0.0
 10
9.089706014223541
 20
-0.6110509512666579
 30
0.0
 10
9.129636018101426
 20
-0.5037211141580318
 30
0.0
 10
9.167744429789472
 20
-0.4062807036593488
 30
0.0
 10
9.204055776867907
 20
-0.3187345852047341
 30
0.0
 10
9.238567523231659
 20
-0.2410783050026193
 30
0.0
 10
9.27125096760746
 20
-0.1732868331176021
 30
0.0
 10
9.30523032514763
 20
-0.1096753882369669
 30
0.0
 10
9.341319721286053
 20
-0.050659981389487
 30
0.0
 10
9.380387986943912
 20
0.0032213787082892
 30
0.0
 10
9.419178017017085
 20
0.0464125004595387
 30
0.0
 10
9.457808770950834
 20
0.0789600563582554
 30
0.0
 10
9.496512499536102
 20
0.1007968430429865
 30
0.0
 10
9.534651669121603
 20
0.1112806337451256
 30
0.0
 10
9.571756410602353
 20
0.1107697430015358
 30
0.0
 10
9.607640922977051
 20
0.1005971998012673
 30
0.0
 10
9.643307216876474
 20
0.0811203519060297
 30
0.0
 10
9.678874568601113
 20
0.0525989807601592
 30
0.0
 10
9.714504867111206
 20
0.0151036910404414
 30
0.0
 10
9.750280225048268
 20
-0.0313915401395818
 30
0.0
 10
9.784561363389082
 20
-0.0841337216928526
 30
0.0
 10
9.817962526607099
 20
-0.1435325251433444
 30
0.0
 10
9.851275734217236
 20
-0.2099234900611772
 30
0.0
 10
9.88650498262291
 20
-0.2866939072013022
 30
0.0
 10
9.923620807860743
 20
-0.3738732883808483
 30
0.0
 10
9.962602294204277
 20
-0.4714742364851747
 30
0.0
 10
10.00355605981034
 20
-0.5794640577055326
 30
0.0
 10
10.03067622536909
 20
-0.6552192005462154
 30
0.0
 10
10.04482239808312
 20
-0.6947339052879359
 30
0.0
  0
SPLINE
  5
68
330
1F
100
AcDbEntity
  8
0
  6
Continuous
 62
     7
370
    25
100
AcDbSpline
210
0.0
220
0.0
230
1.0
 70
     8
 71
     3
 72
    95
 73
    91
 74
     0
 42
0.00000001
 43
0.00000001
 40
0.0
 40
0.0
 40
0.0
 40
0.0
 40
0.0111144061831918
 40
0.0218209463926594
 40
0.0321211951486203
 40
0.0420169209096839
 40
0.051510118209195
 40
0.0606030464681482
 40
0.0692982771380765
 40
0.0775987512937991
 40
0.0855078504044526
 40
0.0930294838042021
 40
0.1001681974126948
 40
0.1069293095766582
 40
0.1133190815701702
 40
0.1193449323225715
 40
0.1250157092690865
 40
0.1367793065111867
 40
0.1478283332595559
 40
0.1582799640175619
 40
0.1682724111813392
 40
0.1779635533505453
 40
0.1875262043517223
 40
0.2062338369738753
 40
0.2267550870478308
 40
0.2499607060620622
 40
0.260668171299599
 40
0.2727363309693153
 40
0.286196107267453
 40
0.3010697454356842
 40
0.3173737044918286
 40
0.3351204642983636
 40
0.3543196913801669
 40
0.3749790135284831
 40
0.3876772394324751
 40
0.3991196258129296
 40
0.4093064927194293
 40
0.418238295168106
 40
0.4259157113294177
 40
0.4323398166496994
 40
0.4375124683621682
 40
0.4465928240944766
 40
0.4548141671231197
 40
0.4621997535093025
 40
0.4687817042417779
 40
0.4769573536462849
 40
0.4847749114559922
 40
0.4924018943233042
 40
0.5000184037492749
 40
0.5075182477925708
 40
0.5162232503544987
 40
0.5262084995164863
 40
0.5375236245420956
 40
0.5475527697167651
 40
0.5625379913835272
 40
0.5754662524644243
 40
0.5873885120933537
 40
0.5983067391364446
 40
0.6082235004974182
 40
0.6171422278190511
 40
0.6250676492719401
 40
0.6457708079453018
 40
0.6663652632737926
 40
0.6869715578423895
 40
0.7077100277899547
 40
0.7286987359453438
 40
0.7500515947386267
 40
0.7559354322056511
 40
0.7636323096500615
 40
0.7731443103121552
 40
0.7844725160810556
 40
0.7976175604109511
 40
0.8125798460008187
 40
0.8220416133924395
 40
0.8304030460966181
 40
0.8376691947168923
 40
0.8438477964105888
 40
0.8607335855273371
 40
0.875044821529985
 40
0.8806334287466868
 40
0.8867300807594782
 40
0.8934177767849236
 40
0.9007594978170544
 40
0.9088028761197138
 40
0.9175841333501412
 40
0.9271310962072687
 40
0.9374654079049571
 40
0.9496736672991393
 40
0.9705179197830274
 40
1.0
 40
1.0
 40
1.0
 40
1.0
 10
10.04482239808312
 20
8.416134039347797
 30
0.0
 10
10.03701502968413
 20
8.404912674415034
 30
0.0
 10
10.02168680031281
 20
8.382881735594328
 30
0.0
 10
9.998654755665608
 20
8.350781186767724
 30
0.0
 10
9.976133299342768
 20
8.320162949368163
 30
0.0
 10
9.95409216934481
 20
8.291047816669348
 30
0.0
 10
9.932538999259414
 20
8.263430384393807
 30
0.0
 10
9.911471841162308
 20
8.237311837017513
 30
0.0
 10
9.8908911424658
 20
8.212691669754673
 30
0.0
 10
9.870796727368427
 20
8.189569759342373
 30
0.0
 10
9.851188525980854
 20
8.16794586726398
 30
0.0
 10
9.832066442677377
 20
8.147819654232276
 30
0.0
 10
9.813430141069466
 20
8.129191028282495
 30
0.0
 10
9.79527985403367
 20
8.112058818401792
 30
0.0
 10
9.777613443616191
 20
8.09642535174734
 30
0.0
 10
9.760436331283646
 20
8.082280765065766
 30
0.0
 10
9.737408787985
 20
8.064882849560227
 30
0.0
 10
9.708107495024667
 20
8.04558427049809
 30
0.0
 10
9.6718916411093
 20
8.026401912568538
 30
0.0
 10
9.635804806659507
 20
8.012090035583515
 30
0.0
 10
9.599858872060565
 20
8.00265981461824
 30
0.0
 10
9.564060075837105
 20
7.998147960400242
 30
0.0
 10
9.517235513784323
 20
7.998687241042626
 30
0.0
 10
9.457946778318451
 20
8.011733711418056
 30
0.0
 10
9.388306200134895
 20
8.045271598719644
 30
0.0
 10
9.33384995873998
 20
8.08475176702801
 30
0.0
 10
9.291706146405168
 20
8.122494188565083
 30
0.0
 10
9.260284268174205
 20
8.154132735124177
 30
0.0
 10
9.226829341583954
 20
8.190890068973552
 30
0.0
 10
9.191367173310098
 20
8.232815324970765
 30
0.0
 10
9.153886005991136
 20
8.279899784940573
 30
0.0
 10
9.114397898371214
 20
8.332157798340214
 30
0.0
 10
9.0728623377759
 20
8.389563513806948
 30
0.0
 10
9.036049852707535
 20
8.442702153923797
 30
0.0
 10
9.004938165703184
 20
8.488179447078705
 30
0.0
 10
8.980861317021304
 20
8.522862644686679
 30
0.0
 10
8.959264446352405
 20
8.55362729209089
 30
0.0
 10
8.940127357026354
 20
8.580460159610585
 30
0.0
 10
8.92345086069659
 20
8.60336176873497
 30
0.0
 10
8.909253673039823
 20
8.622347993116987
 30
0.0
 10
8.893586756406144
 20
8.64238351275038
 30
0.0
 10
8.875771476802564
 20
8.663532188998131
 30
0.0
 10
8.855179778982823
 20
8.685863837949471
 30
0.0
 10
8.83551957412865
 20
8.704819968840457
 30
0.0
 10
8.814584216952348
 20
8.722283863871603
 30
0.0
 10
8.791359952338475
 20
8.73766047635654
 30
0.0
 10
8.765016346642442
 20
8.750156193027827
 30
0.0
 10
8.737732465069287
 20
8.75830837000437
 30
0.0
 10
8.709889860321681
 20
8.762059993670256
 30
0.0
 10
8.68051783876259
 20
8.761518304148431
 30
0.0
 10
8.648508824733657
 20
8.757562579901464
 30
0.0
 10
8.612319558618568
 20
8.750184643143537
 30
0.0
 10
8.57508026622473
 20
8.740207843990223
 30
0.0
 10
8.532438106096139
 20
8.726845132950972
 30
0.0
 10
8.488089779997397
 20
8.712319472861397
 30
0.0
 10
8.441501269385236
 20
8.697148793116854
 30
0.0
 10
8.399483721544629
 20
8.684107743760805
 30
0.0
 10
8.360848823494793
 20
8.672675328800867
 30
0.0
 10
8.32558625653217
 20
8.662882505258457
 30
0.0
 10
8.293700123732458
 20
8.654706981841386
 30
0.0
 10
8.248675115815292
 20
8.644418794130228
 30
0.0
 10
8.188940284226717
 20
8.634166342431397
 30
0.0
 10
8.113072659433975
 20
8.626961990378438
 30
0.0
 10
8.03682820206229
 20
8.625629255985684
 30
0.0
 10
7.960215811070864
 20
8.630108930927118
 30
0.0
 10
7.883272204328037
 20
8.64051991914647
 30
0.0
 10
7.825106901731556
 20
8.65246835838071
 30
0.0
 10
7.783554937294261
 20
8.663413740600078
 30
0.0
 10
7.756261299912266
 20
8.67127912459278
 30
0.0
 10
7.722642059933444
 20
8.681363409584753
 30
0.0
 10
7.682713474481905
 20
8.693731257600763
 30
0.0
 10
7.636458276782307
 20
8.708328360891906
 30
0.0
 10
7.592501314809774
 20
8.722572517359984
 30
0.0
 10
7.554063309034542
 20
8.734767251196333
 30
0.0
 10
7.524431253758393
 20
8.74338987634436
 30
0.0
 10
7.498484359141963
 20
8.750202410963476
 30
0.0
 10
7.46207409469361
 20
8.758332466439361
 30
0.0
 10
7.416173274671672
 20
8.763758637694389
 30
0.0
 10
7.370518227199352
 20
8.758618336014099
 30
0.0
 10
7.34047456355697
 20
8.74737793557784
 30
0.0
 10
7.320483470667421
 20
8.736729445946525
 30
0.0
 10
7.299935612959024
 20
8.722861041733351
 30
0.0
 10
7.278828242960765
 20
8.70574131659504
 30
0.0
 10
7.257145931309357
 20
8.685379445657242
 30
0.0
 10
7.234878884335378
 20
8.66177121123084
 30
0.0
 10
7.212036642742392
 20
8.634903981851373
 30
0.0
 10
7.187745144568595
 20
8.603779681312705
 30
0.0
 10
7.156865742863885
 20
8.560248240382263
 30
0.0
 10
7.112879323720268
 20
8.497157402162149
 30
0.0
 10
7.077808430738797
 20
8.446152124444954
 30
0.0
 10
7.057263264328472
 20
8.416272305899751
 30
0.0
  0
LINE
  5
69
330
1F
100
AcDbEntity
  8
0
  6
Continuous
 62
     7
370
    25
100
AcDbLine
 10
7.0572632643
 20
8.4162723059
 30
0.0
 11
7.0572632643
 21
-0.695005535
 31
0.0
  0
LINE
  5
6A
330
1F
100
AcDbEntity
  8
0
  6
Continuous
 62
     7
370
    25
100
AcDbLine
 10
10.0448223981
 20
-0.6947339053
 30
0.0
 11
10.0448223981
 21
8.4161340393
 31
0.0
  0
MTEXT
  5
6C
330
1F
100
AcDbEntity
  8
0
  6
Continuous
 62
     7
100
AcDbMText
 10
7.0572632643
 20
-1.5231415388
 30
0.0
 40
0.1903
 41
0.0
 71
     1
 72
     1
  1
SOLIDWORKS Educational Product.
  7
SLDTEXTSTYLE0
 73
     1
 44
1.0
  0
MTEXT
  5
6D
330
1F
100
AcDbEntity
  8
0
  6
Continuous
 62
     7
100
AcDbMText
 10
7.0572632643
 20
-1.8085915388
 30
0.0
 40
0.1903
 41
0.0
 71
     1
 72
     1
  1
For Instructional Use Only.
  7
SLDTEXTSTYLE0
 73
     1
 44
1.0
  0
ENDSEC
  0
SECTION
  2
OBJECTS
  0
DICTIONARY
  5
C
330
0
100
AcDbDictionary
281
     1
  3
ACAD_GROUP
350
D
  3
ACAD_LAYOUT
350
1A
  3
ACAD_MLINESTYLE
350
17
  3
ACAD_PLOTSETTINGS
350
19
  3
ACAD_PLOTSTYLENAME
350
E
  3
ACAD_SCALELIST
350
47
  3
DWGPROPS
350
6E
  0
DICTIONARY
  5
D
102
{ACAD_REACTORS
330
C
102
}
330
C
100
AcDbDictionary
281
     1
  0
DICTIONARY
  5
1A
102
{ACAD_REACTORS
330
C
102
}
330
C
100
AcDbDictionary
281
     1
  3
Layout1
350
1E
  3
Layout2
350
26
  3
Model
350
22
  0
DICTIONARY
  5
17
102
{ACAD_REACTORS
330
C
102
}
330
C
100
AcDbDictionary
281
     1
  3
Standard
350
18
  0
DICTIONARY
  5
19
102
{ACAD_REACTORS
330
C
102
}
330
C
100
AcDbDictionary
281
     1
  0
ACDBDICTIONARYWDFLT
  5
E
102
{ACAD_REACTORS
330
C
102
}
330
C
100
AcDbDictionary
281
     1
  3
Normal
350
F
100
AcDbDictionaryWithDefault
340
F
  0
DICTIONARY
  5
47
102
{ACAD_REACTORS
330
C
102
}
330
C
100
AcDbDictionary
281
     1
  3
A0
350
48
  3
A1
350
49
  3
A2
350
4A
  3
A3
350
4B
  3
A4
350
4C
  3
A5
350
4D
  3
A6
350
4E
  3
A7
350
4F
  3
A8
350
50
  3
A9
350
51
  3
B1
350
52
  3
B2
350
53
  3
B3
350
54
  3
B4
350
55
  3
B5
350
56
  3
B6
350
57
  3
B7
350
58
  0
XRECORD
  5
6E
102
{ACAD_REACTORS
330
C
102
}
330
C
100
AcDbXrecord
280
     1
  1
DWGPROPS COOKIE
  2

  3

  4

  6

  7

  8
manny
  9

300
=
301
=
302
=
303
=
304
=
305
=
306
=
307
=
308
=
309
=
 40
0.0
 41
2460633.165686401
 42
2460633.16574463
  1

 90
        0
  0
LAYOUT
  5
1E
102
{ACAD_REACTORS
330
1A
102
}
330
1A
100
AcDbPlotSettings
  1

  2
none_device
  4

  6

 40
0.0
 41
0.0
 42
0.0
 43
0.0
 44
0.0
 45
0.0
 46
0.0
 47
0.0
 48
0.0
 49
0.0
140
0.0
141
0.0
142
1.0
143
1.0
 70
   688
 72
     0
 73
     0
 74
     5
  7

 75
    16
147
1.0
148
0.0
149
0.0
100
AcDbLayout
  1
Layout1
 70
     1
 71
     1
 10
0.0
 20
0.0
 11
12.0
 21
9.0
 12
0.0
 22
0.0
 32
0.0
 14
1.0000000000E+20
 24
1.0000000000E+20
 34
1.0000000000E+20
 15
-1.0000000000E+20
 25
-1.0000000000E+20
 35
-1.0000000000E+20
146
0.0
 13
0.0
 23
0.0
 33
0.0
 16
1.0
 26
0.0
 36
0.0
 17
0.0
 27
1.0
 37
0.0
 76
     0
330
1B
  0
LAYOUT
  5
26
102
{ACAD_REACTORS
330
1A
102
}
330
1A
100
AcDbPlotSettings
  1

  2
none_device
  4

  6

 40
0.0
 41
0.0
 42
0.0
 43
0.0
 44
0.0
 45
0.0
 46
0.0
 47
0.0
 48
0.0
 49
0.0
140
0.0
141
0.0
142
1.0
143
1.0
 70
   688
 72
     0
 73
     0
 74
     5
  7

 75
    16
147
1.0
148
0.0
149
0.0
100
AcDbLayout
  1
Layout2
 70
     1
 71
     2
 10
0.0
 20
0.0
 11
0.0
 21
0.0
 12
0.0
 22
0.0
 32
0.0
 14
0.0
 24
0.0
 34
0.0
 15
0.0
 25
0.0
 35
0.0
146
0.0
 13
0.0
 23
0.0
 33
0.0
 16
1.0
 26
0.0
 36
0.0
 17
0.0
 27
1.0
 37
0.0
 76
     0
330
23
  0
LAYOUT
  5
22
102
{ACAD_REACTORS
330
1A
102
}
330
1A
100
AcDbPlotSettings
  1

  2
none_device
  4
ANSI_A_(11.00_x_8.50_Inches)
  6

 40
6.35
 41
19.05
 42
6.35000508
 43
19.05000254
 44
279.4
 45
215.9
 46
-45.0584688541
 47
12.9707490915
 48
0.0
 49
0.0
140
0.0
141
0.0
142
0.8214150608
143
1.0
 70
  1696
 72
     0
 73
     0
 74
     0
  7

 75
     0
147
0.5913241897
148
-39.4088153714
149
0.0
100
AcDbLayout
  1
Model
 70
     1
 71
     0
 10
0.0
 20
0.0
 11
12.0
 21
9.0
 12
0.0
 22
0.0
 32
0.0
 14
7.0572632643
 24
-1.4830011297
 34
0.0
 15
10.0448223981
 25
8.7615151959
 35
0.0
146
0.0
 13
0.0
 23
0.0
 33
0.0
 16
1.0
 26
0.0
 36
0.0
 17
0.0
 27
1.0
 37
0.0
 76
     0
330
1F
331
29
  0
MLINESTYLE
  5
18
102
{ACAD_REACTORS
330
17
102
}
330
17
100
AcDbMlineStyle
  2
Standard
 70
     0
  3

 62
   256
 51
90.0
 52
90.0
 71
     2
 49
0.5
 62
   256
  6
BYLAYER
 49
-0.5
 62
   256
  6
BYLAYER
  0
ACDBPLACEHOLDER
  5
F
102
{ACAD_REACTORS
330
E
102
}
330
E
  0
SCALE
  5
48
102
{ACAD_REACTORS
330
47
102
}
330
47
100
AcDbScale
 70
     0
300
1:1
140
1.0
141
1.0
290
     1
  0
SCALE
  5
49
102
{ACAD_REACTORS
330
47
102
}
330
47
100
AcDbScale
 70
     0
300
1/128" = 1'-0"
140
0.0078125
141
12.0
290
     0
  0
SCALE
  5
4A
102
{ACAD_REACTORS
330
47
102
}
330
47
100
AcDbScale
 70
     0
300
1/64" = 1'-0"
140
0.015625
141
12.0
290
     0
  0
SCALE
  5
4B
102
{ACAD_REACTORS
330
47
102
}
330
47
100
AcDbScale
 70
     0
300
1/32" = 1'-0"
140
0.03125
141
12.0
290
     0
  0
SCALE
  5
4C
102
{ACAD_REACTORS
330
47
102
}
330
47
100
AcDbScale
 70
     0
300
1/16" = 1'-0"
140
0.0625
141
12.0
290
     0
  0
SCALE
  5
4D
102
{ACAD_REACTORS
330
47
102
}
330
47
100
AcDbScale
 70
     0
300
3/32" = 1'-0"
140
0.09375
141
12.0
290
     0
  0
SCALE
  5
4E
102
{ACAD_REACTORS
330
47
102
}
330
47
100
AcDbScale
 70
     0
300
1/8" = 1'-0"
140
0.125
141
12.0
290
     0
  0
SCALE
  5
4F
102
{ACAD_REACTORS
330
47
102
}
330
47
100
AcDbScale
 70
     0
300
3/16" = 1'-0"
140
0.1875
141
12.0
290
     0
  0
SCALE
  5
50
102
{ACAD_REACTORS
330
47
102
}
330
47
100
AcDbScale
 70
     0
300
1/4" = 1'-0"
140
0.25
141
12.0
290
     0
  0
SCALE
  5
51
102
{ACAD_REACTORS
330
47
102
}
330
47
100
AcDbScale
 70
     0
300
3/8" = 1'-0"
140
0.375
141
12.0
290
     0
  0
SCALE
  5
52
102
{ACAD_REACTORS
330
47
102
}
330
47
100
AcDbScale
 70
     0
300
1/2" = 1'-0"
140
0.5
141
12.0
290
     0
  0
SCALE
  5
53
102
{ACAD_REACTORS
330
47
102
}
330
47
100
AcDbScale
 70
     0
300
3/4" = 1'-0"
140
0.75
141
12.0
290
     0
  0
SCALE
  5
54
102
{ACAD_REACTORS
330
47
102
}
330
47
100
AcDbScale
 70
     0
300
1" = 1'-0"
140
1.0
141
12.0
290
     0
  0
SCALE
  5
55
102
{ACAD_REACTORS
330
47
102
}
330
47
100
AcDbScale
 70
     0
300
1-1/2" = 1'-0"
140
1.5
141
12.0
290
     0
  0
SCALE
  5
56
102
{ACAD_REACTORS
330
47
102
}
330
47
100
AcDbScale
 70
     0
300
3" = 1'-0"
140
3.0
141
12.0
290
     0
  0
SCALE
  5
57
102
{ACAD_REACTORS
330
47
102
}
330
47
100
AcDbScale
 70
     0
300
6" = 1'-0"
140
6.0
141
12.0
290
     0
  0
SCALE
  5
58
102
{ACAD_REACTORS
330
47
102
}
330
47
100
AcDbScale
 70
     0
300
1'-0" = 1'-0"
140
12.0
141
12.0
290
     0
  0
ENDSEC
  0
EOF
