  0
SECTION
  2
HEADER
  9
$ACADVER
  1
AC1015
  9
$ACADMAINTVER
 70
     6
  9
$DWGCODEPAGE
  3
ANSI_1252
  9
$INSBASE
 10
0.0
 20
0.0
 30
0.0
  9
$EXTMIN
 10
3.7750391019
 20
-19.8229048577
 30
0.0
  9
$EXTMAX
 10
6.7123346449
 20
-7.1771102233
 30
0.0
  9
$LIMMIN
 10
0.0
 20
0.0
  9
$LIMMAX
 10
12.0
 20
9.0
  9
$ORTHOMODE
 70
     0
  9
$REGENMODE
 70
     1
  9
$FILLMODE
 70
     1
  9
$QTEXTMODE
 70
     0
  9
$MIRRTEXT
 70
     1
  9
$LTSCALE
 40
1.0
  9
$ATTMODE
 70
     1
  9
$TEXTSIZE
 40
0.1377952756
  9
$TRACEWID
 40
0.05
  9
$TEXTSTYLE
  7
Standard
  9
$CLAYER
  8
0
  9
$CELTYPE
  6
ByLayer
  9
$CECOLOR
 62
   256
  9
$CELTSCALE
 40
1.0
  9
$DISPSILH
 70
     0
  9
$DIMSCALE
 40
1.0
  9
$DIMASZ
 40
0.13
  9
$DIMEXO
 40
0.0
  9
$DIMDLI
 40
0.38
  9
$DIMRND
 40
0.0
  9
$DIMDLE
 40
0.0
  9
$DIMEXE
 40
0.0393700787
  9
$DIMTP
 40
0.0
  9
$DIMTM
 40
0.0
  9
$DIMTXT
 40
0.1377952756
  9
$DIMCEN
 40
0.09
  9
$DIMTSZ
 40
0.0
  9
$DIMTOL
 70
     0
  9
$DIMLIM
 70
     0
  9
$DIMTIH
 70
     1
  9
$DIMTOH
 70
     1
  9
$DIMSE1
 70
     0
  9
$DIMSE2
 70
     0
  9
$DIMTAD
 70
     1
  9
$DIMZIN
 70
     1
  9
$DIMBLK
  1

  9
$DIMASO
 70
     1
  9
$DIMSHO
 70
     1
  9
$DIMPOST
  1

  9
$DIMAPOST
  1

  9
$DIMALT
 70
     0
  9
$DIMALTD
 70
     2
  9
$DIMALTF
 40
25.4
  9
$DIMLFAC
 40
1.0
  9
$DIMTOFL
 70
     0
  9
$DIMTVP
 40
0.0
  9
$DIMTIX
 70
     0
  9
$DIMSOXD
 70
     0
  9
$DIMSAH
 70
     0
  9
$DIMBLK1
  1

  9
$DIMBLK2
  1

  9
$DIMSTYLE
  2
Standard
  9
$DIMCLRD
 70
     0
  9
$DIMCLRE
 70
     0
  9
$DIMCLRT
 70
     0
  9
$DIMTFAC
 40
1.0
  9
$DIMGAP
 40
0.06
  9
$DIMJUST
 70
     0
  9
$DIMSD1
 70
     0
  9
$DIMSD2
 70
     0
  9
$DIMTOLJ
 70
     1
  9
$DIMTZIN
 70
     1
  9
$DIMALTZ
 70
     0
  9
$DIMALTTZ
 70
     0
  9
$DIMUPT
 70
     0
  9
$DIMDEC
 70
     2
  9
$DIMTDEC
 70
     2
  9
$DIMALTU
 70
     2
  9
$DIMALTTD
 70
     2
  9
$DIMTXSTY
  7
Standard
  9
$DIMAUNIT
 70
     0
  9
$DIMADEC
 70
     2
  9
$DIMALTRND
 40
0.0
  9
$DIMAZIN
 70
     0
  9
$DIMDSEP
 70
    46
  9
$DIMATFIT
 70
     3
  9
$DIMFRAC
 70
     0
  9
$DIMLDRBLK
  1

  9
$DIMLUNIT
 70
     2
  9
$DIMLWD
 70
    -2
  9
$DIMLWE
 70
    -2
  9
$DIMTMOVE
 70
     0
  9
$LUNITS
 70
     2
  9
$LUPREC
 70
     2
  9
$SKETCHINC
 40
0.1
  9
$FILLETRAD
 40
0.0
  9
$AUNITS
 70
     0
  9
$AUPREC
 70
     2
  9
$MENU
  1
.
  9
$ELEVATION
 40
0.0
  9
$PELEVATION
 40
0.0
  9
$THICKNESS
 40
0.0
  9
$LIMCHECK
 70
     0
  9
$CHAMFERA
 40
0.0
  9
$CHAMFERB
 40
0.0
  9
$CHAMFERC
 40
0.0
  9
$CHAMFERD
 40
0.0
  9
$SKPOLY
 70
     0
  9
$TDCREATE
 40
2460632.808473021
  9
$TDUCREATE
 40
2460633.141806355
  9
$TDUPDATE
 40
2460632.808537454
  9
$TDUUPDATE
 40
2460633.141870787
  9
$TDINDWG
 40
0.0000000116
  9
$TDUSRTIMER
 40
0.0000000116
  9
$USRTIMER
 70
     1
  9
$ANGBASE
 50
0.0
  9
$ANGDIR
 70
     0
  9
$PDMODE
 70
     0
  9
$PDSIZE
 40
-1.0
  9
$PLINEWID
 40
0.0
  9
$SPLFRAME
 70
     0
  9
$SPLINETYPE
 70
     6
  9
$SPLINESEGS
 70
     8
  9
$HANDSEED
  5
6D
  9
$SURFTAB1
 70
     6
  9
$SURFTAB2
 70
     6
  9
$SURFTYPE
 70
     6
  9
$SURFU
 70
     6
  9
$SURFV
 70
     6
  9
$UCSBASE
  2

  9
$UCSNAME
  2

  9
$UCSORG
 10
0.0
 20
0.0
 30
0.0
  9
$UCSXDIR
 10
1.0
 20
0.0
 30
0.0
  9
$UCSYDIR
 10
0.0
 20
1.0
 30
0.0
  9
$UCSORTHOREF
  2

  9
$UCSORTHOVIEW
 70
     0
  9
$UCSORGTOP
 10
0.0
 20
0.0
 30
0.0
  9
$UCSORGBOTTOM
 10
0.0
 20
0.0
 30
0.0
  9
$UCSORGLEFT
 10
0.0
 20
0.0
 30
0.0
  9
$UCSORGRIGHT
 10
0.0
 20
0.0
 30
0.0
  9
$UCSORGFRONT
 10
0.0
 20
0.0
 30
0.0
  9
$UCSORGBACK
 10
0.0
 20
0.0
 30
0.0
  9
$PUCSBASE
  2

  9
$PUCSNAME
  2

  9
$PUCSORG
 10
0.0
 20
0.0
 30
0.0
  9
$PUCSXDIR
 10
1.0
 20
0.0
 30
0.0
  9
$PUCSYDIR
 10
0.0
 20
1.0
 30
0.0
  9
$PUCSORTHOREF
  2

  9
$PUCSORTHOVIEW
 70
     0
  9
$PUCSORGTOP
 10
0.0
 20
0.0
 30
0.0
  9
$PUCSORGBOTTOM
 10
0.0
 20
0.0
 30
0.0
  9
$PUCSORGLEFT
 10
0.0
 20
0.0
 30
0.0
  9
$PUCSORGRIGHT
 10
0.0
 20
0.0
 30
0.0
  9
$PUCSORGFRONT
 10
0.0
 20
0.0
 30
0.0
  9
$PUCSORGBACK
 10
0.0
 20
0.0
 30
0.0
  9
$USERI1
 70
     0
  9
$USERI2
 70
     0
  9
$USERI3
 70
     0
  9
$USERI4
 70
     0
  9
$USERI5
 70
     0
  9
$USERR1
 40
0.0
  9
$USERR2
 40
0.0
  9
$USERR3
 40
0.0
  9
$USERR4
 40
0.0
  9
$USERR5
 40
0.0
  9
$WORLDVIEW
 70
     1
  9
$SHADEDGE
 70
     3
  9
$SHADEDIF
 70
    70
  9
$TILEMODE
 70
     1
  9
$MAXACTVP
 70
    64
  9
$PINSBASE
 10
0.0
 20
0.0
 30
0.0
  9
$PLIMCHECK
 70
     0
  9
$PEXTMIN
 10
1.0000000000E+20
 20
1.0000000000E+20
 30
1.0000000000E+20
  9
$PEXTMAX
 10
-1.0000000000E+20
 20
-1.0000000000E+20
 30
-1.0000000000E+20
  9
$PLIMMIN
 10
0.0
 20
0.0
  9
$PLIMMAX
 10
12.0
 20
9.0
  9
$UNITMODE
 70
     0
  9
$VISRETAIN
 70
     1
  9
$PLINEGEN
 70
     0
  9
$PSLTSCALE
 70
     1
  9
$TREEDEPTH
 70
  3020
  9
$CMLSTYLE
  2
Standard
  9
$CMLJUST
 70
     0
  9
$CMLSCALE
 40
1.0
  9
$PROXYGRAPHICS
 70
     1
  9
$MEASUREMENT
 70
     0
  9
$CELWEIGHT
370
    -1
  9
$ENDCAPS
280
     0
  9
$JOINSTYLE
280
     0
  9
$LWDISPLAY
290
     1
  9
$INSUNITS
 70
     1
  9
$HYPERLINKBASE
  1

  9
$STYLESHEET
  1

  9
$XEDIT
290
     1
  9
$CEPSNTYPE
380
     0
  9
$PSTYLEMODE
290
     1
  9
$FINGERPRINTGUID
  2
{21afb8d3-aea8-48e6-9661-65ec49edb38b}
  9
$VERSIONGUID
  2
{FAEB1C32-E019-11D5-929B-00C0DF256EC4}
  9
$EXTNAMES
290
     1
  9
$PSVPSCALE
 40
0.0
  9
$OLESTARTUP
290
     0
  0
ENDSEC
  0
SECTION
  2
CLASSES
  0
CLASS
  1
ACDBDICTIONARYWDFLT
  2
AcDbDictionaryWithDefault
  3
ObjectDBX Classes
 90
        0
280
     0
281
     0
  0
CLASS
  1
VISUALSTYLE
  2
AcDbVisualStyle
  3
ObjectDBX Classes
 90
     4095
280
     0
281
     0
  0
CLASS
  1
MATERIAL
  2
AcDbMaterial
  3
ObjectDBX Classes
 90
     1153
280
     0
281
     0
  0
CLASS
  1
SCALE
  2
AcDbScale
  3
ObjectDBX Classes
 90
     1153
280
     0
281
     0
  0
CLASS
  1
TABLESTYLE
  2
AcDbTableStyle
  3
ObjectDBX Classes
 90
     4095
280
     0
281
     0
  0
CLASS
  1
MLEADERSTYLE
  2
AcDbMLeaderStyle
  3
ACDB_MLEADERSTYLE_CLASS
 90
     4095
280
     0
281
     0
  0
CLASS
  1
SUN
  2
AcDbSun
  3
SCENEOE
 90
     1153
280
     0
281
     0
  0
CLASS
  1
ACDBPLACEHOLDER
  2
AcDbPlaceHolder
  3
ObjectDBX Classes
 90
        0
280
     0
281
     0
  0
CLASS
  1
LAYOUT
  2
AcDbLayout
  3
ObjectDBX Classes
 90
        0
280
     0
281
     0
  0
ENDSEC
  0
SECTION
  2
TABLES
  0
TABLE
  2
VPORT
  5
8
330
0
100
AcDbSymbolTable
 70
     1
  0
VPORT
  5
29
330
8
100
AcDbSymbolTableRecord
100
AcDbViewportTableRecord
  2
*Active
 70
     0
 10
0.0
 20
0.0
 11
1.0
 21
1.0
 12
5.2436868734
 22
-13.5000075405
 13
0.0
 23
0.0
 14
0.5
 24
0.5
 15
0.5
 25
0.5
 16
0.0
 26
0.0
 36
1.0
 17
0.0
 27
0.0
 37
0.0
 40
12.8987105271
 41
0.2322744935
 42
50.0
 43
0.0
 44
0.0
 50
0.0
 51
0.0
 71
     0
 72
   100
 73
     1
 74
     3
 75
     0
 76
     0
 77
     0
 78
     0
281
     0
 65
     1
110
0.0
120
0.0
130
0.0
111
1.0
121
0.0
131
0.0
112
0.0
122
1.0
132
0.0
 79
     0
146
0.0
  0
ENDTAB
  0
TABLE
  2
LTYPE
  5
5
330
0
100
AcDbSymbolTable
 70
     6
  0
LTYPE
  5
14
330
5
100
AcDbSymbolTableRecord
100
AcDbLinetypeTableRecord
  2
ByBlock
 70
     0
  3

 72
    65
 73
     0
 40
0.0
  0
LTYPE
  5
15
330
5
100
AcDbSymbolTableRecord
100
AcDbLinetypeTableRecord
  2
ByLayer
 70
     0
  3

 72
    65
 73
     0
 40
0.0
  0
LTYPE
  5
16
330
5
100
AcDbSymbolTableRecord
100
AcDbLinetypeTableRecord
  2
Continuous
 70
     0
  3
Solid line
 72
    65
 73
     0
 40
0.0
  0
LTYPE
  5
5E
330
5
100
AcDbSymbolTableRecord
100
AcDbLinetypeTableRecord
  2
HIDDEN
 70
     0
  3
Hidden __ __ __ __ __ __ __ __ __ __ __ __ __ __
 72
    65
 73
     2
 40
0.075
 49
0.05
 74
     0
 49
-0.025
 74
     0
  0
LTYPE
  5
5F
330
5
100
AcDbSymbolTableRecord
100
AcDbLinetypeTableRecord
  2
PHANTOM
 70
     0
  3
Phantom ______  __  __  ______  __  __  ______
 72
    65
 73
     6
 40
0.5
 49
0.25
 74
     0
 49
-0.05
 74
     0
 49
0.05
 74
     0
 49
-0.05
 74
     0
 49
0.05
 74
     0
 49
-0.05
 74
     0
  0
LTYPE
  5
60
330
5
100
AcDbSymbolTableRecord
100
AcDbLinetypeTableRecord
  2
CENTER
 70
     0
  3
Center ____ _ ____ _ ____ _ ____ _ ____ _ ____
 72
    65
 73
     4
 40
0.4
 49
0.25
 74
     0
 49
-0.05
 74
     0
 49
0.05
 74
     0
 49
-0.05
 74
     0
  0
LTYPE
  5
61
330
5
100
AcDbSymbolTableRecord
100
AcDbLinetypeTableRecord
  2
CENTERX2
 70
     0
  3
Center (2x) ________  __  ________  __  _____
 72
    65
 73
     4
 40
0.8
 49
0.5
 74
     0
 49
-0.1
 74
     0
 49
0.1
 74
     0
 49
-0.1
 74
     0
  0
LTYPE
  5
62
330
5
100
AcDbSymbolTableRecord
100
AcDbLinetypeTableRecord
  2
DOT2
 70
     0
  3
Dot (.5x) ........................................
 72
    65
 73
     2
 40
0.025
 49
0.0
 74
     0
 49
-0.025
 74
     0
  0
ENDTAB
  0
TABLE
  2
LAYER
  5
2
330
0
100
AcDbSymbolTable
 70
     1
  0
LAYER
  5
10
330
2
100
AcDbSymbolTableRecord
100
AcDbLayerTableRecord
  2
0
 70
     0
 62
     7
  6
Continuous
370
    -3
390
F
  0
ENDTAB
  0
TABLE
  2
STYLE
  5
3
330
0
100
AcDbSymbolTable
 70
     2
  0
STYLE
  5
11
330
3
100
AcDbSymbolTableRecord
100
AcDbTextStyleTableRecord
  2
Standard
 70
     0
 40
0.0
 41
1.0
 50
0.0
 71
     0
 42
0.1377952756
  3
txt
  4

  0
STYLE
  5
69
330
3
100
AcDbSymbolTableRecord
100
AcDbTextStyleTableRecord
  2
SLDTEXTSTYLE0
 70
     0
 40
0.0
 41
0.7
 50
0.0
 71
     0
 42
0.1377952756
  3
TXT
  4

  0
ENDTAB
  0
TABLE
  2
VIEW
  5
6
330
0
100
AcDbSymbolTable
 70
     0
  0
ENDTAB
  0
TABLE
  2
UCS
  5
7
330
0
100
AcDbSymbolTable
 70
     0
  0
ENDTAB
  0
TABLE
  2
APPID
  5
9
330
0
100
AcDbSymbolTable
 70
     1
  0
APPID
  5
12
330
9
100
AcDbSymbolTableRecord
100
AcDbRegAppTableRecord
  2
ACAD
 70
     0
  0
ENDTAB
  0
TABLE
  2
DIMSTYLE
  5
A
330
0
100
AcDbSymbolTable
 70
     1
100
AcDbDimStyleTable
  0
DIMSTYLE
105
27
330
A
100
AcDbSymbolTableRecord
100
AcDbDimStyleTableRecord
  2
Standard
 70
     0
178
     0
340
11
  0
ENDTAB
  0
TABLE
  2
BLOCK_RECORD
  5
1
330
0
100
AcDbSymbolTable
 70
     1
  0
BLOCK_RECORD
  5
1F
330
1
100
AcDbSymbolTableRecord
100
AcDbBlockTableRecord
  2
*Model_Space
340
22
  0
BLOCK_RECORD
  5
1B
330
1
100
AcDbSymbolTableRecord
100
AcDbBlockTableRecord
  2
*Paper_Space
340
1E
  0
BLOCK_RECORD
  5
23
330
1
100
AcDbSymbolTableRecord
100
AcDbBlockTableRecord
  2
*Paper_Space0
340
26
  0
ENDTAB
  0
ENDSEC
  0
SECTION
  2
BLOCKS
  0
BLOCK
  5
20
330
1F
100
AcDbEntity
  8
0
100
AcDbBlockBegin
  2
*Model_Space
 70
     0
 10
0.0
 20
0.0
 30
0.0
  3
*Model_Space
  1

  0
ENDBLK
  5
21
330
1F
100
AcDbEntity
  8
0
100
AcDbBlockEnd
  0
BLOCK
  5
1C
330
1B
100
AcDbEntity
 67
     1
  8
0
100
AcDbBlockBegin
  2
*Paper_Space
 70
     0
 10
0.0
 20
0.0
 30
0.0
  3
*Paper_Space
  1

  0
ENDBLK
  5
1D
330
1B
100
AcDbEntity
 67
     1
  8
0
100
AcDbBlockEnd
  0
BLOCK
  5
24
330
23
100
AcDbEntity
  8
0
100
AcDbBlockBegin
  2
*Paper_Space0
 70
     0
 10
0.0
 20
0.0
 30
0.0
  3
*Paper_Space0
  1

  0
ENDBLK
  5
25
330
23
100
AcDbEntity
  8
0
100
AcDbBlockEnd
  0
ENDSEC
  0
SECTION
  2
ENTITIES
  0
SPLINE
  5
65
330
1F
100
AcDbEntity
  8
0
  6
Continuous
 62
     7
370
    25
100
AcDbSpline
210
0.0
220
0.0
230
1.0
 70
     8
 71
     3
 72
   123
 73
   119
 74
     0
 42
0.00000001
 43
0.00000001
 40
0.0
 40
0.0
 40
0.0
 40
0.0
 40
0.0024645519818587
 40
0.0049492387033398
 40
0.0074600167208054
 40
0.010002659227831
 40
0.0125827255255342
 40
0.0152055369558541
 40
0.0178761593578336
 40
0.020599391765351
 40
0.0233797608043844
 40
0.0262215200759521
 40
0.0291286537224037
 40
0.03210488335662
 40
0.0351536775689771
 40
0.0382782632982349
 40
0.0414816384442525
 40
0.0447665852001726
 40
0.0481356836803011
 40
0.0515913255113981
 40
0.05513572713612
 40
0.058770942646415
 40
0.0624988760218541
 40
0.0681851048863744
 40
0.0738709912622613
 40
0.0795566112438372
 40
0.0852420409361215
 40
0.0909273564517717
 40
0.0966126339080341
 40
0.1022979494236843
 40
0.1079833791159676
 40
0.1136689990975437
 40
0.1193548854734309
 40
0.1250411143379515
 40
0.1401974898662087
 40
0.1546784884183746
 40
0.1685082613734671
 40
0.1817145334408719
 40
0.1943291410389922
 40
0.2063886073952665
 40
0.2179347250868977
 40
0.2290150969086011
 40
0.2396835619656149
 40
0.2500004100620822
 40
0.2619400785070578
 40
0.2741739426906713
 40
0.2867973149266573
 40
0.2998970081983126
 40
0.3135507529034338
 40
0.3278272324621984
 40
0.3427865551797893
 40
0.358480985631521
 40
0.3749557937244085
 40
0.3800971860369859
 40
0.388920791048137
 40
0.4014273550776877
 40
0.4176171151194289
 40
0.4374901763970609
 40
0.4460951644136218
 40
0.4541524961378567
 40
0.461667520851995
 40
0.4686468349002646
 40
0.4750986779629255
 40
0.4810334870935147
 40
0.4864646808958382
 40
0.4914097793792662
 40
0.4958920062916087
 40
0.4999425548183131
 40
0.5071701594888678
 40
0.5147423607949883
 40
0.5228219949253434
 40
0.5315435219965507
 40
0.5410141013315543
 40
0.5513175475094513
 40
0.5625189949629906
 40
0.56820520639801
 40
0.5738910784230351
 40
0.5795766864485015
 40
0.5852621058953488
 40
0.5909474121920224
 40
0.5966326807714706
 40
0.6023179870681443
 40
0.6080034065149917
 40
0.6136890145404578
 40
0.6193748865654835
 40
0.625061098000503
 40
0.6418672894843431
 40
0.6578407828391886
 40
0.6730155050492687
 40
0.6874310239361827
 40
0.7011334858257442
 40
0.7141766075886063
 40
0.7266226461244958
 40
0.7385432170664812
 40
0.7500197772810664
 40
0.7619620550875414
 40
0.7741982628982101
 40
0.7868234517812247
 40
0.7999242089137285
 40
0.8135780768977459
 40
0.8278535879138961
 40
0.84281073165816
 40
0.8585016817112325
 40
0.8749716394682087
 40
0.8801650615519232
 40
0.8890146734022488
 40
0.9015212531073236
 40
0.9176850506497791
 40
0.9375061776390233
 40
0.9477282853456134
 40
0.9566608797052627
 40
0.9643093409883533
 40
0.9709657434353407
 40
0.9773092042098158
 40
0.9833596711285968
 40
0.9891401260890763
 40
0.9946769142773588
 40
0.9999999999999999
 40
0.9999999999999999
 40
0.9999999999999999
 40
0.9999999999999999
 10
3.77503910188144
 20
-19.82288977665616
 30
0.0
 10
3.777757477603417
 20
-19.82311131464134
 30
0.0
 10
3.783216437459999
 20
-19.82355620051862
 30
0.0
 10
3.791474031135748
 20
-19.82370818670596
 30
0.0
 10
3.799813819490576
 20
-19.82348696000188
 30
0.0
 10
3.808239337637112
 20
-19.82285463245404
 30
0.0
 10
3.816749511069523
 20
-19.82182166271266
 30
0.0
 10
3.825344553570674
 20
-19.82038533772765
 30
0.0
 10
3.834024357121692
 20
-19.81854654899012
 30
0.0
 10
3.842788929828397
 20
-19.81630519517565
 30
0.0
 10
3.851638271917906
 20
-19.81366143882532
 30
0.0
 10
3.860572405472261
 20
-19.8106153572245
 30
0.0
 10
3.869591361652807
 20
-19.80716703656997
 30
0.0
 10
3.87869518023032
 20
-19.80331654549648
 30
0.0
 10
3.887883904884943
 20
-19.79906394119775
 30
0.0
 10
3.897157585299166
 20
-19.79440927372577
 30
0.0
 10
3.906516258507865
 20
-19.7893525659667
 30
0.0
 10
3.9159600120842
 20
-19.78389389848405
 30
0.0
 10
3.925488732604405
 20
-19.77803308599466
 30
0.0
 10
3.935103075986528
 20
-19.77177093773512
 30
0.0
 10
3.94480070235963
 20
-19.76510437681122
 30
0.0
 10
3.954590871156738
 20
-19.75804536727243
 30
0.0
 10
3.966078633318647
 20
-19.7492982133943
 30
0.0
 10
3.979282998443895
 20
-19.73906281995938
 30
0.0
 10
3.994285048528206
 20
-19.7276113876318
 30
0.0
 10
4.009316513361211
 20
-19.71620036183298
 30
0.0
 10
4.024392253477969
 20
-19.70484883460481
 30
0.0
 10
4.039508278446757
 20
-19.6935516784395
 30
0.0
 10
4.054665690311391
 20
-19.6823103125201
 30
0.0
 10
4.06986407111232
 20
-19.67112418744366
 30
0.0
 10
4.085103990631368
 20
-19.65999408172292
 30
0.0
 10
4.100383587572819
 20
-19.64891743063727
 30
0.0
 10
4.115709737702971
 20
-19.63790371516396
 30
0.0
 10
4.139576317783018
 20
-19.62081890266557
 30
0.0
 10
4.171793728783671
 20
-19.59867839573074
 30
0.0
 10
4.212517634837488
 20
-19.57306917702007
 30
0.0
 10
4.252412264582465
 20
-19.55026939025997
 30
0.0
 10
4.291495354628067
 20
-19.53030297445023
 30
0.0
 10
4.329764666258511
 20
-19.51316479758187
 30
0.0
 10
4.367223136231028
 20
-19.49885775930683
 30
0.0
 10
4.403872372883908
 20
-19.48738336345628
 30
0.0
 10
4.439714058628962
 20
-19.47874548153439
 30
0.0
 10
4.47474880395067
 20
-19.47294512143757
 30
0.0
 10
4.511082348967069
 20
-19.46981560653409
 30
0.0
 10
4.54930069124548
 20
-19.46996415383261
 30
0.0
 10
4.589883394662344
 20
-19.47381417797384
 30
0.0
 10
4.631245020176377
 20
-19.48136306506437
 30
0.0
 10
4.67338230456702
 20
-19.4926008651409
 30
0.0
 10
4.716297613841849
 20
-19.50752009558533
 30
0.0
 10
4.759987763670329
 20
-19.52612291443859
 30
0.0
 10
4.804476544711708
 20
-19.54837591754516
 30
0.0
 10
4.849683231263032
 20
-19.57439653283584
 30
0.0
 10
4.884580124696593
 20
-19.59650243022641
 30
0.0
 10
4.912080641860291
 20
-19.61594911889616
 30
0.0
 10
4.935743180453182
 20
-19.63320953431539
 30
0.0
 10
4.969191639595513
 20
-19.65779620881185
 30
0.0
 10
5.012412196088399
 20
-19.68973062235084
 30
0.0
 10
5.051992125485333
 20
-19.71932524342454
 30
0.0
 10
5.084599852640498
 20
-19.74322038150812
 30
0.0
 10
5.106611544945909
 20
-19.75842751605139
 30
0.0
 10
5.127509882006856
 20
-19.77206584329435
 30
0.0
 10
5.147315250470831
 20
-19.78410953489778
 30
0.0
 10
5.166023784108158
 20
-19.79456622219758
 30
0.0
 10
5.183638183948914
 20
-19.80343497362529
 30
0.0
 10
5.200160179264885
 20
-19.81071949359335
 30
0.0
 10
5.215594460254106
 20
-19.816414293413
 30
0.0
 10
5.22994322450029
 20
-19.82054103630104
 30
0.0
 10
5.247109638526181
 20
-19.82375715868826
 30
0.0
 10
5.268054380916172
 20
-19.82463321215535
 30
0.0
 10
5.293297974301266
 20
-19.82183817306153
 30
0.0
 10
5.319503699026981
 20
-19.81515518901931
 30
0.0
 10
5.34667013450591
 20
-19.80465334350345
 30
0.0
 10
5.374806104742196
 20
-19.79032964932703
 30
0.0
 10
5.403964712874418
 20
-19.77224656719307
 30
0.0
 10
5.42822760969862
 20
-19.75442476981987
 30
0.0
 10
5.447940759307506
 20
-19.73909141853235
 30
0.0
 10
5.462948663089023
 20
-19.72764722119343
 30
0.0
 10
5.477978809669536
 20
-19.71623467469866
 30
0.0
 10
5.493054920450768
 20
-19.70488365418424
 30
0.0
 10
5.508170630626545
 20
-19.69358614268036
 30
0.0
 10
5.523327679396555
 20
-19.68234433476004
 30
0.0
 10
5.53852547445588
 20
-19.67115746880376
 30
0.0
 10
5.553764645827532
 20
-19.66002639681777
 30
0.0
 10
5.569043265594954
 20
-19.64894847232058
 30
0.0
 10
5.584368415775321
 20
-19.63793342984779
 30
0.0
 10
5.609716374627331
 20
-19.61978225021842
 30
0.0
 10
5.644842800968761
 20
-19.59573042169126
 30
0.0
 10
5.689956644738159
 20
-19.5677675638853
 30
0.0
 10
5.734045738135332
 20
-19.54327833579337
 30
0.0
 10
5.77713099461284
 20
-19.52229015584795
 30
0.0
 10
5.819211113170278
 20
-19.50479817764402
 30
0.0
 10
5.86029042753715
 20
-19.49080659860567
 30
0.0
 10
5.900371840745705
 20
-19.48032068405804
 30
0.0
 10
5.939456456013261
 20
-19.47334247987211
 30
0.0
 10
5.978450138332407
 20
-19.46981277383041
 30
0.0
 10
6.017958109311796
 20
-19.46998344371352
 30
0.0
 10
6.058547401635401
 20
-19.47384313455886
 30
0.0
 10
6.09991367244665
 20
-19.48139794262746
 30
0.0
 10
6.142053986711692
 20
-19.49263688846196
 30
0.0
 10
6.184970596779984
 20
-19.50755284592031
 30
0.0
 10
6.228660398573274
 20
-19.52614781537272
 30
0.0
 10
6.273146875182316
 20
-19.54838881597234
 30
0.0
 10
6.318350430124259
 20
-19.57439171356509
 30
0.0
 10
6.353292016519522
 20
-19.59651710939249
 30
0.0
 10
6.380865374748193
 20
-19.61600109385236
 30
0.0
 10
6.404599013590999
 20
-19.63331061929608
 30
0.0
 10
6.438047836426767
 20
-19.65789692731507
 30
0.0
 10
6.481187407200954
 20
-19.6897958710291
 30
0.0
 10
6.522154613354704
 20
-19.72037891512908
 30
0.0
 10
6.55688695095559
 20
-19.74594219114826
 30
0.0
 10
6.581186757600746
 20
-19.76294593978168
 30
0.0
 10
6.602618968485503
 20
-19.77715619281603
 30
0.0
 10
6.622211017924481
 20
-19.78892609224238
 30
0.0
 10
6.640857624074542
 20
-19.79877613422652
 30
0.0
 10
6.659163983483513
 20
-19.80713091230005
 30
0.0
 10
6.67714416821455
 20
-19.81393881013184
 30
0.0
 10
6.694772006432034
 20
-19.81934507165041
 30
0.0
 10
6.706557739327763
 20
-19.82171559563608
 30
0.0
 10
6.712334644936674
 20
-19.82287753383968
 30
0.0
  0
SPLINE
  5
66
330
1F
100
AcDbEntity
  8
0
  6
Continuous
 62
     7
370
    25
100
AcDbSpline
210
0.0
220
0.0
230
1.0
 70
     8
 71
     3
 72
   154
 73
   150
 74
     0
 42
0.00000001
 43
0.00000001
 40
0.0
 40
0.0
 40
0.0
 40
0.0
 40
0.0021895303893272
 40
0.0044838387947939
 40
0.0068875720985818
 40
0.0094047712434273
 40
0.0120389550404729
 40
0.0147931939591508
 40
0.0176701741065331
 40
0.0206722521399019
 40
0.0238015020933532
 40
0.0270597551569821
 40
0.0304486334057324
 40
0.0339695783848237
 40
0.0376238753499675
 40
0.0414126738502656
 40
0.0453370052385401
 40
0.0493977976017208
 40
0.0535958885239695
 40
0.0579320360270875
 40
0.0624069279753774
 40
0.0727974284273985
 40
0.0822683278428243
 40
0.0908196343681168
 40
0.0984513590945888
 40
0.1051635176721636
 40
0.1109561332039515
 40
0.1158292418715725
 40
0.1197829051010994
 40
0.1228172401579635
 40
0.1249325172085764
 40
0.1312068937775638
 40
0.1373678031629872
 40
0.14341731680889
 40
0.1493576226948808
 40
0.1551910316859373
 40
0.1609199840042372
 40
0.166547055768875
 40
0.17207496553605
 40
0.177506580757538
 40
0.1828449240590854
 40
0.1880931792231068
 40
0.1932546967420921
 40
0.1983329987911562
 40
0.2033317834509388
 40
0.2082549279967394
 40
0.213106491057592
 40
0.2178907134414942
 40
0.2226120174218
 40
0.2272750042865561
 40
0.2318844499688414
 40
0.2364452986032085
 40
0.2409626538918591
 40
0.2454417682142223
 40
0.2498880294742387
 40
0.2647463577898679
 40
0.2800203676586391
 40
0.2958604276100241
 40
0.3124014761170411
 40
0.3232867335916443
 40
0.3339692384090334
 40
0.3444636502895063
 40
0.3547854304130507
 40
0.3649508276890506
 40
0.3749768513922606
 40
0.3812308066722363
 40
0.387484340516618
 40
0.3937375582656646
 40
0.3999905652756111
 40
0.4062434669133436
 40
0.4124963685510762
 40
0.4187493755610225
 40
0.4250025933100692
 40
0.4312561271544508
 40
0.4375100824344267
 40
0.4476282295284485
 40
0.4565553287940642
 40
0.4643098193086743
 40
0.4742830888904372
 40
0.4834247806539527
 40
0.4919201918960574
 40
0.4999992115005992
 40
0.5085482896437896
 40
0.5189315346882214
 40
0.5313130790115971
 40
0.5457892429936528
 40
0.562419992497619
 40
0.5711041667809879
 40
0.5791567179110236
 40
0.5865776504392307
 40
0.5933669701874087
 40
0.5995246847688289
 40
0.6050508044072299
 40
0.6099453432841867
 40
0.6142083218844854
 40
0.617839771380707
 40
0.6208397426320785
 40
0.623208327176261
 40
0.6249457163512211
 40
0.6324613765967103
 40
0.6398141492504831
 40
0.6470076876256617
 40
0.6540458930003932
 40
0.660932930630847
 40
0.6676732460266065
 40
0.6742715812583134
 40
0.6807329910046698
 40
0.6870628579760423
 40
0.693266907276691
 40
0.699351219190058
 40
0.7053222397961219
 40
0.7111867887627165
 40
0.7169520636017662
 40
0.7226256396559512
 40
0.7282154650915169
 40
0.7337298502287948
 40
0.7391774506518258
 40
0.7445672437072619
 40
0.7499084982299833
 40
0.76477420529981
 40
0.7800509435616968
 40
0.7958883933878139
 40
0.8124210127176019
 40
0.8233309494443506
 40
0.8340282015591199
 40
0.8445275062456193
 40
0.8548444489933873
 40
0.8649954553025783
 40
0.8749977681943798
 40
0.8812518201897869
 40
0.8875054149591947
 40
0.8937586667871639
 40
0.9000116899770578
 40
0.906264598844779
 40
0.9125175077125001
 40
0.918770530902394
 40
0.9250237827303627
 40
0.9312773774997706
 40
0.9375314294951779
 40
0.9467356041055327
 40
0.9550051430016608
 40
0.9623527317625715
 40
0.9687965032818431
 40
0.974230063516654
 40
0.9795185815849317
 40
0.9846994145240651
 40
0.9898122803133692
 40
0.9948984894387578
 40
1.0
 40
1.0
 40
1.0
 40
1.0
 10
6.712334644936679
 20
-7.177122466160318
 30
0.0
 10
6.709947881921417
 20
-7.17754204679854
 30
0.0
 10
6.705060139484061
 20
-7.178401286730711
 30
0.0
 10
6.697644218628271
 20
-7.180178402494976
 30
0.0
 10
6.68995677846748
 20
-7.182340462731693
 30
0.0
 10
6.682003766130592
 20
-7.184925389731598
 30
0.0
 10
6.673783220161782
 20
-7.187922240183295
 30
0.0
 10
6.665295487539794
 20
-7.191334140547585
 30
0.0
 10
6.656540288432614
 20
-7.195160207622362
 30
0.0
 10
6.647517553981266
 20
-7.199400723378488
 30
0.0
 10
6.63822718192643
 20
-7.20405564571805
 30
0.0
 10
6.628669102054037
 20
-7.209125029492665
 30
0.0
 10
6.61884325422117
 20
-7.214608903924497
 30
0.0
 10
6.608749588854477
 20
-7.220507302331712
 30
0.0
 10
6.598388073445523
 20
-7.226820265202377
 30
0.0
 10
6.587758650948337
 20
-7.233547788330753
 30
0.0
 10
6.576861396968468
 20
-7.240690035372336
 30
0.0
 10
6.565695894236238
 20
-7.248246498100941
 30
0.0
 10
6.554263683968769
 20
-7.256219295200365
 30
0.0
 10
6.542558647013066
 20
-7.264600234347399
 30
0.0
 10
6.525461477401565
 20
-7.277216834312957
 30
0.0
 10
6.503878092409026
 20
-7.293322090553317
 30
0.0
 10
6.47862294848859
 20
-7.312049334354009
 30
0.0
 10
6.455812420550337
 20
-7.32894792388481
 30
0.0
 10
6.435433924469126
 20
-7.344001016086545
 30
0.0
 10
6.417490619108309
 20
-7.357212869971307
 30
0.0
 10
6.401981481933682
 20
-7.36858208833417
 30
0.0
 10
6.388908549166539
 20
-7.378111608144189
 30
0.0
 10
6.378267853550176
 20
-7.385795807932413
 30
0.0
 10
6.370072366476712
 20
-7.391653597463123
 30
0.0
 10
6.359676903742474
 20
-7.398847644341687
 30
0.0
 10
6.346214602639167
 20
-7.407683935430931
 30
0.0
 10
6.328971905230765
 20
-7.418688913962984
 30
0.0
 10
6.311826659067199
 20
-7.42915391014703
 30
0.0
 10
6.294798908386109
 20
-7.439108331103386
 30
0.0
 10
6.277883401331964
 20
-7.448544500232142
 30
0.0
 10
6.261081480000056
 20
-7.45746440612791
 30
0.0
 10
6.244392766456806
 20
-7.465867514053823
 30
0.0
 10
6.22781733080097
 20
-7.473753943534678
 30
0.0
 10
6.211355126204547
 20
-7.481123639362483
 30
0.0
 10
6.19500613676058
 20
-7.487976587448635
 30
0.0
 10
6.178770339517325
 20
-7.494312758193878
 30
0.0
 10
6.162647715100018
 20
-7.500132121006365
 30
0.0
 10
6.146638245760215
 20
-7.505434640358795
 30
0.0
 10
6.130741916819821
 20
-7.510220276736429
 30
0.0
 10
6.114958717285834
 20
-7.514488986656706
 30
0.0
 10
6.099288640863494
 20
-7.518240722425586
 30
0.0
 10
6.083731686469968
 20
-7.521475434735081
 30
0.0
 10
6.068287860417538
 20
-7.524193065454057
 30
0.0
 10
6.052957172393832
 20
-7.526393577335709
 30
0.0
 10
6.037739653777216
 20
-7.52807684946088
 30
0.0
 10
6.022635293385735
 20
-7.529243066202032
 30
0.0
 10
6.007644275625979
 20
-7.529891294099567
 30
0.0
 10
5.992766104871717
 20
-7.53002472647677
 30
0.0
 10
5.966453334231207
 20
-7.529323618871849
 30
0.0
 10
5.928293918559757
 20
-7.525550424683688
 30
0.0
 10
5.878367715885959
 20
-7.51538720528411
 30
0.0
 10
5.827857028111462
 20
-7.499962193975938
 30
0.0
 10
5.783481798555506
 20
-7.481838175062606
 30
0.0
 10
5.745402369729639
 20
-7.463703122140783
 30
0.0
 10
5.713893949476723
 20
-7.447376815625304
 30
0.0
 10
5.683575897680123
 20
-7.430161077114303
 30
0.0
 10
5.654443443947978
 20
-7.412072252378599
 30
0.0
 10
5.626464873851973
 20
-7.393149634974583
 30
0.0
 10
5.603008302880136
 20
-7.375639779465532
 30
0.0
 10
5.583319954405582
 20
-7.360339222358021
 30
0.0
 10
5.566811044626003
 20
-7.347751358701401
 30
0.0
 10
5.550268818264958
 20
-7.335209619063941
 30
0.0
 10
5.533671162813918
 20
-7.322742291013375
 30
0.0
 10
5.517023958011564
 20
-7.310341857157051
 30
0.0
 10
5.500325796066394
 20
-7.298010101391226
 30
0.0
 10
5.483576428722104
 20
-7.285747405292239
 30
0.0
 10
5.466778256956473
 20
-7.27355045861477
 30
0.0
 10
5.449921924593187
 20
-7.261432121660498
 30
0.0
 10
5.429566458986826
 20
-7.2468549978394
 30
0.0
 10
5.40653659178087
 20
-7.23092807507353
 30
0.0
 10
5.381457388086106
 20
-7.215081519794033
 30
0.0
 10
5.355771661422112
 20
-7.200552408322348
 30
0.0
 10
5.328635495025234
 20
-7.188228827725905
 30
0.0
 10
5.299301255068362
 20
-7.179308941328912
 30
0.0
 10
5.27100699000238
 20
-7.175319034697799
 30
0.0
 10
5.243035406759286
 20
-7.176204453664417
 30
0.0
 10
5.213875181434301
 20
-7.183543732921497
 30
0.0
 10
5.181828461274163
 20
-7.196917814232184
 30
0.0
 10
5.145503770523187
 20
-7.216479705335785
 30
0.0
 10
5.104846469230977
 20
-7.242286568646554
 30
0.0
 10
5.069078968215997
 20
-7.267992728297308
 30
0.0
 10
5.039516694707894
 20
-7.290113965844031
 30
0.0
 10
5.018043115524204
 20
-7.306036191989611
 30
0.0
 10
4.998256262710234
 20
-7.320712253332084
 30
0.0
 10
4.9801373754973
 20
-7.33411754568413
 30
0.0
 10
4.963690930471262
 20
-7.346257946714926
 30
0.0
 10
4.948915902961391
 20
-7.357132114786391
 30
0.0
 10
4.935812716577695
 20
-7.366740634175422
 30
0.0
 10
4.924381075923628
 20
-7.37508309140472
 30
0.0
 10
4.914622236615754
 20
-7.382161325812437
 30
0.0
 10
4.906533512593639
 20
-7.387971495815677
 30
0.0
 10
4.900123795498149
 20
-7.392526670719153
 30
0.0
 10
4.889534449372438
 20
-7.399824595169372
 30
0.0
 10
4.874164360620507
 20
-7.409900195351428
 30
0.0
 10
4.853518298079887
 20
-7.422931144474867
 30
0.0
 10
4.833018004443458
 20
-7.435192842650192
 30
0.0
 10
4.812684278937168
 20
-7.446715790191954
 30
0.0
 10
4.792511661562426
 20
-7.457492049055441
 30
0.0
 10
4.772501498619534
 20
-7.467523638243567
 30
0.0
 10
4.752653369902208
 20
-7.47680998347789
 30
0.0
 10
4.732967313459309
 20
-7.485351170654183
 30
0.0
 10
4.713443250380356
 20
-7.493147100638441
 30
0.0
 10
4.694081136436964
 20
-7.500197707486292
 30
0.0
 10
4.674880925521725
 20
-7.50650290132349
 30
0.0
 10
4.65584258256601
 20
-7.512062582166403
 30
0.0
 10
4.636966083399828
 20
-7.516876639827839
 30
0.0
 10
4.618251420381886
 20
-7.520944944362668
 30
0.0
 10
4.599698598848664
 20
-7.524267390687636
 30
0.0
 10
4.581307663905228
 20
-7.526843745465431
 30
0.0
 10
4.563078615913717
 20
-7.52867422115285
 30
0.0
 10
4.545011730239522
 20
-7.529757394505342
 30
0.0
 10
4.527106391386147
 20
-7.530097861678801
 30
0.0
 10
4.498783294320206
 20
-7.529427769952488
 30
0.0
 10
4.459627801547565
 20
-7.525539241865244
 30
0.0
 10
4.409693930811817
 20
-7.515373638690413
 30
0.0
 10
4.359189970530102
 20
-7.499958826815423
 30
0.0
 10
4.314796345875823
 20
-7.481840319235703
 30
0.0
 10
4.276680718518268
 20
-7.463701442148915
 30
0.0
 10
4.245124254309034
 20
-7.44736119982561
 30
0.0
 10
4.214789064199804
 20
-7.430142304810667
 30
0.0
 10
4.185670441708305
 20
-7.412061141741781
 30
0.0
 10
4.157736098066623
 20
-7.39315762972535
 30
0.0
 10
4.134325368848794
 20
-7.37565648537051
 30
0.0
 10
4.114670577773966
 20
-7.36035524682348
 30
0.0
 10
4.098168984741828
 20
-7.347757418747404
 30
0.0
 10
4.08163226364525
 20
-7.33520821602804
 30
0.0
 10
4.065037919285566
 20
-7.322736364520309
 30
0.0
 10
4.048391935078184
 20
-7.310334228315917
 30
0.0
 10
4.031692871081505
 20
-7.298003627284058
 30
0.0
 10
4.014940504002433
 20
-7.285744917605645
 30
0.0
 10
3.998137167134147
 20
-7.273554854649619
 30
0.0
 10
3.98127375005642
 20
-7.261446061721169
 30
0.0
 10
3.961729243070832
 20
-7.247473052333228
 30
0.0
 10
3.940132842797616
 20
-7.232533210304554
 30
0.0
 10
3.916982445112046
 20
-7.217737936222013
 30
0.0
 10
3.895861231067353
 20
-7.205480876605925
 30
0.0
 10
3.876902580561258
 20
-7.195794629737926
 30
0.0
 10
3.859355460400207
 20
-7.188466839816922
 30
0.0
 10
3.842586514777697
 20
-7.183062076887669
 30
0.0
 10
3.825760413763637
 20
-7.179185724966679
 30
0.0
 10
3.808879290900202
 20
-7.176885722693083
 30
0.0
 10
3.791934574279927
 20
-7.176023940878316
 30
0.0
 10
3.780676562334365
 20
-7.176747766805442
 30
0.0
 10
3.77503910188144
 20
-7.177110223343838
 30
0.0
  0
LINE
  5
67
330
1F
100
AcDbEntity
  8
0
  6
Continuous
 62
     7
370
    25
100
AcDbLine
 10
3.7750391019
 20
-7.1771102233
 30
0.0
 11
3.7750391019
 21
-19.8228897767
 31
0.0
  0
LINE
  5
68
330
1F
100
AcDbEntity
  8
0
  6
Continuous
 62
     7
370
    25
100
AcDbLine
 10
6.7123346449
 20
-19.8228775338
 30
0.0
 11
6.7123346449
 21
-7.1771224662
 31
0.0
  0
MTEXT
  5
6A
330
1F
100
AcDbEntity
  8
0
  6
Continuous
 62
     7
100
AcDbMText
 10
3.7750391019
 20
-19.8630452668
 30
0.0
 40
0.1903
 41
0.0
 71
     1
 72
     1
  1
SOLIDWORKS Educational Product.
  7
SLDTEXTSTYLE0
 73
     1
 44
1.0
  0
MTEXT
  5
6B
330
1F
100
AcDbEntity
  8
0
  6
Continuous
 62
     7
100
AcDbMText
 10
3.7750391019
 20
-20.1484952668
 30
0.0
 40
0.1903
 41
0.0
 71
     1
 72
     1
  1
For Instructional Use Only.
  7
SLDTEXTSTYLE0
 73
     1
 44
1.0
  0
ENDSEC
  0
SECTION
  2
OBJECTS
  0
DICTIONARY
  5
C
330
0
100
AcDbDictionary
281
     1
  3
ACAD_GROUP
350
D
  3
ACAD_LAYOUT
350
1A
  3
ACAD_MLINESTYLE
350
17
  3
ACAD_PLOTSETTINGS
350
19
  3
ACAD_PLOTSTYLENAME
350
E
  3
ACAD_SCALELIST
350
47
  3
DWGPROPS
350
6C
  0
DICTIONARY
  5
D
102
{ACAD_REACTORS
330
C
102
}
330
C
100
AcDbDictionary
281
     1
  0
DICTIONARY
  5
1A
102
{ACAD_REACTORS
330
C
102
}
330
C
100
AcDbDictionary
281
     1
  3
Layout1
350
1E
  3
Layout2
350
26
  3
Model
350
22
  0
DICTIONARY
  5
17
102
{ACAD_REACTORS
330
C
102
}
330
C
100
AcDbDictionary
281
     1
  3
Standard
350
18
  0
DICTIONARY
  5
19
102
{ACAD_REACTORS
330
C
102
}
330
C
100
AcDbDictionary
281
     1
  0
ACDBDICTIONARYWDFLT
  5
E
102
{ACAD_REACTORS
330
C
102
}
330
C
100
AcDbDictionary
281
     1
  3
Normal
350
F
100
AcDbDictionaryWithDefault
340
F
  0
DICTIONARY
  5
47
102
{ACAD_REACTORS
330
C
102
}
330
C
100
AcDbDictionary
281
     1
  3
A0
350
48
  3
A1
350
49
  3
A2
350
4A
  3
A3
350
4B
  3
A4
350
4C
  3
A5
350
4D
  3
A6
350
4E
  3
A7
350
4F
  3
A8
350
50
  3
A9
350
51
  3
B1
350
52
  3
B2
350
53
  3
B3
350
54
  3
B4
350
55
  3
B5
350
56
  3
B6
350
57
  3
B7
350
58
  0
XRECORD
  5
6C
102
{ACAD_REACTORS
330
C
102
}
330
C
100
AcDbXrecord
280
     1
  1
DWGPROPS COOKIE
  2

  3

  4

  6

  7

  8
manny
  9

300
=
301
=
302
=
303
=
304
=
305
=
306
=
307
=
308
=
309
=
 40
0.0
 41
2460633.141806355
 42
2460633.141870787
  1

 90
        0
  0
LAYOUT
  5
1E
102
{ACAD_REACTORS
330
1A
102
}
330
1A
100
AcDbPlotSettings
  1

  2
none_device
  4

  6

 40
0.0
 41
0.0
 42
0.0
 43
0.0
 44
0.0
 45
0.0
 46
0.0
 47
0.0
 48
0.0
 49
0.0
140
0.0
141
0.0
142
1.0
143
1.0
 70
   688
 72
     0
 73
     0
 74
     5
  7

 75
    16
147
1.0
148
0.0
149
0.0
100
AcDbLayout
  1
Layout1
 70
     1
 71
     1
 10
0.0
 20
0.0
 11
12.0
 21
9.0
 12
0.0
 22
0.0
 32
0.0
 14
1.0000000000E+20
 24
1.0000000000E+20
 34
1.0000000000E+20
 15
-1.0000000000E+20
 25
-1.0000000000E+20
 35
-1.0000000000E+20
146
0.0
 13
0.0
 23
0.0
 33
0.0
 16
1.0
 26
0.0
 36
0.0
 17
0.0
 27
1.0
 37
0.0
 76
     0
330
1B
  0
LAYOUT
  5
26
102
{ACAD_REACTORS
330
1A
102
}
330
1A
100
AcDbPlotSettings
  1

  2
none_device
  4

  6

 40
0.0
 41
0.0
 42
0.0
 43
0.0
 44
0.0
 45
0.0
 46
0.0
 47
0.0
 48
0.0
 49
0.0
140
0.0
141
0.0
142
1.0
143
1.0
 70
   688
 72
     0
 73
     0
 74
     5
  7

 75
    16
147
1.0
148
0.0
149
0.0
100
AcDbLayout
  1
Layout2
 70
     1
 71
     2
 10
0.0
 20
0.0
 11
0.0
 21
0.0
 12
0.0
 22
0.0
 32
0.0
 14
0.0
 24
0.0
 34
0.0
 15
0.0
 25
0.0
 35
0.0
146
0.0
 13
0.0
 23
0.0
 33
0.0
 16
1.0
 26
0.0
 36
0.0
 17
0.0
 27
1.0
 37
0.0
 76
     0
330
23
  0
LAYOUT
  5
22
102
{ACAD_REACTORS
330
1A
102
}
330
1A
100
AcDbPlotSettings
  1

  2
none_device
  4
ANSI_A_(11.00_x_8.50_Inches)
  6

 40
6.35
 41
19.05
 42
6.35000508
 43
19.05000254
 44
279.4
 45
215.9
 46
44.7204642108
 47
317.079025446
 48
0.0
 49
0.0
140
0.0
141
0.0
142
0.6654386097
143
1.0
 70
  1696
 72
     0
 73
     0
 74
     0
  7

 75
     0
147
0.5913241897
148
-39.4088153714
149
0.0
100
AcDbLayout
  1
Model
 70
     1
 71
     0
 10
0.0
 20
0.0
 11
12.0
 21
9.0
 12
0.0
 22
0.0
 32
0.0
 14
3.7750391019
 24
-19.8229048577
 34
0.0
 15
6.7123346449
 25
-7.1771102233
 35
0.0
146
0.0
 13
0.0
 23
0.0
 33
0.0
 16
1.0
 26
0.0
 36
0.0
 17
0.0
 27
1.0
 37
0.0
 76
     0
330
1F
331
29
  0
MLINESTYLE
  5
18
102
{ACAD_REACTORS
330
17
102
}
330
17
100
AcDbMlineStyle
  2
Standard
 70
     0
  3

 62
   256
 51
90.0
 52
90.0
 71
     2
 49
0.5
 62
   256
  6
BYLAYER
 49
-0.5
 62
   256
  6
BYLAYER
  0
ACDBPLACEHOLDER
  5
F
102
{ACAD_REACTORS
330
E
102
}
330
E
  0
SCALE
  5
48
102
{ACAD_REACTORS
330
47
102
}
330
47
100
AcDbScale
 70
     0
300
1:1
140
1.0
141
1.0
290
     1
  0
SCALE
  5
49
102
{ACAD_REACTORS
330
47
102
}
330
47
100
AcDbScale
 70
     0
300
1/128" = 1'-0"
140
0.0078125
141
12.0
290
     0
  0
SCALE
  5
4A
102
{ACAD_REACTORS
330
47
102
}
330
47
100
AcDbScale
 70
     0
300
1/64" = 1'-0"
140
0.015625
141
12.0
290
     0
  0
SCALE
  5
4B
102
{ACAD_REACTORS
330
47
102
}
330
47
100
AcDbScale
 70
     0
300
1/32" = 1'-0"
140
0.03125
141
12.0
290
     0
  0
SCALE
  5
4C
102
{ACAD_REACTORS
330
47
102
}
330
47
100
AcDbScale
 70
     0
300
1/16" = 1'-0"
140
0.0625
141
12.0
290
     0
  0
SCALE
  5
4D
102
{ACAD_REACTORS
330
47
102
}
330
47
100
AcDbScale
 70
     0
300
3/32" = 1'-0"
140
0.09375
141
12.0
290
     0
  0
SCALE
  5
4E
102
{ACAD_REACTORS
330
47
102
}
330
47
100
AcDbScale
 70
     0
300
1/8" = 1'-0"
140
0.125
141
12.0
290
     0
  0
SCALE
  5
4F
102
{ACAD_REACTORS
330
47
102
}
330
47
100
AcDbScale
 70
     0
300
3/16" = 1'-0"
140
0.1875
141
12.0
290
     0
  0
SCALE
  5
50
102
{ACAD_REACTORS
330
47
102
}
330
47
100
AcDbScale
 70
     0
300
1/4" = 1'-0"
140
0.25
141
12.0
290
     0
  0
SCALE
  5
51
102
{ACAD_REACTORS
330
47
102
}
330
47
100
AcDbScale
 70
     0
300
3/8" = 1'-0"
140
0.375
141
12.0
290
     0
  0
SCALE
  5
52
102
{ACAD_REACTORS
330
47
102
}
330
47
100
AcDbScale
 70
     0
300
1/2" = 1'-0"
140
0.5
141
12.0
290
     0
  0
SCALE
  5
53
102
{ACAD_REACTORS
330
47
102
}
330
47
100
AcDbScale
 70
     0
300
3/4" = 1'-0"
140
0.75
141
12.0
290
     0
  0
SCALE
  5
54
102
{ACAD_REACTORS
330
47
102
}
330
47
100
AcDbScale
 70
     0
300
1" = 1'-0"
140
1.0
141
12.0
290
     0
  0
SCALE
  5
55
102
{ACAD_REACTORS
330
47
102
}
330
47
100
AcDbScale
 70
     0
300
1-1/2" = 1'-0"
140
1.5
141
12.0
290
     0
  0
SCALE
  5
56
102
{ACAD_REACTORS
330
47
102
}
330
47
100
AcDbScale
 70
     0
300
3" = 1'-0"
140
3.0
141
12.0
290
     0
  0
SCALE
  5
57
102
{ACAD_REACTORS
330
47
102
}
330
47
100
AcDbScale
 70
     0
300
6" = 1'-0"
140
6.0
141
12.0
290
     0
  0
SCALE
  5
58
102
{ACAD_REACTORS
330
47
102
}
330
47
100
AcDbScale
 70
     0
300
1'-0" = 1'-0"
140
12.0
141
12.0
290
     0
  0
ENDSEC
  0
EOF
