  0
SECTION
  2
HEADER
  9
$ACADVER
  1
AC1015
  9
$ACADMAINTVER
 70
     6
  9
$DWGCODEPAGE
  3
ANSI_1252
  9
$INSBASE
 10
0.0
 20
0.0
 30
0.0
  9
$EXTMIN
 10
9.5651410933
 20
-21.3174073359
 30
0.0
  9
$EXTMAX
 10
12.5024365335
 20
8.4241496043
 30
0.0
  9
$LIMMIN
 10
0.0
 20
0.0
  9
$LIMMAX
 10
12.0
 20
9.0
  9
$ORTHOMODE
 70
     0
  9
$REGENMODE
 70
     1
  9
$FILLMODE
 70
     1
  9
$QTEXTMODE
 70
     0
  9
$MIRRTEXT
 70
     1
  9
$LTSCALE
 40
1.0
  9
$ATTMODE
 70
     1
  9
$TEXTSIZE
 40
0.1377952756
  9
$TRACEWID
 40
0.05
  9
$TEXTSTYLE
  7
Standard
  9
$CLAYER
  8
0
  9
$CELTYPE
  6
ByLayer
  9
$CECOLOR
 62
   256
  9
$CELTSCALE
 40
1.0
  9
$DISPSILH
 70
     0
  9
$DIMSCALE
 40
1.0
  9
$DIMASZ
 40
0.13
  9
$DIMEXO
 40
0.0
  9
$DIMDLI
 40
0.38
  9
$DIMRND
 40
0.0
  9
$DIMDLE
 40
0.0
  9
$DIMEXE
 40
0.0393700787
  9
$DIMTP
 40
0.0
  9
$DIMTM
 40
0.0
  9
$DIMTXT
 40
0.1377952756
  9
$DIMCEN
 40
0.09
  9
$DIMTSZ
 40
0.0
  9
$DIMTOL
 70
     0
  9
$DIMLIM
 70
     0
  9
$DIMTIH
 70
     1
  9
$DIMTOH
 70
     1
  9
$DIMSE1
 70
     0
  9
$DIMSE2
 70
     0
  9
$DIMTAD
 70
     1
  9
$DIMZIN
 70
     1
  9
$DIMBLK
  1

  9
$DIMASO
 70
     1
  9
$DIMSHO
 70
     1
  9
$DIMPOST
  1

  9
$DIMAPOST
  1

  9
$DIMALT
 70
     0
  9
$DIMALTD
 70
     2
  9
$DIMALTF
 40
25.4
  9
$DIMLFAC
 40
1.0
  9
$DIMTOFL
 70
     0
  9
$DIMTVP
 40
0.0
  9
$DIMTIX
 70
     0
  9
$DIMSOXD
 70
     0
  9
$DIMSAH
 70
     0
  9
$DIMBLK1
  1

  9
$DIMBLK2
  1

  9
$DIMSTYLE
  2
Standard
  9
$DIMCLRD
 70
     0
  9
$DIMCLRE
 70
     0
  9
$DIMCLRT
 70
     0
  9
$DIMTFAC
 40
1.0
  9
$DIMGAP
 40
0.06
  9
$DIMJUST
 70
     0
  9
$DIMSD1
 70
     0
  9
$DIMSD2
 70
     0
  9
$DIMTOLJ
 70
     1
  9
$DIMTZIN
 70
     1
  9
$DIMALTZ
 70
     0
  9
$DIMALTTZ
 70
     0
  9
$DIMUPT
 70
     0
  9
$DIMDEC
 70
     2
  9
$DIMTDEC
 70
     2
  9
$DIMALTU
 70
     2
  9
$DIMALTTD
 70
     2
  9
$DIMTXSTY
  7
Standard
  9
$DIMAUNIT
 70
     0
  9
$DIMADEC
 70
     2
  9
$DIMALTRND
 40
0.0
  9
$DIMAZIN
 70
     0
  9
$DIMDSEP
 70
    46
  9
$DIMATFIT
 70
     3
  9
$DIMFRAC
 70
     0
  9
$DIMLDRBLK
  1

  9
$DIMLUNIT
 70
     2
  9
$DIMLWD
 70
    -2
  9
$DIMLWE
 70
    -2
  9
$DIMTMOVE
 70
     0
  9
$LUNITS
 70
     2
  9
$LUPREC
 70
     2
  9
$SKETCHINC
 40
0.1
  9
$FILLETRAD
 40
0.0
  9
$AUNITS
 70
     0
  9
$AUPREC
 70
     2
  9
$MENU
  1
.
  9
$ELEVATION
 40
0.0
  9
$PELEVATION
 40
0.0
  9
$THICKNESS
 40
0.0
  9
$LIMCHECK
 70
     0
  9
$CHAMFERA
 40
0.0
  9
$CHAMFERB
 40
0.0
  9
$CHAMFERC
 40
0.0
  9
$CHAMFERD
 40
0.0
  9
$SKPOLY
 70
     0
  9
$TDCREATE
 40
2460632.819256216
  9
$TDUCREATE
 40
2460633.152589549
  9
$TDUPDATE
 40
2460632.819293183
  9
$TDUUPDATE
 40
2460633.152626517
  9
$TDINDWG
 40
0.0000000116
  9
$TDUSRTIMER
 40
0.0000000116
  9
$USRTIMER
 70
     1
  9
$ANGBASE
 50
0.0
  9
$ANGDIR
 70
     0
  9
$PDMODE
 70
     0
  9
$PDSIZE
 40
-1.0
  9
$PLINEWID
 40
0.0
  9
$SPLFRAME
 70
     0
  9
$SPLINETYPE
 70
     6
  9
$SPLINESEGS
 70
     8
  9
$HANDSEED
  5
6D
  9
$SURFTAB1
 70
     6
  9
$SURFTAB2
 70
     6
  9
$SURFTYPE
 70
     6
  9
$SURFU
 70
     6
  9
$SURFV
 70
     6
  9
$UCSBASE
  2

  9
$UCSNAME
  2

  9
$UCSORG
 10
0.0
 20
0.0
 30
0.0
  9
$UCSXDIR
 10
1.0
 20
0.0
 30
0.0
  9
$UCSYDIR
 10
0.0
 20
1.0
 30
0.0
  9
$UCSORTHOREF
  2

  9
$UCSORTHOVIEW
 70
     0
  9
$UCSORGTOP
 10
0.0
 20
0.0
 30
0.0
  9
$UCSORGBOTTOM
 10
0.0
 20
0.0
 30
0.0
  9
$UCSORGLEFT
 10
0.0
 20
0.0
 30
0.0
  9
$UCSORGRIGHT
 10
0.0
 20
0.0
 30
0.0
  9
$UCSORGFRONT
 10
0.0
 20
0.0
 30
0.0
  9
$UCSORGBACK
 10
0.0
 20
0.0
 30
0.0
  9
$PUCSBASE
  2

  9
$PUCSNAME
  2

  9
$PUCSORG
 10
0.0
 20
0.0
 30
0.0
  9
$PUCSXDIR
 10
1.0
 20
0.0
 30
0.0
  9
$PUCSYDIR
 10
0.0
 20
1.0
 30
0.0
  9
$PUCSORTHOREF
  2

  9
$PUCSORTHOVIEW
 70
     0
  9
$PUCSORGTOP
 10
0.0
 20
0.0
 30
0.0
  9
$PUCSORGBOTTOM
 10
0.0
 20
0.0
 30
0.0
  9
$PUCSORGLEFT
 10
0.0
 20
0.0
 30
0.0
  9
$PUCSORGRIGHT
 10
0.0
 20
0.0
 30
0.0
  9
$PUCSORGFRONT
 10
0.0
 20
0.0
 30
0.0
  9
$PUCSORGBACK
 10
0.0
 20
0.0
 30
0.0
  9
$USERI1
 70
     0
  9
$USERI2
 70
     0
  9
$USERI3
 70
     0
  9
$USERI4
 70
     0
  9
$USERI5
 70
     0
  9
$USERR1
 40
0.0
  9
$USERR2
 40
0.0
  9
$USERR3
 40
0.0
  9
$USERR4
 40
0.0
  9
$USERR5
 40
0.0
  9
$WORLDVIEW
 70
     1
  9
$SHADEDGE
 70
     3
  9
$SHADEDIF
 70
    70
  9
$TILEMODE
 70
     1
  9
$MAXACTVP
 70
    64
  9
$PINSBASE
 10
0.0
 20
0.0
 30
0.0
  9
$PLIMCHECK
 70
     0
  9
$PEXTMIN
 10
1.0000000000E+20
 20
1.0000000000E+20
 30
1.0000000000E+20
  9
$PEXTMAX
 10
-1.0000000000E+20
 20
-1.0000000000E+20
 30
-1.0000000000E+20
  9
$PLIMMIN
 10
0.0
 20
0.0
  9
$PLIMMAX
 10
12.0
 20
9.0
  9
$UNITMODE
 70
     0
  9
$VISRETAIN
 70
     1
  9
$PLINEGEN
 70
     0
  9
$PSLTSCALE
 70
     1
  9
$TREEDEPTH
 70
  3020
  9
$CMLSTYLE
  2
Standard
  9
$CMLJUST
 70
     0
  9
$CMLSCALE
 40
1.0
  9
$PROXYGRAPHICS
 70
     1
  9
$MEASUREMENT
 70
     0
  9
$CELWEIGHT
370
    -1
  9
$ENDCAPS
280
     0
  9
$JOINSTYLE
280
     0
  9
$LWDISPLAY
290
     1
  9
$INSUNITS
 70
     1
  9
$HYPERLINKBASE
  1

  9
$STYLESHEET
  1

  9
$XEDIT
290
     1
  9
$CEPSNTYPE
380
     0
  9
$PSTYLEMODE
290
     1
  9
$FINGERPRINTGUID
  2
{42f25749-9e33-417c-bd4e-27e488615298}
  9
$VERSIONGUID
  2
{FAEB1C32-E019-11D5-929B-00C0DF256EC4}
  9
$EXTNAMES
290
     1
  9
$PSVPSCALE
 40
0.0
  9
$OLESTARTUP
290
     0
  0
ENDSEC
  0
SECTION
  2
CLASSES
  0
CLASS
  1
ACDBDICTIONARYWDFLT
  2
AcDbDictionaryWithDefault
  3
ObjectDBX Classes
 90
        0
280
     0
281
     0
  0
CLASS
  1
VISUALSTYLE
  2
AcDbVisualStyle
  3
ObjectDBX Classes
 90
     4095
280
     0
281
     0
  0
CLASS
  1
MATERIAL
  2
AcDbMaterial
  3
ObjectDBX Classes
 90
     1153
280
     0
281
     0
  0
CLASS
  1
SCALE
  2
AcDbScale
  3
ObjectDBX Classes
 90
     1153
280
     0
281
     0
  0
CLASS
  1
TABLESTYLE
  2
AcDbTableStyle
  3
ObjectDBX Classes
 90
     4095
280
     0
281
     0
  0
CLASS
  1
MLEADERSTYLE
  2
AcDbMLeaderStyle
  3
ACDB_MLEADERSTYLE_CLASS
 90
     4095
280
     0
281
     0
  0
CLASS
  1
SUN
  2
AcDbSun
  3
SCENEOE
 90
     1153
280
     0
281
     0
  0
CLASS
  1
ACDBPLACEHOLDER
  2
AcDbPlaceHolder
  3
ObjectDBX Classes
 90
        0
280
     0
281
     0
  0
CLASS
  1
LAYOUT
  2
AcDbLayout
  3
ObjectDBX Classes
 90
        0
280
     0
281
     0
  0
ENDSEC
  0
SECTION
  2
TABLES
  0
TABLE
  2
VPORT
  5
8
330
0
100
AcDbSymbolTable
 70
     1
  0
VPORT
  5
29
330
8
100
AcDbSymbolTableRecord
100
AcDbViewportTableRecord
  2
*Active
 70
     0
 10
0.0
 20
0.0
 11
1.0
 21
1.0
 12
11.0337888134
 22
-6.4466288658
 13
0.0
 23
0.0
 14
0.5
 24
0.5
 15
0.5
 25
0.5
 16
0.0
 26
0.0
 36
1.0
 17
0.0
 27
0.0
 37
0.0
 40
30.336388079
 41
0.0987606481
 42
50.0
 43
0.0
 44
0.0
 50
0.0
 51
0.0
 71
     0
 72
   100
 73
     1
 74
     3
 75
     0
 76
     0
 77
     0
 78
     0
281
     0
 65
     1
110
0.0
120
0.0
130
0.0
111
1.0
121
0.0
131
0.0
112
0.0
122
1.0
132
0.0
 79
     0
146
0.0
  0
ENDTAB
  0
TABLE
  2
LTYPE
  5
5
330
0
100
AcDbSymbolTable
 70
     6
  0
LTYPE
  5
14
330
5
100
AcDbSymbolTableRecord
100
AcDbLinetypeTableRecord
  2
ByBlock
 70
     0
  3

 72
    65
 73
     0
 40
0.0
  0
LTYPE
  5
15
330
5
100
AcDbSymbolTableRecord
100
AcDbLinetypeTableRecord
  2
ByLayer
 70
     0
  3

 72
    65
 73
     0
 40
0.0
  0
LTYPE
  5
16
330
5
100
AcDbSymbolTableRecord
100
AcDbLinetypeTableRecord
  2
Continuous
 70
     0
  3
Solid line
 72
    65
 73
     0
 40
0.0
  0
LTYPE
  5
5E
330
5
100
AcDbSymbolTableRecord
100
AcDbLinetypeTableRecord
  2
HIDDEN
 70
     0
  3
Hidden __ __ __ __ __ __ __ __ __ __ __ __ __ __
 72
    65
 73
     2
 40
0.075
 49
0.05
 74
     0
 49
-0.025
 74
     0
  0
LTYPE
  5
5F
330
5
100
AcDbSymbolTableRecord
100
AcDbLinetypeTableRecord
  2
PHANTOM
 70
     0
  3
Phantom ______  __  __  ______  __  __  ______
 72
    65
 73
     6
 40
0.5
 49
0.25
 74
     0
 49
-0.05
 74
     0
 49
0.05
 74
     0
 49
-0.05
 74
     0
 49
0.05
 74
     0
 49
-0.05
 74
     0
  0
LTYPE
  5
60
330
5
100
AcDbSymbolTableRecord
100
AcDbLinetypeTableRecord
  2
CENTER
 70
     0
  3
Center ____ _ ____ _ ____ _ ____ _ ____ _ ____
 72
    65
 73
     4
 40
0.4
 49
0.25
 74
     0
 49
-0.05
 74
     0
 49
0.05
 74
     0
 49
-0.05
 74
     0
  0
LTYPE
  5
61
330
5
100
AcDbSymbolTableRecord
100
AcDbLinetypeTableRecord
  2
CENTERX2
 70
     0
  3
Center (2x) ________  __  ________  __  _____
 72
    65
 73
     4
 40
0.8
 49
0.5
 74
     0
 49
-0.1
 74
     0
 49
0.1
 74
     0
 49
-0.1
 74
     0
  0
LTYPE
  5
62
330
5
100
AcDbSymbolTableRecord
100
AcDbLinetypeTableRecord
  2
DOT2
 70
     0
  3
Dot (.5x) ........................................
 72
    65
 73
     2
 40
0.025
 49
0.0
 74
     0
 49
-0.025
 74
     0
  0
ENDTAB
  0
TABLE
  2
LAYER
  5
2
330
0
100
AcDbSymbolTable
 70
     1
  0
LAYER
  5
10
330
2
100
AcDbSymbolTableRecord
100
AcDbLayerTableRecord
  2
0
 70
     0
 62
     7
  6
Continuous
370
    -3
390
F
  0
ENDTAB
  0
TABLE
  2
STYLE
  5
3
330
0
100
AcDbSymbolTable
 70
     2
  0
STYLE
  5
11
330
3
100
AcDbSymbolTableRecord
100
AcDbTextStyleTableRecord
  2
Standard
 70
     0
 40
0.0
 41
1.0
 50
0.0
 71
     0
 42
0.1377952756
  3
txt
  4

  0
STYLE
  5
69
330
3
100
AcDbSymbolTableRecord
100
AcDbTextStyleTableRecord
  2
SLDTEXTSTYLE0
 70
     0
 40
0.0
 41
0.7
 50
0.0
 71
     0
 42
0.1377952756
  3
TXT
  4

  0
ENDTAB
  0
TABLE
  2
VIEW
  5
6
330
0
100
AcDbSymbolTable
 70
     0
  0
ENDTAB
  0
TABLE
  2
UCS
  5
7
330
0
100
AcDbSymbolTable
 70
     0
  0
ENDTAB
  0
TABLE
  2
APPID
  5
9
330
0
100
AcDbSymbolTable
 70
     1
  0
APPID
  5
12
330
9
100
AcDbSymbolTableRecord
100
AcDbRegAppTableRecord
  2
ACAD
 70
     0
  0
ENDTAB
  0
TABLE
  2
DIMSTYLE
  5
A
330
0
100
AcDbSymbolTable
 70
     1
100
AcDbDimStyleTable
  0
DIMSTYLE
105
27
330
A
100
AcDbSymbolTableRecord
100
AcDbDimStyleTableRecord
  2
Standard
 70
     0
178
     0
340
11
  0
ENDTAB
  0
TABLE
  2
BLOCK_RECORD
  5
1
330
0
100
AcDbSymbolTable
 70
     1
  0
BLOCK_RECORD
  5
1F
330
1
100
AcDbSymbolTableRecord
100
AcDbBlockTableRecord
  2
*Model_Space
340
22
  0
BLOCK_RECORD
  5
1B
330
1
100
AcDbSymbolTableRecord
100
AcDbBlockTableRecord
  2
*Paper_Space
340
1E
  0
BLOCK_RECORD
  5
23
330
1
100
AcDbSymbolTableRecord
100
AcDbBlockTableRecord
  2
*Paper_Space0
340
26
  0
ENDTAB
  0
ENDSEC
  0
SECTION
  2
BLOCKS
  0
BLOCK
  5
20
330
1F
100
AcDbEntity
  8
0
100
AcDbBlockBegin
  2
*Model_Space
 70
     0
 10
0.0
 20
0.0
 30
0.0
  3
*Model_Space
  1

  0
ENDBLK
  5
21
330
1F
100
AcDbEntity
  8
0
100
AcDbBlockEnd
  0
BLOCK
  5
1C
330
1B
100
AcDbEntity
 67
     1
  8
0
100
AcDbBlockBegin
  2
*Paper_Space
 70
     0
 10
0.0
 20
0.0
 30
0.0
  3
*Paper_Space
  1

  0
ENDBLK
  5
1D
330
1B
100
AcDbEntity
 67
     1
  8
0
100
AcDbBlockEnd
  0
BLOCK
  5
24
330
23
100
AcDbEntity
  8
0
100
AcDbBlockBegin
  2
*Paper_Space0
 70
     0
 10
0.0
 20
0.0
 30
0.0
  3
*Paper_Space0
  1

  0
ENDBLK
  5
25
330
23
100
AcDbEntity
  8
0
100
AcDbBlockEnd
  0
ENDSEC
  0
SECTION
  2
ENTITIES
  0
SPLINE
  5
65
330
1F
100
AcDbEntity
  8
0
  6
Continuous
 62
     7
370
    25
100
AcDbSpline
210
0.0
220
0.0
230
1.0
 70
     8
 71
     3
 72
   136
 73
   132
 74
     0
 42
0.00000001
 43
0.00000001
 40
0.0
 40
0.0
 40
0.0
 40
0.0
 40
0.0043031864235132
 40
0.0085803639045232
 40
0.0128343444519221
 40
0.0170679862974606
 40
0.0212841890368918
 40
0.0254858883703449
 40
0.0296760504820695
 40
0.0338576661078032
 40
0.0380337443452509
 40
0.0422073062693436
 40
0.0463813784187244
 40
0.0505589862231125
 40
0.0547431474426878
 40
0.058936865690323
 40
0.0631431241054413
 40
0.0673648792444815
 40
0.0716050552477064
 40
0.0758665383355155
 40
0.0801521716798521
 40
0.0844647506880043
 40
0.0888070187274128
 40
0.0931816633113344
 40
0.0975913127566131
 40
0.1020385333166832
 40
0.1065258267854276
 40
0.1110556285608252
 40
0.1156303061515653
 40
0.1202521581049597
 40
0.1249234133307
 40
0.138457857313493
 40
0.1533736629094107
 40
0.1696979138473323
 40
0.1874512490340078
 40
0.1985826172601156
 40
0.2086296780305027
 40
0.2175924358914116
 40
0.225470897266168
 40
0.2322650716534331
 40
0.237974973963143
 40
0.2426006295900901
 40
0.2461420872536202
 40
0.2485994601591562
 40
0.2499731295596877
 40
0.2524809140953735
 40
0.2549247581012637
 40
0.2573052806808701
 40
0.259623151677733
 40
0.2618790967442999
 40
0.264073902956206
 40
0.2662084250224949
 40
0.2682835921421035
 40
0.2703004155543871
 40
0.2722599968253597
 40
0.2741635369005753
 40
0.276012345938184
 40
0.2778078539098529
 40
0.2795516219203114
 40
0.2812453541457405
 40
0.2888052686922817
 40
0.2964096819093234
 40
0.3042452235096018
 40
0.3124828289464729
 40
0.3228122872731337
 40
0.3366285162522102
 40
0.3540032909629185
 40
0.374971875761587
 40
0.3851730612203847
 40
0.3946917781374467
 40
0.4035283890442385
 40
0.4116833474424947
 40
0.4191572309193113
 40
0.4259507907785582
 40
0.4320650291191664
 40
0.4375013237210807
 40
0.4546504004923168
 40
0.4707442698955674
 40
0.4858446509389067
 40
0.5000262397060772
 40
0.5204836409922605
 40
0.5405235265161592
 40
0.5605730014895479
 40
0.5810585713394855
 40
0.602380587846265
 40
0.6248948254355038
 40
0.6344430605562142
 40
0.6437751298963685
 40
0.6528985059774634
 40
0.661821185662586
 40
0.6705517173249808
 40
0.6790992258597192
 40
0.6874734344726767
 40
0.6937296902243529
 40
0.699984671416128
 40
0.7062386965175129
 40
0.712492084144095
 40
0.7187451530089046
 40
0.7249982218737135
 40
0.7312516095002953
 40
0.7375056346016796
 40
0.7437606157934545
 40
0.7500168715451305
 40
0.7591851586118598
 40
0.7674384261045141
 40
0.7747956559573503
 40
0.7812836994331984
 40
0.7895547400225592
 40
0.7974021994797527
 40
0.8049953828472654
 40
0.8125207767633308
 40
0.823204931608103
 40
0.8370665911741986
 40
0.8542869642791506
 40
0.8749591218005408
 40
0.8839708321046015
 40
0.8923691391988606
 40
0.9001541092493465
 40
0.9073258253979982
 40
0.9138843941091591
 40
0.9198299547852891
 40
0.9251626949027534
 40
0.9298828749586002
 40
0.9339908719828423
 40
0.9374872610537357
 40
0.9484398280010675
 40
0.959158919101745
 40
0.9696588220540515
 40
0.9799547371025346
 40
0.9900627847902796
 40
0.9999999999999999
 40
0.9999999999999999
 40
0.9999999999999999
 40
0.9999999999999999
 10
9.56514109332972
 20
-21.01451473525784
 30
0.0
 10
9.569716085565169
 20
-21.01318056885252
 30
0.0
 10
9.578838418268672
 20
-21.01052029989362
 30
0.0
 10
9.592606057121369
 20
-21.00698233596349
 30
0.0
 10
9.606378530836704
 20
-21.00379338314773
 30
0.0
 10
9.620165089583656
 20
-21.00098437142408
 30
0.0
 10
9.633963254743028
 20
-20.99854709522084
 30
0.0
 10
9.647773664433004
 20
-20.99648375365752
 30
0.0
 10
9.661596125336711
 20
-20.99479377424623
 30
0.0
 10
9.675430664097696
 20
-20.99347732054235
 30
0.0
 10
9.689277247444018
 20
-20.99253435713554
 30
0.0
 10
9.703135857209332
 20
-20.99196489892001
 30
0.0
 10
9.717006470680246
 20
-20.99176894441424
 30
0.0
 10
9.730889066247427
 20
-20.99194649354003
 30
0.0
 10
9.744783622292884
 20
-20.99249754288074
 30
0.0
 10
9.758690117878409
 20
-20.99342208703235
 30
0.0
 10
9.772608532930315
 20
-20.99472011838158
 30
0.0
 10
9.786538848527835
 20
-20.99639162736092
 30
0.0
 10
9.800481047123018
 20
-20.99843660262294
 30
0.0
 10
9.81443511273278
 20
-21.00085503127245
 30
0.0
 10
9.828401031082375
 20
-21.00364689911833
 30
0.0
 10
9.8423787897227
 20
-21.00681219091019
 30
0.0
 10
9.856368378041942
 20
-21.01035089068786
 30
0.0
 10
9.870369787471622
 20
-21.01426298171605
 30
0.0
 10
9.884383010764635
 20
-21.0185484479591
 30
0.0
 10
9.898408044599597
 20
-21.02320726968392
 30
0.0
 10
9.912444879453997
 20
-21.02823944117666
 30
0.0
 10
9.926493537500455
 20
-21.03364490470825
 30
0.0
 10
9.94055392861196
 20
-21.03942380140754
 30
0.0
 10
9.954626395239035
 20
-21.04557552164713
 30
0.0
 10
9.977563600201545
 20
-21.05620560767909
 30
0.0
 10
10.01021155676383
 20
-21.07296328526298
 30
0.0
 10
10.0532403476203
 20
-21.09762551673564
 30
0.0
 10
10.09927323273887
 20
-21.12636462915531
 30
0.0
 10
10.14079053655545
 20
-21.15435303722008
 30
0.0
 10
10.17622285844324
 20
-21.1789133055198
 30
0.0
 10
10.20371963516015
 20
-21.19783497209746
 30
0.0
 10
10.22824912463873
 20
-21.21471397007847
 30
0.0
 10
10.24982769930562
 20
-21.22952688113931
 30
0.0
 10
10.26845126022591
 20
-21.2422795960978
 30
0.0
 10
10.28412135604373
 20
-21.25296988223172
 30
0.0
 10
10.29683476032921
 20
-21.26160254026869
 30
0.0
 10
10.30659764089783
 20
-21.26816861018034
 30
0.0
 10
10.31339151785461
 20
-21.27269603207191
 30
0.0
 10
10.31931067133587
 20
-21.27647164524001
 30
0.0
 10
10.32540411908964
 20
-21.27993076408502
 30
0.0
 10
10.33247109848141
 20
-21.28392791326937
 30
0.0
 10
10.3394325460196
 20
-21.28768360413227
 30
0.0
 10
10.3462689863798
 20
-21.29122979464623
 30
0.0
 10
10.3529854509422
 20
-21.29455825991917
 30
0.0
 10
10.35958066292129
 20
-21.297671121261
 30
0.0
 10
10.36605497120183
 20
-21.30056783655015
 30
0.0
 10
10.37240830945337
 20
-21.30324854705238
 30
0.0
 10
10.37864072010899
 20
-21.30571321694818
 30
0.0
 10
10.384752223597
 20
-21.30796185139025
 30
0.0
 10
10.39074283868955
 20
-21.30999444843872
 30
0.0
 10
10.39661262489951
 20
-21.31181097926644
 30
0.0
 10
10.40236150116923
 20
-21.31341150360785
 30
0.0
 10
10.40798990011177
 20
-21.31479574066933
 30
0.0
 10
10.41990351105734
 20
-21.31732462022376
 30
0.0
 10
10.43854113345732
 20
-21.3194459297477
 30
0.0
 10
10.46408834150832
 20
-21.31823573084393
 30
0.0
 10
10.48985915381037
 20
-21.31293083353101
 30
0.0
 10
10.51751202485379
 20
-21.3031217062894
 30
0.0
 10
10.54913255286
 20
-21.28598854382689
 30
0.0
 10
10.58754779447954
 20
-21.26069174084897
 30
0.0
 10
10.63415633797309
 20
-21.22653770680886
 30
0.0
 10
10.67628740928443
 20
-21.19313928334451
 30
0.0
 10
10.71134683357831
 20
-21.16483686175034
 30
0.0
 10
10.73612222776174
 20
-21.14518405529524
 30
0.0
 10
10.75922824327216
 20
-21.12707418079432
 30
0.0
 10
10.78068292603152
 20
-21.11052929789501
 30
0.0
 10
10.80048128727798
 20
-21.09554291705558
 30
0.0
 10
10.81862598363213
 20
-21.08211849830491
 30
0.0
 10
10.83511074766911
 20
-21.07024614128823
 30
0.0
 10
10.86122759241966
 20
-21.05213410037301
 30
0.0
 10
10.89730002964381
 20
-21.02899260042342
 30
0.0
 10
10.94394343253982
 20
-21.00265300659296
 30
0.0
 10
10.98927690713561
 20
-20.98087980114057
 30
0.0
 10
11.04059493279044
 20
-20.96072958180347
 30
0.0
 10
11.09925535815317
 20
-20.9448901542068
 30
0.0
 10
11.16608265703539
 20
-20.93700086465657
 30
0.0
 10
11.23337529684752
 20
-20.93906237651895
 30
0.0
 10
11.30103837065922
 20
-20.95109080106421
 30
0.0
 10
11.36904783157184
 20
-20.97294393439478
 30
0.0
 10
11.42271922798416
 20
-20.99805006680544
 30
0.0
 10
11.46287530241277
 20
-21.02015967504721
 30
0.0
 10
11.48967608310928
 20
-21.03576980977235
 30
0.0
 10
11.51541035652742
 20
-21.05180762482273
 30
0.0
 10
11.54009931357434
 20
-21.06823916013039
 30
0.0
 10
11.56372888220266
 20
-21.08508354500102
 30
0.0
 10
11.58633346661693
 20
-21.10229930765828
 30
0.0
 10
11.60612324544958
 20
-21.11865097288984
 30
0.0
 10
11.62373631307927
 20
-21.13364052191658
 30
0.0
 10
11.63972747302496
 20
-21.14691197190124
 30
0.0
 10
11.65579162633116
 20
-21.16008923046148
 30
0.0
 10
11.67195283153815
 20
-21.1731441911213
 30
0.0
 10
11.68820469285838
 20
-21.18608431759915
 30
0.0
 10
11.70454873886759
 20
-21.19890785536946
 30
0.0
 10
11.72098524953526
 20
-21.21161435908629
 30
0.0
 10
11.73751157538444
 20
-21.22420736441732
 30
0.0
 10
11.75413803559482
 20
-21.23667317077773
 30
0.0
 10
11.77341371886235
 20
-21.25098430255781
 30
0.0
 10
11.794779401673
 20
-21.26619395698669
 30
0.0
 10
11.81783137236985
 20
-21.28109812211559
 30
0.0
 10
11.83905695628597
 20
-21.29330523101426
 30
0.0
 10
11.86107159664255
 20
-21.30408827633364
 30
0.0
 10
11.88466761523759
 20
-21.31267457500128
 30
0.0
 10
11.91045566413309
 20
-21.31812153120968
 30
0.0
 10
11.93594927787042
 20
-21.31946956628608
 30
0.0
 10
11.96451776940902
 20
-21.31649460128312
 30
0.0
 10
11.99848238009536
 20
-21.30533122063603
 30
0.0
 10
12.04009423639859
 20
-21.28501713087608
 30
0.0
 10
12.08941283188701
 20
-21.25571678278428
 30
0.0
 10
12.13237225914354
 20
-21.22649137041554
 30
0.0
 10
12.16681450316595
 20
-21.20215834943123
 30
0.0
 10
12.18969925470335
 20
-21.18619735762954
 30
0.0
 10
12.21094345094892
 20
-21.1714467367809
 30
0.0
 10
12.23056486540372
 20
-21.1579311526537
 30
0.0
 10
12.2485591230387
 20
-21.14564446818387
 30
0.0
 10
12.26492729826764
 20
-21.13458814691162
 30
0.0
 10
12.27966844555413
 20
-21.12476061710824
 30
0.0
 10
12.29278418199419
 20
-21.11616435083166
 30
0.0
 10
12.30426873895131
 20
-21.10878961304737
 30
0.0
 10
12.32172718683245
 20
-21.09794895877703
 30
0.0
 10
12.34580181549861
 20
-21.08389193456211
 30
0.0
 10
12.37716317347349
 20
-21.06697515438121
 30
0.0
 10
12.40848822944304
 20
-21.05156803606844
 30
0.0
 10
12.43977610212199
 20
-21.0376865248876
 30
0.0
 10
12.47098811898713
 20
-21.02520720698693
 30
0.0
 10
12.49201345701981
 20
-21.01807776673544
 30
0.0
 10
12.50243653353203
 20
-21.01454342635457
 30
0.0
  0
SPLINE
  5
66
330
1F
100
AcDbEntity
  8
0
  6
Continuous
 62
     7
370
    25
100
AcDbSpline
210
0.0
220
0.0
230
1.0
 70
     8
 71
     3
 72
    84
 73
    80
 74
     0
 42
0.00000001
 43
0.00000001
 40
0.0
 40
0.0
 40
0.0
 40
0.0
 40
0.0077443283072254
 40
0.0147413245994872
 40
0.0209930540262038
 40
0.0265024198756415
 40
0.0312736808020773
 40
0.0431096304686595
 40
0.0534147921267786
 40
0.0625081941550964
 40
0.0702718141090162
 40
0.0788542328511871
 40
0.0884853086383906
 40
0.0993284134911337
 40
0.1114982046788294
 40
0.1250757709162864
 40
0.1307638637415255
 40
0.1364512343856109
 40
0.1421380432698383
 40
0.1478244508630459
 40
0.1535106176680487
 40
0.1591967042080506
 40
0.1648828710130534
 40
0.1705692786062618
 40
0.1762560874904886
 40
0.1819434581345742
 40
0.187631550959813
 40
0.2017796969027876
 40
0.2150871894366628
 40
0.2275731001230332
 40
0.2392605231927451
 40
0.2501776214595182
 40
0.2823471016427516
 40
0.3125946335839406
 40
0.3427961074817593
 40
0.3748355045806691
 40
0.3887753458272452
 40
0.4038089531977056
 40
0.4199944150782913
 40
0.437378276879858
 40
0.4535000749004516
 40
0.4743457752775389
 40
0.4999244297354741
 40
0.5122044952917582
 40
0.5233640693865942
 40
0.5334051067409346
 40
0.5423302970238402
 40
0.5501434823718624
 40
0.5568504162645341
 40
0.5624602569450227
 40
0.5711561463884668
 40
0.5792041677552979
 40
0.5866911922908346
 40
0.5937249081392997
 40
0.6032618175918977
 40
0.613596013622173
 40
0.6249748033611987
 40
0.632386169813418
 40
0.6423317882422009
 40
0.6548280793659129
 40
0.6698831200646944
 40
0.6875014685034982
 40
0.7001524724657651
 40
0.711909183883298
 40
0.7227737976223114
 40
0.7327490974314251
 40
0.7418386841715554
 40
0.7500473243861063
 40
0.784120855977427
 40
0.8157247034764766
 40
0.8456729516938974
 40
0.8749182716400349
 40
0.8893335451842873
 40
0.904510552399439
 40
0.9205291694830487
 40
0.9374573633365942
 40
0.9519048472844869
 40
0.9727492343963979
 40
1.0
 40
1.0
 40
1.0
 40
1.0
 10
12.50243653353204
 20
8.344101987997234
 30
0.0
 10
12.49518272221864
 20
8.348856028472067
 30
0.0
 10
12.48137509644244
 20
8.357905341855812
 30
0.0
 10
12.46147690573479
 20
8.370429050387797
 30
0.0
 10
12.44349901864973
 20
8.38129768399169
 30
0.0
 10
12.42742878553612
 20
8.390498087448059
 30
0.0
 10
12.405559190033
 20
8.402125900341353
 30
0.0
 10
12.37787050753977
 20
8.414264859717006
 30
0.0
 10
12.34394699548618
 20
8.423420910842644
 30
0.0
 10
12.31330111038666
 20
8.425393965859646
 30
0.0
 10
12.28506313561128
 20
8.420278082289554
 30
0.0
 10
12.25773704965402
 20
8.409949104312066
 30
0.0
 10
12.22919021481795
 20
8.394144820416022
 30
0.0
 10
12.19938273278032
 20
8.372877860014112
 30
0.0
 10
12.16822149780917
 20
8.346195252096738
 30
0.0
 10
12.14330892539992
 20
8.321290213408728
 30
0.0
 10
12.12404277203145
 20
8.301050888034597
 30
0.0
 10
12.11072129758603
 20
8.28735182040265
 30
0.0
 10
12.09734851413419
 20
8.273706313778794
 30
0.0
 10
12.08389903128546
 20
8.260138022065991
 30
0.0
 10
12.07037965909235
 20
8.246640600142575
 30
0.0
 10
12.05678854467977
 20
8.233215777813163
 30
0.0
 10
12.04312629028914
 20
8.219862980615886
 30
0.0
 10
12.02939233991439
 20
8.206582776891628
 30
0.0
 10
12.01558831568254
 20
8.1933734677752
 30
0.0
 10
12.0017082845417
 20
8.180241281361448
 30
0.0
 10
11.98086704627848
 20
8.160679845020159
 30
0.0
 10
11.95334899285983
 20
8.135761108254492
 30
0.0
 10
11.91910445668602
 20
8.106967400811186
 30
0.0
 10
11.88592285763545
 20
8.081242870880532
 30
0.0
 10
11.85377666640748
 20
8.058605036318664
 30
0.0
 10
11.80187177173349
 20
8.025908712061563
 30
0.0
 10
11.72672802384997
 20
7.99097779079576
 30
0.0
 10
11.62378256241351
 20
7.971090217031886
 30
0.0
 10
11.5193336226943
 20
7.978541795082609
 30
0.0
 10
11.43754434561332
 20
8.005394383841708
 30
0.0
 10
11.37613401106741
 20
8.035405866647068
 30
0.0
 10
11.33221436323254
 20
8.060557142758356
 30
0.0
 10
11.28660791609057
 20
8.090306736602079
 30
0.0
 10
11.24148899879222
 20
8.122919989656374
 30
0.0
 10
11.19383104494446
 20
8.160799775684255
 30
0.0
 10
11.14007253115279
 20
8.20570893456619
 30
0.0
 10
11.0903779484816
 20
8.248751025500427
 30
0.0
 10
11.04889429341175
 20
8.284703604614913
 30
0.0
 10
11.02020894342553
 20
8.30885082739048
 30
0.0
 10
10.99410156486257
 20
8.330221268421157
 30
0.0
 10
10.97055449230624
 20
8.348796942610607
 30
0.0
 10
10.94956857906325
 20
8.364579896202653
 30
0.0
 10
10.93115560082989
 20
8.377595153799108
 30
0.0
 10
10.91135059553283
 20
8.390319627392156
 30
0.0
 10
10.88932424187987
 20
8.402293650955091
 30
0.0
 10
10.86434177183933
 20
8.413003291055096
 30
0.0
 10
10.84008428745037
 20
8.420314629028656
 30
0.0
 10
10.81342395915711
 20
8.42474433983383
 30
0.0
 10
10.78310716721797
 20
8.424487538949519
 30
0.0
 10
10.74855133036016
 20
8.418226095956948
 30
0.0
 10
10.71742160601807
 20
8.40814537417352
 30
0.0
 10
10.68804261561554
 20
8.39496006897511
 30
0.0
 10
10.65827975474468
 20
8.379715033513502
 30
0.0
 10
10.62144841191446
 20
8.359540101223736
 30
0.0
 10
10.57756044219706
 20
8.334380993884364
 30
0.0
 10
10.53395402888195
 20
8.308401966798531
 30
0.0
 10
10.49351310338481
 20
8.284326490231667
 30
0.0
 10
10.4592647225718
 20
8.264641722609609
 30
0.0
 10
10.42736485021603
 20
8.246891361433157
 30
0.0
 10
10.39779530657884
 20
8.231106174435048
 30
0.0
 10
10.37056167884513
 20
8.21726977797938
 30
0.0
 10
10.31862261034601
 20
8.192531000193295
 30
0.0
 10
10.24113890654474
 20
8.162672939583247
 30
0.0
 10
10.13615411817577
 20
8.139366954204496
 30
0.0
 10
10.0340315822984
 20
8.13460870026235
 30
0.0
 10
9.951899553335725
 20
8.146352483403382
 30
0.0
 10
9.888515260281565
 20
8.164563245155993
 30
0.0
 10
9.84056807160155
 20
8.182312244344333
 30
0.0
 10
9.79142879250527
 20
8.204522351405492
 30
0.0
 10
9.744363733172946
 20
8.229142033861494
 30
0.0
 10
9.694341542339
 20
8.259470258159554
 30
0.0
 10
9.63541267685428
 20
8.29732937286546
 30
0.0
 10
9.590556596835974
 20
8.32714589809859
 30
0.0
 10
9.565141093329721
 20
8.344039973579507
 30
0.0
  0
LINE
  5
67
330
1F
100
AcDbEntity
  8
0
  6
Continuous
 62
     7
370
    25
100
AcDbLine
 10
9.5651410933
 20
8.3440399736
 30
0.0
 11
9.5651410933
 21
-21.0145147353
 31
0.0
  0
LINE
  5
68
330
1F
100
AcDbEntity
  8
0
  6
Continuous
 62
     7
370
    25
100
AcDbLine
 10
12.5024365335
 20
-21.0145434264
 30
0.0
 11
12.5024365335
 21
8.344101988
 31
0.0
  0
MTEXT
  5
6A
330
1F
100
AcDbEntity
  8
0
  6
Continuous
 62
     7
100
AcDbMText
 10
9.5651410933
 20
-21.357547745
 30
0.0
 40
0.1903
 41
0.0
 71
     1
 72
     1
  1
SOLIDWORKS Educational Product.
  7
SLDTEXTSTYLE0
 73
     1
 44
1.0
  0
MTEXT
  5
6B
330
1F
100
AcDbEntity
  8
0
  6
Continuous
 62
     7
100
AcDbMText
 10
9.5651410933
 20
-21.642997745
 30
0.0
 40
0.1903
 41
0.0
 71
     1
 72
     1
  1
For Instructional Use Only.
  7
SLDTEXTSTYLE0
 73
     1
 44
1.0
  0
ENDSEC
  0
SECTION
  2
OBJECTS
  0
DICTIONARY
  5
C
330
0
100
AcDbDictionary
281
     1
  3
ACAD_GROUP
350
D
  3
ACAD_LAYOUT
350
1A
  3
ACAD_MLINESTYLE
350
17
  3
ACAD_PLOTSETTINGS
350
19
  3
ACAD_PLOTSTYLENAME
350
E
  3
ACAD_SCALELIST
350
47
  3
DWGPROPS
350
6C
  0
DICTIONARY
  5
D
102
{ACAD_REACTORS
330
C
102
}
330
C
100
AcDbDictionary
281
     1
  0
DICTIONARY
  5
1A
102
{ACAD_REACTORS
330
C
102
}
330
C
100
AcDbDictionary
281
     1
  3
Layout1
350
1E
  3
Layout2
350
26
  3
Model
350
22
  0
DICTIONARY
  5
17
102
{ACAD_REACTORS
330
C
102
}
330
C
100
AcDbDictionary
281
     1
  3
Standard
350
18
  0
DICTIONARY
  5
19
102
{ACAD_REACTORS
330
C
102
}
330
C
100
AcDbDictionary
281
     1
  0
ACDBDICTIONARYWDFLT
  5
E
102
{ACAD_REACTORS
330
C
102
}
330
C
100
AcDbDictionary
281
     1
  3
Normal
350
F
100
AcDbDictionaryWithDefault
340
F
  0
DICTIONARY
  5
47
102
{ACAD_REACTORS
330
C
102
}
330
C
100
AcDbDictionary
281
     1
  3
A0
350
48
  3
A1
350
49
  3
A2
350
4A
  3
A3
350
4B
  3
A4
350
4C
  3
A5
350
4D
  3
A6
350
4E
  3
A7
350
4F
  3
A8
350
50
  3
A9
350
51
  3
B1
350
52
  3
B2
350
53
  3
B3
350
54
  3
B4
350
55
  3
B5
350
56
  3
B6
350
57
  3
B7
350
58
  0
XRECORD
  5
6C
102
{ACAD_REACTORS
330
C
102
}
330
C
100
AcDbXrecord
280
     1
  1
DWGPROPS COOKIE
  2

  3

  4

  6

  7

  8
manny
  9

300
=
301
=
302
=
303
=
304
=
305
=
306
=
307
=
308
=
309
=
 40
0.0
 41
2460633.152589549
 42
2460633.152626517
  1

 90
        0
  0
LAYOUT
  5
1E
102
{ACAD_REACTORS
330
1A
102
}
330
1A
100
AcDbPlotSettings
  1

  2
none_device
  4

  6

 40
0.0
 41
0.0
 42
0.0
 43
0.0
 44
0.0
 45
0.0
 46
0.0
 47
0.0
 48
0.0
 49
0.0
140
0.0
141
0.0
142
1.0
143
1.0
 70
   688
 72
     0
 73
     0
 74
     5
  7

 75
    16
147
1.0
148
0.0
149
0.0
100
AcDbLayout
  1
Layout1
 70
     1
 71
     1
 10
0.0
 20
0.0
 11
12.0
 21
9.0
 12
0.0
 22
0.0
 32
0.0
 14
1.0000000000E+20
 24
1.0000000000E+20
 34
1.0000000000E+20
 15
-1.0000000000E+20
 25
-1.0000000000E+20
 35
-1.0000000000E+20
146
0.0
 13
0.0
 23
0.0
 33
0.0
 16
1.0
 26
0.0
 36
0.0
 17
0.0
 27
1.0
 37
0.0
 76
     0
330
1B
  0
LAYOUT
  5
26
102
{ACAD_REACTORS
330
1A
102
}
330
1A
100
AcDbPlotSettings
  1

  2
none_device
  4

  6

 40
0.0
 41
0.0
 42
0.0
 43
0.0
 44
0.0
 45
0.0
 46
0.0
 47
0.0
 48
0.0
 49
0.0
140
0.0
141
0.0
142
1.0
143
1.0
 70
   688
 72
     0
 73
     0
 74
     5
  7

 75
    16
147
1.0
148
0.0
149
0.0
100
AcDbLayout
  1
Layout2
 70
     1
 71
     2
 10
0.0
 20
0.0
 11
0.0
 21
0.0
 12
0.0
 22
0.0
 32
0.0
 14
0.0
 24
0.0
 34
0.0
 15
0.0
 25
0.0
 35
0.0
146
0.0
 13
0.0
 23
0.0
 33
0.0
 16
1.0
 26
0.0
 36
0.0
 17
0.0
 27
1.0
 37
0.0
 76
     0
330
23
  0
LAYOUT
  5
22
102
{ACAD_REACTORS
330
1A
102
}
330
1A
100
AcDbPlotSettings
  1

  2
none_device
  4
ANSI_A_(11.00_x_8.50_Inches)
  6

 40
6.35
 41
19.05
 42
6.35000508
 43
19.05000254
 44
279.4
 45
215.9
 46
54.0544494995
 47
135.2294125927
 48
0.0
 49
0.0
140
0.0
141
0.0
142
0.2829374406
143
1.0
 70
  1696
 72
     0
 73
     0
 74
     0
  7

 75
     0
147
0.5913241897
148
-39.4088153714
149
0.0
100
AcDbLayout
  1
Model
 70
     1
 71
     0
 10
0.0
 20
0.0
 11
12.0
 21
9.0
 12
0.0
 22
0.0
 32
0.0
 14
9.5651410933
 24
-21.3174073359
 34
0.0
 15
12.5024365335
 25
8.4241496043
 35
0.0
146
0.0
 13
0.0
 23
0.0
 33
0.0
 16
1.0
 26
0.0
 36
0.0
 17
0.0
 27
1.0
 37
0.0
 76
     0
330
1F
331
29
  0
MLINESTYLE
  5
18
102
{ACAD_REACTORS
330
17
102
}
330
17
100
AcDbMlineStyle
  2
Standard
 70
     0
  3

 62
   256
 51
90.0
 52
90.0
 71
     2
 49
0.5
 62
   256
  6
BYLAYER
 49
-0.5
 62
   256
  6
BYLAYER
  0
ACDBPLACEHOLDER
  5
F
102
{ACAD_REACTORS
330
E
102
}
330
E
  0
SCALE
  5
48
102
{ACAD_REACTORS
330
47
102
}
330
47
100
AcDbScale
 70
     0
300
1:1
140
1.0
141
1.0
290
     1
  0
SCALE
  5
49
102
{ACAD_REACTORS
330
47
102
}
330
47
100
AcDbScale
 70
     0
300
1/128" = 1'-0"
140
0.0078125
141
12.0
290
     0
  0
SCALE
  5
4A
102
{ACAD_REACTORS
330
47
102
}
330
47
100
AcDbScale
 70
     0
300
1/64" = 1'-0"
140
0.015625
141
12.0
290
     0
  0
SCALE
  5
4B
102
{ACAD_REACTORS
330
47
102
}
330
47
100
AcDbScale
 70
     0
300
1/32" = 1'-0"
140
0.03125
141
12.0
290
     0
  0
SCALE
  5
4C
102
{ACAD_REACTORS
330
47
102
}
330
47
100
AcDbScale
 70
     0
300
1/16" = 1'-0"
140
0.0625
141
12.0
290
     0
  0
SCALE
  5
4D
102
{ACAD_REACTORS
330
47
102
}
330
47
100
AcDbScale
 70
     0
300
3/32" = 1'-0"
140
0.09375
141
12.0
290
     0
  0
SCALE
  5
4E
102
{ACAD_REACTORS
330
47
102
}
330
47
100
AcDbScale
 70
     0
300
1/8" = 1'-0"
140
0.125
141
12.0
290
     0
  0
SCALE
  5
4F
102
{ACAD_REACTORS
330
47
102
}
330
47
100
AcDbScale
 70
     0
300
3/16" = 1'-0"
140
0.1875
141
12.0
290
     0
  0
SCALE
  5
50
102
{ACAD_REACTORS
330
47
102
}
330
47
100
AcDbScale
 70
     0
300
1/4" = 1'-0"
140
0.25
141
12.0
290
     0
  0
SCALE
  5
51
102
{ACAD_REACTORS
330
47
102
}
330
47
100
AcDbScale
 70
     0
300
3/8" = 1'-0"
140
0.375
141
12.0
290
     0
  0
SCALE
  5
52
102
{ACAD_REACTORS
330
47
102
}
330
47
100
AcDbScale
 70
     0
300
1/2" = 1'-0"
140
0.5
141
12.0
290
     0
  0
SCALE
  5
53
102
{ACAD_REACTORS
330
47
102
}
330
47
100
AcDbScale
 70
     0
300
3/4" = 1'-0"
140
0.75
141
12.0
290
     0
  0
SCALE
  5
54
102
{ACAD_REACTORS
330
47
102
}
330
47
100
AcDbScale
 70
     0
300
1" = 1'-0"
140
1.0
141
12.0
290
     0
  0
SCALE
  5
55
102
{ACAD_REACTORS
330
47
102
}
330
47
100
AcDbScale
 70
     0
300
1-1/2" = 1'-0"
140
1.5
141
12.0
290
     0
  0
SCALE
  5
56
102
{ACAD_REACTORS
330
47
102
}
330
47
100
AcDbScale
 70
     0
300
3" = 1'-0"
140
3.0
141
12.0
290
     0
  0
SCALE
  5
57
102
{ACAD_REACTORS
330
47
102
}
330
47
100
AcDbScale
 70
     0
300
6" = 1'-0"
140
6.0
141
12.0
290
     0
  0
SCALE
  5
58
102
{ACAD_REACTORS
330
47
102
}
330
47
100
AcDbScale
 70
     0
300
1'-0" = 1'-0"
140
12.0
141
12.0
290
     0
  0
ENDSEC
  0
EOF
