  0
SECTION
  2
HEADER
  9
$ACADVER
  1
AC1015
  9
$ACADMAINTVER
 70
     6
  9
$DWGCODEPAGE
  3
ANSI_1252
  9
$INSBASE
 10
0.0
 20
0.0
 30
0.0
  9
$EXTMIN
 10
-4.6815987644
 20
-13.8338044412
 30
0.0
  9
$EXTMAX
 10
-1.7443035337
 20
11.5732021185
 30
0.0
  9
$LIMMIN
 10
0.0
 20
0.0
  9
$LIMMAX
 10
12.0
 20
9.0
  9
$ORTHOMODE
 70
     0
  9
$REGENMODE
 70
     1
  9
$FILLMODE
 70
     1
  9
$QTEXTMODE
 70
     0
  9
$MIRRTEXT
 70
     1
  9
$LTSCALE
 40
1.0
  9
$ATTMODE
 70
     1
  9
$TEXTSIZE
 40
0.1377952756
  9
$TRACEWID
 40
0.05
  9
$TEXTSTYLE
  7
Standard
  9
$CLAYER
  8
0
  9
$CELTYPE
  6
ByLayer
  9
$CECOLOR
 62
   256
  9
$CELTSCALE
 40
1.0
  9
$DISPSILH
 70
     0
  9
$DIMSCALE
 40
1.0
  9
$DIMASZ
 40
0.13
  9
$DIMEXO
 40
0.0
  9
$DIMDLI
 40
0.38
  9
$DIMRND
 40
0.0
  9
$DIMDLE
 40
0.0
  9
$DIMEXE
 40
0.0393700787
  9
$DIMTP
 40
0.0
  9
$DIMTM
 40
0.0
  9
$DIMTXT
 40
0.1377952756
  9
$DIMCEN
 40
0.09
  9
$DIMTSZ
 40
0.0
  9
$DIMTOL
 70
     0
  9
$DIMLIM
 70
     0
  9
$DIMTIH
 70
     1
  9
$DIMTOH
 70
     1
  9
$DIMSE1
 70
     0
  9
$DIMSE2
 70
     0
  9
$DIMTAD
 70
     1
  9
$DIMZIN
 70
     1
  9
$DIMBLK
  1

  9
$DIMASO
 70
     1
  9
$DIMSHO
 70
     1
  9
$DIMPOST
  1

  9
$DIMAPOST
  1

  9
$DIMALT
 70
     0
  9
$DIMALTD
 70
     2
  9
$DIMALTF
 40
25.4
  9
$DIMLFAC
 40
1.0
  9
$DIMTOFL
 70
     0
  9
$DIMTVP
 40
0.0
  9
$DIMTIX
 70
     0
  9
$DIMSOXD
 70
     0
  9
$DIMSAH
 70
     0
  9
$DIMBLK1
  1

  9
$DIMBLK2
  1

  9
$DIMSTYLE
  2
Standard
  9
$DIMCLRD
 70
     0
  9
$DIMCLRE
 70
     0
  9
$DIMCLRT
 70
     0
  9
$DIMTFAC
 40
1.0
  9
$DIMGAP
 40
0.06
  9
$DIMJUST
 70
     0
  9
$DIMSD1
 70
     0
  9
$DIMSD2
 70
     0
  9
$DIMTOLJ
 70
     1
  9
$DIMTZIN
 70
     1
  9
$DIMALTZ
 70
     0
  9
$DIMALTTZ
 70
     0
  9
$DIMUPT
 70
     0
  9
$DIMDEC
 70
     2
  9
$DIMTDEC
 70
     2
  9
$DIMALTU
 70
     2
  9
$DIMALTTD
 70
     2
  9
$DIMTXSTY
  7
Standard
  9
$DIMAUNIT
 70
     0
  9
$DIMADEC
 70
     2
  9
$DIMALTRND
 40
0.0
  9
$DIMAZIN
 70
     0
  9
$DIMDSEP
 70
    46
  9
$DIMATFIT
 70
     3
  9
$DIMFRAC
 70
     0
  9
$DIMLDRBLK
  1

  9
$DIMLUNIT
 70
     2
  9
$DIMLWD
 70
    -2
  9
$DIMLWE
 70
    -2
  9
$DIMTMOVE
 70
     0
  9
$LUNITS
 70
     2
  9
$LUPREC
 70
     2
  9
$SKETCHINC
 40
0.1
  9
$FILLETRAD
 40
0.0
  9
$AUNITS
 70
     0
  9
$AUPREC
 70
     2
  9
$MENU
  1
.
  9
$ELEVATION
 40
0.0
  9
$PELEVATION
 40
0.0
  9
$THICKNESS
 40
0.0
  9
$LIMCHECK
 70
     0
  9
$CHAMFERA
 40
0.0
  9
$CHAMFERB
 40
0.0
  9
$CHAMFERC
 40
0.0
  9
$CHAMFERD
 40
0.0
  9
$SKPOLY
 70
     0
  9
$TDCREATE
 40
2460632.840355232
  9
$TDUCREATE
 40
2460633.173688565
  9
$TDUPDATE
 40
2460632.840392906
  9
$TDUUPDATE
 40
2460633.173726239
  9
$TDINDWG
 40
0.0000000116
  9
$TDUSRTIMER
 40
0.0000000116
  9
$USRTIMER
 70
     1
  9
$ANGBASE
 50
0.0
  9
$ANGDIR
 70
     0
  9
$PDMODE
 70
     0
  9
$PDSIZE
 40
-1.0
  9
$PLINEWID
 40
0.0
  9
$SPLFRAME
 70
     0
  9
$SPLINETYPE
 70
     6
  9
$SPLINESEGS
 70
     8
  9
$HANDSEED
  5
6D
  9
$SURFTAB1
 70
     6
  9
$SURFTAB2
 70
     6
  9
$SURFTYPE
 70
     6
  9
$SURFU
 70
     6
  9
$SURFV
 70
     6
  9
$UCSBASE
  2

  9
$UCSNAME
  2

  9
$UCSORG
 10
0.0
 20
0.0
 30
0.0
  9
$UCSXDIR
 10
1.0
 20
0.0
 30
0.0
  9
$UCSYDIR
 10
0.0
 20
1.0
 30
0.0
  9
$UCSORTHOREF
  2

  9
$UCSORTHOVIEW
 70
     0
  9
$UCSORGTOP
 10
0.0
 20
0.0
 30
0.0
  9
$UCSORGBOTTOM
 10
0.0
 20
0.0
 30
0.0
  9
$UCSORGLEFT
 10
0.0
 20
0.0
 30
0.0
  9
$UCSORGRIGHT
 10
0.0
 20
0.0
 30
0.0
  9
$UCSORGFRONT
 10
0.0
 20
0.0
 30
0.0
  9
$UCSORGBACK
 10
0.0
 20
0.0
 30
0.0
  9
$PUCSBASE
  2

  9
$PUCSNAME
  2

  9
$PUCSORG
 10
0.0
 20
0.0
 30
0.0
  9
$PUCSXDIR
 10
1.0
 20
0.0
 30
0.0
  9
$PUCSYDIR
 10
0.0
 20
1.0
 30
0.0
  9
$PUCSORTHOREF
  2

  9
$PUCSORTHOVIEW
 70
     0
  9
$PUCSORGTOP
 10
0.0
 20
0.0
 30
0.0
  9
$PUCSORGBOTTOM
 10
0.0
 20
0.0
 30
0.0
  9
$PUCSORGLEFT
 10
0.0
 20
0.0
 30
0.0
  9
$PUCSORGRIGHT
 10
0.0
 20
0.0
 30
0.0
  9
$PUCSORGFRONT
 10
0.0
 20
0.0
 30
0.0
  9
$PUCSORGBACK
 10
0.0
 20
0.0
 30
0.0
  9
$USERI1
 70
     0
  9
$USERI2
 70
     0
  9
$USERI3
 70
     0
  9
$USERI4
 70
     0
  9
$USERI5
 70
     0
  9
$USERR1
 40
0.0
  9
$USERR2
 40
0.0
  9
$USERR3
 40
0.0
  9
$USERR4
 40
0.0
  9
$USERR5
 40
0.0
  9
$WORLDVIEW
 70
     1
  9
$SHADEDGE
 70
     3
  9
$SHADEDIF
 70
    70
  9
$TILEMODE
 70
     1
  9
$MAXACTVP
 70
    64
  9
$PINSBASE
 10
0.0
 20
0.0
 30
0.0
  9
$PLIMCHECK
 70
     0
  9
$PEXTMIN
 10
1.0000000000E+20
 20
1.0000000000E+20
 30
1.0000000000E+20
  9
$PEXTMAX
 10
-1.0000000000E+20
 20
-1.0000000000E+20
 30
-1.0000000000E+20
  9
$PLIMMIN
 10
0.0
 20
0.0
  9
$PLIMMAX
 10
12.0
 20
9.0
  9
$UNITMODE
 70
     0
  9
$VISRETAIN
 70
     1
  9
$PLINEGEN
 70
     0
  9
$PSLTSCALE
 70
     1
  9
$TREEDEPTH
 70
  3020
  9
$CMLSTYLE
  2
Standard
  9
$CMLJUST
 70
     0
  9
$CMLSCALE
 40
1.0
  9
$PROXYGRAPHICS
 70
     1
  9
$MEASUREMENT
 70
     0
  9
$CELWEIGHT
370
    -1
  9
$ENDCAPS
280
     0
  9
$JOINSTYLE
280
     0
  9
$LWDISPLAY
290
     1
  9
$INSUNITS
 70
     1
  9
$HYPERLINKBASE
  1

  9
$STYLESHEET
  1

  9
$XEDIT
290
     1
  9
$CEPSNTYPE
380
     0
  9
$PSTYLEMODE
290
     1
  9
$FINGERPRINTGUID
  2
{6a34033e-53b9-485c-a643-286980f0ad6b}
  9
$VERSIONGUID
  2
{FAEB1C32-E019-11D5-929B-00C0DF256EC4}
  9
$EXTNAMES
290
     1
  9
$PSVPSCALE
 40
0.0
  9
$OLESTARTUP
290
     0
  0
ENDSEC
  0
SECTION
  2
CLASSES
  0
CLASS
  1
ACDBDICTIONARYWDFLT
  2
AcDbDictionaryWithDefault
  3
ObjectDBX Classes
 90
        0
280
     0
281
     0
  0
CLASS
  1
VISUALSTYLE
  2
AcDbVisualStyle
  3
ObjectDBX Classes
 90
     4095
280
     0
281
     0
  0
CLASS
  1
MATERIAL
  2
AcDbMaterial
  3
ObjectDBX Classes
 90
     1153
280
     0
281
     0
  0
CLASS
  1
SCALE
  2
AcDbScale
  3
ObjectDBX Classes
 90
     1153
280
     0
281
     0
  0
CLASS
  1
TABLESTYLE
  2
AcDbTableStyle
  3
ObjectDBX Classes
 90
     4095
280
     0
281
     0
  0
CLASS
  1
MLEADERSTYLE
  2
AcDbMLeaderStyle
  3
ACDB_MLEADERSTYLE_CLASS
 90
     4095
280
     0
281
     0
  0
CLASS
  1
SUN
  2
AcDbSun
  3
SCENEOE
 90
     1153
280
     0
281
     0
  0
CLASS
  1
ACDBPLACEHOLDER
  2
AcDbPlaceHolder
  3
ObjectDBX Classes
 90
        0
280
     0
281
     0
  0
CLASS
  1
LAYOUT
  2
AcDbLayout
  3
ObjectDBX Classes
 90
        0
280
     0
281
     0
  0
ENDSEC
  0
SECTION
  2
TABLES
  0
TABLE
  2
VPORT
  5
8
330
0
100
AcDbSymbolTable
 70
     1
  0
VPORT
  5
29
330
8
100
AcDbSymbolTableRecord
100
AcDbViewportTableRecord
  2
*Active
 70
     0
 10
0.0
 20
0.0
 11
1.0
 21
1.0
 12
-3.212951149
 22
-1.1303011614
 13
0.0
 23
0.0
 14
0.5
 24
0.5
 15
0.5
 25
0.5
 16
0.0
 26
0.0
 36
1.0
 17
0.0
 27
0.0
 37
0.0
 40
25.9151466909
 41
0.1156096537
 42
50.0
 43
0.0
 44
0.0
 50
0.0
 51
0.0
 71
     0
 72
   100
 73
     1
 74
     3
 75
     0
 76
     0
 77
     0
 78
     0
281
     0
 65
     1
110
0.0
120
0.0
130
0.0
111
1.0
121
0.0
131
0.0
112
0.0
122
1.0
132
0.0
 79
     0
146
0.0
  0
ENDTAB
  0
TABLE
  2
LTYPE
  5
5
330
0
100
AcDbSymbolTable
 70
     6
  0
LTYPE
  5
14
330
5
100
AcDbSymbolTableRecord
100
AcDbLinetypeTableRecord
  2
ByBlock
 70
     0
  3

 72
    65
 73
     0
 40
0.0
  0
LTYPE
  5
15
330
5
100
AcDbSymbolTableRecord
100
AcDbLinetypeTableRecord
  2
ByLayer
 70
     0
  3

 72
    65
 73
     0
 40
0.0
  0
LTYPE
  5
16
330
5
100
AcDbSymbolTableRecord
100
AcDbLinetypeTableRecord
  2
Continuous
 70
     0
  3
Solid line
 72
    65
 73
     0
 40
0.0
  0
LTYPE
  5
5E
330
5
100
AcDbSymbolTableRecord
100
AcDbLinetypeTableRecord
  2
HIDDEN
 70
     0
  3
Hidden __ __ __ __ __ __ __ __ __ __ __ __ __ __
 72
    65
 73
     2
 40
0.075
 49
0.05
 74
     0
 49
-0.025
 74
     0
  0
LTYPE
  5
5F
330
5
100
AcDbSymbolTableRecord
100
AcDbLinetypeTableRecord
  2
PHANTOM
 70
     0
  3
Phantom ______  __  __  ______  __  __  ______
 72
    65
 73
     6
 40
0.5
 49
0.25
 74
     0
 49
-0.05
 74
     0
 49
0.05
 74
     0
 49
-0.05
 74
     0
 49
0.05
 74
     0
 49
-0.05
 74
     0
  0
LTYPE
  5
60
330
5
100
AcDbSymbolTableRecord
100
AcDbLinetypeTableRecord
  2
CENTER
 70
     0
  3
Center ____ _ ____ _ ____ _ ____ _ ____ _ ____
 72
    65
 73
     4
 40
0.4
 49
0.25
 74
     0
 49
-0.05
 74
     0
 49
0.05
 74
     0
 49
-0.05
 74
     0
  0
LTYPE
  5
61
330
5
100
AcDbSymbolTableRecord
100
AcDbLinetypeTableRecord
  2
CENTERX2
 70
     0
  3
Center (2x) ________  __  ________  __  _____
 72
    65
 73
     4
 40
0.8
 49
0.5
 74
     0
 49
-0.1
 74
     0
 49
0.1
 74
     0
 49
-0.1
 74
     0
  0
LTYPE
  5
62
330
5
100
AcDbSymbolTableRecord
100
AcDbLinetypeTableRecord
  2
DOT2
 70
     0
  3
Dot (.5x) ........................................
 72
    65
 73
     2
 40
0.025
 49
0.0
 74
     0
 49
-0.025
 74
     0
  0
ENDTAB
  0
TABLE
  2
LAYER
  5
2
330
0
100
AcDbSymbolTable
 70
     1
  0
LAYER
  5
10
330
2
100
AcDbSymbolTableRecord
100
AcDbLayerTableRecord
  2
0
 70
     0
 62
     7
  6
Continuous
370
    -3
390
F
  0
ENDTAB
  0
TABLE
  2
STYLE
  5
3
330
0
100
AcDbSymbolTable
 70
     2
  0
STYLE
  5
11
330
3
100
AcDbSymbolTableRecord
100
AcDbTextStyleTableRecord
  2
Standard
 70
     0
 40
0.0
 41
1.0
 50
0.0
 71
     0
 42
0.1377952756
  3
txt
  4

  0
STYLE
  5
69
330
3
100
AcDbSymbolTableRecord
100
AcDbTextStyleTableRecord
  2
SLDTEXTSTYLE0
 70
     0
 40
0.0
 41
0.7
 50
0.0
 71
     0
 42
0.1377952756
  3
TXT
  4

  0
ENDTAB
  0
TABLE
  2
VIEW
  5
6
330
0
100
AcDbSymbolTable
 70
     0
  0
ENDTAB
  0
TABLE
  2
UCS
  5
7
330
0
100
AcDbSymbolTable
 70
     0
  0
ENDTAB
  0
TABLE
  2
APPID
  5
9
330
0
100
AcDbSymbolTable
 70
     1
  0
APPID
  5
12
330
9
100
AcDbSymbolTableRecord
100
AcDbRegAppTableRecord
  2
ACAD
 70
     0
  0
ENDTAB
  0
TABLE
  2
DIMSTYLE
  5
A
330
0
100
AcDbSymbolTable
 70
     1
100
AcDbDimStyleTable
  0
DIMSTYLE
105
27
330
A
100
AcDbSymbolTableRecord
100
AcDbDimStyleTableRecord
  2
Standard
 70
     0
178
     0
340
11
  0
ENDTAB
  0
TABLE
  2
BLOCK_RECORD
  5
1
330
0
100
AcDbSymbolTable
 70
     1
  0
BLOCK_RECORD
  5
1F
330
1
100
AcDbSymbolTableRecord
100
AcDbBlockTableRecord
  2
*Model_Space
340
22
  0
BLOCK_RECORD
  5
1B
330
1
100
AcDbSymbolTableRecord
100
AcDbBlockTableRecord
  2
*Paper_Space
340
1E
  0
BLOCK_RECORD
  5
23
330
1
100
AcDbSymbolTableRecord
100
AcDbBlockTableRecord
  2
*Paper_Space0
340
26
  0
ENDTAB
  0
ENDSEC
  0
SECTION
  2
BLOCKS
  0
BLOCK
  5
20
330
1F
100
AcDbEntity
  8
0
100
AcDbBlockBegin
  2
*Model_Space
 70
     0
 10
0.0
 20
0.0
 30
0.0
  3
*Model_Space
  1

  0
ENDBLK
  5
21
330
1F
100
AcDbEntity
  8
0
100
AcDbBlockEnd
  0
BLOCK
  5
1C
330
1B
100
AcDbEntity
 67
     1
  8
0
100
AcDbBlockBegin
  2
*Paper_Space
 70
     0
 10
0.0
 20
0.0
 30
0.0
  3
*Paper_Space
  1

  0
ENDBLK
  5
1D
330
1B
100
AcDbEntity
 67
     1
  8
0
100
AcDbBlockEnd
  0
BLOCK
  5
24
330
23
100
AcDbEntity
  8
0
100
AcDbBlockBegin
  2
*Paper_Space0
 70
     0
 10
0.0
 20
0.0
 30
0.0
  3
*Paper_Space0
  1

  0
ENDBLK
  5
25
330
23
100
AcDbEntity
  8
0
100
AcDbBlockEnd
  0
ENDSEC
  0
SECTION
  2
ENTITIES
  0
SPLINE
  5
64
330
1F
100
AcDbEntity
  8
0
  6
Continuous
 62
     7
370
    25
100
AcDbSpline
210
0.0
220
0.0
230
1.0
 70
     8
 71
     3
 72
   118
 73
   114
 74
     0
 42
0.00000001
 43
0.00000001
 40
0.0
 40
0.0
 40
0.0
 40
0.0
 40
0.0036615426402584
 40
0.0073535604397294
 40
0.0110801822420355
 40
0.0148454230555654
 40
0.0186531757275425
 40
0.022507204287201
 40
0.0264111389135757
 40
0.0303684724471546
 40
0.0343825583363203
 40
0.0384566098892394
 40
0.0425937006891522
 40
0.0467967660250984
 40
0.0510686051899524
 40
0.0554118845020797
 40
0.059829140914896
 40
0.0643227860889843
 40
0.0688951108133766
 40
0.0735482896752513
 40
0.0782843858901247
 40
0.0831053562170522
 40
0.0880130558951421
 40
0.0930092435485601
 40
0.0980955860170387
 40
0.1032736630776615
 40
0.1085449720313744
 40
0.1139109321342699
 40
0.1193728888593717
 40
0.1249321179793589
 40
0.1338740913577452
 40
0.1472770276734356
 40
0.1651427924614671
 40
0.1874721327257077
 40
0.1970554042648382
 40
0.2059657096113029
 40
0.2142065946670715
 40
0.2217825453531659
 40
0.2286993414506734
 40
0.2349645872456504
 40
0.2405885305818756
 40
0.2455853665394867
 40
0.2499753776654522
 40
0.2580865688775938
 40
0.2661620355313649
 40
0.2744064254376225
 40
0.2830123439028777
 40
0.2921495625600423
 40
0.3019603097997294
 40
0.312559735372241
 40
0.3170272185292258
 40
0.3214945965782346
 40
0.3259618870353732
 40
0.3304291074177799
 40
0.3348962752434161
 40
0.3393634080308622
 40
0.3438305232991097
 40
0.3482976385673571
 40
0.3527647713548028
 40
0.3572319391804393
 40
0.361699159562846
 40
0.3661664500199851
 40
0.3706338280689934
 40
0.3751013112259784
 40
0.3898748860080479
 40
0.4040680300843681
 40
0.4177030054302486
 40
0.4308049195490396
 40
0.4434020676965917
 40
0.4555262796837024
 40
0.4672132501272014
 40
0.4785028217296963
 40
0.4894391813968939
 40
0.5000709209325748
 40
0.5362563197777368
 40
0.5774871419772656
 40
0.624901714907716
 40
0.6350033017057775
 40
0.656173383496551
 40
0.6688495586666736
 40
0.6792716883876064
 40
0.6874449436446379
 40
0.704753250343405
 40
0.7186839878436924
 40
0.7262603196358003
 40
0.7338708868808898
 40
0.7417022274770629
 40
0.7499258695320049
 40
0.760512827914308
 40
0.7744130562311575
 40
0.7917056133746736
 40
0.8124307730530035
 40
0.8231532758713678
 40
0.833045302945781
 40
0.8421070163092966
 40
0.8503386270274109
 40
0.8577404171782534
 40
0.8643127756856777
 40
0.8700562599725535
 40
0.8749717094583629
 40
0.8889851484633481
 40
0.9022205524508954
 40
0.9147009963751164
 40
0.9264540027242406
 40
0.9375125266675325
 40
0.9455924127676153
 40
0.9535460439567209
 40
0.9613971603803869
 40
0.9691704415027467
 40
0.9768913132164946
 40
0.9845857209868634
 40
0.9922798780009163
 40
0.9999999999999999
 40
0.9999999999999999
 40
0.9999999999999999
 40
0.9999999999999999
 10
-1.744303533659869
 20
11.11704963732119
 30
0.0
 10
-1.748390025906738
 20
11.1172166574567
 30
0.0
 10
-1.756597022431492
 20
11.11755208784268
 30
0.0
 10
-1.76893239219698
 20
11.11858829738039
 30
0.0
 10
-1.781343383046168
 20
11.12001541507242
 30
0.0
 10
-1.793828750174492
 20
11.12187248874313
 30
0.0
 10
-1.806388803790851
 20
11.12414884933555
 30
0.0
 10
-1.819023439244553
 20
11.12684734678853
 30
0.0
 10
-1.831732672427564
 20
11.12996715010192
 30
0.0
 10
-1.844516493321086
 20
11.13350843358686
 30
0.0
 10
-1.857374905205136
 20
11.13747109954852
 30
0.0
 10
-1.870307913142474
 20
11.14185512775371
 30
0.0
 10
-1.883315526289636
 20
11.14666048036361
 30
0.0
 10
-1.896397756436235
 20
11.15188712824504
 30
0.0
 10
-1.909554617614609
 20
11.15753504390736
 30
0.0
 10
-1.922786125475935
 20
11.16360420345363
 30
0.0
 10
-1.936092296801452
 20
11.17009458595928
 30
0.0
 10
-1.949473149063329
 20
11.17700617346978
 30
0.0
 10
-1.9629287000293
 20
11.18433895079964
 30
0.0
 10
-1.976458967531061
 20
11.192092905238
 30
0.0
 10
-1.990063968898845
 20
11.20026802667776
 30
0.0
 10
-2.003743721954987
 20
11.20886430600968
 30
0.0
 10
-2.017498240283468
 20
11.21788174016336
 30
0.0
 10
-2.031327550664116
 20
11.22732031168324
 30
0.0
 10
-2.045231625729965
 20
11.23718006596937
 30
0.0
 10
-2.059210641790203
 20
11.24746081416996
 30
0.0
 10
-2.073263990244339
 20
11.25816327123528
 30
0.0
 10
-2.087394067085321
 20
11.26928469250887
 30
0.0
 10
-2.101591747517888
 20
11.28083559814868
 30
0.0
 10
-2.118707948148111
 20
11.295126808087
 30
0.0
 10
-2.142027400326538
 20
11.31580880594214
 30
0.0
 10
-2.175193172425054
 20
11.34609009180255
 30
0.0
 10
-2.21914143585558
 20
11.3867375581206
 30
0.0
 10
-2.259657114607152
 20
11.42480867120245
 30
0.0
 10
-2.293083044239957
 20
11.45581982283616
 30
0.0
 10
-2.315405151580872
 20
11.47565522796759
 30
0.0
 10
-2.336423293945171
 20
11.49357379958375
 30
0.0
 10
-2.356157545275646
 20
11.50955551653306
 30
0.0
 10
-2.374603752277137
 20
11.52360651353995
 30
0.0
 10
-2.391763245678908
 20
11.53572930949818
 30
0.0
 10
-2.407639470276226
 20
11.54592220673832
 30
0.0
 10
-2.422229616730869
 20
11.55420485943203
 30
0.0
 10
-2.439900491087329
 20
11.56259470510591
 30
0.0
 10
-2.461842666968298
 20
11.56979028362528
 30
0.0
 10
-2.488901149161164
 20
11.57409550032635
 30
0.0
 10
-2.516852921727102
 20
11.57404420549102
 30
0.0
 10
-2.545647100367642
 20
11.56969042019286
 30
0.0
 10
-2.575264576889126
 20
11.56105134082574
 30
0.0
 10
-2.605745066480589
 20
11.54822291840138
 30
0.0
 10
-2.630092466905551
 20
11.53475827357616
 30
0.0
 10
-2.648747662802618
 20
11.52344899859805
 30
0.0
 10
-2.661616419419293
 20
11.51580245172661
 30
0.0
 10
-2.674485464713791
 20
11.50815818670363
 30
0.0
 10
-2.687373325353998
 20
11.50054580034411
 30
0.0
 10
-2.700275037377852
 20
11.49295736261193
 30
0.0
 10
-2.713191930442763
 20
11.48539499760647
 30
0.0
 10
-2.726123649775937
 20
11.47785813880606
 30
0.0
 10
-2.739070284827567
 20
11.47034692823205
 30
0.0
 10
-2.752031832562798
 20
11.46286136431753
 30
0.0
 10
-2.765008215666852
 20
11.45540131131007
 30
0.0
 10
-2.777999746434827
 20
11.4479673137966
 30
0.0
 10
-2.791005252973445
 20
11.44055732914196
 30
0.0
 10
-2.804029110670592
 20
11.43317898349972
 30
0.0
 10
-2.827071376786524
 20
11.42013259926353
 30
0.0
 10
-2.859902467468359
 20
11.40232307440958
 30
0.0
 10
-2.902605476908336
 20
11.38130768093944
 30
0.0
 10
-2.944421330212721
 20
11.36280221465611
 30
0.0
 10
-2.985363823033954
 20
11.34683092125142
 30
0.0
 10
-3.025430852985506
 20
11.33338868231744
 30
0.0
 10
-3.064624284532937
 20
11.32247815270354
 30
0.0
 10
-3.102944938778464
 20
11.31410085606164
 30
0.0
 10
-3.140393173572731
 20
11.30825808718772
 30
0.0
 10
-3.176970245218809
 20
11.30495556526202
 30
0.0
 10
-3.241508382818699
 20
11.30356185297473
 30
0.0
 10
-3.339755008541299
 20
11.31752087994361
 30
0.0
 10
-3.472137636630414
 20
11.36291857009751
 30
0.0
 10
-3.570822220952341
 20
11.41289574864742
 30
0.0
 10
-3.646422792172862
 20
11.45769529749484
 30
0.0
 10
-3.688586683199435
 20
11.48282730573317
 30
0.0
 10
-3.731171968375717
 20
11.50794957435459
 30
0.0
 10
-3.761584245255623
 20
11.5251306045568
 30
0.0
 10
-3.797000164839005
 20
11.54394943014506
 30
0.0
 10
-3.83733693446335
 20
11.5617886014907
 30
0.0
 10
-3.879539658666084
 20
11.57315546957941
 30
0.0
 10
-3.91216942140497
 20
11.57472711715511
 30
0.0
 10
-3.937821587232634
 20
11.5718076584938
 30
0.0
 10
-3.963394399745567
 20
11.56476809712617
 30
0.0
 10
-3.99080251295313
 20
11.55291982250026
 30
0.0
 10
-4.021796723568716
 20
11.53337595014229
 30
0.0
 10
-4.058915695957968
 20
11.50506256814799
 30
0.0
 10
-4.103081884185662
 20
11.46745147435206
 30
0.0
 10
-4.143060582563266
 20
11.43049387704506
 30
0.0
 10
-4.176620137031935
 20
11.39878397603507
 30
0.0
 10
-4.200859177603752
 20
11.37617709325156
 30
0.0
 10
-4.223138492026525
 20
11.35554855127689
 30
0.0
 10
-4.243478226993841
 20
11.33691940882795
 30
0.0
 10
-4.261872600309517
 20
11.3202833401223
 30
0.0
 10
-4.278324939441124
 20
11.30564399803431
 30
0.0
 10
-4.292826357105691
 20
11.29299036700468
 30
0.0
 10
-4.313862100251753
 20
11.27518923516716
 30
0.0
 10
-4.341917115744345
 20
11.2527359830511
 30
0.0
 10
-4.37758580423305
 20
11.22632166039617
 30
0.0
 10
-4.412303020156812
 20
11.20292654861224
 30
0.0
 10
-4.446058427553434
 20
11.18253976626747
 30
0.0
 10
-4.476554509234115
 20
11.16635586603881
 30
0.0
 10
-4.504077307065795
 20
11.15374997294878
 30
0.0
 10
-4.528912363452581
 20
11.14397401335439
 30
0.0
 10
-4.553924811689552
 20
11.13569270085691
 30
0.0
 10
-4.579116585098122
 20
11.12891422649101
 30
0.0
 10
-4.604486375586306
 20
11.1236280861164
 30
0.0
 10
-4.630033593484939
 20
11.11987126154868
 30
0.0
 10
-4.655757201223549
 20
11.11750884976129
 30
0.0
 10
-4.672975242186329
 20
11.117201477952
 30
0.0
 10
-4.681598764357206
 20
11.11704753316712
 30
0.0
  0
SPLINE
  5
66
330
1F
100
AcDbEntity
  8
0
  6
Continuous
 62
     7
370
    25
100
AcDbSpline
210
0.0
220
0.0
230
1.0
 70
     8
 71
     3
 72
   114
 73
   110
 74
     0
 42
0.00000001
 43
0.00000001
 40
0.0
 40
0.0
 40
0.0
 40
0.0
 40
0.0062926260809525
 40
0.0121474611216671
 40
0.0175677979897197
 40
0.0225577897955508
 40
0.0271227643553087
 40
0.0312696879487835
 40
0.0397470786049093
 40
0.0476761142070059
 40
0.0552064637569899
 40
0.0625123400653773
 40
0.0710091106111664
 40
0.0813776482539129
 40
0.0937702183938816
 40
0.1082754855469791
 40
0.1249484431243007
 40
0.1340634116883831
 40
0.1424922884792242
 40
0.1502350848826474
 40
0.1572918156053874
 40
0.1636625001055326
 40
0.1693471648859952
 40
0.1743458473614882
 40
0.1786586028001946
 40
0.1822855178276107
 40
0.1852267396684154
 40
0.1874825498058778
 40
0.1952658066293926
 40
0.2028310588712597
 40
0.2101818103487894
 40
0.2173218806695067
 40
0.2242554376343142
 40
0.2309870326371878
 40
0.2375216390890155
 40
0.2438646937771646
 40
0.2500221409082821
 40
0.2750604862982775
 40
0.2994169533556971
 40
0.3237441210281788
 40
0.3486968671336947
 40
0.3748831773213297
 40
0.3843418571956082
 40
0.393612729679448
 40
0.4027043993645182
 40
0.4116259893638656
 40
0.420387154125115
 40
0.4289980877117993
 40
0.4374695265446109
 40
0.4437251724959665
 40
0.4499800576438998
 40
0.4562343721285321
 40
0.462488306142034
 40
0.4687420499112913
 40
0.4749957936805481
 40
0.4812497276940509
 40
0.4875040421786828
 40
0.4937589273266165
 40
0.500014573277972
 40
0.5091853712319424
 40
0.5174417394677636
 40
0.5248002161912662
 40
0.5312842137889735
 40
0.5396503382554169
 40
0.5475357738953501
 40
0.5551011101046535
 40
0.562527730383947
 40
0.5733447536487578
 40
0.5872323399123262
 40
0.6044020093464013
 40
0.6249642436864122
 40
0.633753532999913
 40
0.641921831819351
 40
0.6494691588147182
 40
0.6563955376774808
 40
0.6627009990983608
 40
0.6683855838249734
 40
0.6734493475933602
 40
0.6778923695035213
 40
0.6817147671922067
 40
0.6849167267002152
 40
0.6874985681933228
 40
0.6974720762708496
 40
0.7070842358291209
 40
0.7163429503654251
 40
0.7252570635487888
 40
0.7338364847598506
 40
0.7420923286463196
 40
0.7500370680208127
 40
0.7750832645846952
 40
0.7994189123914774
 40
0.8237204768157124
 40
0.8486671960425999
 40
0.8748882191793017
 40
0.8854323312775545
 40
0.8959116063610086
 40
0.9063399314798537
 40
0.9167313979533327
 40
0.9271002473750383
 40
0.9374608146069056
 40
0.9444099017297682
 40
0.951358772296134
 40
0.9583074881751561
 40
0.9652561112401189
 40
0.9722047033667864
 40
0.9791533264317492
 40
0.9861020423107717
 40
0.9930509128771371
 40
1.0
 40
1.0
 40
1.0
 40
1.0
 10
-4.681598764366627
 20
-13.76277211975003
 30
0.0
 10
-4.675900560745046
 20
-13.76677339182791
 30
0.0
 10
-4.664900589339463
 20
-13.77449755919109
 30
0.0
 10
-4.64869763360927
 20
-13.78523954683253
 30
0.0
 10
-4.633461399366835
 20
-13.79482120012392
 30
0.0
 10
-4.619174033886621
 20
-13.80321821566379
 30
0.0
 10
-4.605838975006991
 20
-13.81043931147249
 30
0.0
 10
-4.588739880758643
 20
-13.81877738906022
 30
0.0
 10
-4.567507746389081
 20
-13.82708349637874
 30
0.0
 10
-4.541726791191067
 20
-13.83351387836547
 30
0.0
 10
-4.516566929109781
 20
-13.83595911395942
 30
0.0
 10
-4.490657918278222
 20
-13.8344625165433
 30
0.0
 10
-4.462496866577802
 20
-13.8270456026714
 30
0.0
 10
-4.430598476060728
 20
-13.81350444862023
 30
0.0
 10
-4.394294899497282
 20
-13.79386254433008
 30
0.0
 10
-4.35353822004626
 20
-13.76805740611534
 30
0.0
 10
-4.317232751620703
 20
-13.74215915030701
 30
0.0
 10
-4.286818070804696
 20
-13.71961617066445
 30
0.0
 10
-4.264261515764058
 20
-13.7030629040241
 30
0.0
 10
-4.243536698114854
 20
-13.68786337937049
 30
0.0
 10
-4.224624232731882
 20
-13.67404328509034
 30
0.0
 10
-4.207528706969004
 20
-13.66159653365445
 30
0.0
 10
-4.192249255030752
 20
-13.6505242362223
 30
0.0
 10
-4.178785911151535
 20
-13.64082636518139
 30
0.0
 10
-4.167139854407199
 20
-13.63250113149071
 30
0.0
 10
-4.157308456725204
 20
-13.62555234737857
 30
0.0
 10
-4.149300800840102
 20
-13.61996632545872
 30
0.0
 10
-4.137401150822214
 20
-13.61192404562381
 30
0.0
 10
-4.121027013688247
 20
-13.60137030048404
 30
0.0
 10
-4.099686469522534
 20
-13.58812500189695
 30
0.0
 10
-4.078657405583454
 20
-13.57573751419288
 30
0.0
 10
-4.057957435499501
 20
-13.56418138622963
 30
0.0
 10
-4.037581977085201
 20
-13.55346334987413
 30
0.0
 10
-4.017531891946662
 20
-13.54358187334753
 30
0.0
 10
-3.997807476057663
 20
-13.5345367139799
 30
0.0
 10
-3.978406141620785
 20
-13.52633034041794
 30
0.0
 10
-3.939667699785761
 20
-13.51134519879808
 30
0.0
 10
-3.880315614001986
 20
-13.49432696167651
 30
0.0
 10
-3.798933180992294
 20
-13.48480157350466
 30
0.0
 10
-3.717191050014945
 20
-13.48897817954209
 30
0.0
 10
-3.635239783075991
 20
-13.50672934767719
 30
0.0
 10
-3.572452742138478
 20
-13.53091713132808
 30
0.0
 10
-3.527632032483955
 20
-13.55238450503709
 30
0.0
 10
-3.500222373856624
 20
-13.56640685750607
 30
0.0
 10
-3.473796788518531
 20
-13.58101299016386
 30
0.0
 10
-3.448335062906278
 20
-13.59616708945121
 30
0.0
 10
-3.423850382274724
 20
-13.61188885984022
 30
0.0
 10
-3.400311004451345
 20
-13.62813619358838
 30
0.0
 10
-3.379674794176223
 20
-13.64366626237573
 30
0.0
 10
-3.361350193831024
 20
-13.65791951899327
 30
0.0
 10
-3.344826983970618
 20
-13.6704923724905
 30
0.0
 10
-3.328253598054934
 20
-13.68299521834134
 30
0.0
 10
-3.311607875760664
 20
-13.6953997218618
 30
0.0
 10
-3.294895706393597
 20
-13.70771340666078
 30
0.0
 10
-3.278115690740967
 20
-13.71993450946771
 30
0.0
 10
-3.261267537042352
 20
-13.73206256007947
 30
0.0
 10
-3.244353811981553
 20
-13.74410120259428
 30
0.0
 10
-3.227364539699188
 20
-13.75603632897373
 30
0.0
 10
-3.207692998964196
 20
-13.76976617240244
 30
0.0
 10
-3.185933212596814
 20
-13.78437512135903
 30
0.0
 10
-3.162536255774526
 20
-13.79869911667935
 30
0.0
 10
-3.141077584309286
 20
-13.81044561491038
 30
0.0
 10
-3.118815577581211
 20
-13.82089404205574
 30
0.0
 10
-3.095020278673027
 20
-13.82926573711762
 30
0.0
 10
-3.069115896701066
 20
-13.83458978429219
 30
0.0
 10
-3.043742439353734
 20
-13.83588023849069
 30
0.0
 10
-3.015193778620816
 20
-13.83286279218452
 30
0.0
 10
-2.981265343165982
 20
-13.82138379312401
 30
0.0
 10
-2.93997598371378
 20
-13.80021393695133
 30
0.0
 10
-2.891629773851711
 20
-13.76968809852756
 30
0.0
 10
-2.850025298129242
 20
-13.73934467244155
 30
0.0
 10
-2.816983616823022
 20
-13.71421433004783
 30
0.0
 10
-2.795321890310734
 20
-13.69790702658382
 30
0.0
 10
-2.775296614947357
 20
-13.68285372302006
 30
0.0
 10
-2.756889324620358
 20
-13.66907816692635
 30
0.0
 10
-2.740104437274639
 20
-13.65657466367623
 30
0.0
 10
-2.724941086434626
 20
-13.64534428919035
 30
0.0
 10
-2.711399360832681
 20
-13.63538693514949
 30
0.0
 10
-2.699480208588954
 20
-13.62670116398271
 30
0.0
 10
-2.689181439305697
 20
-13.61929008941443
 30
0.0
 10
-2.680510807782299
 20
-13.61314215632145
 30
0.0
 10
-2.666145526014312
 20
-13.60326180540439
 30
0.0
 10
-2.645618593481558
 20
-13.58982920037669
 30
0.0
 10
-2.618490145160228
 20
-13.57301177488847
 30
0.0
 10
-2.591874385867044
 20
-13.55761567093358
 30
0.0
 10
-2.56578874795567
 20
-13.54361485604339
 30
0.0
 10
-2.54022942790404
 20
-13.53101487515612
 30
0.0
 10
-2.515193064296412
 20
-13.5198182395249
 30
0.0
 10
-2.472819353133047
 20
-13.50285631153631
 30
0.0
 10
-2.41166233921469
 20
-13.48496016127523
 30
0.0
 10
-2.330330296589103
 20
-13.47524187863309
 30
0.0
 10
-2.248635081780563
 20
-13.47948402797308
 30
0.0
 10
-2.166740792537205
 20
-13.49756649537482
 30
0.0
 10
-2.102944360193916
 20
-13.52258940380337
 30
0.0
 10
-2.05603452143987
 20
-13.54566004118962
 30
0.0
 10
-2.025322368686923
 20
-13.56204204623623
 30
0.0
 10
-1.995390600013454
 20
-13.57947627375474
 30
0.0
 10
-1.966228626246491
 20
-13.59794026168912
 30
0.0
 10
-1.937809965507258
 20
-13.6174010771719
 30
0.0
 10
-1.913280655355007
 20
-13.63574684987979
 30
0.0
 10
-1.892065397792781
 20
-13.6521884178463
 30
0.0
 10
-1.873728463505241
 20
-13.66618130531007
 30
0.0
 10
-1.85536725722747
 20
-13.68014101243529
 30
0.0
 10
-1.836960183108626
 20
-13.69403982955424
 30
0.0
 10
-1.818512961636394
 20
-13.70788509086707
 30
0.0
 10
-1.800024306134598
 20
-13.721675168448
 30
0.0
 10
-1.781493642921069
 20
-13.7354092398745
 30
0.0
 10
-1.762924553525445
 20
-13.74909222287798
 30
0.0
 10
-1.750510604765619
 20
-13.75816741806667
 30
0.0
 10
-1.744303533669291
 20
-13.76270508636538
 30
0.0
  0
LINE
  5
67
330
1F
100
AcDbEntity
  8
0
  6
Continuous
 62
     7
370
    25
100
AcDbLine
 10
-4.6815987644
 20
11.1170475332
 30
0.0
 11
-4.6815987644
 21
-13.7627721197
 31
0.0
  0
LINE
  5
68
330
1F
100
AcDbEntity
  8
0
  6
Continuous
 62
     7
370
    25
100
AcDbLine
 10
-1.7443035337
 20
-13.7627050864
 30
0.0
 11
-1.7443035337
 21
11.1170496373
 31
0.0
  0
MTEXT
  5
6A
330
1F
100
AcDbEntity
  8
0
  6
Continuous
 62
     7
100
AcDbMText
 10
-4.6815987644
 20
-13.8739448504
 30
0.0
 40
0.1903
 41
0.0
 71
     1
 72
     1
  1
SOLIDWORKS Educational Product.
  7
SLDTEXTSTYLE0
 73
     1
 44
1.0
  0
MTEXT
  5
6B
330
1F
100
AcDbEntity
  8
0
  6
Continuous
 62
     7
100
AcDbMText
 10
-4.6815987644
 20
-14.1593948504
 30
0.0
 40
0.1903
 41
0.0
 71
     1
 72
     1
  1
For Instructional Use Only.
  7
SLDTEXTSTYLE0
 73
     1
 44
1.0
  0
ENDSEC
  0
SECTION
  2
OBJECTS
  0
DICTIONARY
  5
C
330
0
100
AcDbDictionary
281
     1
  3
ACAD_GROUP
350
D
  3
ACAD_LAYOUT
350
1A
  3
ACAD_MLINESTYLE
350
17
  3
ACAD_PLOTSETTINGS
350
19
  3
ACAD_PLOTSTYLENAME
350
E
  3
ACAD_SCALELIST
350
47
  3
DWGPROPS
350
6C
  0
DICTIONARY
  5
D
102
{ACAD_REACTORS
330
C
102
}
330
C
100
AcDbDictionary
281
     1
  0
DICTIONARY
  5
1A
102
{ACAD_REACTORS
330
C
102
}
330
C
100
AcDbDictionary
281
     1
  3
Layout1
350
1E
  3
Layout2
350
26
  3
Model
350
22
  0
DICTIONARY
  5
17
102
{ACAD_REACTORS
330
C
102
}
330
C
100
AcDbDictionary
281
     1
  3
Standard
350
18
  0
DICTIONARY
  5
19
102
{ACAD_REACTORS
330
C
102
}
330
C
100
AcDbDictionary
281
     1
  0
ACDBDICTIONARYWDFLT
  5
E
102
{ACAD_REACTORS
330
C
102
}
330
C
100
AcDbDictionary
281
     1
  3
Normal
350
F
100
AcDbDictionaryWithDefault
340
F
  0
DICTIONARY
  5
47
102
{ACAD_REACTORS
330
C
102
}
330
C
100
AcDbDictionary
281
     1
  3
A0
350
48
  3
A1
350
49
  3
A2
350
4A
  3
A3
350
4B
  3
A4
350
4C
  3
A5
350
4D
  3
A6
350
4E
  3
A7
350
4F
  3
A8
350
50
  3
A9
350
51
  3
B1
350
52
  3
B2
350
53
  3
B3
350
54
  3
B4
350
55
  3
B5
350
56
  3
B6
350
57
  3
B7
350
58
  0
XRECORD
  5
6C
102
{ACAD_REACTORS
330
C
102
}
330
C
100
AcDbXrecord
280
     1
  1
DWGPROPS COOKIE
  2

  3

  4

  6

  7

  8
manny
  9

300
=
301
=
302
=
303
=
304
=
305
=
306
=
307
=
308
=
309
=
 40
0.0
 41
2460633.173688565
 42
2460633.173726239
  1

 90
        0
  0
LAYOUT
  5
1E
102
{ACAD_REACTORS
330
1A
102
}
330
1A
100
AcDbPlotSettings
  1

  2
none_device
  4

  6

 40
0.0
 41
0.0
 42
0.0
 43
0.0
 44
0.0
 45
0.0
 46
0.0
 47
0.0
 48
0.0
 49
0.0
140
0.0
141
0.0
142
1.0
143
1.0
 70
   688
 72
     0
 73
     0
 74
     5
  7

 75
    16
147
1.0
148
0.0
149
0.0
100
AcDbLayout
  1
Layout1
 70
     1
 71
     1
 10
0.0
 20
0.0
 11
12.0
 21
9.0
 12
0.0
 22
0.0
 32
0.0
 14
1.0000000000E+20
 24
1.0000000000E+20
 34
1.0000000000E+20
 15
-1.0000000000E+20
 25
-1.0000000000E+20
 35
-1.0000000000E+20
146
0.0
 13
0.0
 23
0.0
 33
0.0
 16
1.0
 26
0.0
 36
0.0
 17
0.0
 27
1.0
 37
0.0
 76
     0
330
1B
  0
LAYOUT
  5
26
102
{ACAD_REACTORS
330
1A
102
}
330
1A
100
AcDbPlotSettings
  1

  2
none_device
  4

  6

 40
0.0
 41
0.0
 42
0.0
 43
0.0
 44
0.0
 45
0.0
 46
0.0
 47
0.0
 48
0.0
 49
0.0
140
0.0
141
0.0
142
1.0
143
1.0
 70
   688
 72
     0
 73
     0
 74
     5
  7

 75
    16
147
1.0
148
0.0
149
0.0
100
AcDbLayout
  1
Layout2
 70
     1
 71
     2
 10
0.0
 20
0.0
 11
0.0
 21
0.0
 12
0.0
 22
0.0
 32
0.0
 14
0.0
 24
0.0
 34
0.0
 15
0.0
 25
0.0
 35
0.0
146
0.0
 13
0.0
 23
0.0
 33
0.0
 16
1.0
 26
0.0
 36
0.0
 17
0.0
 27
1.0
 37
0.0
 76
     0
330
23
  0
LAYOUT
  5
22
102
{ACAD_REACTORS
330
1A
102
}
330
1A
100
AcDbPlotSettings
  1

  2
none_device
  4
ANSI_A_(11.00_x_8.50_Inches)
  6

 40
6.35
 41
19.05
 42
6.35000508
 43
19.05000254
 44
279.4
 45
215.9
 46
160.3795253159
 47
98.4088599948
 48
0.0
 49
0.0
140
0.0
141
0.0
142
0.3312078493
143
1.0
 70
  1696
 72
     0
 73
     0
 74
     0
  7

 75
     0
147
0.5913241897
148
-39.4088153714
149
0.0
100
AcDbLayout
  1
Model
 70
     1
 71
     0
 10
0.0
 20
0.0
 11
12.0
 21
9.0
 12
0.0
 22
0.0
 32
0.0
 14
-4.6815987644
 24
-13.8338044412
 34
0.0
 15
-1.7443035337
 25
11.5732021185
 35
0.0
146
0.0
 13
0.0
 23
0.0
 33
0.0
 16
1.0
 26
0.0
 36
0.0
 17
0.0
 27
1.0
 37
0.0
 76
     0
330
1F
331
29
  0
MLINESTYLE
  5
18
102
{ACAD_REACTORS
330
17
102
}
330
17
100
AcDbMlineStyle
  2
Standard
 70
     0
  3

 62
   256
 51
90.0
 52
90.0
 71
     2
 49
0.5
 62
   256
  6
BYLAYER
 49
-0.5
 62
   256
  6
BYLAYER
  0
ACDBPLACEHOLDER
  5
F
102
{ACAD_REACTORS
330
E
102
}
330
E
  0
SCALE
  5
48
102
{ACAD_REACTORS
330
47
102
}
330
47
100
AcDbScale
 70
     0
300
1:1
140
1.0
141
1.0
290
     1
  0
SCALE
  5
49
102
{ACAD_REACTORS
330
47
102
}
330
47
100
AcDbScale
 70
     0
300
1/128" = 1'-0"
140
0.0078125
141
12.0
290
     0
  0
SCALE
  5
4A
102
{ACAD_REACTORS
330
47
102
}
330
47
100
AcDbScale
 70
     0
300
1/64" = 1'-0"
140
0.015625
141
12.0
290
     0
  0
SCALE
  5
4B
102
{ACAD_REACTORS
330
47
102
}
330
47
100
AcDbScale
 70
     0
300
1/32" = 1'-0"
140
0.03125
141
12.0
290
     0
  0
SCALE
  5
4C
102
{ACAD_REACTORS
330
47
102
}
330
47
100
AcDbScale
 70
     0
300
1/16" = 1'-0"
140
0.0625
141
12.0
290
     0
  0
SCALE
  5
4D
102
{ACAD_REACTORS
330
47
102
}
330
47
100
AcDbScale
 70
     0
300
3/32" = 1'-0"
140
0.09375
141
12.0
290
     0
  0
SCALE
  5
4E
102
{ACAD_REACTORS
330
47
102
}
330
47
100
AcDbScale
 70
     0
300
1/8" = 1'-0"
140
0.125
141
12.0
290
     0
  0
SCALE
  5
4F
102
{ACAD_REACTORS
330
47
102
}
330
47
100
AcDbScale
 70
     0
300
3/16" = 1'-0"
140
0.1875
141
12.0
290
     0
  0
SCALE
  5
50
102
{ACAD_REACTORS
330
47
102
}
330
47
100
AcDbScale
 70
     0
300
1/4" = 1'-0"
140
0.25
141
12.0
290
     0
  0
SCALE
  5
51
102
{ACAD_REACTORS
330
47
102
}
330
47
100
AcDbScale
 70
     0
300
3/8" = 1'-0"
140
0.375
141
12.0
290
     0
  0
SCALE
  5
52
102
{ACAD_REACTORS
330
47
102
}
330
47
100
AcDbScale
 70
     0
300
1/2" = 1'-0"
140
0.5
141
12.0
290
     0
  0
SCALE
  5
53
102
{ACAD_REACTORS
330
47
102
}
330
47
100
AcDbScale
 70
     0
300
3/4" = 1'-0"
140
0.75
141
12.0
290
     0
  0
SCALE
  5
54
102
{ACAD_REACTORS
330
47
102
}
330
47
100
AcDbScale
 70
     0
300
1" = 1'-0"
140
1.0
141
12.0
290
     0
  0
SCALE
  5
55
102
{ACAD_REACTORS
330
47
102
}
330
47
100
AcDbScale
 70
     0
300
1-1/2" = 1'-0"
140
1.5
141
12.0
290
     0
  0
SCALE
  5
56
102
{ACAD_REACTORS
330
47
102
}
330
47
100
AcDbScale
 70
     0
300
3" = 1'-0"
140
3.0
141
12.0
290
     0
  0
SCALE
  5
57
102
{ACAD_REACTORS
330
47
102
}
330
47
100
AcDbScale
 70
     0
300
6" = 1'-0"
140
6.0
141
12.0
290
     0
  0
SCALE
  5
58
102
{ACAD_REACTORS
330
47
102
}
330
47
100
AcDbScale
 70
     0
300
1'-0" = 1'-0"
140
12.0
141
12.0
290
     0
  0
ENDSEC
  0
EOF
