  0
SECTION
  2
HEADER
  9
$ACADVER
  1
AC1015
  9
$ACADMAINTVER
 70
     6
  9
$DWGCODEPAGE
  3
ANSI_1252
  9
$INSBASE
 10
0.0
 20
0.0
 30
0.0
  9
$EXTMIN
 10
-3.882025319
 20
-16.0850743908
 30
0.0
  9
$EXTMAX
 10
-0.9447296941
 20
11.3790696809
 30
0.0
  9
$LIMMIN
 10
0.0
 20
0.0
  9
$LIMMAX
 10
12.0
 20
9.0
  9
$ORTHOMODE
 70
     0
  9
$REGENMODE
 70
     1
  9
$FILLMODE
 70
     1
  9
$QTEXTMODE
 70
     0
  9
$MIRRTEXT
 70
     1
  9
$LTSCALE
 40
1.0
  9
$ATTMODE
 70
     1
  9
$TEXTSIZE
 40
0.1377952756
  9
$TRACEWID
 40
0.05
  9
$TEXTSTYLE
  7
Standard
  9
$CLAYER
  8
0
  9
$CELTYPE
  6
ByLayer
  9
$CECOLOR
 62
   256
  9
$CELTSCALE
 40
1.0
  9
$DISPSILH
 70
     0
  9
$DIMSCALE
 40
1.0
  9
$DIMASZ
 40
0.13
  9
$DIMEXO
 40
0.0
  9
$DIMDLI
 40
0.38
  9
$DIMRND
 40
0.0
  9
$DIMDLE
 40
0.0
  9
$DIMEXE
 40
0.0393700787
  9
$DIMTP
 40
0.0
  9
$DIMTM
 40
0.0
  9
$DIMTXT
 40
0.1377952756
  9
$DIMCEN
 40
0.09
  9
$DIMTSZ
 40
0.0
  9
$DIMTOL
 70
     0
  9
$DIMLIM
 70
     0
  9
$DIMTIH
 70
     1
  9
$DIMTOH
 70
     1
  9
$DIMSE1
 70
     0
  9
$DIMSE2
 70
     0
  9
$DIMTAD
 70
     1
  9
$DIMZIN
 70
     1
  9
$DIMBLK
  1

  9
$DIMASO
 70
     1
  9
$DIMSHO
 70
     1
  9
$DIMPOST
  1

  9
$DIMAPOST
  1

  9
$DIMALT
 70
     0
  9
$DIMALTD
 70
     2
  9
$DIMALTF
 40
25.4
  9
$DIMLFAC
 40
1.0
  9
$DIMTOFL
 70
     0
  9
$DIMTVP
 40
0.0
  9
$DIMTIX
 70
     0
  9
$DIMSOXD
 70
     0
  9
$DIMSAH
 70
     0
  9
$DIMBLK1
  1

  9
$DIMBLK2
  1

  9
$DIMSTYLE
  2
Standard
  9
$DIMCLRD
 70
     0
  9
$DIMCLRE
 70
     0
  9
$DIMCLRT
 70
     0
  9
$DIMTFAC
 40
1.0
  9
$DIMGAP
 40
0.06
  9
$DIMJUST
 70
     0
  9
$DIMSD1
 70
     0
  9
$DIMSD2
 70
     0
  9
$DIMTOLJ
 70
     1
  9
$DIMTZIN
 70
     1
  9
$DIMALTZ
 70
     0
  9
$DIMALTTZ
 70
     0
  9
$DIMUPT
 70
     0
  9
$DIMDEC
 70
     2
  9
$DIMTDEC
 70
     2
  9
$DIMALTU
 70
     2
  9
$DIMALTTD
 70
     2
  9
$DIMTXSTY
  7
Standard
  9
$DIMAUNIT
 70
     0
  9
$DIMADEC
 70
     2
  9
$DIMALTRND
 40
0.0
  9
$DIMAZIN
 70
     0
  9
$DIMDSEP
 70
    46
  9
$DIMATFIT
 70
     3
  9
$DIMFRAC
 70
     0
  9
$DIMLDRBLK
  1

  9
$DIMLUNIT
 70
     2
  9
$DIMLWD
 70
    -2
  9
$DIMLWE
 70
    -2
  9
$DIMTMOVE
 70
     0
  9
$LUNITS
 70
     2
  9
$LUPREC
 70
     2
  9
$SKETCHINC
 40
0.1
  9
$FILLETRAD
 40
0.0
  9
$AUNITS
 70
     0
  9
$AUPREC
 70
     2
  9
$MENU
  1
.
  9
$ELEVATION
 40
0.0
  9
$PELEVATION
 40
0.0
  9
$THICKNESS
 40
0.0
  9
$LIMCHECK
 70
     0
  9
$CHAMFERA
 40
0.0
  9
$CHAMFERB
 40
0.0
  9
$CHAMFERC
 40
0.0
  9
$CHAMFERD
 40
0.0
  9
$SKPOLY
 70
     0
  9
$TDCREATE
 40
2460632.842175452
  9
$TDUCREATE
 40
2460633.175508785
  9
$TDUPDATE
 40
2460632.842269549
  9
$TDUUPDATE
 40
2460633.175602882
  9
$TDINDWG
 40
0.0000000116
  9
$TDUSRTIMER
 40
0.0000000116
  9
$USRTIMER
 70
     1
  9
$ANGBASE
 50
0.0
  9
$ANGDIR
 70
     0
  9
$PDMODE
 70
     0
  9
$PDSIZE
 40
-1.0
  9
$PLINEWID
 40
0.0
  9
$SPLFRAME
 70
     0
  9
$SPLINETYPE
 70
     6
  9
$SPLINESEGS
 70
     8
  9
$HANDSEED
  5
73
  9
$SURFTAB1
 70
     6
  9
$SURFTAB2
 70
     6
  9
$SURFTYPE
 70
     6
  9
$SURFU
 70
     6
  9
$SURFV
 70
     6
  9
$UCSBASE
  2

  9
$UCSNAME
  2

  9
$UCSORG
 10
0.0
 20
0.0
 30
0.0
  9
$UCSXDIR
 10
1.0
 20
0.0
 30
0.0
  9
$UCSYDIR
 10
0.0
 20
1.0
 30
0.0
  9
$UCSORTHOREF
  2

  9
$UCSORTHOVIEW
 70
     0
  9
$UCSORGTOP
 10
0.0
 20
0.0
 30
0.0
  9
$UCSORGBOTTOM
 10
0.0
 20
0.0
 30
0.0
  9
$UCSORGLEFT
 10
0.0
 20
0.0
 30
0.0
  9
$UCSORGRIGHT
 10
0.0
 20
0.0
 30
0.0
  9
$UCSORGFRONT
 10
0.0
 20
0.0
 30
0.0
  9
$UCSORGBACK
 10
0.0
 20
0.0
 30
0.0
  9
$PUCSBASE
  2

  9
$PUCSNAME
  2

  9
$PUCSORG
 10
0.0
 20
0.0
 30
0.0
  9
$PUCSXDIR
 10
1.0
 20
0.0
 30
0.0
  9
$PUCSYDIR
 10
0.0
 20
1.0
 30
0.0
  9
$PUCSORTHOREF
  2

  9
$PUCSORTHOVIEW
 70
     0
  9
$PUCSORGTOP
 10
0.0
 20
0.0
 30
0.0
  9
$PUCSORGBOTTOM
 10
0.0
 20
0.0
 30
0.0
  9
$PUCSORGLEFT
 10
0.0
 20
0.0
 30
0.0
  9
$PUCSORGRIGHT
 10
0.0
 20
0.0
 30
0.0
  9
$PUCSORGFRONT
 10
0.0
 20
0.0
 30
0.0
  9
$PUCSORGBACK
 10
0.0
 20
0.0
 30
0.0
  9
$USERI1
 70
     0
  9
$USERI2
 70
     0
  9
$USERI3
 70
     0
  9
$USERI4
 70
     0
  9
$USERI5
 70
     0
  9
$USERR1
 40
0.0
  9
$USERR2
 40
0.0
  9
$USERR3
 40
0.0
  9
$USERR4
 40
0.0
  9
$USERR5
 40
0.0
  9
$WORLDVIEW
 70
     1
  9
$SHADEDGE
 70
     3
  9
$SHADEDIF
 70
    70
  9
$TILEMODE
 70
     1
  9
$MAXACTVP
 70
    64
  9
$PINSBASE
 10
0.0
 20
0.0
 30
0.0
  9
$PLIMCHECK
 70
     0
  9
$PEXTMIN
 10
1.0000000000E+20
 20
1.0000000000E+20
 30
1.0000000000E+20
  9
$PEXTMAX
 10
-1.0000000000E+20
 20
-1.0000000000E+20
 30
-1.0000000000E+20
  9
$PLIMMIN
 10
0.0
 20
0.0
  9
$PLIMMAX
 10
12.0
 20
9.0
  9
$UNITMODE
 70
     0
  9
$VISRETAIN
 70
     1
  9
$PLINEGEN
 70
     0
  9
$PSLTSCALE
 70
     1
  9
$TREEDEPTH
 70
  3020
  9
$CMLSTYLE
  2
Standard
  9
$CMLJUST
 70
     0
  9
$CMLSCALE
 40
1.0
  9
$PROXYGRAPHICS
 70
     1
  9
$MEASUREMENT
 70
     0
  9
$CELWEIGHT
370
    -1
  9
$ENDCAPS
280
     0
  9
$JOINSTYLE
280
     0
  9
$LWDISPLAY
290
     1
  9
$INSUNITS
 70
     1
  9
$HYPERLINKBASE
  1

  9
$STYLESHEET
  1

  9
$XEDIT
290
     1
  9
$CEPSNTYPE
380
     0
  9
$PSTYLEMODE
290
     1
  9
$FINGERPRINTGUID
  2
{0d9d7ad0-a01f-45eb-bdb9-dcb512fb4485}
  9
$VERSIONGUID
  2
{FAEB1C32-E019-11D5-929B-00C0DF256EC4}
  9
$EXTNAMES
290
     1
  9
$PSVPSCALE
 40
0.0
  9
$OLESTARTUP
290
     0
  0
ENDSEC
  0
SECTION
  2
CLASSES
  0
CLASS
  1
ACDBDICTIONARYWDFLT
  2
AcDbDictionaryWithDefault
  3
ObjectDBX Classes
 90
        0
280
     0
281
     0
  0
CLASS
  1
VISUALSTYLE
  2
AcDbVisualStyle
  3
ObjectDBX Classes
 90
     4095
280
     0
281
     0
  0
CLASS
  1
MATERIAL
  2
AcDbMaterial
  3
ObjectDBX Classes
 90
     1153
280
     0
281
     0
  0
CLASS
  1
SCALE
  2
AcDbScale
  3
ObjectDBX Classes
 90
     1153
280
     0
281
     0
  0
CLASS
  1
TABLESTYLE
  2
AcDbTableStyle
  3
ObjectDBX Classes
 90
     4095
280
     0
281
     0
  0
CLASS
  1
MLEADERSTYLE
  2
AcDbMLeaderStyle
  3
ACDB_MLEADERSTYLE_CLASS
 90
     4095
280
     0
281
     0
  0
CLASS
  1
SUN
  2
AcDbSun
  3
SCENEOE
 90
     1153
280
     0
281
     0
  0
CLASS
  1
ACDBPLACEHOLDER
  2
AcDbPlaceHolder
  3
ObjectDBX Classes
 90
        0
280
     0
281
     0
  0
CLASS
  1
LAYOUT
  2
AcDbLayout
  3
ObjectDBX Classes
 90
        0
280
     0
281
     0
  0
ENDSEC
  0
SECTION
  2
TABLES
  0
TABLE
  2
VPORT
  5
8
330
0
100
AcDbSymbolTable
 70
     1
  0
VPORT
  5
29
330
8
100
AcDbSymbolTableRecord
100
AcDbViewportTableRecord
  2
*Active
 70
     0
 10
0.0
 20
0.0
 11
1.0
 21
1.0
 12
-2.4133775066
 22
-2.353002355
 13
0.0
 23
0.0
 14
0.5
 24
0.5
 15
0.5
 25
0.5
 16
0.0
 26
0.0
 36
1.0
 17
0.0
 27
0.0
 37
0.0
 40
28.0134269531
 41
0.1069501972
 42
50.0
 43
0.0
 44
0.0
 50
0.0
 51
0.0
 71
     0
 72
   100
 73
     1
 74
     3
 75
     0
 76
     0
 77
     0
 78
     0
281
     0
 65
     1
110
0.0
120
0.0
130
0.0
111
1.0
121
0.0
131
0.0
112
0.0
122
1.0
132
0.0
 79
     0
146
0.0
  0
ENDTAB
  0
TABLE
  2
LTYPE
  5
5
330
0
100
AcDbSymbolTable
 70
     6
  0
LTYPE
  5
14
330
5
100
AcDbSymbolTableRecord
100
AcDbLinetypeTableRecord
  2
ByBlock
 70
     0
  3

 72
    65
 73
     0
 40
0.0
  0
LTYPE
  5
15
330
5
100
AcDbSymbolTableRecord
100
AcDbLinetypeTableRecord
  2
ByLayer
 70
     0
  3

 72
    65
 73
     0
 40
0.0
  0
LTYPE
  5
16
330
5
100
AcDbSymbolTableRecord
100
AcDbLinetypeTableRecord
  2
Continuous
 70
     0
  3
Solid line
 72
    65
 73
     0
 40
0.0
  0
LTYPE
  5
5E
330
5
100
AcDbSymbolTableRecord
100
AcDbLinetypeTableRecord
  2
HIDDEN
 70
     0
  3
Hidden __ __ __ __ __ __ __ __ __ __ __ __ __ __
 72
    65
 73
     2
 40
0.075
 49
0.05
 74
     0
 49
-0.025
 74
     0
  0
LTYPE
  5
5F
330
5
100
AcDbSymbolTableRecord
100
AcDbLinetypeTableRecord
  2
PHANTOM
 70
     0
  3
Phantom ______  __  __  ______  __  __  ______
 72
    65
 73
     6
 40
0.5
 49
0.25
 74
     0
 49
-0.05
 74
     0
 49
0.05
 74
     0
 49
-0.05
 74
     0
 49
0.05
 74
     0
 49
-0.05
 74
     0
  0
LTYPE
  5
60
330
5
100
AcDbSymbolTableRecord
100
AcDbLinetypeTableRecord
  2
CENTER
 70
     0
  3
Center ____ _ ____ _ ____ _ ____ _ ____ _ ____
 72
    65
 73
     4
 40
0.4
 49
0.25
 74
     0
 49
-0.05
 74
     0
 49
0.05
 74
     0
 49
-0.05
 74
     0
  0
LTYPE
  5
61
330
5
100
AcDbSymbolTableRecord
100
AcDbLinetypeTableRecord
  2
CENTERX2
 70
     0
  3
Center (2x) ________  __  ________  __  _____
 72
    65
 73
     4
 40
0.8
 49
0.5
 74
     0
 49
-0.1
 74
     0
 49
0.1
 74
     0
 49
-0.1
 74
     0
  0
LTYPE
  5
62
330
5
100
AcDbSymbolTableRecord
100
AcDbLinetypeTableRecord
  2
DOT2
 70
     0
  3
Dot (.5x) ........................................
 72
    65
 73
     2
 40
0.025
 49
0.0
 74
     0
 49
-0.025
 74
     0
  0
ENDTAB
  0
TABLE
  2
LAYER
  5
2
330
0
100
AcDbSymbolTable
 70
     1
  0
LAYER
  5
10
330
2
100
AcDbSymbolTableRecord
100
AcDbLayerTableRecord
  2
0
 70
     0
 62
     7
  6
Continuous
370
    -3
390
F
  0
ENDTAB
  0
TABLE
  2
STYLE
  5
3
330
0
100
AcDbSymbolTable
 70
     2
  0
STYLE
  5
11
330
3
100
AcDbSymbolTableRecord
100
AcDbTextStyleTableRecord
  2
Standard
 70
     0
 40
0.0
 41
1.0
 50
0.0
 71
     0
 42
0.1377952756
  3
txt
  4

  0
STYLE
  5
6F
330
3
100
AcDbSymbolTableRecord
100
AcDbTextStyleTableRecord
  2
SLDTEXTSTYLE0
 70
     0
 40
0.0
 41
0.7
 50
0.0
 71
     0
 42
0.1377952756
  3
TXT
  4

  0
ENDTAB
  0
TABLE
  2
VIEW
  5
6
330
0
100
AcDbSymbolTable
 70
     0
  0
ENDTAB
  0
TABLE
  2
UCS
  5
7
330
0
100
AcDbSymbolTable
 70
     0
  0
ENDTAB
  0
TABLE
  2
APPID
  5
9
330
0
100
AcDbSymbolTable
 70
     1
  0
APPID
  5
12
330
9
100
AcDbSymbolTableRecord
100
AcDbRegAppTableRecord
  2
ACAD
 70
     0
  0
ENDTAB
  0
TABLE
  2
DIMSTYLE
  5
A
330
0
100
AcDbSymbolTable
 70
     1
100
AcDbDimStyleTable
  0
DIMSTYLE
105
27
330
A
100
AcDbSymbolTableRecord
100
AcDbDimStyleTableRecord
  2
Standard
 70
     0
178
     0
340
11
  0
ENDTAB
  0
TABLE
  2
BLOCK_RECORD
  5
1
330
0
100
AcDbSymbolTable
 70
     1
  0
BLOCK_RECORD
  5
1F
330
1
100
AcDbSymbolTableRecord
100
AcDbBlockTableRecord
  2
*Model_Space
340
22
  0
BLOCK_RECORD
  5
1B
330
1
100
AcDbSymbolTableRecord
100
AcDbBlockTableRecord
  2
*Paper_Space
340
1E
  0
BLOCK_RECORD
  5
23
330
1
100
AcDbSymbolTableRecord
100
AcDbBlockTableRecord
  2
*Paper_Space0
340
26
  0
ENDTAB
  0
ENDSEC
  0
SECTION
  2
BLOCKS
  0
BLOCK
  5
20
330
1F
100
AcDbEntity
  8
0
100
AcDbBlockBegin
  2
*Model_Space
 70
     0
 10
0.0
 20
0.0
 30
0.0
  3
*Model_Space
  1

  0
ENDBLK
  5
21
330
1F
100
AcDbEntity
  8
0
100
AcDbBlockEnd
  0
BLOCK
  5
1C
330
1B
100
AcDbEntity
 67
     1
  8
0
100
AcDbBlockBegin
  2
*Paper_Space
 70
     0
 10
0.0
 20
0.0
 30
0.0
  3
*Paper_Space
  1

  0
ENDBLK
  5
1D
330
1B
100
AcDbEntity
 67
     1
  8
0
100
AcDbBlockEnd
  0
BLOCK
  5
24
330
23
100
AcDbEntity
  8
0
100
AcDbBlockBegin
  2
*Paper_Space0
 70
     0
 10
0.0
 20
0.0
 30
0.0
  3
*Paper_Space0
  1

  0
ENDBLK
  5
25
330
23
100
AcDbEntity
  8
0
100
AcDbBlockEnd
  0
ENDSEC
  0
SECTION
  2
ENTITIES
  0
SPLINE
  5
63
330
1F
100
AcDbEntity
  8
0
  6
Continuous
 62
     7
370
    25
100
AcDbSpline
210
0.0
220
0.0
230
1.0
 70
     8
 71
     3
 72
    40
 73
    36
 74
     0
 42
0.00000001
 43
0.00000001
 40
0.0
 40
0.0
 40
0.0
 40
0.0
 40
0.0088345199969366
 40
0.0189320223402368
 40
0.0302950236824177
 40
0.0429252842246535
 40
0.0568240827036519
 40
0.0719923770338538
 40
0.0884309032010101
 40
0.1061402388221351
 40
0.1251208454949455
 40
0.1557389556380696
 40
0.1835577792717484
 40
0.2085805273371492
 40
0.2308116223593199
 40
0.2502573916622424
 40
0.3131400270913347
 40
0.3685000659003512
 40
0.417186630403775
 40
0.4604436395137318
 40
0.5000301993404489
 40
0.53991884064388
 40
0.5832476373156436
 40
0.6318545745615707
 40
0.6870528796737131
 40
0.7497429126733375
 40
0.7844001997782852
 40
0.826103562725545
 40
0.8748775726878164
 40
0.9022676915398915
 40
0.9270406124101872
 40
0.9491977662388189
 40
0.968741158542869
 40
0.9856737235977855
 40
1.0
 40
1.0
 40
1.0
 40
1.0
 10
-2.467990057603739
 20
-16.08507439077674
 30
0.0
 10
-2.464495295635493
 20
-16.081324330086
 30
0.0
 10
-2.457006160778185
 20
-16.07328810029663
 30
0.0
 10
-2.445334766453482
 20
-16.06014289532591
 30
0.0
 10
-2.432376453451838
 20
-16.04519866393349
 30
0.0
 10
-2.4181647021076
 20
-16.02842352790874
 30
0.0
 10
-2.402689540745111
 20
-16.00982664714106
 30
0.0
 10
-2.385953864881607
 20
-15.98940507135843
 30
0.0
 10
-2.367959496729546
 20
-15.96715740758726
 30
0.0
 10
-2.348695841364874
 20
-15.94309188180456
 30
0.0
 10
-2.324479278162433
 20
-15.91245388031215
 30
0.0
 10
-2.296561180887772
 20
-15.87726456743701
 30
0.0
 10
-2.266047604302382
 20
-15.83966214099721
 30
0.0
 10
-2.238218141823578
 20
-15.80615257532184
 30
0.0
 10
-2.213061583967374
 20
-15.77674113674134
 30
0.0
 10
-2.172754943220708
 20
-15.73140030179446
 30
0.0
 10
-2.116538863008086
 20
-15.67445781582225
 30
0.0
 10
-2.041405100857628
 20
-15.61297688498544
 30
0.0
 10
-1.968127589665501
 20
-15.56831113666551
 30
0.0
 10
-1.896466347098943
 20
-15.54062787955445
 30
0.0
 10
-1.825252813073309
 20
-15.53036205160765
 30
0.0
 10
-1.753763816149528
 20
-15.53902750572696
 30
0.0
 10
-1.681409533822409
 20
-15.56541873952781
 30
0.0
 10
-1.607590586432756
 20
-15.60903387397296
 30
0.0
 10
-1.532058861161716
 20
-15.66964864050665
 30
0.0
 10
-1.469409727314202
 20
-15.73237755553445
 30
0.0
 10
-1.416100652546086
 20
-15.79294523375038
 30
0.0
 10
-1.369608614528633
 20
-15.84872309552707
 30
0.0
 10
-1.326985766052199
 20
-15.90220682978913
 30
0.0
 10
-1.290681351963091
 20
-15.94816143968243
 30
0.0
 10
-1.263645668193269
 20
-15.98175566128911
 30
0.0
 10
-1.239238276647231
 20
-16.0116199712808
 30
0.0
 10
-1.217415047028296
 20
-16.03771759959823
 30
0.0
 10
-1.198249750730582
 20
-16.06011589807576
 30
0.0
 10
-1.186102939798366
 20
-16.07358509404952
 30
0.0
 10
-1.180535920590086
 20
-16.07975817710189
 30
0.0
  0
SPLINE
  5
64
330
1F
100
AcDbEntity
  8
0
  6
Continuous
 62
     7
370
    25
100
AcDbSpline
210
0.0
220
0.0
230
1.0
 70
     8
 71
     3
 72
    59
 73
    55
 74
     0
 42
0.00000001
 43
0.00000001
 40
0.0
 40
0.0
 40
0.0
 40
0.0
 40
0.031261596567262
 40
0.0625228224642218
 40
0.0937840483611823
 40
0.1250456449284437
 40
0.1612342747908693
 40
0.1941332458070096
 40
0.2237488318313521
 40
0.2500896529319326
 40
0.282850195191237
 40
0.3116417912407291
 40
0.3365329277463129
 40
0.3576301111960375
 40
0.3751093394968573
 40
0.3863737234590215
 40
0.3961245403087899
 40
0.4047130809759314
 40
0.412646563862239
 40
0.4205591986311566
 40
0.4290898460642638
 40
0.4387555907656548
 40
0.4499168547621599
 40
0.4604272386556637
 40
0.4722303961940472
 40
0.4853845622293426
 40
0.4999317557117124
 40
0.5325130880212422
 40
0.5737363010315418
 40
0.6236906158714943
 40
0.6824254782257517
 40
0.7499710535421701
 40
0.7740916999926286
 40
0.7957865142979328
 40
0.815055514323076
 40
0.8318987256519805
 40
0.8463161867823268
 40
0.8583079595742747
 40
0.8678741529455263
 40
0.8750149868052653
 40
0.8897433708725514
 40
0.903357047463261
 40
0.9158584911311834
 40
0.9272509012199667
 40
0.9375385118202313
 40
0.9458349555944983
 40
0.9537700714313448
 40
0.9613514163353978
 40
0.9685876557544365
 40
0.9754887552661452
 40
0.9820662039490902
 40
0.9883332711298742
 40
0.9943052954169619
 40
1.0
 40
1.0
 40
1.0
 40
1.0
 10
-3.882025319049961
 20
-15.47015407924935
 30
0.0
 10
-3.872009790929132
 20
-15.43164044234059
 30
0.0
 10
-3.851978853442087
 20
-15.35461362518116
 30
0.0
 10
-3.821433840419514
 20
-15.23920417780602
 30
0.0
 10
-3.790497916761159
 20
-15.12389912448582
 30
0.0
 10
-3.75759862296584
 20
-15.00262719799308
 30
0.0
 10
-3.72333879017074
 20
-14.87956469313362
 30
0.0
 10
-3.688061312134954
 20
-14.7589700413414
 30
0.0
 10
-3.654699730503629
 20
-14.65088747818585
 30
0.0
 10
-3.619363039144255
 20
-14.54361827283463
 30
0.0
 10
-3.581378570199576
 20
-14.43835198314919
 30
0.0
 10
-3.539764231962571
 20
-14.33644454082716
 30
0.0
 10
-3.499019939383415
 20
-14.25034106353593
 30
0.0
 10
-3.45914288569797
 20
-14.17997787370735
 30
0.0
 10
-3.422213506535053
 20
-14.12815307763488
 30
0.0
 10
-3.38834127806139
 20
-14.09253106287594
 30
0.0
 10
-3.358154087306967
 20
-14.06961674274365
 30
0.0
 10
-3.32750449957158
 20
-14.05541899066903
 30
0.0
 10
-3.296355579586536
 20
-14.05039404886378
 30
0.0
 10
-3.265194609015252
 20
-14.05488045629822
 30
0.0
 10
-3.234534861904068
 20
-14.06857235400388
 30
0.0
 10
-3.20436466468533
 20
-14.09099817946765
 30
0.0
 10
-3.176589042222709
 20
-14.11981315115209
 30
0.0
 10
-3.150487308159969
 20
-14.15355366180251
 30
0.0
 10
-3.125658960081708
 20
-14.19130719884172
 30
0.0
 10
-3.100678592841219
 20
-14.2349789580406
 30
0.0
 10
-3.065869965217916
 20
-14.30340043830531
 30
0.0
 10
-3.022067426248904
 20
-14.40711297203447
 30
0.0
 10
-2.968660276343229
 20
-14.55535818197264
 30
0.0
 10
-2.910383792978096
 20
-14.73710710347974
 30
0.0
 10
-2.847273964314001
 20
-14.95240356591125
 30
0.0
 10
-2.797106063917857
 20
-15.13717657008949
 30
0.0
 10
-2.760208102230886
 20
-15.27668236339496
 30
0.0
 10
-2.738872344480577
 20
-15.35673763721127
 30
0.0
 10
-2.719871458639556
 20
-15.42782784778246
 30
0.0
 10
-2.703178553872999
 20
-15.48994598429271
 30
0.0
 10
-2.688802751434766
 20
-15.54309451298192
 30
0.0
 10
-2.676737146031367
 20
-15.5872715554973
 30
0.0
 10
-2.667004245823505
 20
-15.62248360206667
 30
0.0
 10
-2.656082841625762
 20
-15.66098057494577
 30
0.0
 10
-2.643254224791658
 20
-15.70429007624909
 30
0.0
 10
-2.627945750539448
 20
-15.75397841118972
 30
0.0
 10
-2.613213723970871
 20
-15.79939644018599
 30
0.0
 10
-2.59907182349426
 20
-15.84054798719815
 30
0.0
 10
-2.585938711734912
 20
-15.87637947395076
 30
0.0
 10
-2.573473323294622
 20
-15.9077560221729
 30
0.0
 10
-2.561437904368242
 20
-15.9355824408078
 30
0.0
 10
-2.549092447335802
 20
-15.96178861010391
 30
0.0
 10
-2.536431401774836
 20
-15.98637328091413
 30
0.0
 10
-2.523453255069275
 20
-16.00933517418297
 30
0.0
 10
-2.510165499373487
 20
-16.03068238145909
 30
0.0
 10
-2.496537597090401
 20
-16.05038799965795
 30
0.0
 10
-2.482671580527188
 20
-16.06854685760061
 30
0.0
 10
-2.47280573387969
 20
-16.07965320607375
 30
0.0
 10
-2.46799006680244
 20
-16.08507438061676
 30
0.0
  0
SPLINE
  5
66
330
1F
100
AcDbEntity
  8
0
  6
Continuous
 62
     7
370
    25
100
AcDbSpline
210
0.0
220
0.0
230
1.0
 70
     8
 71
     3
 72
    19
 73
    15
 74
     0
 42
0.00000001
 43
0.00000001
 40
0.0
 40
0.0
 40
0.0
 40
0.0
 40
0.0987289706896261
 40
0.194573693913445
 40
0.2875543488908708
 40
0.3776930383864162
 40
0.4650140232736535
 40
0.5495439905819532
 40
0.6313123601289163
 40
0.7103516355390315
 40
0.7866978061706067
 40
0.8603908071721706
 40
0.93147504548763
 40
1.0
 40
1.0
 40
1.0
 40
1.0
 10
-3.640127449309801
 20
11.37906968085959
 30
0.0
 10
-3.64757328122078
 20
11.37294563421416
 30
0.0
 10
-3.662247424069208
 20
11.360876447539
 30
0.0
 10
-3.684244594747579
 20
11.34342283927589
 30
0.0
 10
-3.705819326507955
 20
11.32679151288453
 30
0.0
 10
-3.726992343698806
 20
11.3110073793102
 30
0.0
 10
-3.74775838107778
 20
11.2960639891421
 30
0.0
 10
-3.768118888333055
 20
11.28196302657306
 30
0.0
 10
-3.788073416409884
 20
11.26870369475029
 30
0.0
 10
-3.807622708044952
 20
11.25628724920541
 30
0.0
 10
-3.826764765371483
 20
11.24470938695738
 30
0.0
 10
-3.845507002538765
 20
11.23398505943149
 30
0.0
 10
-3.863823702726898
 20
11.22406121366738
 30
0.0
 10
-3.876032717900513
 20
11.21799424762551
 30
0.0
 10
-3.882025319049955
 20
11.21501637372174
 30
0.0
  0
SPLINE
  5
67
330
1F
100
AcDbEntity
  8
0
  6
Continuous
 62
     7
370
    25
100
AcDbSpline
210
0.0
220
0.0
230
1.0
 70
     8
 71
     3
 72
    36
 73
    32
 74
     0
 42
0.00000001
 43
0.00000001
 40
0.0
 40
0.0
 40
0.0
 40
0.0
 40
0.0309558214245323
 40
0.0613100279914178
 40
0.0910744521567622
 40
0.1202616436769394
 40
0.148884911574367
 40
0.1769583669151742
 40
0.2044969659675621
 40
0.2315165531982291
 40
0.2580339034394325
 40
0.2840667624231405
 40
0.3096338847341862
 40
0.3347550680865293
 40
0.3594511826823065
 40
0.3837441942820458
 40
0.4076571795075277
 40
0.4312143318302232
 40
0.454440956683329
 40
0.4773634541897273
 40
0.5000092881365352
 40
0.5430654667182683
 40
0.5872697538597125
 40
0.6327947762983877
 40
0.6797986113880673
 40
0.7284249163779716
 40
0.7788034707393474
 40
0.8310509981530945
 40
0.8852721534422971
 40
0.9415605840446769
 40
1.0
 40
1.0
 40
1.0
 40
1.0
 10
-2.958738897931248
 20
11.3746148758788
 30
0.0
 10
-2.965263891034172
 20
11.37105968522225
 30
0.0
 10
-2.978187066429772
 20
11.36401839771517
 30
0.0
 10
-2.997633716140478
 20
11.35402737295501
 30
0.0
 10
-3.016882939430719
 20
11.34459126587803
 30
0.0
 10
-3.035952135797249
 20
11.33574154720877
 30
0.0
 10
-3.054836814555969
 20
11.32747004740004
 30
0.0
 10
-3.073538181383584
 20
11.31977891508748
 30
0.0
 10
-3.09205596038932
 20
11.3126676195136
 30
0.0
 10
-3.110390261230215
 20
11.30613633314548
 30
0.0
 10
-3.128541092420087
 20
11.30018505191444
 30
0.0
 10
-3.146508487073007
 20
11.29481382469863
 30
0.0
 10
-3.164292468993226
 20
11.29002269397158
 30
0.0
 10
-3.181893060307035
 20
11.28581171138114
 30
0.0
 10
-3.199310277555651
 20
11.28218093403769
 30
0.0
 10
-3.216544132643608
 20
11.27913042393017
 30
0.0
 10
-3.233594625179566
 20
11.27666025209138
 30
0.0
 10
-3.250461763455685
 20
11.27477047960305
 30
0.0
 10
-3.267145481599533
 20
11.27346122276777
 30
0.0
 10
-3.283645936379261
 20
11.27273240874051
 30
0.0
 10
-3.304921873301556
 20
11.27253975417213
 30
0.0
 10
-3.331299629794732
 20
11.27367809988542
 30
0.0
 10
-3.363009061240815
 20
11.27709629852197
 30
0.0
 10
-3.395385716549388
 20
11.28259201011655
 30
0.0
 10
-3.428428562314038
 20
11.29016336417181
 30
0.0
 10
-3.462138529628604
 20
11.29980856284909
 30
0.0
 10
-3.49651518203173
 20
11.31152813009361
 30
0.0
 10
-3.531563038665703
 20
11.32531447946475
 30
0.0
 10
-3.567267922244346
 20
11.34119345417716
 30
0.0
 10
-3.603689451150884
 20
11.35906010714849
 30
0.0
 10
-3.627830573306073
 20
11.37231696566011
 30
0.0
 10
-3.640127440383986
 20
11.37906966861816
 30
0.0
  0
SPLINE
  5
68
330
1F
100
AcDbEntity
  8
0
  6
Continuous
 62
     7
370
    25
100
AcDbSpline
210
0.0
220
0.0
230
1.0
 70
     8
 71
     3
 72
    29
 73
    25
 74
     0
 42
0.00000001
 43
0.00000001
 40
0.0
 40
0.0
 40
0.0
 40
0.0
 40
0.0325035066350775
 40
0.0647358045860665
 40
0.0967178339780917
 40
0.1284710300702894
 40
0.1600172945926245
 40
0.1913789628161565
 40
0.2225787664600741
 40
0.2536397926227961
 40
0.2845854390104521
 40
0.3154393658209031
 40
0.3462254447220202
 40
0.3769677054357857
 40
0.4076902805017984
 40
0.4384173488420525
 40
0.4691730787812486
 40
0.4999815711917057
 40
0.5720699422697747
 40
0.6483830204457343
 40
0.7291520598952222
 40
0.8145721321464192
 40
0.9048081500667039
 40
1.0
 40
1.0
 40
1.0
 40
1.0
 10
-2.500831397911605
 20
11.28026763586175
 30
0.0
 10
-2.505924359354436
 20
11.2792584024027
 30
0.0
 10
-2.516067786659962
 20
11.27724835651072
 30
0.0
 10
-2.531312238020737
 20
11.27473006441077
 30
0.0
 10
-2.546492765748765
 20
11.27259413738681
 30
0.0
 10
-2.561616312774694
 20
11.27087439333314
 30
0.0
 10
-2.576681021133914
 20
11.26956189708459
 30
0.0
 10
-2.591687361839438
 20
11.26865904000958
 30
0.0
 10
-2.606635185409866
 20
11.26816520757496
 30
0.0
 10
-2.6215245044987
 20
11.26808058077718
 30
0.0
 10
-2.636355286339398
 20
11.26840512674937
 30
0.0
 10
-2.651127508383472
 20
11.2691388651724
 30
0.0
 10
-2.66584114351512
 20
11.27028180280776
 30
0.0
 10
-2.680496165965279
 20
11.27183392942209
 30
0.0
 10
-2.695092544658653
 20
11.27379529802272
 30
0.0
 10
-2.709630266372325
 20
11.27616570762915
 30
0.0
 10
-2.724109252248537
 20
11.27894589240428
 30
0.0
 10
-2.744956605656238
 20
11.28355354805058
 30
0.0
 10
-2.772603030667079
 20
11.29105220242303
 30
0.0
 10
-2.807330196747904
 20
11.30268020872989
 30
0.0
 10
-2.84339231019106
 20
11.31686260563239
 30
0.0
 10
-2.880774974295229
 20
11.33362650121788
 30
0.0
 10
-2.919540712113496
 20
11.3528658984272
 30
0.0
 10
-2.945442080227546
 20
11.36723717522408
 30
0.0
 10
-2.958738890330149
 20
11.37461486035865
 30
0.0
  0
SPLINE
  5
69
330
1F
100
AcDbEntity
  8
0
  6
Continuous
 62
     7
370
    25
100
AcDbSpline
210
0.0
220
0.0
230
1.0
 70
     8
 71
     3
 72
    72
 73
    68
 74
     0
 42
0.00000001
 43
0.00000001
 40
0.0
 40
0.0
 40
0.0
 40
0.0
 40
0.0060721862032304
 40
0.0127338918097361
 40
0.0199858058532626
 40
0.0278284618069276
 40
0.0362622810441617
 40
0.0452876021382316
 40
0.0549047011905271
 40
0.0651138062893201
 40
0.0759151080192339
 40
0.087308767247463
 40
0.0992949209909831
 40
0.1118736869051531
 40
0.1250451667646675
 40
0.1544508754768438
 40
0.1804308157825969
 40
0.2029850298005366
 40
0.2221135822783126
 40
0.2378165803383776
 40
0.2500942207674353
 40
0.2798021678568318
 40
0.3071550579866091
 40
0.3321579927768842
 40
0.3548176611171673
 40
0.3751430654660682
 40
0.3933739654154493
 40
0.4099085913100459
 40
0.4247700974437402
 40
0.4379904320169257
 40
0.4496150824834894
 40
0.4597111273174915
 40
0.468381197368433
 40
0.4757874432908886
 40
0.4821887879322263
 40
0.4879805336403958
 40
0.4936861268660507
 40
0.4998509983442572
 40
0.5083793260797727
 40
0.5187443493829831
 40
0.5311967599390264
 40
0.5458807251972526
 40
0.5628837434358411
 40
0.5822619247025933
 40
0.6040530393060473
 40
0.6282835764148915
 40
0.6549727627639278
 40
0.6841349625066183
 40
0.715781172487593
 40
0.749919989177041
 40
0.7677841691397502
 40
0.7856483435169702
 40
0.8035125145428972
 40
0.8213766844517247
 40
0.8392408554776511
 40
0.8571050298548717
 40
0.8749692098175805
 40
0.8915693853352872
 40
0.9072561917436374
 40
0.9220303495297272
 40
0.9358927214842084
 40
0.9488443526185993
 40
0.9608865250471561
 40
0.9720208350607025
 40
0.9822493040114908
 40
0.9915745423246697
 40
1.0
 40
1.0
 40
1.0
 40
1.0
 10
-1.060149815408081
 20
11.17598066274603
 30
0.0
 10
-1.06287613009157
 20
11.16686582960868
 30
0.0
 10
-1.068593444260951
 20
11.14775124794894
 30
0.0
 10
-1.077124410189531
 20
11.11762156973741
 30
0.0
 10
-1.086143028202391
 20
11.08474896471552
 30
0.0
 10
-1.095607082279173
 20
11.04912053168319
 30
0.0
 10
-1.105528947733478
 20
11.01073991682096
 30
0.0
 10
-1.115904599397725
 20
10.96960584081719
 30
0.0
 10
-1.126734987622824
 20
10.92571854858302
 30
0.0
 10
-1.138019677122279
 20
10.87907787571593
 30
0.0
 10
-1.149758511600534
 20
10.82968376523364
 30
0.0
 10
-1.161951967665634
 20
10.77753629894917
 30
0.0
 10
-1.174597591947498
 20
10.72263491323376
 30
0.0
 10
-1.187704929505558
 20
10.66498172496168
 30
0.0
 10
-1.20659139534092
 20
10.58065402005819
 30
0.0
 10
-1.229982018122739
 20
10.47581847641094
 30
0.0
 10
-1.256766124867895
 20
10.35667812740566
 30
0.0
 10
-1.280149206006925
 20
10.25327710177964
 30
0.0
 10
-1.300155209755079
 20
10.16562076479729
 30
0.0
 10
-1.316756315760522
 20
10.09370246127783
 30
0.0
 10
-1.337501886998283
 20
10.00573038602115
 30
0.0
 10
-1.363406582466166
 20
9.900223520226417
 30
0.0
 10
-1.395518690371671
 20
9.775719515088978
 30
0.0
 10
-1.426565315591814
 20
9.662356696692084
 30
0.0
 10
-1.456516819374635
 20
9.56012582380539
 30
0.0
 10
-1.485473378747114
 20
9.468679929759777
 30
0.0
 10
-1.513801003110364
 20
9.387131954574595
 30
0.0
 10
-1.541759124833468
 20
9.314559545556373
 30
0.0
 10
-1.569535243346575
 20
9.250385248332181
 30
0.0
 10
-1.597131518684482
 20
9.194592662397252
 30
0.0
 10
-1.624554129033367
 20
9.147155141376246
 30
0.0
 10
-1.651825001625175
 20
9.108032802079984
 30
0.0
 10
-1.679004104633027
 20
9.077171911017283
 30
0.0
 10
-1.706229420921449
 20
9.05453541593488
 30
0.0
 10
-1.733751357029915
 20
9.040218775406563
 30
0.0
 10
-1.761712562185877
 20
9.034702364601088
 30
0.0
 10
-1.789618378602455
 20
9.03846939577598
 30
0.0
 10
-1.818894456331436
 20
9.052228729580614
 30
0.0
 10
-1.849294296141485
 20
9.077609808750177
 30
0.0
 10
-1.880900826994116
 20
9.115402449359946
 30
0.0
 10
-1.912853447037517
 20
9.164836880059147
 30
0.0
 10
-1.945243008287024
 20
9.226007147511258
 30
0.0
 10
-1.978098226182071
 20
9.299002453346546
 30
0.0
 10
-2.011420716489318
 20
9.383864718774124
 30
0.0
 10
-2.045207049026769
 20
9.480621732106561
 30
0.0
 10
-2.079451365929441
 20
9.589289264088038
 30
0.0
 10
-2.114152170009195
 20
9.709876678890907
 30
0.0
 10
-2.149292438115063
 20
9.842393315867643
 30
0.0
 10
-2.184924983095909
 20
9.986830737038511
 30
0.0
 10
-2.214234716741026
 20
10.11457443756425
 30
0.0
 10
-2.238062623929242
 20
10.22141516397233
 30
0.0
 10
-2.256469123296215
 20
10.30334014187117
 30
0.0
 10
-2.274877509257169
 20
10.38526458258229
 30
0.0
 10
-2.293323179521737
 20
10.46718065896903
 30
0.0
 10
-2.311791643075984
 20
10.54909159549531
 30
0.0
 10
-2.33030546627778
 20
10.6309923214395
 30
0.0
 10
-2.348352932401429
 20
10.71096805595358
 30
0.0
 10
-2.365875219023146
 20
10.78756516711076
 30
0.0
 10
-2.382827143781635
 20
10.85932470703414
 30
0.0
 10
-2.399262563983469
 20
10.92679693809326
 30
0.0
 10
-2.415198177590128
 20
10.98997818083757
 30
0.0
 10
-2.430628566813886
 20
11.04886999281502
 30
0.0
 10
-2.445557378333815
 20
11.10347142963957
 30
0.0
 10
-2.459973237462062
 20
11.15378686093793
 30
0.0
 10
-2.473910011621443
 20
11.19980473627098
 30
0.0
 10
-2.487253434736822
 20
11.24156665792722
 30
0.0
 10
-2.49646098244323
 20
11.26781074829023
 30
0.0
 10
-2.500831391555309
 20
11.28026763858479
 30
0.0
  0
SPLINE
  5
6A
330
1F
100
AcDbEntity
  8
0
  6
Continuous
 62
     7
370
    25
100
AcDbSpline
210
0.0
220
0.0
230
1.0
 70
     8
 71
     3
 72
    15
 73
    11
 74
     0
 42
0.00000001
 43
0.00000001
 40
0.0
 40
0.0
 40
0.0
 40
0.0
 40
0.1291601123476952
 40
0.2569798770849099
 40
0.3835324505557773
 40
0.5088932075953427
 40
0.6331396921242215
 40
0.7563515518977313
 40
0.8786104567624651
 40
1.0
 40
1.0
 40
1.0
 40
1.0
 10
-0.9447296941087936
 20
11.21497290129388
 30
0.0
 10
-0.9495361176900599
 20
11.21285082166878
 30
0.0
 10
-0.9590990866181675
 20
11.2086286841117
 30
0.0
 10
-0.9735545971287328
 20
11.20275565874707
 30
0.0
 10
-0.9879932906094565
 20
11.1972648342602
 30
0.0
 10
-1.002428618450329
 20
11.19218649795816
 30
0.0
 10
-1.016856472711596
 20
11.18751023478347
 30
0.0
 10
-1.031279967031859
 20
11.18324783048266
 30
0.0
 10
-1.045690763449958
 20
11.17936297938001
 30
0.0
 10
-1.055341606181265
 20
11.17710541528622
 30
0.0
 10
-1.060149809968876
 20
11.1759806608447
 30
0.0
  0
SPLINE
  5
6C
330
1F
100
AcDbEntity
  8
0
  6
Continuous
 62
     7
370
    25
100
AcDbSpline
210
0.0
220
0.0
230
1.0
 70
     8
 71
     3
 72
    32
 73
    28
 74
     0
 42
0.00000001
 43
0.00000001
 40
0.0
 40
0.0
 40
0.0
 40
0.0
 40
0.0168252897924341
 40
0.0342680422522466
 40
0.0523469785581837
 40
0.0710789125304153
 40
0.0904789602244655
 40
0.1105607290342056
 40
0.1313364868863303
 40
0.152817312707002
 40
0.1750132296592558
 40
0.1979333227779594
 40
0.2215858426351379
 40
0.2459782965999213
 40
0.2711175291470695
 40
0.2970097925379006
 40
0.323660809061604
 40
0.3510758258917732
 40
0.3792596634880928
 40
0.4082167583582355
 40
0.4379512008918943
 40
0.4684667688869531
 40
0.499766957307158
 40
0.5933746727197075
 40
0.7079355430474565
 40
0.8434727067007955
 40
1.0
 40
1.0
 40
1.0
 40
1.0
 10
-1.180535915062621
 20
-16.07975818293713
 30
0.0
 10
-1.178109949905127
 20
-16.0769778410838
 30
0.0
 10
-1.173168990340979
 20
-16.07131512303965
 30
0.0
 10
-1.166006349720049
 20
-16.06234070371848
 30
0.0
 10
-1.158855482896795
 20
-16.05283091300468
 30
0.0
 10
-1.151746357916789
 20
-16.04275896091675
 30
0.0
 10
-1.144670389662096
 20
-16.03213236126516
 30
0.0
 10
-1.13762990916553
 20
-16.02094893056044
 30
0.0
 10
-1.13062418253099
 20
-16.00920922378353
 30
0.0
 10
-1.123653356046713
 20
-15.99691302467963
 30
0.0
 10
-1.116717340343522
 20
-15.98406033737177
 30
0.0
 10
-1.109816122757804
 20
-15.97065110748738
 30
0.0
 10
-1.102949677433294
 20
-15.95668530106208
 30
0.0
 10
-1.096117989014262
 20
-15.94216288243088
 30
0.0
 10
-1.089321044717676
 20
-15.92708382035451
 30
0.0
 10
-1.08255883526641
 20
-15.9114480861973
 30
0.0
 10
-1.075831354562747
 20
-15.89525565391705
 30
0.0
 10
-1.069138595866407
 20
-15.87850650092089
 30
0.0
 10
-1.062480564721204
 20
-15.86120060319953
 30
0.0
 10
-1.055857226489517
 20
-15.84333795334221
 30
0.0
 10
-1.049268708649979
 20
-15.82491848946633
 30
0.0
 10
-1.042714513984659
 20
-15.80594237021233
 30
0.0
 10
-1.031926440160004
 20
-15.77361185165008
 30
0.0
 10
-1.016249874228866
 20
-15.72348915003807
 30
0.0
 10
-0.9949077993631695
 20
-15.65120240261018
 30
0.0
 10
-0.9705995252326491
 20
-15.5654101979306
 30
0.0
 10
-0.9537564643105473
 20
-15.50361848881398
 30
0.0
 10
-0.9447296941087949
 20
-15.47050220661628
 30
0.0
  0
LINE
  5
6D
330
1F
100
AcDbEntity
  8
0
  6
Continuous
 62
     7
370
    25
100
AcDbLine
 10
-3.882025319
 20
11.2150163737
 30
0.0
 11
-3.882025319
 21
-15.4701540792
 31
0.0
  0
LINE
  5
6E
330
1F
100
AcDbEntity
  8
0
  6
Continuous
 62
     7
370
    25
100
AcDbLine
 10
-0.9447296941
 20
-15.4705022066
 30
0.0
 11
-0.9447296941
 21
11.2149729013
 31
0.0
  0
MTEXT
  5
70
330
1F
100
AcDbEntity
  8
0
  6
Continuous
 62
     7
100
AcDbMText
 10
-3.882025319
 20
-16.1252147999
 30
0.0
 40
0.1903
 41
0.0
 71
     1
 72
     1
  1
SOLIDWORKS Educational Product.
  7
SLDTEXTSTYLE0
 73
     1
 44
1.0
  0
MTEXT
  5
71
330
1F
100
AcDbEntity
  8
0
  6
Continuous
 62
     7
100
AcDbMText
 10
-3.882025319
 20
-16.4106647999
 30
0.0
 40
0.1903
 41
0.0
 71
     1
 72
     1
  1
For Instructional Use Only.
  7
SLDTEXTSTYLE0
 73
     1
 44
1.0
  0
ENDSEC
  0
SECTION
  2
OBJECTS
  0
DICTIONARY
  5
C
330
0
100
AcDbDictionary
281
     1
  3
ACAD_GROUP
350
D
  3
ACAD_LAYOUT
350
1A
  3
ACAD_MLINESTYLE
350
17
  3
ACAD_PLOTSETTINGS
350
19
  3
ACAD_PLOTSTYLENAME
350
E
  3
ACAD_SCALELIST
350
47
  3
DWGPROPS
350
72
  0
DICTIONARY
  5
D
102
{ACAD_REACTORS
330
C
102
}
330
C
100
AcDbDictionary
281
     1
  0
DICTIONARY
  5
1A
102
{ACAD_REACTORS
330
C
102
}
330
C
100
AcDbDictionary
281
     1
  3
Layout1
350
1E
  3
Layout2
350
26
  3
Model
350
22
  0
DICTIONARY
  5
17
102
{ACAD_REACTORS
330
C
102
}
330
C
100
AcDbDictionary
281
     1
  3
Standard
350
18
  0
DICTIONARY
  5
19
102
{ACAD_REACTORS
330
C
102
}
330
C
100
AcDbDictionary
281
     1
  0
ACDBDICTIONARYWDFLT
  5
E
102
{ACAD_REACTORS
330
C
102
}
330
C
100
AcDbDictionary
281
     1
  3
Normal
350
F
100
AcDbDictionaryWithDefault
340
F
  0
DICTIONARY
  5
47
102
{ACAD_REACTORS
330
C
102
}
330
C
100
AcDbDictionary
281
     1
  3
A0
350
48
  3
A1
350
49
  3
A2
350
4A
  3
A3
350
4B
  3
A4
350
4C
  3
A5
350
4D
  3
A6
350
4E
  3
A7
350
4F
  3
A8
350
50
  3
A9
350
51
  3
B1
350
52
  3
B2
350
53
  3
B3
350
54
  3
B4
350
55
  3
B5
350
56
  3
B6
350
57
  3
B7
350
58
  0
XRECORD
  5
72
102
{ACAD_REACTORS
330
C
102
}
330
C
100
AcDbXrecord
280
     1
  1
DWGPROPS COOKIE
  2

  3

  4

  6

  7

  8
manny
  9

300
=
301
=
302
=
303
=
304
=
305
=
306
=
307
=
308
=
309
=
 40
0.0
 41
2460633.175508785
 42
2460633.175602882
  1

 90
        0
  0
LAYOUT
  5
1E
102
{ACAD_REACTORS
330
1A
102
}
330
1A
100
AcDbPlotSettings
  1

  2
none_device
  4

  6

 40
0.0
 41
0.0
 42
0.0
 43
0.0
 44
0.0
 45
0.0
 46
0.0
 47
0.0
 48
0.0
 49
0.0
140
0.0
141
0.0
142
1.0
143
1.0
 70
   688
 72
     0
 73
     0
 74
     5
  7

 75
    16
147
1.0
148
0.0
149
0.0
100
AcDbLayout
  1
Layout1
 70
     1
 71
     1
 10
0.0
 20
0.0
 11
12.0
 21
9.0
 12
0.0
 22
0.0
 32
0.0
 14
1.0000000000E+20
 24
1.0000000000E+20
 34
1.0000000000E+20
 15
-1.0000000000E+20
 25
-1.0000000000E+20
 35
-1.0000000000E+20
146
0.0
 13
0.0
 23
0.0
 33
0.0
 16
1.0
 26
0.0
 36
0.0
 17
0.0
 27
1.0
 37
0.0
 76
     0
330
1B
  0
LAYOUT
  5
26
102
{ACAD_REACTORS
330
1A
102
}
330
1A
100
AcDbPlotSettings
  1

  2
none_device
  4

  6

 40
0.0
 41
0.0
 42
0.0
 43
0.0
 44
0.0
 45
0.0
 46
0.0
 47
0.0
 48
0.0
 49
0.0
140
0.0
141
0.0
142
1.0
143
1.0
 70
   688
 72
     0
 73
     0
 74
     5
  7

 75
    16
147
1.0
148
0.0
149
0.0
100
AcDbLayout
  1
Layout2
 70
     1
 71
     2
 10
0.0
 20
0.0
 11
0.0
 21
0.0
 12
0.0
 22
0.0
 32
0.0
 14
0.0
 24
0.0
 34
0.0
 15
0.0
 25
0.0
 35
0.0
146
0.0
 13
0.0
 23
0.0
 33
0.0
 16
1.0
 26
0.0
 36
0.0
 17
0.0
 27
1.0
 37
0.0
 76
     0
330
23
  0
LAYOUT
  5
22
102
{ACAD_REACTORS
330
1A
102
}
330
1A
100
AcDbPlotSettings
  1

  2
none_device
  4
ANSI_A_(11.00_x_8.50_Inches)
  6

 40
6.35
 41
19.05
 42
6.35000508
 43
19.05000254
 44
279.4
 45
215.9
 46
152.1322220321
 47
107.2123508295
 48
0.0
 49
0.0
140
0.0
141
0.0
142
0.3063994996
143
1.0
 70
  1696
 72
     0
 73
     0
 74
     0
  7

 75
     0
147
0.5913241897
148
-39.4088153714
149
0.0
100
AcDbLayout
  1
Model
 70
     1
 71
     0
 10
0.0
 20
0.0
 11
12.0
 21
9.0
 12
0.0
 22
0.0
 32
0.0
 14
-3.882025319
 24
-16.0850743908
 34
0.0
 15
-0.9447296941
 25
11.3790696809
 35
0.0
146
0.0
 13
0.0
 23
0.0
 33
0.0
 16
1.0
 26
0.0
 36
0.0
 17
0.0
 27
1.0
 37
0.0
 76
     0
330
1F
331
29
  0
MLINESTYLE
  5
18
102
{ACAD_REACTORS
330
17
102
}
330
17
100
AcDbMlineStyle
  2
Standard
 70
     0
  3

 62
   256
 51
90.0
 52
90.0
 71
     2
 49
0.5
 62
   256
  6
BYLAYER
 49
-0.5
 62
   256
  6
BYLAYER
  0
ACDBPLACEHOLDER
  5
F
102
{ACAD_REACTORS
330
E
102
}
330
E
  0
SCALE
  5
48
102
{ACAD_REACTORS
330
47
102
}
330
47
100
AcDbScale
 70
     0
300
1:1
140
1.0
141
1.0
290
     1
  0
SCALE
  5
49
102
{ACAD_REACTORS
330
47
102
}
330
47
100
AcDbScale
 70
     0
300
1/128" = 1'-0"
140
0.0078125
141
12.0
290
     0
  0
SCALE
  5
4A
102
{ACAD_REACTORS
330
47
102
}
330
47
100
AcDbScale
 70
     0
300
1/64" = 1'-0"
140
0.015625
141
12.0
290
     0
  0
SCALE
  5
4B
102
{ACAD_REACTORS
330
47
102
}
330
47
100
AcDbScale
 70
     0
300
1/32" = 1'-0"
140
0.03125
141
12.0
290
     0
  0
SCALE
  5
4C
102
{ACAD_REACTORS
330
47
102
}
330
47
100
AcDbScale
 70
     0
300
1/16" = 1'-0"
140
0.0625
141
12.0
290
     0
  0
SCALE
  5
4D
102
{ACAD_REACTORS
330
47
102
}
330
47
100
AcDbScale
 70
     0
300
3/32" = 1'-0"
140
0.09375
141
12.0
290
     0
  0
SCALE
  5
4E
102
{ACAD_REACTORS
330
47
102
}
330
47
100
AcDbScale
 70
     0
300
1/8" = 1'-0"
140
0.125
141
12.0
290
     0
  0
SCALE
  5
4F
102
{ACAD_REACTORS
330
47
102
}
330
47
100
AcDbScale
 70
     0
300
3/16" = 1'-0"
140
0.1875
141
12.0
290
     0
  0
SCALE
  5
50
102
{ACAD_REACTORS
330
47
102
}
330
47
100
AcDbScale
 70
     0
300
1/4" = 1'-0"
140
0.25
141
12.0
290
     0
  0
SCALE
  5
51
102
{ACAD_REACTORS
330
47
102
}
330
47
100
AcDbScale
 70
     0
300
3/8" = 1'-0"
140
0.375
141
12.0
290
     0
  0
SCALE
  5
52
102
{ACAD_REACTORS
330
47
102
}
330
47
100
AcDbScale
 70
     0
300
1/2" = 1'-0"
140
0.5
141
12.0
290
     0
  0
SCALE
  5
53
102
{ACAD_REACTORS
330
47
102
}
330
47
100
AcDbScale
 70
     0
300
3/4" = 1'-0"
140
0.75
141
12.0
290
     0
  0
SCALE
  5
54
102
{ACAD_REACTORS
330
47
102
}
330
47
100
AcDbScale
 70
     0
300
1" = 1'-0"
140
1.0
141
12.0
290
     0
  0
SCALE
  5
55
102
{ACAD_REACTORS
330
47
102
}
330
47
100
AcDbScale
 70
     0
300
1-1/2" = 1'-0"
140
1.5
141
12.0
290
     0
  0
SCALE
  5
56
102
{ACAD_REACTORS
330
47
102
}
330
47
100
AcDbScale
 70
     0
300
3" = 1'-0"
140
3.0
141
12.0
290
     0
  0
SCALE
  5
57
102
{ACAD_REACTORS
330
47
102
}
330
47
100
AcDbScale
 70
     0
300
6" = 1'-0"
140
6.0
141
12.0
290
     0
  0
SCALE
  5
58
102
{ACAD_REACTORS
330
47
102
}
330
47
100
AcDbScale
 70
     0
300
1'-0" = 1'-0"
140
12.0
141
12.0
290
     0
  0
ENDSEC
  0
EOF
