  0
SECTION
  2
HEADER
  9
$ACADVER
  1
AC1015
  9
$ACADMAINTVER
 70
     6
  9
$DWGCODEPAGE
  3
ANSI_1252
  9
$INSBASE
 10
0.0
 20
0.0
 30
0.0
  9
$EXTMIN
 10
4.8566082361
 20
-19.1216170152
 30
0.0
  9
$EXTMAX
 10
7.7939037964
 20
13.3480568601
 30
0.0
  9
$LIMMIN
 10
0.0
 20
0.0
  9
$LIMMAX
 10
12.0
 20
9.0
  9
$ORTHOMODE
 70
     0
  9
$REGENMODE
 70
     1
  9
$FILLMODE
 70
     1
  9
$QTEXTMODE
 70
     0
  9
$MIRRTEXT
 70
     1
  9
$LTSCALE
 40
1.0
  9
$ATTMODE
 70
     1
  9
$TEXTSIZE
 40
0.1377952756
  9
$TRACEWID
 40
0.05
  9
$TEXTSTYLE
  7
Standard
  9
$CLAYER
  8
0
  9
$CELTYPE
  6
ByLayer
  9
$CECOLOR
 62
   256
  9
$CELTSCALE
 40
1.0
  9
$DISPSILH
 70
     0
  9
$DIMSCALE
 40
1.0
  9
$DIMASZ
 40
0.13
  9
$DIMEXO
 40
0.0
  9
$DIMDLI
 40
0.38
  9
$DIMRND
 40
0.0
  9
$DIMDLE
 40
0.0
  9
$DIMEXE
 40
0.0393700787
  9
$DIMTP
 40
0.0
  9
$DIMTM
 40
0.0
  9
$DIMTXT
 40
0.1377952756
  9
$DIMCEN
 40
0.09
  9
$DIMTSZ
 40
0.0
  9
$DIMTOL
 70
     0
  9
$DIMLIM
 70
     0
  9
$DIMTIH
 70
     1
  9
$DIMTOH
 70
     1
  9
$DIMSE1
 70
     0
  9
$DIMSE2
 70
     0
  9
$DIMTAD
 70
     1
  9
$DIMZIN
 70
     1
  9
$DIMBLK
  1

  9
$DIMASO
 70
     1
  9
$DIMSHO
 70
     1
  9
$DIMPOST
  1

  9
$DIMAPOST
  1

  9
$DIMALT
 70
     0
  9
$DIMALTD
 70
     2
  9
$DIMALTF
 40
25.4
  9
$DIMLFAC
 40
1.0
  9
$DIMTOFL
 70
     0
  9
$DIMTVP
 40
0.0
  9
$DIMTIX
 70
     0
  9
$DIMSOXD
 70
     0
  9
$DIMSAH
 70
     0
  9
$DIMBLK1
  1

  9
$DIMBLK2
  1

  9
$DIMSTYLE
  2
Standard
  9
$DIMCLRD
 70
     0
  9
$DIMCLRE
 70
     0
  9
$DIMCLRT
 70
     0
  9
$DIMTFAC
 40
1.0
  9
$DIMGAP
 40
0.06
  9
$DIMJUST
 70
     0
  9
$DIMSD1
 70
     0
  9
$DIMSD2
 70
     0
  9
$DIMTOLJ
 70
     1
  9
$DIMTZIN
 70
     1
  9
$DIMALTZ
 70
     0
  9
$DIMALTTZ
 70
     0
  9
$DIMUPT
 70
     0
  9
$DIMDEC
 70
     2
  9
$DIMTDEC
 70
     2
  9
$DIMALTU
 70
     2
  9
$DIMALTTD
 70
     2
  9
$DIMTXSTY
  7
Standard
  9
$DIMAUNIT
 70
     0
  9
$DIMADEC
 70
     2
  9
$DIMALTRND
 40
0.0
  9
$DIMAZIN
 70
     0
  9
$DIMDSEP
 70
    46
  9
$DIMATFIT
 70
     3
  9
$DIMFRAC
 70
     0
  9
$DIMLDRBLK
  1

  9
$DIMLUNIT
 70
     2
  9
$DIMLWD
 70
    -2
  9
$DIMLWE
 70
    -2
  9
$DIMTMOVE
 70
     0
  9
$LUNITS
 70
     2
  9
$LUPREC
 70
     2
  9
$SKETCHINC
 40
0.1
  9
$FILLETRAD
 40
0.0
  9
$AUNITS
 70
     0
  9
$AUPREC
 70
     2
  9
$MENU
  1
.
  9
$ELEVATION
 40
0.0
  9
$PELEVATION
 40
0.0
  9
$THICKNESS
 40
0.0
  9
$LIMCHECK
 70
     0
  9
$CHAMFERA
 40
0.0
  9
$CHAMFERB
 40
0.0
  9
$CHAMFERC
 40
0.0
  9
$CHAMFERD
 40
0.0
  9
$SKPOLY
 70
     0
  9
$TDCREATE
 40
2460632.84768022
  9
$TDUCREATE
 40
2460633.181013554
  9
$TDUPDATE
 40
2460632.847726505
  9
$TDUUPDATE
 40
2460633.181059838
  9
$TDINDWG
 40
0.0000000116
  9
$TDUSRTIMER
 40
0.0000000116
  9
$USRTIMER
 70
     1
  9
$ANGBASE
 50
0.0
  9
$ANGDIR
 70
     0
  9
$PDMODE
 70
     0
  9
$PDSIZE
 40
-1.0
  9
$PLINEWID
 40
0.0
  9
$SPLFRAME
 70
     0
  9
$SPLINETYPE
 70
     6
  9
$SPLINESEGS
 70
     8
  9
$HANDSEED
  5
6D
  9
$SURFTAB1
 70
     6
  9
$SURFTAB2
 70
     6
  9
$SURFTYPE
 70
     6
  9
$SURFU
 70
     6
  9
$SURFV
 70
     6
  9
$UCSBASE
  2

  9
$UCSNAME
  2

  9
$UCSORG
 10
0.0
 20
0.0
 30
0.0
  9
$UCSXDIR
 10
1.0
 20
0.0
 30
0.0
  9
$UCSYDIR
 10
0.0
 20
1.0
 30
0.0
  9
$UCSORTHOREF
  2

  9
$UCSORTHOVIEW
 70
     0
  9
$UCSORGTOP
 10
0.0
 20
0.0
 30
0.0
  9
$UCSORGBOTTOM
 10
0.0
 20
0.0
 30
0.0
  9
$UCSORGLEFT
 10
0.0
 20
0.0
 30
0.0
  9
$UCSORGRIGHT
 10
0.0
 20
0.0
 30
0.0
  9
$UCSORGFRONT
 10
0.0
 20
0.0
 30
0.0
  9
$UCSORGBACK
 10
0.0
 20
0.0
 30
0.0
  9
$PUCSBASE
  2

  9
$PUCSNAME
  2

  9
$PUCSORG
 10
0.0
 20
0.0
 30
0.0
  9
$PUCSXDIR
 10
1.0
 20
0.0
 30
0.0
  9
$PUCSYDIR
 10
0.0
 20
1.0
 30
0.0
  9
$PUCSORTHOREF
  2

  9
$PUCSORTHOVIEW
 70
     0
  9
$PUCSORGTOP
 10
0.0
 20
0.0
 30
0.0
  9
$PUCSORGBOTTOM
 10
0.0
 20
0.0
 30
0.0
  9
$PUCSORGLEFT
 10
0.0
 20
0.0
 30
0.0
  9
$PUCSORGRIGHT
 10
0.0
 20
0.0
 30
0.0
  9
$PUCSORGFRONT
 10
0.0
 20
0.0
 30
0.0
  9
$PUCSORGBACK
 10
0.0
 20
0.0
 30
0.0
  9
$USERI1
 70
     0
  9
$USERI2
 70
     0
  9
$USERI3
 70
     0
  9
$USERI4
 70
     0
  9
$USERI5
 70
     0
  9
$USERR1
 40
0.0
  9
$USERR2
 40
0.0
  9
$USERR3
 40
0.0
  9
$USERR4
 40
0.0
  9
$USERR5
 40
0.0
  9
$WORLDVIEW
 70
     1
  9
$SHADEDGE
 70
     3
  9
$SHADEDIF
 70
    70
  9
$TILEMODE
 70
     1
  9
$MAXACTVP
 70
    64
  9
$PINSBASE
 10
0.0
 20
0.0
 30
0.0
  9
$PLIMCHECK
 70
     0
  9
$PEXTMIN
 10
1.0000000000E+20
 20
1.0000000000E+20
 30
1.0000000000E+20
  9
$PEXTMAX
 10
-1.0000000000E+20
 20
-1.0000000000E+20
 30
-1.0000000000E+20
  9
$PLIMMIN
 10
0.0
 20
0.0
  9
$PLIMMAX
 10
12.0
 20
9.0
  9
$UNITMODE
 70
     0
  9
$VISRETAIN
 70
     1
  9
$PLINEGEN
 70
     0
  9
$PSLTSCALE
 70
     1
  9
$TREEDEPTH
 70
  3020
  9
$CMLSTYLE
  2
Standard
  9
$CMLJUST
 70
     0
  9
$CMLSCALE
 40
1.0
  9
$PROXYGRAPHICS
 70
     1
  9
$MEASUREMENT
 70
     0
  9
$CELWEIGHT
370
    -1
  9
$ENDCAPS
280
     0
  9
$JOINSTYLE
280
     0
  9
$LWDISPLAY
290
     1
  9
$INSUNITS
 70
     1
  9
$HYPERLINKBASE
  1

  9
$STYLESHEET
  1

  9
$XEDIT
290
     1
  9
$CEPSNTYPE
380
     0
  9
$PSTYLEMODE
290
     1
  9
$FINGERPRINTGUID
  2
{4d2d4ba6-96d0-4b81-a261-2636ad7db135}
  9
$VERSIONGUID
  2
{FAEB1C32-E019-11D5-929B-00C0DF256EC4}
  9
$EXTNAMES
290
     1
  9
$PSVPSCALE
 40
0.0
  9
$OLESTARTUP
290
     0
  0
ENDSEC
  0
SECTION
  2
CLASSES
  0
CLASS
  1
ACDBDICTIONARYWDFLT
  2
AcDbDictionaryWithDefault
  3
ObjectDBX Classes
 90
        0
280
     0
281
     0
  0
CLASS
  1
VISUALSTYLE
  2
AcDbVisualStyle
  3
ObjectDBX Classes
 90
     4095
280
     0
281
     0
  0
CLASS
  1
MATERIAL
  2
AcDbMaterial
  3
ObjectDBX Classes
 90
     1153
280
     0
281
     0
  0
CLASS
  1
SCALE
  2
AcDbScale
  3
ObjectDBX Classes
 90
     1153
280
     0
281
     0
  0
CLASS
  1
TABLESTYLE
  2
AcDbTableStyle
  3
ObjectDBX Classes
 90
     4095
280
     0
281
     0
  0
CLASS
  1
MLEADERSTYLE
  2
AcDbMLeaderStyle
  3
ACDB_MLEADERSTYLE_CLASS
 90
     4095
280
     0
281
     0
  0
CLASS
  1
SUN
  2
AcDbSun
  3
SCENEOE
 90
     1153
280
     0
281
     0
  0
CLASS
  1
ACDBPLACEHOLDER
  2
AcDbPlaceHolder
  3
ObjectDBX Classes
 90
        0
280
     0
281
     0
  0
CLASS
  1
LAYOUT
  2
AcDbLayout
  3
ObjectDBX Classes
 90
        0
280
     0
281
     0
  0
ENDSEC
  0
SECTION
  2
TABLES
  0
TABLE
  2
VPORT
  5
8
330
0
100
AcDbSymbolTable
 70
     1
  0
VPORT
  5
29
330
8
100
AcDbSymbolTableRecord
100
AcDbViewportTableRecord
  2
*Active
 70
     0
 10
0.0
 20
0.0
 11
1.0
 21
1.0
 12
6.3252560163
 22
-2.8867800776
 13
0.0
 23
0.0
 14
0.5
 24
0.5
 15
0.5
 25
0.5
 16
0.0
 26
0.0
 36
1.0
 17
0.0
 27
0.0
 37
0.0
 40
33.1190673528
 41
0.0904627368
 42
50.0
 43
0.0
 44
0.0
 50
0.0
 51
0.0
 71
     0
 72
   100
 73
     1
 74
     3
 75
     0
 76
     0
 77
     0
 78
     0
281
     0
 65
     1
110
0.0
120
0.0
130
0.0
111
1.0
121
0.0
131
0.0
112
0.0
122
1.0
132
0.0
 79
     0
146
0.0
  0
ENDTAB
  0
TABLE
  2
LTYPE
  5
5
330
0
100
AcDbSymbolTable
 70
     6
  0
LTYPE
  5
14
330
5
100
AcDbSymbolTableRecord
100
AcDbLinetypeTableRecord
  2
ByBlock
 70
     0
  3

 72
    65
 73
     0
 40
0.0
  0
LTYPE
  5
15
330
5
100
AcDbSymbolTableRecord
100
AcDbLinetypeTableRecord
  2
ByLayer
 70
     0
  3

 72
    65
 73
     0
 40
0.0
  0
LTYPE
  5
16
330
5
100
AcDbSymbolTableRecord
100
AcDbLinetypeTableRecord
  2
Continuous
 70
     0
  3
Solid line
 72
    65
 73
     0
 40
0.0
  0
LTYPE
  5
5E
330
5
100
AcDbSymbolTableRecord
100
AcDbLinetypeTableRecord
  2
HIDDEN
 70
     0
  3
Hidden __ __ __ __ __ __ __ __ __ __ __ __ __ __
 72
    65
 73
     2
 40
0.075
 49
0.05
 74
     0
 49
-0.025
 74
     0
  0
LTYPE
  5
5F
330
5
100
AcDbSymbolTableRecord
100
AcDbLinetypeTableRecord
  2
PHANTOM
 70
     0
  3
Phantom ______  __  __  ______  __  __  ______
 72
    65
 73
     6
 40
0.5
 49
0.25
 74
     0
 49
-0.05
 74
     0
 49
0.05
 74
     0
 49
-0.05
 74
     0
 49
0.05
 74
     0
 49
-0.05
 74
     0
  0
LTYPE
  5
60
330
5
100
AcDbSymbolTableRecord
100
AcDbLinetypeTableRecord
  2
CENTER
 70
     0
  3
Center ____ _ ____ _ ____ _ ____ _ ____ _ ____
 72
    65
 73
     4
 40
0.4
 49
0.25
 74
     0
 49
-0.05
 74
     0
 49
0.05
 74
     0
 49
-0.05
 74
     0
  0
LTYPE
  5
61
330
5
100
AcDbSymbolTableRecord
100
AcDbLinetypeTableRecord
  2
CENTERX2
 70
     0
  3
Center (2x) ________  __  ________  __  _____
 72
    65
 73
     4
 40
0.8
 49
0.5
 74
     0
 49
-0.1
 74
     0
 49
0.1
 74
     0
 49
-0.1
 74
     0
  0
LTYPE
  5
62
330
5
100
AcDbSymbolTableRecord
100
AcDbLinetypeTableRecord
  2
DOT2
 70
     0
  3
Dot (.5x) ........................................
 72
    65
 73
     2
 40
0.025
 49
0.0
 74
     0
 49
-0.025
 74
     0
  0
ENDTAB
  0
TABLE
  2
LAYER
  5
2
330
0
100
AcDbSymbolTable
 70
     1
  0
LAYER
  5
10
330
2
100
AcDbSymbolTableRecord
100
AcDbLayerTableRecord
  2
0
 70
     0
 62
     7
  6
Continuous
370
    -3
390
F
  0
ENDTAB
  0
TABLE
  2
STYLE
  5
3
330
0
100
AcDbSymbolTable
 70
     2
  0
STYLE
  5
11
330
3
100
AcDbSymbolTableRecord
100
AcDbTextStyleTableRecord
  2
Standard
 70
     0
 40
0.0
 41
1.0
 50
0.0
 71
     0
 42
0.1377952756
  3
txt
  4

  0
STYLE
  5
69
330
3
100
AcDbSymbolTableRecord
100
AcDbTextStyleTableRecord
  2
SLDTEXTSTYLE0
 70
     0
 40
0.0
 41
0.7
 50
0.0
 71
     0
 42
0.1377952756
  3
TXT
  4

  0
ENDTAB
  0
TABLE
  2
VIEW
  5
6
330
0
100
AcDbSymbolTable
 70
     0
  0
ENDTAB
  0
TABLE
  2
UCS
  5
7
330
0
100
AcDbSymbolTable
 70
     0
  0
ENDTAB
  0
TABLE
  2
APPID
  5
9
330
0
100
AcDbSymbolTable
 70
     1
  0
APPID
  5
12
330
9
100
AcDbSymbolTableRecord
100
AcDbRegAppTableRecord
  2
ACAD
 70
     0
  0
ENDTAB
  0
TABLE
  2
DIMSTYLE
  5
A
330
0
100
AcDbSymbolTable
 70
     1
100
AcDbDimStyleTable
  0
DIMSTYLE
105
27
330
A
100
AcDbSymbolTableRecord
100
AcDbDimStyleTableRecord
  2
Standard
 70
     0
178
     0
340
11
  0
ENDTAB
  0
TABLE
  2
BLOCK_RECORD
  5
1
330
0
100
AcDbSymbolTable
 70
     1
  0
BLOCK_RECORD
  5
1F
330
1
100
AcDbSymbolTableRecord
100
AcDbBlockTableRecord
  2
*Model_Space
340
22
  0
BLOCK_RECORD
  5
1B
330
1
100
AcDbSymbolTableRecord
100
AcDbBlockTableRecord
  2
*Paper_Space
340
1E
  0
BLOCK_RECORD
  5
23
330
1
100
AcDbSymbolTableRecord
100
AcDbBlockTableRecord
  2
*Paper_Space0
340
26
  0
ENDTAB
  0
ENDSEC
  0
SECTION
  2
BLOCKS
  0
BLOCK
  5
20
330
1F
100
AcDbEntity
  8
0
100
AcDbBlockBegin
  2
*Model_Space
 70
     0
 10
0.0
 20
0.0
 30
0.0
  3
*Model_Space
  1

  0
ENDBLK
  5
21
330
1F
100
AcDbEntity
  8
0
100
AcDbBlockEnd
  0
BLOCK
  5
1C
330
1B
100
AcDbEntity
 67
     1
  8
0
100
AcDbBlockBegin
  2
*Paper_Space
 70
     0
 10
0.0
 20
0.0
 30
0.0
  3
*Paper_Space
  1

  0
ENDBLK
  5
1D
330
1B
100
AcDbEntity
 67
     1
  8
0
100
AcDbBlockEnd
  0
BLOCK
  5
24
330
23
100
AcDbEntity
  8
0
100
AcDbBlockBegin
  2
*Paper_Space0
 70
     0
 10
0.0
 20
0.0
 30
0.0
  3
*Paper_Space0
  1

  0
ENDBLK
  5
25
330
23
100
AcDbEntity
  8
0
100
AcDbBlockEnd
  0
ENDSEC
  0
SECTION
  2
ENTITIES
  0
SPLINE
  5
65
330
1F
100
AcDbEntity
  8
0
  6
Continuous
 62
     7
370
    25
100
AcDbSpline
210
0.0
220
0.0
230
1.0
 70
     8
 71
     3
 72
   121
 73
   117
 74
     0
 42
0.00000001
 43
0.00000001
 40
0.0
 40
0.0
 40
0.0
 40
0.0
 40
0.0026244798046583
 40
0.0052295410703451
 40
0.0078215043215121
 40
0.0104067861508903
 40
0.0129918529051001
 40
0.0155831725408509
 40
0.0181871664214165
 40
0.0208101628281849
 40
0.0234583538172013
 40
0.0261377567774133
 40
0.0288541816846343
 40
0.0316132046411252
 40
0.0344201478925668
 40
0.037280066161273
 40
0.040197738852827
 40
0.0431776674947392
 40
0.0462240776495352
 40
0.0493409245010963
 40
0.052531901327309
 40
0.055800450127504
 40
0.0591497737543865
 40
0.0625828489939375
 40
0.0677952349690292
 40
0.0730076158647604
 40
0.0782199926970007
 40
0.0834323664816192
 40
0.0886447382344904
 40
0.0938571089714867
 40
0.0990694797084836
 40
0.1042818514613541
 40
0.1094942252459731
 40
0.1147066020782132
 40
0.1199189829739445
 40
0.1251313689490361
 40
0.1405683099397766
 40
0.1552866095599628
 40
0.1693046097384537
 40
0.1826435415935682
 40
0.1953280465426476
 40
0.2073867785368368
 40
0.2188530838506141
 40
0.2297657410213705
 40
0.2401697212328464
 40
0.2501168972487678
 40
0.2781014610997669
 40
0.3075720165527562
 40
0.3395855222308644
 40
0.3749717983165771
 40
0.3862434274869933
 40
0.4004217362450691
 40
0.4175132476322111
 40
0.4375216356464358
 40
0.448420385475538
 40
0.4584256959240616
 40
0.4675413193171727
 40
0.4757722248480608
 40
0.483125175630669
 40
0.4896096823894132
 40
0.4952396587602895
 40
0.5000364601225256
 40
0.5064917263752525
 40
0.5127510791486952
 40
0.51890649814673
 40
0.5250546295775358
 40
0.5312924583896877
 40
0.5338318690532119
 40
0.5364929138047924
 40
0.5392798393081375
 40
0.5421963424012025
 40
0.5452456486767192
 40
0.5484305802570422
 40
0.5517536137386899
 40
0.5552169294633035
 40
0.5588224532859869
 40
0.5625718919376931
 40
0.5638613138730868
 40
0.5676993050298657
 40
0.5740858655489174
 40
0.583020995450574
 40
0.5945046947416299
 40
0.6085369634251785
 40
0.6251178015028853
 40
0.6354862176499311
 40
0.645534187434226
 40
0.655266618637547
 40
0.6646889121174885
 40
0.6738070198526738
 40
0.682627509627751
 40
0.6911576367093082
 40
0.6994054226629034
 40
0.7073797411415332
 40
0.7150904099980214
 40
0.7225482883949732
 40
0.7297653766656351
 40
0.7367549154903963
 40
0.7435314795026854
 40
0.7501110587898412
 40
0.7781478397706272
 40
0.8076604455695793
 40
0.8396677521098124
 40
0.8749733097532336
 40
0.8858684617091586
 40
0.8999216281018162
 40
0.9171386398758473
 40
0.9375226130519718
 40
0.9467578963708273
 40
0.9554092135775086
 40
0.9634795940693074
 40
0.9709727718728064
 40
0.9778934153651403
 40
0.9842474549890147
 40
0.990042560956661
 40
0.9952888555777601
 40
0.9999999999999999
 40
0.9999999999999999
 40
0.9999999999999999
 40
0.9999999999999999
 10
4.856608236113463
 20
-19.11408613861199
 30
0.0
 10
4.859403057558033
 20
-19.11487391721688
 30
0.0
 10
4.864972021549574
 20
-19.11644364564888
 30
0.0
 10
4.873433753780933
 20
-19.11827318974819
 30
0.0
 10
4.881925754342544
 20
-19.11970250000609
 30
0.0
 10
4.890458563921008
 20
-19.12069556760315
 30
0.0
 10
4.899029178777016
 20
-19.12126193217891
 30
0.0
 10
4.907638198179542
 20
-19.12139903663353
 30
0.0
 10
4.916285261769379
 20
-19.12110759944814
 30
0.0
 10
4.924970280362809
 20
-19.12038749725203
 30
0.0
 10
4.933693113387934
 20
-19.11923886569746
 30
0.0
 10
4.942453661849789
 20
-19.11766179541383
 30
0.0
 10
4.951251846704773
 20
-19.11565640617992
 30
0.0
 10
4.960087615693143
 20
-19.11322281843957
 30
0.0
 10
4.968960940625073
 20
-19.1103611538697
 30
0.0
 10
4.977871814130687
 20
-19.10707152728512
 30
0.0
 10
4.986820250934993
 20
-19.10335404977032
 30
0.0
 10
4.995806266115836
 20
-19.09920880187413
 30
0.0
 10
5.004829941240595
 20
-19.09463592587769
 30
0.0
 10
5.013891151561854
 20
-19.08963526446522
 30
0.0
 10
5.022990603781558
 20
-19.08420775547659
 30
0.0
 10
5.032125809132089
 20
-19.07835004075049
 30
0.0
 10
5.0413066546134
 20
-19.07207533247495
 30
0.0
 10
5.052004925957934
 20
-19.06422468555422
 30
0.0
 10
5.064240679956079
 20
-19.05499059612745
 30
0.0
 10
5.078098548921826
 20
-19.0446384432974
 30
0.0
 10
5.091948520277525
 20
-19.03427594748718
 30
0.0
 10
5.10580639389433
 20
-19.02392398552634
 30
0.0
 10
5.119667938549273
 20
-19.01357696660106
 30
0.0
 10
5.133534279279115
 20
-19.0032363771583
 30
0.0
 10
5.147405147156649
 20
-18.99290186221984
 30
0.0
 10
5.161280492854427
 20
-18.9825733552524
 30
0.0
 10
5.175160782609608
 20
-18.97225147736748
 30
0.0
 10
5.189044200799626
 20
-18.96193381065058
 30
0.0
 10
5.202937543684509
 20
-18.95162940565735
 30
0.0
 10
5.225889676390207
 20
-18.93455339697612
 30
0.0
 10
5.257633178878783
 20
-18.91167379758362
 30
0.0
 10
5.298270498379782
 20
-18.88452026457485
 30
0.0
 10
5.337894826821164
 20
-18.86008256921768
 30
0.0
 10
5.376525376672887
 20
-18.83838536591771
 30
0.0
 10
5.41415934211568
 20
-18.81942249623882
 30
0.0
 10
5.450799716787399
 20
-18.80319616311625
 30
0.0
 10
5.48644863865859
 20
-18.78970623571911
 30
0.0
 10
5.521107881684985
 20
-18.77895725022753
 30
0.0
 10
5.554782027189324
 20
-18.77094285596085
 30
0.0
 10
5.607614682570507
 20
-18.76246605551242
 30
0.0
 10
5.682806269920691
 20
-18.76186131100155
 30
0.0
 10
5.780453087793338
 20
-18.78123603758998
 30
0.0
 10
5.880661544265329
 20
-18.82043999187586
 30
0.0
 10
5.956597078684838
 20
-18.86351585397525
 30
0.0
 10
6.012338524985895
 20
-18.90122468486055
 30
0.0
 10
6.050603646761525
 20
-18.92862450301271
 30
0.0
 10
6.096217656057776
 20
-18.96234457673487
 30
0.0
 10
6.138423749488344
 20
-18.99455952931859
 30
0.0
 10
6.174483509311329
 20
-19.02190837712894
 30
0.0
 10
6.201355004072044
 20
-19.04142280451942
 30
0.0
 10
6.226190343815408
 20
-19.05870820770763
 30
0.0
 10
6.249010518187402
 20
-19.07373920840852
 30
0.0
 10
6.269810354223172
 20
-19.08652777466659
 30
0.0
 10
6.288596169258394
 20
-19.09706860411452
 30
0.0
 10
6.305361016972617
 20
-19.10539520971752
 30
0.0
 10
6.32266519518397
 20
-19.11247021510504
 30
0.0
 10
6.341321712311471
 20
-19.11786064518289
 30
0.0
 10
6.361953690664301
 20
-19.12132972678636
 30
0.0
 10
6.382526906718407
 20
-19.12217079083971
 30
0.0
 10
6.403014446001021
 20
-19.12040764788025
 30
0.0
 10
6.419201558313642
 20
-19.11693308709117
 30
0.0
 10
6.43131431805859
 20
-19.11326682183858
 30
0.0
 10
6.439659885152595
 20
-19.11035767942471
 30
0.0
 10
6.448276398302026
 20
-19.10698083747512
 30
0.0
 10
6.457164772834689
 20
-19.10313699466752
 30
0.0
 10
6.466324683627854
 20
-19.09882552159663
 30
0.0
 10
6.475757562469677
 20
-19.09404824630721
 30
0.0
 10
6.485458568400118
 20
-19.08879791954356
 30
0.0
 10
6.495447423614458
 20
-19.08310311194822
 30
0.0
 10
6.505646340734964
 20
-19.07685029048542
 30
0.0
 10
6.513881606748723
 20
-19.07196218623745
 30
0.0
 10
6.52177941956834
 20
-19.06612183627519
 30
0.0
 10
6.532118872969392
 20
-19.05868693995323
 30
0.0
 10
6.549258552617809
 20
-19.04621858106521
 30
0.0
 10
6.573268428092125
 20
-19.02881967214225
 30
0.0
 10
6.604109643831161
 20
-19.00643353469292
 30
0.0
 10
6.641821791671743
 20
-18.9791157909019
 30
0.0
 10
6.678445376196472
 20
-18.95239926478785
 30
0.0
 10
6.711749061096692
 20
-18.92860955173523
 30
0.0
 10
6.739358551275832
 20
-18.90989673653674
 30
0.0
 10
6.766492033405212
 20
-18.89236213755837
 30
0.0
 10
6.793170518035826
 20
-18.87603456676367
 30
0.0
 10
6.819388838604375
 20
-18.86090663378607
 30
0.0
 10
6.845148542083789
 20
-18.84698020919544
 30
0.0
 10
6.870449495025473
 20
-18.83425482821158
 30
0.0
 10
6.895292026857254
 20
-18.82273065501445
 30
0.0
 10
6.919676379165125
 20
-18.81240775266384
 30
0.0
 10
6.943602854357963
 20
-18.80328623565209
 30
0.0
 10
6.967071726559303
 20
-18.79536641750975
 30
0.0
 10
6.990083403501748
 20
-18.78864818638661
 30
0.0
 10
7.012637819379991
 20
-18.7831333289511
 30
0.0
 10
7.034736497463592
 20
-18.77881730544492
 30
0.0
 10
7.080073339606188
 20
-18.77232498176021
 30
0.0
 10
7.151597743312143
 20
-18.77178572738103
 30
0.0
 10
7.249386281225594
 20
-18.79082389007964
 30
0.0
 10
7.349789307265718
 20
-18.82934277395722
 30
0.0
 10
7.425663380423067
 20
-18.87147188081431
 30
0.0
 10
7.481199422550906
 20
-18.9083304016758
 30
0.0
 10
7.519382135092914
 20
-18.93512626391808
 30
0.0
 10
7.565699655072405
 20
-18.96858787972192
 30
0.0
 10
7.607257843600917
 20
-18.99952608932452
 30
0.0
 10
7.641314063494261
 20
-19.02467471239483
 30
0.0
 10
7.664762111723054
 20
-19.04125053213697
 30
0.0
 10
7.68692639717207
 20
-19.05629483956303
 30
0.0
 10
7.707824901584442
 20
-19.06978506595433
 30
0.0
 10
7.727454882441873
 20
-19.08172445673797
 30
0.0
 10
7.745813822702053
 20
-19.09212437330913
 30
0.0
 10
7.762916246582128
 20
-19.10094885405065
 30
0.0
 10
7.778719867310929
 20
-19.10832209055598
 30
0.0
 10
7.789027137206801
 20
-19.11221533602173
 30
0.0
 10
7.793903796442887
 20
-19.11405733993263
 30
0.0
  0
SPLINE
  5
66
330
1F
100
AcDbEntity
  8
0
  6
Continuous
 62
     7
370
    25
100
AcDbSpline
210
0.0
220
0.0
230
1.0
 70
     8
 71
     3
 72
   125
 73
   121
 74
     0
 42
0.00000001
 43
0.00000001
 40
0.0
 40
0.0
 40
0.0
 40
0.0
 40
0.0021213223793889
 40
0.0042617400535051
 40
0.006427723437728
 40
0.0086255171588211
 40
0.0108610992930564
 40
0.0131401505728735
 40
0.0154680335192105
 40
0.0178497808413134
 40
0.0202900920139976
 40
0.0227933366986827
 40
0.0253635635956639
 40
0.0280045133625496
 40
0.0307196343652218
 40
0.0335121002049004
 40
0.0363848281577506
 40
0.039340497850914
 40
0.0423815696681805
 40
0.0455103025233709
 40
0.0487287707582941
 40
0.0520388800160012
 40
0.055442382011799
 40
0.0589408881775098
 40
0.0625358821922945
 40
0.0682231533894738
 40
0.0739094379497648
 40
0.0795949550074365
 40
0.0852799237855127
 40
0.0909645635704491
 40
0.0966490936867746
 40
0.1023337334717106
 40
0.1080187022497868
 40
0.1137042193074593
 40
0.1193905038677495
 40
0.1250777750649297
 40
0.1399379928694245
 40
0.1541555162349026
 40
0.1677646759498463
 40
0.1808046086833307
 40
0.1933197923930788
 40
0.2053605216455673
 40
0.2169832519023838
 40
0.2282507235070402
 40
0.2392317678175225
 40
0.250000709826087
 40
0.264769387650499
 40
0.2800178622596264
 40
0.29589113600989
 40
0.3125178725994323
 40
0.3231909936757854
 40
0.3337477854076704
 40
0.344201702889369
 40
0.3545666018585741
 40
0.364856697652751
 40
0.3750865174531567
 40
0.3820347626623153
 40
0.3889829140295016
 40
0.3959309983659322
 40
0.4028790424835982
 40
0.4098270731949572
 40
0.4167751173126235
 40
0.4237232016490535
 40
0.4306713530162392
 40
0.4376195982253984
 40
0.4480055341192331
 40
0.4576125368947713
 40
0.466454674919465
 40
0.4745500051750162
 40
0.4819220743299623
 40
0.4886020818063307
 40
0.4946319790462126
 40
0.5000687874981352
 40
0.5073906775218328
 40
0.5150734948315435
 40
0.5232448130039488
 40
0.5320109039286416
 40
0.5414579886689342
 40
0.5516550284671112
 40
0.5626568911169504
 40
0.5683419197626434
 40
0.574026841159673
 40
0.5797116791396764
 40
0.5853964575353406
 40
0.5910812001801021
 40
0.596765930907845
 40
0.6024506735526057
 40
0.6081354519482699
 40
0.6138202899282739
 40
0.6195052113253031
 40
0.6251902399709961
 40
0.642315339130466
 40
0.6585540156247862
 40
0.6739308512361303
 40
0.6884747983831386
 40
0.7022200735668964
 40
0.7152072074772348
 40
0.7274842417525983
 40
0.7391080259925704
 40
0.7501455082952506
 40
0.7725746048065919
 40
0.7956982936701532
 40
0.8201396515015562
 40
0.8464282294065475
 40
0.874991020823549
 40
0.8824987501037957
 40
0.892503001576404
 40
0.9050067868205981
 40
0.9200116124664605
 40
0.9375183394368716
 40
0.9480348980494148
 40
0.9569669384493523
 40
0.9643184007653728
 40
0.9701994898991049
 40
0.975794882253037
 40
0.9811170445555274
 40
0.9861804621106698
 40
0.9910019528433628
 40
0.9956009895052336
 40
1.0
 40
1.0
 40
1.0
 40
1.0
 10
7.793903796442882
 20
13.34668711681514
 30
0.0
 10
7.791569476880944
 20
13.3470039274255
 30
0.0
 10
7.786879825146987
 20
13.3476404004485
 30
0.0
 10
7.779752850310318
 20
13.34809816347827
 30
0.0
 10
7.77252991343695
 20
13.34819753183806
 30
0.0
 10
7.765205572074708
 20
13.34790187461286
 30
0.0
 10
7.757781464956954
 20
13.34722137952932
 30
0.0
 10
7.750257247406714
 20
13.34615345065642
 30
0.0
 10
7.742633073334146
 20
13.344699001228
 30
0.0
 10
7.734908918852813
 20
13.34285796939191
 30
0.0
 10
7.727084775594956
 20
13.34063054645207
 30
0.0
 10
7.719160604884718
 20
13.33801683289577
 30
0.0
 10
7.711136357833928
 20
13.33501693161657
 30
0.0
 10
7.703011976362414
 20
13.33163092188828
 30
0.0
 10
7.694787398520883
 20
13.32785886773193
 30
0.0
 10
7.686462561125619
 20
13.32370081794595
 30
0.0
 10
7.678037403278537
 20
13.31915680740738
 30
0.0
 10
7.669511863783903
 20
13.31422686394272
 30
0.0
 10
7.66088589844968
 20
13.30891099098521
 30
0.0
 10
7.652159417233181
 20
13.30320924472139
 30
0.0
 10
7.643332531377847
 20
13.29712144209105
 30
0.0
 10
7.634404591895655
 20
13.29064830516387
 30
0.0
 10
7.625377931911488
 20
13.28378701293407
 30
0.0
 10
7.616243304300092
 20
13.27654851426843
 30
0.0
 10
7.605334158878852
 20
13.26747415756425
 30
0.0
 10
7.592624775006606
 20
13.25676749760623
 30
0.0
 10
7.578019771348653
 20
13.24470952333926
 30
0.0
 10
7.563354261952507
 20
13.23272964994
 30
0.0
 10
7.548612815455226
 20
13.22084609834853
 30
0.0
 10
7.533799575469931
 20
13.20905397466048
 30
0.0
 10
7.518913396598112
 20
13.19735463706399
 30
0.0
 10
7.50395471771319
 20
13.18574754644155
 30
0.0
 10
7.488922929008802
 20
13.1742335015238
 30
0.0
 10
7.473820031486821
 20
13.16280984648635
 30
0.0
 10
7.45863863007324
 20
13.15148640789966
 30
0.0
 10
7.435218137076877
 20
13.13417374846321
 30
0.0
 10
7.403626896369144
 20
13.1119771884955
 30
0.0
 10
7.363549826613479
 20
13.08664660876137
 30
0.0
 10
7.323999178441576
 20
13.0643723762418
 30
0.0
 10
7.28495612049048
 20
13.04518007642449
 30
0.0
 10
7.246422947322986
 20
13.02906557547407
 30
0.0
 10
7.20839698564729
 20
13.01603369159129
 30
0.0
 10
7.170877496594085
 20
13.00608644839354
 30
0.0
 10
7.133864784635518
 20
12.99923325745788
 30
0.0
 10
7.097359810415238
 20
12.99546155318085
 30
0.0
 10
7.056775498780338
 20
12.99475887303418
 30
0.0
 10
7.011551987879093
 20
12.99840939313382
 30
0.0
 10
6.961358159140826
 20
13.00757707678512
 30
0.0
 10
6.91025876377301
 20
13.02196376549707
 30
0.0
 10
6.865398244616597
 20
13.03899368957759
 30
0.0
 10
6.826982214779319
 20
13.05605746902966
 30
0.0
 10
6.795317151753961
 20
13.07139224420893
 30
0.0
 10
6.764536341892199
 20
13.08771645838119
 30
0.0
 10
6.734636085454301
 20
13.10501640369265
 30
0.0
 10
6.705589724988013
 20
13.12325591359724
 30
0.0
 10
6.680467419105087
 20
13.14055387271985
 30
0.0
 10
6.658686340192753
 20
13.15614250948476
 30
0.0
 10
6.63978132919412
 20
13.16948968861718
 30
0.0
 10
6.62086647545294
 20
13.18282211376323
 30
0.0
 10
6.601921200676721
 20
13.19611117268621
 30
0.0
 10
6.582951242833091
 20
13.2093648535566
 30
0.0
 10
6.563954228099794
 20
13.22257981557892
 30
0.0
 10
6.544933913862875
 20
13.23576143384494
 30
0.0
 10
6.525877644251766
 20
13.24889154855889
 30
0.0
 10
6.503691461128186
 20
13.26420534946388
 30
0.0
 10
6.478812243646138
 20
13.28081651274397
 30
0.0
 10
6.451528144653988
 20
13.29757781120593
 30
0.0
 10
6.42580809154984
 20
13.31198287911464
 30
0.0
 10
6.401633204029851
 20
13.32400956001996
 30
0.0
 10
6.379002951671354
 20
13.33366838923572
 30
0.0
 10
6.357907793541115
 20
13.3409500442007
 30
0.0
 10
6.338341308098445
 20
13.34588413635444
 30
0.0
 10
6.317628296043174
 20
13.34872975115609
 30
0.0
 10
6.294845294132267
 20
13.34856109234169
 30
0.0
 10
6.269302574672653
 20
13.344961904492
 30
0.0
 10
6.242847842920895
 20
13.3378464277162
 30
0.0
 10
6.215479638500937
 20
13.32727434191078
 30
0.0
 10
6.187194032495487
 20
13.31323583074118
 30
0.0
 10
6.157946941109686
 20
13.29578757138678
 30
0.0
 10
6.133483019915961
 20
13.27865866474561
 30
0.0
 10
6.113527708207332
 20
13.26387284633434
 30
0.0
 10
6.098229988011012
 20
13.25271476842136
 30
0.0
 10
6.08292630929711
 20
13.24156609846348
 30
0.0
 10
6.067595538056868
 20
13.23045482756025
 30
0.0
 10
6.052243345348016
 20
13.21937344400352
 30
0.0
 10
6.036868180552375
 20
13.20832400406082
 30
0.0
 10
6.02147057516432
 20
13.19730579427491
 30
0.0
 10
6.00604995381491
 20
13.18631961223021
 30
0.0
 10
5.990608086513929
 20
13.17536298101689
 30
0.0
 10
5.975138468473246
 20
13.16444501086528
 30
0.0
 10
5.949286551122775
 20
13.14621151473863
 30
0.0
 10
5.913429718653377
 20
13.12182976238269
 30
0.0
 10
5.867533242134035
 20
13.09313870469041
 30
0.0
 10
5.823002411539927
 20
13.06774571245455
 30
0.0
 10
5.779817881260695
 20
13.0456757076328
 30
0.0
 10
5.737981059719441
 20
13.02692289286707
 30
0.0
 10
5.697487281829638
 20
13.01148936098193
 30
0.0
 10
5.658333605432725
 20
12.99937870290608
 30
0.0
 10
5.620513640869325
 20
12.99058917522884
 30
0.0
 10
5.570952573981081
 20
12.98319586974112
 30
0.0
 10
5.507770399811095
 20
12.98233878314688
 30
0.0
 10
5.430703966729046
 20
12.9946922663052
 30
0.0
 10
5.352483987999997
 20
13.02028556205635
 30
0.0
 10
5.273208927156151
 20
13.05905551500486
 30
0.0
 10
5.214692103327263
 20
13.09635263309268
 30
0.0
 10
5.173579612926537
 20
13.12679255260972
 30
0.0
 10
5.147274185149898
 20
13.14725382795253
 30
0.0
 10
5.114697003222012
 20
13.1731999722258
 30
0.0
 10
5.075863611838044
 20
13.2046594510256
 30
0.0
 10
5.039000578013002
 20
13.23504140882349
 30
0.0
 10
5.007247309214204
 20
13.26102477872298
 30
0.0
 10
4.983853582150815
 20
13.27941256216473
 30
0.0
 10
4.964173948460867
 20
13.29419215392134
 30
0.0
 10
4.946963789223111
 20
13.30606674478157
 30
0.0
 10
4.931138726273576
 20
13.3159489058712
 30
0.0
 10
4.915638282126473
 20
13.32459667143648
 30
0.0
 10
4.900460103091377
 20
13.33201422794964
 30
0.0
 10
4.885596620010078
 20
13.33816873303729
 30
0.0
 10
4.871072120230312
 20
13.34317497334398
 30
0.0
 10
4.861357545975427
 20
13.3455234043614
 30
0.0
 10
4.856608236113464
 20
13.3466715171143
 30
0.0
  0
LINE
  5
67
330
1F
100
AcDbEntity
  8
0
  6
Continuous
 62
     7
370
    25
100
AcDbLine
 10
4.8566082361
 20
13.3466715171
 30
0.0
 11
4.8566082361
 21
-19.1140861386
 31
0.0
  0
LINE
  5
68
330
1F
100
AcDbEntity
  8
0
  6
Continuous
 62
     7
370
    25
100
AcDbLine
 10
7.7939037964
 20
-19.1140573399
 30
0.0
 11
7.7939037964
 21
13.3466871168
 31
0.0
  0
MTEXT
  5
6A
330
1F
100
AcDbEntity
  8
0
  6
Continuous
 62
     7
100
AcDbMText
 10
4.8566082361
 20
-19.1617574243
 30
0.0
 40
0.1903
 41
0.0
 71
     1
 72
     1
  1
SOLIDWORKS Educational Product.
  7
SLDTEXTSTYLE0
 73
     1
 44
1.0
  0
MTEXT
  5
6B
330
1F
100
AcDbEntity
  8
0
  6
Continuous
 62
     7
100
AcDbMText
 10
4.8566082361
 20
-19.4472074243
 30
0.0
 40
0.1903
 41
0.0
 71
     1
 72
     1
  1
For Instructional Use Only.
  7
SLDTEXTSTYLE0
 73
     1
 44
1.0
  0
ENDSEC
  0
SECTION
  2
OBJECTS
  0
DICTIONARY
  5
C
330
0
100
AcDbDictionary
281
     1
  3
ACAD_GROUP
350
D
  3
ACAD_LAYOUT
350
1A
  3
ACAD_MLINESTYLE
350
17
  3
ACAD_PLOTSETTINGS
350
19
  3
ACAD_PLOTSTYLENAME
350
E
  3
ACAD_SCALELIST
350
47
  3
DWGPROPS
350
6C
  0
DICTIONARY
  5
D
102
{ACAD_REACTORS
330
C
102
}
330
C
100
AcDbDictionary
281
     1
  0
DICTIONARY
  5
1A
102
{ACAD_REACTORS
330
C
102
}
330
C
100
AcDbDictionary
281
     1
  3
Layout1
350
1E
  3
Layout2
350
26
  3
Model
350
22
  0
DICTIONARY
  5
17
102
{ACAD_REACTORS
330
C
102
}
330
C
100
AcDbDictionary
281
     1
  3
Standard
350
18
  0
DICTIONARY
  5
19
102
{ACAD_REACTORS
330
C
102
}
330
C
100
AcDbDictionary
281
     1
  0
ACDBDICTIONARYWDFLT
  5
E
102
{ACAD_REACTORS
330
C
102
}
330
C
100
AcDbDictionary
281
     1
  3
Normal
350
F
100
AcDbDictionaryWithDefault
340
F
  0
DICTIONARY
  5
47
102
{ACAD_REACTORS
330
C
102
}
330
C
100
AcDbDictionary
281
     1
  3
A0
350
48
  3
A1
350
49
  3
A2
350
4A
  3
A3
350
4B
  3
A4
350
4C
  3
A5
350
4D
  3
A6
350
4E
  3
A7
350
4F
  3
A8
350
50
  3
A9
350
51
  3
B1
350
52
  3
B2
350
53
  3
B3
350
54
  3
B4
350
55
  3
B5
350
56
  3
B6
350
57
  3
B7
350
58
  0
XRECORD
  5
6C
102
{ACAD_REACTORS
330
C
102
}
330
C
100
AcDbXrecord
280
     1
  1
DWGPROPS COOKIE
  2

  3

  4

  6

  7

  8
manny
  9

300
=
301
=
302
=
303
=
304
=
305
=
306
=
307
=
308
=
309
=
 40
0.0
 41
2460633.181013554
 42
2460633.181059838
  1

 90
        0
  0
LAYOUT
  5
1E
102
{ACAD_REACTORS
330
1A
102
}
330
1A
100
AcDbPlotSettings
  1

  2
none_device
  4

  6

 40
0.0
 41
0.0
 42
0.0
 43
0.0
 44
0.0
 45
0.0
 46
0.0
 47
0.0
 48
0.0
 49
0.0
140
0.0
141
0.0
142
1.0
143
1.0
 70
   688
 72
     0
 73
     0
 74
     5
  7

 75
    16
147
1.0
148
0.0
149
0.0
100
AcDbLayout
  1
Layout1
 70
     1
 71
     1
 10
0.0
 20
0.0
 11
12.0
 21
9.0
 12
0.0
 22
0.0
 32
0.0
 14
1.0000000000E+20
 24
1.0000000000E+20
 34
1.0000000000E+20
 15
-1.0000000000E+20
 25
-1.0000000000E+20
 35
-1.0000000000E+20
146
0.0
 13
0.0
 23
0.0
 33
0.0
 16
1.0
 26
0.0
 36
0.0
 17
0.0
 27
1.0
 37
0.0
 76
     0
330
1B
  0
LAYOUT
  5
26
102
{ACAD_REACTORS
330
1A
102
}
330
1A
100
AcDbPlotSettings
  1

  2
none_device
  4

  6

 40
0.0
 41
0.0
 42
0.0
 43
0.0
 44
0.0
 45
0.0
 46
0.0
 47
0.0
 48
0.0
 49
0.0
140
0.0
141
0.0
142
1.0
143
1.0
 70
   688
 72
     0
 73
     0
 74
     5
  7

 75
    16
147
1.0
148
0.0
149
0.0
100
AcDbLayout
  1
Layout2
 70
     1
 71
     2
 10
0.0
 20
0.0
 11
0.0
 21
0.0
 12
0.0
 22
0.0
 32
0.0
 14
0.0
 24
0.0
 34
0.0
 15
0.0
 25
0.0
 35
0.0
146
0.0
 13
0.0
 23
0.0
 33
0.0
 16
1.0
 26
0.0
 36
0.0
 17
0.0
 27
1.0
 37
0.0
 76
     0
330
23
  0
LAYOUT
  5
22
102
{ACAD_REACTORS
330
1A
102
}
330
1A
100
AcDbPlotSettings
  1

  2
none_device
  4
ANSI_A_(11.00_x_8.50_Inches)
  6

 40
6.35
 41
19.05
 42
6.35000508
 43
19.05000254
 44
279.4
 45
215.9
 46
91.7121740753
 47
107.9030618013
 48
0.0
 49
0.0
140
0.0
141
0.0
142
0.2591649067
143
1.0
 70
  1696
 72
     0
 73
     0
 74
     0
  7

 75
     0
147
0.5913241897
148
-39.4088153714
149
0.0
100
AcDbLayout
  1
Model
 70
     1
 71
     0
 10
0.0
 20
0.0
 11
12.0
 21
9.0
 12
0.0
 22
0.0
 32
0.0
 14
4.8566082361
 24
-19.1216170152
 34
0.0
 15
7.7939037964
 25
13.3480568601
 35
0.0
146
0.0
 13
0.0
 23
0.0
 33
0.0
 16
1.0
 26
0.0
 36
0.0
 17
0.0
 27
1.0
 37
0.0
 76
     0
330
1F
331
29
  0
MLINESTYLE
  5
18
102
{ACAD_REACTORS
330
17
102
}
330
17
100
AcDbMlineStyle
  2
Standard
 70
     0
  3

 62
   256
 51
90.0
 52
90.0
 71
     2
 49
0.5
 62
   256
  6
BYLAYER
 49
-0.5
 62
   256
  6
BYLAYER
  0
ACDBPLACEHOLDER
  5
F
102
{ACAD_REACTORS
330
E
102
}
330
E
  0
SCALE
  5
48
102
{ACAD_REACTORS
330
47
102
}
330
47
100
AcDbScale
 70
     0
300
1:1
140
1.0
141
1.0
290
     1
  0
SCALE
  5
49
102
{ACAD_REACTORS
330
47
102
}
330
47
100
AcDbScale
 70
     0
300
1/128" = 1'-0"
140
0.0078125
141
12.0
290
     0
  0
SCALE
  5
4A
102
{ACAD_REACTORS
330
47
102
}
330
47
100
AcDbScale
 70
     0
300
1/64" = 1'-0"
140
0.015625
141
12.0
290
     0
  0
SCALE
  5
4B
102
{ACAD_REACTORS
330
47
102
}
330
47
100
AcDbScale
 70
     0
300
1/32" = 1'-0"
140
0.03125
141
12.0
290
     0
  0
SCALE
  5
4C
102
{ACAD_REACTORS
330
47
102
}
330
47
100
AcDbScale
 70
     0
300
1/16" = 1'-0"
140
0.0625
141
12.0
290
     0
  0
SCALE
  5
4D
102
{ACAD_REACTORS
330
47
102
}
330
47
100
AcDbScale
 70
     0
300
3/32" = 1'-0"
140
0.09375
141
12.0
290
     0
  0
SCALE
  5
4E
102
{ACAD_REACTORS
330
47
102
}
330
47
100
AcDbScale
 70
     0
300
1/8" = 1'-0"
140
0.125
141
12.0
290
     0
  0
SCALE
  5
4F
102
{ACAD_REACTORS
330
47
102
}
330
47
100
AcDbScale
 70
     0
300
3/16" = 1'-0"
140
0.1875
141
12.0
290
     0
  0
SCALE
  5
50
102
{ACAD_REACTORS
330
47
102
}
330
47
100
AcDbScale
 70
     0
300
1/4" = 1'-0"
140
0.25
141
12.0
290
     0
  0
SCALE
  5
51
102
{ACAD_REACTORS
330
47
102
}
330
47
100
AcDbScale
 70
     0
300
3/8" = 1'-0"
140
0.375
141
12.0
290
     0
  0
SCALE
  5
52
102
{ACAD_REACTORS
330
47
102
}
330
47
100
AcDbScale
 70
     0
300
1/2" = 1'-0"
140
0.5
141
12.0
290
     0
  0
SCALE
  5
53
102
{ACAD_REACTORS
330
47
102
}
330
47
100
AcDbScale
 70
     0
300
3/4" = 1'-0"
140
0.75
141
12.0
290
     0
  0
SCALE
  5
54
102
{ACAD_REACTORS
330
47
102
}
330
47
100
AcDbScale
 70
     0
300
1" = 1'-0"
140
1.0
141
12.0
290
     0
  0
SCALE
  5
55
102
{ACAD_REACTORS
330
47
102
}
330
47
100
AcDbScale
 70
     0
300
1-1/2" = 1'-0"
140
1.5
141
12.0
290
     0
  0
SCALE
  5
56
102
{ACAD_REACTORS
330
47
102
}
330
47
100
AcDbScale
 70
     0
300
3" = 1'-0"
140
3.0
141
12.0
290
     0
  0
SCALE
  5
57
102
{ACAD_REACTORS
330
47
102
}
330
47
100
AcDbScale
 70
     0
300
6" = 1'-0"
140
6.0
141
12.0
290
     0
  0
SCALE
  5
58
102
{ACAD_REACTORS
330
47
102
}
330
47
100
AcDbScale
 70
     0
300
1'-0" = 1'-0"
140
12.0
141
12.0
290
     0
  0
ENDSEC
  0
EOF
