  0
SECTION
  2
HEADER
  9
$ACADVER
  1
AC1015
  9
$ACADMAINTVER
 70
     6
  9
$DWGCODEPAGE
  3
ANSI_1252
  9
$INSBASE
 10
0.0
 20
0.0
 30
0.0
  9
$EXTMIN
 10
-4.6616651482
 20
4.6764134629
 30
0.0
  9
$EXTMAX
 10
-1.7243695614
 20
11.5736365342
 30
0.0
  9
$LIMMIN
 10
0.0
 20
0.0
  9
$LIMMAX
 10
12.0
 20
9.0
  9
$ORTHOMODE
 70
     0
  9
$REGENMODE
 70
     1
  9
$FILLMODE
 70
     1
  9
$QTEXTMODE
 70
     0
  9
$MIRRTEXT
 70
     1
  9
$LTSCALE
 40
1.0
  9
$ATTMODE
 70
     1
  9
$TEXTSIZE
 40
0.1377952756
  9
$TRACEWID
 40
0.05
  9
$TEXTSTYLE
  7
Standard
  9
$CLAYER
  8
0
  9
$CELTYPE
  6
ByLayer
  9
$CECOLOR
 62
   256
  9
$CELTSCALE
 40
1.0
  9
$DISPSILH
 70
     0
  9
$DIMSCALE
 40
1.0
  9
$DIMASZ
 40
0.13
  9
$DIMEXO
 40
0.0
  9
$DIMDLI
 40
0.38
  9
$DIMRND
 40
0.0
  9
$DIMDLE
 40
0.0
  9
$DIMEXE
 40
0.0393700787
  9
$DIMTP
 40
0.0
  9
$DIMTM
 40
0.0
  9
$DIMTXT
 40
0.1377952756
  9
$DIMCEN
 40
0.09
  9
$DIMTSZ
 40
0.0
  9
$DIMTOL
 70
     0
  9
$DIMLIM
 70
     0
  9
$DIMTIH
 70
     1
  9
$DIMTOH
 70
     1
  9
$DIMSE1
 70
     0
  9
$DIMSE2
 70
     0
  9
$DIMTAD
 70
     1
  9
$DIMZIN
 70
     1
  9
$DIMBLK
  1

  9
$DIMASO
 70
     1
  9
$DIMSHO
 70
     1
  9
$DIMPOST
  1

  9
$DIMAPOST
  1

  9
$DIMALT
 70
     0
  9
$DIMALTD
 70
     2
  9
$DIMALTF
 40
25.4
  9
$DIMLFAC
 40
1.0
  9
$DIMTOFL
 70
     0
  9
$DIMTVP
 40
0.0
  9
$DIMTIX
 70
     0
  9
$DIMSOXD
 70
     0
  9
$DIMSAH
 70
     0
  9
$DIMBLK1
  1

  9
$DIMBLK2
  1

  9
$DIMSTYLE
  2
Standard
  9
$DIMCLRD
 70
     0
  9
$DIMCLRE
 70
     0
  9
$DIMCLRT
 70
     0
  9
$DIMTFAC
 40
1.0
  9
$DIMGAP
 40
0.06
  9
$DIMJUST
 70
     0
  9
$DIMSD1
 70
     0
  9
$DIMSD2
 70
     0
  9
$DIMTOLJ
 70
     1
  9
$DIMTZIN
 70
     1
  9
$DIMALTZ
 70
     0
  9
$DIMALTTZ
 70
     0
  9
$DIMUPT
 70
     0
  9
$DIMDEC
 70
     2
  9
$DIMTDEC
 70
     2
  9
$DIMALTU
 70
     2
  9
$DIMALTTD
 70
     2
  9
$DIMTXSTY
  7
Standard
  9
$DIMAUNIT
 70
     0
  9
$DIMADEC
 70
     2
  9
$DIMALTRND
 40
0.0
  9
$DIMAZIN
 70
     0
  9
$DIMDSEP
 70
    46
  9
$DIMATFIT
 70
     3
  9
$DIMFRAC
 70
     0
  9
$DIMLDRBLK
  1

  9
$DIMLUNIT
 70
     2
  9
$DIMLWD
 70
    -2
  9
$DIMLWE
 70
    -2
  9
$DIMTMOVE
 70
     0
  9
$LUNITS
 70
     2
  9
$LUPREC
 70
     2
  9
$SKETCHINC
 40
0.1
  9
$FILLETRAD
 40
0.0
  9
$AUNITS
 70
     0
  9
$AUPREC
 70
     2
  9
$MENU
  1
.
  9
$ELEVATION
 40
0.0
  9
$PELEVATION
 40
0.0
  9
$THICKNESS
 40
0.0
  9
$LIMCHECK
 70
     0
  9
$CHAMFERA
 40
0.0
  9
$CHAMFERB
 40
0.0
  9
$CHAMFERC
 40
0.0
  9
$CHAMFERD
 40
0.0
  9
$SKPOLY
 70
     0
  9
$TDCREATE
 40
2460632.851067639
  9
$TDUCREATE
 40
2460633.184400973
  9
$TDUPDATE
 40
2460632.851101343
  9
$TDUUPDATE
 40
2460633.184434676
  9
$TDINDWG
 40
0.0000000116
  9
$TDUSRTIMER
 40
0.0000000116
  9
$USRTIMER
 70
     1
  9
$ANGBASE
 50
0.0
  9
$ANGDIR
 70
     0
  9
$PDMODE
 70
     0
  9
$PDSIZE
 40
-1.0
  9
$PLINEWID
 40
0.0
  9
$SPLFRAME
 70
     0
  9
$SPLINETYPE
 70
     6
  9
$SPLINESEGS
 70
     8
  9
$HANDSEED
  5
6D
  9
$SURFTAB1
 70
     6
  9
$SURFTAB2
 70
     6
  9
$SURFTYPE
 70
     6
  9
$SURFU
 70
     6
  9
$SURFV
 70
     6
  9
$UCSBASE
  2

  9
$UCSNAME
  2

  9
$UCSORG
 10
0.0
 20
0.0
 30
0.0
  9
$UCSXDIR
 10
1.0
 20
0.0
 30
0.0
  9
$UCSYDIR
 10
0.0
 20
1.0
 30
0.0
  9
$UCSORTHOREF
  2

  9
$UCSORTHOVIEW
 70
     0
  9
$UCSORGTOP
 10
0.0
 20
0.0
 30
0.0
  9
$UCSORGBOTTOM
 10
0.0
 20
0.0
 30
0.0
  9
$UCSORGLEFT
 10
0.0
 20
0.0
 30
0.0
  9
$UCSORGRIGHT
 10
0.0
 20
0.0
 30
0.0
  9
$UCSORGFRONT
 10
0.0
 20
0.0
 30
0.0
  9
$UCSORGBACK
 10
0.0
 20
0.0
 30
0.0
  9
$PUCSBASE
  2

  9
$PUCSNAME
  2

  9
$PUCSORG
 10
0.0
 20
0.0
 30
0.0
  9
$PUCSXDIR
 10
1.0
 20
0.0
 30
0.0
  9
$PUCSYDIR
 10
0.0
 20
1.0
 30
0.0
  9
$PUCSORTHOREF
  2

  9
$PUCSORTHOVIEW
 70
     0
  9
$PUCSORGTOP
 10
0.0
 20
0.0
 30
0.0
  9
$PUCSORGBOTTOM
 10
0.0
 20
0.0
 30
0.0
  9
$PUCSORGLEFT
 10
0.0
 20
0.0
 30
0.0
  9
$PUCSORGRIGHT
 10
0.0
 20
0.0
 30
0.0
  9
$PUCSORGFRONT
 10
0.0
 20
0.0
 30
0.0
  9
$PUCSORGBACK
 10
0.0
 20
0.0
 30
0.0
  9
$USERI1
 70
     0
  9
$USERI2
 70
     0
  9
$USERI3
 70
     0
  9
$USERI4
 70
     0
  9
$USERI5
 70
     0
  9
$USERR1
 40
0.0
  9
$USERR2
 40
0.0
  9
$USERR3
 40
0.0
  9
$USERR4
 40
0.0
  9
$USERR5
 40
0.0
  9
$WORLDVIEW
 70
     1
  9
$SHADEDGE
 70
     3
  9
$SHADEDIF
 70
    70
  9
$TILEMODE
 70
     1
  9
$MAXACTVP
 70
    64
  9
$PINSBASE
 10
0.0
 20
0.0
 30
0.0
  9
$PLIMCHECK
 70
     0
  9
$PEXTMIN
 10
1.0000000000E+20
 20
1.0000000000E+20
 30
1.0000000000E+20
  9
$PEXTMAX
 10
-1.0000000000E+20
 20
-1.0000000000E+20
 30
-1.0000000000E+20
  9
$PLIMMIN
 10
0.0
 20
0.0
  9
$PLIMMAX
 10
12.0
 20
9.0
  9
$UNITMODE
 70
     0
  9
$VISRETAIN
 70
     1
  9
$PLINEGEN
 70
     0
  9
$PSLTSCALE
 70
     1
  9
$TREEDEPTH
 70
  3020
  9
$CMLSTYLE
  2
Standard
  9
$CMLJUST
 70
     0
  9
$CMLSCALE
 40
1.0
  9
$PROXYGRAPHICS
 70
     1
  9
$MEASUREMENT
 70
     0
  9
$CELWEIGHT
370
    -1
  9
$ENDCAPS
280
     0
  9
$JOINSTYLE
280
     0
  9
$LWDISPLAY
290
     1
  9
$INSUNITS
 70
     1
  9
$HYPERLINKBASE
  1

  9
$STYLESHEET
  1

  9
$XEDIT
290
     1
  9
$CEPSNTYPE
380
     0
  9
$PSTYLEMODE
290
     1
  9
$FINGERPRINTGUID
  2
{7c6d1cb7-51cf-4908-91af-667eae154b00}
  9
$VERSIONGUID
  2
{FAEB1C32-E019-11D5-929B-00C0DF256EC4}
  9
$EXTNAMES
290
     1
  9
$PSVPSCALE
 40
0.0
  9
$OLESTARTUP
290
     0
  0
ENDSEC
  0
SECTION
  2
CLASSES
  0
CLASS
  1
ACDBDICTIONARYWDFLT
  2
AcDbDictionaryWithDefault
  3
ObjectDBX Classes
 90
        0
280
     0
281
     0
  0
CLASS
  1
VISUALSTYLE
  2
AcDbVisualStyle
  3
ObjectDBX Classes
 90
     4095
280
     0
281
     0
  0
CLASS
  1
MATERIAL
  2
AcDbMaterial
  3
ObjectDBX Classes
 90
     1153
280
     0
281
     0
  0
CLASS
  1
SCALE
  2
AcDbScale
  3
ObjectDBX Classes
 90
     1153
280
     0
281
     0
  0
CLASS
  1
TABLESTYLE
  2
AcDbTableStyle
  3
ObjectDBX Classes
 90
     4095
280
     0
281
     0
  0
CLASS
  1
MLEADERSTYLE
  2
AcDbMLeaderStyle
  3
ACDB_MLEADERSTYLE_CLASS
 90
     4095
280
     0
281
     0
  0
CLASS
  1
SUN
  2
AcDbSun
  3
SCENEOE
 90
     1153
280
     0
281
     0
  0
CLASS
  1
ACDBPLACEHOLDER
  2
AcDbPlaceHolder
  3
ObjectDBX Classes
 90
        0
280
     0
281
     0
  0
CLASS
  1
LAYOUT
  2
AcDbLayout
  3
ObjectDBX Classes
 90
        0
280
     0
281
     0
  0
ENDSEC
  0
SECTION
  2
TABLES
  0
TABLE
  2
VPORT
  5
8
330
0
100
AcDbSymbolTable
 70
     1
  0
VPORT
  5
29
330
8
100
AcDbSymbolTableRecord
100
AcDbViewportTableRecord
  2
*Active
 70
     0
 10
0.0
 20
0.0
 11
1.0
 21
1.0
 12
-3.1930173548
 22
8.1250249985
 13
0.0
 23
0.0
 14
0.5
 24
0.5
 15
0.5
 25
0.5
 16
0.0
 26
0.0
 36
1.0
 17
0.0
 27
0.0
 37
0.0
 40
7.0351675327
 41
0.425866404
 42
50.0
 43
0.0
 44
0.0
 50
0.0
 51
0.0
 71
     0
 72
   100
 73
     1
 74
     3
 75
     0
 76
     0
 77
     0
 78
     0
281
     0
 65
     1
110
0.0
120
0.0
130
0.0
111
1.0
121
0.0
131
0.0
112
0.0
122
1.0
132
0.0
 79
     0
146
0.0
  0
ENDTAB
  0
TABLE
  2
LTYPE
  5
5
330
0
100
AcDbSymbolTable
 70
     6
  0
LTYPE
  5
14
330
5
100
AcDbSymbolTableRecord
100
AcDbLinetypeTableRecord
  2
ByBlock
 70
     0
  3

 72
    65
 73
     0
 40
0.0
  0
LTYPE
  5
15
330
5
100
AcDbSymbolTableRecord
100
AcDbLinetypeTableRecord
  2
ByLayer
 70
     0
  3

 72
    65
 73
     0
 40
0.0
  0
LTYPE
  5
16
330
5
100
AcDbSymbolTableRecord
100
AcDbLinetypeTableRecord
  2
Continuous
 70
     0
  3
Solid line
 72
    65
 73
     0
 40
0.0
  0
LTYPE
  5
5E
330
5
100
AcDbSymbolTableRecord
100
AcDbLinetypeTableRecord
  2
HIDDEN
 70
     0
  3
Hidden __ __ __ __ __ __ __ __ __ __ __ __ __ __
 72
    65
 73
     2
 40
0.075
 49
0.05
 74
     0
 49
-0.025
 74
     0
  0
LTYPE
  5
5F
330
5
100
AcDbSymbolTableRecord
100
AcDbLinetypeTableRecord
  2
PHANTOM
 70
     0
  3
Phantom ______  __  __  ______  __  __  ______
 72
    65
 73
     6
 40
0.5
 49
0.25
 74
     0
 49
-0.05
 74
     0
 49
0.05
 74
     0
 49
-0.05
 74
     0
 49
0.05
 74
     0
 49
-0.05
 74
     0
  0
LTYPE
  5
60
330
5
100
AcDbSymbolTableRecord
100
AcDbLinetypeTableRecord
  2
CENTER
 70
     0
  3
Center ____ _ ____ _ ____ _ ____ _ ____ _ ____
 72
    65
 73
     4
 40
0.4
 49
0.25
 74
     0
 49
-0.05
 74
     0
 49
0.05
 74
     0
 49
-0.05
 74
     0
  0
LTYPE
  5
61
330
5
100
AcDbSymbolTableRecord
100
AcDbLinetypeTableRecord
  2
CENTERX2
 70
     0
  3
Center (2x) ________  __  ________  __  _____
 72
    65
 73
     4
 40
0.8
 49
0.5
 74
     0
 49
-0.1
 74
     0
 49
0.1
 74
     0
 49
-0.1
 74
     0
  0
LTYPE
  5
62
330
5
100
AcDbSymbolTableRecord
100
AcDbLinetypeTableRecord
  2
DOT2
 70
     0
  3
Dot (.5x) ........................................
 72
    65
 73
     2
 40
0.025
 49
0.0
 74
     0
 49
-0.025
 74
     0
  0
ENDTAB
  0
TABLE
  2
LAYER
  5
2
330
0
100
AcDbSymbolTable
 70
     1
  0
LAYER
  5
10
330
2
100
AcDbSymbolTableRecord
100
AcDbLayerTableRecord
  2
0
 70
     0
 62
     7
  6
Continuous
370
    -3
390
F
  0
ENDTAB
  0
TABLE
  2
STYLE
  5
3
330
0
100
AcDbSymbolTable
 70
     2
  0
STYLE
  5
11
330
3
100
AcDbSymbolTableRecord
100
AcDbTextStyleTableRecord
  2
Standard
 70
     0
 40
0.0
 41
1.0
 50
0.0
 71
     0
 42
0.1377952756
  3
txt
  4

  0
STYLE
  5
69
330
3
100
AcDbSymbolTableRecord
100
AcDbTextStyleTableRecord
  2
SLDTEXTSTYLE0
 70
     0
 40
0.0
 41
0.7
 50
0.0
 71
     0
 42
0.1377952756
  3
TXT
  4

  0
ENDTAB
  0
TABLE
  2
VIEW
  5
6
330
0
100
AcDbSymbolTable
 70
     0
  0
ENDTAB
  0
TABLE
  2
UCS
  5
7
330
0
100
AcDbSymbolTable
 70
     0
  0
ENDTAB
  0
TABLE
  2
APPID
  5
9
330
0
100
AcDbSymbolTable
 70
     1
  0
APPID
  5
12
330
9
100
AcDbSymbolTableRecord
100
AcDbRegAppTableRecord
  2
ACAD
 70
     0
  0
ENDTAB
  0
TABLE
  2
DIMSTYLE
  5
A
330
0
100
AcDbSymbolTable
 70
     1
100
AcDbDimStyleTable
  0
DIMSTYLE
105
27
330
A
100
AcDbSymbolTableRecord
100
AcDbDimStyleTableRecord
  2
Standard
 70
     0
178
     0
340
11
  0
ENDTAB
  0
TABLE
  2
BLOCK_RECORD
  5
1
330
0
100
AcDbSymbolTable
 70
     1
  0
BLOCK_RECORD
  5
1F
330
1
100
AcDbSymbolTableRecord
100
AcDbBlockTableRecord
  2
*Model_Space
340
22
  0
BLOCK_RECORD
  5
1B
330
1
100
AcDbSymbolTableRecord
100
AcDbBlockTableRecord
  2
*Paper_Space
340
1E
  0
BLOCK_RECORD
  5
23
330
1
100
AcDbSymbolTableRecord
100
AcDbBlockTableRecord
  2
*Paper_Space0
340
26
  0
ENDTAB
  0
ENDSEC
  0
SECTION
  2
BLOCKS
  0
BLOCK
  5
20
330
1F
100
AcDbEntity
  8
0
100
AcDbBlockBegin
  2
*Model_Space
 70
     0
 10
0.0
 20
0.0
 30
0.0
  3
*Model_Space
  1

  0
ENDBLK
  5
21
330
1F
100
AcDbEntity
  8
0
100
AcDbBlockEnd
  0
BLOCK
  5
1C
330
1B
100
AcDbEntity
 67
     1
  8
0
100
AcDbBlockBegin
  2
*Paper_Space
 70
     0
 10
0.0
 20
0.0
 30
0.0
  3
*Paper_Space
  1

  0
ENDBLK
  5
1D
330
1B
100
AcDbEntity
 67
     1
  8
0
100
AcDbBlockEnd
  0
BLOCK
  5
24
330
23
100
AcDbEntity
  8
0
100
AcDbBlockBegin
  2
*Paper_Space0
 70
     0
 10
0.0
 20
0.0
 30
0.0
  3
*Paper_Space0
  1

  0
ENDBLK
  5
25
330
23
100
AcDbEntity
  8
0
100
AcDbBlockEnd
  0
ENDSEC
  0
SECTION
  2
ENTITIES
  0
SPLINE
  5
64
330
1F
100
AcDbEntity
  8
0
  6
Continuous
 62
     7
370
    25
100
AcDbSpline
210
0.0
220
0.0
230
1.0
 70
     8
 71
     3
 72
   138
 73
   134
 74
     0
 42
0.00000001
 43
0.00000001
 40
0.0
 40
0.0
 40
0.0
 40
0.0
 40
0.0036942295949915
 40
0.0074103212214764
 40
0.0111511668418024
 40
0.01491960142881
 40
0.0187183981884121
 40
0.0225502644057709
 40
0.0264178379212286
 40
0.030323684230285
 40
0.0342702941914073
 40
0.0382600823165158
 40
0.0422953856116901
 40
0.0463784629300367
 40
0.0505114947946505
 40
0.0546965836471112
 40
0.0589357544758033
 40
0.0632309557783547
 40
0.067584060813477
 40
0.0719968690992451
 40
0.0764711081172054
 40
0.0810084351844881
 40
0.0856104394591406
 40
0.0902786440471068
 40
0.0950145081825163
 40
0.0998194294561452
 40
0.1046947460699917
 40
0.1096417390988414
 40
0.114661634742427
 40
0.1197556065543101
 40
0.1249247776359043
 40
0.1301664606943101
 40
0.1423349773817371
 40
0.1614305423766415
 40
0.1874531989203549
 40
0.1952666758265856
 40
0.2026300880290058
 40
0.2095480067199081
 40
0.2160259462548031
 40
0.2220706252433195
 40
0.2276903164611093
 40
0.2328953194913709
 40
0.2376986022812339
 40
0.242116671591056
 40
0.2461707422793923
 40
0.2498882661486225
 40
0.2569805880196628
 40
0.2644815404284417
 40
0.2725422360851312
 40
0.2812848107525538
 40
0.2908051930492805
 40
0.3011777537866716
 40
0.3124600240963474
 40
0.3181459883550147
 40
0.3238315056658648
 40
0.3295166753263424
 40
0.335201596652109
 40
0.3408863689718418
 40
0.3465710916220287
 40
0.3522558639417615
 40
0.357940785267528
 40
0.3636259549280055
 40
0.3693114722388556
 40
0.3749974364975228
 40
0.3917507486734577
 40
0.4076799463183991
 40
0.4228205306389058
 40
0.4372138393873717
 40
0.4509079792690306
 40
0.4639587909171897
 40
0.4764307590642192
 40
0.488397729501753
 40
0.4999432420781871
 40
0.5070386925401535
 40
0.5142332843653359
 40
0.5215481930835981
 40
0.5290035690858408
 40
0.5366184477366072
 40
0.5444106955605508
 40
0.5523969887674385
 40
0.5605928191692822
 40
0.5690125220451541
 40
0.5776693205765351
 40
0.5865753819316262
 40
0.595741880754031
 40
0.6051790665747313
 40
0.6148963324206611
 40
0.6249022825794069
 40
0.6300980351009869
 40
0.6422512567918289
 40
0.6613621490475945
 40
0.6874307520078551
 40
0.6952473676780725
 40
0.7026133307392951
 40
0.7095331978686357
 40
0.7160124669895451
 40
0.7220578382419688
 40
0.7276775639295003
 40
0.7328819215278591
 40
0.7376838562634733
 40
0.7420998538159659
 40
0.7461511140578111
 40
0.7498650880339861
 40
0.7569667829517865
 40
0.7644737549089976
 40
0.7725371857860375
 40
0.7812794360302743
 40
0.7907967199620756
 40
0.8011636954045952
 40
0.8124381531962003
 40
0.8181241689307622
 40
0.8238097200012529
 40
0.8294949096400983
 40
0.8351798410994142
 40
0.8408646176453842
 40
0.8465493425526341
 40
0.8522341190986042
 40
0.8579190505579202
 40
0.8636042401967656
 40
0.8692897912672563
 40
0.874975807001818
 40
0.8890115935485403
 40
0.9022650307651563
 40
0.9147519461438163
 40
0.9264912679658914
 40
0.9375057793740329
 40
0.9466326230442786
 40
0.955652995036529
 40
0.9645904095434232
 40
0.9734690398966649
 40
0.9823135414384688
 40
0.9911488552296387
 40
1.0
 40
1.0
 40
1.0
 40
1.0
 10
-4.661665148152362
 20
5.029777778047728
 30
0.0
 10
-4.657577588700984
 20
5.02984074607843
 30
0.0
 10
-4.649378280085284
 20
5.029967054777499
 30
0.0
 10
-4.637039270207008
 20
5.029716563358062
 30
0.0
 10
-4.624629999624069
 20
5.029145609331177
 30
0.0
 10
-4.612149728954842
 20
5.028222037358309
 30
0.0
 10
-4.599598676975098
 20
5.026954575052125
 30
0.0
 10
-4.586976799983701
 20
5.025340880759057
 30
0.0
 10
-4.574284122405552
 20
5.02338161397304
 30
0.0
 10
-4.561520647228515
 20
5.021076620150162
 30
0.0
 10
-4.548686380436007
 20
5.018425965713476
 30
0.0
 10
-4.535781324542765
 20
5.015429656575736
 30
0.0
 10
-4.522805480559736
 20
5.012087714379055
 30
0.0
 10
-4.509758847691296
 20
5.008400155513946
 30
0.0
 10
-4.496641423663971
 20
5.004366996644747
 30
0.0
 10
-4.483453204889297
 20
4.999988253062316
 30
0.0
 10
-4.470194186668494
 20
4.995263939037189
 30
0.0
 10
-4.456864363384175
 20
4.990194067657209
 30
0.0
 10
-4.443463728658967
 20
4.984778650874083
 30
0.0
 10
-4.429992275598407
 20
4.979017699392344
 30
0.0
 10
-4.416449996644484
 20
4.972911223119373
 30
0.0
 10
-4.402836884841538
 20
4.966459229599838
 30
0.0
 10
-4.38915292964314
 20
4.959661730187285
 30
0.0
 10
-4.375398133453698
 20
4.952518716773057
 30
0.0
 10
-4.361572449034786
 20
4.945030250813256
 30
0.0
 10
-4.347676018627451
 20
4.937196124123505
 30
0.0
 10
-4.33370826224559
 20
4.929017152988855
 30
0.0
 10
-4.319671355682795
 20
4.920490242085029
 30
0.0
 10
-4.305556962874344
 20
4.911627214909494
 30
0.0
 10
-4.291396851667826
 20
4.902382976639376
 30
0.0
 10
-4.277073267250382
 20
4.892931870634346
 30
0.0
 10
-4.256941088087405
 20
4.878127028951241
 30
0.0
 10
-4.22436953216268
 20
4.854240482757489
 30
0.0
 10
-4.173356730867632
 20
4.816608337264557
 30
0.0
 10
-4.126379738417345
 20
4.781629446468649
 30
0.0
 10
-4.0895473042878
 20
4.754761159161045
 30
0.0
 10
-4.069403909199938
 20
4.740899988708298
 30
0.0
 10
-4.050155706093597
 20
4.728358643153012
 30
0.0
 10
-4.031782786364745
 20
4.717162952311048
 30
0.0
 10
-4.014289276191175
 20
4.70730593585926
 30
0.0
 10
-3.997673126301476
 20
4.698788312374846
 30
0.0
 10
-3.981933204807139
 20
4.691609516320802
 30
0.0
 10
-3.967067643917741
 20
4.685767307629146
 30
0.0
 10
-3.953073007851137
 20
4.681267099930683
 30
0.0
 10
-3.939947350156089
 20
4.678090892783733
 30
0.0
 10
-3.923648559718289
 20
4.675715022939642
 30
0.0
 10
-3.903286346046744
 20
4.675615523718219
 30
0.0
 10
-3.878400116438983
 20
4.679205867957601
 30
0.0
 10
-3.852463593241092
 20
4.686576097796317
 30
0.0
 10
-3.825472158916016
 20
4.697662616831769
 30
0.0
 10
-3.797415872321726
 20
4.712472313080472
 30
0.0
 10
-3.768243755966063
 20
4.730947953767689
 30
0.0
 10
-3.7439281355647
 20
4.748978143269858
 30
0.0
 10
-3.724179035871279
 20
4.764414078628459
 30
0.0
 10
-3.709194423211943
 20
4.775889940786911
 30
0.0
 10
-3.694180720640411
 20
4.787324897910096
 30
0.0
 10
-3.679115233652386
 20
4.798690467022896
 30
0.0
 10
-3.664004051609138
 20
4.809994291728328
 30
0.0
 10
-3.648845509857314
 20
4.821234278273753
 30
0.0
 10
-3.633640178065063
 20
4.832411158422516
 30
0.0
 10
-3.618387442231751
 20
4.843524098728973
 30
0.0
 10
-3.603089188880338
 20
4.854575701295658
 30
0.0
 10
-3.587738485459543
 20
4.865556390345414
 30
0.0
 10
-3.562384763409205
 20
4.883603026276947
 30
0.0
 10
-3.527257058139837
 20
4.907470370423927
 30
0.0
 10
-3.482132163312488
 20
4.935150204477098
 30
0.0
 10
-3.437993572330264
 20
4.959331630655215
 30
0.0
 10
-3.394820808757187
 20
4.97998747572182
 30
0.0
 10
-3.35261502617435
 20
4.99712225521341
 30
0.0
 10
-3.311372145180008
 20
5.010731336105999
 30
0.0
 10
-3.271089104041682
 20
5.02080960901153
 30
0.0
 10
-3.231766714608831
 20
5.027353054518327
 30
0.0
 10
-3.197951227886647
 20
5.029989989308571
 30
0.0
 10
-3.169349638371319
 20
5.030057114965977
 30
0.0
 10
-3.145464270809982
 20
5.028799726387257
 30
0.0
 10
-3.121285070508454
 20
5.026224765179498
 30
0.0
 10
-3.09681197858562
 20
5.022334275568709
 30
0.0
 10
-3.072045258789053
 20
5.017128435707082
 30
0.0
 10
-3.046984928919144
 20
5.010607907851361
 30
0.0
 10
-3.021630934762574
 20
5.00277317256108
 30
0.0
 10
-2.995983166049072
 20
4.993624644446639
 30
0.0
 10
-2.970041348143798
 20
4.983162819418842
 30
0.0
 10
-2.943805616589508
 20
4.971387498893748
 30
0.0
 10
-2.917274363673943
 20
4.958300865013867
 30
0.0
 10
-2.89045270741556
 20
4.943895511928658
 30
0.0
 10
-2.863319541754492
 20
4.928201132957241
 30
0.0
 10
-2.835956050829735
 20
4.911102525570896
 30
0.0
 10
-2.812791742778935
 20
4.896119831573231
 30
0.0
 10
-2.788367293981186
 20
4.878232993123036
 30
0.0
 10
-2.75585558203644
 20
4.854349440471506
 30
0.0
 10
-2.704789022504672
 20
4.816705232280937
 30
0.0
 10
-2.657754293195641
 20
4.781684235405048
 30
0.0
 10
-2.620872596963781
 20
4.754786555961291
 30
0.0
 10
-2.600721542116397
 20
4.740921626976841
 30
0.0
 10
-2.581467796165728
 20
4.728376987240384
 30
0.0
 10
-2.563091549820991
 20
4.717178333685314
 30
0.0
 10
-2.545596906149938
 20
4.707318717233217
 30
0.0
 10
-2.528981823483804
 20
4.69879884055894
 30
0.0
 10
-2.513245167175454
 20
4.69161814705449
 30
0.0
 10
-2.49838507240232
 20
4.685774344911804
 30
0.0
 10
-2.484398080363554
 20
4.68127297501377
 30
0.0
 10
-2.471282278444157
 20
4.678095572725975
 30
0.0
 10
-2.454980480138305
 20
4.675717258040939
 30
0.0
 10
-2.434605245877594
 20
4.675613295477573
 30
0.0
 10
-2.409697769689533
 20
4.679196576744502
 30
0.0
 10
-2.383749760120695
 20
4.686561209934625
 30
0.0
 10
-2.356756902283803
 20
4.697642673227179
 30
0.0
 10
-2.328709420186042
 20
4.712448036976598
 30
0.0
 10
-2.299556151029321
 20
4.730919640859697
 30
0.0
 10
-2.275259749924273
 20
4.748951093197972
 30
0.0
 10
-2.255524416384486
 20
4.764390740062191
 30
0.0
 10
-2.240543621983589
 20
4.775871789904985
 30
0.0
 10
-2.225532924973356
 20
4.78731080902041
 30
0.0
 10
-2.210469490623374
 20
4.798679166363684
 30
0.0
 10
-2.195359443520063
 20
4.809984542018784
 30
0.0
 10
-2.180201118259232
 20
4.821224844271896
 30
0.0
 10
-2.164995052309008
 20
4.832400760263519
 30
0.0
 10
-2.14974076122766
 20
4.843511632997565
 30
0.0
 10
-2.134439645485881
 20
4.854559403364389
 30
0.0
 10
-2.119086587317065
 20
4.865536964154376
 30
0.0
 10
-2.09616993478855
 20
4.881822433509831
 30
0.0
 10
-2.066083652456238
 20
4.902477116660124
 30
0.0
 10
-2.02896878739829
 20
4.926151172247559
 30
0.0
 10
-1.993213526410185
 20
4.947183884770811
 30
0.0
 10
-1.958802722533554
 20
4.965553219809364
 30
0.0
 10
-1.926935432233129
 20
4.98072024096846
 30
0.0
 10
-1.897106718483121
 20
4.993063127816343
 30
0.0
 10
-1.868852831129115
 20
5.003098913005159
 30
0.0
 10
-1.840382868372336
 20
5.011586483416963
 30
0.0
 10
-1.811695852102139
 20
5.018530880690106
 30
0.0
 10
-1.782790967885791
 20
5.023895150774509
 30
0.0
 10
-1.753675953700075
 20
5.027819580808094
 30
0.0
 10
-1.734144186402223
 20
5.029122719378225
 30
0.0
 10
-1.724369561404637
 20
5.029774871876699
 30
0.0
  0
SPLINE
  5
66
330
1F
100
AcDbEntity
  8
0
  6
Continuous
 62
     7
370
    25
100
AcDbSpline
210
0.0
220
0.0
230
1.0
 70
     8
 71
     3
 72
    99
 73
    95
 74
     0
 42
0.00000001
 43
0.00000001
 40
0.0
 40
0.0
 40
0.0
 40
0.0
 40
0.0031653228721537
 40
0.0066977891549631
 40
0.010599538789313
 40
0.0148721568853846
 40
0.0195168488661697
 40
0.0245345520074095
 40
0.029926009050419
 40
0.035691818299378
 40
0.0418324686362646
 40
0.0483483645716049
 40
0.055239844538654
 40
0.0625071944991303
 40
0.075242484522202
 40
0.0870492482971098
 40
0.0979295846687497
 40
0.1078861783705356
 40
0.1169225375147761
 40
0.1250433628967065
 40
0.153025355761143
 40
0.179002982109741
 40
0.2034334379770169
 40
0.2268646614660278
 40
0.2499159575604898
 40
0.2643962192123189
 40
0.2795752144830082
 40
0.2955602063808716
 40
0.3124431025526447
 40
0.330297826906547
 40
0.3511294443349313
 40
0.3749758559579753
 40
0.3869684583589817
 40
0.3977665191148007
 40
0.4073703081980337
 40
0.415780210596706
 40
0.4229968023744283
 40
0.4290210019352417
 40
0.4338544074367314
 40
0.4375001833577493
 40
0.4427118364410294
 40
0.447651277067171
 40
0.4523306051796546
 40
0.4567640509632147
 40
0.4609683420441982
 40
0.4649630857803966
 40
0.468771127742946
 40
0.4783592340671105
 40
0.4886550190965089
 40
0.4999976286501666
 40
0.5074534683267236
 40
0.517415903832398
 40
0.529906666875546
 40
0.544936526018883
 40
0.5625115831911991
 40
0.5734758496235725
 40
0.5837605842026558
 40
0.5933670617589949
 40
0.6022968476150414
 40
0.6105518920452905
 40
0.618134665968603
 40
0.625048361139413
 40
0.6530958424217437
 40
0.67910619299405
 40
0.7035361920205231
 40
0.7269353533922533
 40
0.7499272223527074
 40
0.7644849777150081
 40
0.7796903893036434
 40
0.7956493399448339
 40
0.8124534743513727
 40
0.8303540395123242
 40
0.8511856517431525
 40
0.8749862727935647
 40
0.8869400657671224
 40
0.8977104283413384
 40
0.9072976347225604
 40
0.915702074924198
 40
0.9229243305760222
 40
0.9289653247813165
 40
0.9338266536086194
 40
0.9375114463621674
 40
0.9427139743313854
 40
0.9476471132956463
 40
0.9523230516772208
 40
0.9567560998828252
 40
0.9609630477046436
 40
0.96496353273713
 40
0.9687803806450448
 40
0.9742278431715304
 40
0.9800003164546027
 40
0.9861781889918302
 40
0.992827161230064
 40
1.0
 40
1.0
 40
1.0
 40
1.0
 10
-1.724369561402557
 20
11.55140469660322
 30
0.0
 10
-1.727456522009033
 20
11.54975016475118
 30
0.0
 10
-1.733988497452595
 20
11.54624919314649
 30
0.0
 10
-1.744118105153448
 20
11.5403351848421
 30
0.0
 10
-1.755177119822129
 20
11.53359150624374
 30
0.0
 10
-1.767145729861031
 20
11.52597976914603
 30
0.0
 10
-1.780030089602241
 20
11.51751113844125
 30
0.0
 10
-1.793828298557933
 20
11.50818169622628
 30
0.0
 10
-1.808540928076649
 20
11.49799230211195
 30
0.0
 10
-1.824167656096602
 20
11.48694227948522
 30
0.0
 10
-1.840709013371201
 20
11.47503224943911
 30
0.0
 10
-1.858162883428261
 20
11.46225933112783
 30
0.0
 10
-1.876537691393934
 20
11.44863459081514
 30
0.0
 10
-1.900297676076138
 20
11.43072134158474
 30
0.0
 10
-1.928451726201723
 20
11.40960190394349
 30
0.0
 10
-1.960133342353084
 20
11.3865285876635
 30
0.0
 10
-1.989619990849767
 20
11.36566933778287
 30
0.0
 10
-2.016926680519648
 20
11.34704417257062
 30
0.0
 10
-2.042047022320395
 20
11.33063938959658
 30
0.0
 10
-2.084548272593007
 20
11.30440895810469
 30
0.0
 10
-2.145426054039312
 20
11.27224474620952
 30
0.0
 10
-2.226722011378022
 20
11.24132155128508
 30
0.0
 10
-2.306733462929963
 20
11.22333803595199
 30
0.0
 10
-2.385388267742938
 20
11.21838151447922
 30
0.0
 10
-2.452793947482676
 20
11.22563237838906
 30
0.0
 10
-2.509504547938661
 20
11.2395546280523
 30
0.0
 10
-2.557376676197118
 20
11.25582603017125
 30
0.0
 10
-2.606217431521071
 20
11.27693933490216
 30
0.0
 10
-2.656069094708949
 20
11.3028134017969
 30
0.0
 10
-2.708637256421345
 20
11.3347635962005
 30
0.0
 10
-2.766001435994278
 20
11.37348069812641
 30
0.0
 10
-2.816583670489202
 20
11.41054869991707
 30
0.0
 10
-2.857851529069738
 20
11.44152347759206
 30
0.0
 10
-2.886675260996294
 20
11.46282712565403
 30
0.0
 10
-2.912399929081917
 20
11.48165363217541
 30
0.0
 10
-2.935045436159962
 20
11.49797691341952
 30
0.0
 10
-2.954604221625465
 20
11.51180819941842
 30
0.0
 10
-2.97108289075107
 20
11.5231384061715
 30
0.0
 10
-2.984459842600704
 20
11.53200463786412
 30
0.0
 10
-2.997370829611591
 20
11.5399346502744
 30
0.0
 10
-3.010794003621626
 20
11.54721951399621
 30
0.0
 10
-3.025527345120945
 20
11.55445382927341
 30
0.0
 10
-3.039838075044732
 20
11.56055235627598
 30
0.0
 10
-3.053711408509261
 20
11.56554153007423
 30
0.0
 10
-3.067152083962497
 20
11.56941400377611
 30
0.0
 10
-3.080161548171645
 20
11.5721693433097
 30
0.0
 10
-3.099260027132588
 20
11.57465716048977
 30
0.0
 10
-3.125687687839077
 20
11.57393578340933
 30
0.0
 10
-3.159508385765538
 20
11.5660908644645
 30
0.0
 10
-3.189452735104272
 20
11.55389760806812
 30
0.0
 10
-3.217224948500071
 20
11.5383079182555
 30
0.0
 10
-3.245089620925505
 20
11.52043857291641
 30
0.0
 10
-3.279264376535118
 20
11.4969373829055
 30
0.0
 10
-3.319731850473446
 20
11.46774423316818
 30
0.0
 10
-3.358286453423385
 20
11.4388063267018
 30
0.0
 10
-3.392608042553285
 20
11.41297570230267
 30
0.0
 10
-3.42015046106665
 20
11.39280274353122
 30
0.0
 10
-3.446084779086404
 20
11.37424754270245
 30
0.0
 10
-3.470428072585084
 20
11.35733196021306
 30
0.0
 10
-3.493176928876409
 20
11.34205180390998
 30
0.0
 10
-3.51432980063356
 20
11.32840123926456
 30
0.0
 10
-3.55445369787889
 20
11.30378844266171
 30
0.0
 10
-3.614247458768638
 20
11.27220600210101
 30
0.0
 10
-3.695638286421095
 20
11.24122869901352
 30
0.0
 10
-3.775646441734585
 20
11.22323104292033
 30
0.0
 10
-3.854204932747499
 20
11.21828767810914
 30
0.0
 10
-3.921585649621594
 20
11.22564471619735
 30
0.0
 10
-3.978323900130762
 20
11.23965343969124
 30
0.0
 10
-4.026278950231011
 20
11.25594411145461
 30
0.0
 10
-4.075047534438527
 20
11.27700707659896
 30
0.0
 10
-4.124839417845787
 20
11.30285483741529
 30
0.0
 10
-4.177372448988295
 20
11.33479262618247
 30
0.0
 10
-4.234741154223046
 20
11.37350293156594
 30
0.0
 10
-4.285244055599303
 20
11.41052113906152
 30
0.0
 10
-4.326407185548319
 20
11.44142843868081
 30
0.0
 10
-4.355154694910928
 20
11.46268055860192
 30
0.0
 10
-4.380833715477846
 20
11.48147624785152
 30
0.0
 10
-4.403464216297669
 20
11.49778936505849
 30
0.0
 10
-4.423038777595394
 20
11.5116309011964
 30
0.0
 10
-4.439563631082613
 20
11.52299236426937
 30
0.0
 10
-4.45301835576328
 20
11.53190888288768
 30
0.0
 10
-4.465979811488428
 20
11.53987876949614
 30
0.0
 10
-4.479417207651561
 20
11.54719196806039
 30
0.0
 10
-4.494127729851822
 20
11.55442579439808
 30
0.0
 10
-4.50842526442445
 20
11.56052696104067
 30
0.0
 10
-4.522295943426171
 20
11.56551951094
 30
0.0
 10
-4.535744349069223
 20
11.56939880496466
 30
0.0
 10
-4.54877155375233
 20
11.57215632273758
 30
0.0
 10
-4.563338917509802
 20
11.57407879229341
 30
0.0
 10
-4.580025654673055
 20
11.57433897489693
 30
0.0
 10
-4.599200589433072
 20
11.57218864923295
 30
0.0
 10
-4.619301821630282
 20
11.56763697983509
 30
0.0
 10
-4.640386909899294
 20
11.56079663131689
 30
0.0
 10
-4.654395421153375
 20
11.55464356810701
 30
0.0
 10
-4.661665148150292
 20
11.55145043152601
 30
0.0
  0
LINE
  5
67
330
1F
100
AcDbEntity
  8
0
  6
Continuous
 62
     7
370
    25
100
AcDbLine
 10
-1.7243695614
 20
5.0297748719
 30
0.0
 11
-1.7243695614
 21
11.5514046966
 31
0.0
  0
LINE
  5
68
330
1F
100
AcDbEntity
  8
0
  6
Continuous
 62
     7
370
    25
100
AcDbLine
 10
-4.6616651482
 20
11.5514504315
 30
0.0
 11
-4.6616651482
 21
5.029777778
 31
0.0
  0
MTEXT
  5
6A
330
1F
100
AcDbEntity
  8
0
  6
Continuous
 62
     7
100
AcDbMText
 10
-4.6616651482
 20
4.6362730538
 30
0.0
 40
0.1903
 41
0.0
 71
     1
 72
     1
  1
SOLIDWORKS Educational Product.
  7
SLDTEXTSTYLE0
 73
     1
 44
1.0
  0
MTEXT
  5
6B
330
1F
100
AcDbEntity
  8
0
  6
Continuous
 62
     7
100
AcDbMText
 10
-4.6616651482
 20
4.3508230538
 30
0.0
 40
0.1903
 41
0.0
 71
     1
 72
     1
  1
For Instructional Use Only.
  7
SLDTEXTSTYLE0
 73
     1
 44
1.0
  0
ENDSEC
  0
SECTION
  2
OBJECTS
  0
DICTIONARY
  5
C
330
0
100
AcDbDictionary
281
     1
  3
ACAD_GROUP
350
D
  3
ACAD_LAYOUT
350
1A
  3
ACAD_MLINESTYLE
350
17
  3
ACAD_PLOTSETTINGS
350
19
  3
ACAD_PLOTSTYLENAME
350
E
  3
ACAD_SCALELIST
350
47
  3
DWGPROPS
350
6C
  0
DICTIONARY
  5
D
102
{ACAD_REACTORS
330
C
102
}
330
C
100
AcDbDictionary
281
     1
  0
DICTIONARY
  5
1A
102
{ACAD_REACTORS
330
C
102
}
330
C
100
AcDbDictionary
281
     1
  3
Layout1
350
1E
  3
Layout2
350
26
  3
Model
350
22
  0
DICTIONARY
  5
17
102
{ACAD_REACTORS
330
C
102
}
330
C
100
AcDbDictionary
281
     1
  3
Standard
350
18
  0
DICTIONARY
  5
19
102
{ACAD_REACTORS
330
C
102
}
330
C
100
AcDbDictionary
281
     1
  0
ACDBDICTIONARYWDFLT
  5
E
102
{ACAD_REACTORS
330
C
102
}
330
C
100
AcDbDictionary
281
     1
  3
Normal
350
F
100
AcDbDictionaryWithDefault
340
F
  0
DICTIONARY
  5
47
102
{ACAD_REACTORS
330
C
102
}
330
C
100
AcDbDictionary
281
     1
  3
A0
350
48
  3
A1
350
49
  3
A2
350
4A
  3
A3
350
4B
  3
A4
350
4C
  3
A5
350
4D
  3
A6
350
4E
  3
A7
350
4F
  3
A8
350
50
  3
A9
350
51
  3
B1
350
52
  3
B2
350
53
  3
B3
350
54
  3
B4
350
55
  3
B5
350
56
  3
B6
350
57
  3
B7
350
58
  0
XRECORD
  5
6C
102
{ACAD_REACTORS
330
C
102
}
330
C
100
AcDbXrecord
280
     1
  1
DWGPROPS COOKIE
  2

  3

  4

  6

  7

  8
manny
  9

300
=
301
=
302
=
303
=
304
=
305
=
306
=
307
=
308
=
309
=
 40
0.0
 41
2460633.184400973
 42
2460633.184434676
  1

 90
        0
  0
LAYOUT
  5
1E
102
{ACAD_REACTORS
330
1A
102
}
330
1A
100
AcDbPlotSettings
  1

  2
none_device
  4

  6

 40
0.0
 41
0.0
 42
0.0
 43
0.0
 44
0.0
 45
0.0
 46
0.0
 47
0.0
 48
0.0
 49
0.0
140
0.0
141
0.0
142
1.0
143
1.0
 70
   688
 72
     0
 73
     0
 74
     5
  7

 75
    16
147
1.0
148
0.0
149
0.0
100
AcDbLayout
  1
Layout1
 70
     1
 71
     1
 10
0.0
 20
0.0
 11
12.0
 21
9.0
 12
0.0
 22
0.0
 32
0.0
 14
1.0000000000E+20
 24
1.0000000000E+20
 34
1.0000000000E+20
 15
-1.0000000000E+20
 25
-1.0000000000E+20
 35
-1.0000000000E+20
146
0.0
 13
0.0
 23
0.0
 33
0.0
 16
1.0
 26
0.0
 36
0.0
 17
0.0
 27
1.0
 37
0.0
 76
     0
330
1B
  0
LAYOUT
  5
26
102
{ACAD_REACTORS
330
1A
102
}
330
1A
100
AcDbPlotSettings
  1

  2
none_device
  4

  6

 40
0.0
 41
0.0
 42
0.0
 43
0.0
 44
0.0
 45
0.0
 46
0.0
 47
0.0
 48
0.0
 49
0.0
140
0.0
141
0.0
142
1.0
143
1.0
 70
   688
 72
     0
 73
     0
 74
     5
  7

 75
    16
147
1.0
148
0.0
149
0.0
100
AcDbLayout
  1
Layout2
 70
     1
 71
     2
 10
0.0
 20
0.0
 11
0.0
 21
0.0
 12
0.0
 22
0.0
 32
0.0
 14
0.0
 24
0.0
 34
0.0
 15
0.0
 25
0.0
 35
0.0
146
0.0
 13
0.0
 23
0.0
 33
0.0
 16
1.0
 26
0.0
 36
0.0
 17
0.0
 27
1.0
 37
0.0
 76
     0
330
23
  0
LAYOUT
  5
22
102
{ACAD_REACTORS
330
1A
102
}
330
1A
100
AcDbPlotSettings
  1

  2
none_device
  4
ANSI_A_(11.00_x_8.50_Inches)
  6

 40
6.35
 41
19.05
 42
6.35000508
 43
19.05000254
 44
279.4
 45
215.9
 46
232.2997799122
 47
-162.8898810906
 48
0.0
 49
0.0
140
0.0
141
0.0
142
1.2200562332
143
1.0
 70
  1696
 72
     0
 73
     0
 74
     0
  7

 75
     0
147
0.5913241897
148
-39.4088153714
149
0.0
100
AcDbLayout
  1
Model
 70
     1
 71
     0
 10
0.0
 20
0.0
 11
12.0
 21
9.0
 12
0.0
 22
0.0
 32
0.0
 14
-4.6616651482
 24
4.6764134629
 34
0.0
 15
-1.7243695614
 25
11.5736365342
 35
0.0
146
0.0
 13
0.0
 23
0.0
 33
0.0
 16
1.0
 26
0.0
 36
0.0
 17
0.0
 27
1.0
 37
0.0
 76
     0
330
1F
331
29
  0
MLINESTYLE
  5
18
102
{ACAD_REACTORS
330
17
102
}
330
17
100
AcDbMlineStyle
  2
Standard
 70
     0
  3

 62
   256
 51
90.0
 52
90.0
 71
     2
 49
0.5
 62
   256
  6
BYLAYER
 49
-0.5
 62
   256
  6
BYLAYER
  0
ACDBPLACEHOLDER
  5
F
102
{ACAD_REACTORS
330
E
102
}
330
E
  0
SCALE
  5
48
102
{ACAD_REACTORS
330
47
102
}
330
47
100
AcDbScale
 70
     0
300
1:1
140
1.0
141
1.0
290
     1
  0
SCALE
  5
49
102
{ACAD_REACTORS
330
47
102
}
330
47
100
AcDbScale
 70
     0
300
1/128" = 1'-0"
140
0.0078125
141
12.0
290
     0
  0
SCALE
  5
4A
102
{ACAD_REACTORS
330
47
102
}
330
47
100
AcDbScale
 70
     0
300
1/64" = 1'-0"
140
0.015625
141
12.0
290
     0
  0
SCALE
  5
4B
102
{ACAD_REACTORS
330
47
102
}
330
47
100
AcDbScale
 70
     0
300
1/32" = 1'-0"
140
0.03125
141
12.0
290
     0
  0
SCALE
  5
4C
102
{ACAD_REACTORS
330
47
102
}
330
47
100
AcDbScale
 70
     0
300
1/16" = 1'-0"
140
0.0625
141
12.0
290
     0
  0
SCALE
  5
4D
102
{ACAD_REACTORS
330
47
102
}
330
47
100
AcDbScale
 70
     0
300
3/32" = 1'-0"
140
0.09375
141
12.0
290
     0
  0
SCALE
  5
4E
102
{ACAD_REACTORS
330
47
102
}
330
47
100
AcDbScale
 70
     0
300
1/8" = 1'-0"
140
0.125
141
12.0
290
     0
  0
SCALE
  5
4F
102
{ACAD_REACTORS
330
47
102
}
330
47
100
AcDbScale
 70
     0
300
3/16" = 1'-0"
140
0.1875
141
12.0
290
     0
  0
SCALE
  5
50
102
{ACAD_REACTORS
330
47
102
}
330
47
100
AcDbScale
 70
     0
300
1/4" = 1'-0"
140
0.25
141
12.0
290
     0
  0
SCALE
  5
51
102
{ACAD_REACTORS
330
47
102
}
330
47
100
AcDbScale
 70
     0
300
3/8" = 1'-0"
140
0.375
141
12.0
290
     0
  0
SCALE
  5
52
102
{ACAD_REACTORS
330
47
102
}
330
47
100
AcDbScale
 70
     0
300
1/2" = 1'-0"
140
0.5
141
12.0
290
     0
  0
SCALE
  5
53
102
{ACAD_REACTORS
330
47
102
}
330
47
100
AcDbScale
 70
     0
300
3/4" = 1'-0"
140
0.75
141
12.0
290
     0
  0
SCALE
  5
54
102
{ACAD_REACTORS
330
47
102
}
330
47
100
AcDbScale
 70
     0
300
1" = 1'-0"
140
1.0
141
12.0
290
     0
  0
SCALE
  5
55
102
{ACAD_REACTORS
330
47
102
}
330
47
100
AcDbScale
 70
     0
300
1-1/2" = 1'-0"
140
1.5
141
12.0
290
     0
  0
SCALE
  5
56
102
{ACAD_REACTORS
330
47
102
}
330
47
100
AcDbScale
 70
     0
300
3" = 1'-0"
140
3.0
141
12.0
290
     0
  0
SCALE
  5
57
102
{ACAD_REACTORS
330
47
102
}
330
47
100
AcDbScale
 70
     0
300
6" = 1'-0"
140
6.0
141
12.0
290
     0
  0
SCALE
  5
58
102
{ACAD_REACTORS
330
47
102
}
330
47
100
AcDbScale
 70
     0
300
1'-0" = 1'-0"
140
12.0
141
12.0
290
     0
  0
ENDSEC
  0
EOF
