  0
SECTION
  2
HEADER
  9
$ACADVER
  1
AC1015
  9
$ACADMAINTVER
 70
     6
  9
$DWGCODEPAGE
  3
ANSI_1252
  9
$INSBASE
 10
0.0
 20
0.0
 30
0.0
  9
$EXTMIN
 10
-0.7026788793
 20
-0.2331937725
 30
0.0
  9
$EXTMAX
 10
2.2346166443
 20
13.3069128484
 30
0.0
  9
$LIMMIN
 10
0.0
 20
0.0
  9
$LIMMAX
 10
12.0
 20
9.0
  9
$ORTHOMODE
 70
     0
  9
$REGENMODE
 70
     1
  9
$FILLMODE
 70
     1
  9
$QTEXTMODE
 70
     0
  9
$MIRRTEXT
 70
     1
  9
$LTSCALE
 40
1.0
  9
$ATTMODE
 70
     1
  9
$TEXTSIZE
 40
0.1377952756
  9
$TRACEWID
 40
0.05
  9
$TEXTSTYLE
  7
Standard
  9
$CLAYER
  8
0
  9
$CELTYPE
  6
ByLayer
  9
$CECOLOR
 62
   256
  9
$CELTSCALE
 40
1.0
  9
$DISPSILH
 70
     0
  9
$DIMSCALE
 40
1.0
  9
$DIMASZ
 40
0.13
  9
$DIMEXO
 40
0.0
  9
$DIMDLI
 40
0.38
  9
$DIMRND
 40
0.0
  9
$DIMDLE
 40
0.0
  9
$DIMEXE
 40
0.0393700787
  9
$DIMTP
 40
0.0
  9
$DIMTM
 40
0.0
  9
$DIMTXT
 40
0.1377952756
  9
$DIMCEN
 40
0.09
  9
$DIMTSZ
 40
0.0
  9
$DIMTOL
 70
     0
  9
$DIMLIM
 70
     0
  9
$DIMTIH
 70
     1
  9
$DIMTOH
 70
     1
  9
$DIMSE1
 70
     0
  9
$DIMSE2
 70
     0
  9
$DIMTAD
 70
     1
  9
$DIMZIN
 70
     1
  9
$DIMBLK
  1

  9
$DIMASO
 70
     1
  9
$DIMSHO
 70
     1
  9
$DIMPOST
  1

  9
$DIMAPOST
  1

  9
$DIMALT
 70
     0
  9
$DIMALTD
 70
     2
  9
$DIMALTF
 40
25.4
  9
$DIMLFAC
 40
1.0
  9
$DIMTOFL
 70
     0
  9
$DIMTVP
 40
0.0
  9
$DIMTIX
 70
     0
  9
$DIMSOXD
 70
     0
  9
$DIMSAH
 70
     0
  9
$DIMBLK1
  1

  9
$DIMBLK2
  1

  9
$DIMSTYLE
  2
Standard
  9
$DIMCLRD
 70
     0
  9
$DIMCLRE
 70
     0
  9
$DIMCLRT
 70
     0
  9
$DIMTFAC
 40
1.0
  9
$DIMGAP
 40
0.06
  9
$DIMJUST
 70
     0
  9
$DIMSD1
 70
     0
  9
$DIMSD2
 70
     0
  9
$DIMTOLJ
 70
     1
  9
$DIMTZIN
 70
     1
  9
$DIMALTZ
 70
     0
  9
$DIMALTTZ
 70
     0
  9
$DIMUPT
 70
     0
  9
$DIMDEC
 70
     2
  9
$DIMTDEC
 70
     2
  9
$DIMALTU
 70
     2
  9
$DIMALTTD
 70
     2
  9
$DIMTXSTY
  7
Standard
  9
$DIMAUNIT
 70
     0
  9
$DIMADEC
 70
     2
  9
$DIMALTRND
 40
0.0
  9
$DIMAZIN
 70
     0
  9
$DIMDSEP
 70
    46
  9
$DIMATFIT
 70
     3
  9
$DIMFRAC
 70
     0
  9
$DIMLDRBLK
  1

  9
$DIMLUNIT
 70
     2
  9
$DIMLWD
 70
    -2
  9
$DIMLWE
 70
    -2
  9
$DIMTMOVE
 70
     0
  9
$LUNITS
 70
     2
  9
$LUPREC
 70
     2
  9
$SKETCHINC
 40
0.1
  9
$FILLETRAD
 40
0.0
  9
$AUNITS
 70
     0
  9
$AUPREC
 70
     2
  9
$MENU
  1
.
  9
$ELEVATION
 40
0.0
  9
$PELEVATION
 40
0.0
  9
$THICKNESS
 40
0.0
  9
$LIMCHECK
 70
     0
  9
$CHAMFERA
 40
0.0
  9
$CHAMFERB
 40
0.0
  9
$CHAMFERC
 40
0.0
  9
$CHAMFERD
 40
0.0
  9
$SKPOLY
 70
     0
  9
$TDCREATE
 40
2460632.853243125
  9
$TDUCREATE
 40
2460633.186576458
  9
$TDUPDATE
 40
2460632.853292523
  9
$TDUUPDATE
 40
2460633.186625857
  9
$TDINDWG
 40
0.0000000116
  9
$TDUSRTIMER
 40
0.0000000116
  9
$USRTIMER
 70
     1
  9
$ANGBASE
 50
0.0
  9
$ANGDIR
 70
     0
  9
$PDMODE
 70
     0
  9
$PDSIZE
 40
-1.0
  9
$PLINEWID
 40
0.0
  9
$SPLFRAME
 70
     0
  9
$SPLINETYPE
 70
     6
  9
$SPLINESEGS
 70
     8
  9
$HANDSEED
  5
74
  9
$SURFTAB1
 70
     6
  9
$SURFTAB2
 70
     6
  9
$SURFTYPE
 70
     6
  9
$SURFU
 70
     6
  9
$SURFV
 70
     6
  9
$UCSBASE
  2

  9
$UCSNAME
  2

  9
$UCSORG
 10
0.0
 20
0.0
 30
0.0
  9
$UCSXDIR
 10
1.0
 20
0.0
 30
0.0
  9
$UCSYDIR
 10
0.0
 20
1.0
 30
0.0
  9
$UCSORTHOREF
  2

  9
$UCSORTHOVIEW
 70
     0
  9
$UCSORGTOP
 10
0.0
 20
0.0
 30
0.0
  9
$UCSORGBOTTOM
 10
0.0
 20
0.0
 30
0.0
  9
$UCSORGLEFT
 10
0.0
 20
0.0
 30
0.0
  9
$UCSORGRIGHT
 10
0.0
 20
0.0
 30
0.0
  9
$UCSORGFRONT
 10
0.0
 20
0.0
 30
0.0
  9
$UCSORGBACK
 10
0.0
 20
0.0
 30
0.0
  9
$PUCSBASE
  2

  9
$PUCSNAME
  2

  9
$PUCSORG
 10
0.0
 20
0.0
 30
0.0
  9
$PUCSXDIR
 10
1.0
 20
0.0
 30
0.0
  9
$PUCSYDIR
 10
0.0
 20
1.0
 30
0.0
  9
$PUCSORTHOREF
  2

  9
$PUCSORTHOVIEW
 70
     0
  9
$PUCSORGTOP
 10
0.0
 20
0.0
 30
0.0
  9
$PUCSORGBOTTOM
 10
0.0
 20
0.0
 30
0.0
  9
$PUCSORGLEFT
 10
0.0
 20
0.0
 30
0.0
  9
$PUCSORGRIGHT
 10
0.0
 20
0.0
 30
0.0
  9
$PUCSORGFRONT
 10
0.0
 20
0.0
 30
0.0
  9
$PUCSORGBACK
 10
0.0
 20
0.0
 30
0.0
  9
$USERI1
 70
     0
  9
$USERI2
 70
     0
  9
$USERI3
 70
     0
  9
$USERI4
 70
     0
  9
$USERI5
 70
     0
  9
$USERR1
 40
0.0
  9
$USERR2
 40
0.0
  9
$USERR3
 40
0.0
  9
$USERR4
 40
0.0
  9
$USERR5
 40
0.0
  9
$WORLDVIEW
 70
     1
  9
$SHADEDGE
 70
     3
  9
$SHADEDIF
 70
    70
  9
$TILEMODE
 70
     1
  9
$MAXACTVP
 70
    64
  9
$PINSBASE
 10
0.0
 20
0.0
 30
0.0
  9
$PLIMCHECK
 70
     0
  9
$PEXTMIN
 10
1.0000000000E+20
 20
1.0000000000E+20
 30
1.0000000000E+20
  9
$PEXTMAX
 10
-1.0000000000E+20
 20
-1.0000000000E+20
 30
-1.0000000000E+20
  9
$PLIMMIN
 10
0.0
 20
0.0
  9
$PLIMMAX
 10
12.0
 20
9.0
  9
$UNITMODE
 70
     0
  9
$VISRETAIN
 70
     1
  9
$PLINEGEN
 70
     0
  9
$PSLTSCALE
 70
     1
  9
$TREEDEPTH
 70
  3020
  9
$CMLSTYLE
  2
Standard
  9
$CMLJUST
 70
     0
  9
$CMLSCALE
 40
1.0
  9
$PROXYGRAPHICS
 70
     1
  9
$MEASUREMENT
 70
     0
  9
$CELWEIGHT
370
    -1
  9
$ENDCAPS
280
     0
  9
$JOINSTYLE
280
     0
  9
$LWDISPLAY
290
     1
  9
$INSUNITS
 70
     1
  9
$HYPERLINKBASE
  1

  9
$STYLESHEET
  1

  9
$XEDIT
290
     1
  9
$CEPSNTYPE
380
     0
  9
$PSTYLEMODE
290
     1
  9
$FINGERPRINTGUID
  2
{d40feefc-6f2b-43c3-a008-98ecba022f04}
  9
$VERSIONGUID
  2
{FAEB1C32-E019-11D5-929B-00C0DF256EC4}
  9
$EXTNAMES
290
     1
  9
$PSVPSCALE
 40
0.0
  9
$OLESTARTUP
290
     0
  0
ENDSEC
  0
SECTION
  2
CLASSES
  0
CLASS
  1
ACDBDICTIONARYWDFLT
  2
AcDbDictionaryWithDefault
  3
ObjectDBX Classes
 90
        0
280
     0
281
     0
  0
CLASS
  1
VISUALSTYLE
  2
AcDbVisualStyle
  3
ObjectDBX Classes
 90
     4095
280
     0
281
     0
  0
CLASS
  1
MATERIAL
  2
AcDbMaterial
  3
ObjectDBX Classes
 90
     1153
280
     0
281
     0
  0
CLASS
  1
SCALE
  2
AcDbScale
  3
ObjectDBX Classes
 90
     1153
280
     0
281
     0
  0
CLASS
  1
TABLESTYLE
  2
AcDbTableStyle
  3
ObjectDBX Classes
 90
     4095
280
     0
281
     0
  0
CLASS
  1
MLEADERSTYLE
  2
AcDbMLeaderStyle
  3
ACDB_MLEADERSTYLE_CLASS
 90
     4095
280
     0
281
     0
  0
CLASS
  1
SUN
  2
AcDbSun
  3
SCENEOE
 90
     1153
280
     0
281
     0
  0
CLASS
  1
ACDBPLACEHOLDER
  2
AcDbPlaceHolder
  3
ObjectDBX Classes
 90
        0
280
     0
281
     0
  0
CLASS
  1
LAYOUT
  2
AcDbLayout
  3
ObjectDBX Classes
 90
        0
280
     0
281
     0
  0
ENDSEC
  0
SECTION
  2
TABLES
  0
TABLE
  2
VPORT
  5
8
330
0
100
AcDbSymbolTable
 70
     1
  0
VPORT
  5
29
330
8
100
AcDbSymbolTableRecord
100
AcDbViewportTableRecord
  2
*Active
 70
     0
 10
0.0
 20
0.0
 11
1.0
 21
1.0
 12
0.7659688825
 22
6.5368595379
 13
0.0
 23
0.0
 14
0.5
 24
0.5
 15
0.5
 25
0.5
 16
0.0
 26
0.0
 36
1.0
 17
0.0
 27
0.0
 37
0.0
 40
13.8109087533
 41
0.2169329685
 42
50.0
 43
0.0
 44
0.0
 50
0.0
 51
0.0
 71
     0
 72
   100
 73
     1
 74
     3
 75
     0
 76
     0
 77
     0
 78
     0
281
     0
 65
     1
110
0.0
120
0.0
130
0.0
111
1.0
121
0.0
131
0.0
112
0.0
122
1.0
132
0.0
 79
     0
146
0.0
  0
ENDTAB
  0
TABLE
  2
LTYPE
  5
5
330
0
100
AcDbSymbolTable
 70
     6
  0
LTYPE
  5
14
330
5
100
AcDbSymbolTableRecord
100
AcDbLinetypeTableRecord
  2
ByBlock
 70
     0
  3

 72
    65
 73
     0
 40
0.0
  0
LTYPE
  5
15
330
5
100
AcDbSymbolTableRecord
100
AcDbLinetypeTableRecord
  2
ByLayer
 70
     0
  3

 72
    65
 73
     0
 40
0.0
  0
LTYPE
  5
16
330
5
100
AcDbSymbolTableRecord
100
AcDbLinetypeTableRecord
  2
Continuous
 70
     0
  3
Solid line
 72
    65
 73
     0
 40
0.0
  0
LTYPE
  5
5E
330
5
100
AcDbSymbolTableRecord
100
AcDbLinetypeTableRecord
  2
HIDDEN
 70
     0
  3
Hidden __ __ __ __ __ __ __ __ __ __ __ __ __ __
 72
    65
 73
     2
 40
0.075
 49
0.05
 74
     0
 49
-0.025
 74
     0
  0
LTYPE
  5
5F
330
5
100
AcDbSymbolTableRecord
100
AcDbLinetypeTableRecord
  2
PHANTOM
 70
     0
  3
Phantom ______  __  __  ______  __  __  ______
 72
    65
 73
     6
 40
0.5
 49
0.25
 74
     0
 49
-0.05
 74
     0
 49
0.05
 74
     0
 49
-0.05
 74
     0
 49
0.05
 74
     0
 49
-0.05
 74
     0
  0
LTYPE
  5
60
330
5
100
AcDbSymbolTableRecord
100
AcDbLinetypeTableRecord
  2
CENTER
 70
     0
  3
Center ____ _ ____ _ ____ _ ____ _ ____ _ ____
 72
    65
 73
     4
 40
0.4
 49
0.25
 74
     0
 49
-0.05
 74
     0
 49
0.05
 74
     0
 49
-0.05
 74
     0
  0
LTYPE
  5
61
330
5
100
AcDbSymbolTableRecord
100
AcDbLinetypeTableRecord
  2
CENTERX2
 70
     0
  3
Center (2x) ________  __  ________  __  _____
 72
    65
 73
     4
 40
0.8
 49
0.5
 74
     0
 49
-0.1
 74
     0
 49
0.1
 74
     0
 49
-0.1
 74
     0
  0
LTYPE
  5
62
330
5
100
AcDbSymbolTableRecord
100
AcDbLinetypeTableRecord
  2
DOT2
 70
     0
  3
Dot (.5x) ........................................
 72
    65
 73
     2
 40
0.025
 49
0.0
 74
     0
 49
-0.025
 74
     0
  0
ENDTAB
  0
TABLE
  2
LAYER
  5
2
330
0
100
AcDbSymbolTable
 70
     1
  0
LAYER
  5
10
330
2
100
AcDbSymbolTableRecord
100
AcDbLayerTableRecord
  2
0
 70
     0
 62
     7
  6
Continuous
370
    -3
390
F
  0
ENDTAB
  0
TABLE
  2
STYLE
  5
3
330
0
100
AcDbSymbolTable
 70
     2
  0
STYLE
  5
11
330
3
100
AcDbSymbolTableRecord
100
AcDbTextStyleTableRecord
  2
Standard
 70
     0
 40
0.0
 41
1.0
 50
0.0
 71
     0
 42
0.1377952756
  3
txt
  4

  0
STYLE
  5
70
330
3
100
AcDbSymbolTableRecord
100
AcDbTextStyleTableRecord
  2
SLDTEXTSTYLE0
 70
     0
 40
0.0
 41
0.7
 50
0.0
 71
     0
 42
0.1377952756
  3
TXT
  4

  0
ENDTAB
  0
TABLE
  2
VIEW
  5
6
330
0
100
AcDbSymbolTable
 70
     0
  0
ENDTAB
  0
TABLE
  2
UCS
  5
7
330
0
100
AcDbSymbolTable
 70
     0
  0
ENDTAB
  0
TABLE
  2
APPID
  5
9
330
0
100
AcDbSymbolTable
 70
     1
  0
APPID
  5
12
330
9
100
AcDbSymbolTableRecord
100
AcDbRegAppTableRecord
  2
ACAD
 70
     0
  0
ENDTAB
  0
TABLE
  2
DIMSTYLE
  5
A
330
0
100
AcDbSymbolTable
 70
     1
100
AcDbDimStyleTable
  0
DIMSTYLE
105
27
330
A
100
AcDbSymbolTableRecord
100
AcDbDimStyleTableRecord
  2
Standard
 70
     0
178
     0
340
11
  0
ENDTAB
  0
TABLE
  2
BLOCK_RECORD
  5
1
330
0
100
AcDbSymbolTable
 70
     1
  0
BLOCK_RECORD
  5
1F
330
1
100
AcDbSymbolTableRecord
100
AcDbBlockTableRecord
  2
*Model_Space
340
22
  0
BLOCK_RECORD
  5
1B
330
1
100
AcDbSymbolTableRecord
100
AcDbBlockTableRecord
  2
*Paper_Space
340
1E
  0
BLOCK_RECORD
  5
23
330
1
100
AcDbSymbolTableRecord
100
AcDbBlockTableRecord
  2
*Paper_Space0
340
26
  0
ENDTAB
  0
ENDSEC
  0
SECTION
  2
BLOCKS
  0
BLOCK
  5
20
330
1F
100
AcDbEntity
  8
0
100
AcDbBlockBegin
  2
*Model_Space
 70
     0
 10
0.0
 20
0.0
 30
0.0
  3
*Model_Space
  1

  0
ENDBLK
  5
21
330
1F
100
AcDbEntity
  8
0
100
AcDbBlockEnd
  0
BLOCK
  5
1C
330
1B
100
AcDbEntity
 67
     1
  8
0
100
AcDbBlockBegin
  2
*Paper_Space
 70
     0
 10
0.0
 20
0.0
 30
0.0
  3
*Paper_Space
  1

  0
ENDBLK
  5
1D
330
1B
100
AcDbEntity
 67
     1
  8
0
100
AcDbBlockEnd
  0
BLOCK
  5
24
330
23
100
AcDbEntity
  8
0
100
AcDbBlockBegin
  2
*Paper_Space0
 70
     0
 10
0.0
 20
0.0
 30
0.0
  3
*Paper_Space0
  1

  0
ENDBLK
  5
25
330
23
100
AcDbEntity
  8
0
100
AcDbBlockEnd
  0
ENDSEC
  0
SECTION
  2
ENTITIES
  0
SPLINE
  5
63
330
1F
100
AcDbEntity
  8
0
  6
Continuous
 62
     7
370
    25
100
AcDbSpline
210
0.0
220
0.0
230
1.0
 70
     8
 71
     3
 72
    26
 73
    22
 74
     0
 42
0.00000001
 43
0.00000001
 40
0.0
 40
0.0
 40
0.0
 40
0.0
 40
0.0425296633614159
 40
0.0827749887035561
 40
0.1207443016493629
 40
0.1564475200852582
 40
0.1898965776984142
 40
0.2211059940844653
 40
0.2500936544683286
 40
0.3396818925590232
 40
0.4226926608476848
 40
0.5000992566897228
 40
0.5839737662626582
 40
0.6665436430439549
 40
0.7500055940510224
 40
0.7867475891950757
 40
0.8252862461902376
 40
0.8657651871886027
 40
0.9083083881875952
 40
0.9530226582103256
 40
1.0
 40
1.0
 40
1.0
 40
1.0
 10
0.7789904662084836
 20
-0.2216482873803286
 30
0.0
 10
0.7876896813561011
 20
-0.2142658527681074
 30
0.0
 10
0.8046208625285138
 20
-0.1998975062228185
 30
0.0
 10
0.8296658283725531
 20
-0.1793529500779803
 30
0.0
 10
0.8535698050526217
 20
-0.1603106010954137
 30
0.0
 10
0.8763539293617915
 20
-0.1427945200070657
 30
0.0
 10
0.8980141322607904
 20
-0.1268002494843116
 30
0.0
 10
0.9185481648760243
 20
-0.1123215828696328
 30
0.0
 10
0.9519889495278643
 20
-0.0900390505069361
 30
0.0
 10
0.9986865921812842
 20
-0.0625947011477108
 30
0.0
 10
1.059705392089296
 20
-0.0344570231883465
 30
0.0
 10
1.122151815915439
 20
-0.014029374852152
 30
0.0
 10
1.186883746039028
 20
-0.0027691849501785
 30
0.0
 10
1.254220446282941
 20
-0.002250917221792
 30
0.0
 10
1.308211545353935
 20
-0.0107573901803497
 30
0.0
 10
1.349284861624968
 20
-0.0220917169373661
 30
0.0
 10
1.378643893971554
 20
-0.0322769111554373
 30
0.0
 10
1.408801893976269
 20
-0.0447286583399932
 30
0.0
 10
1.439746004767336
 20
-0.0594790380987135
 30
0.0
 10
1.471540258510927
 20
-0.0764242775228729
 30
0.0
 10
1.49260444549188
 20
-0.0891337816141266
 30
0.0
 10
1.503396485153593
 20
-0.0956453774501078
 30
0.0
  0
SPLINE
  5
64
330
1F
100
AcDbEntity
  8
0
  6
Continuous
 62
     7
370
    25
100
AcDbSpline
210
0.0
220
0.0
230
1.0
 70
     8
 71
     3
 72
    36
 73
    32
 74
     0
 42
0.00000001
 43
0.00000001
 40
0.0
 40
0.0
 40
0.0
 40
0.0
 40
0.0312157042073345
 40
0.0618087703762806
 40
0.091789831107298
 40
0.1211701834533497
 40
0.1499618315805604
 40
0.1781775310449689
 40
0.2058308344124219
 40
0.2329361378506911
 40
0.2595087282082508
 40
0.285564829962399
 40
0.31112165127132
 40
0.3361974282022836
 40
0.3608114660353697
 40
0.3849841763651507
 40
0.4087371085506336
 40
0.4320929739084102
 40
0.455075660920481
 40
0.4777102396543735
 40
0.500022953588553
 40
0.5436391069586877
 40
0.5882525647668898
 40
0.6340449279843348
 40
0.6811841745747246
 40
0.7298243301852675
 40
0.7801056292452865
 40
0.8321550428937151
 40
0.8860870557966711
 40
0.9420045906048221
 40
1.0
 40
1.0
 40
1.0
 40
1.0
 10
0.0976057609180651
 20
-0.2331937725041528
 30
0.0
 10
0.104140494672496
 20
-0.229526547368322
 30
0.0
 10
0.1170796183717412
 20
-0.2222652446972943
 30
0.0
 10
0.136538159336306
 20
-0.2119242428728962
 30
0.0
 10
0.155784126277129
 20
-0.2021309772449659
 30
0.0
 10
0.1748344022204024
 20
-0.1929151198985025
 30
0.0
 10
0.1936846340623697
 20
-0.1842689696949723
 30
0.0
 10
0.2123359904401568
 20
-0.1761945440118553
 30
0.0
 10
0.2307882062860679
 20
-0.1686913388323188
 30
0.0
 10
0.249041390320323
 20
-0.1617595108676419
 30
0.0
 10
0.2670955546589001
 20
-0.1553990510818547
 30
0.0
 10
0.2849507363808589
 20
-0.1496100001736626
 30
0.0
 10
0.3026069649734562
 20
-0.1443923932644542
 30
0.0
 10
0.3200642697937486
 20
-0.1397462744553903
 30
0.0
 10
0.3373226763697263
 20
-0.135671694732353
 30
0.0
 10
0.3543822073452734
 20
-0.1321687079875764
 30
0.0
 10
0.3712428749287487
 20
-0.1292373891132275
 30
0.0
 10
0.3879047011904258
 20
-0.1268777665504153
 30
0.0
 10
0.4043676371459636
 20
-0.1250900658685858
 30
0.0
 10
0.4206318502403374
 20
-0.1238738181861759
 30
0.0
 10
0.4418779375556794
 20
-0.1230238192649001
 30
0.0
 10
0.4684330249966406
 20
-0.1233506162514814
 30
0.0
 10
0.5005287030065126
 20
-0.1258470654906147
 30
0.0
 10
0.5332434505505583
 20
-0.1304544569525828
 30
0.0
 10
0.5665758436723339
 20
-0.1371701251343761
 30
0.0
 10
0.6005265764752223
 20
-0.1459923280794766
 30
0.0
 10
0.6350949890568978
 20
-0.1569214812007078
 30
0.0
 10
0.6702856084859686
 20
-0.1699494070948816
 30
0.0
 10
0.7060837533555167
 20
-0.1851034070027805
 30
0.0
 10
0.7425506613399426
 20
-0.2022721751679631
 30
0.0
 10
0.7666970408241979
 20
-0.2151115086662035
 30
0.0
 10
0.7789904564091826
 20
-0.2216482759124481
 30
0.0
  0
SPLINE
  5
65
330
1F
100
AcDbEntity
  8
0
  6
Continuous
 62
     7
370
    25
100
AcDbSpline
210
0.0
220
0.0
230
1.0
 70
     8
 71
     3
 72
    31
 73
    27
 74
     0
 42
0.00000001
 43
0.00000001
 40
0.0
 40
0.0
 40
0.0
 40
0.0
 40
0.0312166483424401
 40
0.0621044477321042
 40
0.0926822440151468
 40
0.1229694617300306
 40
0.1529860895433088
 40
0.1827526612411574
 40
0.2122902321127809
 40
0.2416203506317961
 40
0.2707650254227986
 40
0.2997466875904103
 40
0.3285881485851712
 40
0.3573125538813207
 40
0.3859433328423112
 40
0.4145041452467086
 40
0.4430188250358225
 40
0.4715113219208401
 40
0.5000056415477437
 40
0.5615642070210195
 40
0.6261234754949709
 40
0.6938815353358047
 40
0.7650097545292736
 40
0.8396562937833636
 40
0.917949342289147
 40
1.0
 40
1.0
 40
1.0
 40
1.0
 10
-0.412349086026484
 20
-0.1556208459869859
 30
0.0
 10
-0.4070318816800846
 20
-0.1540907680224011
 30
0.0
 10
-0.3964534865945705
 20
-0.1510467305608793
 30
0.0
 10
-0.3805325801548453
 20
-0.1469921443547738
 30
0.0
 10
-0.3646833070780273
 20
-0.1433461443193854
 30
0.0
 10
-0.3488956980281999
 20
-0.1401425136678846
 30
0.0
 10
-0.3331723945468733
 20
-0.1373723640390432
 30
0.0
 10
-0.3175127119511278
 20
-0.1350380739089682
 30
0.0
 10
-0.3019168481873037
 20
-0.1331390438043497
 30
0.0
 10
-0.2863847714371185
 20
-0.1316754608502503
 30
0.0
 10
-0.2709165143416595
 20
-0.1306473021526705
 30
0.0
 10
-0.2555120959921119
 20
-0.1300545987876662
 30
0.0
 10
-0.2401715422224456
 20
-0.1298973629163866
 30
0.0
 10
-0.2248948804377937
 20
-0.1301756153818495
 30
0.0
 10
-0.2096821385249541
 20
-0.1308893453644988
 30
0.0
 10
-0.1945333521827106
 20
-0.1320386416349799
 30
0.0
 10
-0.1794485342804082
 20
-0.1336232075324071
 30
0.0
 10
-0.1644277870465156
 20
-0.1356441650784039
 30
0.0
 10
-0.1436917894065698
 20
-0.1390451871898438
 30
0.0
 10
-0.1168706558752442
 20
-0.1447524410408287
 30
0.0
 10
-0.0837179222260105
 20
-0.1538511583595848
 30
0.0
 10
-0.0494817698045778
 20
-0.1652148787253249
 30
0.0
 10
-0.014158825618437
 20
-0.1788388189533424
 30
0.0
 10
0.0222389557473432
 20
-0.1947469636213787
 30
0.0
 10
0.0597683544556386
 20
-0.2128383880461654
 30
0.0
 10
0.0847977674200941
 20
-0.2263034511503604
 30
0.0
 10
0.0976057524935803
 20
-0.2331937576668176
 30
0.0
  0
SPLINE
  5
66
330
1F
100
AcDbEntity
  8
0
  6
Continuous
 62
     7
370
    25
100
AcDbSpline
210
0.0
220
0.0
230
1.0
 70
     8
 71
     3
 72
    22
 73
    18
 74
     0
 42
0.00000001
 43
0.00000001
 40
0.0
 40
0.0
 40
0.0
 40
0.0
 40
0.0404894716616091
 40
0.081930180115265
 40
0.124337772615717
 40
0.1677268503780511
 40
0.2121110459806143
 40
0.2575030954204147
 40
0.3039149049977551
 40
0.3513576132570795
 40
0.3998416482433937
 40
0.449376780351502
 40
0.4999721710528274
 40
0.5895004147990521
 40
0.7026696023108304
 40
0.8394991815821908
 40
1.0
 40
1.0
 40
1.0
 40
1.0
 10
-0.7026788793276736
 20
0.2061414250781914
 30
0.0
 10
-0.6980572552739935
 20
0.2018968361401521
 30
0.0
 10
-0.6887054293398928
 20
0.1933079382875146
 30
0.0
 10
-0.6748493021525188
 20
0.1799146424583721
 30
0.0
 10
-0.6609120929524762
 20
0.1659645657376683
 30
0.0
 10
-0.6469192168649142
 20
0.151429681895064
 30
0.0
 10
-0.6328635900095807
 20
0.1363177543535684
 30
0.0
 10
-0.6187471649055354
 20
0.1206266052742805
 30
0.0
 10
-0.6045693134340923
 20
0.1043568716734
 30
0.0
 10
-0.5903304292001478
 20
0.0875081813036896
 30
0.0
 10
-0.5760294545872442
 20
0.0700813243169526
 30
0.0
 10
-0.5616702497326965
 20
0.0520733658856822
 30
0.0
 10
-0.5436378933219526
 20
0.0288614207540017
 30
0.0
 10
-0.5202024740189932
 20
-0.0026328247854375
 30
0.0
 10
-0.4894488809629577
 20
-0.0453287815971839
 30
0.0
 10
-0.4527640071266359
 20
-0.0973041191328269
 30
0.0
 10
-0.4265172538408478
 20
-0.1351768757285655
 30
0.0
 10
-0.4123490913659729
 20
-0.1556208278996082
 30
0.0
  0
SPLINE
  5
68
330
1F
100
AcDbEntity
  8
0
  6
Continuous
 62
     7
370
    25
100
AcDbSpline
210
0.0
220
0.0
230
1.0
 70
     8
 71
     3
 72
    37
 73
    33
 74
     0
 42
0.00000001
 43
0.00000001
 40
0.0
 40
0.0
 40
0.0
 40
0.0
 40
0.0190219375987974
 40
0.0384973985877515
 40
0.0584315781373214
 40
0.0788293209232101
 40
0.0996951487300964
 40
0.121033285767718
 40
0.1428476818691134
 40
0.1651420337359726
 40
0.1879198043889704
 40
0.2111842409723098
 40
0.2349383910522964
 40
0.2591851175399497
 40
0.2839271123579584
 40
0.3091669089626077
 40
0.3349068938222802
 40
0.3611493169453617
 40
0.3878963015422845
 40
0.4151498528989003
 40
0.4429118665313755
 40
0.4711841356864063
 40
0.4999683582446331
 40
0.5600019103736202
 40
0.6188805843690385
 40
0.6766185450358192
 40
0.7332308134299064
 40
0.7887333245780952
 40
0.8431429885639216
 40
0.8964777549608198
 40
0.9487566805278023
 40
1.0
 40
1.0
 40
1.0
 40
1.0
 10
-0.449635239933943
 20
13.12983691519619
 30
0.0
 10
-0.4495961048791418
 20
13.12241413942037
 30
0.0
 10
-0.4495169017067201
 20
13.10739161313014
 30
0.0
 10
-0.4498859329080408
 20
13.08459194679613
 30
0.0
 10
-0.4506055797222068
 20
13.06126445250224
 30
0.0
 10
-0.4517135330777133
 20
13.03740872935039
 30
0.0
 10
-0.4531993335917717
 20
13.01302486062138
 30
0.0
 10
-0.4550658796595506
 20
12.98811279757101
 30
0.0
 10
-0.4573123676035013
 20
12.96267253020538
 30
0.0
 10
-0.4599390208987406
 20
12.9367040397969
 30
0.0
 10
-0.462945779436071
 20
12.91020731189982
 30
0.0
 10
-0.466332662362429
 20
12.8831823326036
 30
0.0
 10
-0.4700996674643326
 20
12.85562908943457
 30
0.0
 10
-0.4742467988507449
 20
12.82754757096989
 30
0.0
 10
-0.4787740592567848
 20
12.79893776684191
 30
0.0
 10
-0.4836814517841211
 20
12.76979966753968
 30
0.0
 10
-0.4889689804680712
 20
12.74013326467
 30
0.0
 10
-0.4946366457334456
 20
12.70993854958059
 30
0.0
 10
-0.5006844622130093
 20
12.6792155182795
 30
0.0
 10
-0.5071123899913154
 20
12.64796415221292
 30
0.0
 10
-0.5139205984193045
 20
12.61618449174046
 30
0.0
 10
-0.521108453803684
 20
12.58387635395132
 30
0.0
 10
-0.5313727460775032
 20
12.5393532367696
 30
0.0
 10
-0.5449307896740877
 20
12.48333447280607
 30
0.0
 10
-0.5621593592871273
 20
12.41658736078486
 30
0.0
 10
-0.5800880566925287
 20
12.35140825690216
 30
0.0
 10
-0.5987149163299895
 20
12.28779662852355
 30
0.0
 10
-0.6180426706016173
 20
12.22575345069952
 30
0.0
 10
-0.6380628120293147
 20
12.16527521110356
 30
0.0
 10
-0.6588060822686672
 20
12.10637439944584
 30
0.0
 10
-0.6801614784755853
 20
12.04900561331924
 30
0.0
 10
-0.6952233037337744
 20
12.01152082166198
 30
0.0
 10
-0.7026788793276741
 20
11.99296591924932
 30
0.0
  0
SPLINE
  5
69
330
1F
100
AcDbEntity
  8
0
  6
Continuous
 62
     7
370
    25
100
AcDbSpline
210
0.0
220
0.0
230
1.0
 70
     8
 71
     3
 72
    21
 73
    17
 74
     0
 42
0.00000001
 43
0.00000001
 40
0.0
 40
0.0
 40
0.0
 40
0.0
 40
0.0403631718205691
 40
0.085440490894325
 40
0.1352604787886477
 40
0.1898442230368919
 40
0.2492077347421237
 40
0.3133634465007211
 40
0.382321198958137
 40
0.4560889110018187
 40
0.5346730474403789
 40
0.6180789531238573
 40
0.706311096639823
 40
0.7993732513506243
 40
0.8972686321040818
 40
1.0
 40
1.0
 40
1.0
 40
1.0
 10
-0.2708904047947423
 20
13.30691283556154
 30
0.0
 10
-0.2735676552611406
 20
13.30483556066033
 30
0.0
 10
-0.2792348410589512
 20
13.30043839910745
 30
0.0
 10
-0.2879419544018693
 20
13.29314690326471
 30
0.0
 10
-0.2974036947136322
 20
13.2849037607962
 30
0.0
 10
-0.3075943185722407
 20
13.27567467579392
 30
0.0
 10
-0.3185217054298154
 20
13.26546955451781
 30
0.0
 10
-0.3301833515422305
 20
13.25428487603921
 30
0.0
 10
-0.3425799261777275
 20
13.24212135396444
 30
0.0
 10
-0.3557111430814114
 20
13.22897851016818
 30
0.0
 10
-0.3695770426345651
 20
13.21485631551877
 30
0.0
 10
-0.3841774558008237
 20
13.19975454108297
 30
0.0
 10
-0.3995127826042554
 20
13.1836735074457
 30
0.0
 10
-0.4155812430339124
 20
13.16661154426326
 30
0.0
 10
-0.4323898559719504
 20
13.14857506475455
 30
0.0
 10
-0.4437951390799083
 20
13.13618253654017
 30
0.0
 10
-0.4496352393796366
 20
13.12983691521239
 30
0.0
  0
SPLINE
  5
6A
330
1F
100
AcDbEntity
  8
0
  6
Continuous
 62
     7
370
    25
100
AcDbSpline
210
0.0
220
0.0
230
1.0
 70
     8
 71
     3
 72
    45
 73
    41
 74
     0
 42
0.00000001
 43
0.00000001
 40
0.0
 40
0.0
 40
0.0
 40
0.0
 40
0.0312591142156117
 40
0.0625166153694389
 40
0.0937741165232655
 40
0.1250332307388781
 40
0.1606026012297071
 40
0.1932775373266477
 40
0.223084997617554
 40
0.2500605390815965
 40
0.2859488297860761
 40
0.3185609845879003
 40
0.3481496940189359
 40
0.3750529775474882
 40
0.4071920376474636
 40
0.4377595833546284
 40
0.4681739078353153
 40
0.4998738768144885
 40
0.5315923812227976
 40
0.5667236333790918
 40
0.6057974015707736
 40
0.6491993251431711
 40
0.697210862353824
 40
0.7500398465134167
 40
0.7679011258074432
 40
0.785762359597066
 40
0.8036235660839924
 40
0.8214847634700095
 40
0.8393459699569353
 40
0.8572072037465586
 40
0.8750684830405848
 40
0.8928966402826435
 40
0.9097193277704864
 40
0.9255422346214708
 40
0.9403722006144045
 40
0.9542175371839334
 40
0.9670884633872334
 40
0.9789977069053322
 40
0.9899613451815271
 40
0.9999999999999999
 40
0.9999999999999999
 40
0.9999999999999999
 40
0.9999999999999999
 10
1.024465339594486
 20
13.13738389511267
 30
0.0
 10
1.013676068452481
 20
13.12123828885372
 30
0.0
 10
0.9920980829264412
 20
13.08894790949635
 30
0.0
 10
0.959296489711594
 20
13.04080551261488
 30
0.0
 10
0.9261540262275647
 20
12.99289772153816
 30
0.0
 10
0.891203072375299
 20
12.94298521571261
 30
0.0
 10
0.8550313398452877
 20
12.89285389139012
 30
0.0
 10
0.8180311403873507
 20
12.84445729784753
 30
0.0
 10
0.7829409139129027
 20
12.80134998013262
 30
0.0
 10
0.7449257097524666
 20
12.75809878603835
 30
0.0
 10
0.7033229028238978
 20
12.71575080507652
 30
0.0
 10
0.6572795206510923
 20
12.67572487481834
 30
0.0
 10
0.6121313012821266
 20
12.64351692685811
 30
0.0
 10
0.5637726855430686
 20
12.61690729409656
 30
0.0
 10
0.5109825729453137
 20
12.59810328832524
 30
0.0
 10
0.4531696732569331
 20
12.59048671818685
 30
0.0
 10
0.3953672924728955
 20
12.5959119594954
 30
0.0
 10
0.3394825802852582
 20
12.61384919832329
 30
0.0
 10
0.2851984918835594
 20
12.64263696045824
 30
0.0
 10
0.2315658827095061
 20
12.68103173520778
 30
0.0
 10
0.1770669815779483
 20
12.72986527993969
 30
0.0
 10
0.1216373915624226
 20
12.78912462172616
 30
0.0
 10
0.0651660603716056
 20
12.85878164759538
 30
0.0
 10
0.0223616935621073
 20
12.91886793437591
 30
0.0
 10
-0.0085248704560004
 20
12.96438631001364
 30
0.0
 10
-0.0273356651142816
 20
12.99184916276762
 30
0.0
 10
-0.0461489487942844
 20
13.01930976684467
 30
0.0
 10
-0.0649976011272252
 20
13.04674622120655
 30
0.0
 10
-0.0838684797899679
 20
13.0741673711638
 30
0.0
 10
-0.1027812745305376
 20
13.10155973645338
 30
0.0
 10
-0.121658670003339
 20
13.12895141812749
 30
0.0
 10
-0.1403843928189278
 20
13.15566439324211
 30
0.0
 10
-0.1588712251827558
 20
13.1809924620724
 30
0.0
 10
-0.1767078153753219
 20
13.20448257381147
 30
0.0
 10
-0.1939090317653679
 20
13.226125252133
 30
0.0
 10
-0.2104732715944596
 20
13.24592133989574
 30
0.0
 10
-0.2263946851012258
 20
13.26387935499817
 30
0.0
 10
-0.2416967173897773
 20
13.27997304816845
 30
0.0
 10
-0.2563032670328074
 20
13.29429503420018
 30
0.0
 10
-0.2661729127211643
 20
13.30283224228381
 30
0.0
 10
-0.2708903959883222
 20
13.30691284837186
 30
0.0
  0
SPLINE
  5
6B
330
1F
100
AcDbEntity
  8
0
  6
Continuous
 62
     7
370
    25
100
AcDbSpline
210
0.0
220
0.0
230
1.0
 70
     8
 71
     3
 72
    53
 73
    49
 74
     0
 42
0.00000001
 43
0.00000001
 40
0.0
 40
0.0
 40
0.0
 40
0.0
 40
0.0130784504339289
 40
0.025660542728477
 40
0.037749146673067
 40
0.0493474983755561
 40
0.0604592622843587
 40
0.0710886061107746
 40
0.0812402917471703
 40
0.0909197860730684
 40
0.1001333965279795
 40
0.1088884375267088
 40
0.1171934351925055
 40
0.1250583794156508
 40
0.1471813997071081
 40
0.1664777949423982
 40
0.1835693010976375
 40
0.1993406094628387
 40
0.2149032128364267
 40
0.2314108156695047
 40
0.2498404968968976
 40
0.2754411287665305
 40
0.3070215460210078
 40
0.3450337918754439
 40
0.3897352079035545
 40
0.4412830500894998
 40
0.4997793846090648
 40
0.5190774299770097
 40
0.5463557597034643
 40
0.5816148915756109
 40
0.6248550566789023
 40
0.6628550018479217
 40
0.696365883238278
 40
0.7253898862041265
 40
0.749930394810466
 40
0.7855457823342548
 40
0.8182367125143473
 40
0.8480394373509105
 40
0.8750018612664726
 40
0.8895840561244891
 40
0.903944988871591
 40
0.9181040014299069
 40
0.9320812740056413
 40
0.9458977831688251
 40
0.95957524517851
 40
0.9731360443203947
 40
0.98660314662478
 40
1.0
 40
1.0
 40
1.0
 40
1.0
 10
2.234616644278109
 20
11.99274398349567
 30
0.0
 10
2.230723754420869
 20
11.98379091183208
 30
0.0
 10
2.223085719087583
 20
11.96622455875874
 30
0.0
 10
2.211385213377489
 20
11.94058843770885
 30
0.0
 10
2.19978172092437
 20
11.91612631569632
 30
0.0
 10
2.188245406776082
 20
11.89285090221396
 30
0.0
 10
2.176783781834505
 20
11.87075883095296
 30
0.0
 10
2.165394923632628
 20
11.84985076829109
 30
0.0
 10
2.154079277964074
 20
11.83012630056516
 30
0.0
 10
2.142836596072407
 20
11.81158536231685
 30
0.0
 10
2.131666988931989
 20
11.79422735870889
 30
0.0
 10
2.120569604603901
 20
11.7780531646834
 30
0.0
 10
2.109546526205485
 20
11.76305846121892
 30
0.0
 10
2.091772604245552
 20
11.74067013790288
 30
0.0
 10
2.066723306189087
 20
11.71356586452118
 30
0.0
 10
2.032357413104705
 20
11.68625524431112
 30
0.0
 10
1.997320376519604
 20
11.66850851201787
 30
0.0
 10
1.961555301329842
 20
11.66073480148728
 30
0.0
 10
1.925456712387002
 20
11.66330811516372
 30
0.0
 10
1.889581039347677
 20
11.67606042673217
 30
0.0
 10
1.85107129549904
 20
11.70026036153655
 30
0.0
 10
1.809931345441258
 20
11.73935225821287
 30
0.0
 10
1.765641201893786
 20
11.79508486527988
 30
0.0
 10
1.718928817327092
 20
11.86658333655846
 30
0.0
 10
1.669799076075881
 20
11.95399744192953
 30
0.0
 10
1.618251932006097
 20
12.05740844253123
 30
0.0
 10
1.57840637965095
 20
12.14537563505701
 30
0.0
 10
1.547556859256484
 20
12.21748743963438
 30
0.0
 10
1.523848458122409
 20
12.2737868644882
 30
0.0
 10
1.493388284192733
 20
12.34663456339195
 30
0.0
 10
1.460070663888917
 20
12.42696177809067
 30
0.0
 10
1.42709589081029
 20
12.50601868667808
 30
0.0
 10
1.397666509607492
 20
12.5750543751742
 30
0.0
 10
1.371660344428873
 20
12.63462523493031
 30
0.0
 10
1.344266961688756
 20
12.69529998728996
 30
0.0
 10
1.314371449395932
 20
12.7578382575349
 30
0.0
 10
1.280829304741988
 20
12.82295563539778
 30
0.0
 10
1.24811198185332
 20
12.88118513430631
 30
0.0
 10
1.220050088727593
 20
12.92647946451091
 30
0.0
 10
1.196472203696496
 20
12.96092232169499
 30
0.0
 10
1.177326388084774
 20
12.98678943599295
 30
0.0
 10
1.157517313958513
 20
13.01157659713166
 30
0.0
 10
1.137038709833224
 20
13.03527978552514
 30
0.0
 10
1.115890858165067
 20
13.05789800109774
 30
0.0
 10
1.094078405311003
 20
13.07943765104787
 30
0.0
 10
1.07158267704822
 20
13.09987292229794
 30
0.0
 10
1.048473183269792
 20
13.11929810686149
 30
0.0
 10
1.032453996699794
 20
13.13136581332968
 30
0.0
 10
1.024465348407335
 20
13.1373838881083
 30
0.0
  0
SPLINE
  5
6D
330
1F
100
AcDbEntity
  8
0
  6
Continuous
 62
     7
370
    25
100
AcDbSpline
210
0.0
220
0.0
230
1.0
 70
     8
 71
     3
 72
    31
 73
    27
 74
     0
 42
0.00000001
 43
0.00000001
 40
0.0
 40
0.0
 40
0.0
 40
0.0
 40
0.0464287971475364
 40
0.0904992037110474
 40
0.1322161025887297
 40
0.1715852523948887
 40
0.2086135071220626
 40
0.2433091080970088
 40
0.2756820781967164
 40
0.3057447634781723
 40
0.3335125917472104
 40
0.3938411010516173
 40
0.4493334284140361
 40
0.5002685129152857
 40
0.5692779369853739
 40
0.6324910988910568
 40
0.6919508782416124
 40
0.7500971178224599
 40
0.7763744166251001
 40
0.803702016069631
 40
0.832295753119822
 40
0.86234419323986
 40
0.8940099248255475
 40
0.9274319416426611
 40
0.9627284954042863
 40
1.0
 40
1.0
 40
1.0
 40
1.0
 10
1.503396494379199
 20
-0.0956453838906361
 30
0.0
 10
1.511695508822215
 20
-0.0838211542470317
 30
0.0
 10
1.527871982149594
 20
-0.060773316848998
 30
0.0
 10
1.551917481386896
 20
-0.0273934869223712
 30
0.0
 10
1.575007670539372
 20
0.0039644171811698
 30
0.0
 10
1.5971678839937
 20
0.0332829328052984
 30
0.0
 10
1.618391955753609
 20
0.0605665589005073
 30
0.0
 10
1.63868067940991
 20
0.0858152905793139
 30
0.0
 10
1.658035823910319
 20
0.1090277069060055
 30
0.0
 10
1.6764499873971
 20
0.1302119001950197
 30
0.0
 10
1.701263502895671
 20
0.1573429500017845
 30
0.0
 10
1.73276622458577
 20
0.1890615815405106
 30
0.0
 10
1.77162482202102
 20
0.2235075652388263
 30
0.0
 10
1.815165220169255
 20
0.2565156937728515
 30
0.0
 10
1.864327147072782
 20
0.2857686072027204
 30
0.0
 10
1.920218602814272
 20
0.3074975429577083
 30
0.0
 10
1.97599392717346
 20
0.3173950790671593
 30
0.0
 10
2.021111598508476
 20
0.3156947748854596
 30
0.0
 10
2.05526863562694
 20
0.3089740492980293
 30
0.0
 10
2.079826260645273
 20
0.3017016717983228
 30
0.0
 10
2.104764532007586
 20
0.2919499119373087
 30
0.0
 10
2.130086637578839
 20
0.2797136286068091
 30
0.0
 10
2.155799739327924
 20
0.2650044790379242
 30
0.0
 10
2.181886865167243
 20
0.2478004337998186
 30
0.0
 10
2.208432320760336
 20
0.2281970534850515
 30
0.0
 10
2.22573160223961
 20
0.2136802565015715
 30
0.0
 10
2.23461664427811
 20
0.2062243195820444
 30
0.0
  0
LINE
  5
6E
330
1F
100
AcDbEntity
  8
0
  6
Continuous
 62
     7
370
    25
100
AcDbLine
 10
-0.7026788793
 20
11.9929659192
 30
0.0
 11
-0.7026788793
 21
0.2061414251
 31
0.0
  0
LINE
  5
6F
330
1F
100
AcDbEntity
  8
0
  6
Continuous
 62
     7
370
    25
100
AcDbLine
 10
2.2346166443
 20
0.2062243196
 30
0.0
 11
2.2346166443
 21
11.9927439835
 31
0.0
  0
MTEXT
  5
71
330
1F
100
AcDbEntity
  8
0
  6
Continuous
 62
     7
100
AcDbMText
 10
-0.7026788793
 20
-0.2733341816
 30
0.0
 40
0.1903
 41
0.0
 71
     1
 72
     1
  1
SOLIDWORKS Educational Product.
  7
SLDTEXTSTYLE0
 73
     1
 44
1.0
  0
MTEXT
  5
72
330
1F
100
AcDbEntity
  8
0
  6
Continuous
 62
     7
100
AcDbMText
 10
-0.7026788793
 20
-0.5587841816
 30
0.0
 40
0.1903
 41
0.0
 71
     1
 72
     1
  1
For Instructional Use Only.
  7
SLDTEXTSTYLE0
 73
     1
 44
1.0
  0
ENDSEC
  0
SECTION
  2
OBJECTS
  0
DICTIONARY
  5
C
330
0
100
AcDbDictionary
281
     1
  3
ACAD_GROUP
350
D
  3
ACAD_LAYOUT
350
1A
  3
ACAD_MLINESTYLE
350
17
  3
ACAD_PLOTSETTINGS
350
19
  3
ACAD_PLOTSTYLENAME
350
E
  3
ACAD_SCALELIST
350
47
  3
DWGPROPS
350
73
  0
DICTIONARY
  5
D
102
{ACAD_REACTORS
330
C
102
}
330
C
100
AcDbDictionary
281
     1
  0
DICTIONARY
  5
1A
102
{ACAD_REACTORS
330
C
102
}
330
C
100
AcDbDictionary
281
     1
  3
Layout1
350
1E
  3
Layout2
350
26
  3
Model
350
22
  0
DICTIONARY
  5
17
102
{ACAD_REACTORS
330
C
102
}
330
C
100
AcDbDictionary
281
     1
  3
Standard
350
18
  0
DICTIONARY
  5
19
102
{ACAD_REACTORS
330
C
102
}
330
C
100
AcDbDictionary
281
     1
  0
ACDBDICTIONARYWDFLT
  5
E
102
{ACAD_REACTORS
330
C
102
}
330
C
100
AcDbDictionary
281
     1
  3
Normal
350
F
100
AcDbDictionaryWithDefault
340
F
  0
DICTIONARY
  5
47
102
{ACAD_REACTORS
330
C
102
}
330
C
100
AcDbDictionary
281
     1
  3
A0
350
48
  3
A1
350
49
  3
A2
350
4A
  3
A3
350
4B
  3
A4
350
4C
  3
A5
350
4D
  3
A6
350
4E
  3
A7
350
4F
  3
A8
350
50
  3
A9
350
51
  3
B1
350
52
  3
B2
350
53
  3
B3
350
54
  3
B4
350
55
  3
B5
350
56
  3
B6
350
57
  3
B7
350
58
  0
XRECORD
  5
73
102
{ACAD_REACTORS
330
C
102
}
330
C
100
AcDbXrecord
280
     1
  1
DWGPROPS COOKIE
  2

  3

  4

  6

  7

  8
manny
  9

300
=
301
=
302
=
303
=
304
=
305
=
306
=
307
=
308
=
309
=
 40
0.0
 41
2460633.186576458
 42
2460633.186625857
  1

 90
        0
  0
LAYOUT
  5
1E
102
{ACAD_REACTORS
330
1A
102
}
330
1A
100
AcDbPlotSettings
  1

  2
none_device
  4

  6

 40
0.0
 41
0.0
 42
0.0
 43
0.0
 44
0.0
 45
0.0
 46
0.0
 47
0.0
 48
0.0
 49
0.0
140
0.0
141
0.0
142
1.0
143
1.0
 70
   688
 72
     0
 73
     0
 74
     5
  7

 75
    16
147
1.0
148
0.0
149
0.0
100
AcDbLayout
  1
Layout1
 70
     1
 71
     1
 10
0.0
 20
0.0
 11
12.0
 21
9.0
 12
0.0
 22
0.0
 32
0.0
 14
1.0000000000E+20
 24
1.0000000000E+20
 34
1.0000000000E+20
 15
-1.0000000000E+20
 25
-1.0000000000E+20
 35
-1.0000000000E+20
146
0.0
 13
0.0
 23
0.0
 33
0.0
 16
1.0
 26
0.0
 36
0.0
 17
0.0
 27
1.0
 37
0.0
 76
     0
330
1B
  0
LAYOUT
  5
26
102
{ACAD_REACTORS
330
1A
102
}
330
1A
100
AcDbPlotSettings
  1

  2
none_device
  4

  6

 40
0.0
 41
0.0
 42
0.0
 43
0.0
 44
0.0
 45
0.0
 46
0.0
 47
0.0
 48
0.0
 49
0.0
140
0.0
141
0.0
142
1.0
143
1.0
 70
   688
 72
     0
 73
     0
 74
     5
  7

 75
    16
147
1.0
148
0.0
149
0.0
100
AcDbLayout
  1
Layout2
 70
     1
 71
     2
 10
0.0
 20
0.0
 11
0.0
 21
0.0
 12
0.0
 22
0.0
 32
0.0
 14
0.0
 24
0.0
 34
0.0
 15
0.0
 25
0.0
 35
0.0
146
0.0
 13
0.0
 23
0.0
 33
0.0
 16
1.0
 26
0.0
 36
0.0
 17
0.0
 27
1.0
 37
0.0
 76
     0
330
23
  0
LAYOUT
  5
22
102
{ACAD_REACTORS
330
1A
102
}
330
1A
100
AcDbPlotSettings
  1

  2
none_device
  4
ANSI_A_(11.00_x_8.50_Inches)
  6

 40
6.35
 41
19.05
 42
6.35000508
 43
19.05000254
 44
279.4
 45
215.9
 46
121.2585893571
 47
-14.289358165
 48
0.0
 49
0.0
140
0.0
141
0.0
142
0.621486982
143
1.0
 70
  1696
 72
     0
 73
     0
 74
     0
  7

 75
     0
147
0.5913241897
148
-39.4088153714
149
0.0
100
AcDbLayout
  1
Model
 70
     1
 71
     0
 10
0.0
 20
0.0
 11
12.0
 21
9.0
 12
0.0
 22
0.0
 32
0.0
 14
-0.7026788793
 24
-0.2331937725
 34
0.0
 15
2.2346166443
 25
13.3069128484
 35
0.0
146
0.0
 13
0.0
 23
0.0
 33
0.0
 16
1.0
 26
0.0
 36
0.0
 17
0.0
 27
1.0
 37
0.0
 76
     0
330
1F
331
29
  0
MLINESTYLE
  5
18
102
{ACAD_REACTORS
330
17
102
}
330
17
100
AcDbMlineStyle
  2
Standard
 70
     0
  3

 62
   256
 51
90.0
 52
90.0
 71
     2
 49
0.5
 62
   256
  6
BYLAYER
 49
-0.5
 62
   256
  6
BYLAYER
  0
ACDBPLACEHOLDER
  5
F
102
{ACAD_REACTORS
330
E
102
}
330
E
  0
SCALE
  5
48
102
{ACAD_REACTORS
330
47
102
}
330
47
100
AcDbScale
 70
     0
300
1:1
140
1.0
141
1.0
290
     1
  0
SCALE
  5
49
102
{ACAD_REACTORS
330
47
102
}
330
47
100
AcDbScale
 70
     0
300
1/128" = 1'-0"
140
0.0078125
141
12.0
290
     0
  0
SCALE
  5
4A
102
{ACAD_REACTORS
330
47
102
}
330
47
100
AcDbScale
 70
     0
300
1/64" = 1'-0"
140
0.015625
141
12.0
290
     0
  0
SCALE
  5
4B
102
{ACAD_REACTORS
330
47
102
}
330
47
100
AcDbScale
 70
     0
300
1/32" = 1'-0"
140
0.03125
141
12.0
290
     0
  0
SCALE
  5
4C
102
{ACAD_REACTORS
330
47
102
}
330
47
100
AcDbScale
 70
     0
300
1/16" = 1'-0"
140
0.0625
141
12.0
290
     0
  0
SCALE
  5
4D
102
{ACAD_REACTORS
330
47
102
}
330
47
100
AcDbScale
 70
     0
300
3/32" = 1'-0"
140
0.09375
141
12.0
290
     0
  0
SCALE
  5
4E
102
{ACAD_REACTORS
330
47
102
}
330
47
100
AcDbScale
 70
     0
300
1/8" = 1'-0"
140
0.125
141
12.0
290
     0
  0
SCALE
  5
4F
102
{ACAD_REACTORS
330
47
102
}
330
47
100
AcDbScale
 70
     0
300
3/16" = 1'-0"
140
0.1875
141
12.0
290
     0
  0
SCALE
  5
50
102
{ACAD_REACTORS
330
47
102
}
330
47
100
AcDbScale
 70
     0
300
1/4" = 1'-0"
140
0.25
141
12.0
290
     0
  0
SCALE
  5
51
102
{ACAD_REACTORS
330
47
102
}
330
47
100
AcDbScale
 70
     0
300
3/8" = 1'-0"
140
0.375
141
12.0
290
     0
  0
SCALE
  5
52
102
{ACAD_REACTORS
330
47
102
}
330
47
100
AcDbScale
 70
     0
300
1/2" = 1'-0"
140
0.5
141
12.0
290
     0
  0
SCALE
  5
53
102
{ACAD_REACTORS
330
47
102
}
330
47
100
AcDbScale
 70
     0
300
3/4" = 1'-0"
140
0.75
141
12.0
290
     0
  0
SCALE
  5
54
102
{ACAD_REACTORS
330
47
102
}
330
47
100
AcDbScale
 70
     0
300
1" = 1'-0"
140
1.0
141
12.0
290
     0
  0
SCALE
  5
55
102
{ACAD_REACTORS
330
47
102
}
330
47
100
AcDbScale
 70
     0
300
1-1/2" = 1'-0"
140
1.5
141
12.0
290
     0
  0
SCALE
  5
56
102
{ACAD_REACTORS
330
47
102
}
330
47
100
AcDbScale
 70
     0
300
3" = 1'-0"
140
3.0
141
12.0
290
     0
  0
SCALE
  5
57
102
{ACAD_REACTORS
330
47
102
}
330
47
100
AcDbScale
 70
     0
300
6" = 1'-0"
140
6.0
141
12.0
290
     0
  0
SCALE
  5
58
102
{ACAD_REACTORS
330
47
102
}
330
47
100
AcDbScale
 70
     0
300
1'-0" = 1'-0"
140
12.0
141
12.0
290
     0
  0
ENDSEC
  0
EOF
